<svg id="Layer_1" xmlns="http://www.w3.org/2000/svg" width="156" height="19">
  <style>
    .st4{fill:#fff}
  </style>
  <linearGradient id="path0_fill_1_" gradientUnits="userSpaceOnUse" x1="69.887" y1="21.442" x2="70.886" y2="21.442" gradientTransform="matrix(0 17.7157 -17.7561 0 389.247 -1237.3)">
    <stop offset="0" stop-color="#f7a01d"/>
    <stop offset=".172" stop-color="#dbbdf6"/>
    <stop offset=".717" stop-color="#dbbdf6"/>
    <stop offset="1" stop-color="#dbbdf6"/>
  </linearGradient>
  <path id="path0_fill" d="M0 .8h17v17.7H0V.8z" fill="url(#path0_fill_1_)"/>
  <linearGradient id="path1_fill_1_" gradientUnits="userSpaceOnUse" x1="70.208" y1="10.254" x2="71.208" y2="10.254" gradientTransform="matrix(0 -9.6369 9.6589 0 -90.484 687.02)">
    <stop offset="0" stop-color="#fff"/>
    <stop offset=".796" stop-color="#fff" stop-opacity="0"/>
  </linearGradient>
  <path id="path1_fill" d="M.7.8h15.7v9.6H.7V.8z" fill="url(#path1_fill_1_)" opacity=".55"/>
  <linearGradient id="path2_fill_1_" gradientUnits="userSpaceOnUse" x1="65.901" y1="17.382" x2="66.901" y2="17.382" gradientTransform="matrix(17.0783 0 0 17.0394 -1125.481 -286.531)">
    <stop offset=".59"/>
    <stop offset="1" stop-color="#262626"/>
  </linearGradient>
  <path d="M0 8.5c4.8 2.7 8.4 6.7 8.5 8.3 1.6-7.5 4.7-13.7 8.6-16v7.8c-2.5 0-7.3 7.7-7.3 9.9H7.5S5.4 15.3 0 14.9V8.5z" fill="url(#path2_fill_1_)"/>
  <path class="st4" d="M40.7 10.6v7.6h-1.9V.8h4.5c2 0 3.5.4 4.4 1.2 1 .8 1.4 2.1 1.4 3.7 0 2.3-1.1 3.5-3.2 4.3 0 0 2.4 1.1 4.4 8.2h-2.2s-2-7.6-4.6-7.6h-2.8zm0-1.7h2.5c1.3 0 2.2-.3 2.8-.8.6-.5.9-1.3.9-2.4 0-1.1-.3-1.9-.9-2.3-.6-.5-1.6-.7-2.9-.7h-2.3v6.2zM22.2 2.6h5.5v15.6h2V2.6h5.5V.8h-13v1.8zm42 9.5c0 1.5-.4 2.6-1.2 3.4-.8.8-1.9 1.2-3.4 1.2s-2.7-.4-3.5-1.2c-.8-.8-1.2-1.9-1.2-3.4V.8h-2V12c0 2 .6 3.6 1.7 4.7s2.8 1.7 4.9 1.7c2.1 0 3.8-.6 5-1.7 1.2-1.1 1.8-2.7 1.8-4.7V.8h-2l-.1 11.3zM80.9.8v1.8h5.5v15.6h2V2.6H94V.8H80.9z"/>
  <path d="M108.1 5.9c0 1.8-.6 3.1-1.8 4.1-1.2 1-2.9 1.4-5.2 1.4H99v6.8h-2V.8h4.5c4.4 0 6.6 1.7 6.6 5.1zM99 9.6h1.8c1.8 0 3.1-.3 3.9-.9.8-.6 1.2-1.5 1.2-2.8 0-1.2-.4-2-1.1-2.6-.8-.6-1.9-.8-3.5-.8H99v7.1zM110.9.8h2v17.4h-2V.8zm8.7 15.6V.8h-2v17.4h9.7v-1.8h-7.7zm22.7-6.9c0 2.8-.7 5-2 6.6-1.3 1.6-3.2 2.4-5.5 2.4-2.4 0-4.3-.8-5.6-2.3-1.3-1.6-2-3.8-2-6.7 0-2.8.7-5 2-6.6s3.2-2.3 5.6-2.3c2.4 0 4.2.8 5.5 2.4 1.4 1.5 2 3.7 2 6.5zm-13 0c0 2.3.5 4.2 1.4 5.4.9 1.2 2.3 1.8 4.1 1.8 1.8 0 3.2-.6 4.1-1.8.9-1.2 1.4-3 1.4-5.4 0-2.3-.5-4.1-1.4-5.3-.9-1.2-2.3-1.8-4.1-1.8-1.8 0-3.2.6-4.1 1.8-.9 1.2-1.4 3-1.4 5.3zM142.9.8v1.8h5.6v15.6h2V2.6h5.5V.8h-13.1z" fill="#929396"/>
  <path class="st4" d="M78.2 10.8c-.7-.7-1.9-1.4-3.6-2.1-1-.4-1.8-.7-2.3-1.1-.5-.3-.9-.7-1.1-1.1-.2-.4-.3-.9-.3-1.5 0-.8.3-1.5.9-1.9.6-.5 1.4-.7 2.4-.7 2.1 0 3.8 1.3 3.8 1.3l.5-1.7S76.7.7 74.1.7c-1.6 0-2.9.4-3.8 1.2-1 .8-1.4 1.9-1.4 3.2 0 1.3.3 2.3 1 3.1.7.8 1.8 1.5 3.3 2.1 1.1.4 1.9.8 2.5 1.1s.9.7 1.2 1.1c.2.4.3.9.3 1.5 0 .9-.3 1.6-1 2.1-.6.5-1.6.8-2.9.8-1.7 0-3.7-1.2-4.4-1.5v2c1.1.5 2.4 1.3 4.4 1.3 1.8 0 3.3-.4 4.3-1.3 1.1-.9 1.6-2.1 1.6-3.6 0-1.3-.4-2.3-1-3z"/>
</svg>
