<svg width="37" height="32" viewBox="0 0 37 32" fill="none" xmlns="http://www.w3.org/2000/svg">
<path fill-rule="evenodd" clip-rule="evenodd" d="M13.4119 20.4516H29.6785C30.6557 20.4522 31.539 19.8663 31.9233 18.9627L36.8033 7.50982C37.1259 6.75137 37.0481 5.88064 36.5962 5.19222C36.1442 4.50381 35.3787 4.08982 34.5585 4.09031H7.71853C7.24936 4.0964 6.79189 4.23842 6.40093 4.49935L4.77426 0.736257C4.58079 0.290367 4.14369 0.00154904 3.66 0H1.22C0.546212 0 0 0.549389 0 1.22709C0 1.9048 0.546212 2.45419 1.22 2.45419H2.84667L10.2724 19.519C11.192 22.2866 10.8528 25.321 9.34519 27.8141C9.34325 29.4791 10.3448 30.9791 11.8779 31.6071C13.4109 32.2351 15.1694 31.8659 16.3246 30.6734C17.4797 29.4809 17.801 27.7031 17.1369 26.178H25.9616C25.2441 27.8319 25.6888 29.7632 27.0562 30.9314C28.4235 32.0995 30.3903 32.2285 31.8969 31.2488C33.4034 30.2691 34.0937 28.4121 33.5957 26.6786C33.0978 24.9451 31.5293 23.7445 29.7355 23.7238H13.6071H13.4444C12.546 23.7238 11.8177 22.9913 11.8177 22.0877C11.8177 21.1841 12.546 20.4516 13.4444 20.4516H13.4119ZM34.5585 6.5445L29.6785 17.9974H12.5985L7.71851 6.5445H34.5585ZM15.0385 27.8141C15.0385 28.7176 14.3102 29.4501 13.4118 29.4501C12.5135 29.4501 11.7852 28.7176 11.7852 27.8141C11.7852 26.9105 12.5135 26.178 13.4118 26.178C14.3102 26.178 15.0385 26.9105 15.0385 27.8141ZM31.3052 27.8141C31.3052 28.7176 30.5769 29.4501 29.6785 29.4501C28.7801 29.4501 28.0518 28.7176 28.0518 27.8141C28.0518 26.9105 28.7801 26.178 29.6785 26.178C30.5769 26.178 31.3052 26.9105 31.3052 27.8141Z" fill="white"/>
</svg>
