<svg xmlns="http://www.w3.org/2000/svg" width="32" height="27" viewBox="0 0 32 27"><g><g><path fill="#3f97ff" d="M31.509 7.916c0 10.059-14.006 18.436-14.6 18.785a2.209 2.209 0 0 1-2.218 0C14.068 26.366 0 18.027 0 7.91 0 3.25 3.4 0 8.297 0c3.344 0 6.072 2.412 7.772 3.988C17.734 2.399 20.414 0 23.765 0c4.75 0 7.695 3.032 7.744 7.916zm-2.176-.004c0-3.54-1.84-5.932-5.597-5.932-3.756 0-6.995 4.614-7.695 4.614-.7 0-4.037-4.614-7.793-4.614-3.757 0-6.198 2.393-6.198 5.932 0 9.162 13.67 17.138 13.67 17.138s13.64-8.061 13.613-17.138z"/></g></g></svg>