<svg width="337" height="67" viewBox="0 0 337 67" fill="none" xmlns="http://www.w3.org/2000/svg">
<path d="M33.208 56H25.76L22.68 44.016C21.9707 41.7013 20.4773 40.544 18.2 40.544L11.256 40.488V56H4.312V17.36C7.63467 17.024 12.32 16.856 18.368 16.856C23.2587 16.856 26.712 17.6773 28.728 19.32C30.7813 20.9253 31.808 23.8747 31.808 28.168C31.808 31.1547 31.248 33.4507 30.128 35.056C29.008 36.624 27.16 37.576 24.584 37.912V38.192C25.704 38.4533 26.7493 39.0507 27.72 39.984C28.6907 40.9173 29.3627 42.224 29.736 43.904L33.208 56ZM11.256 34.776H18.2C20.7013 34.7387 22.4 34.2907 23.296 33.432C24.2293 32.5733 24.696 30.968 24.696 28.616C24.696 26.264 24.2293 24.6773 23.296 23.856C22.4 23.0347 20.7013 22.624 18.2 22.624H11.256V34.776ZM64.1708 50.344L64.5068 55.664C61.1094 55.9627 55.4348 56.112 47.4828 56.112C44.9441 56.112 42.9281 55.4587 41.4348 54.152C39.9788 52.8453 39.2321 51.0533 39.1948 48.776V24.584C39.2321 22.3067 39.9788 20.5147 41.4348 19.208C42.9281 17.9013 44.9441 17.248 47.4828 17.248C55.4348 17.248 61.1094 17.3973 64.5068 17.696L64.1708 23.072H49.0508C48.0428 23.072 47.3148 23.3147 46.8668 23.8C46.4561 24.2853 46.2508 25.1253 46.2508 26.32V33.096H62.0988V38.472H46.2508V47.096C46.2508 48.2907 46.4561 49.1307 46.8668 49.616C47.3148 50.1013 48.0428 50.344 49.0508 50.344H64.1708ZM102.775 17.36V53.424C102.775 55.1413 101.916 56 100.199 56H94.6549C93.3109 56 92.3402 55.2907 91.7429 53.872L80.8789 30.184C79.5722 27.384 78.8069 25.4613 78.5829 24.416H77.9109C78.1349 25.984 78.2469 27.9253 78.2469 30.24V56H71.3589V19.936C71.3589 18.2187 72.2362 17.36 73.9909 17.36H79.4229C80.1695 17.36 80.7482 17.528 81.1589 17.864C81.6069 18.2 81.9989 18.7413 82.3349 19.488L92.8629 42.504C92.9749 42.7653 93.3669 43.6427 94.0389 45.136C94.7109 46.6293 95.2149 47.7867 95.5509 48.608H96.2229C96.0362 46.256 95.9429 44.1653 95.9429 42.336V17.36H102.775ZM139.054 23.352H127.126V56H120.07V23.352H108.254V17.36H139.054V23.352ZM174.435 17.36L163.515 54.04C163.141 55.3467 162.283 56 160.939 56H154.331C153.733 56 153.192 55.832 152.707 55.496C152.259 55.1227 151.96 54.6373 151.811 54.04L140.835 17.36H148.059L155.955 46.368C156.067 46.816 156.235 47.544 156.459 48.552C156.683 49.5227 156.851 50.232 156.963 50.68H158.363C158.587 49.4853 158.941 48.048 159.427 46.368L167.211 17.36H174.435Z" fill="white"/>
<path d="M198.52 26.33H202.777C203.809 26.33 204.325 26.8603 204.325 27.921L205.572 56H201.788L200.713 29.469H199.81L193.188 51.356C192.959 52.216 192.414 52.646 191.554 52.646H188.157C187.268 52.646 186.695 52.216 186.437 51.356L179.815 29.469H178.955L177.923 56H174.139L175.3 27.921C175.357 26.8603 175.888 26.33 176.891 26.33H181.191C181.994 26.33 182.524 26.76 182.782 27.62L188.329 45.723C188.501 46.239 188.716 47.013 188.974 48.045C189.261 49.0483 189.418 49.6073 189.447 49.722H190.221C190.307 49.4067 190.465 48.7903 190.694 47.873C190.952 46.927 191.167 46.1817 191.339 45.637L196.886 27.62C197.115 26.76 197.66 26.33 198.52 26.33ZM228.188 46.712H215.976L213.052 56H209.139L218.685 27.362C218.857 26.674 219.33 26.33 220.104 26.33H224.06C224.834 26.33 225.307 26.674 225.479 27.362L235.025 56H231.112L228.188 46.712ZM227.156 43.444L223.415 31.662C223.157 30.9167 222.913 30.114 222.684 29.254H221.48L220.749 31.662L217.008 43.444H227.156ZM260.097 56H256.055L253.432 46.712C253.059 45.594 252.558 44.8057 251.927 44.347C251.296 43.8597 250.479 43.616 249.476 43.616C248.473 43.616 247.24 43.616 245.778 43.616C244.345 43.5873 243.399 43.573 242.94 43.573V56H239.199V26.33C241.607 26.072 245.018 25.943 249.433 25.943C252.959 25.943 255.439 26.5593 256.872 27.792C258.305 28.996 259.022 31.232 259.022 34.5C259.022 36.9367 258.592 38.757 257.732 39.961C256.901 41.165 255.51 41.896 253.561 42.154V42.369C254.364 42.5697 255.095 43.0427 255.754 43.788C256.413 44.5047 256.901 45.4507 257.216 46.626L260.097 56ZM242.94 40.348H249.347C251.583 40.3193 253.117 39.918 253.948 39.144C254.779 38.37 255.195 36.8937 255.195 34.715C255.195 32.565 254.779 31.1173 253.948 30.372C253.117 29.598 251.583 29.211 249.347 29.211C246.194 29.211 244.058 29.2253 242.94 29.254V40.348ZM272.918 42.068H269.263C269.435 43.1573 269.521 44.2037 269.521 45.207V56H265.78V26.33H269.521V35.618C269.521 36.7647 269.435 37.897 269.263 39.015H272.875L281.905 26.33H286.033L277.39 38.628C277.046 39.144 276.501 39.7747 275.756 40.52V40.606C276.559 41.38 277.175 42.068 277.605 42.67L286.635 56H282.378L272.918 42.068ZM308.908 52.861L309.08 55.785C306.443 55.957 302.2 56.043 296.352 56.043C294.604 56.043 293.213 55.5843 292.181 54.667C291.178 53.721 290.662 52.4597 290.633 50.883V31.447C290.662 29.8703 291.178 28.6233 292.181 27.706C293.213 26.76 294.604 26.287 296.352 26.287C302.2 26.287 306.443 26.373 309.08 26.545L308.908 29.512H296.997C295.277 29.512 294.417 30.458 294.417 32.35V38.8H307.231V41.853H294.417V49.98C294.417 51.9007 295.277 52.861 296.997 52.861H308.908ZM335.163 29.684H325.574V56H321.79V29.684H312.244V26.33H335.163V29.684Z" fill="#3F97FF"/>
</svg>
