<svg width="42" height="44" viewBox="0 0 42 44" fill="none" xmlns="http://www.w3.org/2000/svg">
<g clip-path="url(#clip0)">
<path d="M0.479511 12.4461L10.1713 2.61108C10.4915 2.28661 10.8705 2.12451 11.3077 2.12451C11.5088 2.12451 11.7198 2.16721 11.9382 2.25234C12.5947 2.54272 12.923 3.04642 12.923 3.76353V8.68131H16.9616C18.7451 8.68131 20.3987 8.77523 21.9213 8.96298C23.444 9.15065 24.786 9.41089 25.947 9.74414C27.1081 10.0768 28.1556 10.491 29.0896 10.9862C30.0233 11.4812 30.8183 12.0064 31.4747 12.5614C32.1312 13.1163 32.7074 13.7482 33.2038 14.4568C33.7004 15.1653 34.0956 15.8609 34.3904 16.544C34.6846 17.2272 34.9201 17.9784 35.0969 18.7978C35.2739 19.6175 35.3916 20.3857 35.4504 21.1026C35.5093 21.8197 35.5388 22.5969 35.5388 23.4331C35.5388 24.3896 35.3913 25.431 35.0969 26.5583C34.8024 27.6849 34.4785 28.658 34.1251 29.4778C33.7719 30.2968 33.3552 31.1466 32.8756 32.0257C32.3961 32.905 32.0639 33.4894 31.8788 33.7799C31.6937 34.0696 31.5167 34.3349 31.3486 34.5738C31.1804 34.7957 30.9616 34.9066 30.6925 34.9066C30.6249 34.9066 30.5244 34.8899 30.3896 34.8557C30.0026 34.6677 29.8345 34.378 29.8849 33.9851C30.6421 28.248 30.0193 24.2095 28.0171 21.8705C26.0817 19.6338 22.3967 18.5152 16.9619 18.5152H12.923V23.4326C12.923 24.1503 12.595 24.6537 11.9385 24.9442C11.72 25.0295 11.5095 25.0719 11.308 25.0719C10.8536 25.0719 10.4748 24.9099 10.1716 24.5857L0.479424 14.7506C0.160015 14.4259 -9.15527e-05 14.0421 -9.15527e-05 13.5981C0 13.1545 0.160103 12.77 0.479511 12.4461Z" fill="#818184"/>
</g>
<defs>
<clipPath id="clip0">
<rect width="42" height="42.6176" fill="white" transform="matrix(-1 0 0 1 42 0.485352)"/>
</clipPath>
</defs>
</svg>
