<svg width="17" height="20" viewBox="0 0 17 20" fill="none" xmlns="http://www.w3.org/2000/svg">
<path d="M16.665 14.811C16.3881 15.4565 16.046 16.072 15.644 16.648C15.107 17.415 14.666 17.945 14.328 18.24C13.803 18.722 13.239 18.97 12.636 18.984C12.204 18.984 11.682 18.861 11.074 18.611C10.464 18.362 9.90402 18.24 9.39102 18.24C8.85402 18.24 8.27802 18.362 7.66102 18.611C7.04502 18.861 6.54702 18.992 6.16602 19.004C5.58902 19.029 5.01202 18.775 4.43702 18.24C4.07002 17.92 3.61102 17.37 3.06002 16.592C2.47002 15.763 1.98502 14.798 1.60502 13.701C1.19802 12.514 0.994019 11.366 0.994019 10.254C0.994019 8.98099 1.26902 7.88199 1.82002 6.96199C2.23677 6.23946 2.83257 5.63643 3.55002 5.21099C4.25749 4.78666 5.06511 4.55818 5.89002 4.54899C6.35002 4.54899 6.95302 4.69099 7.70002 4.97099C8.44702 5.25099 8.92702 5.39299 9.13602 5.39299C9.29402 5.39299 9.82502 5.22599 10.729 4.89499C11.582 4.58799 12.302 4.46099 12.892 4.51099C14.492 4.63999 15.693 5.26999 16.492 6.40599C15.062 7.27299 14.355 8.48599 14.369 10.043C14.381 11.256 14.822 12.265 15.686 13.066C16.068 13.4315 16.5137 13.724 17.001 13.929C16.895 14.236 16.783 14.529 16.665 14.811ZM12.998 0.379993C12.998 1.32999 12.65 2.21799 11.959 3.03899C11.123 4.01499 10.113 4.57999 9.01802 4.49099C9.0037 4.37153 8.99668 4.25131 8.99702 4.13099C8.99702 3.21799 9.39302 2.24199 10.1 1.44299C10.452 1.03899 10.9 0.701993 11.443 0.433993C11.985 0.169993 12.497 0.0239929 12.979 -0.00100708C12.992 0.126993 12.998 0.253993 12.998 0.379993Z" fill="white"/>
</svg>
