<svg width="12" height="16" viewBox="0 0 12 16" fill="none" xmlns="http://www.w3.org/2000/svg">
<path d="M9.69416 7.5825C10.5607 7.1395 11.1122 6.3515 10.9842 5.042C10.8167 3.2495 9.34466 2.649 7.39516 2.4815V0H5.87866V2.4125C5.48466 2.4125 5.08116 2.4225 4.67716 2.432V0H3.16066V2.4815C2.60316 2.4985 1.95366 2.49 0.118164 2.4815V4.0965C1.31516 4.0755 1.94366 3.9985 2.08766 4.766V11.5605C1.99616 12.1695 1.50866 12.082 0.423664 12.063L0.118664 13.865C2.88366 13.865 3.16166 13.875 3.16166 13.875V16H4.67816V13.9045C5.09166 13.9145 5.49516 13.9145 5.87966 13.9145V16.0005H7.39616V13.8755C9.93666 13.7375 11.6352 13.0975 11.8617 10.7045C12.0387 8.7845 11.1332 7.9275 9.69516 7.583L9.69416 7.5825ZM4.70666 4.205C5.56316 4.205 8.24166 3.939 8.24166 5.7215C8.24166 7.425 5.56316 7.228 4.70666 7.228V4.205ZM4.70666 12.0725V8.744C5.73066 8.744 8.86666 8.4585 8.86666 10.408C8.86666 12.289 5.73066 12.072 4.70666 12.072V12.0725Z" fill="white"/>
</svg>
