<svg width="14" height="16" viewBox="0 0 14 16" fill="none" xmlns="http://www.w3.org/2000/svg">
<path d="M7.33602 0C7.23202 0 7.12552 0.0055 7.01552 0.0135C4.19802 0.237 4.94552 3.219 4.90352 4.2135C4.85152 4.94 4.70352 5.5155 4.20352 6.227C3.61202 6.9275 2.78402 8.0605 2.39102 9.2395C2.20652 9.794 2.11752 10.365 2.20102 10.9015C2.16958 10.9248 2.14377 10.9549 2.12552 10.9895C1.95352 11.1695 1.82552 11.391 1.68502 11.5495C1.55252 11.682 1.36252 11.727 1.15352 11.8155C0.945524 11.906 0.713524 11.995 0.578024 12.271C0.518024 12.3965 0.486524 12.5315 0.489524 12.6725C0.489524 12.8025 0.508024 12.938 0.526024 13.029C0.565524 13.2945 0.604024 13.5135 0.552024 13.675C0.385524 14.1275 0.367524 14.4375 0.482024 14.6645C0.598524 14.8885 0.838524 14.977 1.10652 15.066C1.64852 15.1985 2.38002 15.1565 2.95852 15.464C3.57502 15.7765 4.20302 15.912 4.70302 15.7795C4.87549 15.7408 5.03718 15.6642 5.17634 15.5552C5.31549 15.4463 5.42863 15.3077 5.50752 15.1495C5.89802 15.147 6.32752 14.9695 7.01302 14.9255C7.47902 14.886 8.06252 15.105 8.73152 15.058C8.74952 15.1495 8.77302 15.1905 8.80952 15.282V15.2845C9.06952 15.8025 9.55152 16.037 10.0675 15.998C10.58 15.9565 11.127 15.6415 11.5695 15.126C11.9915 14.618 12.692 14.404 13.1555 14.126C13.3875 13.9925 13.575 13.8135 13.588 13.5555C13.6035 13.29 13.4555 13.014 13.114 12.639V12.5735L13.1115 12.571C12.997 12.4385 12.945 12.2145 12.885 11.9545C12.8275 11.686 12.765 11.431 12.557 11.2565C12.515 11.22 12.4735 11.212 12.4295 11.168C12.3926 11.142 12.3491 11.1267 12.304 11.124C12.5905 10.272 12.4785 9.426 12.1865 8.6625C11.8325 7.7225 11.21 6.9025 10.7385 6.34C10.207 5.6705 9.68652 5.0355 9.69702 4.0955C9.71502 2.66 9.85552 0.007 7.33502 0.0015L7.33602 0ZM7.68752 2.2705H7.69802C7.83852 2.2705 7.96052 2.3125 8.08602 2.401C8.21352 2.4915 8.30752 2.6225 8.37752 2.7575C8.44802 2.9295 8.48502 3.062 8.48952 3.239C8.48952 3.2265 8.49202 3.213 8.49202 3.2005V3.2705C8.49202 3.265 8.48952 3.2605 8.48952 3.255L8.48702 3.239C8.48702 3.401 8.45352 3.5625 8.38852 3.7105C8.35764 3.79476 8.30865 3.87122 8.24502 3.9345C8.22702 3.9245 8.20852 3.914 8.18752 3.906C8.11752 3.8745 8.05502 3.8645 7.99752 3.818C7.95021 3.79905 7.90137 3.78416 7.85152 3.7735C7.88302 3.735 7.94802 3.685 7.97402 3.641C8.00802 3.5575 8.02602 3.4665 8.03152 3.373V3.3595C8.03294 3.26924 8.01873 3.17941 7.98952 3.094C7.96102 3.0055 7.92502 2.9605 7.87002 2.8725C7.81252 2.828 7.75802 2.784 7.69002 2.784H7.68002C7.61752 2.784 7.56252 2.802 7.50552 2.8725C7.44297 2.93418 7.39645 3.01022 7.37002 3.094C7.3337 3.178 7.31335 3.26804 7.31002 3.3595V3.373C7.31002 3.4325 7.31552 3.4925 7.32252 3.5525C7.19252 3.5085 7.03102 3.461 6.91652 3.417C6.91029 3.37309 6.90679 3.32884 6.90602 3.2845V3.271C6.90096 3.09492 6.93494 2.9199 7.00552 2.7585C7.06002 2.6125 7.15902 2.487 7.29202 2.404C7.40602 2.3185 7.54402 2.2715 7.68752 2.2715V2.2705ZM5.71352 2.31H5.73702C5.83102 2.31 5.91702 2.3415 6.00302 2.3985C6.10152 2.4845 6.18052 2.591 6.23252 2.708C6.29252 2.8415 6.32602 2.9765 6.33652 3.1535V3.156C6.33902 3.2445 6.33902 3.292 6.33402 3.3335V3.388L6.27952 3.4035C6.17802 3.44 6.09752 3.492 6.01602 3.537C6.02402 3.477 6.02402 3.417 6.01852 3.3595V3.349C6.01102 3.261 5.99252 3.2165 5.96402 3.1275C5.94268 3.05906 5.90412 2.99725 5.85202 2.948C5.81928 2.9188 5.77633 2.90371 5.73252 2.906H5.71652C5.67002 2.9085 5.63052 2.932 5.59452 2.9945C5.55045 3.0452 5.52243 3.10785 5.51402 3.1745C5.49552 3.2445 5.49002 3.32 5.49802 3.396V3.4035C5.50602 3.495 5.52152 3.5395 5.55252 3.6275C5.57264 3.69533 5.61043 3.75659 5.66202 3.805C5.67002 3.813 5.67552 3.8185 5.68552 3.8205C5.63902 3.86 5.60752 3.868 5.56902 3.912C5.54252 3.9305 5.51452 3.954 5.48052 3.9595C5.41118 3.87609 5.35006 3.78617 5.29802 3.691C5.23423 3.55084 5.19888 3.39942 5.19402 3.2455C5.18393 3.09507 5.20155 2.94406 5.24602 2.8C5.28552 2.67 5.34802 2.5475 5.43602 2.4435C5.52202 2.355 5.60802 2.311 5.71452 2.311L5.71352 2.31ZM6.62752 3.448C6.84902 3.448 7.11502 3.4895 7.43752 3.7135C7.63302 3.847 7.78702 3.8935 8.14102 4.0235C8.31302 4.115 8.41152 4.2035 8.46102 4.292V4.2035C8.48477 4.2518 8.49798 4.30459 8.49979 4.35837C8.5016 4.41216 8.49197 4.46572 8.47152 4.5155C8.38802 4.724 8.12752 4.9455 7.76102 5.078V5.0805C7.58352 5.169 7.42752 5.302 7.24502 5.3905C7.06052 5.479 6.85152 5.586 6.57052 5.568C6.46876 5.57247 6.36709 5.55736 6.27102 5.5235C6.19696 5.48418 6.12563 5.43991 6.05752 5.391C5.92752 5.3025 5.81552 5.1695 5.64902 5.081V5.0785H5.64652C5.37802 4.9145 5.23502 4.737 5.18802 4.6045C5.14402 4.425 5.18552 4.2925 5.31852 4.204C5.46652 4.1155 5.57052 4.024 5.63852 3.98C5.70852 3.9305 5.73502 3.912 5.75602 3.894H5.75852V3.8915C5.87052 3.756 6.04702 3.579 6.31852 3.49C6.40902 3.4665 6.51402 3.4485 6.62802 3.4485L6.62752 3.448ZM8.49202 4.8745C8.73202 5.82 9.29202 7.1925 9.65152 7.8565C9.84152 8.213 10.2215 8.963 10.3855 9.8725C10.4895 9.87 10.604 9.885 10.727 9.9165C11.159 8.802 10.365 7.604 10.003 7.2705C9.85452 7.138 9.84702 7.049 9.91952 7.049C10.313 7.403 10.828 8.0965 11.0155 8.885C11.1015 9.2415 11.123 9.6225 11.0315 9.9995C11.0755 10.0175 11.12 10.041 11.167 10.0435C11.8545 10.401 12.1095 10.669 11.987 11.0695V11.041C11.9485 11.039 11.9065 11.041 11.8675 11.041H11.857C11.959 10.729 11.735 10.489 11.1465 10.2235C10.537 9.958 10.05 9.9995 9.96652 10.5335C9.96063 10.5637 9.95728 10.5943 9.95652 10.625C9.90902 10.6405 9.86252 10.6585 9.81602 10.6665C9.52952 10.8465 9.37552 11.1145 9.28752 11.4585C9.20152 11.815 9.17552 12.229 9.15202 12.706C9.13602 12.93 9.03752 13.2655 8.93802 13.6065C7.93802 14.3225 6.55002 14.6325 5.37352 13.8305C5.29752 13.7005 5.20902 13.5805 5.10502 13.474C5.05509 13.3913 4.99288 13.3166 4.92052 13.2525C5.04252 13.2525 5.14702 13.232 5.23052 13.208C5.32589 13.1621 5.40087 13.0824 5.44102 12.9845C5.51152 12.807 5.44102 12.5205 5.20902 12.208C4.98052 11.8985 4.58952 11.5465 4.01902 11.1955C3.59752 10.93 3.36052 10.615 3.25102 10.2655C3.14152 9.909 3.15702 9.5415 3.24052 9.1695C3.40452 8.456 3.82402 7.761 4.09252 7.3255C4.16252 7.284 4.11602 7.417 3.81902 7.977C3.55552 8.477 3.05852 9.641 3.73752 10.5445C3.76362 9.88464 3.9102 9.23512 4.17002 8.628C4.54452 7.7765 5.33152 6.2925 5.39402 5.1155C5.42552 5.1415 5.53752 5.207 5.58652 5.251C5.73002 5.3395 5.83902 5.4725 5.98002 5.561C6.12052 5.6935 6.29752 5.785 6.56352 5.785C6.58952 5.7875 6.61302 5.7875 6.63602 5.7875C6.90952 5.7875 7.12352 5.699 7.30002 5.61C7.49252 5.5185 7.64952 5.386 7.79452 5.342H7.79702C8.10702 5.2535 8.35452 5.0735 8.49252 4.8755L8.49202 4.8745ZM9.95052 10.8465C9.97652 11.247 10.18 11.677 10.539 11.765C10.9295 11.8535 11.4945 11.5435 11.7315 11.255L11.872 11.2495C12.0825 11.244 12.2575 11.255 12.4365 11.427L12.439 11.4295C12.577 11.562 12.6425 11.7835 12.6995 12.013C12.757 12.281 12.801 12.5335 12.973 12.7235C13.2955 13.075 13.4025 13.3275 13.3975 13.484C13.387 13.658 13.272 13.7465 13.064 13.8795C12.6445 14.148 11.9 14.3535 11.426 14.927C11.014 15.419 10.512 15.687 10.0685 15.721C9.62602 15.7575 9.24302 15.5885 9.01902 15.1225L9.01652 15.12C8.87602 14.854 8.93602 14.4375 9.05302 13.9945C9.17052 13.549 9.33952 13.0965 9.36302 12.729C9.38652 12.2525 9.41252 11.8385 9.49052 11.5175C9.57102 11.2075 9.69652 10.986 9.92052 10.864L9.94902 10.848L9.95052 10.8465ZM2.73952 10.88H2.74752C2.78402 10.88 2.81802 10.8825 2.85152 10.8905C3.10152 10.927 3.32302 11.112 3.53402 11.3905L4.14052 12.5L4.14302 12.5025C4.30452 12.8565 4.64552 13.2105 4.93452 13.594C5.22402 13.992 5.44802 14.3485 5.42202 14.6405V14.646C5.38252 15.1405 5.10152 15.4085 4.67202 15.508C4.24202 15.5965 3.65852 15.508 3.07552 15.198C2.43002 14.8415 1.66152 14.8855 1.16952 14.7965C0.925024 14.7525 0.763524 14.661 0.687524 14.5285C0.615024 14.396 0.612024 14.127 0.771024 13.708V13.706C0.849024 13.482 0.792524 13.2035 0.753024 12.9585C0.716524 12.6925 0.698524 12.4865 0.781524 12.333C0.888024 12.109 1.04702 12.0675 1.24202 11.9765C1.43752 11.888 1.66952 11.844 1.85152 11.664H1.85402V11.6615C2.02352 11.485 2.15152 11.2635 2.29952 11.104C2.42502 10.9685 2.55202 10.88 2.73952 10.88ZM7.51352 4.8305C7.22402 4.963 6.88302 5.187 6.52102 5.187C6.15902 5.187 5.87502 5.0105 5.66952 4.877C5.56552 4.7865 5.48202 4.6975 5.41952 4.653C5.31002 4.565 5.32302 4.4295 5.37002 4.4295C5.44252 4.4395 5.45602 4.52 5.50252 4.565C5.56802 4.609 5.64602 4.6975 5.74202 4.7865C5.93752 4.919 6.19802 5.0985 6.52052 5.0985C6.84402 5.0985 7.22402 4.919 7.45302 4.7865C7.58302 4.698 7.74952 4.565 7.88502 4.4765C7.98902 4.385 7.98452 4.2965 8.06952 4.2965C8.15552 4.307 8.09352 4.385 7.97352 4.518C7.85102 4.6095 7.66352 4.742 7.51302 4.8305H7.51352ZM6.79202 3.7735V3.761C6.78952 3.7475 6.79952 3.7325 6.81252 3.727C6.85902 3.6985 6.93202 3.7085 6.98452 3.7295C7.02602 3.7295 7.09102 3.7735 7.08602 3.82C7.08052 3.8515 7.02852 3.8645 6.99452 3.8645C6.95852 3.8645 6.93202 3.836 6.90102 3.818C6.86702 3.8075 6.80152 3.8125 6.79152 3.7735H6.79202ZM6.42452 3.7735C6.41102 3.813 6.34852 3.8075 6.31502 3.818C6.28352 3.836 6.25752 3.8645 6.22102 3.8645C6.18702 3.8645 6.13252 3.851 6.12952 3.818C6.12502 3.7735 6.18702 3.7295 6.22902 3.7295C6.28352 3.708 6.35102 3.698 6.40302 3.727C6.41352 3.7325 6.42702 3.7475 6.42152 3.761V3.7735H6.42452Z" fill="white"/>
</svg>
