<svg xmlns="http://www.w3.org/2000/svg" width="14" height="16" viewBox="0 0 14 16"><g><g><path fill="#352985" d="M7.336.002c2.52.005 2.38 2.658 2.362 4.094-.01.94.51 1.575 1.041 2.244.472.563 1.094 1.383 1.448 2.322.293.764.405 1.61.118 2.462a.244.244 0 0 1 .126.044c.044.044.085.052.127.088.208.175.27.43.328.698.06.26.112.484.227.617l.002.003v.065c.341.375.49.651.474.916-.013.258-.2.437-.433.571-.463.278-1.164.492-1.586 1-.442.515-.989.83-1.502.872a1.255 1.255 0 0 1-1.258-.714v-.002c-.036-.092-.06-.133-.078-.224-.669.047-1.252-.172-1.718-.133-.686.044-1.115.222-1.506.224a1.189 1.189 0 0 1-.804.63c-.5.133-1.128-.003-1.745-.315-.578-.308-1.31-.266-1.852-.398-.268-.089-.508-.178-.624-.402-.115-.227-.097-.537.07-.989.052-.162.013-.38-.026-.646a1.95 1.95 0 0 1-.037-.357.88.88 0 0 1 .089-.401c.135-.276.367-.365.575-.456.21-.088.4-.133.532-.266.14-.158.268-.38.44-.56a.261.261 0 0 1 .076-.088c-.084-.536.005-1.107.19-1.662.393-1.179 1.221-2.312 1.812-3.012.5-.712.648-1.287.7-2.014C4.946 3.22 4.2.237 7.016.013 7.126.005 7.233 0 7.337 0zm.352 2.27a.658.658 0 0 0-.395.132.707.707 0 0 0-.287.354c-.07.162-.104.337-.099.513v.013c0 .045.004.09.01.133.115.044.276.091.406.136a1.554 1.554 0 0 1-.012-.18v-.014a.736.736 0 0 1 .06-.265.538.538 0 0 1 .135-.222c.057-.07.112-.088.175-.088h.01c.068 0 .122.044.18.089.055.087.091.132.12.221.029.085.043.175.041.266v.013a.841.841 0 0 1-.057.268c-.026.044-.091.094-.123.133.05.01.1.025.146.044.058.046.12.057.19.088.021.008.04.018.058.029a.614.614 0 0 0 .143-.224c.065-.148.099-.31.099-.472l.002.016c0 .006.003.01.003.016V3.2l-.003.038a1.257 1.257 0 0 0-.112-.481.986.986 0 0 0-.291-.357.646.646 0 0 0-.388-.13h-.01zm-1.973.039c-.106 0-.192.044-.278.133a.999.999 0 0 0-.19.356 1.23 1.23 0 0 0-.052.446c.005.153.04.305.104.445.052.095.113.185.182.269.034-.006.062-.03.089-.048.038-.044.07-.052.116-.091-.01-.003-.015-.008-.023-.016a.399.399 0 0 1-.11-.177.769.769 0 0 1-.054-.224v-.008a.617.617 0 0 1 .016-.221.339.339 0 0 1 .08-.18c.036-.063.076-.086.122-.089h.016a.166.166 0 0 1 .12.042c.052.05.09.111.112.18.028.089.047.133.054.221v.01a.783.783 0 0 1-.002.178c.081-.045.162-.097.263-.134l.055-.015v-.054c.005-.042.005-.09.002-.178v-.003a1.209 1.209 0 0 0-.104-.445.897.897 0 0 0-.229-.31.473.473 0 0 0-.266-.088h-.024zm.914 1.138c-.114 0-.219.018-.31.041a1.22 1.22 0 0 0-.56.402v.002h-.002c-.021.018-.048.036-.118.086-.068.044-.172.136-.32.224-.133.088-.174.221-.13.4.047.133.19.31.458.474h.003v.003c.166.088.278.222.408.31.069.049.14.093.214.133a.796.796 0 0 0 .3.044c.28.018.49-.089.674-.177.182-.089.338-.222.516-.31v-.003c.366-.133.627-.354.71-.563a.38.38 0 0 0-.01-.311v.088c-.05-.088-.148-.177-.32-.268-.354-.13-.508-.177-.704-.31a1.342 1.342 0 0 0-.81-.266zm1.864 1.426zm0 0a1.28 1.28 0 0 1-.695.467h-.003c-.145.044-.302.176-.494.268a1.43 1.43 0 0 1-.664.177c-.023 0-.047 0-.073-.002a.799.799 0 0 1-.583-.224c-.141-.089-.25-.222-.394-.31-.049-.044-.16-.11-.192-.136-.063 1.177-.85 2.661-1.224 3.513a5.415 5.415 0 0 0-.433 1.917c-.679-.904-.182-2.068.082-2.568.297-.56.343-.693.273-.652-.268.436-.688 1.131-.852 1.844-.083.372-.099.74.011 1.096.11.35.346.665.768.93.57.351.961.703 1.19 1.013.232.312.302.599.232.776a.429.429 0 0 1-.21.224 1.116 1.116 0 0 1-.31.044.956.956 0 0 1 .184.222c.104.106.192.226.268.356 1.177.802 2.565.492 3.565-.224.1-.34.198-.676.214-.9.023-.477.05-.891.135-1.248.088-.344.242-.612.529-.792.046-.008.093-.026.14-.041.001-.03.005-.061.01-.091.084-.535.571-.576 1.18-.31.589.265.813.505.711.817h.01c.04 0 .082-.002.12 0v.029c.123-.401-.132-.669-.82-1.027-.047-.002-.091-.025-.135-.043.091-.378.07-.759-.016-1.115-.188-.788-.703-1.482-1.097-1.836-.072 0-.065.089.084.221.362.334 1.156 1.532.724 2.646a1.266 1.266 0 0 0-.342-.044c-.164-.909-.544-1.659-.734-2.016-.359-.663-.919-2.035-1.159-2.98zm1.457 5.973l-.029.016c-.224.122-.349.344-.43.653-.078.322-.104.736-.127 1.212-.024.367-.193.82-.31 1.266-.117.442-.177.859-.037 1.125l.003.003c.224.465.607.634 1.05.598.443-.034.945-.302 1.357-.794.474-.574 1.219-.779 1.638-1.048.208-.133.323-.221.334-.395.005-.157-.102-.409-.425-.76-.172-.19-.216-.443-.273-.711-.057-.23-.123-.451-.261-.584l-.002-.002c-.18-.172-.354-.183-.565-.178l-.14.006c-.237.288-.802.598-1.193.51-.359-.088-.563-.518-.589-.919zm-7.21.032c-.187 0-.314.088-.44.224-.148.16-.276.381-.445.558v.002h-.003c-.182.18-.414.224-.609.313-.195.09-.354.132-.46.356-.084.153-.066.36-.029.625.04.246.096.524.018.748v.002c-.159.419-.156.688-.084.82.076.133.238.225.482.269.492.089 1.261.045 1.906.401.583.31 1.167.399 1.597.31.43-.1.71-.367.75-.862v-.005c.026-.292-.198-.649-.488-1.047-.289-.383-.63-.737-.791-1.091l-.003-.003-.606-1.11c-.211-.278-.433-.463-.683-.5a.442.442 0 0 0-.104-.01zm4.774-6.05c-.289.133-.63.357-.992.357s-.646-.177-.852-.31c-.104-.09-.187-.18-.25-.224-.109-.088-.096-.224-.049-.224.072.01.086.091.132.136.066.044.144.133.24.222.195.132.456.312.778.312.324 0 .704-.18.933-.312.13-.089.296-.222.432-.31.104-.092.1-.18.184-.18.086.01.024.088-.096.221a5.67 5.67 0 0 1-.46.313zm-.721-1.057v-.012c-.003-.014.007-.029.02-.034.047-.029.12-.018.172.003.042 0 .107.043.102.09-.006.032-.058.044-.092.044-.036 0-.062-.028-.093-.046-.034-.01-.1-.005-.11-.044zm-.368 0c-.013.04-.076.034-.109.045-.032.018-.058.046-.094.046-.034 0-.089-.013-.092-.046-.004-.044.058-.088.1-.088.054-.022.122-.032.174-.003.01.006.024.02.018.034v.013z"/></g></g></svg>