<svg width="24" height="24" viewBox="0 0 24 24" fill="none" xmlns="http://www.w3.org/2000/svg">
<path d="M17.3334 10.1094C14.7601 10.1094 12.6667 12.1333 12.6667 14.6211C12.6667 17.1089 14.7601 19.1328 17.3334 19.1328C19.9067 19.1328 22.0001 17.1089 22.0001 14.6211C22.0001 12.1333 19.9067 10.1094 17.3334 10.1094ZM17.3334 16.5547C16.2308 16.5547 15.3334 15.6871 15.3334 14.6211C15.3334 13.5551 16.2308 12.6875 17.3334 12.6875C18.436 12.6875 19.3334 13.5551 19.3334 14.6211C19.3334 15.6871 18.436 16.5547 17.3334 16.5547Z" fill="black"/>
<path d="M17.3334 13.9766C16.9659 13.9766 16.6667 14.2658 16.6667 14.6211C16.6667 14.9765 16.9659 15.2657 17.3334 15.2657C17.7009 15.2657 18.0001 14.9765 18.0001 14.6211C18.0001 14.2658 17.7009 13.9766 17.3334 13.9766Z" fill="black"/>
<path d="M14.0001 19.4427C14.7801 19.9479 15.6881 20.2814 16.6667 20.3863V21.711L14.0001 23V19.4427Z" fill="black"/>
<path d="M20.6667 19.4427V23L18.0001 21.711V20.3863C18.9787 20.2814 19.8867 19.9479 20.6667 19.4427Z" fill="black"/>
<path d="M14.6667 4.22269H6.66673C6.66673 4.93335 6.06846 5.51175 5.33339 5.51175V17.1992C6.06846 17.1992 6.66673 17.7776 6.66673 18.4883H12.8653C11.9129 17.4614 11.3334 16.1052 11.3334 14.6211C11.3334 13.4296 11.7067 12.321 12.3462 11.3985H8.66673V10.1094H12.6667V10.9787C13.4995 9.98302 14.6662 9.25859 16.0001 8.96469V5.51175C15.265 5.51175 14.6667 4.93335 14.6667 4.22269ZM14.0001 8.82034H7.33339V7.53128H14.0001V8.82034Z" fill="black"/>
<path d="M19.3334 1.00003V9.15167C18.7077 8.93716 18.0343 8.82034 17.3334 8.82034V4.22269H16.0001V2.93362H5.33339V4.22269H4.00006V18.4883H5.33339V19.7774H12.6667V21.711H2.00006V1.00003H19.3334Z" fill="black"/>
</svg>
