<svg width="24" height="24" viewBox="0 0 24 24" fill="none" xmlns="http://www.w3.org/2000/svg">
<path fill-rule="evenodd" clip-rule="evenodd" d="M17.4725 6.30129C17.0825 5.91129 16.4525 5.91129 16.0625 6.30129L10.4225 11.9413L11.8325 13.3513L17.4725 7.70129C17.8525 7.32129 17.8525 6.68129 17.4725 6.30129ZM21.7125 6.29129L11.8325 16.1713L8.3525 12.7013C7.9625 12.3113 7.3325 12.3113 6.9425 12.7013C6.5525 13.0913 6.5525 13.7213 6.9425 14.1113L11.1225 18.2913C11.5125 18.6813 12.1425 18.6813 12.5325 18.2913L23.1225 7.71129C23.5125 7.32129 23.5125 6.69129 23.1225 6.30129H23.1125C22.7325 5.90129 22.1025 5.90129 21.7125 6.29129ZM1.2925 14.1213L5.4725 18.3013C5.8625 18.6913 6.4925 18.6913 6.8825 18.3013L7.5825 17.6013L2.7025 12.7013C2.3125 12.3113 1.6825 12.3113 1.2925 12.7013C0.9025 13.0913 0.9025 13.7313 1.2925 14.1213Z" fill="#1D1D1D"/>
</svg>
