<svg width="24" height="24" viewBox="0 0 24 24" fill="none" xmlns="http://www.w3.org/2000/svg">
<path fill-rule="evenodd" clip-rule="evenodd" d="M13.12 2.44379L7.58 7.98379C7.21 8.35379 7 8.86379 7 9.39379V19.3838C7 20.4838 7.9 21.3838 9 21.3838H18C18.8 21.3838 19.52 20.9038 19.84 20.1738L23.1 12.5638C23.94 10.5838 22.49 8.38379 20.34 8.38379H14.69L15.64 3.80379C15.74 3.30379 15.59 2.79379 15.23 2.43379C14.64 1.85379 13.7 1.85379 13.12 2.44379ZM3 21.3838C4.1 21.3838 5 20.4838 5 19.3838V11.3838C5 10.2838 4.1 9.38379 3 9.38379C1.9 9.38379 1 10.2838 1 11.3838V19.3838C1 20.4838 1.9 21.3838 3 21.3838Z" fill="#1D1D1D"/>
</svg>
