<svg width="24" height="24" viewBox="0 0 24 24" fill="none" xmlns="http://www.w3.org/2000/svg">
<path d="M20.75 11.3572V9.4286C20.75 8.71849 20.1903 8.14289 19.5 8.14289H5.75C5.06063 8.14289 4.5 7.56624 4.5 6.85717C4.5 6.1481 5.06063 5.57146 5.75 5.57146H19.5C20.1903 5.57146 20.75 4.99578 20.75 4.28574C20.75 3.57571 20.1903 3.00003 19.5 3.00003H5.75C3.68211 3.00003 2 4.73024 2 6.85717V18.4286C2 19.8488 3.11937 21 4.5 21H19.5C20.1903 21 20.75 20.4244 20.75 19.7143V17.7857C21.4403 17.7857 22 17.2101 22 16.5V12.6429C22 11.9328 21.4403 11.3572 20.75 11.3572ZM18.875 15.8572C18.1847 15.8572 17.625 15.2816 17.625 14.5715C17.625 13.8613 18.1847 13.2857 18.875 13.2857C19.5653 13.2857 20.125 13.8613 20.125 14.5715C20.125 15.2816 19.5653 15.8572 18.875 15.8572Z" fill="black"/>
</svg>
