<svg width="24" height="24" viewBox="0 0 24 24" fill="none" xmlns="http://www.w3.org/2000/svg">
<path d="M11.9525 2.00003C13.5128 2.00003 14.9974 2.36304 16.3295 3.01239C16.5385 3.1081 16.7487 3.22265 16.957 3.33731L16.0435 4.15893L14.6742 2.72614L12.3146 4.82732L10.925 3.31797L6.5861 7.23428L9.36404 10.3099L8.27956 11.2648L11.0203 14.3405L9.93571 15.295L13.8561 19.6697L16.1765 17.5301L18.1946 19.8231C17.7946 20.1288 17.3569 20.435 16.8818 20.702C15.4352 21.5234 13.7603 22 11.9717 22C6.47151 22 2.00012 17.5117 2.00012 11.9914C1.9807 6.50846 6.45288 2.00003 11.9525 2.00003ZM10.1253 11.3797L12.5041 9.24004L14.636 11.6278L12.2566 13.7673L10.1253 11.3797ZM11.8195 15.5061L14.1789 13.3475L16.3295 15.7351L13.9506 17.8749L11.8195 15.5061ZM8.43262 7.31095L10.8108 5.17129L12.9421 7.55909L10.5632 9.69866L8.43262 7.31095ZM12.7896 6.1644L14.5596 4.55983L16.1585 6.33648L14.3886 7.96L12.7896 6.1644ZM15.949 13.5191L17.7183 11.9144L19.3172 13.7096L17.5471 15.3153L15.949 13.5191ZM17.5092 17.1299L19.2793 15.5249L20.8768 17.3015L19.1075 18.9248L17.5092 17.1299ZM18.2325 8.87703L19.4122 7.80715L20.4775 8.99198L19.298 10.0615L18.2325 8.87703ZM16.7101 5.34297L17.8899 4.25434L18.956 5.45762L17.7753 6.5274L16.7101 5.34297ZM19.7357 12.4114L20.9154 11.3416L22.0001 12.526L20.8016 13.5955L19.7357 12.4114ZM14.4264 9.75599L16.1965 8.15132L17.7946 9.92758L16.0254 11.5325L14.4264 9.75599Z" fill="#1D1D1D"/>
</svg>
