<svg id="Capa_1" enable-background="new 0 0 512 512" height="512" viewBox="0 0 512 512" width="512" xmlns="http://www.w3.org/2000/svg"><g><path d="m100 415.814h312v-199.814h-51.792l-4.757 27.826c-3.451 20.188-20.82 34.84-41.301 34.84h-110.3c-20.481 0-37.851-14.652-41.301-34.84l-4.757-27.826h-57.792z"/><path d="m203.85 248.667h110.3c5.816 0 10.75-4.162 11.73-9.896l3.893-22.771h-141.546l3.893 22.771c.98 5.734 5.913 9.896 11.73 9.896z"/><path d="m100 445.814v66.186h71.373l12.683-26h143.889l12.683 26h71.372v-66.186z"/><path d="m412 186v-186h-312v186zm-274.667-84.86h30v47.28h-30z"/></g></svg>