<svg xmlns="http://www.w3.org/2000/svg" width="26" height="30" viewBox="0 0 26 30"><g><g><path fill="#fff" d="M25.304 21.84c-.794 2.404-3.522 7.744-6.697 7.79-1.835 0-2.911-1.167-4.989-1.167-2.14 0-3.304 1.128-4.95 1.167-3.146.095-6.163-5.78-7-8.177-.625-1.821-.938-3.59-.938-5.302 0-5.794 3.87-8.641 7.513-8.698 1.765 0 4.008 1.287 4.989 1.287.928 0 3.463-1.533 5.78-1.35 2.446.186 4.302 1.153 5.53 2.911-2.194 1.333-3.28 3.14-3.267 5.537 0 .123-.228 3.994 4.03 6.001zM13.045 7.354c-.144-1.804.528-3.403 1.67-4.697C15.752 1.452 17.573.471 19.148.38c.053.693.215 2.62-1.568 4.736-1.28 1.494-2.833 2.37-4.535 2.239z"/></g></g></svg>