<svg width="24" height="24" viewBox="0 0 24 24" fill="none" xmlns="http://www.w3.org/2000/svg">
<g clip-path="url(#clip0)">
<path fill-rule="evenodd" clip-rule="evenodd" d="M16 0C16.5523 0 17 0.447715 17 1V2.00008C17.9208 2.00072 18.6802 2.00648 19.3086 2.05782C20.0375 2.11737 20.6777 2.24318 21.27 2.54497C22.2108 3.02434 22.9757 3.78924 23.455 4.73005C23.7568 5.32234 23.8826 5.96253 23.9422 6.69138C24 7.39923 24 8.27334 24 9.35707V9.35717V9.4V15.6V15.6428V15.6429C24 16.7267 24 17.6008 23.9422 18.3086C23.8826 19.0375 23.7568 19.6777 23.455 20.27C22.9757 21.2108 22.2108 21.9757 21.27 22.455C20.6777 22.7568 20.0375 22.8826 19.3086 22.9422C18.6008 23 17.7267 23 16.6429 23H16.6428H16.6H7.4H7.35717H7.35706C6.27334 23 5.39923 23 4.69138 22.9422C3.96253 22.8826 3.32234 22.7568 2.73005 22.455C1.78924 21.9757 1.02433 21.2108 0.544968 20.27C0.24318 19.6777 0.117368 19.0375 0.0578183 18.3086C-1.77381e-05 17.6007 -9.75112e-06 16.7266 2.62457e-07 15.6428L5.00876e-07 15.6V9.4L2.62457e-07 9.35719C-9.75112e-06 8.27341 -1.77381e-05 7.39926 0.0578183 6.69138C0.117368 5.96253 0.24318 5.32234 0.544968 4.73005C1.02433 3.78924 1.78924 3.02434 2.73005 2.54497C3.32234 2.24318 3.96253 2.11737 4.69138 2.05782C5.31978 2.00648 6.07921 2.00072 7 2.00008V1C7 0.447715 7.44771 0 8 0C8.55228 0 9 0.447715 9 1V2H15V1C15 0.447715 15.4477 0 16 0ZM7 4.00012V5C7 5.55228 7.44771 6 8 6C8.55228 6 9 5.55228 9 5V4H15V5C15 5.55228 15.4477 6 16 6C16.5523 6 17 5.55228 17 5V4.00012C17.9269 4.00093 18.604 4.00691 19.1458 4.05118C19.7509 4.10062 20.0986 4.1928 20.362 4.32698C20.9265 4.6146 21.3854 5.07354 21.673 5.63803C21.8072 5.90139 21.8994 6.24907 21.9488 6.85424C21.9992 7.47108 22 8.2634 22 9.4V15.6C22 16.7366 21.9992 17.5289 21.9488 18.1458C21.8994 18.7509 21.8072 19.0986 21.673 19.362C21.3854 19.9265 20.9265 20.3854 20.362 20.673C20.0986 20.8072 19.7509 20.8994 19.1458 20.9488C18.5289 20.9992 17.7366 21 16.6 21H7.4C6.26339 21 5.47108 20.9992 4.85424 20.9488C4.24907 20.8994 3.90138 20.8072 3.63803 20.673C3.07354 20.3854 2.6146 19.9265 2.32698 19.362C2.19279 19.0986 2.10062 18.7509 2.05118 18.1458C2.00078 17.5289 2 16.7366 2 15.6V9.4C2 8.2634 2.00078 7.47108 2.05118 6.85424C2.10062 6.24907 2.19279 5.90139 2.32698 5.63803C2.6146 5.07354 3.07354 4.6146 3.63803 4.32698C3.90138 4.1928 4.24907 4.10062 4.85424 4.05118C5.39601 4.00691 6.07314 4.00093 7 4.00012Z" fill="#5D6574"/>
</g>
<defs>
<clipPath id="clip0">
<rect width="24" height="24" fill="white"/>
</clipPath>
</defs>
</svg>
