<svg width="26" height="26" viewBox="0 0 26 26" fill="none" xmlns="http://www.w3.org/2000/svg">
<g filter="url(#filter0_d)">
<path d="M18.9877 6.73804C18.827 5.97534 18.5213 5.25058 18.0874 4.60313C17.4003 3.57707 16.4203 2.78157 15.2748 2.32014C14.9261 2.17957 14.5649 2.07178 14.1962 1.99818C14.1095 1.98097 14.0218 1.96596 13.9337 1.95243C13.9066 1.94825 13.8791 1.94456 13.8518 1.94063C13.7881 1.93178 13.7244 1.92391 13.6601 1.91677C13.6311 1.91357 13.602 1.91037 13.5729 1.90768C13.4923 1.90005 13.4112 1.89398 13.3297 1.88947L13.3014 1.8875C13.2015 1.88234 13.101 1.8798 12.9998 1.87988C12.8931 1.87988 12.787 1.88267 12.6815 1.88825H12.6811L12.6554 1.89021C12.5682 1.89512 12.4814 1.90193 12.395 1.91062C12.3643 1.91382 12.3338 1.91726 12.3033 1.92095C12.2357 1.92858 12.1684 1.93744 12.1015 1.94752C12.0726 1.9517 12.0436 1.95563 12.0148 1.96056C11.922 1.97555 11.8298 1.99204 11.7386 2.01122C11.3454 2.09391 10.9615 2.21543 10.5924 2.37401C9.10268 3.01552 7.92677 4.21967 7.32079 5.7242C6.94985 6.64612 6.80983 7.64472 6.9129 8.6331C7.01597 9.62149 7.35902 10.5697 7.9122 11.3953C8.59938 12.4212 9.57937 13.2167 10.7247 13.6782C11.0735 13.8189 11.4346 13.9267 11.8034 14.0002C11.8903 14.0177 11.9779 14.0324 12.0659 14.0459C12.0931 14.0504 12.1205 14.0538 12.1477 14.0578C12.2114 14.0666 12.2755 14.0747 12.3397 14.0816C12.3686 14.0848 12.3976 14.088 12.4268 14.0909C12.5074 14.0986 12.5888 14.1047 12.6705 14.1092C12.7796 14.1151 12.8893 14.1185 12.9998 14.1185C14.2216 14.116 15.4148 13.7488 16.4266 13.0639C17.4384 12.379 18.2226 11.4076 18.6788 10.2742C18.8194 9.92545 18.9273 9.56438 19.001 9.19565C19.1631 8.38401 19.1586 7.54789 18.9877 6.73804ZM14.0115 1.96596C13.9933 1.96277 13.9748 1.95932 13.9564 1.95638C13.9748 1.95932 13.9933 1.96277 14.0115 1.96596ZM13.8154 1.9362C13.7697 1.93006 13.7237 1.92415 13.6777 1.91899C13.7237 1.92415 13.7696 1.92989 13.8154 1.9362ZM13.5639 1.90693C13.487 1.89981 13.4099 1.8939 13.3321 1.88947C13.4097 1.8939 13.487 1.89956 13.5639 1.90693ZM12.653 1.89021C12.5697 1.89512 12.4869 1.90168 12.4046 1.90988C12.4869 1.90177 12.5697 1.89521 12.653 1.89021ZM12.2848 1.92342C12.2363 1.92907 12.1879 1.93547 12.1395 1.94235C12.1877 1.93547 12.2363 1.92907 12.2848 1.92342ZM11.9908 1.96498C11.972 1.96794 11.9534 1.97186 11.9346 1.97532C11.9534 1.97186 11.972 1.96817 11.9908 1.96498ZM11.9875 14.0324C12.0062 14.0354 12.0246 14.0391 12.0432 14.0422C12.0246 14.0391 12.0062 14.0356 11.9875 14.0324ZM12.184 14.0622C12.2299 14.0686 12.276 14.0742 12.3222 14.0796C12.276 14.0742 12.2299 14.0686 12.184 14.0622ZM12.4356 14.0914C12.5127 14.0986 12.5901 14.1047 12.668 14.1089C12.5901 14.1047 12.5126 14.0989 12.4356 14.0914Z" fill="#FB3E3E"/>
<path d="M7.05715 10.5431C6.88996 10.1531 6.76191 9.74738 6.67488 9.33203C6.63847 9.15838 6.60924 8.98228 6.58719 8.80371L5.06201 8.99506C5.08949 9.21569 5.12567 9.43361 5.17054 9.64883C5.27819 10.163 5.43669 10.6651 5.6437 11.1479C5.68164 11.2365 5.72234 11.3236 5.76336 11.4104L7.15382 10.7551C7.12061 10.685 7.08765 10.6147 7.05715 10.5431Z" fill="#F8F5F6"/>
<path d="M19.6905 12.3854L18.4049 11.5425C18.1623 11.9123 17.8825 12.2564 17.5699 12.5694C17.4009 12.7373 17.223 12.8959 17.0369 13.0445L17.997 14.2446C18.657 13.7191 19.2288 13.0915 19.6905 12.3854Z" fill="#F8F5F6"/>
<path d="M10.596 14.0001C10.3029 13.8824 10.0189 13.7433 9.7462 13.584L8.97217 14.9124C9.70063 15.3382 10.4924 15.645 11.3175 15.8212L11.6411 14.3172C11.2844 14.2413 10.9347 14.1352 10.596 14.0001Z" fill="#F8F5F6"/>
<path d="M18.9427 5.45611C19.1099 5.84626 19.2379 6.25203 19.325 6.66746C19.3614 6.84086 19.3906 7.01688 19.4126 7.19553L20.9378 7.00443C20.9104 6.78356 20.8742 6.56556 20.8292 6.35042C20.7215 5.8363 20.5631 5.33414 20.3563 4.85131C20.3183 4.76276 20.2775 4.6757 20.2365 4.58887L18.8461 5.24435C18.8792 5.31444 18.9121 5.38479 18.9427 5.45611Z" fill="#F8F5F6"/>
<path d="M15.4037 1.99905C15.6969 2.11657 15.981 2.25558 16.2538 2.41496L17.0278 1.0868C16.2994 0.660782 15.5076 0.353891 14.6823 0.177734L14.3589 1.68177C14.7156 1.75762 15.0651 1.86377 15.4037 1.99905Z" fill="#F8F5F6"/>
<path d="M20.9379 7.00488L19.4127 7.19598L19.4128 7.19672C19.3907 7.01816 19.3614 6.84189 19.325 6.66792C19.238 6.25249 19.11 5.84672 18.9428 5.45657C18.9121 5.385 18.8791 5.31466 18.8459 5.24431L18.8461 5.2448L20.2365 4.58932C19.604 3.24811 18.6115 2.10884 17.3696 1.29841C17.2576 1.22511 17.1437 1.15469 17.0278 1.08713L16.2537 2.4153L16.254 2.41555C15.6657 2.07114 15.0258 1.8235 14.3589 1.6821L14.6823 0.178066C14.6431 0.169704 14.6039 0.161103 14.5643 0.153232C13.5028 -0.0567195 12.41 -0.050865 11.3508 0.170447C10.3532 0.379805 9.40506 0.778847 8.55797 1.34588C8.36661 1.47378 8.18214 1.61127 8.00284 1.7549L8.96306 2.95468C8.4257 3.38252 7.96075 3.89411 7.58606 4.46979L7.59504 4.45675L6.30935 3.61385L6.29841 3.63008C5.44968 4.92939 4.99844 6.44808 5 8.00002C5.00009 8.3327 5.02079 8.66505 5.06199 8.99516L6.58717 8.80381L6.58704 8.80234C6.60918 8.98115 6.63845 9.15774 6.67485 9.33213C6.76188 9.74748 6.88993 10.1532 7.05713 10.5432C7.08763 10.6148 7.12058 10.6851 7.15379 10.7552L5.76333 11.4105C6.39574 12.7518 7.38823 13.8911 8.63015 14.7014C8.74219 14.7747 8.85619 14.8452 8.97215 14.9129L9.74618 13.5845L9.74594 13.5843C10.3626 13.9452 11.0353 14.2003 11.7362 14.3388C11.7041 14.3325 11.6728 14.3246 11.641 14.3177L11.3175 15.8217C11.3567 15.8301 11.3961 15.8387 11.4356 15.8466C12.497 16.0565 13.5898 16.0507 14.6489 15.8294C15.6465 15.6202 16.5947 15.2212 17.4417 14.6542C17.6332 14.526 17.8177 14.3885 17.997 14.2451L17.0369 13.0451C17.223 12.8965 17.401 12.7379 17.5699 12.5699C17.8825 12.257 18.1623 11.9129 18.4049 11.543L19.6905 12.3859L19.7015 12.3697C20.5501 11.0704 21.0013 9.55188 21 8.00002C20.9999 7.66734 20.9791 7.33499 20.9379 7.00488ZM18.7586 5.06771C18.7473 5.04558 18.7362 5.02344 18.7246 5.00155C18.7362 5.02344 18.7474 5.04558 18.7586 5.06771ZM18.5175 4.63458C18.4713 4.55931 18.4244 4.48479 18.3755 4.4115C18.4244 4.48479 18.4715 4.55931 18.5175 4.63458ZM18.6449 4.85398C18.6243 4.81684 18.6029 4.77994 18.5815 4.7433C18.6029 4.78018 18.6243 4.81684 18.6449 4.85398ZM9.41144 2.62437C9.33347 2.67675 9.25698 2.73112 9.18147 2.7867C9.25673 2.73086 9.33338 2.67675 9.41144 2.62437ZM6.56417 8.5881L6.56682 8.61787L6.56417 8.5881ZM6.54007 8.19113C6.54056 8.20687 6.54135 8.22286 6.54197 8.2386C6.54135 8.22286 6.54056 8.20687 6.54007 8.19113ZM6.54899 8.38643C6.54978 8.40117 6.55089 8.41618 6.55181 8.43094C6.55089 8.41618 6.54984 8.40117 6.54899 8.38643ZM7.24123 10.9321C7.25255 10.9545 7.26373 10.9766 7.27541 10.9987C7.26385 10.9766 7.25255 10.9545 7.24123 10.9321ZM7.4824 11.3652C7.52839 11.4405 7.57536 11.515 7.62431 11.5883C7.57536 11.515 7.52826 11.4405 7.4824 11.3652ZM7.35474 11.1456C7.37564 11.183 7.39696 11.2202 7.41869 11.2572C7.39729 11.2201 7.37564 11.183 7.35474 11.1456ZM16.5883 13.3754C16.6665 13.3233 16.743 13.2687 16.8187 13.2131C16.7432 13.2689 16.6665 13.3233 16.5883 13.3754ZM17.7039 11.0671C17.0973 11.9966 16.2298 12.7263 15.2101 13.1649C14.3607 13.5292 13.4343 13.6778 12.5135 13.5974C11.5927 13.517 10.7061 13.2101 9.93262 12.704C9.00323 12.0973 8.27357 11.2298 7.83509 10.2102C7.68941 9.87138 7.57781 9.51891 7.50194 9.15799C7.31033 8.24841 7.34739 7.3055 7.6098 6.41377C7.8722 5.52203 8.35176 4.70933 9.00548 4.0485C9.6592 3.38768 10.4667 2.89937 11.3555 2.62734C12.2444 2.35531 13.1868 2.30806 14.0984 2.48982C14.8 2.63073 15.4682 2.90439 16.0671 3.29608C16.9965 3.90267 17.7262 4.77008 18.1648 5.7896C18.5292 6.63907 18.6778 7.56546 18.5973 8.48626C18.5169 9.40706 18.21 10.2937 17.7039 11.0671ZM19.4331 7.38316L19.4356 7.40998L19.4331 7.38316ZM19.4481 7.57033C19.449 7.58435 19.45 7.59837 19.4508 7.61263C19.45 7.59837 19.449 7.58435 19.4481 7.57033ZM19.458 7.76218C19.4586 7.77768 19.4593 7.79317 19.4598 7.80867C19.4593 7.79317 19.4586 7.77768 19.458 7.76218Z" fill="#FB3E3E"/>
<path d="M8.42992 3.42961C8.59874 3.26144 8.77671 3.10272 8.96303 2.95417L8.00281 1.75439C7.3428 2.27977 6.77108 2.90735 6.30933 3.61334L7.59501 4.45624C7.83757 4.08645 8.11733 3.74245 8.42992 3.42961Z" fill="#F8F5F6"/>
<path d="M18.0534 6.93509C17.9178 6.29145 17.6599 5.67983 17.2936 5.13344C16.9058 4.55286 16.4042 4.05701 15.8192 3.67589C14.9734 3.12183 13.9831 2.82921 12.9719 2.83454C11.9608 2.83988 10.9736 3.14295 10.1337 3.7059C9.55307 4.09358 9.05724 4.59514 8.67625 5.18017C8.1222 6.02602 7.82957 7.01633 7.83491 8.02748C7.84025 9.03862 8.14331 10.0258 8.70626 10.8657C9.09416 11.4462 9.59568 11.942 10.1805 12.3233C10.946 12.8247 11.8314 13.1127 12.7454 13.1576C11.8434 13.1123 10.9697 12.8277 10.214 12.3331C9.63588 11.9566 9.14026 11.4666 8.75717 10.8928C8.10261 9.91143 7.80825 8.7336 7.92416 7.55968C8.04008 6.38576 8.55911 5.28826 9.39297 4.45387C9.85258 3.99434 10.3953 3.62633 10.9923 3.36943C11.3001 3.23717 11.6202 3.13583 11.948 3.06691C13.1028 2.8259 14.3054 2.99154 15.3521 3.53577C16.3988 4.07999 17.2251 4.96932 17.6911 6.05308C18.022 6.82464 18.1569 7.66606 18.0839 8.5024C18.0109 9.33874 17.7321 10.144 17.2725 10.8465C16.7214 11.6906 15.9336 12.3533 15.0076 12.7517C14.3733 13.024 13.6902 13.1643 12.9999 13.164C13.3576 13.164 13.7143 13.1268 14.0642 13.053C14.708 12.9174 15.3197 12.6594 15.8661 12.293C16.732 11.7132 17.4033 10.8862 17.7927 9.91954C17.9114 9.62521 18.0024 9.32046 18.0646 9.00925C18.2012 8.32423 18.1974 7.61859 18.0534 6.93509Z" fill="#EA7374"/>
<path d="M8.21057 4.8764C7.81293 5.48659 7.53606 6.16741 7.39497 6.88194C7.24408 7.64005 7.24856 8.42089 7.40813 9.17723C7.63663 10.2731 8.18283 11.2773 8.97855 12.0647C9.77427 12.852 10.7843 13.3876 11.8825 13.6045C12.6405 13.7554 13.4214 13.7509 14.1776 13.5912C14.5449 13.5144 14.9037 13.4017 15.2488 13.2545C15.5722 13.1171 15.8821 12.9498 16.1743 12.7547C16.8175 12.3254 17.367 11.7701 17.7893 11.1223C18.187 10.5122 18.4638 9.83142 18.6049 9.11696C18.8289 7.98514 18.707 6.81208 18.255 5.75053C18.1175 5.42719 17.9502 5.11734 17.7552 4.82499C17.0124 3.71712 15.9064 2.90312 14.6278 2.52332C13.3491 2.14352 11.9781 2.22172 10.7509 2.74443C10.4277 2.88195 10.1179 3.04927 9.82566 3.24423C9.18236 3.67334 8.6329 4.22862 8.21057 4.8764ZM10.9327 3.16921C12.2143 2.62304 13.6599 2.60589 14.9541 3.12149C15.2746 3.24927 15.5815 3.40861 15.8704 3.59717C16.4658 3.98547 16.9762 4.49053 17.3708 5.08178C17.7418 5.63885 18.0028 6.26173 18.1398 6.91686C18.3533 7.93278 18.2621 8.98911 17.8778 9.95346C17.5569 10.7563 17.0424 11.4672 16.3803 12.0231C15.7181 12.5789 14.9287 12.9624 14.0824 13.1394C13.0665 13.3528 12.0102 13.2616 11.0458 12.8774C10.4048 12.6216 9.82073 12.2415 9.32711 11.7592C8.8335 11.2768 8.44013 10.7016 8.16962 10.0666C7.89704 9.43244 7.7523 8.75071 7.7437 8.06049C7.7351 7.37028 7.8628 6.68515 8.11949 6.04438C8.37618 5.40362 8.75681 4.81981 9.23956 4.32643C9.72231 3.83305 10.2977 3.43979 10.9327 3.16921Z" fill="url(#paint0_linear)"/>
<path d="M17.2937 5.13341L17.6712 4.88131C17.4662 4.5749 17.2317 4.28921 16.9711 4.02832L16.65 4.3493C16.8896 4.58907 17.1052 4.85169 17.2937 5.13341Z" fill="#FB3E3E"/>
<path d="M17.7473 5.96799L18.1648 5.78918C18.0285 5.47204 17.8632 5.16815 17.6711 4.88135L17.2936 5.13345C17.4702 5.39705 17.6221 5.67642 17.7473 5.96799Z" fill="#E3DEDD"/>
<path d="M18.0534 6.93547L18.4978 6.842C18.4219 6.48103 18.3104 6.12849 18.1648 5.78955L17.7473 5.96836C17.8812 6.27977 17.9837 6.60374 18.0534 6.93547Z" fill="#FB3E3E"/>
<path d="M16.65 11.6497L16.971 11.9707C17.2457 11.6953 17.4913 11.3924 17.7039 11.0668L17.3237 10.8188C17.1283 11.1183 16.9026 11.3967 16.65 11.6497Z" fill="#E3DEDD"/>
<path d="M8.20709 6.07938L7.78564 5.91064C7.65658 6.23084 7.55756 6.56235 7.48987 6.90087L7.93519 6.98967C7.99744 6.67847 8.08847 6.37373 8.20709 6.07938Z" fill="#E3DEDD"/>
<path d="M7.94629 9.06396L7.50195 9.15767C7.57782 9.51859 7.68942 9.87107 7.8351 10.2099L8.2525 10.0313C8.11869 9.71978 8.01612 9.39575 7.94629 9.06396Z" fill="#FB3E3E"/>
<path d="M7.93525 6.98967L7.48993 6.90088C7.4178 7.26266 7.38143 7.63067 7.38135 7.99957H7.83564C7.83569 7.66049 7.86906 7.32223 7.93525 6.98967Z" fill="#FB3E3E"/>
<path d="M7.83564 7.99951H7.38135C7.3814 8.38863 7.42183 8.7767 7.50199 9.15748L7.94632 9.06377C7.87272 8.7138 7.83563 8.35714 7.83564 7.99951Z" fill="#E3DEDD"/>
<path d="M8.25248 10.0312L7.83508 10.2098C7.97138 10.527 8.13663 10.831 8.32873 11.1179L8.70627 10.8658C8.52971 10.6021 8.3778 10.3228 8.25248 10.0312Z" fill="#E3DEDD"/>
<path d="M9.34979 11.6494L9.02893 11.9704C9.3042 12.2451 9.60702 12.4907 9.93258 12.7033L10.1805 12.3231C9.88117 12.1277 9.60279 11.9019 9.34979 11.6494Z" fill="#E3DEDD"/>
<path d="M8.70627 10.8657L8.32874 11.1178C8.53381 11.4242 8.76833 11.7098 9.02897 11.9706L9.34983 11.6496C9.11031 11.4099 8.89477 11.1473 8.70627 10.8657Z" fill="#FB3E3E"/>
<path d="M10.1805 12.3232L9.93262 12.7035C10.2412 12.9053 10.5689 13.0763 10.911 13.2139L11.0799 12.7923C10.7654 12.6659 10.4642 12.5088 10.1805 12.3232Z" fill="#FB3E3E"/>
<path d="M8.67625 5.18054L8.296 4.93262C8.09412 5.24118 7.92318 5.56891 7.78564 5.91103L8.20709 6.07977C8.33351 5.76532 8.49066 5.46411 8.67625 5.18054Z" fill="#FB3E3E"/>
<path d="M13 2.8349V2.38086C12.6109 2.38092 12.2228 2.42131 11.842 2.50137L11.9355 2.94582C12.2855 2.87208 12.6423 2.83491 13 2.8349Z" fill="#E3DEDD"/>
<path d="M10.9682 3.25187L10.7895 2.83447C10.4724 2.97077 10.1685 3.13602 9.88171 3.32812L10.1337 3.70566C10.3974 3.5291 10.6767 3.37719 10.9682 3.25187Z" fill="#E3DEDD"/>
<path d="M11.9355 2.94591L11.842 2.50146C11.481 2.57751 11.1285 2.68915 10.7896 2.83474L10.9682 3.25214C11.2797 3.11833 11.6037 3.01575 11.9355 2.94591Z" fill="#FB3E3E"/>
<path d="M9.3497 4.3493L9.02873 4.02832C8.75416 4.30371 8.50863 4.60661 8.29602 4.93222L8.67626 5.18014C8.87168 4.88085 9.09735 4.60244 9.3497 4.3493Z" fill="#E3DEDD"/>
<path d="M10.1338 3.70566L9.88179 3.32812C9.57531 3.53308 9.28963 3.76752 9.02881 4.02811L9.34978 4.34909C9.58957 4.10964 9.85214 3.89414 10.1338 3.70566Z" fill="#FB3E3E"/>
<path d="M18.0535 6.93526C18.1272 7.2853 18.1644 7.64205 18.1644 7.99977H18.6186C18.6186 7.61064 18.5781 7.22256 18.4979 6.8418L18.0535 6.93526Z" fill="#E3DEDD"/>
<path d="M18.0647 9.00917L18.51 9.09797C18.5822 8.73627 18.6186 8.36834 18.6186 7.99951H18.1644C18.1644 8.33852 18.131 8.67671 18.0647 9.00917Z" fill="#FB3E3E"/>
<path d="M16.6499 4.34958L16.971 4.0286C16.6957 3.7539 16.3928 3.50837 16.067 3.2959L15.8192 3.67615C16.1185 3.8715 16.3969 4.09717 16.6499 4.34958Z" fill="#E3DEDD"/>
<path d="M17.7927 9.91957L18.2143 10.0883C18.3433 9.76809 18.4423 9.43659 18.5099 9.09807L18.0646 9.00928C18.0025 9.32049 17.9114 9.62524 17.7927 9.91957Z" fill="#E3DEDD"/>
<path d="M11.0799 12.7925L10.911 13.2141C11.2313 13.3431 11.5628 13.4421 11.9014 13.5097L11.9902 13.0643C11.679 13.0021 11.3742 12.9111 11.0799 12.7925Z" fill="#E3DEDD"/>
<path d="M15.8193 3.67625L16.0671 3.296C15.7586 3.09405 15.4309 2.9231 15.0888 2.78564L14.9199 3.20697C15.2345 3.33333 15.5357 3.49052 15.8193 3.67625Z" fill="#FB3E3E"/>
<path d="M14.9199 3.20648L15.0888 2.78516C14.7686 2.65593 14.437 2.55686 14.0984 2.48926L14.0096 2.9347C14.3208 2.99694 14.6256 3.08792 14.9199 3.20648Z" fill="#E3DEDD"/>
<path d="M17.3236 10.8191L17.7039 11.0671C17.9057 10.7585 18.0767 10.4308 18.2142 10.0886L17.7926 9.91992C17.6663 10.2344 17.5092 10.5356 17.3236 10.8191Z" fill="#FB3E3E"/>
<path d="M12.9999 13.1642V13.6182C13.389 13.6182 13.777 13.5779 14.1577 13.4977L14.0641 13.0532C13.7142 13.127 13.3575 13.1641 12.9999 13.1642Z" fill="#E3DEDD"/>
<path d="M14.0095 2.93476L14.0983 2.48932C13.7366 2.4173 13.3687 2.38097 12.9999 2.38086V2.8349C13.3389 2.83502 13.6771 2.86847 14.0095 2.93476Z" fill="#FB3E3E"/>
<path d="M11.9902 13.064L11.9014 13.5094C12.2631 13.5815 12.6311 13.6179 12.9999 13.6179V13.1638C12.6609 13.1638 12.3227 13.1304 11.9902 13.064Z" fill="#FB3E3E"/>
<path d="M14.0642 13.0528L14.1578 13.4972C14.5187 13.4213 14.8712 13.3098 15.2101 13.1642L15.0316 12.7466C14.7201 12.8805 14.396 12.9831 14.0642 13.0528Z" fill="#FB3E3E"/>
<path d="M15.0316 12.7468L15.2102 13.1644C15.5274 13.0281 15.8313 12.8629 16.1181 12.6708L15.8662 12.293C15.6026 12.4696 15.3232 12.6215 15.0316 12.7468Z" fill="#E3DEDD"/>
<path d="M15.8661 12.2928L16.1181 12.6706C16.4245 12.4655 16.7101 12.231 16.9709 11.9704L16.65 11.6494C16.4103 11.889 16.1478 12.1045 15.8661 12.2928Z" fill="#FB3E3E"/>
<path d="M6.61816 9.0166C6.62081 9.03407 6.62277 9.05153 6.62565 9.0685C6.62277 9.05153 6.62081 9.03407 6.61816 9.0166Z" fill="#FB3E3E"/>
<path d="M17.5699 12.5694C17.8826 12.2564 18.1623 11.9123 18.405 11.5425C18.1623 11.9123 17.8826 12.2564 17.5699 12.5694Z" fill="#FB3E3E"/>
<path d="M11.1132 14.1812C11.2858 14.2338 11.4615 14.279 11.6402 14.3169C11.4617 14.2788 11.286 14.2335 11.1132 14.1812Z" fill="#FB3E3E"/>
<path d="M10.8561 14.0972C10.9257 14.1218 10.9963 14.1441 11.067 14.1663C10.9963 14.1444 10.9257 14.1215 10.8561 14.0972Z" fill="#FB3E3E"/>
<path d="M19.3741 6.92969L19.3778 6.95477L19.3741 6.92969Z" fill="#FB3E3E"/>
<path d="M7.98653 3.92139C7.8475 4.09229 7.71729 4.27018 7.59644 4.45439C7.71737 4.27024 7.84757 4.09234 7.98653 3.92139Z" fill="#F8F7F7"/>
<path d="M8.20166 3.67041C8.13377 3.74568 8.06811 3.8229 8.00391 3.90137C8.06811 3.8229 8.13377 3.74568 8.20166 3.67041Z" fill="#F8F7F7"/>
<path d="M14.3739 14.7419C14.3739 14.6774 14.3929 14.6143 14.4288 14.5607C14.4646 14.507 14.5155 14.4651 14.5751 14.4404C14.6347 14.4157 14.7002 14.4092 14.7635 14.4218C14.8268 14.4343 14.8849 14.4654 14.9306 14.511C14.9762 14.5566 15.0073 14.6147 15.0199 14.678C15.0325 14.7412 15.0261 14.8068 15.0014 14.8664C14.9767 14.926 14.9349 14.977 14.8813 15.0128C14.8276 15.0487 14.7646 15.0678 14.7 15.0678C14.6136 15.0678 14.5306 15.0335 14.4695 14.9724C14.4083 14.9113 14.3739 14.8284 14.3739 14.7419Z" fill="#F8F7F7"/>
<path d="M11.0668 1.25729C11.0668 1.19278 11.0859 1.12973 11.1217 1.0761C11.1576 1.02246 11.2085 0.980662 11.2681 0.955978C11.3277 0.931294 11.3933 0.924835 11.4565 0.937419C11.5198 0.950003 11.5779 0.981064 11.6235 1.02668C11.6691 1.07229 11.7002 1.1304 11.7128 1.19366C11.7254 1.25693 11.7189 1.3225 11.6942 1.38209C11.6695 1.44169 11.6277 1.49262 11.5741 1.52846C11.5205 1.56429 11.4574 1.58342 11.3929 1.58342C11.3064 1.58339 11.2235 1.54902 11.1623 1.48787C11.1012 1.42671 11.0668 1.34377 11.0668 1.25729Z" fill="#F8F7F7"/>
<path d="M5.84998 6.77664C5.84999 6.71216 5.86913 6.64913 5.90497 6.59552C5.94081 6.54191 5.99174 6.50014 6.05132 6.47547C6.1109 6.45081 6.17646 6.44437 6.2397 6.45696C6.30294 6.46956 6.36103 6.50062 6.40662 6.54622C6.45221 6.59183 6.48325 6.64993 6.49582 6.71318C6.50838 6.77642 6.50192 6.84198 6.47723 6.90155C6.45254 6.96112 6.41075 7.01203 6.35713 7.04785C6.3035 7.08367 6.24047 7.10278 6.17599 7.10278C6.13316 7.10279 6.09075 7.09436 6.05118 7.07797C6.01162 7.06158 5.97567 7.03756 5.94539 7.00727C5.91512 6.97698 5.8911 6.94103 5.87473 6.90145C5.85836 6.86188 5.84995 6.81947 5.84998 6.77664Z" fill="#F8F7F7"/>
<path d="M7.66663 12.8088C7.66665 12.7443 7.68579 12.6813 7.72162 12.6277C7.75745 12.5741 7.80837 12.5324 7.86793 12.5077C7.9275 12.483 7.99304 12.4766 8.05627 12.4892C8.1195 12.5018 8.17758 12.5328 8.22317 12.5784C8.26875 12.624 8.2998 12.6821 8.31238 12.7453C8.32497 12.8085 8.31852 12.8741 8.29386 12.9336C8.2692 12.9932 8.22744 13.0441 8.17384 13.0799C8.12025 13.1158 8.05723 13.1349 7.99276 13.1349C7.90627 13.1349 7.82332 13.1006 7.76216 13.0394C7.701 12.9782 7.66663 12.8953 7.66663 12.8088Z" fill="#F8F7F7"/>
<path d="M19.4045 9.59482C19.4045 9.53031 19.4236 9.46725 19.4594 9.4136C19.4952 9.35995 19.5461 9.31813 19.6057 9.29342C19.6653 9.26872 19.7309 9.26224 19.7941 9.2748C19.8574 9.28737 19.9155 9.31842 19.9611 9.36402C20.0068 9.40962 20.0378 9.46772 20.0504 9.53099C20.063 9.59425 20.0566 9.65982 20.0319 9.71941C20.0072 9.77901 19.9654 9.82994 19.9118 9.86577C19.8581 9.9016 19.7951 9.92072 19.7306 9.92071C19.6441 9.92068 19.5612 9.88634 19.5001 9.82523C19.439 9.76412 19.4046 9.68125 19.4045 9.59482Z" fill="#F8F7F7"/>
<path d="M17.7976 3.37655C17.7976 3.31206 17.8167 3.249 17.8525 3.19535C17.8883 3.1417 17.9392 3.09988 17.9988 3.07517C18.0583 3.05046 18.1239 3.04398 18.1872 3.05653C18.2504 3.06909 18.3086 3.10012 18.3542 3.14571C18.3998 3.1913 18.4309 3.2494 18.4435 3.31265C18.4561 3.37591 18.4496 3.44148 18.425 3.50107C18.4003 3.56067 18.3585 3.61161 18.3049 3.64746C18.2513 3.6833 18.1882 3.70244 18.1237 3.70245C18.0373 3.70244 17.9544 3.66811 17.8932 3.607C17.8321 3.54589 17.7977 3.46301 17.7976 3.37655Z" fill="#F8F7F7"/>
<path d="M17.3259 10.8203C17.5113 10.5364 17.6679 10.2348 17.7935 9.91985C18.1042 9.14112 18.2212 8.2986 18.1344 7.46468C18.0476 6.63075 17.7597 5.83037 17.2953 5.13229C17.2537 5.07031 17.2103 5.00907 17.1658 4.94831C17.1521 4.92962 17.138 4.91117 17.124 4.89248C17.0913 4.84919 17.0578 4.80631 17.0237 4.76384C17.0084 4.74465 16.993 4.72522 16.9773 4.70629C16.9336 4.65366 16.889 4.60151 16.843 4.55035L16.8273 4.53215C16.7707 4.46968 16.7121 4.4082 16.6517 4.34768C16.588 4.28397 16.523 4.22232 16.4567 4.16273L16.4566 4.16248L16.4567 4.16273L16.4566 4.16248L16.4401 4.14846C16.3851 4.09926 16.329 4.05154 16.2725 4.00532C16.2523 3.98883 16.232 3.97259 16.2116 3.9566C16.1667 3.9207 16.1212 3.88602 16.0753 3.85183C16.0555 3.83732 16.0358 3.82231 16.0159 3.80804C15.9515 3.76182 15.8866 3.71656 15.8206 3.67351C15.5367 3.48822 15.2351 3.33159 14.9202 3.20595C13.8968 2.7975 12.7697 2.72695 11.7034 3.00458C10.6371 3.28221 9.68754 3.89349 8.99333 4.74913C8.29912 5.60478 7.89666 6.65997 7.84473 7.76059C7.79281 8.8612 8.09413 9.9496 8.7047 10.8668C8.74615 10.929 8.78968 10.99 8.8342 11.0508C8.84785 11.0695 8.86199 11.0879 8.87602 11.1066C8.90849 11.1499 8.9419 11.1929 8.97625 11.2355C8.99161 11.2547 9.00686 11.2739 9.0226 11.2928C9.06639 11.3457 9.11124 11.3978 9.15715 11.4492C9.21888 11.5178 9.28222 11.5855 9.34801 11.6514C10.0786 12.379 11.0099 12.872 12.0224 13.067C13.035 13.262 14.0827 13.1503 15.0314 12.7462C15.3234 12.622 15.6032 12.4709 15.8671 12.2948C16.4482 11.9072 16.9445 11.4055 17.3259 10.8203ZM17.2042 5.00291C17.195 4.99013 17.1862 4.97708 17.1771 4.9643C17.1862 4.97708 17.195 4.99013 17.2042 5.00291ZM17.105 4.86813C17.0813 4.83714 17.0573 4.80614 17.033 4.77564C17.0573 4.80614 17.0813 4.83714 17.105 4.86813ZM16.9722 4.70063C16.9306 4.65046 16.888 4.60086 16.8443 4.55183C16.8881 4.60078 16.9306 4.65021 16.9722 4.70063ZM16.4386 4.14699C16.3861 4.10025 16.3328 4.05475 16.2786 4.01048C16.3327 4.05474 16.3861 4.10025 16.4386 4.14699ZM16.1992 3.94702C16.1667 3.92143 16.134 3.89634 16.101 3.87175C16.134 3.89635 16.1667 3.92144 16.1992 3.94702ZM15.999 3.79625C15.9858 3.7869 15.9724 3.77829 15.9592 3.76894C15.9724 3.77829 15.9858 3.7869 15.999 3.79625ZM8.79534 10.9959C8.80469 11.0087 8.81355 11.022 8.82289 11.035C8.81355 11.022 8.80469 11.009 8.79534 10.9959ZM8.89471 11.131C8.91857 11.1619 8.94255 11.1932 8.96702 11.2237C8.94268 11.1929 8.91857 11.162 8.89471 11.131ZM9.02753 11.2987C9.06934 11.3489 9.11189 11.3986 9.15591 11.4478C9.11201 11.3986 9.06922 11.3489 9.02753 11.2987Z" fill="url(#paint1_linear)"/>
<path d="M17.9452 6.95811C17.8125 6.32817 17.5601 5.72957 17.2016 5.19484C16.8221 4.62674 16.3313 4.14153 15.7588 3.76853C15.4813 3.58696 15.1865 3.43323 14.8788 3.30958C14.5908 3.19331 14.2925 3.10421 13.9879 3.04345C13.9164 3.02918 13.844 3.01688 13.7712 3.00582C13.7487 3.00213 13.7262 2.99917 13.7036 2.99597C13.651 2.98859 13.5983 2.98196 13.5452 2.9763C13.5212 2.97359 13.4972 2.97089 13.4731 2.96867C13.4066 2.96252 13.3396 2.95736 13.2722 2.95367L13.249 2.95195C13.1664 2.94802 13.0834 2.9458 12.9999 2.9458C12.9117 2.9458 12.8241 2.94826 12.737 2.95269L12.7154 2.95416C12.6433 2.95834 12.5717 2.96425 12.5004 2.97114C12.4751 2.97383 12.45 2.97679 12.4246 2.97974C12.3688 2.98614 12.3132 2.99326 12.2579 3.00163C12.234 3.00508 12.2102 3.00851 12.1863 3.01246C12.1098 3.02475 12.0336 3.03852 11.9583 3.05426C11.3283 3.18692 10.7297 3.43943 10.195 3.79805C9.62685 4.17751 9.14162 4.66834 8.76871 5.24083C8.31838 5.93277 8.04435 6.72446 7.97056 7.54673C7.89676 8.369 8.02545 9.19684 8.34537 9.9579C8.66529 10.719 9.16672 11.3901 9.80584 11.9127C10.445 12.4353 11.2023 12.7934 12.0118 12.9558C12.0835 12.9701 12.1558 12.9824 12.2286 12.9937C12.251 12.9971 12.2736 13.0001 12.2962 13.0033C12.3488 13.0106 12.4016 13.0172 12.4548 13.0229C12.4786 13.0257 12.5025 13.0283 12.5266 13.0306C12.5934 13.037 12.6604 13.0421 12.7279 13.0456C12.8179 13.0505 12.9087 13.0534 12.9999 13.0534C13.9986 13.0541 14.975 12.7575 15.8046 12.2014C16.3727 11.8219 16.8579 11.3311 17.2309 10.7587C17.5944 10.2034 17.8446 9.58185 17.9672 8.92964C18.0898 8.27742 18.0823 7.60742 17.9452 6.95811Z" fill="#D63636"/>
</g>
<defs>
<filter id="filter0_d" x="0" y="0" width="26" height="25.9998" filterUnits="userSpaceOnUse" color-interpolation-filters="sRGB">
<feFlood flood-opacity="0" result="BackgroundImageFix"/>
<feColorMatrix in="SourceAlpha" type="matrix" values="0 0 0 0 0 0 0 0 0 0 0 0 0 0 0 0 0 0 127 0"/>
<feOffset dy="5"/>
<feGaussianBlur stdDeviation="2.5"/>
<feColorMatrix type="matrix" values="0 0 0 0 0.983333 0 0 0 0 0.241736 0 0 0 0 0.241736 0 0 0 0.1 0"/>
<feBlend mode="normal" in2="BackgroundImageFix" result="effect1_dropShadow"/>
<feBlend mode="normal" in="SourceGraphic" in2="effect1_dropShadow" result="shape"/>
</filter>
<linearGradient id="paint0_linear" x1="17.0546" y1="12.0542" x2="8.96876" y2="3.96839" gradientUnits="userSpaceOnUse">
<stop stop-color="#B61A1A"/>
<stop offset="0.30527" stop-color="#E43636"/>
<stop offset="0.87587" stop-color="#BC2121"/>
<stop offset="1" stop-color="#912828"/>
</linearGradient>
<linearGradient id="paint1_linear" x1="189344" y1="-329169" x2="189943" y2="-328570" gradientUnits="userSpaceOnUse">
<stop stop-color="#B82C2C"/>
<stop offset="0.30527" stop-color="#FB3E3E"/>
<stop offset="0.838542" stop-color="#FB3E3E"/>
<stop offset="1" stop-color="#BC2525"/>
</linearGradient>
</defs>
</svg>
