<svg width="30" height="30" viewBox="0 0 30 30" fill="none" xmlns="http://www.w3.org/2000/svg">
    <g opacity="1">
        <path d="M15 28.5V15" stroke="#C8D5E8" stroke-width="2" />
        <path d="M13 2.3094C14.2376 1.59487 15.7624 1.59487 17 2.3094L24.9904 6.92265C26.228 7.63718 26.9904 8.95769 26.9904 10.3868V19.6132C26.9904 21.0423 26.228 22.3628 24.9904 23.0773L17 27.6906C15.7624 28.4051 14.2376 28.4051 13 27.6906L5.00962 23.0774C3.77201 22.3628 3.00962 21.0423 3.00962 19.6132V10.3868C3.00962 8.95769 3.77201 7.63718 5.00962 6.92265L13 2.3094Z" stroke="#C8D5E8" stroke-width="2" />
        <path d="M3 8L15 15L27 8" stroke="#C8D5E8" stroke-width="2" />
        <circle cx="15" cy="8" r="2" fill="#C8D5E8" />
        <circle cx="11.5" cy="17.5" r="1.5" fill="#C8D5E8" />
        <circle cx="6.5" cy="19.5" r="1.5" fill="#C8D5E8" />
        <circle cx="23.5" cy="19.5" r="1.5" fill="#C8D5E8" />
        <circle cx="19.5" cy="17.5" r="1.5" fill="#C8D5E8" />
        <circle cx="23.5" cy="14.5" r="1.5" fill="#C8D5E8" />
        <circle cx="19.5" cy="22.5" r="1.5" fill="#C8D5E8" />
    </g>
</svg>