<svg width="306" height="275" viewBox="0 0 306 275" fill="none" xmlns="http://www.w3.org/2000/svg">
<rect x="0.5" y="0.5" width="269" height="269" rx="79.5" fill="url(#paint0_linear)" stroke="url(#paint1_linear)"/>
<path d="M189.948 92.1371C178.866 80.5981 165.042 74.8286 148.477 74.8286H100.493V92.4401L100.541 92.3917L127.912 119.763V101.22H148.477C157.959 101.22 165.614 104.304 171.44 110.474C177.381 116.529 180.352 124.64 180.352 134.808C180.352 144.976 177.381 153.145 171.44 159.314C165.614 165.37 157.959 168.397 148.477 168.397H127.912V152.326L100.541 179.697L100.493 179.649V194.788H148.477C165.042 194.788 178.866 189.076 189.948 177.651C201.145 166.112 206.743 151.831 206.743 134.808C206.743 117.786 201.145 103.562 189.948 92.1371Z" fill="white"/>
<path d="M189.948 92.1371C178.866 80.5981 165.042 74.8286 148.477 74.8286H100.493V92.4401L100.541 92.3917L127.912 119.763V101.22H148.477C157.959 101.22 165.614 104.304 171.44 110.474C177.381 116.529 180.352 124.64 180.352 134.808C180.352 144.976 177.381 153.145 171.44 159.314C165.614 165.37 157.959 168.397 148.477 168.397H127.912V152.326L100.541 179.697L100.493 179.649V194.788H148.477C165.042 194.788 178.866 189.076 189.948 177.651C201.145 166.112 206.743 151.831 206.743 134.808C206.743 117.786 201.145 103.562 189.948 92.1371Z" fill="url(#paint2_linear)"/>
<rect x="64.0283" y="136.805" width="45.9083" height="45.9083" transform="rotate(-45 64.0283 136.805)" fill="#FB3E3E"/>
<circle cx="264.5" cy="233.5" r="39" fill="#FB3E3E" stroke="#0F131B" stroke-width="5"/>
<path fill-rule="evenodd" clip-rule="evenodd" d="M275.268 238.566C274.291 237.589 272.709 237.589 271.732 238.566L266.5 243.798V218.167C266.5 216.786 265.381 215.667 264 215.667C262.619 215.667 261.5 216.786 261.5 218.167V243.798L256.268 238.566C255.291 237.589 253.709 237.589 252.732 238.566C251.756 239.542 251.756 241.125 252.732 242.101L262.232 251.601C262.701 252.07 263.337 252.333 264 252.333C264.663 252.333 265.299 252.07 265.768 251.601L275.268 242.101C276.244 241.125 276.244 239.542 275.268 238.566Z" fill="white"/>
<defs>
<linearGradient id="paint0_linear" x1="135" y1="0" x2="135" y2="270" gradientUnits="userSpaceOnUse">
<stop stop-color="#171D28"/>
<stop offset="1" stop-color="#0F141E"/>
</linearGradient>
<linearGradient id="paint1_linear" x1="135" y1="0" x2="135" y2="270" gradientUnits="userSpaceOnUse">
<stop stop-color="white"/>
<stop offset="1" stop-opacity="0"/>
</linearGradient>
<linearGradient id="paint2_linear" x1="-47.7645" y1="160.457" x2="178.2" y2="134.887" gradientUnits="userSpaceOnUse">
<stop/>
<stop offset="1" stop-color="white" stop-opacity="0"/>
</linearGradient>
</defs>
</svg>
