<svg width="261" height="454" viewBox="0 0 261 454" fill="none" xmlns="http://www.w3.org/2000/svg">
<path d="M0 109.735C0 108.205 1.23818 106.965 2.76556 106.965V145.39C1.23818 145.39 0 144.15 0 142.621V109.735Z" fill="#282B36"/>
<path d="M1.03711 110.081C1.03711 109.125 1.81098 108.35 2.76559 108.35V144.005C1.81098 144.005 1.03711 143.23 1.03711 142.274V110.081Z" fill="#282B36"/>
<path d="M0 72.3488C0 70.8194 1.23818 69.5795 2.76556 69.5795V90.0033C1.23818 90.0033 0 88.7633 0 87.234V72.3488Z" fill="#282B36"/>
<path d="M1.03711 72.3488C1.03711 71.393 1.81098 70.6179 2.76559 70.6179V88.9648C1.81098 88.9648 1.03711 88.1897 1.03711 87.2339V72.3488Z" fill="#282B36"/>
<path d="M0 157.852C0 156.323 1.23818 155.083 2.76556 155.083V193.507C1.23818 193.507 0 192.267 0 190.738V157.852Z" fill="#282B36"/>
<path d="M1.03711 158.198C1.03711 157.242 1.81098 156.467 2.76559 156.467V192.122C1.81098 192.122 1.03711 191.347 1.03711 190.392V158.198Z" fill="#282B36"/>
<path d="M261 122.889C261 121.36 259.762 120.12 258.234 120.12V179.314C259.762 179.314 261 178.074 261 176.545V122.889Z" fill="#282B36"/>
<path d="M259.963 123.984C259.963 123.028 259.189 122.253 258.234 122.253V177.181C259.189 177.181 259.963 176.406 259.963 175.45V123.984Z" fill="#282B36"/>
<path d="M2.07422 38.0783C2.07422 17.0482 19.0993 0 40.1007 0H220.554C241.555 0 258.58 17.0483 258.58 38.0783V482.21C258.58 503.24 241.555 520.288 220.554 520.288H40.1007C19.0993 520.288 2.07422 503.24 2.07422 482.21V38.0783Z" fill="#1B202C"/>
<path d="M7.60535 40.5016C7.60535 21.3833 23.0826 5.88489 42.1749 5.88489H218.479C237.572 5.88489 253.049 21.3833 253.049 40.5016V480.133C253.049 499.252 237.572 514.75 218.479 514.75H42.1749C23.0826 514.75 7.60535 499.252 7.60535 480.133V40.5016Z" fill="#131822"/>
<path d="M2.07422 49.5018H7.60534V53.3097H2.07422V49.5018Z" fill="#333644"/>
<path d="M253.049 49.5018H258.58V53.3097H253.049V49.5018Z" fill="#333644"/>
<path fill-rule="evenodd" clip-rule="evenodd" d="M45.9775 16.616C30.7037 16.616 18.3219 29.0147 18.3219 44.3093V476.325C18.3219 491.619 30.7037 504.019 45.9775 504.019H214.677C229.951 504.019 242.332 491.619 242.332 476.325V44.3093C242.332 29.0147 229.951 16.616 214.677 16.616H197.738C195.447 16.616 193.589 18.4758 193.589 20.77C193.589 28.4173 187.398 34.6166 179.762 34.6166H80.8927C73.256 34.6166 67.0649 28.4173 67.0649 20.77C67.0649 18.4758 65.2075 16.616 62.9166 16.616H45.9775Z" fill="#1B202C"/>
<path d="M114.079 21.2893C114.079 20.0466 115.085 19.0392 116.326 19.0392H143.982C145.223 19.0392 146.229 20.0466 146.229 21.2893C146.229 22.532 145.223 23.5393 143.982 23.5393H116.326C115.085 23.5393 114.079 22.532 114.079 21.2893Z" fill="#1B202C"/>
<path d="M156.6 21.2893C156.6 20.0466 157.606 19.0392 158.847 19.0392C160.088 19.0392 161.094 20.0466 161.094 21.2893C161.094 22.532 160.088 23.5393 158.847 23.5393C157.606 23.5393 156.6 22.532 156.6 21.2893Z" fill="#6DA3FF"/>
<path fill-rule="evenodd" clip-rule="evenodd" d="M45.9775 16.616C30.7037 16.616 18.3219 29.0147 18.3219 44.3093V476.325C18.3219 491.619 30.7037 504.019 45.9775 504.019H214.677C229.951 504.019 242.332 491.619 242.332 476.325V44.3093C242.332 29.0147 229.951 16.616 214.677 16.616H197.738C195.447 16.616 193.589 18.4758 193.589 20.77C193.589 28.4173 187.398 34.6166 179.762 34.6166H80.8927C73.256 34.6166 67.0649 28.4173 67.0649 20.77C67.0649 18.4758 65.2075 16.616 62.9166 16.616H45.9775Z" fill="#0F131B"/>
<path d="M153.568 146.947C148.146 141.293 141.381 138.467 133.276 138.467H109.797V147.096L109.821 147.072L123.213 160.483V151.398H133.276C137.916 151.398 141.661 152.909 144.512 155.932C147.419 158.898 148.872 162.873 148.872 167.855C148.872 172.837 147.419 176.84 144.512 179.862C141.661 182.829 137.916 184.313 133.276 184.313H123.213V176.438L109.821 189.849L109.797 189.826V197.243H133.276C141.381 197.243 148.146 194.445 153.568 188.847C159.046 183.193 161.785 176.196 161.785 167.855C161.785 159.514 159.046 152.545 153.568 146.947Z" fill="white"/>
<g opacity="0.25" filter="url(#filter0_f)">
<path opacity="0.25" d="M107.839 152.928L91.9548 168.833L107.839 184.739L123.723 168.833L107.839 152.928Z" fill="#FB3E3E"/>
</g>
<path d="M107.839 152.928L91.9548 168.833L107.839 184.738L123.722 168.833L107.839 152.928Z" fill="#FB3E3E"/>
<path d="M48.9942 227.543C48.9338 227.543 48.8824 227.524 48.8404 227.485C48.7981 227.446 48.7771 227.399 48.7771 227.343V221.927C48.7771 221.866 48.7952 221.816 48.8314 221.777C48.8733 221.738 48.9276 221.719 48.9942 221.719H51.2019C52.9752 221.719 53.88 222.474 53.9162 223.982C53.9281 224.304 53.9343 224.52 53.9343 224.631C53.9343 224.737 53.9281 224.95 53.9162 225.272C53.8919 226.048 53.6657 226.622 53.2376 226.994C52.8091 227.36 52.1457 227.543 51.2471 227.543H48.9942ZM51.2019 226.586C51.7086 226.586 52.0733 226.484 52.2967 226.278C52.5196 226.068 52.6372 225.724 52.6495 225.247C52.6614 224.914 52.6676 224.706 52.6676 224.623C52.6676 224.534 52.6614 224.329 52.6495 224.007C52.6372 223.552 52.5105 223.217 52.2695 223C52.0343 222.784 51.6633 222.676 51.1566 222.676H50.0347V226.586H51.2019ZM56.3961 227.626C56.0885 227.626 55.8051 227.571 55.5456 227.46C55.2923 227.343 55.0903 227.188 54.9394 226.994C54.7947 226.8 54.7223 226.586 54.7223 226.353C54.7223 225.976 54.8884 225.671 55.2199 225.438C55.5518 225.205 56.007 225.047 56.5861 224.964L57.8256 224.797V224.623C57.8256 224.379 57.7594 224.196 57.6266 224.074C57.4942 223.952 57.2799 223.891 56.9842 223.891C56.7852 223.891 56.6223 223.927 56.4956 223.999C56.3751 224.065 56.2785 224.132 56.2061 224.198C56.1337 224.271 56.0856 224.318 56.0613 224.34C56.0375 224.406 55.9922 224.44 55.9256 224.44H55.2289C55.1747 224.44 55.1265 224.423 55.0842 224.39C55.048 224.357 55.0299 224.312 55.0299 224.257C55.0361 224.118 55.1084 223.96 55.247 223.782C55.3918 223.605 55.6122 223.452 55.9075 223.325C56.2032 223.197 56.5651 223.134 56.9932 223.134C57.7051 223.134 58.2237 223.281 58.5495 223.574C58.8752 223.868 59.038 224.254 59.038 224.731V227.343C59.038 227.399 59.0171 227.446 58.9747 227.485C58.9385 227.524 58.8875 227.543 58.8209 227.543H58.088C58.028 227.543 57.9766 227.524 57.9342 227.485C57.8923 227.446 57.8709 227.399 57.8709 227.343V227.019C57.7385 227.196 57.5485 227.343 57.3009 227.46C57.0599 227.571 56.758 227.626 56.3961 227.626ZM56.7037 226.836C57.0356 226.836 57.307 226.736 57.518 226.536C57.7294 226.337 57.8347 226.045 57.8347 225.663V225.488L56.9299 225.621C56.5803 225.671 56.3147 225.752 56.1337 225.862C55.9589 225.973 55.8713 226.109 55.8713 226.27C55.8713 226.447 55.9528 226.586 56.1156 226.686C56.2785 226.786 56.4747 226.836 56.7037 226.836ZM62.28 227.626C61.5743 227.626 61.0281 227.46 60.6424 227.127C60.2562 226.789 60.0481 226.328 60.0181 225.746L60.009 225.38L60.0181 225.014C60.0481 224.437 60.2591 223.979 60.6514 223.641C61.0433 223.303 61.5862 223.134 62.28 223.134C62.9734 223.134 63.5162 223.303 63.9086 223.641C64.3005 223.979 64.5115 224.437 64.5419 225.014C64.5477 225.08 64.551 225.202 64.551 225.38C64.551 225.557 64.5477 225.679 64.5419 225.746C64.5115 226.328 64.3034 226.789 63.9176 227.127C63.5315 227.46 62.9857 227.626 62.28 227.626ZM62.28 226.803C62.5995 226.803 62.8467 226.711 63.0219 226.528C63.1967 226.339 63.2933 226.065 63.3114 225.704C63.3172 225.649 63.3205 225.541 63.3205 225.38C63.3205 225.219 63.3172 225.111 63.3114 225.055C63.2933 224.695 63.1967 224.423 63.0219 224.24C62.8467 224.051 62.5995 223.957 62.28 223.957C61.96 223.957 61.7129 224.051 61.5381 224.24C61.3629 224.423 61.2667 224.695 61.2486 225.055L61.2395 225.38L61.2486 225.704C61.2667 226.065 61.3629 226.339 61.5381 226.528C61.7129 226.711 61.96 226.803 62.28 226.803ZM65.8789 227.543C65.8189 227.543 65.7675 227.524 65.7251 227.485C65.6832 227.446 65.6618 227.399 65.6618 227.343V221.927C65.6618 221.866 65.6799 221.816 65.7161 221.777C65.7584 221.738 65.8127 221.719 65.8789 221.719H68.3037C69.0275 221.719 69.5975 221.877 70.0137 222.193C70.4299 222.504 70.638 222.961 70.638 223.566C70.638 224.171 70.4299 224.628 70.0137 224.939C69.6037 225.244 69.0337 225.396 68.3037 225.396H66.9556V227.343C66.9556 227.399 66.9346 227.446 66.8923 227.485C66.8561 227.524 66.8051 227.543 66.7385 227.543H65.8789ZM68.2585 224.473C68.6085 224.473 68.877 224.398 69.0637 224.248C69.2509 224.093 69.3442 223.866 69.3442 223.566C69.3442 223.278 69.2537 223.053 69.0728 222.892C68.8918 222.726 68.6204 222.643 68.2585 222.643H66.9375V224.473H68.2585ZM73.5366 227.626C72.8309 227.626 72.2851 227.46 71.899 227.127C71.5128 226.789 71.3047 226.328 71.2747 225.746L71.2656 225.38L71.2747 225.014C71.3047 224.437 71.5161 223.979 71.908 223.641C72.2999 223.303 72.8428 223.134 73.5366 223.134C74.2304 223.134 74.7733 223.303 75.1652 223.641C75.5571 223.979 75.7685 224.437 75.7985 225.014C75.8047 225.08 75.8076 225.202 75.8076 225.38C75.8076 225.557 75.8047 225.679 75.7985 225.746C75.7685 226.328 75.5604 226.789 75.1742 227.127C74.7881 227.46 74.2423 227.626 73.5366 227.626ZM73.5366 226.803C73.8561 226.803 74.1037 226.711 74.2785 226.528C74.4533 226.339 74.5499 226.065 74.568 225.704C74.5742 225.649 74.5771 225.541 74.5771 225.38C74.5771 225.219 74.5742 225.111 74.568 225.055C74.5499 224.695 74.4533 224.423 74.2785 224.24C74.1037 224.051 73.8561 223.957 73.5366 223.957C73.217 223.957 72.9695 224.051 72.7947 224.24C72.6199 224.423 72.5232 224.695 72.5052 225.055L72.4961 225.38L72.5052 225.704C72.5232 226.065 72.6199 226.339 72.7947 226.528C72.9695 226.711 73.217 226.803 73.5366 226.803ZM77.036 227.543C76.976 227.543 76.9246 227.524 76.8822 227.485C76.8402 227.446 76.8189 227.399 76.8189 227.343V221.836C76.8189 221.775 76.8402 221.727 76.8822 221.694C76.9246 221.655 76.976 221.636 77.036 221.636H77.7689C77.8355 221.636 77.8865 221.655 77.9227 221.694C77.965 221.727 77.986 221.775 77.986 221.836V224.681L79.506 223.358C79.5241 223.347 79.5546 223.325 79.5965 223.292C79.6327 223.264 79.6689 223.244 79.7051 223.233C79.7413 223.222 79.7865 223.217 79.8408 223.217H80.6822C80.7427 223.217 80.7908 223.233 80.827 223.267C80.8632 223.3 80.8813 223.344 80.8813 223.4C80.8813 223.45 80.8513 223.5 80.7908 223.55L78.927 225.155L81.017 227.219C81.0775 227.274 81.1075 227.321 81.1075 227.36C81.1075 227.416 81.0865 227.46 81.0441 227.493C81.0079 227.526 80.9627 227.543 80.9084 227.543H80.0489C79.9646 227.543 79.9012 227.535 79.8589 227.518C79.8227 227.496 79.7746 227.457 79.7141 227.402L77.986 225.729V227.343C77.986 227.399 77.965 227.446 77.9227 227.485C77.8865 227.524 77.8355 227.543 77.7689 227.543H77.036ZM83.5902 227.626C82.9207 227.626 82.3869 227.449 81.9888 227.094C81.5969 226.733 81.3888 226.228 81.3645 225.58L81.3555 225.372L81.3645 225.164C81.3945 224.531 81.6059 224.035 81.9978 223.674C82.3959 223.314 82.9269 223.134 83.5902 223.134C84.3021 223.134 84.8508 223.333 85.2369 223.733C85.6289 224.132 85.825 224.664 85.825 225.33V225.505C85.825 225.56 85.8041 225.607 85.7617 225.646C85.7193 225.685 85.6651 225.704 85.5988 225.704H82.595V225.771C82.6069 226.076 82.6974 226.334 82.8664 226.545C83.0412 226.75 83.2797 226.852 83.5812 226.852C83.9369 226.852 84.2236 226.725 84.4407 226.47C84.495 226.409 84.5374 226.37 84.5674 226.353C84.6036 226.337 84.655 226.328 84.7212 226.328H85.4993C85.5536 226.328 85.5989 226.345 85.635 226.378C85.6774 226.406 85.6984 226.442 85.6984 226.486C85.6984 226.619 85.6108 226.778 85.436 226.961C85.267 227.138 85.0227 227.293 84.7031 227.426C84.3836 227.56 84.0126 227.626 83.5902 227.626ZM84.5946 225.005V224.98C84.5946 224.653 84.5041 224.39 84.3231 224.19C84.1483 223.99 83.904 223.891 83.5902 223.891C83.2765 223.891 83.0322 223.99 82.8574 224.19C82.6826 224.39 82.595 224.653 82.595 224.98V225.005H84.5946ZM87.0025 227.543C86.9424 227.543 86.891 227.524 86.8487 227.485C86.8067 227.446 86.7853 227.399 86.7853 227.343V223.425C86.7853 223.369 86.8067 223.322 86.8487 223.283C86.891 223.239 86.9424 223.217 87.0025 223.217H87.7353C87.802 223.217 87.8563 223.236 87.8982 223.275C87.9406 223.314 87.9615 223.364 87.9615 223.425V223.766C88.1063 223.588 88.2873 223.452 88.5044 223.358C88.7277 223.264 88.981 223.217 89.2644 223.217H89.6354C89.702 223.217 89.753 223.236 89.7892 223.275C89.8315 223.308 89.8525 223.356 89.8525 223.416V224.015C89.8525 224.071 89.8315 224.118 89.7892 224.157C89.753 224.196 89.702 224.215 89.6354 224.215H88.9296C88.6463 224.215 88.423 224.29 88.2601 224.44C88.0973 224.589 88.0158 224.795 88.0158 225.055V227.343C88.0158 227.399 87.9948 227.446 87.9525 227.485C87.9105 227.524 87.8562 227.543 87.7896 227.543H87.0025Z" fill="#FF6767"/>
<path d="M92.3061 225.918C92.2453 225.918 92.1936 225.897 92.1515 225.855C92.1089 225.813 92.0878 225.762 92.0878 225.702V225.107C92.0878 225.041 92.1089 224.99 92.1515 224.953C92.1936 224.911 92.2453 224.89 92.3061 224.89H95.0992C95.1657 224.89 95.2174 224.911 95.2538 224.953C95.296 224.99 95.3175 225.041 95.3175 225.107V225.702C95.3175 225.762 95.296 225.813 95.2538 225.855C95.2174 225.897 95.1657 225.918 95.0992 225.918H92.3061ZM101.209 228.199C100.414 228.199 99.7986 227.994 99.3619 227.586C98.9314 227.171 98.704 226.549 98.6796 225.72C98.6734 225.539 98.6705 225.284 98.6705 224.953C98.6705 224.623 98.6734 224.37 98.6796 224.196C98.704 223.385 98.9405 222.769 99.3892 222.348C99.8379 221.922 100.445 221.708 101.209 221.708C101.967 221.708 102.571 221.922 103.019 222.348C103.468 222.769 103.704 223.385 103.729 224.196C103.741 224.545 103.747 224.797 103.747 224.953C103.747 225.104 103.741 225.359 103.729 225.72C103.704 226.549 103.474 227.171 103.037 227.586C102.607 227.994 101.997 228.199 101.209 228.199ZM101.209 227.433C101.688 227.433 102.07 227.288 102.355 227C102.64 226.711 102.795 226.27 102.819 225.675C102.831 225.314 102.837 225.074 102.837 224.953C102.837 224.821 102.831 224.581 102.819 224.232C102.795 223.637 102.637 223.196 102.346 222.907C102.061 222.619 101.682 222.474 101.209 222.474C100.729 222.474 100.344 222.619 100.053 222.907C99.7684 223.196 99.6137 223.637 99.5893 224.232C99.5831 224.406 99.5803 224.647 99.5803 224.953C99.5803 225.254 99.5831 225.494 99.5893 225.675C99.6137 226.27 99.7684 226.711 100.053 227C100.344 227.288 100.729 227.433 101.209 227.433ZM105.164 228.109C105.103 228.109 105.052 228.091 105.01 228.055C104.973 228.012 104.955 227.962 104.955 227.901V223.628C104.955 223.568 104.973 223.52 105.01 223.484C105.052 223.442 105.103 223.421 105.164 223.421H105.592C105.652 223.421 105.701 223.442 105.737 223.484C105.78 223.52 105.801 223.568 105.801 223.628V224.025C105.977 223.802 106.183 223.631 106.42 223.511C106.662 223.391 106.962 223.331 107.32 223.331C107.903 223.331 108.354 223.517 108.676 223.89C109.004 224.256 109.167 224.746 109.167 225.359V227.901C109.167 227.962 109.146 228.012 109.104 228.055C109.067 228.091 109.018 228.109 108.958 228.109H108.503C108.442 228.109 108.391 228.091 108.348 228.055C108.312 228.012 108.294 227.962 108.294 227.901V225.404C108.294 224.978 108.188 224.647 107.975 224.413C107.769 224.178 107.469 224.061 107.075 224.061C106.693 224.061 106.389 224.181 106.165 224.422C105.94 224.656 105.828 224.983 105.828 225.404V227.901C105.828 227.962 105.807 228.012 105.765 228.055C105.728 228.091 105.68 228.109 105.619 228.109H105.164ZM110.691 228.109C110.63 228.109 110.578 228.091 110.536 228.055C110.5 228.012 110.482 227.962 110.482 227.901V221.915C110.482 221.855 110.5 221.807 110.536 221.771C110.578 221.729 110.63 221.708 110.691 221.708H111.118C111.179 221.708 111.228 221.729 111.264 221.771C111.306 221.807 111.328 221.855 111.328 221.915V227.901C111.328 227.962 111.306 228.012 111.264 228.055C111.228 228.091 111.179 228.109 111.118 228.109H110.691ZM112.821 222.547C112.761 222.547 112.709 222.528 112.666 222.492C112.63 222.45 112.612 222.399 112.612 222.339V221.852C112.612 221.792 112.63 221.741 112.666 221.699C112.709 221.657 112.761 221.636 112.821 221.636H113.394C113.455 221.636 113.507 221.657 113.549 221.699C113.591 221.741 113.612 221.792 113.612 221.852V222.339C113.612 222.399 113.591 222.45 113.549 222.492C113.507 222.528 113.455 222.547 113.394 222.547H112.821ZM112.894 228.109C112.833 228.109 112.782 228.091 112.739 228.055C112.703 228.012 112.684 227.962 112.684 227.901V223.628C112.684 223.568 112.703 223.52 112.739 223.484C112.782 223.442 112.833 223.421 112.894 223.421H113.33C113.391 223.421 113.44 223.442 113.476 223.484C113.519 223.52 113.54 223.568 113.54 223.628V227.901C113.54 227.962 113.519 228.012 113.476 228.055C113.44 228.091 113.391 228.109 113.33 228.109H112.894ZM115.097 228.109C115.037 228.109 114.985 228.091 114.942 228.055C114.906 228.012 114.888 227.962 114.888 227.901V223.628C114.888 223.568 114.906 223.52 114.942 223.484C114.985 223.442 115.037 223.421 115.097 223.421H115.525C115.585 223.421 115.634 223.442 115.67 223.484C115.713 223.52 115.734 223.568 115.734 223.628V224.025C115.91 223.802 116.116 223.631 116.353 223.511C116.595 223.391 116.895 223.331 117.253 223.331C117.835 223.331 118.287 223.517 118.609 223.89C118.936 224.256 119.1 224.746 119.1 225.359V227.901C119.1 227.962 119.079 228.012 119.036 228.055C119 228.091 118.952 228.109 118.891 228.109H118.436C118.376 228.109 118.324 228.091 118.281 228.055C118.245 228.012 118.227 227.962 118.227 227.901V225.404C118.227 224.978 118.121 224.647 117.908 224.413C117.702 224.178 117.402 224.061 117.008 224.061C116.625 224.061 116.322 224.181 116.098 224.422C115.874 224.656 115.761 224.983 115.761 225.404V227.901C115.761 227.962 115.74 228.012 115.697 228.055C115.661 228.091 115.613 228.109 115.552 228.109H115.097ZM122.298 228.199C121.673 228.199 121.172 228.009 120.796 227.631C120.426 227.246 120.223 226.723 120.187 226.062L120.178 225.756L120.187 225.458C120.229 224.809 120.435 224.293 120.805 223.908C121.181 223.523 121.676 223.331 122.288 223.331C122.962 223.331 123.483 223.544 123.853 223.971C124.223 224.392 124.408 224.962 124.408 225.684V225.837C124.408 225.897 124.387 225.948 124.345 225.99C124.308 226.026 124.26 226.044 124.199 226.044H121.051V226.125C121.069 226.516 121.188 226.849 121.406 227.126C121.63 227.396 121.925 227.532 122.288 227.532C122.568 227.532 122.795 227.478 122.971 227.369C123.153 227.255 123.286 227.138 123.371 227.018C123.426 226.946 123.465 226.904 123.489 226.892C123.52 226.874 123.571 226.865 123.644 226.865H124.09C124.144 226.865 124.19 226.88 124.226 226.91C124.263 226.94 124.281 226.982 124.281 227.036C124.281 227.168 124.196 227.327 124.026 227.514C123.862 227.7 123.629 227.862 123.326 228C123.028 228.133 122.686 228.199 122.298 228.199ZM123.544 225.422V225.395C123.544 224.981 123.429 224.644 123.198 224.386C122.974 224.121 122.671 223.989 122.288 223.989C121.906 223.989 121.603 224.121 121.379 224.386C121.16 224.644 121.051 224.981 121.051 225.395V225.422H123.544ZM128.054 228.109C127.993 228.109 127.941 228.091 127.899 228.055C127.862 228.012 127.844 227.962 127.844 227.901V222.015C127.844 221.949 127.862 221.897 127.899 221.861C127.941 221.819 127.993 221.798 128.054 221.798H130.364C131.05 221.798 131.59 221.963 131.984 222.294C132.378 222.625 132.575 223.103 132.575 223.727C132.575 224.352 132.378 224.83 131.984 225.161C131.596 225.485 131.056 225.648 130.364 225.648H128.754V227.901C128.754 227.962 128.733 228.012 128.69 228.055C128.648 228.091 128.597 228.109 128.536 228.109H128.054ZM130.319 224.89C130.762 224.89 131.096 224.791 131.32 224.593C131.55 224.395 131.665 224.106 131.665 223.727C131.665 223.349 131.553 223.06 131.329 222.862C131.105 222.658 130.768 222.556 130.319 222.556H128.745V224.89H130.319ZM135.439 228.199C134.772 228.199 134.253 228.012 133.883 227.64C133.519 227.267 133.325 226.772 133.301 226.152L133.292 225.765L133.301 225.377C133.325 224.764 133.522 224.271 133.892 223.899C134.262 223.52 134.778 223.331 135.439 223.331C136.1 223.331 136.615 223.52 136.986 223.899C137.356 224.271 137.553 224.764 137.577 225.377C137.583 225.443 137.586 225.573 137.586 225.765C137.586 225.957 137.583 226.086 137.577 226.152C137.553 226.772 137.356 227.267 136.986 227.64C136.622 228.012 136.106 228.199 135.439 228.199ZM135.439 227.505C135.821 227.505 136.121 227.385 136.34 227.144C136.564 226.904 136.685 226.558 136.704 226.107C136.71 226.047 136.713 225.933 136.713 225.765C136.713 225.596 136.71 225.482 136.704 225.422C136.685 224.971 136.564 224.626 136.34 224.386C136.121 224.145 135.821 224.025 135.439 224.025C135.057 224.025 134.754 224.145 134.529 224.386C134.305 224.626 134.186 224.971 134.174 225.422L134.165 225.765L134.174 226.107C134.186 226.558 134.305 226.904 134.529 227.144C134.754 227.385 135.057 227.505 135.439 227.505ZM138.944 228.109C138.883 228.109 138.832 228.091 138.789 228.055C138.753 228.012 138.734 227.962 138.734 227.901V221.915C138.734 221.855 138.753 221.807 138.789 221.771C138.832 221.729 138.883 221.708 138.944 221.708H139.371C139.432 221.708 139.48 221.729 139.517 221.771C139.559 221.807 139.581 221.855 139.581 221.915V225.053L141.373 223.574C141.391 223.562 141.421 223.538 141.464 223.502C141.506 223.472 141.546 223.451 141.582 223.439C141.625 223.427 141.676 223.421 141.737 223.421H142.219C142.273 223.421 142.319 223.439 142.355 223.475C142.392 223.511 142.41 223.556 142.41 223.61C142.41 223.676 142.374 223.734 142.301 223.782L140.199 225.512L142.528 227.757C142.601 227.817 142.637 227.871 142.637 227.919C142.637 227.973 142.619 228.019 142.583 228.055C142.546 228.091 142.501 228.109 142.446 228.109H141.973C141.882 228.109 141.816 228.1 141.773 228.082C141.737 228.064 141.682 228.021 141.609 227.955L139.581 226.035V227.901C139.581 227.962 139.559 228.012 139.517 228.055C139.48 228.091 139.432 228.109 139.371 228.109H138.944ZM145.087 228.199C144.462 228.199 143.962 228.009 143.586 227.631C143.215 227.246 143.012 226.723 142.976 226.062L142.967 225.756L142.976 225.458C143.018 224.809 143.225 224.293 143.595 223.908C143.971 223.523 144.465 223.331 145.078 223.331C145.751 223.331 146.272 223.544 146.642 223.971C147.012 224.392 147.197 224.962 147.197 225.684V225.837C147.197 225.897 147.176 225.948 147.134 225.99C147.097 226.026 147.049 226.044 146.988 226.044H143.84V226.125C143.859 226.516 143.977 226.849 144.195 227.126C144.419 227.396 144.714 227.532 145.078 227.532C145.356 227.532 145.584 227.478 145.76 227.369C145.942 227.255 146.075 227.138 146.16 227.018C146.215 226.946 146.254 226.904 146.279 226.892C146.309 226.874 146.36 226.865 146.433 226.865H146.879C146.934 226.865 146.979 226.88 147.015 226.91C147.052 226.94 147.07 226.982 147.07 227.036C147.07 227.168 146.985 227.327 146.815 227.514C146.652 227.7 146.418 227.862 146.115 228C145.817 228.133 145.475 228.199 145.087 228.199ZM146.333 225.422V225.395C146.333 224.981 146.218 224.644 145.987 224.386C145.763 224.121 145.46 223.989 145.078 223.989C144.696 223.989 144.392 224.121 144.168 224.386C143.95 224.644 143.84 224.981 143.84 225.395V225.422H146.333ZM148.494 228.109C148.434 228.109 148.382 228.091 148.34 228.055C148.303 228.012 148.285 227.962 148.285 227.901V223.637C148.285 223.577 148.303 223.526 148.34 223.484C148.382 223.442 148.434 223.421 148.494 223.421H148.913C148.974 223.421 149.025 223.442 149.067 223.484C149.11 223.526 149.131 223.577 149.131 223.637V224.034C149.38 223.625 149.804 223.421 150.405 223.421H150.76C150.82 223.421 150.869 223.442 150.905 223.484C150.948 223.52 150.969 223.568 150.969 223.628V223.998C150.969 224.058 150.948 224.106 150.905 224.142C150.869 224.178 150.82 224.196 150.76 224.196H150.214C149.886 224.196 149.629 224.293 149.44 224.485C149.252 224.671 149.158 224.926 149.158 225.251V227.901C149.158 227.962 149.137 228.012 149.095 228.055C149.052 228.091 149.001 228.109 148.94 228.109H148.494ZM153.894 222.547C153.834 222.547 153.782 222.528 153.74 222.492C153.703 222.45 153.685 222.399 153.685 222.339V221.852C153.685 221.792 153.703 221.741 153.74 221.699C153.782 221.657 153.834 221.636 153.894 221.636H154.467C154.528 221.636 154.58 221.657 154.622 221.699C154.665 221.741 154.686 221.792 154.686 221.852V222.339C154.686 222.399 154.665 222.45 154.622 222.492C154.58 222.528 154.528 222.547 154.467 222.547H153.894ZM153.967 228.109C153.907 228.109 153.855 228.091 153.812 228.055C153.776 228.012 153.758 227.962 153.758 227.901V223.628C153.758 223.568 153.776 223.52 153.812 223.484C153.855 223.442 153.907 223.421 153.967 223.421H154.404C154.465 223.421 154.513 223.442 154.549 223.484C154.592 223.52 154.613 223.568 154.613 223.628V227.901C154.613 227.962 154.592 228.012 154.549 228.055C154.513 228.091 154.465 228.109 154.404 228.109H153.967ZM156.171 228.109C156.11 228.109 156.058 228.091 156.016 228.055C155.98 228.012 155.962 227.962 155.962 227.901V223.628C155.962 223.568 155.98 223.52 156.016 223.484C156.058 223.442 156.11 223.421 156.171 223.421H156.598C156.659 223.421 156.708 223.442 156.744 223.484C156.786 223.52 156.808 223.568 156.808 223.628V224.025C156.983 223.802 157.19 223.631 157.426 223.511C157.669 223.391 157.969 223.331 158.327 223.331C158.909 223.331 159.361 223.517 159.683 223.89C160.01 224.256 160.174 224.746 160.174 225.359V227.901C160.174 227.962 160.152 228.012 160.11 228.055C160.074 228.091 160.025 228.109 159.965 228.109H159.51C159.449 228.109 159.397 228.091 159.355 228.055C159.319 228.012 159.3 227.962 159.3 227.901V225.404C159.3 224.978 159.194 224.647 158.982 224.413C158.776 224.178 158.475 224.061 158.081 224.061C157.699 224.061 157.396 224.181 157.172 224.422C156.947 224.656 156.835 224.983 156.835 225.404V227.901C156.835 227.962 156.813 228.012 156.771 228.055C156.735 228.091 156.686 228.109 156.626 228.109H156.171ZM164.288 229.821C164.239 229.821 164.197 229.803 164.16 229.767C164.124 229.731 164.106 229.689 164.106 229.641C164.106 229.599 164.121 229.545 164.151 229.479L164.852 227.829L163.114 223.763C163.084 223.685 163.069 223.634 163.069 223.61C163.069 223.556 163.087 223.511 163.123 223.475C163.16 223.439 163.205 223.421 163.26 223.421H163.705C163.803 223.421 163.875 223.472 163.924 223.574L165.307 226.856L166.726 223.574C166.775 223.472 166.85 223.421 166.953 223.421H167.381C167.436 223.421 167.481 223.439 167.517 223.475C167.554 223.511 167.572 223.553 167.572 223.601C167.572 223.619 167.557 223.673 167.527 223.763L164.943 229.668C164.894 229.77 164.819 229.821 164.715 229.821H164.288ZM170.258 228.199C169.591 228.199 169.072 228.012 168.702 227.64C168.338 227.267 168.144 226.772 168.12 226.152L168.11 225.765L168.12 225.377C168.144 224.764 168.341 224.271 168.711 223.899C169.081 223.52 169.597 223.331 170.258 223.331C170.919 223.331 171.434 223.52 171.804 223.899C172.174 224.271 172.372 224.764 172.396 225.377C172.402 225.443 172.405 225.573 172.405 225.765C172.405 225.957 172.402 226.086 172.396 226.152C172.372 226.772 172.174 227.267 171.804 227.64C171.44 228.012 170.925 228.199 170.258 228.199ZM170.258 227.505C170.64 227.505 170.94 227.385 171.158 227.144C171.383 226.904 171.504 226.558 171.522 226.107C171.528 226.047 171.531 225.933 171.531 225.765C171.531 225.596 171.528 225.482 171.522 225.422C171.504 224.971 171.383 224.626 171.158 224.386C170.94 224.145 170.64 224.025 170.258 224.025C169.875 224.025 169.572 224.145 169.348 224.386C169.124 224.626 169.005 224.971 168.993 225.422L168.984 225.765L168.993 226.107C169.005 226.558 169.124 226.904 169.348 227.144C169.572 227.385 169.875 227.505 170.258 227.505ZM175.309 228.199C174.733 228.199 174.287 228.016 173.972 227.649C173.656 227.276 173.498 226.783 173.498 226.17V223.628C173.498 223.568 173.517 223.52 173.553 223.484C173.596 223.442 173.647 223.421 173.708 223.421H174.163C174.223 223.421 174.272 223.442 174.308 223.484C174.351 223.52 174.372 223.568 174.372 223.628V226.125C174.372 227.021 174.766 227.469 175.555 227.469C175.937 227.469 176.24 227.351 176.464 227.117C176.689 226.877 176.801 226.546 176.801 226.125V223.628C176.801 223.568 176.819 223.52 176.856 223.484C176.898 223.442 176.949 223.421 177.01 223.421H177.465C177.526 223.421 177.574 223.442 177.611 223.484C177.647 223.52 177.665 223.568 177.665 223.628V227.901C177.665 227.962 177.647 228.012 177.611 228.055C177.574 228.091 177.526 228.109 177.465 228.109H177.038C176.977 228.109 176.925 228.091 176.883 228.055C176.846 228.012 176.828 227.962 176.828 227.901V227.505C176.658 227.733 176.452 227.907 176.21 228.028C175.967 228.142 175.667 228.199 175.309 228.199ZM179.226 228.109C179.166 228.109 179.114 228.091 179.072 228.055C179.035 228.012 179.017 227.962 179.017 227.901V223.637C179.017 223.577 179.035 223.526 179.072 223.484C179.114 223.442 179.166 223.421 179.226 223.421H179.645C179.705 223.421 179.757 223.442 179.799 223.484C179.842 223.526 179.863 223.577 179.863 223.637V224.034C180.112 223.625 180.536 223.421 181.137 223.421H181.492C181.552 223.421 181.601 223.442 181.637 223.484C181.679 223.52 181.701 223.568 181.701 223.628V223.998C181.701 224.058 181.679 224.106 181.637 224.142C181.601 224.178 181.552 224.196 181.492 224.196H180.946C180.618 224.196 180.36 224.293 180.173 224.485C179.984 224.671 179.89 224.926 179.89 225.251V227.901C179.89 227.962 179.869 228.012 179.827 228.055C179.784 228.091 179.733 228.109 179.672 228.109H179.226ZM184.708 229.821C184.647 229.821 184.596 229.801 184.554 229.758C184.517 229.722 184.499 229.674 184.499 229.614V223.628C184.499 223.568 184.517 223.52 184.554 223.484C184.596 223.442 184.647 223.421 184.708 223.421H185.127C185.187 223.421 185.236 223.442 185.272 223.484C185.315 223.52 185.336 223.568 185.336 223.628V224.025C185.675 223.562 186.173 223.331 186.828 223.331C187.465 223.331 187.941 223.529 188.256 223.926C188.578 224.322 188.751 224.833 188.775 225.458C188.781 225.524 188.784 225.627 188.784 225.765C188.784 225.903 188.781 226.005 188.775 226.071C188.751 226.69 188.578 227.201 188.256 227.604C187.935 228 187.459 228.199 186.828 228.199C186.197 228.199 185.706 227.973 185.354 227.523V229.614C185.354 229.674 185.336 229.722 185.3 229.758C185.263 229.801 185.215 229.821 185.154 229.821H184.708ZM186.637 227.469C187.067 227.469 187.38 227.336 187.574 227.072C187.774 226.808 187.883 226.459 187.902 226.026C187.908 225.966 187.911 225.879 187.911 225.765C187.911 224.629 187.486 224.061 186.637 224.061C186.218 224.061 185.903 224.199 185.691 224.476C185.484 224.746 185.372 225.071 185.354 225.449L185.345 225.792L185.354 226.143C185.366 226.498 185.482 226.808 185.7 227.072C185.918 227.336 186.23 227.469 186.637 227.469ZM190.128 228.109C190.067 228.109 190.016 228.091 189.973 228.055C189.937 228.012 189.918 227.962 189.918 227.901V221.915C189.918 221.855 189.937 221.807 189.973 221.771C190.016 221.729 190.067 221.708 190.128 221.708H190.582C190.643 221.708 190.692 221.729 190.728 221.771C190.771 221.807 190.792 221.855 190.792 221.915V224.016C190.968 223.793 191.174 223.625 191.41 223.511C191.647 223.391 191.941 223.331 192.293 223.331C192.875 223.331 193.327 223.517 193.648 223.89C193.976 224.256 194.14 224.746 194.14 225.359V227.901C194.14 227.962 194.119 228.012 194.076 228.055C194.04 228.091 193.991 228.109 193.93 228.109H193.476C193.415 228.109 193.364 228.091 193.321 228.055C193.285 228.012 193.266 227.962 193.266 227.901V225.404C193.266 224.978 193.161 224.647 192.948 224.413C192.742 224.178 192.442 224.061 192.047 224.061C191.665 224.061 191.359 224.181 191.128 224.422C190.904 224.656 190.792 224.983 190.792 225.404V227.901C190.792 227.962 190.771 228.012 190.728 228.055C190.692 228.091 190.643 228.109 190.582 228.109H190.128ZM197.391 228.199C196.724 228.199 196.205 228.012 195.836 227.64C195.472 227.267 195.277 226.772 195.253 226.152L195.244 225.765L195.253 225.377C195.277 224.764 195.475 224.271 195.845 223.899C196.214 223.52 196.73 223.331 197.391 223.331C198.052 223.331 198.568 223.52 198.938 223.899C199.308 224.271 199.505 224.764 199.529 225.377C199.535 225.443 199.538 225.573 199.538 225.765C199.538 225.957 199.535 226.086 199.529 226.152C199.505 226.772 199.308 227.267 198.938 227.64C198.574 228.012 198.058 228.199 197.391 228.199ZM197.391 227.505C197.774 227.505 198.074 227.385 198.292 227.144C198.516 226.904 198.638 226.558 198.656 226.107C198.662 226.047 198.665 225.933 198.665 225.765C198.665 225.596 198.662 225.482 198.656 225.422C198.638 224.971 198.516 224.626 198.292 224.386C198.074 224.145 197.774 224.025 197.391 224.025C197.009 224.025 196.706 224.145 196.482 224.386C196.257 224.626 196.139 224.971 196.127 225.422L196.118 225.765L196.127 226.107C196.139 226.558 196.257 226.904 196.482 227.144C196.706 227.385 197.009 227.505 197.391 227.505ZM200.887 228.109C200.826 228.109 200.775 228.091 200.732 228.055C200.696 228.012 200.677 227.962 200.677 227.901V223.628C200.677 223.568 200.696 223.52 200.732 223.484C200.775 223.442 200.826 223.421 200.887 223.421H201.314C201.375 223.421 201.423 223.442 201.46 223.484C201.502 223.52 201.523 223.568 201.523 223.628V224.025C201.7 223.802 201.906 223.631 202.142 223.511C202.385 223.391 202.685 223.331 203.043 223.331C203.625 223.331 204.077 223.517 204.398 223.89C204.726 224.256 204.89 224.746 204.89 225.359V227.901C204.89 227.962 204.869 228.012 204.826 228.055C204.79 228.091 204.741 228.109 204.68 228.109H204.226C204.165 228.109 204.113 228.091 204.071 228.055C204.034 228.012 204.016 227.962 204.016 227.901V225.404C204.016 224.978 203.91 224.647 203.698 224.413C203.492 224.178 203.192 224.061 202.797 224.061C202.415 224.061 202.112 224.181 201.887 224.422C201.663 224.656 201.551 224.983 201.551 225.404V227.901C201.551 227.962 201.53 228.012 201.487 228.055C201.451 228.091 201.402 228.109 201.342 228.109H200.887ZM208.087 228.199C207.463 228.199 206.962 228.009 206.586 227.631C206.216 227.246 206.013 226.723 205.976 226.062L205.967 225.756L205.976 225.458C206.019 224.809 206.225 224.293 206.595 223.908C206.971 223.523 207.466 223.331 208.078 223.331C208.751 223.331 209.273 223.544 209.643 223.971C210.013 224.392 210.198 224.962 210.198 225.684V225.837C210.198 225.897 210.177 225.948 210.134 225.99C210.098 226.026 210.049 226.044 209.989 226.044H206.841V226.125C206.859 226.516 206.977 226.849 207.196 227.126C207.42 227.396 207.714 227.532 208.078 227.532C208.357 227.532 208.585 227.478 208.76 227.369C208.942 227.255 209.076 227.138 209.161 227.018C209.215 226.946 209.255 226.904 209.279 226.892C209.31 226.874 209.361 226.865 209.434 226.865H209.879C209.934 226.865 209.979 226.88 210.016 226.91C210.052 226.94 210.07 226.982 210.07 227.036C210.07 227.168 209.986 227.327 209.816 227.514C209.652 227.7 209.419 227.862 209.115 228C208.818 228.133 208.475 228.199 208.087 228.199ZM209.334 225.422V225.395C209.334 224.981 209.219 224.644 208.988 224.386C208.764 224.121 208.46 223.989 208.078 223.989C207.696 223.989 207.393 224.121 207.168 224.386C206.95 224.644 206.841 224.981 206.841 225.395V225.422H209.334ZM211.513 226.612C211.453 226.612 211.401 226.594 211.359 226.558C211.322 226.516 211.304 226.465 211.304 226.405V222.006C211.304 221.945 211.322 221.897 211.359 221.861C211.401 221.819 211.453 221.798 211.513 221.798H211.941C212.001 221.798 212.05 221.819 212.086 221.861C212.129 221.897 212.15 221.945 212.15 222.006V226.405C212.15 226.465 212.129 226.516 212.086 226.558C212.05 226.594 212.001 226.612 211.941 226.612H211.513ZM211.431 228.109C211.371 228.109 211.319 228.091 211.277 228.055C211.24 228.012 211.222 227.962 211.222 227.901V227.333C211.222 227.273 211.24 227.222 211.277 227.18C211.319 227.138 211.371 227.117 211.431 227.117H212.014C212.074 227.117 212.123 227.138 212.159 227.18C212.201 227.222 212.223 227.273 212.223 227.333V227.901C212.223 227.962 212.201 228.012 212.159 228.055C212.123 228.091 212.074 228.109 212.014 228.109H211.431ZM63.5338 243.27C63.473 243.27 63.4214 243.252 63.3792 243.216C63.3428 243.174 63.3246 243.123 63.3246 243.063V237.176C63.3246 237.11 63.3428 237.059 63.3792 237.023C63.4214 236.981 63.473 236.96 63.5338 236.96H65.599C66.5146 236.96 67.1759 237.164 67.5824 237.573C67.9885 237.975 68.201 238.585 68.2192 239.403C68.225 239.577 68.2283 239.811 68.2283 240.106C68.2283 240.4 68.225 240.638 68.2192 240.818C68.201 241.389 68.1038 241.855 67.9281 242.215C67.7581 242.57 67.4881 242.834 67.1184 243.009C66.7483 243.183 66.257 243.27 65.6445 243.27H63.5338ZM65.599 242.504C66.0175 242.504 66.348 242.447 66.5907 242.332C66.8392 242.218 67.0183 242.038 67.1275 241.792C67.2424 241.539 67.3061 241.203 67.3185 240.782C67.3305 240.421 67.3367 240.196 67.3367 240.106C67.3367 240.01 67.3305 239.787 67.3185 239.439C67.3061 238.844 67.1639 238.411 66.8909 238.141C66.618 237.864 66.1722 237.726 65.5536 237.726H64.2162V242.504H65.599ZM69.6153 237.708C69.5545 237.708 69.5028 237.69 69.4607 237.654C69.4243 237.612 69.4061 237.561 69.4061 237.5V237.014C69.4061 236.953 69.4243 236.903 69.4607 236.86C69.5028 236.818 69.5545 236.797 69.6153 236.797H70.1885C70.2489 236.797 70.3006 236.818 70.3431 236.86C70.3853 236.903 70.4068 236.953 70.4068 237.014V237.5C70.4068 237.561 70.3853 237.612 70.3431 237.654C70.3006 237.69 70.2489 237.708 70.1885 237.708H69.6153ZM69.6881 243.27C69.6273 243.27 69.5756 243.252 69.5334 243.216C69.497 243.174 69.4789 243.123 69.4789 243.063V238.79C69.4789 238.729 69.497 238.681 69.5334 238.645C69.5756 238.603 69.6273 238.582 69.6881 238.582H70.1248C70.1852 238.582 70.234 238.603 70.2704 238.645C70.3125 238.681 70.334 238.729 70.334 238.79V243.063C70.334 243.123 70.3125 243.174 70.2704 243.216C70.234 243.252 70.1852 243.27 70.1248 243.27H69.6881ZM73.3289 243.27C73.1709 243.27 73.0588 243.195 72.9923 243.045L71.3092 238.862L71.291 238.772C71.291 238.717 71.3092 238.672 71.3456 238.636C71.3819 238.6 71.4274 238.582 71.482 238.582H71.9187C72.0217 238.582 72.0974 238.634 72.1462 238.736L73.529 242.287L74.9119 238.736C74.9665 238.634 75.0393 238.582 75.1303 238.582H75.576C75.6244 238.582 75.667 238.6 75.7034 238.636C75.7456 238.672 75.7671 238.717 75.7671 238.772L75.7489 238.862L74.0567 243.045C73.9897 243.195 73.8777 243.27 73.7201 243.27H73.3289ZM78.4431 243.36C77.8187 243.36 77.3183 243.171 76.942 242.792C76.5723 242.407 76.3688 241.885 76.3324 241.224L76.3233 240.917L76.3324 240.62C76.375 239.971 76.5814 239.454 76.9511 239.069C77.3274 238.684 77.8216 238.492 78.434 238.492C79.1072 238.492 79.6291 238.706 79.9988 239.132C80.3689 239.553 80.5538 240.124 80.5538 240.845V240.998C80.5538 241.058 80.5327 241.109 80.4901 241.152C80.4537 241.188 80.4053 241.206 80.3446 241.206H77.1967V241.287C77.2149 241.677 77.3332 242.011 77.5515 242.287C77.7761 242.558 78.0701 242.693 78.434 242.693C78.7131 242.693 78.9406 242.639 79.1163 242.531C79.2983 242.416 79.4319 242.299 79.5166 242.179C79.5712 242.107 79.6109 242.065 79.6349 242.053C79.6655 242.035 79.7168 242.026 79.7896 242.026H80.2354C80.29 242.026 80.3355 242.041 80.3718 242.071C80.4082 242.101 80.4264 242.143 80.4264 242.197C80.4264 242.33 80.3417 242.489 80.1717 242.675C80.0079 242.861 79.7747 243.024 79.4712 243.162C79.1742 243.294 78.8314 243.36 78.4431 243.36ZM79.6895 240.584V240.557C79.6895 240.142 79.5745 239.805 79.3438 239.547C79.1197 239.283 78.8161 239.15 78.434 239.15C78.0519 239.15 77.7488 239.283 77.5242 239.547C77.3059 239.805 77.1967 240.142 77.1967 240.557V240.584H79.6895ZM84.0081 237.708C83.9477 237.708 83.896 237.69 83.8534 237.654C83.817 237.612 83.7988 237.561 83.7988 237.5V237.014C83.7988 236.953 83.817 236.903 83.8534 236.86C83.896 236.818 83.9477 236.797 84.0081 236.797H84.5812C84.642 236.797 84.6937 236.818 84.7359 236.86C84.7785 236.903 84.7996 236.953 84.7996 237.014V237.5C84.7996 237.561 84.7785 237.612 84.7359 237.654C84.6937 237.69 84.642 237.708 84.5812 237.708H84.0081ZM84.0809 243.27C84.0205 243.27 83.9688 243.252 83.9262 243.216C83.8898 243.174 83.8716 243.123 83.8716 243.063V238.79C83.8716 238.729 83.8898 238.681 83.9262 238.645C83.9688 238.603 84.0205 238.582 84.0809 238.582H84.5176C84.5784 238.582 84.6267 238.603 84.6631 238.645C84.7057 238.681 84.7268 238.729 84.7268 238.79V243.063C84.7268 243.123 84.7057 243.174 84.6631 243.216C84.6267 243.252 84.5784 243.27 84.5176 243.27H84.0809ZM86.2842 243.27C86.2238 243.27 86.1721 243.252 86.1295 243.216C86.0931 243.174 86.0749 243.123 86.0749 243.063V238.79C86.0749 238.729 86.0931 238.681 86.1295 238.645C86.1721 238.603 86.2238 238.582 86.2842 238.582H86.7118C86.7726 238.582 86.821 238.603 86.8574 238.645C86.8999 238.681 86.921 238.729 86.921 238.79V239.186C87.0972 238.964 87.3031 238.793 87.5397 238.672C87.7824 238.552 88.0827 238.492 88.4404 238.492C89.0226 238.492 89.4746 238.679 89.796 239.051C90.1235 239.418 90.2872 239.907 90.2872 240.52V243.063C90.2872 243.123 90.2661 243.174 90.2236 243.216C90.1872 243.252 90.1388 243.27 90.078 243.27H89.6231C89.5627 243.27 89.511 243.252 89.4684 243.216C89.432 243.174 89.4138 243.123 89.4138 243.063V240.566C89.4138 240.139 89.308 239.808 89.0954 239.574C88.8895 239.34 88.5893 239.222 88.1947 239.222C87.8126 239.222 87.5095 239.342 87.2849 239.583C87.0608 239.817 86.9483 240.145 86.9483 240.566V243.063C86.9483 243.123 86.9272 243.174 86.8846 243.216C86.8483 243.252 86.7999 243.27 86.7391 243.27H86.2842ZM93.3772 243.27C92.419 243.27 91.9397 242.741 91.9397 241.683V239.303H91.2301C91.1693 239.303 91.118 239.285 91.0754 239.249C91.039 239.207 91.0208 239.156 91.0208 239.096V238.79C91.0208 238.729 91.039 238.681 91.0754 238.645C91.118 238.603 91.1693 238.582 91.2301 238.582H91.9397V237.077C91.9397 237.017 91.9579 236.969 91.9943 236.933C92.0369 236.89 92.0882 236.869 92.149 236.869H92.5766C92.6374 236.869 92.6858 236.89 92.7221 236.933C92.7647 236.969 92.7858 237.017 92.7858 237.077V238.582H93.914C93.9747 238.582 94.0231 238.603 94.0595 238.645C94.1021 238.681 94.1232 238.729 94.1232 238.79V239.096C94.1232 239.156 94.1021 239.207 94.0595 239.249C94.0231 239.285 93.9747 239.303 93.914 239.303H92.7858V241.62C92.7858 241.921 92.8375 242.149 92.9405 242.305C93.0435 242.456 93.2134 242.531 93.45 242.531H94.0049C94.0657 242.531 94.1141 242.552 94.1505 242.594C94.1931 242.63 94.2142 242.678 94.2142 242.738V243.063C94.2142 243.123 94.1931 243.174 94.1505 243.216C94.1141 243.252 94.0657 243.27 94.0049 243.27H93.3772ZM97.0221 243.36C96.3547 243.36 95.8361 243.174 95.4664 242.801C95.1025 242.429 94.9081 241.933 94.8841 241.314L94.875 240.926L94.8841 240.539C94.9081 239.925 95.1054 239.433 95.4755 239.06C95.8452 238.681 96.3609 238.492 97.0221 238.492C97.6829 238.492 98.1986 238.681 98.5687 239.06C98.9384 239.433 99.1357 239.925 99.1601 240.539C99.1659 240.604 99.1692 240.734 99.1692 240.926C99.1692 241.118 99.1659 241.248 99.1601 241.314C99.1357 241.933 98.9384 242.429 98.5687 242.801C98.2048 243.174 97.6891 243.36 97.0221 243.36ZM97.0221 242.666C97.4042 242.666 97.7044 242.546 97.9228 242.305C98.1469 242.065 98.2685 241.719 98.2867 241.269C98.2925 241.208 98.2958 241.095 98.2958 240.926C98.2958 240.758 98.2925 240.644 98.2867 240.584C98.2685 240.133 98.1469 239.787 97.9228 239.547C97.7044 239.306 97.4042 239.186 97.0221 239.186C96.64 239.186 96.3365 239.306 96.1123 239.547C95.8878 239.787 95.7695 240.133 95.7575 240.584L95.7484 240.926L95.7575 241.269C95.7695 241.719 95.8878 242.065 96.1123 242.305C96.3365 242.546 96.64 242.666 97.0221 242.666ZM104.19 243.27C103.231 243.27 102.752 242.741 102.752 241.683V239.303H102.042C101.982 239.303 101.93 239.285 101.888 239.249C101.851 239.207 101.833 239.156 101.833 239.096V238.79C101.833 238.729 101.851 238.681 101.888 238.645C101.93 238.603 101.982 238.582 102.042 238.582H102.752V237.077C102.752 237.017 102.77 236.969 102.807 236.933C102.849 236.89 102.901 236.869 102.961 236.869H103.389C103.45 236.869 103.498 236.89 103.534 236.933C103.577 236.969 103.598 237.017 103.598 237.077V238.582H104.726C104.787 238.582 104.835 238.603 104.872 238.645C104.914 238.681 104.936 238.729 104.936 238.79V239.096C104.936 239.156 104.914 239.207 104.872 239.249C104.835 239.285 104.787 239.303 104.726 239.303H103.598V241.62C103.598 241.921 103.65 242.149 103.753 242.305C103.856 242.456 104.026 242.531 104.262 242.531H104.817C104.878 242.531 104.926 242.552 104.963 242.594C105.005 242.63 105.027 242.678 105.027 242.738V243.063C105.027 243.123 105.005 243.174 104.963 243.216C104.926 243.252 104.878 243.27 104.817 243.27H104.19ZM106.115 243.27C106.054 243.27 106.003 243.252 105.96 243.216C105.924 243.174 105.906 243.123 105.906 243.063V237.077C105.906 237.017 105.924 236.969 105.96 236.933C106.003 236.89 106.054 236.869 106.115 236.869H106.57C106.631 236.869 106.679 236.89 106.715 236.933C106.758 236.969 106.779 237.017 106.779 237.077V239.177C106.955 238.955 107.161 238.787 107.398 238.672C107.634 238.552 107.928 238.492 108.28 238.492C108.863 238.492 109.315 238.679 109.636 239.051C109.963 239.418 110.127 239.907 110.127 240.52V243.063C110.127 243.123 110.106 243.174 110.063 243.216C110.027 243.252 109.979 243.27 109.918 243.27H109.463C109.402 243.27 109.351 243.252 109.308 243.216C109.272 243.174 109.254 243.123 109.254 243.063V240.566C109.254 240.139 109.147 239.808 108.935 239.574C108.729 239.34 108.429 239.222 108.035 239.222C107.653 239.222 107.346 239.342 107.116 239.583C106.891 239.817 106.779 240.145 106.779 240.566V243.063C106.779 243.123 106.758 243.174 106.715 243.216C106.679 243.252 106.631 243.27 106.57 243.27H106.115ZM113.333 243.36C112.708 243.36 112.208 243.171 111.832 242.792C111.462 242.407 111.259 241.885 111.222 241.224L111.213 240.917L111.222 240.62C111.265 239.971 111.471 239.454 111.841 239.069C112.217 238.684 112.711 238.492 113.324 238.492C113.997 238.492 114.519 238.706 114.889 239.132C115.259 239.553 115.444 240.124 115.444 240.845V240.998C115.444 241.058 115.422 241.109 115.38 241.152C115.343 241.188 115.295 241.206 115.234 241.206H112.086V241.287C112.105 241.677 112.223 242.011 112.441 242.287C112.666 242.558 112.96 242.693 113.324 242.693C113.603 242.693 113.83 242.639 114.006 242.531C114.188 242.416 114.322 242.299 114.406 242.179C114.461 242.107 114.501 242.065 114.525 242.053C114.555 242.035 114.607 242.026 114.679 242.026H115.125C115.18 242.026 115.225 242.041 115.262 242.071C115.298 242.101 115.316 242.143 115.316 242.197C115.316 242.33 115.231 242.489 115.061 242.675C114.898 242.861 114.664 243.024 114.361 243.162C114.064 243.294 113.721 243.36 113.333 243.36ZM114.579 240.584V240.557C114.579 240.142 114.464 239.805 114.234 239.547C114.009 239.283 113.706 239.15 113.324 239.15C112.942 239.15 112.639 239.283 112.414 239.547C112.196 239.805 112.086 240.142 112.086 240.557V240.584H114.579ZM120.7 245.253C120.202 245.253 119.802 245.169 119.499 245.001C119.195 244.839 118.98 244.652 118.853 244.442C118.725 244.232 118.656 244.042 118.644 243.874C118.637 243.814 118.655 243.763 118.698 243.721C118.746 243.679 118.798 243.658 118.853 243.658H119.289C119.344 243.658 119.39 243.67 119.426 243.694C119.462 243.724 119.493 243.775 119.517 243.847C119.59 244.039 119.708 244.205 119.872 244.343C120.041 244.487 120.302 244.559 120.654 244.559C121.103 244.559 121.433 244.463 121.646 244.271C121.858 244.084 121.964 243.751 121.964 243.27V242.657C121.806 242.855 121.606 243.015 121.364 243.135C121.121 243.249 120.833 243.306 120.499 243.306C119.856 243.306 119.374 243.105 119.053 242.702C118.737 242.294 118.571 241.776 118.553 241.152L118.543 240.899L118.553 240.656C118.571 240.037 118.74 239.523 119.062 239.114C119.383 238.699 119.863 238.492 120.499 238.492C121.136 238.492 121.633 238.724 121.992 239.186V238.799C121.992 238.738 122.01 238.688 122.046 238.645C122.088 238.603 122.14 238.582 122.201 238.582H122.619C122.68 238.582 122.731 238.603 122.774 238.645C122.816 238.688 122.838 238.738 122.838 238.799V243.171C122.838 244.559 122.125 245.253 120.7 245.253ZM120.681 242.585C121.094 242.585 121.406 242.45 121.618 242.179C121.831 241.909 121.946 241.587 121.964 241.215C121.97 241.161 121.973 241.055 121.973 240.899C121.973 240.749 121.97 240.647 121.964 240.593C121.946 240.22 121.831 239.898 121.618 239.628C121.412 239.358 121.1 239.222 120.681 239.222C120.251 239.222 119.938 239.355 119.744 239.619C119.55 239.883 119.444 240.232 119.426 240.665L119.417 240.899L119.426 241.142C119.444 241.569 119.55 241.918 119.744 242.188C119.938 242.453 120.251 242.585 120.681 242.585ZM125.509 243.36C125.212 243.36 124.936 243.3 124.681 243.18C124.426 243.06 124.223 242.898 124.072 242.693C123.926 242.483 123.853 242.251 123.853 241.999C123.853 241.602 124.017 241.278 124.345 241.025C124.678 240.767 125.127 240.599 125.691 240.52L127.047 240.331V240.07C127.047 239.457 126.692 239.15 125.982 239.15C125.715 239.15 125.497 239.207 125.327 239.322C125.158 239.43 125.03 239.559 124.945 239.709C124.927 239.763 124.903 239.802 124.872 239.826C124.848 239.851 124.812 239.862 124.763 239.862H124.372C124.317 239.862 124.269 239.844 124.226 239.808C124.19 239.766 124.172 239.718 124.172 239.664C124.178 239.52 124.244 239.358 124.372 239.177C124.505 238.991 124.708 238.832 124.981 238.699C125.254 238.561 125.591 238.492 125.991 238.492C126.671 238.492 127.159 238.652 127.456 238.97C127.753 239.283 127.902 239.673 127.902 240.142V243.063C127.902 243.123 127.881 243.174 127.838 243.216C127.802 243.252 127.753 243.27 127.693 243.27H127.274C127.214 243.27 127.162 243.252 127.119 243.216C127.083 243.174 127.065 243.123 127.065 243.063V242.675C126.932 242.867 126.737 243.029 126.483 243.162C126.228 243.294 125.904 243.36 125.509 243.36ZM125.7 242.684C126.095 242.684 126.416 242.558 126.664 242.305C126.919 242.047 127.047 241.677 127.047 241.197V240.944L125.991 241.097C125.561 241.158 125.236 241.26 125.018 241.404C124.799 241.542 124.69 241.719 124.69 241.936C124.69 242.176 124.79 242.362 124.99 242.495C125.191 242.621 125.427 242.684 125.7 242.684ZM129.419 243.27C129.358 243.27 129.307 243.252 129.264 243.216C129.228 243.174 129.21 243.123 129.21 243.063V238.79C129.21 238.729 129.228 238.681 129.264 238.645C129.307 238.603 129.358 238.582 129.419 238.582H129.828C129.889 238.582 129.938 238.603 129.974 238.645C130.017 238.681 130.038 238.729 130.038 238.79V239.105C130.353 238.697 130.793 238.492 131.357 238.492C132.03 238.492 132.506 238.769 132.785 239.322C132.931 239.069 133.137 238.868 133.404 238.718C133.671 238.567 133.971 238.492 134.305 238.492C134.802 238.492 135.208 238.661 135.524 238.997C135.839 239.333 135.997 239.82 135.997 240.457V243.063C135.997 243.123 135.976 243.174 135.933 243.216C135.897 243.252 135.848 243.27 135.788 243.27H135.36C135.299 243.27 135.248 243.252 135.205 243.216C135.169 243.174 135.151 243.123 135.151 243.063V240.539C135.151 240.07 135.051 239.733 134.85 239.529C134.657 239.324 134.398 239.222 134.077 239.222C133.792 239.222 133.547 239.328 133.34 239.538C133.134 239.742 133.031 240.076 133.031 240.539V243.063C133.031 243.123 133.01 243.174 132.967 243.216C132.931 243.252 132.882 243.27 132.822 243.27H132.394C132.333 243.27 132.282 243.252 132.239 243.216C132.203 243.174 132.185 243.123 132.185 243.063V240.539C132.185 240.07 132.082 239.733 131.875 239.529C131.675 239.324 131.421 239.222 131.111 239.222C130.826 239.222 130.581 239.328 130.374 239.538C130.168 239.742 130.065 240.073 130.065 240.529V243.063C130.065 243.123 130.044 243.174 130.001 243.216C129.965 243.252 129.917 243.27 129.856 243.27H129.419ZM139.187 243.36C138.562 243.36 138.062 243.171 137.686 242.792C137.316 242.407 137.113 241.885 137.077 241.224L137.067 240.917L137.077 240.62C137.119 239.971 137.325 239.454 137.695 239.069C138.071 238.684 138.566 238.492 139.178 238.492C139.851 238.492 140.373 238.706 140.743 239.132C141.113 239.553 141.298 240.124 141.298 240.845V240.998C141.298 241.058 141.277 241.109 141.234 241.152C141.198 241.188 141.149 241.206 141.089 241.206H137.941V241.287C137.959 241.677 138.077 242.011 138.296 242.287C138.52 242.558 138.814 242.693 139.178 242.693C139.457 242.693 139.685 242.639 139.86 242.531C140.042 242.416 140.176 242.299 140.261 242.179C140.315 242.107 140.355 242.065 140.379 242.053C140.409 242.035 140.461 242.026 140.534 242.026H140.979C141.034 242.026 141.08 242.041 141.116 242.071C141.152 242.101 141.171 242.143 141.171 242.197C141.171 242.33 141.086 242.489 140.916 242.675C140.752 242.861 140.518 243.024 140.215 243.162C139.918 243.294 139.576 243.36 139.187 243.36ZM140.434 240.584V240.557C140.434 240.142 140.318 239.805 140.088 239.547C139.863 239.283 139.56 239.15 139.178 239.15C138.796 239.15 138.493 239.283 138.268 239.547C138.05 239.805 137.941 240.142 137.941 240.557V240.584H140.434ZM146.344 243.36C145.714 243.36 145.237 243.156 144.916 242.747C144.595 242.339 144.425 241.821 144.406 241.197L144.397 240.926L144.406 240.656C144.425 240.037 144.595 239.523 144.916 239.114C145.237 238.699 145.714 238.492 146.344 238.492C146.969 238.492 147.46 238.711 147.818 239.15V237.077C147.818 237.017 147.836 236.969 147.873 236.933C147.915 236.89 147.967 236.869 148.027 236.869H148.464C148.525 236.869 148.573 236.89 148.61 236.933C148.652 236.969 148.673 237.017 148.673 237.077V243.063C148.673 243.123 148.652 243.174 148.61 243.216C148.573 243.252 148.525 243.27 148.464 243.27H148.055C147.994 243.27 147.943 243.252 147.9 243.216C147.864 243.174 147.845 243.123 147.845 243.063V242.684C147.494 243.135 146.993 243.36 146.344 243.36ZM146.535 242.63C146.954 242.63 147.266 242.495 147.472 242.224C147.685 241.948 147.8 241.62 147.818 241.242C147.824 241.176 147.827 241.061 147.827 240.899C147.827 240.731 147.824 240.614 147.818 240.548C147.806 240.193 147.691 239.883 147.472 239.619C147.254 239.355 146.942 239.222 146.535 239.222C146.105 239.222 145.789 239.355 145.589 239.619C145.395 239.883 145.289 240.232 145.271 240.665L145.262 240.926C145.262 242.062 145.686 242.63 146.535 242.63ZM150.163 237.708C150.102 237.708 150.051 237.69 150.008 237.654C149.972 237.612 149.954 237.561 149.954 237.5V237.014C149.954 236.953 149.972 236.903 150.008 236.86C150.051 236.818 150.102 236.797 150.163 236.797H150.736C150.797 236.797 150.848 236.818 150.891 236.86C150.933 236.903 150.954 236.953 150.954 237.014V237.5C150.954 237.561 150.933 237.612 150.891 237.654C150.848 237.69 150.797 237.708 150.736 237.708H150.163ZM150.236 243.27C150.175 243.27 150.124 243.252 150.081 243.216C150.045 243.174 150.026 243.123 150.026 243.063V238.79C150.026 238.729 150.045 238.681 150.081 238.645C150.124 238.603 150.175 238.582 150.236 238.582H150.672C150.733 238.582 150.782 238.603 150.818 238.645C150.861 238.681 150.882 238.729 150.882 238.79V243.063C150.882 243.123 150.861 243.174 150.818 243.216C150.782 243.252 150.733 243.27 150.672 243.27H150.236ZM152.439 243.27C152.378 243.27 152.327 243.252 152.284 243.216C152.248 243.174 152.23 243.123 152.23 243.063V238.799C152.23 238.738 152.248 238.688 152.284 238.645C152.327 238.603 152.378 238.582 152.439 238.582H152.858C152.918 238.582 152.97 238.603 153.012 238.645C153.055 238.688 153.076 238.738 153.076 238.799V239.195C153.324 238.787 153.749 238.582 154.35 238.582H154.704C154.765 238.582 154.814 238.603 154.85 238.645C154.893 238.681 154.914 238.729 154.914 238.79V239.159C154.914 239.219 154.893 239.267 154.85 239.303C154.814 239.34 154.765 239.358 154.704 239.358H154.159C153.831 239.358 153.573 239.454 153.385 239.646C153.197 239.832 153.103 240.088 153.103 240.412V243.063C153.103 243.123 153.082 243.174 153.039 243.216C152.997 243.252 152.946 243.27 152.885 243.27H152.439ZM157.49 243.36C156.865 243.36 156.364 243.171 155.988 242.792C155.618 242.407 155.415 241.885 155.379 241.224L155.37 240.917L155.379 240.62C155.421 239.971 155.627 239.454 155.998 239.069C156.373 238.684 156.868 238.492 157.48 238.492C158.154 238.492 158.675 238.706 159.045 239.132C159.415 239.553 159.6 240.124 159.6 240.845V240.998C159.6 241.058 159.579 241.109 159.537 241.152C159.5 241.188 159.451 241.206 159.391 241.206H156.243V241.287C156.261 241.677 156.38 242.011 156.598 242.287C156.822 242.558 157.117 242.693 157.48 242.693C157.759 242.693 157.987 242.639 158.163 242.531C158.345 242.416 158.478 242.299 158.563 242.179C158.618 242.107 158.657 242.065 158.681 242.053C158.712 242.035 158.763 242.026 158.836 242.026H159.282C159.336 242.026 159.382 242.041 159.418 242.071C159.455 242.101 159.473 242.143 159.473 242.197C159.473 242.33 159.388 242.489 159.218 242.675C159.054 242.861 158.821 243.024 158.518 243.162C158.22 243.294 157.877 243.36 157.49 243.36ZM158.736 240.584V240.557C158.736 240.142 158.621 239.805 158.39 239.547C158.166 239.283 157.863 239.15 157.48 239.15C157.098 239.15 156.795 239.283 156.571 239.547C156.352 239.805 156.243 240.142 156.243 240.557V240.584H158.736ZM162.598 243.36C161.95 243.36 161.44 243.18 161.07 242.819C160.706 242.453 160.512 241.942 160.488 241.287L160.479 240.926L160.488 240.566C160.512 239.91 160.706 239.403 161.07 239.042C161.44 238.675 161.95 238.492 162.598 238.492C163.035 238.492 163.405 238.57 163.708 238.727C164.012 238.883 164.236 239.075 164.382 239.303C164.533 239.532 164.615 239.76 164.627 239.989C164.633 240.049 164.615 240.097 164.573 240.133C164.53 240.169 164.479 240.187 164.418 240.187H163.981C163.921 240.187 163.875 240.175 163.845 240.151C163.815 240.127 163.784 240.079 163.754 240.007C163.651 239.718 163.505 239.514 163.317 239.394C163.129 239.267 162.893 239.204 162.608 239.204C162.232 239.204 161.931 239.321 161.707 239.556C161.488 239.784 161.37 240.136 161.352 240.611L161.343 240.935L161.352 241.242C161.37 241.722 161.488 242.077 161.707 242.305C161.925 242.534 162.225 242.648 162.608 242.648C162.893 242.648 163.129 242.588 163.317 242.468C163.505 242.341 163.651 242.134 163.754 241.846C163.784 241.774 163.815 241.726 163.845 241.701C163.875 241.672 163.921 241.656 163.981 241.656H164.418C164.479 241.656 164.53 241.677 164.573 241.719C164.615 241.756 164.633 241.803 164.627 241.864C164.615 242.086 164.533 242.314 164.382 242.549C164.236 242.777 164.012 242.97 163.708 243.126C163.411 243.282 163.041 243.36 162.598 243.36ZM167.555 243.27C166.596 243.27 166.117 242.741 166.117 241.683V239.303H165.408C165.347 239.303 165.296 239.285 165.253 239.249C165.217 239.207 165.198 239.156 165.198 239.096V238.79C165.198 238.729 165.217 238.681 165.253 238.645C165.296 238.603 165.347 238.582 165.408 238.582H166.117V237.077C166.117 237.017 166.135 236.969 166.172 236.933C166.214 236.89 166.266 236.869 166.326 236.869H166.754C166.815 236.869 166.863 236.89 166.9 236.933C166.942 236.969 166.963 237.017 166.963 237.077V238.582H168.091C168.152 238.582 168.201 238.603 168.237 238.645C168.28 238.681 168.301 238.729 168.301 238.79V239.096C168.301 239.156 168.28 239.207 168.237 239.249C168.201 239.285 168.152 239.303 168.091 239.303H166.963V241.62C166.963 241.921 167.015 242.149 167.118 242.305C167.221 242.456 167.391 242.531 167.627 242.531H168.182C168.243 242.531 168.292 242.552 168.328 242.594C168.371 242.63 168.392 242.678 168.392 242.738V243.063C168.392 243.123 168.371 243.174 168.328 243.216C168.292 243.252 168.243 243.27 168.182 243.27H167.555ZM169.48 243.27C169.419 243.27 169.368 243.252 169.325 243.216C169.289 243.174 169.271 243.123 169.271 243.063V237.077C169.271 237.017 169.289 236.969 169.325 236.933C169.368 236.89 169.419 236.869 169.48 236.869H169.908C169.968 236.869 170.017 236.89 170.053 236.933C170.095 236.969 170.117 237.017 170.117 237.077V243.063C170.117 243.123 170.095 243.174 170.053 243.216C170.017 243.252 169.968 243.27 169.908 243.27H169.48ZM172.302 244.983C172.253 244.983 172.211 244.965 172.174 244.929C172.138 244.893 172.12 244.85 172.12 244.803C172.12 244.76 172.135 244.706 172.165 244.64L172.866 242.991L171.128 238.925C171.098 238.847 171.083 238.796 171.083 238.772C171.083 238.717 171.101 238.672 171.137 238.636C171.174 238.6 171.219 238.582 171.274 238.582H171.719C171.817 238.582 171.889 238.634 171.938 238.736L173.321 242.017L174.74 238.736C174.789 238.634 174.864 238.582 174.967 238.582H175.395C175.45 238.582 175.495 238.6 175.531 238.636C175.568 238.672 175.586 238.715 175.586 238.763C175.586 238.781 175.571 238.835 175.54 238.925L172.957 244.83C172.908 244.932 172.833 244.983 172.729 244.983H172.302ZM178.997 243.27C178.937 243.27 178.885 243.252 178.843 243.216C178.806 243.174 178.788 243.123 178.788 243.063V239.303H178.015C177.954 239.303 177.903 239.285 177.86 239.249C177.824 239.207 177.805 239.156 177.805 239.096V238.79C177.805 238.729 177.824 238.681 177.86 238.645C177.903 238.603 177.954 238.582 178.015 238.582H178.788V238.132C178.788 237.11 179.31 236.599 180.353 236.599H180.899C180.959 236.599 181.008 236.62 181.044 236.662C181.087 236.698 181.108 236.746 181.108 236.806V237.113C181.108 237.173 181.087 237.224 181.044 237.266C181.008 237.302 180.959 237.32 180.899 237.32H180.371C180.098 237.32 179.907 237.392 179.798 237.537C179.689 237.675 179.634 237.888 179.634 238.177V238.582H180.808C180.869 238.582 180.917 238.603 180.953 238.645C180.996 238.681 181.017 238.729 181.017 238.79V239.096C181.017 239.156 180.996 239.207 180.953 239.249C180.917 239.285 180.869 239.303 180.808 239.303H179.634V243.063C179.634 243.123 179.613 243.174 179.57 243.216C179.534 243.252 179.486 243.27 179.425 243.27H178.997ZM182.025 243.27C181.964 243.27 181.913 243.252 181.87 243.216C181.834 243.174 181.815 243.123 181.815 243.063V238.799C181.815 238.738 181.834 238.688 181.87 238.645C181.913 238.603 181.964 238.582 182.025 238.582H182.443C182.504 238.582 182.555 238.603 182.598 238.645C182.641 238.688 182.662 238.738 182.662 238.799V239.195C182.91 238.787 183.335 238.582 183.935 238.582H184.29C184.351 238.582 184.399 238.603 184.436 238.645C184.478 238.681 184.499 238.729 184.499 238.79V239.159C184.499 239.219 184.478 239.267 184.436 239.303C184.399 239.34 184.351 239.358 184.29 239.358H183.744C183.417 239.358 183.159 239.454 182.971 239.646C182.783 239.832 182.689 240.088 182.689 240.412V243.063C182.689 243.123 182.668 243.174 182.625 243.216C182.583 243.252 182.531 243.27 182.471 243.27H182.025ZM187.121 243.36C186.453 243.36 185.935 243.174 185.565 242.801C185.201 242.429 185.007 241.933 184.983 241.314L184.974 240.926L184.983 240.539C185.007 239.925 185.204 239.433 185.574 239.06C185.944 238.681 186.46 238.492 187.121 238.492C187.782 238.492 188.297 238.681 188.667 239.06C189.037 239.433 189.234 239.925 189.259 240.539C189.265 240.604 189.268 240.734 189.268 240.926C189.268 241.118 189.265 241.248 189.259 241.314C189.234 241.933 189.037 242.429 188.667 242.801C188.304 243.174 187.788 243.36 187.121 243.36ZM187.121 242.666C187.503 242.666 187.803 242.546 188.021 242.305C188.246 242.065 188.367 241.719 188.385 241.269C188.391 241.208 188.394 241.095 188.394 240.926C188.394 240.758 188.391 240.644 188.385 240.584C188.367 240.133 188.246 239.787 188.021 239.547C187.803 239.306 187.503 239.186 187.121 239.186C186.739 239.186 186.435 239.306 186.211 239.547C185.986 239.787 185.868 240.133 185.856 240.584L185.847 240.926L185.856 241.269C185.868 241.719 185.986 242.065 186.211 242.305C186.435 242.546 186.739 242.666 187.121 242.666ZM190.616 243.27C190.556 243.27 190.504 243.252 190.462 243.216C190.425 243.174 190.407 243.123 190.407 243.063V238.79C190.407 238.729 190.425 238.681 190.462 238.645C190.504 238.603 190.556 238.582 190.616 238.582H191.026C191.086 238.582 191.135 238.603 191.171 238.645C191.214 238.681 191.235 238.729 191.235 238.79V239.105C191.55 238.697 191.99 238.492 192.554 238.492C193.227 238.492 193.703 238.769 193.983 239.322C194.128 239.069 194.334 238.868 194.601 238.718C194.868 238.567 195.168 238.492 195.502 238.492C195.999 238.492 196.406 238.661 196.721 238.997C197.036 239.333 197.194 239.82 197.194 240.457V243.063C197.194 243.123 197.173 243.174 197.13 243.216C197.094 243.252 197.045 243.27 196.985 243.27H196.557C196.497 243.27 196.445 243.252 196.403 243.216C196.366 243.174 196.348 243.123 196.348 243.063V240.539C196.348 240.07 196.248 239.733 196.048 239.529C195.853 239.324 195.596 239.222 195.275 239.222C194.989 239.222 194.744 239.328 194.538 239.538C194.331 239.742 194.228 240.076 194.228 240.539V243.063C194.228 243.123 194.207 243.174 194.165 243.216C194.128 243.252 194.079 243.27 194.019 243.27H193.591C193.531 243.27 193.479 243.252 193.437 243.216C193.4 243.174 193.382 243.123 193.382 243.063V240.539C193.382 240.07 193.279 239.733 193.073 239.529C192.873 239.324 192.618 239.222 192.309 239.222C192.023 239.222 191.778 239.328 191.572 239.538C191.365 239.742 191.262 240.073 191.262 240.529V243.063C191.262 243.123 191.241 243.174 191.199 243.216C191.162 243.252 191.113 243.27 191.053 243.27H190.616ZM94.2729 260.144C94.2241 260.144 94.1819 260.126 94.1455 260.09C94.1091 260.054 94.091 260.012 94.091 259.964C94.091 259.922 94.1058 259.868 94.1364 259.802L94.837 258.152L93.0993 254.086C93.0687 254.008 93.0538 253.957 93.0538 253.933C93.0538 253.879 93.072 253.834 93.1084 253.798C93.1448 253.762 93.1903 253.744 93.2449 253.744H93.6907C93.7874 253.744 93.8602 253.795 93.909 253.897L95.2919 257.178L96.7111 253.897C96.7595 253.795 96.8352 253.744 96.9386 253.744H97.3662C97.4208 253.744 97.4662 253.762 97.5026 253.798C97.539 253.834 97.5572 253.876 97.5572 253.924C97.5572 253.942 97.5419 253.996 97.5117 254.086L94.928 259.991C94.8792 260.093 94.8035 260.144 94.7005 260.144H94.2729ZM100.243 258.521C99.5753 258.521 99.0567 258.335 98.687 257.963C98.3231 257.59 98.1287 257.094 98.1047 256.475L98.0956 256.088L98.1047 255.7C98.1287 255.087 98.326 254.594 98.6961 254.221C99.0658 253.843 99.5815 253.653 100.243 253.653C100.904 253.653 101.419 253.843 101.789 254.221C102.159 254.594 102.356 255.087 102.381 255.7C102.387 255.766 102.39 255.895 102.39 256.088C102.39 256.28 102.387 256.409 102.381 256.475C102.356 257.094 102.159 257.59 101.789 257.963C101.425 258.335 100.91 258.521 100.243 258.521ZM100.243 257.827C100.625 257.827 100.925 257.707 101.143 257.467C101.368 257.226 101.489 256.881 101.507 256.43C101.513 256.37 101.516 256.256 101.516 256.088C101.516 255.919 101.513 255.805 101.507 255.745C101.489 255.294 101.368 254.949 101.143 254.708C100.925 254.468 100.625 254.348 100.243 254.348C99.8606 254.348 99.5571 254.468 99.333 254.708C99.1084 254.949 98.9901 255.294 98.9781 255.745L98.969 256.088L98.9781 256.43C98.9901 256.881 99.1084 257.226 99.333 257.467C99.5571 257.707 99.8606 257.827 100.243 257.827ZM105.294 258.521C104.718 258.521 104.272 258.338 103.957 257.972C103.641 257.599 103.484 257.106 103.484 256.493V253.951C103.484 253.891 103.502 253.843 103.538 253.807C103.58 253.765 103.632 253.744 103.693 253.744H104.148C104.208 253.744 104.257 253.765 104.293 253.807C104.336 253.843 104.357 253.891 104.357 253.951V256.448C104.357 257.343 104.751 257.791 105.54 257.791C105.922 257.791 106.225 257.674 106.45 257.44C106.674 257.199 106.786 256.869 106.786 256.448V253.951C106.786 253.891 106.804 253.843 106.841 253.807C106.883 253.765 106.935 253.744 106.995 253.744H107.45C107.511 253.744 107.559 253.765 107.596 253.807C107.632 253.843 107.65 253.891 107.65 253.951V258.224C107.65 258.284 107.632 258.335 107.596 258.377C107.559 258.413 107.511 258.431 107.45 258.431H107.023C106.962 258.431 106.91 258.413 106.868 258.377C106.832 258.335 106.813 258.284 106.813 258.224V257.827C106.643 258.056 106.437 258.23 106.195 258.35C105.952 258.465 105.652 258.521 105.294 258.521ZM109.211 258.431C109.15 258.431 109.099 258.413 109.056 258.377C109.02 258.335 109.002 258.284 109.002 258.224V253.96C109.002 253.9 109.02 253.849 109.056 253.807C109.099 253.765 109.15 253.744 109.211 253.744H109.63C109.69 253.744 109.742 253.765 109.784 253.807C109.827 253.849 109.848 253.9 109.848 253.96V254.357C110.097 253.948 110.521 253.744 111.122 253.744H111.476C111.537 253.744 111.586 253.765 111.622 253.807C111.665 253.843 111.686 253.891 111.686 253.951V254.321C111.686 254.381 111.665 254.429 111.622 254.465C111.586 254.501 111.537 254.519 111.476 254.519H110.931C110.603 254.519 110.345 254.615 110.157 254.807C109.969 254.994 109.875 255.249 109.875 255.574V258.224C109.875 258.284 109.854 258.335 109.812 258.377C109.769 258.413 109.718 258.431 109.657 258.431H109.211ZM116.112 258.521C115.688 258.521 115.33 258.456 115.039 258.323C114.754 258.185 114.538 258.029 114.393 257.854C114.253 257.68 114.184 257.536 114.184 257.422C114.184 257.361 114.205 257.316 114.247 257.286C114.296 257.25 114.344 257.232 114.393 257.232H114.802C114.863 257.232 114.918 257.262 114.966 257.323C115.111 257.491 115.269 257.623 115.439 257.719C115.609 257.815 115.836 257.863 116.121 257.863C116.437 257.863 116.692 257.803 116.886 257.683C117.086 257.557 117.186 257.386 117.186 257.169C117.186 257.025 117.144 256.908 117.058 256.818C116.98 256.721 116.84 256.64 116.64 256.574C116.446 256.502 116.155 256.424 115.767 256.34C115.239 256.226 114.863 256.06 114.638 255.844C114.42 255.628 114.311 255.348 114.311 255.006C114.311 254.777 114.378 254.561 114.511 254.357C114.651 254.146 114.851 253.978 115.111 253.852C115.379 253.719 115.697 253.653 116.067 253.653C116.455 253.653 116.785 253.717 117.058 253.843C117.331 253.969 117.535 254.119 117.668 254.294C117.808 254.462 117.877 254.603 117.877 254.717C117.877 254.771 117.856 254.816 117.814 254.852C117.777 254.889 117.732 254.907 117.677 254.907H117.295C117.222 254.907 117.162 254.877 117.113 254.816C117.016 254.702 116.931 254.615 116.858 254.555C116.792 254.489 116.692 254.432 116.558 254.384C116.431 254.336 116.267 254.312 116.067 254.312C115.776 254.312 115.551 254.375 115.394 254.501C115.236 254.621 115.157 254.78 115.157 254.979C115.157 255.105 115.19 255.213 115.257 255.303C115.324 255.387 115.451 255.465 115.639 255.538C115.834 255.61 116.112 255.685 116.476 255.763C117.053 255.883 117.459 256.058 117.695 256.286C117.938 256.508 118.059 256.794 118.059 257.142C118.059 257.401 117.983 257.635 117.832 257.845C117.68 258.056 117.456 258.221 117.158 258.341C116.867 258.461 116.519 258.521 116.112 258.521ZM119.322 258.431C119.261 258.431 119.21 258.413 119.167 258.377C119.131 258.335 119.112 258.284 119.112 258.224V253.951C119.112 253.891 119.131 253.843 119.167 253.807C119.21 253.765 119.261 253.744 119.322 253.744H119.731C119.792 253.744 119.84 253.765 119.877 253.807C119.919 253.843 119.94 253.891 119.94 253.951V254.266C120.256 253.858 120.695 253.653 121.26 253.653C121.933 253.653 122.409 253.93 122.688 254.483C122.833 254.23 123.04 254.029 123.307 253.879C123.573 253.728 123.874 253.653 124.207 253.653C124.705 253.653 125.111 253.822 125.426 254.158C125.742 254.495 125.899 254.982 125.899 255.619V258.224C125.899 258.284 125.878 258.335 125.836 258.377C125.799 258.413 125.751 258.431 125.69 258.431H125.263C125.202 258.431 125.151 258.413 125.108 258.377C125.072 258.335 125.053 258.284 125.053 258.224V255.7C125.053 255.231 124.953 254.895 124.753 254.69C124.559 254.486 124.301 254.384 123.98 254.384C123.695 254.384 123.449 254.489 123.243 254.699C123.037 254.904 122.934 255.237 122.934 255.7V258.224C122.934 258.284 122.912 258.335 122.87 258.377C122.833 258.413 122.785 258.431 122.724 258.431H122.297C122.236 258.431 122.185 258.413 122.142 258.377C122.106 258.335 122.087 258.284 122.087 258.224V255.7C122.087 255.231 121.984 254.895 121.778 254.69C121.578 254.486 121.323 254.384 121.014 254.384C120.729 254.384 120.483 254.489 120.277 254.699C120.071 254.904 119.968 255.234 119.968 255.691V258.224C119.968 258.284 119.947 258.335 119.904 258.377C119.868 258.413 119.819 258.431 119.758 258.431H119.322ZM128.517 258.521C128.219 258.521 127.944 258.461 127.689 258.341C127.434 258.221 127.231 258.059 127.079 257.854C126.934 257.644 126.861 257.413 126.861 257.16C126.861 256.764 127.025 256.439 127.352 256.187C127.686 255.928 128.135 255.76 128.699 255.682L130.054 255.493V255.231C130.054 254.618 129.699 254.312 128.99 254.312C128.723 254.312 128.505 254.369 128.335 254.483C128.165 254.591 128.037 254.72 127.953 254.87C127.934 254.925 127.91 254.964 127.88 254.988C127.855 255.012 127.819 255.024 127.771 255.024H127.379C127.325 255.024 127.277 255.006 127.234 254.97C127.198 254.927 127.179 254.88 127.179 254.825C127.186 254.681 127.252 254.519 127.379 254.339C127.513 254.152 127.716 253.993 127.989 253.861C128.262 253.723 128.599 253.653 128.999 253.653C129.678 253.653 130.166 253.813 130.464 254.131C130.761 254.444 130.909 254.834 130.909 255.303V258.224C130.909 258.284 130.888 258.335 130.846 258.377C130.809 258.413 130.761 258.431 130.7 258.431H130.282C130.221 258.431 130.17 258.413 130.127 258.377C130.091 258.335 130.072 258.284 130.072 258.224V257.836C129.939 258.029 129.745 258.191 129.49 258.323C129.235 258.456 128.911 258.521 128.517 258.521ZM128.708 257.845C129.102 257.845 129.424 257.719 129.672 257.467C129.927 257.208 130.054 256.839 130.054 256.358V256.106L128.999 256.259C128.568 256.319 128.244 256.421 128.025 256.565C127.807 256.703 127.698 256.881 127.698 257.097C127.698 257.338 127.798 257.524 127.998 257.656C128.198 257.782 128.435 257.845 128.708 257.845ZM132.427 258.431C132.366 258.431 132.314 258.413 132.272 258.377C132.236 258.335 132.217 258.284 132.217 258.224V253.96C132.217 253.9 132.236 253.849 132.272 253.807C132.314 253.765 132.366 253.744 132.427 253.744H132.845C132.906 253.744 132.957 253.765 133 253.807C133.042 253.849 133.064 253.9 133.064 253.96V254.357C133.312 253.948 133.737 253.744 134.337 253.744H134.692C134.752 253.744 134.801 253.765 134.838 253.807C134.88 253.843 134.901 253.891 134.901 253.951V254.321C134.901 254.381 134.88 254.429 134.838 254.465C134.801 254.501 134.752 254.519 134.692 254.519H134.146C133.819 254.519 133.561 254.615 133.373 254.807C133.185 254.994 133.091 255.249 133.091 255.574V258.224C133.091 258.284 133.069 258.335 133.027 258.377C132.985 258.413 132.933 258.431 132.873 258.431H132.427ZM137.52 258.431C136.562 258.431 136.083 257.902 136.083 256.845V254.465H135.373C135.312 254.465 135.261 254.447 135.219 254.411C135.182 254.369 135.164 254.318 135.164 254.257V253.951C135.164 253.891 135.182 253.843 135.219 253.807C135.261 253.765 135.312 253.744 135.373 253.744H136.083V252.238C136.083 252.178 136.101 252.13 136.137 252.094C136.18 252.052 136.231 252.031 136.292 252.031H136.72C136.78 252.031 136.829 252.052 136.865 252.094C136.908 252.13 136.929 252.178 136.929 252.238V253.744H138.057C138.118 253.744 138.166 253.765 138.203 253.807C138.245 253.843 138.266 253.891 138.266 253.951V254.257C138.266 254.318 138.245 254.369 138.203 254.411C138.166 254.447 138.118 254.465 138.057 254.465H136.929V256.782C136.929 257.082 136.981 257.311 137.084 257.467C137.187 257.617 137.356 257.692 137.593 257.692H138.148C138.209 257.692 138.257 257.713 138.294 257.755C138.336 257.791 138.357 257.839 138.357 257.899V258.224C138.357 258.284 138.336 258.335 138.294 258.377C138.257 258.413 138.209 258.431 138.148 258.431H137.52ZM139.446 260.144C139.385 260.144 139.333 260.123 139.291 260.081C139.255 260.045 139.236 259.997 139.236 259.937V253.951C139.236 253.891 139.255 253.843 139.291 253.807C139.333 253.765 139.385 253.744 139.446 253.744H139.864C139.925 253.744 139.973 253.765 140.01 253.807C140.052 253.843 140.073 253.891 140.073 253.951V254.348C140.413 253.885 140.91 253.653 141.565 253.653C142.202 253.653 142.678 253.852 142.994 254.248C143.315 254.645 143.488 255.156 143.512 255.781C143.518 255.847 143.522 255.949 143.522 256.088C143.522 256.226 143.518 256.328 143.512 256.394C143.488 257.013 143.315 257.524 142.994 257.927C142.672 258.323 142.196 258.521 141.565 258.521C140.934 258.521 140.443 258.296 140.092 257.845V259.937C140.092 259.997 140.073 260.045 140.037 260.081C140.001 260.123 139.952 260.144 139.891 260.144H139.446ZM141.374 257.791C141.805 257.791 142.117 257.659 142.312 257.395C142.512 257.13 142.621 256.782 142.639 256.349C142.645 256.289 142.648 256.202 142.648 256.088C142.648 254.952 142.223 254.384 141.374 254.384C140.956 254.384 140.64 254.522 140.428 254.798C140.222 255.069 140.11 255.393 140.092 255.772L140.083 256.115L140.092 256.466C140.104 256.821 140.219 257.13 140.437 257.395C140.656 257.659 140.968 257.791 141.374 257.791ZM144.865 258.431C144.805 258.431 144.753 258.413 144.71 258.377C144.674 258.335 144.656 258.284 144.656 258.224V252.238C144.656 252.178 144.674 252.13 144.71 252.094C144.753 252.052 144.805 252.031 144.865 252.031H145.32C145.381 252.031 145.429 252.052 145.466 252.094C145.508 252.13 145.529 252.178 145.529 252.238V254.339C145.705 254.116 145.911 253.948 146.148 253.834C146.384 253.714 146.679 253.653 147.03 253.653C147.613 253.653 148.065 253.84 148.386 254.212C148.713 254.579 148.877 255.069 148.877 255.682V258.224C148.877 258.284 148.856 258.335 148.814 258.377C148.777 258.413 148.729 258.431 148.668 258.431H148.213C148.153 258.431 148.101 258.413 148.058 258.377C148.022 258.335 148.004 258.284 148.004 258.224V255.727C148.004 255.3 147.898 254.97 147.685 254.735C147.479 254.501 147.179 254.384 146.785 254.384C146.403 254.384 146.097 254.504 145.866 254.744C145.642 254.979 145.529 255.306 145.529 255.727V258.224C145.529 258.284 145.508 258.335 145.466 258.377C145.429 258.413 145.381 258.431 145.32 258.431H144.865ZM152.128 258.521C151.461 258.521 150.943 258.335 150.573 257.963C150.209 257.59 150.015 257.094 149.99 256.475L149.981 256.088L149.99 255.7C150.015 255.087 150.212 254.594 150.582 254.221C150.952 253.843 151.468 253.653 152.128 253.653C152.79 253.653 153.305 253.843 153.675 254.221C154.045 254.594 154.242 255.087 154.266 255.7C154.273 255.766 154.276 255.895 154.276 256.088C154.276 256.28 154.273 256.409 154.266 256.475C154.242 257.094 154.045 257.59 153.675 257.963C153.311 258.335 152.796 258.521 152.128 258.521ZM152.128 257.827C152.511 257.827 152.811 257.707 153.029 257.467C153.254 257.226 153.375 256.881 153.393 256.43C153.399 256.37 153.402 256.256 153.402 256.088C153.402 255.919 153.399 255.805 153.393 255.745C153.375 255.294 153.254 254.949 153.029 254.708C152.811 254.468 152.511 254.348 152.128 254.348C151.746 254.348 151.443 254.468 151.219 254.708C150.995 254.949 150.876 255.294 150.864 255.745L150.855 256.088L150.864 256.43C150.876 256.881 150.995 257.226 151.219 257.467C151.443 257.707 151.746 257.827 152.128 257.827ZM155.624 258.431C155.564 258.431 155.512 258.413 155.469 258.377C155.433 258.335 155.415 258.284 155.415 258.224V253.951C155.415 253.891 155.433 253.843 155.469 253.807C155.512 253.765 155.564 253.744 155.624 253.744H156.052C156.112 253.744 156.161 253.765 156.197 253.807C156.24 253.843 156.261 253.891 156.261 253.951V254.348C156.437 254.125 156.643 253.954 156.88 253.834C157.122 253.714 157.423 253.653 157.78 253.653C158.363 253.653 158.815 253.84 159.136 254.212C159.463 254.579 159.627 255.069 159.627 255.682V258.224C159.627 258.284 159.606 258.335 159.563 258.377C159.527 258.413 159.479 258.431 159.418 258.431H158.963C158.903 258.431 158.851 258.413 158.808 258.377C158.772 258.335 158.754 258.284 158.754 258.224V255.727C158.754 255.3 158.648 254.97 158.435 254.735C158.229 254.501 157.929 254.384 157.535 254.384C157.153 254.384 156.849 254.504 156.625 254.744C156.401 254.979 156.288 255.306 156.288 255.727V258.224C156.288 258.284 156.267 258.335 156.225 258.377C156.188 258.413 156.14 258.431 156.079 258.431H155.624ZM162.825 258.521C162.2 258.521 161.699 258.332 161.323 257.954C160.953 257.569 160.75 257.046 160.714 256.385L160.705 256.078L160.714 255.781C160.757 255.132 160.962 254.615 161.333 254.23C161.708 253.846 162.203 253.653 162.816 253.653C163.489 253.653 164.01 253.867 164.38 254.294C164.75 254.714 164.935 255.285 164.935 256.006V256.16C164.935 256.22 164.914 256.271 164.872 256.313C164.835 256.349 164.787 256.367 164.726 256.367H161.578V256.448C161.596 256.839 161.715 257.172 161.933 257.449C162.158 257.719 162.452 257.854 162.816 257.854C163.095 257.854 163.322 257.8 163.498 257.692C163.68 257.578 163.813 257.461 163.898 257.341C163.953 257.268 163.992 257.226 164.016 257.214C164.047 257.196 164.098 257.187 164.171 257.187H164.617C164.671 257.187 164.717 257.202 164.753 257.232C164.79 257.262 164.808 257.305 164.808 257.359C164.808 257.491 164.723 257.65 164.553 257.836C164.389 258.023 164.156 258.185 163.853 258.323C163.555 258.456 163.213 258.521 162.825 258.521ZM164.071 255.745V255.718C164.071 255.303 163.956 254.967 163.725 254.708C163.501 254.444 163.198 254.312 162.816 254.312C162.433 254.312 162.13 254.444 161.906 254.708C161.687 254.967 161.578 255.303 161.578 255.718V255.745H164.071ZM166.251 256.935C166.19 256.935 166.138 256.917 166.096 256.881C166.06 256.839 166.042 256.788 166.042 256.728V252.328C166.042 252.268 166.06 252.22 166.096 252.184C166.138 252.142 166.19 252.121 166.251 252.121H166.678C166.739 252.121 166.788 252.142 166.824 252.184C166.866 252.22 166.888 252.268 166.888 252.328V256.728C166.888 256.788 166.866 256.839 166.824 256.881C166.788 256.917 166.739 256.935 166.678 256.935H166.251ZM166.169 258.431C166.108 258.431 166.056 258.413 166.014 258.377C165.978 258.335 165.96 258.284 165.96 258.224V257.656C165.96 257.596 165.978 257.545 166.014 257.503C166.056 257.461 166.108 257.44 166.169 257.44H166.751C166.812 257.44 166.86 257.461 166.897 257.503C166.939 257.545 166.96 257.596 166.96 257.656V258.224C166.96 258.284 166.939 258.335 166.897 258.377C166.86 258.413 166.812 258.431 166.751 258.431H166.169Z" fill="white"/>
<g filter="url(#filter1_d)">
<path d="M182.785 301.511H78.2138C72.8264 301.511 68.459 305.885 68.459 311.279V330.816C68.459 336.21 72.8264 340.584 78.2138 340.584H182.785C188.173 340.584 192.54 336.21 192.54 330.816V311.279C192.54 305.885 188.173 301.511 182.785 301.511Z" fill="#FB3E3E"/>
</g>
<path d="M116.429 324.325C115.872 324.325 115.394 324.239 114.994 324.068C114.594 323.897 114.291 323.672 114.085 323.393C113.878 323.114 113.769 322.813 113.756 322.49C113.756 322.433 113.775 322.385 113.813 322.347C113.85 322.309 113.897 322.29 113.953 322.29H114.788C114.863 322.29 114.919 322.306 114.957 322.337C115 322.363 115.041 322.407 115.078 322.471C115.141 322.686 115.285 322.867 115.51 323.013C115.735 323.158 116.041 323.231 116.429 323.231C116.873 323.231 117.207 323.158 117.432 323.013C117.657 322.86 117.77 322.651 117.77 322.385C117.77 322.207 117.71 322.062 117.591 321.948C117.479 321.834 117.307 321.735 117.076 321.653C116.851 321.57 116.513 321.469 116.063 321.349C115.325 321.171 114.785 320.937 114.441 320.645C114.103 320.347 113.935 319.926 113.935 319.38C113.935 319.013 114.031 318.686 114.225 318.401C114.425 318.116 114.71 317.891 115.078 317.726C115.454 317.561 115.888 317.479 116.382 317.479C116.894 317.479 117.338 317.571 117.713 317.754C118.088 317.938 118.373 318.17 118.567 318.449C118.767 318.721 118.873 318.994 118.885 319.266C118.885 319.323 118.867 319.371 118.829 319.409C118.792 319.447 118.745 319.466 118.688 319.466H117.816C117.685 319.466 117.594 319.406 117.544 319.285C117.507 319.082 117.382 318.914 117.169 318.781C116.957 318.642 116.694 318.572 116.382 318.572C116.032 318.572 115.757 318.639 115.557 318.772C115.357 318.905 115.257 319.098 115.257 319.352C115.257 319.529 115.307 319.675 115.407 319.789C115.507 319.903 115.663 320.005 115.875 320.094C116.094 320.182 116.407 320.281 116.813 320.388C117.363 320.515 117.801 320.658 118.126 320.816C118.457 320.975 118.701 321.174 118.857 321.415C119.013 321.656 119.092 321.963 119.092 322.337C119.092 322.743 118.979 323.098 118.754 323.402C118.535 323.7 118.223 323.928 117.816 324.087C117.416 324.245 116.954 324.325 116.429 324.325ZM120.391 324.23C120.329 324.23 120.275 324.207 120.232 324.163C120.188 324.119 120.166 324.065 120.166 324.001V317.802C120.166 317.732 120.188 317.678 120.232 317.64C120.275 317.596 120.329 317.574 120.391 317.574H121.272C121.341 317.574 121.394 317.596 121.432 317.64C121.476 317.678 121.498 317.732 121.498 317.802V324.001C121.498 324.065 121.476 324.119 121.432 324.163C121.394 324.207 121.341 324.23 121.272 324.23H120.391ZM125.519 324.325C124.662 324.325 123.993 324.1 123.512 323.65C123.037 323.2 122.784 322.572 122.752 321.767C122.746 321.583 122.743 321.288 122.743 320.883C122.743 320.477 122.746 320.182 122.752 319.998C122.784 319.212 123.04 318.598 123.521 318.154C124.009 317.704 124.675 317.479 125.519 317.479C126.094 317.479 126.587 317.577 127 317.773C127.413 317.97 127.725 318.217 127.938 318.515C128.15 318.807 128.263 319.095 128.275 319.38V319.399C128.275 319.45 128.256 319.494 128.219 319.533C128.181 319.564 128.135 319.58 128.078 319.58H127.113C127.05 319.58 127.003 319.571 126.972 319.552C126.941 319.526 126.912 319.485 126.887 319.428C126.8 319.193 126.647 318.994 126.428 318.829C126.209 318.658 125.906 318.572 125.519 318.572C125.081 318.572 124.737 318.693 124.487 318.934C124.243 319.174 124.112 319.545 124.093 320.046C124.087 320.23 124.084 320.509 124.084 320.883C124.084 321.25 124.087 321.529 124.093 321.719C124.131 322.727 124.612 323.231 125.537 323.231C125.981 323.231 126.337 323.111 126.606 322.87C126.875 322.623 127.009 322.258 127.009 321.776V321.482H125.865C125.797 321.482 125.74 321.46 125.697 321.415C125.659 321.371 125.64 321.314 125.64 321.244V320.74C125.64 320.67 125.659 320.613 125.697 320.569C125.74 320.525 125.797 320.502 125.865 320.502H128.106C128.175 320.502 128.228 320.525 128.266 320.569C128.31 320.613 128.331 320.67 128.331 320.74V321.738C128.331 322.265 128.216 322.724 127.985 323.117C127.76 323.504 127.434 323.802 127.009 324.011C126.584 324.22 126.087 324.325 125.519 324.325ZM129.759 324.23C129.696 324.23 129.643 324.207 129.599 324.163C129.556 324.119 129.534 324.065 129.534 324.001V317.812C129.534 317.742 129.552 317.685 129.59 317.64C129.634 317.596 129.69 317.574 129.759 317.574H130.481C130.556 317.574 130.612 317.59 130.649 317.621C130.687 317.647 130.721 317.682 130.753 317.726L133.453 321.986V317.812C133.453 317.742 133.472 317.685 133.509 317.64C133.553 317.596 133.609 317.574 133.678 317.574H134.466C134.534 317.574 134.591 317.596 134.635 317.64C134.678 317.685 134.7 317.742 134.7 317.812V323.992C134.7 324.062 134.678 324.119 134.635 324.163C134.591 324.207 134.538 324.23 134.475 324.23H133.744C133.637 324.23 133.547 324.179 133.472 324.077L130.781 319.913V324.001C130.781 324.071 130.759 324.128 130.715 324.173C130.671 324.211 130.615 324.23 130.546 324.23H129.759ZM138.531 324.23C138.468 324.23 138.415 324.207 138.371 324.163C138.328 324.119 138.306 324.065 138.306 324.001V317.802C138.306 317.732 138.328 317.678 138.371 317.64C138.415 317.596 138.468 317.574 138.531 317.574H139.412C139.481 317.574 139.534 317.596 139.572 317.64C139.615 317.678 139.637 317.732 139.637 317.802V324.001C139.637 324.065 139.615 324.119 139.572 324.163C139.534 324.207 139.481 324.23 139.412 324.23H138.531ZM141.333 324.23C141.27 324.23 141.217 324.207 141.174 324.163C141.13 324.119 141.108 324.065 141.108 324.001V317.812C141.108 317.742 141.127 317.685 141.164 317.64C141.208 317.596 141.264 317.574 141.333 317.574H142.055C142.13 317.574 142.186 317.59 142.224 317.621C142.261 317.647 142.296 317.682 142.327 317.726L145.027 321.986V317.812C145.027 317.742 145.046 317.685 145.084 317.64C145.127 317.596 145.184 317.574 145.252 317.574H146.04C146.109 317.574 146.165 317.596 146.209 317.64C146.252 317.685 146.274 317.742 146.274 317.812V323.992C146.274 324.062 146.252 324.119 146.209 324.163C146.165 324.207 146.112 324.23 146.049 324.23H145.318C145.212 324.23 145.121 324.179 145.046 324.077L142.355 319.913V324.001C142.355 324.071 142.333 324.128 142.289 324.173C142.246 324.211 142.189 324.23 142.121 324.23H141.333Z" fill="white"/>
<defs>
<filter id="filter0_f" x="41.9548" y="102.928" width="131.768" height="131.811" filterUnits="userSpaceOnUse" color-interpolation-filters="sRGB">
<feFlood flood-opacity="0" result="BackgroundImageFix"/>
<feBlend mode="normal" in="SourceGraphic" in2="BackgroundImageFix" result="shape"/>
<feGaussianBlur stdDeviation="25" result="effect1_foregroundBlur"/>
</filter>
<filter id="filter1_d" x="18.459" y="266.511" width="224.081" height="139.072" filterUnits="userSpaceOnUse" color-interpolation-filters="sRGB">
<feFlood flood-opacity="0" result="BackgroundImageFix"/>
<feColorMatrix in="SourceAlpha" type="matrix" values="0 0 0 0 0 0 0 0 0 0 0 0 0 0 0 0 0 0 127 0"/>
<feOffset dy="15"/>
<feGaussianBlur stdDeviation="25"/>
<feColorMatrix type="matrix" values="0 0 0 0 0.984314 0 0 0 0 0.243137 0 0 0 0 0.243137 0 0 0 0.15 0"/>
<feBlend mode="normal" in2="BackgroundImageFix" result="effect1_dropShadow"/>
<feBlend mode="normal" in="SourceGraphic" in2="effect1_dropShadow" result="shape"/>
</filter>
</defs>
</svg>
