<svg xmlns="http://www.w3.org/2000/svg" width="182" height="31" viewBox="0 0 182 31"><defs><filter id="kf8oa" width="1472%" height="1472%" x="-676%" y="-676%" filterUnits="objectBoundingBox"><feGaussianBlur in="SourceGraphic" result="FeGaussianBlur1077Out" stdDeviation="50 50"/></filter></defs><g><g><g><path fill="#fff" d="M52.735 7.626h5.31v17.7h-5.31v-1.664c-1.25 1.44-3.009 2.16-5.274 2.16-2.337 0-4.331-.898-5.983-2.691C39.826 21.314 39 19.095 39 16.476c0-2.62.826-4.827 2.478-6.62 1.652-1.817 3.646-2.726 5.983-2.726 2.265 0 4.023.72 5.274 2.16zm-7.257 12c.779.779 1.794 1.168 3.045 1.168 1.25 0 2.265-.389 3.044-1.168.779-.779 1.168-1.829 1.168-3.15 0-1.322-.39-2.372-1.168-3.151-.779-.779-1.794-1.168-3.044-1.168-1.251 0-2.266.39-3.045 1.168-.779.779-1.168 1.829-1.168 3.15 0 1.322.39 2.372 1.168 3.151zm31.614 3.505c-1.817 1.793-4.035 2.69-6.655 2.69s-4.838-.897-6.655-2.69c-1.817-1.817-2.726-4.036-2.726-6.655 0-2.62.909-4.827 2.726-6.62 1.817-1.817 4.035-2.726 6.655-2.726s4.838.909 6.655 2.726c1.817 1.793 2.726 4 2.726 6.62s-.909 4.838-2.726 6.655zm-9.558-3.646c.779.778 1.746 1.168 2.903 1.168 1.156 0 2.124-.39 2.903-1.168.778-.78 1.168-1.782 1.168-3.01 0-1.227-.39-2.23-1.168-3.008-.78-.78-1.747-1.169-2.903-1.169-1.157 0-2.124.39-2.903 1.169-.779.778-1.168 1.781-1.168 3.009 0 1.227.39 2.23 1.168 3.009z"/></g><g><path fill="#fff" d="M32.825 3.824C30.376 1.274 27.322 0 23.662 0H13.06v3.891l.01-.01 6.048 6.047V5.831h4.544c2.095 0 3.786.682 5.074 2.045 1.312 1.338 1.969 3.13 1.969 5.376 0 2.247-.657 4.052-1.97 5.415-1.287 1.338-2.978 2.007-5.073 2.007h-4.544v-3.551l-6.047 6.047-.011-.01v3.345h10.602c3.66 0 6.714-1.262 9.163-3.787 2.474-2.55 3.71-5.705 3.71-9.466 0-3.76-1.236-6.903-3.71-9.428z"/></g><g><path fill="#fff" d="M96.175 0c2.603 0 4.801.884 6.595 2.651 1.794 1.768 2.691 3.914 2.691 6.439 0 2.524-.897 4.67-2.69 6.438-1.795 1.768-3.994 2.651-6.596 2.651h-3.98v8.332H86.13V0zm0 12.498c.935 0 1.705-.328 2.312-.984.606-.657.91-1.465.91-2.424 0-.96-.304-1.768-.91-2.424-.607-.657-1.377-.985-2.312-.985h-3.98v6.817zm27.199 11.665c-1.946 1.92-4.321 2.879-7.126 2.879-2.805 0-5.18-.96-7.126-2.879-1.946-1.944-2.919-4.317-2.919-7.12s.973-5.163 2.919-7.082c1.946-1.944 4.32-2.917 7.126-2.917 2.805 0 5.18.973 7.126 2.917 1.946 1.919 2.919 4.28 2.919 7.082 0 2.803-.973 5.176-2.919 7.12zm-10.234-3.9c.834.832 1.87 1.25 3.108 1.25s2.274-.418 3.108-1.25c.834-.834 1.25-1.907 1.25-3.22 0-1.313-.416-2.386-1.25-3.22-.834-.832-1.87-1.249-3.108-1.249s-2.274.417-3.108 1.25c-.834.833-1.251 1.906-1.251 3.22 0 1.312.417 2.385 1.25 3.218zm34.563 6.248h-6.444l-6.065-8.37v8.37h-5.685V0h5.685v15.869l5.686-8.294h6.633l-6.898 9.468zm6.022-7.195c.657 1.767 2.173 2.65 4.549 2.65 1.541 0 2.754-.48 3.639-1.439l4.548 2.614c-1.87 2.6-4.624 3.9-8.263 3.9-3.184 0-5.736-.946-7.657-2.84-1.895-1.894-2.843-4.28-2.843-7.158 0-2.853.935-5.227 2.805-7.12 1.895-1.92 4.321-2.879 7.278-2.879 2.754 0 5.041.96 6.86 2.879 1.845 1.893 2.768 4.267 2.768 7.12 0 .808-.076 1.565-.228 2.272zm8.036-4.242c-.556-1.995-1.895-2.992-4.018-2.992-2.198 0-3.576.997-4.131 2.992zm14.558-4.129c.354-1.212 1.062-2.133 2.123-2.764a6.763 6.763 0 0 1 3.563-.985v6.438a5.704 5.704 0 0 0-3.904.72c-1.188.682-1.782 1.881-1.782 3.598v8.56h-5.685V7.574h5.685z"/></g><g><g filter="url(#kf8oa)" opacity=".25" transform="rotate(135 12.5 13.5)"><path fill="#fb3e3e" d="M17.243 18.763H7.1V8.62h10.143z"/></g><g transform="rotate(135 12.5 13.5)"><path fill="#fb3e3e" d="M17.243 18.763H7.1V8.62h10.143z"/></g></g></g></g></svg>