<svg xmlns="http://www.w3.org/2000/svg" width="230" height="35" viewBox="0 0 230 35"><g><g><path fill="#fff" d="M62.788 9.861h6.872v22.91h-6.872v-2.154c-1.62 1.863-3.895 2.795-6.827 2.795-3.024 0-5.606-1.16-7.744-3.482-2.138-2.352-3.207-5.223-3.207-8.614 0-3.39 1.07-6.247 3.207-8.568 2.138-2.352 4.72-3.528 7.744-3.528 2.932 0 5.208.932 6.827 2.795zm-9.393 15.533c1.008 1.008 2.321 1.512 3.94 1.512 1.619 0 2.933-.504 3.94-1.512 1.009-1.008 1.513-2.367 1.513-4.078 0-1.71-.504-3.07-1.512-4.078-1.009-1.008-2.322-1.512-3.94-1.512-1.62 0-2.933.504-3.941 1.512s-1.512 2.368-1.512 4.078c0 1.71.504 3.07 1.512 4.078zm40.917 4.536c-2.351 2.321-5.223 3.482-8.613 3.482-3.39 0-6.262-1.16-8.614-3.482-2.352-2.352-3.528-5.223-3.528-8.614 0-3.39 1.176-6.247 3.528-8.568 2.352-2.352 5.223-3.528 8.614-3.528 3.39 0 6.262 1.176 8.614 3.528 2.351 2.321 3.527 5.177 3.527 8.568 0 3.39-1.175 6.262-3.527 8.614zm-12.37-4.72c1.008 1.008 2.26 1.512 3.757 1.512 1.496 0 2.749-.504 3.757-1.512s1.512-2.306 1.512-3.894-.504-2.887-1.512-3.895-2.26-1.512-3.757-1.512c-1.497 0-2.75.504-3.757 1.512-1.008 1.008-1.512 2.307-1.512 3.895s.504 2.886 1.512 3.894z"/></g><g><path fill="#fff" d="M37.012 4.95C33.842 1.65 29.889 0 25.152 0H11.43v5.036l.014-.013 7.827 7.827V7.547h5.881c2.712 0 4.9.882 6.567 2.647 1.699 1.731 2.548 4.05 2.548 6.958 0 2.908-.85 5.244-2.548 7.008-1.666 1.732-3.855 2.598-6.567 2.598h-5.88v-4.596l-7.828 7.827-.014-.013v4.329h13.722c4.737 0 8.69-1.633 11.86-4.9 3.202-3.3 4.803-7.384 4.803-12.253 0-4.868-1.601-8.935-4.803-12.202z"/></g><g><path fill="#fb3e3e" d="M119 0c3.37 0 6.215 1.144 8.537 3.431 2.322 2.288 3.484 5.066 3.484 8.334s-1.161 6.045-3.484 8.333c-2.322 2.288-5.167 3.431-8.536 3.431h-5.151v10.785H106V0zm0 16.177c1.211 0 2.209-.425 2.994-1.275.784-.85 1.177-1.895 1.177-3.137s-.393-2.288-1.178-3.138c-.784-.85-1.782-1.274-2.992-1.274h-5.151v8.824zm35.205 15.098C151.686 33.758 148.612 35 144.98 35c-3.63 0-6.704-1.242-9.223-3.725-2.518-2.517-3.777-5.589-3.777-9.216 0-3.628 1.259-6.683 3.777-9.167 2.519-2.516 5.593-3.774 9.224-3.774 3.63 0 6.704 1.258 9.223 3.774 2.518 2.484 3.777 5.54 3.777 9.167s-1.259 6.7-3.777 9.215zm-13.246-5.05c1.079 1.079 2.42 1.618 4.022 1.618 1.603 0 2.944-.54 4.023-1.618 1.08-1.078 1.62-2.467 1.62-4.166 0-1.7-.54-3.088-1.62-4.167-1.079-1.078-2.42-1.617-4.023-1.617-1.602 0-2.943.539-4.022 1.617-1.08 1.079-1.62 2.468-1.62 4.167 0 1.7.54 3.088 1.62 4.167zm44.735 8.089h-8.34l-7.85-10.834v10.834h-7.36V0h7.36v20.54l7.359-10.736h8.585l-8.929 12.255zM193.488 25c.85 2.288 2.813 3.431 5.888 3.431 1.995 0 3.565-.62 4.71-1.862l5.887 3.382C207.552 33.317 203.987 35 199.277 35c-4.12 0-7.424-1.226-9.91-3.676-2.453-2.452-3.68-5.54-3.68-9.265 0-3.693 1.211-6.765 3.631-9.216 2.453-2.484 5.593-3.725 9.42-3.725 3.565 0 6.525 1.241 8.88 3.725 2.387 2.451 3.581 5.523 3.581 9.216 0 1.046-.098 2.026-.294 2.941zm10.401-5.49c-.72-2.582-2.453-3.873-5.2-3.873-2.846 0-4.628 1.291-5.348 3.873zm18.843-5.343c.458-1.569 1.374-2.762 2.747-3.579a8.756 8.756 0 0 1 4.612-1.274v8.333c-1.799-.294-3.483.016-5.053.931-1.537.883-2.306 2.435-2.306 4.657v11.079h-7.359V9.804h7.359z"/></g><g transform="rotate(135 10 17.5)"><path fill="#fb3e3e" d="M16.849 24.288H3.72V11.16h13.129z"/></g></g></svg>