<svg xmlns="http://www.w3.org/2000/svg" width="114" height="43" viewBox="0 0 114 43"><defs><clipPath id="jhjxa"><path fill="#fff" d="M0 43V0h114v43zm1.508-8.192C-.112 38.129 2.307 42 6.002 42h86.874a5 5 0 0 0 4.494-2.808l15.122-31c1.62-3.321-.799-7.192-4.494-7.192H21.124a5 5 0 0 0-4.494 2.808z"/></clipPath></defs><g><g><path fill="none" stroke="#293348" stroke-miterlimit="20" stroke-width="2" d="M16.63 3.808A5 5 0 0 1 21.124 1h86.874c3.695 0 6.114 3.87 4.494 7.192l-15.122 31A5 5 0 0 1 92.876 42H6.002c-3.695 0-6.114-3.87-4.494-7.192z" clip-path="url(&quot;#jhjxa&quot;)"/></g></g></svg>