<svg width="28" height="28" viewBox="0 0 28 28" fill="none" xmlns="http://www.w3.org/2000/svg">
<path opacity="0.5" fill-rule="evenodd" clip-rule="evenodd" d="M14 26C20.6274 26 26 20.6274 26 14C26 7.37258 20.6274 2 14 2C7.37258 2 2 7.37258 2 14C2 20.6274 7.37258 26 14 26ZM14 28C21.732 28 28 21.732 28 14C28 6.26801 21.732 0 14 0C6.26801 0 0 6.26801 0 14C0 21.732 6.26801 28 14 28Z" fill="#C8D5E8"/>
<path opacity="0.5" d="M12.2604 10.0669L10.0725 13.924C9.43644 15.0454 9.61402 16.4516 10.5089 17.3796C12.4161 19.3574 15.5839 19.3574 17.4911 17.3796C18.386 16.4516 18.5636 15.0454 17.9275 13.924L15.7396 10.0669C14.9733 8.71591 13.0267 8.71591 12.2604 10.0669Z" stroke="#C8D5E8" stroke-width="2"/>
</svg>
