<svg width="26" height="24" viewBox="0 0 26 24" fill="none" xmlns="http://www.w3.org/2000/svg">
<path opacity="0.5" d="M9.26913 8.05018C2.96511 12.4558 2.35522 18.6906 3.42452 21C4.06099 19.2405 5.8733 16.4507 9.02771 15.1009C13.4298 22.9262 20.5052 23.7306 23 22.5755C21.0585 21.8732 17.8623 19.7391 16.7309 15.9498C23.0349 11.5442 23.6448 5.30941 22.5755 3C21.939 4.75949 20.1267 7.5493 16.9723 8.89912C12.5702 1.07382 5.49476 0.269399 3 1.42452C4.94154 2.12684 8.13766 4.26094 9.26913 8.05018Z" stroke="#C8D4E8" stroke-width="2"/>
<path opacity="0.5" d="M15 12C15 13.1046 14.1046 14 13 14C11.8954 14 11 13.1046 11 12C11 10.8954 11.8954 10 13 10C14.1046 10 15 10.8954 15 12Z" fill="#C8D4E8"/>
</svg>
