<svg xmlns="http://www.w3.org/2000/svg" width="20" height="22" viewBox="0 0 20 22"><g><g opacity=".5"><path fill="#c8d5e8" d="M10.186 8a3 3 0 1 0 0-6 3 3 0 0 0 0 6zm5-3a5 5 0 1 1-10 0 5 5 0 0 1 10 0zm-4.105 7c.943 0 1.533 0 2.086.089a7 7 0 0 1 4.574 2.826c.327.455.59.983 1.012 1.827l.042.083.01.02c.174.349.32.64.427.88.107.241.206.496.253.765a3 3 0 0 1-2.09 3.382 3.258 3.258 0 0 1-.799.116c-.262.012-.587.012-.977.012H3.909c-.39 0-.714 0-.977-.012a3.259 3.259 0 0 1-.798-.116 3 3 0 0 1-2.09-3.382c.046-.269.145-.523.253-.766.107-.24.252-.53.427-.879l.01-.02.041-.083c.422-.844.686-1.372 1.013-1.827A7 7 0 0 1 6.36 12.09c.553-.09 1.144-.09 2.087-.089zm-7.669 4.082c-.222.31-.413.684-.89 1.637-.186.374-.312.625-.398.82a1.47 1.47 0 0 0-.11.291 1 1 0 0 0 .698 1.127c.02.007.094.024.31.033.211.01.492.01.91.01h11.664c.418 0 .699 0 .911-.01.215-.01.29-.026.31-.033a1 1 0 0 0 .697-1.127 1.469 1.469 0 0 0-.11-.291 23.251 23.251 0 0 0-.398-.82c-.477-.953-.668-1.328-.89-1.637a5 5 0 0 0-3.266-2.019c-.376-.06-.796-.063-1.862-.063H8.54c-1.065 0-1.486.003-1.861.063a5 5 0 0 0-3.267 2.02z"/></g></g></svg>