<svg xmlns="http://www.w3.org/2000/svg" width="261" height="453" viewBox="0 0 261 453"><defs><filter id="zr51a" width="764%" height="748%" x="-322%" y="-314%" filterUnits="objectBoundingBox"><feGaussianBlur in="SourceGraphic" result="FeGaussianBlur2956Out" stdDeviation="50 50"/></filter></defs><g><g><path fill="#282b36" d="M0 109.74c0-1.53 1.238-2.77 2.766-2.77v38.425A2.768 2.768 0 0 1 0 142.624z"/></g><g><path fill="#282b36" d="M1.04 110.08c0-.955.774-1.73 1.728-1.73v35.655a1.73 1.73 0 0 1-1.728-1.73z"/></g><g><path fill="#282b36" d="M0 72.35c0-1.53 1.238-2.77 2.766-2.77v20.424A2.767 2.767 0 0 1 0 87.234z"/></g><g><path fill="#282b36" d="M1.04 72.35c0-.955.774-1.73 1.728-1.73v18.347a1.73 1.73 0 0 1-1.728-1.731z"/></g><g><path fill="#282b36" d="M0 157.85c0-1.53 1.238-2.77 2.766-2.77v38.425A2.768 2.768 0 0 1 0 190.734z"/></g><g><path fill="#282b36" d="M1.04 158.2c0-.955.774-1.73 1.728-1.73v35.655a1.73 1.73 0 0 1-1.728-1.73z"/></g><g><path fill="#282b36" d="M260.996 122.89c0-1.53-1.239-2.77-2.766-2.77v59.194a2.768 2.768 0 0 0 2.766-2.769z"/></g><g><path fill="#282b36" d="M259.959 123.98a1.73 1.73 0 0 0-1.729-1.73v54.928a1.73 1.73 0 0 0 1.728-1.73z"/></g><g><path fill="#1b202c" d="M2.07 38.078C2.07 17.048 19.095 0 40.096 0H220.55c21.002 0 38.027 17.048 38.027 38.078V482.21c0 21.03-17.025 38.078-38.027 38.078H40.096c-21.001 0-38.026-17.048-38.026-38.078z"/></g><g><path fill="#131822" d="M7.61 40.497C7.61 21.378 23.087 5.88 42.18 5.88h176.304c19.092 0 34.57 15.498 34.57 34.617v439.631c0 19.119-15.478 34.617-34.57 34.617H42.179c-19.092 0-34.569-15.498-34.569-34.617z"/></g><g><path fill="#333644" d="M2.07 49.5h5.531v3.808H2.07z"/></g><g><path fill="#333644" d="M253.05 49.5h5.531v3.808h-5.531z"/></g><g><path fill="#333644" d="M2.07 466.29h5.531v3.808H2.07z"/></g><g><path fill="#333644" d="M253.05 466.29h5.531v3.808h-5.531z"/></g><g><path fill="#1b202c" d="M45.976 16.62c-15.274 0-27.656 12.399-27.656 27.693V476.33c0 15.294 12.382 27.694 27.656 27.694h168.699c15.274 0 27.656-12.4 27.656-27.694V44.313c0-15.294-12.382-27.693-27.656-27.693h-16.939a4.15 4.15 0 0 0-4.148 4.154c0 7.647-6.192 13.847-13.828 13.847H80.89c-7.636 0-13.827-6.2-13.827-13.847a4.151 4.151 0 0 0-4.148-4.154z"/></g><g><path fill="#1b202c" d="M114.08 21.29a2.249 2.249 0 0 1 2.247-2.25h27.656a2.249 2.249 0 0 1 2.247 2.25 2.249 2.249 0 0 1-2.247 2.25h-27.656a2.249 2.249 0 0 1-2.247-2.25z"/></g><g><path fill="#6da3ff" d="M156.6 21.29a2.249 2.249 0 0 1 2.247-2.25 2.249 2.249 0 0 1 2.247 2.25 2.249 2.249 0 0 1-2.247 2.25 2.249 2.249 0 0 1-2.247-2.25z"/></g><g><path fill="#0f131b" d="M45.976 16.62c-15.274 0-27.656 12.399-27.656 27.693V476.33c0 15.294 12.382 27.694 27.656 27.694h168.699c15.274 0 27.656-12.4 27.656-27.694V44.313c0-15.294-12.382-27.693-27.656-27.693h-16.939a4.15 4.15 0 0 0-4.148 4.154c0 7.647-6.192 13.847-13.828 13.847H80.89c-7.636 0-13.827-6.2-13.827-13.847a4.151 4.151 0 0 0-4.148-4.154z"/></g><g><path fill="#fff" d="M153.57 146.95c-5.421-5.653-12.186-8.48-20.291-8.48H109.8v8.63l.024-.025 13.392 13.411v-9.085h10.063c4.64 0 8.385 1.511 11.236 4.534 2.907 2.967 4.36 6.942 4.36 11.924 0 4.981-1.453 8.984-4.36 12.007-2.85 2.966-6.596 4.45-11.236 4.45h-10.063v-7.874l-13.392 13.41-.024-.023v7.418h23.479c8.105 0 14.87-2.8 20.292-8.397 5.478-5.653 8.217-12.65 8.217-20.991s-2.739-15.31-8.217-20.908z"/></g><g filter="url(#zr51a)" opacity=".25"><g opacity=".06"><path fill="#fb3e3e" d="M107.839 152.928l-15.884 15.905 15.884 15.906 15.884-15.906z"/></g></g><g><path fill="#fb3e3e" d="M107.839 152.928l-15.884 15.905 15.884 15.906 15.883-15.906z"/></g><g><path fill="#374052" d="M97.08 466.629a.22.22 0 0 1-.14-.049.217.217 0 0 1-.05-.142v-5.435c0-.055.017-.1.05-.131a.195.195 0 0 1 .14-.059h.44c.056 0 .1.02.133.059a.16.16 0 0 1 .058.131v5.435c0 .056-.019.1-.058.142a.187.187 0 0 1-.132.049zm4.203 0a.219.219 0 0 1-.14-.049.217.217 0 0 1-.05-.142v-5.518c0-.055.016-.1.05-.131a.195.195 0 0 1 .14-.059h.415c.056 0 .1.02.133.059a.16.16 0 0 1 .058.131v1.935c.16-.204.349-.36.564-.463.216-.111.484-.167.805-.167.531 0 .943.174 1.236.516.299.336.448.79.448 1.354v2.343c0 .056-.02.1-.058.142a.187.187 0 0 1-.133.049h-.414a.22.22 0 0 1-.141-.049.217.217 0 0 1-.05-.142v-2.302c0-.394-.097-.699-.29-.914-.189-.214-.462-.325-.822-.325-.348 0-.628.11-.838.332-.205.218-.307.52-.307.907v2.302c0 .056-.02.1-.058.142a.187.187 0 0 1-.133.049zm6.06.083c-.27 0-.523-.056-.755-.166a1.43 1.43 0 0 1-.556-.45 1.101 1.101 0 0 1-.199-.637c0-.367.15-.665.448-.9.304-.236.714-.392 1.228-.464l1.236-.173v-.243c0-.564-.323-.848-.97-.848-.244 0-.443.052-.598.16-.155.1-.27.218-.348.356a.223.223 0 0 1-.067.107c-.022.025-.055.035-.1.035h-.356a.193.193 0 0 1-.133-.052.196.196 0 0 1-.05-.131c.006-.132.067-.284.183-.45.122-.17.307-.319.556-.44.249-.128.556-.19.92-.19.62 0 1.066.145 1.337.44.27.286.406.646.406 1.08v2.692c0 .056-.02.1-.058.142a.187.187 0 0 1-.133.049h-.381a.22.22 0 0 1-.141-.049.217.217 0 0 1-.05-.142v-.356a1.43 1.43 0 0 1-.531.446c-.232.121-.528.184-.888.184zm.174-.623c.36 0 .653-.118.88-.35.232-.239.348-.578.348-1.021v-.232l-.962.142c-.393.055-.689.149-.888.28-.199.128-.299.291-.299.492 0 .221.092.391.274.516.183.114.398.173.647.173zm4.622.54c-.144 0-.246-.07-.307-.208l-1.535-3.856-.017-.083c0-.049.017-.09.05-.125a.176.176 0 0 1 .124-.048h.399c.094 0 .163.048.207.141l1.261 3.272 1.261-3.272c.05-.093.116-.141.2-.141h.406c.044 0 .083.017.116.048a.161.161 0 0 1 .058.125l-.016.083-1.544 3.856c-.06.139-.163.208-.307.208zm4.663.083c-.57 0-1.026-.173-1.369-.523-.337-.356-.522-.838-.555-1.447l-.009-.28.009-.277c.038-.596.226-1.073.564-1.426.343-.357.794-.534 1.352-.534.614 0 1.09.198 1.427.589.338.388.506.914.506 1.578v.142c0 .056-.02.104-.058.142-.033.035-.077.049-.133.049h-2.87v.076c.016.36.124.668.323.92.205.25.473.375.805.375.255 0 .462-.049.622-.15a1.24 1.24 0 0 0 .365-.321.405.405 0 0 1 .108-.118c.028-.017.075-.024.141-.024h.407c.05 0 .091.014.124.041a.14.14 0 0 1 .05.115c0 .124-.077.27-.232.443-.15.17-.363.318-.64.446a2.277 2.277 0 0 1-.937.184zm1.137-2.558v-.025c0-.384-.105-.692-.315-.93-.205-.247-.481-.368-.83-.368-.348 0-.625.121-.83.367-.199.239-.298.547-.298.931v.025zm5.017 2.558c-.27 0-.523-.056-.755-.166a1.43 1.43 0 0 1-.556-.45 1.101 1.101 0 0 1-.199-.637c0-.367.15-.665.448-.9.304-.236.714-.392 1.228-.464l1.236-.173v-.243c0-.564-.323-.848-.97-.848-.244 0-.443.052-.598.16-.155.1-.27.218-.348.356a.223.223 0 0 1-.067.107c-.022.025-.055.035-.1.035h-.356a.194.194 0 0 1-.133-.052.196.196 0 0 1-.05-.131c.006-.132.067-.284.183-.45.122-.17.307-.319.556-.44.249-.128.556-.19.92-.19.62 0 1.066.145 1.337.44.27.286.406.646.406 1.08v2.692c0 .056-.02.1-.058.142a.187.187 0 0 1-.133.049h-.381a.22.22 0 0 1-.141-.049.217.217 0 0 1-.05-.142v-.356a1.43 1.43 0 0 1-.531.446c-.232.121-.528.184-.888.184zm.174-.623c.36 0 .653-.118.88-.35.232-.239.348-.578.348-1.021v-.232l-.962.142c-.393.055-.689.149-.888.28-.199.128-.299.291-.299.492 0 .221.092.391.274.516.183.114.398.173.647.173zm3.392.54a.219.219 0 0 1-.141-.049.217.217 0 0 1-.05-.142v-3.94c0-.054.016-.1.05-.13a.195.195 0 0 1 .14-.06h.39c.056 0 .1.021.133.06a.16.16 0 0 1 .058.13v.368c.16-.204.349-.364.565-.474.22-.111.495-.167.82-.167.532 0 .944.174 1.237.516.299.336.448.79.448 1.354v2.343c0 .056-.02.1-.058.142a.187.187 0 0 1-.133.049h-.414a.219.219 0 0 1-.142-.049.217.217 0 0 1-.05-.142v-2.302c0-.394-.096-.699-.29-.914-.188-.214-.462-.325-.821-.325-.349 0-.625.11-.83.332-.204.218-.307.52-.307.907v2.302c0 .056-.02.1-.058.142a.187.187 0 0 1-.133.049zm8.077.083c-.27 0-.522-.056-.755-.166a1.43 1.43 0 0 1-.556-.45 1.1 1.1 0 0 1-.199-.637c0-.367.15-.665.448-.9.304-.236.714-.392 1.228-.464l1.236-.173v-.243c0-.564-.323-.848-.97-.848-.244 0-.443.052-.598.16-.155.1-.27.218-.348.356a.223.223 0 0 1-.067.107c-.022.025-.055.035-.1.035h-.356a.194.194 0 0 1-.133-.052.196.196 0 0 1-.05-.131c.006-.132.067-.284.183-.45.122-.17.307-.319.556-.44.249-.128.556-.19.92-.19.62 0 1.066.145 1.337.44.27.286.406.646.406 1.08v2.692c0 .056-.02.1-.058.142a.187.187 0 0 1-.133.049h-.381a.219.219 0 0 1-.141-.049.217.217 0 0 1-.05-.142v-.356a1.43 1.43 0 0 1-.531.446c-.232.121-.528.184-.888.184zm.174-.623c.36 0 .653-.118.88-.35.232-.239.348-.578.348-1.021v-.232l-.962.142c-.393.055-.689.149-.888.28-.199.128-.299.291-.299.492 0 .221.092.391.274.516.183.114.399.173.647.173zm4.943.623c-.592 0-1.056-.166-1.394-.499-.332-.339-.509-.81-.53-1.412l-.009-.332.008-.333c.022-.602.2-1.073.531-1.405.338-.336.802-.506 1.394-.506.398 0 .736.073 1.012.215.277.145.482.322.614.533.139.211.213.423.224.63a.15.15 0 0 1-.05.135.219.219 0 0 1-.14.049h-.399c-.055 0-.097-.01-.124-.031a.378.378 0 0 1-.083-.135c-.094-.267-.227-.454-.398-.565-.172-.117-.388-.173-.648-.173-.342 0-.616.107-.82.322-.2.211-.308.537-.325.973l-.008.298.009.283c.016.444.124.769.323.98.2.211.473.315.821.315.26 0 .476-.055.648-.166.171-.114.304-.305.398-.571a.378.378 0 0 1 .083-.135c.027-.028.069-.042.124-.042h.399c.055 0 .102.021.14.059a.15.15 0 0 1 .05.135 1.298 1.298 0 0 1-.224.63c-.132.211-.337.388-.614.533-.27.142-.608.215-1.012.215zm4.578 0c-.592 0-1.057-.166-1.394-.499-.332-.339-.509-.81-.531-1.412l-.008-.332.008-.333c.022-.602.2-1.073.531-1.405.337-.336.802-.506 1.394-.506.398 0 .735.073 1.012.215.277.145.481.322.614.533.138.211.213.423.224.63a.15.15 0 0 1-.05.135.219.219 0 0 1-.14.049h-.4c-.054 0-.096-.01-.123-.031a.378.378 0 0 1-.084-.135c-.094-.267-.226-.454-.398-.565-.171-.117-.387-.173-.647-.173-.343 0-.617.107-.821.322-.2.211-.307.537-.324.973l-.008.298.008.283c.017.444.125.769.324.98.199.211.473.315.821.315.26 0 .476-.055.647-.166.172-.114.304-.305.398-.571a.378.378 0 0 1 .083-.135c.028-.028.07-.042.125-.042h.398c.056 0 .103.021.141.059a.15.15 0 0 1 .05.135 1.3 1.3 0 0 1-.224.63c-.133.211-.337.388-.614.533-.271.142-.608.215-1.012.215zm4.602 0c-.608 0-1.08-.173-1.418-.516-.332-.343-.51-.8-.531-1.37l-.009-.357.009-.357c.022-.564.202-1.021.539-1.364.337-.35.807-.523 1.41-.523.603 0 1.073.174 1.41.523.338.343.518.8.54 1.364.006.059.008.18.008.357 0 .176-.002.297-.008.356-.022.571-.202 1.028-.54 1.371-.331.343-.801.516-1.41.516zm0-.64c.349 0 .623-.111.822-.333.204-.221.315-.54.332-.955a3.85 3.85 0 0 0 .008-.315c0-.156-.003-.26-.008-.315-.017-.416-.128-.734-.332-.956-.2-.221-.473-.332-.822-.332-.348 0-.625.11-.83.332-.204.222-.312.54-.323.956l-.008.315.008.315c.011.415.12.734.324.955.204.222.481.332.83.332zm4.607.64c-.526 0-.932-.17-1.22-.506-.287-.346-.431-.8-.431-1.364V462.5c0-.055.016-.1.05-.132a.195.195 0 0 1 .14-.058h.415c.056 0 .1.02.133.058a.16.16 0 0 1 .058.132v2.302c0 .824.36 1.24 1.079 1.24.348 0 .625-.112.83-.326.204-.222.307-.526.307-.914v-2.302c0-.055.016-.1.05-.132a.195.195 0 0 1 .14-.058h.415c.055 0 .1.02.133.058.033.032.05.077.05.132v3.94c0 .055-.017.1-.05.141a.187.187 0 0 1-.133.049h-.39a.22.22 0 0 1-.14-.049.217.217 0 0 1-.05-.142v-.367c-.156.212-.344.37-.565.482-.221.107-.495.159-.821.159zm3.572-.083a.219.219 0 0 1-.14-.049.217.217 0 0 1-.05-.142v-3.94c0-.054.016-.1.05-.13a.195.195 0 0 1 .14-.06h.39c.055 0 .1.021.133.06a.16.16 0 0 1 .058.13v.368a1.71 1.71 0 0 1 .564-.474c.221-.111.495-.167.821-.167.531 0 .944.174 1.237.516.298.336.448.79.448 1.354v2.343c0 .056-.02.1-.058.142a.187.187 0 0 1-.133.049h-.415a.219.219 0 0 1-.14-.049.217.217 0 0 1-.05-.142v-2.302c0-.394-.098-.699-.291-.914-.188-.214-.462-.325-.822-.325-.348 0-.625.11-.83.332-.204.218-.306.52-.306.907v2.302c0 .056-.02.1-.058.142a.187.187 0 0 1-.133.049zm6.469 0c-.874 0-1.311-.488-1.311-1.461v-2.195h-.648a.219.219 0 0 1-.14-.048.217.217 0 0 1-.05-.142v-.284c0-.055.016-.1.05-.132a.195.195 0 0 1 .14-.058h.648v-1.389c0-.055.016-.1.05-.131a.195.195 0 0 1 .14-.059h.39c.056 0 .1.02.133.059a.16.16 0 0 1 .058.131v1.389h1.029c.055 0 .1.02.133.058a.16.16 0 0 1 .058.132v.284c0 .055-.02.1-.058.142a.187.187 0 0 1-.133.048h-1.029v2.136c0 .277.047.488.141.63.094.139.25.208.465.208h.506c.055 0 .1.02.133.059a.165.165 0 0 1 .058.131v.301c0 .056-.02.1-.058.142a.187.187 0 0 1-.133.049z"/></g></g></svg>