<svg width="24" height="22" viewBox="0 0 24 22" fill="none" xmlns="http://www.w3.org/2000/svg">
<g opacity="0.5">
<path fill-rule="evenodd" clip-rule="evenodd" d="M16.8293 4H2.17071C2.58254 2.83481 3.69378 2 5 2H14C15.3062 2 16.4175 2.83481 16.8293 4ZM14 0C16.4204 0 18.4392 1.71986 18.9008 4.00419C19.3222 4.012 19.6638 4.03409 19.9755 4.09607C21.9589 4.49061 23.5094 6.0411 23.9039 8.02455C24.0004 8.50935 24.0002 9.06663 24 9.88422V9.88426L24 10V14C24 14.5523 23.5523 15 23 15C22.4477 15 22 14.5523 22 14V10C22 9.02276 21.9952 8.68018 21.9424 8.41473C21.7056 7.22466 20.7753 6.29436 19.5853 6.05764C19.3198 6.00484 18.9772 6 18 6H2V12.6C2 13.7366 2.00078 14.5289 2.05118 15.1458C2.10062 15.7509 2.19279 16.0986 2.32698 16.362C2.6146 16.9265 3.07354 17.3854 3.63803 17.673C3.90138 17.8072 4.24907 17.8994 4.85424 17.9488C5.47108 17.9992 6.2634 18 7.4 18H10C10.5523 18 11 18.4477 11 19C11 19.5523 10.5523 20 10 20H7.4H7.35717H7.35707C6.27334 20 5.39923 20 4.69138 19.9422C3.96253 19.8826 3.32234 19.7568 2.73005 19.455C1.78924 18.9757 1.02434 18.2108 0.544968 17.27C0.243181 16.6777 0.117368 16.0375 0.0578185 15.3086C-1.75089e-05 14.6007 -9.52191e-06 13.7266 2.53247e-07 12.6428V12.6V5C2.53247e-07 2.23858 2.23858 0 5 0H14ZM16 11C15.4477 11 15 11.4477 15 12C15 12.5523 15.4477 13 16 13H18C18.5523 13 19 12.5523 19 12C19 11.4477 18.5523 11 18 11H16Z" fill="#C8D5E8"/>
<path d="M23 19L21 17M23 19L21 21M23 19H14" stroke="#C8D5E8" stroke-width="2" stroke-linecap="round" stroke-linejoin="round"/>
</g>
</svg>
