<svg xmlns="http://www.w3.org/2000/svg" width="24" height="20" viewBox="0 0 24 20"><g><g opacity=".5"><path fill="#c8d5e8" d="M16.83 4A3.001 3.001 0 0 0 14 2H5a3.001 3.001 0 0 0-2.83 2zM14 0c2.42 0 4.44 1.72 4.9 4.004.422.008.764.03 1.076.092a5 5 0 0 1 3.928 3.929C24 8.509 24 9.067 24 9.885v2.758c0 1.084 0 1.958-.058 2.666-.06.728-.185 1.369-.487 1.961a5 5 0 0 1-2.185 2.185c-.592.302-1.232.428-1.961.487C18.6 20 17.727 20 16.643 20H7.357c-1.084 0-1.958 0-2.666-.058-.728-.06-1.369-.185-1.961-.487A5 5 0 0 1 .545 17.27c-.302-.592-.428-1.232-.487-1.961C0 14.6 0 13.727 0 12.643V5a5 5 0 0 1 5-5zM2 12.6c0 1.137 0 1.929.051 2.546.05.605.142.953.276 1.216a3 3 0 0 0 1.311 1.311c.263.134.611.226 1.216.276.617.05 1.41.051 2.546.051h9.2c1.137 0 1.929 0 2.546-.051.605-.05.953-.142 1.216-.276a3 3 0 0 0 1.311-1.311c.134-.263.226-.611.276-1.216.05-.617.051-1.41.051-2.546V10c0-.977-.005-1.32-.058-1.585a3 3 0 0 0-2.357-2.357C19.32 6.005 18.977 6 18 6H2zM18 11a1 1 0 1 1 0 2h-2a1 1 0 1 1 0-2z"/></g></g></svg>