<svg xmlns="http://www.w3.org/2000/svg" width="28" height="28" viewBox="0 0 28 28"><g><g opacity=".5"><path fill="#c8d5e8" d="M14 2C7.373 2 2 7.373 2 14s5.373 12 12 12 12-5.373 12-12S20.627 2 14 2zm14 12c0 7.732-6.268 14-14 14S0 21.732 0 14 6.268 0 14 0s14 6.268 14 14zm-14 6c2.203 0 4.076-1.223 4.94-2.948a1 1 0 1 1 1.787.896C19.52 20.36 16.947 22 14 22c-2.947 0-5.52-1.639-6.728-4.052a1 1 0 0 1 1.789-.896C9.924 18.777 11.797 20 14 20zm-2.333-8.917a1.75 1.75 0 1 1-3.5 0 1.75 1.75 0 0 1 3.5 0zm4.666 0a1.75 1.75 0 1 1 3.5 0 1.75 1.75 0 0 1-3.5 0z"/></g></g></svg>