<svg xmlns="http://www.w3.org/2000/svg" width="16" height="14" viewBox="0 0 16 14"><g><g><path fill="#fb3e3e" d="M6.702 1.725C7.28.735 7.567.24 7.998.24c.432 0 .72.495 1.297 1.485l1.038 1.783c.164.281.246.422.373.515.128.092.287.127.606.196l2.016.436c1.12.243 1.68.364 1.813.774.133.41-.249.837-1.012 1.692l-1.375 1.538c-.217.243-.325.364-.374.514-.049.15-.032.313 0 .637l.208 2.052c.116 1.14.173 1.71-.175 1.963-.35.254-.873.023-1.922-.44l-1.888-.831c-.298-.131-.447-.197-.605-.197-.157 0-.306.066-.604.197l-1.888.832c-1.049.462-1.573.693-1.922.44-.349-.254-.29-.824-.175-1.964l.207-2.052c.033-.324.05-.486 0-.637-.048-.15-.156-.271-.373-.514L1.868 7.121C1.105 6.266.723 5.839.856 5.429c.133-.41.693-.531 1.813-.774l2.016-.436c.319-.07.478-.104.605-.196.128-.093.21-.234.374-.515z"/></g></g></svg>