<svg width="248" height="392" viewBox="0 0 248 392" fill="none" xmlns="http://www.w3.org/2000/svg">
<rect width="248" height="392" rx="30" fill="#151A23"/>
<path d="M86.9107 38H84.4807L81.8167 33.518H79.7287V38H77.6227V25.994H82.8967C84.0727 25.994 85.0207 26.342 85.7407 27.038C86.4607 27.734 86.8207 28.64 86.8207 29.756C86.8207 30.764 86.5447 31.574 85.9927 32.186C85.4407 32.786 84.7687 33.152 83.9767 33.284L86.9107 38ZM82.6087 31.664C83.2087 31.664 83.7007 31.49 84.0847 31.142C84.4687 30.794 84.6607 30.332 84.6607 29.756C84.6607 29.18 84.4687 28.718 84.0847 28.37C83.7007 28.022 83.2087 27.848 82.6087 27.848H79.7287V31.664H82.6087ZM92.3405 38.216C91.0205 38.216 89.9285 37.796 89.0645 36.956C88.2125 36.104 87.7865 35 87.7865 33.644C87.7865 32.372 88.2005 31.298 89.0285 30.422C89.8685 29.534 90.9245 29.09 92.1965 29.09C93.4805 29.09 94.5125 29.534 95.2925 30.422C96.0845 31.31 96.4805 32.444 96.4805 33.824V34.274H89.7665C89.8385 34.958 90.1205 35.528 90.6125 35.984C91.1045 36.44 91.7465 36.668 92.5385 36.668C92.9825 36.668 93.4265 36.584 93.8705 36.416C94.3265 36.248 94.7045 36.014 95.0045 35.714L95.8685 36.956C94.9925 37.796 93.8165 38.216 92.3405 38.216ZM94.6445 32.942C94.6205 32.342 94.3985 31.808 93.9785 31.34C93.5705 30.872 92.9765 30.638 92.1965 30.638C91.4525 30.638 90.8705 30.872 90.4505 31.34C90.0305 31.796 89.7965 32.33 89.7485 32.942H94.6445ZM101.874 41.528C100.398 41.528 99.1861 41.096 98.2381 40.232L99.1201 38.864C99.7681 39.608 100.686 39.98 101.874 39.98C102.594 39.98 103.2 39.788 103.692 39.404C104.196 39.032 104.448 38.438 104.448 37.622V36.578C103.704 37.538 102.774 38.018 101.658 38.018C100.518 38.018 99.5881 37.622 98.8681 36.83C98.1601 36.038 97.8061 34.946 97.8061 33.554C97.8061 32.174 98.1601 31.088 98.8681 30.296C99.5881 29.492 100.518 29.09 101.658 29.09C102.798 29.09 103.728 29.564 104.448 30.512V29.306H106.338V37.55C106.338 38.294 106.206 38.936 105.942 39.476C105.69 40.028 105.342 40.442 104.898 40.718C104.454 41.006 103.98 41.21 103.476 41.33C102.984 41.462 102.45 41.528 101.874 41.528ZM102.216 36.344C102.648 36.344 103.074 36.23 103.494 36.002C103.914 35.774 104.232 35.498 104.448 35.174V31.934C104.232 31.61 103.914 31.334 103.494 31.106C103.074 30.878 102.648 30.764 102.216 30.764C101.472 30.764 100.878 31.022 100.434 31.538C99.9901 32.042 99.7681 32.714 99.7681 33.554C99.7681 34.394 99.9901 35.072 100.434 35.588C100.878 36.092 101.472 36.344 102.216 36.344ZM109.723 28.244C109.411 28.244 109.135 28.13 108.895 27.902C108.667 27.674 108.553 27.398 108.553 27.074C108.553 26.75 108.667 26.474 108.895 26.246C109.135 26.018 109.411 25.904 109.723 25.904C110.047 25.904 110.323 26.018 110.551 26.246C110.779 26.474 110.893 26.75 110.893 27.074C110.893 27.398 110.779 27.674 110.551 27.902C110.323 28.13 110.047 28.244 109.723 28.244ZM110.677 38H108.787V29.306H110.677V38ZM116.099 38.216C114.539 38.216 113.297 37.766 112.373 36.866L113.237 35.498C113.561 35.834 113.999 36.122 114.551 36.362C115.103 36.602 115.649 36.722 116.189 36.722C116.741 36.722 117.161 36.614 117.449 36.398C117.749 36.182 117.899 35.9 117.899 35.552C117.899 35.24 117.719 35 117.359 34.832C116.999 34.652 116.561 34.514 116.045 34.418C115.529 34.31 115.013 34.184 114.497 34.04C113.981 33.884 113.543 33.614 113.183 33.23C112.823 32.846 112.643 32.348 112.643 31.736C112.643 30.992 112.949 30.368 113.561 29.864C114.173 29.348 115.007 29.09 116.063 29.09C117.395 29.09 118.523 29.498 119.447 30.314L118.655 31.646C118.379 31.334 118.013 31.082 117.557 30.89C117.101 30.698 116.609 30.602 116.081 30.602C115.589 30.602 115.193 30.704 114.893 30.908C114.605 31.1 114.461 31.352 114.461 31.664C114.461 31.904 114.587 32.102 114.839 32.258C115.103 32.402 115.427 32.51 115.811 32.582C116.207 32.654 116.633 32.756 117.089 32.888C117.545 33.008 117.965 33.152 118.349 33.32C118.745 33.488 119.069 33.764 119.321 34.148C119.585 34.52 119.717 34.976 119.717 35.516C119.717 36.308 119.399 36.956 118.763 37.46C118.127 37.964 117.239 38.216 116.099 38.216ZM124.23 38.216C123.498 38.216 122.94 38.024 122.556 37.64C122.184 37.256 121.998 36.704 121.998 35.984V30.962H120.558V29.306H121.998V26.93H123.888V29.306H125.652V30.962H123.888V35.516C123.888 35.828 123.96 36.08 124.104 36.272C124.248 36.452 124.452 36.542 124.716 36.542C125.1 36.542 125.382 36.44 125.562 36.236L126.012 37.658C125.616 38.03 125.022 38.216 124.23 38.216ZM129.258 38H127.368V29.306H129.258V30.584C129.594 30.152 130.014 29.798 130.518 29.522C131.022 29.246 131.544 29.108 132.084 29.108V30.98C131.916 30.944 131.718 30.926 131.49 30.926C131.094 30.926 130.668 31.046 130.212 31.286C129.768 31.514 129.45 31.778 129.258 32.078V38ZM140.808 38H138.918V37.064C138.246 37.832 137.31 38.216 136.11 38.216C135.318 38.216 134.616 37.964 134.004 37.46C133.392 36.944 133.086 36.236 133.086 35.336C133.086 34.412 133.386 33.71 133.986 33.23C134.598 32.75 135.306 32.51 136.11 32.51C137.346 32.51 138.282 32.882 138.918 33.626V32.33C138.918 31.826 138.732 31.43 138.36 31.142C137.988 30.854 137.496 30.71 136.884 30.71C135.912 30.71 135.054 31.076 134.31 31.808L133.536 30.494C134.52 29.558 135.738 29.09 137.19 29.09C138.258 29.09 139.128 29.342 139.8 29.846C140.472 30.35 140.808 31.148 140.808 32.24V38ZM136.848 36.92C137.796 36.92 138.486 36.62 138.918 36.02V34.706C138.486 34.106 137.796 33.806 136.848 33.806C136.308 33.806 135.864 33.95 135.516 34.238C135.168 34.526 134.994 34.904 134.994 35.372C134.994 35.84 135.168 36.218 135.516 36.506C135.864 36.782 136.308 36.92 136.848 36.92ZM145.868 38.216C145.136 38.216 144.578 38.024 144.194 37.64C143.822 37.256 143.636 36.704 143.636 35.984V30.962H142.196V29.306H143.636V26.93H145.526V29.306H147.29V30.962H145.526V35.516C145.526 35.828 145.598 36.08 145.742 36.272C145.886 36.452 146.09 36.542 146.354 36.542C146.738 36.542 147.02 36.44 147.2 36.236L147.65 37.658C147.254 38.03 146.66 38.216 145.868 38.216ZM149.942 28.244C149.63 28.244 149.354 28.13 149.114 27.902C148.886 27.674 148.772 27.398 148.772 27.074C148.772 26.75 148.886 26.474 149.114 26.246C149.354 26.018 149.63 25.904 149.942 25.904C150.266 25.904 150.542 26.018 150.77 26.246C150.998 26.474 151.112 26.75 151.112 27.074C151.112 27.398 150.998 27.674 150.77 27.902C150.542 28.13 150.266 28.244 149.942 28.244ZM150.896 38H149.006V29.306H150.896V38ZM157.272 38.216C155.928 38.216 154.848 37.778 154.032 36.902C153.216 36.014 152.808 34.928 152.808 33.644C152.808 32.36 153.216 31.28 154.032 30.404C154.848 29.528 155.928 29.09 157.272 29.09C158.628 29.09 159.714 29.528 160.53 30.404C161.346 31.28 161.754 32.36 161.754 33.644C161.754 34.94 161.346 36.026 160.53 36.902C159.714 37.778 158.628 38.216 157.272 38.216ZM157.272 36.542C158.052 36.542 158.664 36.266 159.108 35.714C159.564 35.15 159.792 34.46 159.792 33.644C159.792 32.84 159.564 32.162 159.108 31.61C158.664 31.046 158.052 30.764 157.272 30.764C156.504 30.764 155.892 31.046 155.436 31.61C154.992 32.162 154.77 32.84 154.77 33.644C154.77 34.46 154.992 35.15 155.436 35.714C155.892 36.266 156.504 36.542 157.272 36.542ZM171.424 38H169.534V32.564C169.534 31.364 168.952 30.764 167.788 30.764C167.332 30.764 166.906 30.878 166.51 31.106C166.114 31.334 165.796 31.61 165.556 31.934V38H163.666V29.306H165.556V30.494C165.88 30.11 166.312 29.78 166.852 29.504C167.392 29.228 167.98 29.09 168.616 29.09C169.54 29.09 170.236 29.33 170.704 29.81C171.184 30.29 171.424 30.98 171.424 31.88V38Z" fill="white"/>
<rect x="20.5" y="59.5" width="207" height="38" rx="9.5" fill="#131820" stroke="#191F2B"/>
<path d="M41.24 83H34.248V72.328H41.24V73.512H35.576V76.952H41.128V78.136H35.576V81.816H41.24V83ZM46.4294 79.656H42.5894V78.6H46.4294V79.656ZM58.6343 83H57.4343V77.752C57.4343 76.6853 56.9596 76.152 56.0103 76.152C55.6263 76.152 55.2423 76.2693 54.8583 76.504C54.4743 76.7387 54.1756 77.016 53.9623 77.336V83H52.7623V77.752C52.7623 76.6853 52.2876 76.152 51.3383 76.152C50.9649 76.152 50.5863 76.2693 50.2023 76.504C49.8289 76.7387 49.5303 77.0213 49.3063 77.352V83H48.1063V75.272H49.3063V76.392C49.4983 76.0933 49.8343 75.8 50.3143 75.512C50.7943 75.224 51.2903 75.08 51.8023 75.08C52.3676 75.08 52.8263 75.2133 53.1783 75.48C53.5303 75.7467 53.7649 76.0933 53.8823 76.52C54.1169 76.136 54.4743 75.8 54.9543 75.512C55.4343 75.224 55.9409 75.08 56.4743 75.08C57.9143 75.08 58.6343 75.8587 58.6343 77.416V83ZM67.0601 83H65.8601V82.12C65.2095 82.8347 64.3561 83.192 63.3001 83.192C62.5855 83.192 61.9561 82.9627 61.4121 82.504C60.8681 82.0453 60.5961 81.4213 60.5961 80.632C60.5961 79.8213 60.8628 79.1973 61.3961 78.76C61.9401 78.312 62.5748 78.088 63.3001 78.088C64.3988 78.088 65.2521 78.44 65.8601 79.144V77.752C65.8601 77.24 65.6788 76.84 65.3161 76.552C64.9535 76.264 64.4841 76.12 63.9081 76.12C63.0015 76.12 62.2121 76.4773 61.5401 77.192L60.9801 76.36C61.8015 75.5067 62.8308 75.08 64.0681 75.08C64.9535 75.08 65.6735 75.2933 66.2281 75.72C66.7828 76.1467 67.0601 76.8027 67.0601 77.688V83ZM63.7321 82.328C64.6921 82.328 65.4015 82.008 65.8601 81.368V79.912C65.4015 79.272 64.6921 78.952 63.7321 78.952C63.1775 78.952 62.7188 79.112 62.3561 79.432C62.0041 79.7413 61.8281 80.1467 61.8281 80.648C61.8281 81.1387 62.0041 81.544 62.3561 81.864C62.7188 82.1733 63.1775 82.328 63.7321 82.328ZM70.0576 74.168C69.8443 74.168 69.6576 74.0933 69.4976 73.944C69.3376 73.784 69.2576 73.592 69.2576 73.368C69.2576 73.144 69.3376 72.952 69.4976 72.792C69.6576 72.632 69.8443 72.552 70.0576 72.552C70.2816 72.552 70.4736 72.632 70.6336 72.792C70.7936 72.952 70.8736 73.144 70.8736 73.368C70.8736 73.592 70.7936 73.784 70.6336 73.944C70.4736 74.0933 70.2816 74.168 70.0576 74.168ZM70.6656 83H69.4656V75.272H70.6656V83ZM74.2594 83H73.0594V72.328H74.2594V83Z" fill="#5D6574"/>
<rect x="20.5" y="113.5" width="207" height="38" rx="9.5" fill="#131820" stroke="#191F2B"/>
<path d="M43.08 137H41.8L35.576 128.488V137H34.248V126.328H35.608L41.752 134.664V126.328H43.08V137ZM46.1201 128.168C45.9068 128.168 45.7201 128.093 45.5601 127.944C45.4001 127.784 45.3201 127.592 45.3201 127.368C45.3201 127.144 45.4001 126.952 45.5601 126.792C45.7201 126.632 45.9068 126.552 46.1201 126.552C46.3441 126.552 46.5361 126.632 46.6961 126.792C46.8561 126.952 46.9361 127.144 46.9361 127.368C46.9361 127.592 46.8561 127.784 46.6961 127.944C46.5361 128.093 46.3441 128.168 46.1201 128.168ZM46.7281 137H45.5281V129.272H46.7281V137ZM52.5299 137.192C51.3885 137.192 50.4605 136.808 49.7459 136.04C49.0312 135.261 48.6739 134.291 48.6739 133.128C48.6739 131.965 49.0312 131 49.7459 130.232C50.4605 129.464 51.3885 129.08 52.5299 129.08C53.7245 129.08 54.6685 129.528 55.3619 130.424L54.5619 131.16C54.0712 130.488 53.4152 130.152 52.5939 130.152C51.7832 130.152 51.1325 130.429 50.6419 130.984C50.1619 131.539 49.9219 132.253 49.9219 133.128C49.9219 134.003 50.1619 134.723 50.6419 135.288C51.1325 135.843 51.7832 136.12 52.5939 136.12C53.4045 136.12 54.0605 135.784 54.5619 135.112L55.3619 135.848C54.6685 136.744 53.7245 137.192 52.5299 137.192ZM63.8438 137H62.3078L59.5238 133.528L58.2438 134.792V137H57.0438V126.328H58.2438V133.384L62.3078 129.272H63.8278L60.4038 132.776L63.8438 137ZM71.6785 137H70.4785V131.944C70.4785 131.293 70.3292 130.835 70.0305 130.568C69.7318 130.291 69.3052 130.152 68.7505 130.152C68.3025 130.152 67.8652 130.269 67.4385 130.504C67.0225 130.739 66.6972 131.021 66.4625 131.352V137H65.2625V129.272H66.4625V130.392C66.7612 130.04 67.1612 129.736 67.6625 129.48C68.1638 129.213 68.6812 129.08 69.2145 129.08C70.8572 129.08 71.6785 129.912 71.6785 131.576V137ZM80.107 137H78.907V136.12C78.2563 136.835 77.403 137.192 76.347 137.192C75.6323 137.192 75.003 136.963 74.459 136.504C73.915 136.045 73.643 135.421 73.643 134.632C73.643 133.821 73.9097 133.197 74.443 132.76C74.987 132.312 75.6217 132.088 76.347 132.088C77.4457 132.088 78.299 132.44 78.907 133.144V131.752C78.907 131.24 78.7257 130.84 78.363 130.552C78.0003 130.264 77.531 130.12 76.955 130.12C76.0483 130.12 75.259 130.477 74.587 131.192L74.027 130.36C74.8483 129.507 75.8777 129.08 77.115 129.08C78.0003 129.08 78.7203 129.293 79.275 129.72C79.8297 130.147 80.107 130.803 80.107 131.688V137ZM76.779 136.328C77.739 136.328 78.4483 136.008 78.907 135.368V133.912C78.4483 133.272 77.739 132.952 76.779 132.952C76.2243 132.952 75.7657 133.112 75.403 133.432C75.051 133.741 74.875 134.147 74.875 134.648C74.875 135.139 75.051 135.544 75.403 135.864C75.7657 136.173 76.2243 136.328 76.779 136.328ZM93.0405 137H91.8405V131.752C91.8405 130.685 91.3658 130.152 90.4165 130.152C90.0325 130.152 89.6485 130.269 89.2645 130.504C88.8805 130.739 88.5818 131.016 88.3685 131.336V137H87.1685V131.752C87.1685 130.685 86.6938 130.152 85.7445 130.152C85.3712 130.152 84.9925 130.269 84.6085 130.504C84.2352 130.739 83.9365 131.021 83.7125 131.352V137H82.5125V129.272H83.7125V130.392C83.9045 130.093 84.2405 129.8 84.7205 129.512C85.2005 129.224 85.6965 129.08 86.2085 129.08C86.7738 129.08 87.2325 129.213 87.5845 129.48C87.9365 129.747 88.1712 130.093 88.2885 130.52C88.5232 130.136 88.8805 129.8 89.3605 129.512C89.8405 129.224 90.3472 129.08 90.8805 129.08C92.3205 129.08 93.0405 129.859 93.0405 131.416V137ZM98.9224 137.192C97.7704 137.192 96.8264 136.819 96.0904 136.072C95.3544 135.315 94.9864 134.333 94.9864 133.128C94.9864 131.997 95.349 131.043 96.0744 130.264C96.7997 129.475 97.7064 129.08 98.7944 129.08C99.9357 129.08 100.837 129.475 101.498 130.264C102.17 131.043 102.506 132.029 102.506 133.224V133.528H96.2504C96.3037 134.285 96.581 134.92 97.0824 135.432C97.5837 135.944 98.2344 136.2 99.0344 136.2C99.9944 136.2 100.789 135.875 101.418 135.224L101.994 136.008C101.205 136.797 100.181 137.192 98.9224 137.192ZM101.322 132.648C101.312 131.987 101.088 131.395 100.65 130.872C100.213 130.339 99.589 130.072 98.7784 130.072C98.0104 130.072 97.4024 130.333 96.9544 130.856C96.517 131.379 96.2824 131.976 96.2504 132.648H101.322Z" fill="#5D6574"/>
<rect x="20.5" y="167.5" width="207" height="38" rx="9.5" fill="#131820" stroke="#191F2B"/>
<path d="M35.576 191H34.248V180.328H38.536C39.5707 180.328 40.3867 180.637 40.984 181.256C41.5813 181.875 41.88 182.637 41.88 183.544C41.88 184.451 41.576 185.213 40.968 185.832C40.3707 186.451 39.56 186.76 38.536 186.76H35.576V191ZM38.376 185.576C39.0053 185.576 39.5173 185.389 39.912 185.016C40.3067 184.632 40.504 184.141 40.504 183.544C40.504 182.947 40.3067 182.461 39.912 182.088C39.5173 181.704 39.0053 181.512 38.376 181.512H35.576V185.576H38.376ZM49.3101 191H48.1101V190.12C47.4595 190.835 46.6061 191.192 45.5501 191.192C44.8355 191.192 44.2061 190.963 43.6621 190.504C43.1181 190.045 42.8461 189.421 42.8461 188.632C42.8461 187.821 43.1128 187.197 43.6461 186.76C44.1901 186.312 44.8248 186.088 45.5501 186.088C46.6488 186.088 47.5021 186.44 48.1101 187.144V185.752C48.1101 185.24 47.9288 184.84 47.5661 184.552C47.2035 184.264 46.7341 184.12 46.1581 184.12C45.2515 184.12 44.4621 184.477 43.7901 185.192L43.2301 184.36C44.0515 183.507 45.0808 183.08 46.3181 183.08C47.2035 183.08 47.9235 183.293 48.4781 183.72C49.0328 184.147 49.3101 184.803 49.3101 185.688V191ZM45.9821 190.328C46.9421 190.328 47.6515 190.008 48.1101 189.368V187.912C47.6515 187.272 46.9421 186.952 45.9821 186.952C45.4275 186.952 44.9688 187.112 44.6061 187.432C44.2541 187.741 44.0781 188.147 44.0781 188.648C44.0781 189.139 44.2541 189.544 44.6061 189.864C44.9688 190.173 45.4275 190.328 45.9821 190.328ZM54.1636 191.192C52.8516 191.192 51.8116 190.787 51.0436 189.976L51.6676 189.112C51.9343 189.421 52.297 189.683 52.7556 189.896C53.225 190.109 53.7103 190.216 54.2116 190.216C54.7876 190.216 55.2356 190.093 55.5556 189.848C55.8756 189.603 56.0356 189.283 56.0356 188.888C56.0356 188.547 55.8703 188.28 55.5396 188.088C55.209 187.885 54.809 187.736 54.3396 187.64C53.881 187.533 53.417 187.416 52.9476 187.288C52.4783 187.149 52.0783 186.92 51.7476 186.6C51.417 186.269 51.2516 185.837 51.2516 185.304C51.2516 184.675 51.5076 184.147 52.0196 183.72C52.5423 183.293 53.2463 183.08 54.1316 183.08C55.2943 183.08 56.249 183.453 56.9956 184.2L56.4356 185.032C55.8916 184.381 55.1236 184.056 54.1316 184.056C53.609 184.056 53.193 184.173 52.8836 184.408C52.5743 184.632 52.4196 184.92 52.4196 185.272C52.4196 185.581 52.585 185.827 52.9156 186.008C53.2463 186.179 53.641 186.317 54.0996 186.424C54.569 186.52 55.0383 186.637 55.5076 186.776C55.977 186.915 56.377 187.16 56.7076 187.512C57.0383 187.853 57.2036 188.301 57.2036 188.856C57.2036 189.539 56.937 190.099 56.4036 190.536C55.8703 190.973 55.1236 191.192 54.1636 191.192ZM61.6011 191.192C60.2891 191.192 59.2491 190.787 58.4811 189.976L59.1051 189.112C59.3718 189.421 59.7345 189.683 60.1931 189.896C60.6625 190.109 61.1478 190.216 61.6491 190.216C62.2251 190.216 62.6731 190.093 62.9931 189.848C63.3131 189.603 63.4731 189.283 63.4731 188.888C63.4731 188.547 63.3078 188.28 62.9771 188.088C62.6465 187.885 62.2465 187.736 61.7771 187.64C61.3185 187.533 60.8545 187.416 60.3851 187.288C59.9158 187.149 59.5158 186.92 59.1851 186.6C58.8545 186.269 58.6891 185.837 58.6891 185.304C58.6891 184.675 58.9451 184.147 59.4571 183.72C59.9798 183.293 60.6838 183.08 61.5691 183.08C62.7318 183.08 63.6865 183.453 64.4331 184.2L63.8731 185.032C63.3291 184.381 62.5611 184.056 61.5691 184.056C61.0465 184.056 60.6305 184.173 60.3211 184.408C60.0118 184.632 59.8571 184.92 59.8571 185.272C59.8571 185.581 60.0225 185.827 60.3531 186.008C60.6838 186.179 61.0785 186.317 61.5371 186.424C62.0065 186.52 62.4758 186.637 62.9451 186.776C63.4145 186.915 63.8145 187.16 64.1451 187.512C64.4758 187.853 64.6411 188.301 64.6411 188.856C64.6411 189.539 64.3745 190.099 63.8411 190.536C63.3078 190.973 62.5611 191.192 61.6011 191.192ZM74.4786 191H73.2786L71.2626 184.792L69.2466 191H68.0466L65.5826 183.272H66.8306L68.7186 189.432L70.7506 183.272H71.7746L73.8066 189.432L75.6946 183.272H76.9426L74.4786 191ZM84.4846 190.024C83.7913 190.803 82.8686 191.192 81.7166 191.192C80.5646 191.192 79.6366 190.803 78.9326 190.024C78.2393 189.245 77.8926 188.28 77.8926 187.128C77.8926 185.976 78.2393 185.016 78.9326 184.248C79.6366 183.469 80.5646 183.08 81.7166 183.08C82.8686 183.08 83.7913 183.469 84.4846 184.248C85.1886 185.016 85.5406 185.976 85.5406 187.128C85.5406 188.28 85.1886 189.245 84.4846 190.024ZM79.8286 189.256C80.298 189.832 80.9273 190.12 81.7166 190.12C82.506 190.12 83.13 189.832 83.5886 189.256C84.0473 188.669 84.2766 187.96 84.2766 187.128C84.2766 186.296 84.0473 185.592 83.5886 185.016C83.13 184.44 82.506 184.152 81.7166 184.152C80.9273 184.152 80.298 184.445 79.8286 185.032C79.37 185.608 79.1406 186.307 79.1406 187.128C79.1406 187.96 79.37 188.669 79.8286 189.256ZM88.6969 191H87.4969V183.272H88.6969V184.52C89.4115 183.581 90.2702 183.112 91.2729 183.112V184.344C91.1235 184.312 90.9635 184.296 90.7929 184.296C90.4302 184.296 90.0355 184.424 89.6089 184.68C89.1822 184.936 88.8782 185.219 88.6969 185.528V191ZM99.5781 191H98.3781V189.848C97.7168 190.744 96.8475 191.192 95.7701 191.192C94.7461 191.192 93.9141 190.829 93.2741 190.104C92.6448 189.368 92.3301 188.381 92.3301 187.144C92.3301 185.917 92.6448 184.936 93.2741 184.2C93.9141 183.453 94.7461 183.08 95.7701 183.08C96.8368 183.08 97.7061 183.533 98.3781 184.44V180.328H99.5781V191ZM96.0581 190.12C96.5275 190.12 96.9755 190.003 97.4021 189.768C97.8288 189.533 98.1541 189.245 98.3781 188.904V185.4C98.1541 185.048 97.8235 184.755 97.3861 184.52C96.9595 184.275 96.5168 184.152 96.0581 184.152C95.3008 184.152 94.6981 184.435 94.2501 185C93.8021 185.555 93.5781 186.269 93.5781 187.144C93.5781 188.019 93.8021 188.733 94.2501 189.288C94.6981 189.843 95.3008 190.12 96.0581 190.12Z" fill="#5D6574"/>
<rect x="20.5" y="221.5" width="207" height="38" rx="9.5" fill="#131820" stroke="#191F2B"/>
<path d="M39.304 245.192C37.7467 245.192 36.44 244.68 35.384 243.656C34.3387 242.621 33.816 241.293 33.816 239.672C33.816 238.051 34.3387 236.728 35.384 235.704C36.44 234.669 37.7467 234.152 39.304 234.152C41.0107 234.152 42.36 234.856 43.352 236.264L42.232 236.888C41.9227 236.429 41.5067 236.056 40.984 235.768C40.4613 235.48 39.9013 235.336 39.304 235.336C38.1307 235.336 37.1493 235.747 36.36 236.568C35.5813 237.379 35.192 238.413 35.192 239.672C35.192 240.931 35.5813 241.971 36.36 242.792C37.1493 243.603 38.1307 244.008 39.304 244.008C39.9013 244.008 40.4613 243.869 40.984 243.592C41.5067 243.304 41.9227 242.925 42.232 242.456L43.368 243.08C42.3333 244.488 40.9787 245.192 39.304 245.192ZM51.1565 244.024C50.4632 244.803 49.5405 245.192 48.3885 245.192C47.2365 245.192 46.3085 244.803 45.6045 244.024C44.9112 243.245 44.5645 242.28 44.5645 241.128C44.5645 239.976 44.9112 239.016 45.6045 238.248C46.3085 237.469 47.2365 237.08 48.3885 237.08C49.5405 237.08 50.4632 237.469 51.1565 238.248C51.8605 239.016 52.2125 239.976 52.2125 241.128C52.2125 242.28 51.8605 243.245 51.1565 244.024ZM46.5005 243.256C46.9698 243.832 47.5992 244.12 48.3885 244.12C49.1778 244.12 49.8018 243.832 50.2605 243.256C50.7192 242.669 50.9485 241.96 50.9485 241.128C50.9485 240.296 50.7192 239.592 50.2605 239.016C49.8018 238.44 49.1778 238.152 48.3885 238.152C47.5992 238.152 46.9698 238.445 46.5005 239.032C46.0418 239.608 45.8125 240.307 45.8125 241.128C45.8125 241.96 46.0418 242.669 46.5005 243.256ZM60.5848 245H59.3848V239.944C59.3848 239.293 59.2354 238.835 58.9368 238.568C58.6381 238.291 58.2114 238.152 57.6568 238.152C57.2088 238.152 56.7714 238.269 56.3448 238.504C55.9288 238.739 55.6034 239.021 55.3688 239.352V245H54.1688V237.272H55.3688V238.392C55.6674 238.04 56.0674 237.736 56.5688 237.48C57.0701 237.213 57.5874 237.08 58.1208 237.08C59.7634 237.08 60.5848 237.912 60.5848 239.576V245ZM64.5173 245H63.3173V238.328H62.0373V237.272H63.3173V236.68C63.3173 235.891 63.5199 235.277 63.9253 234.84C64.3306 234.392 64.8746 234.168 65.5573 234.168C66.0479 234.168 66.4373 234.259 66.7253 234.44L66.4213 235.352C66.2186 235.224 65.9893 235.16 65.7333 235.16C65.3386 235.16 65.0346 235.293 64.8213 235.56C64.6186 235.816 64.5173 236.189 64.5173 236.68V237.272H66.0853V238.328H64.5173V245ZM68.1013 236.168C67.8879 236.168 67.7013 236.093 67.5413 235.944C67.3813 235.784 67.3013 235.592 67.3013 235.368C67.3013 235.144 67.3813 234.952 67.5413 234.792C67.7013 234.632 67.8879 234.552 68.1013 234.552C68.3253 234.552 68.5173 234.632 68.6773 234.792C68.8373 234.952 68.9173 235.144 68.9173 235.368C68.9173 235.592 68.8373 235.784 68.6773 235.944C68.5173 236.093 68.3253 236.168 68.1013 236.168ZM68.7093 245H67.5093V237.272H68.7093V245ZM72.3219 245H71.1219V237.272H72.3219V238.52C73.0365 237.581 73.8952 237.112 74.8979 237.112V238.344C74.7485 238.312 74.5885 238.296 74.4179 238.296C74.0552 238.296 73.6605 238.424 73.2339 238.68C72.8072 238.936 72.5032 239.219 72.3219 239.528V245ZM86.9311 245H85.7311V239.752C85.7311 238.685 85.2565 238.152 84.3071 238.152C83.9231 238.152 83.5391 238.269 83.1551 238.504C82.7711 238.739 82.4725 239.016 82.2591 239.336V245H81.0591V239.752C81.0591 238.685 80.5845 238.152 79.6351 238.152C79.2618 238.152 78.8831 238.269 78.4991 238.504C78.1258 238.739 77.8271 239.021 77.6031 239.352V245H76.4031V237.272H77.6031V238.392C77.7951 238.093 78.1311 237.8 78.6111 237.512C79.0911 237.224 79.5871 237.08 80.0991 237.08C80.6645 237.08 81.1231 237.213 81.4751 237.48C81.8271 237.747 82.0618 238.093 82.1791 238.52C82.4138 238.136 82.7711 237.8 83.2511 237.512C83.7311 237.224 84.2378 237.08 84.7711 237.08C86.2111 237.08 86.9311 237.859 86.9311 239.416V245ZM97.258 245.192C96.17 245.192 95.3007 244.739 94.65 243.832V247.944H93.45V237.272H94.65V238.424C94.938 238.019 95.3113 237.693 95.77 237.448C96.2287 237.203 96.7247 237.08 97.258 237.08C98.282 237.08 99.1087 237.448 99.738 238.184C100.378 238.909 100.698 239.891 100.698 241.128C100.698 242.365 100.378 243.352 99.738 244.088C99.1087 244.824 98.282 245.192 97.258 245.192ZM96.954 244.12C97.7113 244.12 98.314 243.843 98.762 243.288C99.21 242.723 99.434 242.003 99.434 241.128C99.434 240.253 99.21 239.539 98.762 238.984C98.314 238.429 97.7113 238.152 96.954 238.152C96.4953 238.152 96.0473 238.275 95.61 238.52C95.1833 238.755 94.8633 239.043 94.65 239.384V242.872C94.8633 243.224 95.1833 243.523 95.61 243.768C96.0473 244.003 96.4953 244.12 96.954 244.12ZM108.638 245H107.438V244.12C106.788 244.835 105.934 245.192 104.878 245.192C104.164 245.192 103.534 244.963 102.99 244.504C102.446 244.045 102.174 243.421 102.174 242.632C102.174 241.821 102.441 241.197 102.974 240.76C103.518 240.312 104.153 240.088 104.878 240.088C105.977 240.088 106.83 240.44 107.438 241.144V239.752C107.438 239.24 107.257 238.84 106.894 238.552C106.532 238.264 106.062 238.12 105.486 238.12C104.58 238.12 103.79 238.477 103.118 239.192L102.558 238.36C103.38 237.507 104.409 237.08 105.646 237.08C106.532 237.08 107.252 237.293 107.806 237.72C108.361 238.147 108.638 238.803 108.638 239.688V245ZM105.31 244.328C106.27 244.328 106.98 244.008 107.438 243.368V241.912C106.98 241.272 106.27 240.952 105.31 240.952C104.756 240.952 104.297 241.112 103.934 241.432C103.582 241.741 103.406 242.147 103.406 242.648C103.406 243.139 103.582 243.544 103.934 243.864C104.297 244.173 104.756 244.328 105.31 244.328ZM113.492 245.192C112.18 245.192 111.14 244.787 110.372 243.976L110.996 243.112C111.262 243.421 111.625 243.683 112.084 243.896C112.553 244.109 113.038 244.216 113.54 244.216C114.116 244.216 114.564 244.093 114.884 243.848C115.204 243.603 115.364 243.283 115.364 242.888C115.364 242.547 115.198 242.28 114.868 242.088C114.537 241.885 114.137 241.736 113.668 241.64C113.209 241.533 112.745 241.416 112.276 241.288C111.806 241.149 111.406 240.92 111.076 240.6C110.745 240.269 110.58 239.837 110.58 239.304C110.58 238.675 110.836 238.147 111.348 237.72C111.87 237.293 112.574 237.08 113.46 237.08C114.622 237.08 115.577 237.453 116.324 238.2L115.764 239.032C115.22 238.381 114.452 238.056 113.46 238.056C112.937 238.056 112.521 238.173 112.212 238.408C111.902 238.632 111.748 238.92 111.748 239.272C111.748 239.581 111.913 239.827 112.244 240.008C112.574 240.179 112.969 240.317 113.428 240.424C113.897 240.52 114.366 240.637 114.836 240.776C115.305 240.915 115.705 241.16 116.036 241.512C116.366 241.853 116.532 242.301 116.532 242.856C116.532 243.539 116.265 244.099 115.732 244.536C115.198 244.973 114.452 245.192 113.492 245.192ZM120.929 245.192C119.617 245.192 118.577 244.787 117.809 243.976L118.433 243.112C118.7 243.421 119.063 243.683 119.521 243.896C119.991 244.109 120.476 244.216 120.977 244.216C121.553 244.216 122.001 244.093 122.321 243.848C122.641 243.603 122.801 243.283 122.801 242.888C122.801 242.547 122.636 242.28 122.305 242.088C121.975 241.885 121.575 241.736 121.105 241.64C120.647 241.533 120.183 241.416 119.713 241.288C119.244 241.149 118.844 240.92 118.513 240.6C118.183 240.269 118.017 239.837 118.017 239.304C118.017 238.675 118.273 238.147 118.785 237.72C119.308 237.293 120.012 237.08 120.897 237.08C122.06 237.08 123.015 237.453 123.761 238.2L123.201 239.032C122.657 238.381 121.889 238.056 120.897 238.056C120.375 238.056 119.959 238.173 119.649 238.408C119.34 238.632 119.185 238.92 119.185 239.272C119.185 239.581 119.351 239.827 119.681 240.008C120.012 240.179 120.407 240.317 120.865 240.424C121.335 240.52 121.804 240.637 122.273 240.776C122.743 240.915 123.143 241.16 123.473 241.512C123.804 241.853 123.969 242.301 123.969 242.856C123.969 243.539 123.703 244.099 123.169 244.536C122.636 244.973 121.889 245.192 120.929 245.192ZM133.807 245H132.607L130.591 238.792L128.575 245H127.375L124.911 237.272H126.159L128.047 243.432L130.079 237.272H131.103L133.135 243.432L135.023 237.272H136.271L133.807 245ZM143.813 244.024C143.119 244.803 142.197 245.192 141.045 245.192C139.893 245.192 138.965 244.803 138.261 244.024C137.567 243.245 137.221 242.28 137.221 241.128C137.221 239.976 137.567 239.016 138.261 238.248C138.965 237.469 139.893 237.08 141.045 237.08C142.197 237.08 143.119 237.469 143.813 238.248C144.517 239.016 144.869 239.976 144.869 241.128C144.869 242.28 144.517 243.245 143.813 244.024ZM139.157 243.256C139.626 243.832 140.255 244.12 141.045 244.12C141.834 244.12 142.458 243.832 142.917 243.256C143.375 242.669 143.605 241.96 143.605 241.128C143.605 240.296 143.375 239.592 142.917 239.016C142.458 238.44 141.834 238.152 141.045 238.152C140.255 238.152 139.626 238.445 139.157 239.032C138.698 239.608 138.469 240.307 138.469 241.128C138.469 241.96 138.698 242.669 139.157 243.256ZM148.025 245H146.825V237.272H148.025V238.52C148.74 237.581 149.598 237.112 150.601 237.112V238.344C150.452 238.312 150.292 238.296 150.121 238.296C149.758 238.296 149.364 238.424 148.937 238.68C148.51 238.936 148.206 239.219 148.025 239.528V245ZM158.906 245H157.706V243.848C157.045 244.744 156.176 245.192 155.098 245.192C154.074 245.192 153.242 244.829 152.602 244.104C151.973 243.368 151.658 242.381 151.658 241.144C151.658 239.917 151.973 238.936 152.602 238.2C153.242 237.453 154.074 237.08 155.098 237.08C156.165 237.08 157.034 237.533 157.706 238.44V234.328H158.906V245ZM155.386 244.12C155.856 244.12 156.304 244.003 156.73 243.768C157.157 243.533 157.482 243.245 157.706 242.904V239.4C157.482 239.048 157.152 238.755 156.714 238.52C156.288 238.275 155.845 238.152 155.386 238.152C154.629 238.152 154.026 238.435 153.578 239C153.13 239.555 152.906 240.269 152.906 241.144C152.906 242.019 153.13 242.733 153.578 243.288C154.026 243.843 154.629 244.12 155.386 244.12Z" fill="#5D6574"/>
<path d="M50.093 283H49.014V274.329H52.498C53.3387 274.329 54.0017 274.58 54.487 275.083C54.9723 275.586 55.215 276.205 55.215 276.942C55.215 277.679 54.968 278.298 54.474 278.801C53.9887 279.304 53.33 279.555 52.498 279.555H50.093V283ZM52.368 278.593C52.8793 278.593 53.2953 278.441 53.616 278.138C53.9367 277.826 54.097 277.427 54.097 276.942C54.097 276.457 53.9367 276.062 53.616 275.759C53.2953 275.447 52.8793 275.291 52.368 275.291H50.093V278.593H52.368ZM57.5799 283H56.6049V274.329H57.5799V283ZM62.3588 283.156C61.4228 283.156 60.6558 282.853 60.0578 282.246C59.4598 281.631 59.1608 280.833 59.1608 279.854C59.1608 278.935 59.4555 278.16 60.0448 277.527C60.6341 276.886 61.3708 276.565 62.2548 276.565C63.1821 276.565 63.9145 276.886 64.4518 277.527C64.9978 278.16 65.2708 278.961 65.2708 279.932V280.179H60.1878C60.2311 280.794 60.4565 281.31 60.8638 281.726C61.2711 282.142 61.7998 282.35 62.4498 282.35C63.2298 282.35 63.8755 282.086 64.3868 281.557L64.8548 282.194C64.2135 282.835 63.3815 283.156 62.3588 283.156ZM64.3088 279.464C64.3001 278.927 64.1181 278.446 63.7628 278.021C63.4075 277.588 62.9005 277.371 62.2418 277.371C61.6178 277.371 61.1238 277.583 60.7598 278.008C60.4045 278.433 60.2138 278.918 60.1878 279.464H64.3088ZM71.751 283H70.776V282.285C70.2473 282.866 69.554 283.156 68.696 283.156C68.1153 283.156 67.604 282.97 67.162 282.597C66.72 282.224 66.499 281.717 66.499 281.076C66.499 280.417 66.7157 279.91 67.149 279.555C67.591 279.191 68.1067 279.009 68.696 279.009C69.5887 279.009 70.282 279.295 70.776 279.867V278.736C70.776 278.32 70.6287 277.995 70.334 277.761C70.0393 277.527 69.658 277.41 69.19 277.41C68.4533 277.41 67.812 277.7 67.266 278.281L66.811 277.605C67.4783 276.912 68.3147 276.565 69.32 276.565C70.0393 276.565 70.6243 276.738 71.075 277.085C71.5257 277.432 71.751 277.965 71.751 278.684V283ZM69.047 282.454C69.827 282.454 70.4033 282.194 70.776 281.674V280.491C70.4033 279.971 69.827 279.711 69.047 279.711C68.5963 279.711 68.2237 279.841 67.929 280.101C67.643 280.352 67.5 280.682 67.5 281.089C67.5 281.488 67.643 281.817 67.929 282.077C68.2237 282.328 68.5963 282.454 69.047 282.454ZM75.6945 283.156C74.6285 283.156 73.7835 282.827 73.1595 282.168L73.6665 281.466C73.8831 281.717 74.1778 281.93 74.5505 282.103C74.9318 282.276 75.3261 282.363 75.7335 282.363C76.2015 282.363 76.5655 282.263 76.8255 282.064C77.0855 281.865 77.2155 281.605 77.2155 281.284C77.2155 281.007 77.0811 280.79 76.8125 280.634C76.5438 280.469 76.2188 280.348 75.8375 280.27C75.4648 280.183 75.0878 280.088 74.7065 279.984C74.3251 279.871 74.0001 279.685 73.7315 279.425C73.4628 279.156 73.3285 278.805 73.3285 278.372C73.3285 277.861 73.5365 277.432 73.9525 277.085C74.3771 276.738 74.9491 276.565 75.6685 276.565C76.6131 276.565 77.3888 276.868 77.9955 277.475L77.5405 278.151C77.0985 277.622 76.4745 277.358 75.6685 277.358C75.2438 277.358 74.9058 277.453 74.6545 277.644C74.4031 277.826 74.2775 278.06 74.2775 278.346C74.2775 278.597 74.4118 278.797 74.6805 278.944C74.9491 279.083 75.2698 279.195 75.6425 279.282C76.0238 279.36 76.4051 279.455 76.7865 279.568C77.1678 279.681 77.4928 279.88 77.7615 280.166C78.0301 280.443 78.1645 280.807 78.1645 281.258C78.1645 281.813 77.9478 282.268 77.5145 282.623C77.0811 282.978 76.4745 283.156 75.6945 283.156ZM82.5824 283.156C81.6464 283.156 80.8794 282.853 80.2814 282.246C79.6834 281.631 79.3844 280.833 79.3844 279.854C79.3844 278.935 79.6791 278.16 80.2684 277.527C80.8578 276.886 81.5944 276.565 82.4784 276.565C83.4058 276.565 84.1381 276.886 84.6754 277.527C85.2214 278.16 85.4944 278.961 85.4944 279.932V280.179H80.4114C80.4548 280.794 80.6801 281.31 81.0874 281.726C81.4948 282.142 82.0234 282.35 82.6734 282.35C83.4534 282.35 84.0991 282.086 84.6104 281.557L85.0784 282.194C84.4371 282.835 83.6051 283.156 82.5824 283.156ZM84.5324 279.464C84.5238 278.927 84.3418 278.446 83.9864 278.021C83.6311 277.588 83.1241 277.371 82.4654 277.371C81.8414 277.371 81.3474 277.583 80.9834 278.008C80.6281 278.433 80.4374 278.918 80.4114 279.464H84.5324ZM93.1942 283.156C92.2669 283.156 91.5129 282.844 90.9322 282.22C90.3515 281.587 90.0612 280.799 90.0612 279.854C90.0612 278.909 90.3515 278.125 90.9322 277.501C91.5129 276.877 92.2669 276.565 93.1942 276.565C94.1649 276.565 94.9319 276.929 95.4952 277.657L94.8452 278.255C94.4465 277.709 93.9135 277.436 93.2462 277.436C92.5875 277.436 92.0589 277.661 91.6602 278.112C91.2702 278.563 91.0752 279.143 91.0752 279.854C91.0752 280.565 91.2702 281.15 91.6602 281.609C92.0589 282.06 92.5875 282.285 93.2462 282.285C93.9049 282.285 94.4379 282.012 94.8452 281.466L95.4952 282.064C94.9319 282.792 94.1649 283.156 93.1942 283.156ZM101.854 282.207C101.29 282.84 100.541 283.156 99.6047 283.156C98.6687 283.156 97.9147 282.84 97.3427 282.207C96.7794 281.574 96.4977 280.79 96.4977 279.854C96.4977 278.918 96.7794 278.138 97.3427 277.514C97.9147 276.881 98.6687 276.565 99.6047 276.565C100.541 276.565 101.29 276.881 101.854 277.514C102.426 278.138 102.712 278.918 102.712 279.854C102.712 280.79 102.426 281.574 101.854 282.207ZM98.0707 281.583C98.4521 282.051 98.9634 282.285 99.6047 282.285C100.246 282.285 100.753 282.051 101.126 281.583C101.498 281.106 101.685 280.53 101.685 279.854C101.685 279.178 101.498 278.606 101.126 278.138C100.753 277.67 100.246 277.436 99.6047 277.436C98.9634 277.436 98.4521 277.674 98.0707 278.151C97.6981 278.619 97.5117 279.187 97.5117 279.854C97.5117 280.53 97.6981 281.106 98.0707 281.583ZM109.514 283H108.539V278.892C108.539 278.363 108.418 277.991 108.175 277.774C107.933 277.549 107.586 277.436 107.135 277.436C106.771 277.436 106.416 277.531 106.069 277.722C105.731 277.913 105.467 278.142 105.276 278.411V283H104.301V276.721H105.276V277.631C105.519 277.345 105.844 277.098 106.251 276.89C106.659 276.673 107.079 276.565 107.512 276.565C108.847 276.565 109.514 277.241 109.514 278.593V283ZM112.709 283H111.734V277.579H110.694V276.721H111.734V276.24C111.734 275.599 111.899 275.1 112.228 274.745C112.558 274.381 113 274.199 113.554 274.199C113.953 274.199 114.269 274.273 114.503 274.42L114.256 275.161C114.092 275.057 113.905 275.005 113.697 275.005C113.377 275.005 113.13 275.113 112.956 275.33C112.792 275.538 112.709 275.841 112.709 276.24V276.721H113.983V277.579H112.709V283ZM115.621 275.824C115.448 275.824 115.296 275.763 115.166 275.642C115.036 275.512 114.971 275.356 114.971 275.174C114.971 274.992 115.036 274.836 115.166 274.706C115.296 274.576 115.448 274.511 115.621 274.511C115.803 274.511 115.959 274.576 116.089 274.706C116.219 274.836 116.284 274.992 116.284 275.174C116.284 275.356 116.219 275.512 116.089 275.642C115.959 275.763 115.803 275.824 115.621 275.824ZM116.115 283H115.14V276.721H116.115V283ZM119.051 283H118.076V276.721H119.051V277.735C119.631 276.972 120.329 276.591 121.144 276.591V277.592C121.022 277.566 120.892 277.553 120.754 277.553C120.459 277.553 120.138 277.657 119.792 277.865C119.445 278.073 119.198 278.303 119.051 278.554V283ZM130.921 283H129.946V278.736C129.946 277.869 129.56 277.436 128.789 277.436C128.477 277.436 128.165 277.531 127.853 277.722C127.541 277.913 127.298 278.138 127.125 278.398V283H126.15V278.736C126.15 277.869 125.764 277.436 124.993 277.436C124.689 277.436 124.382 277.531 124.07 277.722C123.766 277.913 123.524 278.142 123.342 278.411V283H122.367V276.721H123.342V277.631C123.498 277.388 123.771 277.15 124.161 276.916C124.551 276.682 124.954 276.565 125.37 276.565C125.829 276.565 126.202 276.673 126.488 276.89C126.774 277.107 126.964 277.388 127.06 277.735C127.25 277.423 127.541 277.15 127.931 276.916C128.321 276.682 128.732 276.565 129.166 276.565C130.336 276.565 130.921 277.198 130.921 278.463V283ZM137.803 283.156C137.344 283.156 136.997 283.03 136.763 282.779C136.529 282.528 136.412 282.164 136.412 281.687V277.579H135.372V276.721H136.412V275.005H137.387V276.721H138.661V277.579H137.387V281.479C137.387 281.722 137.439 281.917 137.543 282.064C137.656 282.211 137.816 282.285 138.024 282.285C138.31 282.285 138.531 282.198 138.687 282.025L138.973 282.753C138.687 283.022 138.297 283.156 137.803 283.156ZM145.264 283H144.289V278.866C144.289 278.346 144.168 277.978 143.925 277.761C143.683 277.544 143.332 277.436 142.872 277.436C142.517 277.436 142.166 277.531 141.819 277.722C141.481 277.913 141.213 278.142 141.013 278.411V283H140.038V274.329H141.013V277.631C141.256 277.345 141.581 277.098 141.988 276.89C142.396 276.673 142.82 276.565 143.262 276.565C144.597 276.565 145.264 277.232 145.264 278.567V283ZM152.112 283H151.137V282.285C150.609 282.866 149.915 283.156 149.057 283.156C148.477 283.156 147.965 282.97 147.523 282.597C147.081 282.224 146.86 281.717 146.86 281.076C146.86 280.417 147.077 279.91 147.51 279.555C147.952 279.191 148.468 279.009 149.057 279.009C149.95 279.009 150.643 279.295 151.137 279.867V278.736C151.137 278.32 150.99 277.995 150.695 277.761C150.401 277.527 150.019 277.41 149.551 277.41C148.815 277.41 148.173 277.7 147.627 278.281L147.172 277.605C147.84 276.912 148.676 276.565 149.681 276.565C150.401 276.565 150.986 276.738 151.436 277.085C151.887 277.432 152.112 277.965 152.112 278.684V283ZM149.408 282.454C150.188 282.454 150.765 282.194 151.137 281.674V280.491C150.765 279.971 150.188 279.711 149.408 279.711C148.958 279.711 148.585 279.841 148.29 280.101C148.004 280.352 147.861 280.682 147.861 281.089C147.861 281.488 148.004 281.817 148.29 282.077C148.585 282.328 148.958 282.454 149.408 282.454ZM155.653 283.156C155.193 283.156 154.847 283.03 154.613 282.779C154.379 282.528 154.262 282.164 154.262 281.687V277.579H153.222V276.721H154.262V275.005H155.237V276.721H156.511V277.579H155.237V281.479C155.237 281.722 155.289 281.917 155.393 282.064C155.505 282.211 155.666 282.285 155.874 282.285C156.16 282.285 156.381 282.198 156.537 282.025L156.823 282.753C156.537 283.022 156.147 283.156 155.653 283.156ZM160.889 285.457L161.045 284.573C161.201 284.642 161.378 284.677 161.578 284.677C161.803 284.677 161.989 284.629 162.137 284.534C162.284 284.439 162.41 284.265 162.514 284.014L162.93 283.065L160.304 276.721H161.357L163.45 281.869L165.53 276.721H166.596L163.45 284.274C163.103 285.106 162.488 285.531 161.604 285.548C161.344 285.548 161.105 285.518 160.889 285.457ZM172.605 282.207C172.041 282.84 171.292 283.156 170.356 283.156C169.42 283.156 168.666 282.84 168.094 282.207C167.53 281.574 167.249 280.79 167.249 279.854C167.249 278.918 167.53 278.138 168.094 277.514C168.666 276.881 169.42 276.565 170.356 276.565C171.292 276.565 172.041 276.881 172.605 277.514C173.177 278.138 173.463 278.918 173.463 279.854C173.463 280.79 173.177 281.574 172.605 282.207ZM168.822 281.583C169.203 282.051 169.714 282.285 170.356 282.285C170.997 282.285 171.504 282.051 171.877 281.583C172.249 281.106 172.436 280.53 172.436 279.854C172.436 279.178 172.249 278.606 171.877 278.138C171.504 277.67 170.997 277.436 170.356 277.436C169.714 277.436 169.203 277.674 168.822 278.151C168.449 278.619 168.263 279.187 168.263 279.854C168.263 280.53 168.449 281.106 168.822 281.583ZM180.265 283H179.29V282.116C179.03 282.411 178.701 282.658 178.302 282.857C177.912 283.056 177.496 283.156 177.054 283.156C175.719 283.156 175.052 282.489 175.052 281.154V276.721H176.027V280.855C176.027 281.375 176.144 281.743 176.378 281.96C176.621 282.177 176.972 282.285 177.431 282.285C177.795 282.285 178.146 282.194 178.484 282.012C178.831 281.83 179.099 281.605 179.29 281.336V276.721H180.265V283ZM190.465 283H189.49V282.285C188.961 282.866 188.268 283.156 187.41 283.156C186.829 283.156 186.318 282.97 185.876 282.597C185.434 282.224 185.213 281.717 185.213 281.076C185.213 280.417 185.43 279.91 185.863 279.555C186.305 279.191 186.821 279.009 187.41 279.009C188.303 279.009 188.996 279.295 189.49 279.867V278.736C189.49 278.32 189.343 277.995 189.048 277.761C188.753 277.527 188.372 277.41 187.904 277.41C187.167 277.41 186.526 277.7 185.98 278.281L185.525 277.605C186.192 276.912 187.029 276.565 188.034 276.565C188.753 276.565 189.338 276.738 189.789 277.085C190.24 277.432 190.465 277.965 190.465 278.684V283ZM187.761 282.454C188.541 282.454 189.117 282.194 189.49 281.674V280.491C189.117 279.971 188.541 279.711 187.761 279.711C187.31 279.711 186.938 279.841 186.643 280.101C186.357 280.352 186.214 280.682 186.214 281.089C186.214 281.488 186.357 281.817 186.643 282.077C186.938 282.328 187.31 282.454 187.761 282.454ZM194.941 285.548C194.387 285.548 193.914 285.479 193.524 285.34C193.134 285.21 192.762 284.967 192.406 284.612L192.9 283.884C193.377 284.456 194.057 284.742 194.941 284.742C195.522 284.742 196.003 284.586 196.384 284.274C196.766 283.971 196.956 283.498 196.956 282.857V281.96C196.722 282.289 196.419 282.558 196.046 282.766C195.674 282.974 195.275 283.078 194.85 283.078C194.018 283.078 193.342 282.788 192.822 282.207C192.311 281.618 192.055 280.825 192.055 279.828C192.055 278.831 192.311 278.038 192.822 277.449C193.342 276.86 194.018 276.565 194.85 276.565C195.708 276.565 196.41 276.933 196.956 277.67V276.721H197.931V282.818C197.931 283.78 197.65 284.473 197.086 284.898C196.523 285.331 195.808 285.548 194.941 285.548ZM195.084 282.22C195.457 282.22 195.817 282.12 196.163 281.921C196.519 281.722 196.783 281.479 196.956 281.193V278.45C196.783 278.164 196.523 277.926 196.176 277.735C195.83 277.536 195.466 277.436 195.084 277.436C194.46 277.436 193.966 277.657 193.602 278.099C193.247 278.541 193.069 279.117 193.069 279.828C193.069 280.53 193.251 281.106 193.615 281.557C193.979 281.999 194.469 282.22 195.084 282.22ZM200.859 283H199.884V276.721H200.859V277.735C201.44 276.972 202.138 276.591 202.952 276.591V277.592C202.831 277.566 202.701 277.553 202.562 277.553C202.268 277.553 201.947 277.657 201.6 277.865C201.254 278.073 201.007 278.303 200.859 278.554V283ZM207.009 283.156C206.073 283.156 205.306 282.853 204.708 282.246C204.11 281.631 203.811 280.833 203.811 279.854C203.811 278.935 204.106 278.16 204.695 277.527C205.285 276.886 206.021 276.565 206.905 276.565C207.833 276.565 208.565 276.886 209.102 277.527C209.648 278.16 209.921 278.961 209.921 279.932V280.179H204.838C204.882 280.794 205.107 281.31 205.514 281.726C205.922 282.142 206.45 282.35 207.1 282.35C207.88 282.35 208.526 282.086 209.037 281.557L209.505 282.194C208.864 282.835 208.032 283.156 207.009 283.156ZM208.959 279.464C208.951 278.927 208.769 278.446 208.413 278.021C208.058 277.588 207.551 277.371 206.892 277.371C206.268 277.371 205.774 277.583 205.41 278.008C205.055 278.433 204.864 278.918 204.838 279.464H208.959ZM214.334 283.156C213.398 283.156 212.631 282.853 212.033 282.246C211.435 281.631 211.136 280.833 211.136 279.854C211.136 278.935 211.431 278.16 212.02 277.527C212.61 276.886 213.346 276.565 214.23 276.565C215.158 276.565 215.89 276.886 216.427 277.527C216.973 278.16 217.246 278.961 217.246 279.932V280.179H212.163C212.207 280.794 212.432 281.31 212.839 281.726C213.247 282.142 213.775 282.35 214.425 282.35C215.205 282.35 215.851 282.086 216.362 281.557L216.83 282.194C216.189 282.835 215.357 283.156 214.334 283.156ZM216.284 279.464C216.276 278.927 216.094 278.446 215.738 278.021C215.383 277.588 214.876 277.371 214.217 277.371C213.593 277.371 213.099 277.583 212.735 278.008C212.38 278.433 212.189 278.918 212.163 279.464H216.284ZM50.561 299.156C50.1017 299.156 49.755 299.03 49.521 298.779C49.287 298.528 49.17 298.164 49.17 297.687V293.579H48.13V292.721H49.17V291.005H50.145V292.721H51.419V293.579H50.145V297.479C50.145 297.722 50.197 297.917 50.301 298.064C50.4137 298.211 50.574 298.285 50.782 298.285C51.068 298.285 51.289 298.198 51.445 298.025L51.731 298.753C51.445 299.022 51.055 299.156 50.561 299.156ZM57.7883 298.207C57.225 298.84 56.4753 299.156 55.5393 299.156C54.6033 299.156 53.8493 298.84 53.2773 298.207C52.714 297.574 52.4323 296.79 52.4323 295.854C52.4323 294.918 52.714 294.138 53.2773 293.514C53.8493 292.881 54.6033 292.565 55.5393 292.565C56.4753 292.565 57.225 292.881 57.7883 293.514C58.3603 294.138 58.6463 294.918 58.6463 295.854C58.6463 296.79 58.3603 297.574 57.7883 298.207ZM54.0053 297.583C54.3866 298.051 54.898 298.285 55.5393 298.285C56.1806 298.285 56.6876 298.051 57.0603 297.583C57.433 297.106 57.6193 296.53 57.6193 295.854C57.6193 295.178 57.433 294.606 57.0603 294.138C56.6876 293.67 56.1806 293.436 55.5393 293.436C54.898 293.436 54.3866 293.674 54.0053 294.151C53.6326 294.619 53.4463 295.187 53.4463 295.854C53.4463 296.53 53.6326 297.106 54.0053 297.583ZM68.5793 298.207C68.016 298.84 67.2663 299.156 66.3303 299.156C65.3943 299.156 64.6403 298.84 64.0683 298.207C63.505 297.574 63.2233 296.79 63.2233 295.854C63.2233 294.918 63.505 294.138 64.0683 293.514C64.6403 292.881 65.3943 292.565 66.3303 292.565C67.2663 292.565 68.016 292.881 68.5793 293.514C69.1513 294.138 69.4373 294.918 69.4373 295.854C69.4373 296.79 69.1513 297.574 68.5793 298.207ZM64.7963 297.583C65.1776 298.051 65.689 298.285 66.3303 298.285C66.9716 298.285 67.4786 298.051 67.8513 297.583C68.224 297.106 68.4103 296.53 68.4103 295.854C68.4103 295.178 68.224 294.606 67.8513 294.138C67.4786 293.67 66.9716 293.436 66.3303 293.436C65.689 293.436 65.1776 293.674 64.7963 294.151C64.4236 294.619 64.2373 295.187 64.2373 295.854C64.2373 296.53 64.4236 297.106 64.7963 297.583ZM76.2398 299H75.2648V298.116C75.0048 298.411 74.6754 298.658 74.2768 298.857C73.8868 299.056 73.4708 299.156 73.0288 299.156C71.6941 299.156 71.0268 298.489 71.0268 297.154V292.721H72.0018V296.855C72.0018 297.375 72.1188 297.743 72.3528 297.96C72.5954 298.177 72.9464 298.285 73.4058 298.285C73.7698 298.285 74.1208 298.194 74.4588 298.012C74.8054 297.83 75.0741 297.605 75.2648 297.336V292.721H76.2398V299ZM79.1619 299H78.1869V292.721H79.1619V293.735C79.7426 292.972 80.4402 292.591 81.2549 292.591V293.592C81.1336 293.566 81.0036 293.553 80.8649 293.553C80.5702 293.553 80.2496 293.657 79.9029 293.865C79.5562 294.073 79.3092 294.303 79.1619 294.554V299Z" fill="#5D6574"/>
<path d="M87.4155 299.156C86.9562 299.156 86.6095 299.03 86.3755 298.779C86.1415 298.528 86.0245 298.164 86.0245 297.687V293.579H84.9845V292.721H86.0245V291.005H86.9995V292.721H88.2735V293.579H86.9995V297.479C86.9995 297.722 87.0515 297.917 87.1555 298.064C87.2682 298.211 87.4285 298.285 87.6365 298.285C87.9225 298.285 88.1435 298.198 88.2995 298.025L88.5855 298.753C88.2995 299.022 87.9095 299.156 87.4155 299.156ZM92.4848 299.156C91.5488 299.156 90.7818 298.853 90.1838 298.246C89.5858 297.631 89.2868 296.833 89.2868 295.854C89.2868 294.935 89.5814 294.16 90.1708 293.527C90.7601 292.886 91.4968 292.565 92.3808 292.565C93.3081 292.565 94.0404 292.886 94.5778 293.527C95.1238 294.16 95.3968 294.961 95.3968 295.932V296.179H90.3138C90.3571 296.794 90.5824 297.31 90.9898 297.726C91.3971 298.142 91.9258 298.35 92.5758 298.35C93.3558 298.35 94.0014 298.086 94.5128 297.557L94.9808 298.194C94.3394 298.835 93.5074 299.156 92.4848 299.156ZM94.4348 295.464C94.4261 294.927 94.2441 294.446 93.8888 294.021C93.5334 293.588 93.0264 293.371 92.3678 293.371C91.7438 293.371 91.2498 293.583 90.8858 294.008C90.5304 294.433 90.3398 294.918 90.3138 295.464H94.4348ZM97.951 299H96.976V292.721H97.951V293.735C98.5316 292.972 99.2293 292.591 100.044 292.591V293.592C99.9226 293.566 99.7926 293.553 99.654 293.553C99.3593 293.553 99.0386 293.657 98.692 293.865C98.3453 294.073 98.0983 294.303 97.951 294.554V299ZM109.821 299H108.846V294.736C108.846 293.869 108.46 293.436 107.689 293.436C107.377 293.436 107.065 293.531 106.753 293.722C106.441 293.913 106.198 294.138 106.025 294.398V299H105.05V294.736C105.05 293.869 104.664 293.436 103.893 293.436C103.59 293.436 103.282 293.531 102.97 293.722C102.667 293.913 102.424 294.142 102.242 294.411V299H101.267V292.721H102.242V293.631C102.398 293.388 102.671 293.15 103.061 292.916C103.451 292.682 103.854 292.565 104.27 292.565C104.729 292.565 105.102 292.673 105.388 292.89C105.674 293.107 105.865 293.388 105.96 293.735C106.151 293.423 106.441 293.15 106.831 292.916C107.221 292.682 107.633 292.565 108.066 292.565C109.236 292.565 109.821 293.198 109.821 294.463V299ZM113.755 299.156C112.689 299.156 111.844 298.827 111.22 298.168L111.727 297.466C111.944 297.717 112.238 297.93 112.611 298.103C112.992 298.276 113.387 298.363 113.794 298.363C114.262 298.363 114.626 298.263 114.886 298.064C115.146 297.865 115.276 297.605 115.276 297.284C115.276 297.007 115.142 296.79 114.873 296.634C114.604 296.469 114.279 296.348 113.898 296.27C113.525 296.183 113.148 296.088 112.767 295.984C112.386 295.871 112.061 295.685 111.792 295.425C111.523 295.156 111.389 294.805 111.389 294.372C111.389 293.861 111.597 293.432 112.013 293.085C112.438 292.738 113.01 292.565 113.729 292.565C114.674 292.565 115.449 292.868 116.056 293.475L115.601 294.151C115.159 293.622 114.535 293.358 113.729 293.358C113.304 293.358 112.966 293.453 112.715 293.644C112.464 293.826 112.338 294.06 112.338 294.346C112.338 294.597 112.472 294.797 112.741 294.944C113.01 295.083 113.33 295.195 113.703 295.282C114.084 295.36 114.466 295.455 114.847 295.568C115.228 295.681 115.553 295.88 115.822 296.166C116.091 296.443 116.225 296.807 116.225 297.258C116.225 297.813 116.008 298.268 115.575 298.623C115.142 298.978 114.535 299.156 113.755 299.156ZM128.155 299H126.803C126.543 298.775 126.226 298.471 125.854 298.09C125.143 298.801 124.311 299.156 123.358 299.156C122.569 299.156 121.919 298.948 121.408 298.532C120.905 298.107 120.654 297.509 120.654 296.738C120.654 296.123 120.823 295.62 121.161 295.23C121.499 294.84 121.967 294.485 122.565 294.164C122.123 293.41 121.902 292.76 121.902 292.214C121.902 291.642 122.11 291.165 122.526 290.784C122.95 290.394 123.47 290.199 124.086 290.199C124.666 290.199 125.139 290.351 125.503 290.654C125.867 290.949 126.049 291.365 126.049 291.902C126.049 292.214 125.992 292.496 125.88 292.747C125.767 292.99 125.585 293.215 125.334 293.423C125.082 293.622 124.861 293.778 124.671 293.891C124.489 294.004 124.211 294.155 123.839 294.346C124.116 294.727 124.45 295.139 124.84 295.581C125.152 295.954 125.494 296.339 125.867 296.738C126.248 296.175 126.56 295.516 126.803 294.762L127.648 295.126C127.223 296.114 126.829 296.859 126.465 297.362C126.898 297.813 127.461 298.359 128.155 299ZM123.449 298.35C124.09 298.35 124.697 298.064 125.269 297.492C124.697 296.894 124.298 296.456 124.073 296.179C123.674 295.72 123.31 295.26 122.981 294.801C122.573 295.052 122.257 295.325 122.032 295.62C121.815 295.906 121.707 296.257 121.707 296.673C121.707 297.193 121.876 297.605 122.214 297.908C122.56 298.203 122.972 298.35 123.449 298.35ZM122.916 292.227C122.916 292.634 123.089 293.133 123.436 293.722C123.999 293.445 124.424 293.176 124.71 292.916C125.004 292.656 125.152 292.331 125.152 291.941C125.152 291.629 125.056 291.391 124.866 291.226C124.675 291.053 124.428 290.966 124.125 290.966C123.787 290.966 123.501 291.087 123.267 291.33C123.033 291.564 122.916 291.863 122.916 292.227ZM135.609 299.156C134.682 299.156 133.928 298.844 133.347 298.22C132.767 297.587 132.476 296.799 132.476 295.854C132.476 294.909 132.767 294.125 133.347 293.501C133.928 292.877 134.682 292.565 135.609 292.565C136.58 292.565 137.347 292.929 137.91 293.657L137.26 294.255C136.862 293.709 136.329 293.436 135.661 293.436C135.003 293.436 134.474 293.661 134.075 294.112C133.685 294.563 133.49 295.143 133.49 295.854C133.49 296.565 133.685 297.15 134.075 297.609C134.474 298.06 135.003 298.285 135.661 298.285C136.32 298.285 136.853 298.012 137.26 297.466L137.91 298.064C137.347 298.792 136.58 299.156 135.609 299.156ZM144.269 298.207C143.705 298.84 142.956 299.156 142.02 299.156C141.084 299.156 140.33 298.84 139.758 298.207C139.194 297.574 138.913 296.79 138.913 295.854C138.913 294.918 139.194 294.138 139.758 293.514C140.33 292.881 141.084 292.565 142.02 292.565C142.956 292.565 143.705 292.881 144.269 293.514C144.841 294.138 145.127 294.918 145.127 295.854C145.127 296.79 144.841 297.574 144.269 298.207ZM140.486 297.583C140.867 298.051 141.378 298.285 142.02 298.285C142.661 298.285 143.168 298.051 143.541 297.583C143.913 297.106 144.1 296.53 144.1 295.854C144.1 295.178 143.913 294.606 143.541 294.138C143.168 293.67 142.661 293.436 142.02 293.436C141.378 293.436 140.867 293.674 140.486 294.151C140.113 294.619 139.927 295.187 139.927 295.854C139.927 296.53 140.113 297.106 140.486 297.583ZM151.929 299H150.954V294.892C150.954 294.363 150.833 293.991 150.59 293.774C150.348 293.549 150.001 293.436 149.55 293.436C149.186 293.436 148.831 293.531 148.484 293.722C148.146 293.913 147.882 294.142 147.691 294.411V299H146.716V292.721H147.691V293.631C147.934 293.345 148.259 293.098 148.666 292.89C149.074 292.673 149.494 292.565 149.927 292.565C151.262 292.565 151.929 293.241 151.929 294.593V299ZM159.401 299H158.426V298.064C157.889 298.792 157.183 299.156 156.307 299.156C155.475 299.156 154.799 298.861 154.279 298.272C153.768 297.674 153.512 296.872 153.512 295.867C153.512 294.87 153.768 294.073 154.279 293.475C154.799 292.868 155.475 292.565 156.307 292.565C157.174 292.565 157.88 292.933 158.426 293.67V290.329H159.401V299ZM156.541 298.285C156.923 298.285 157.287 298.19 157.633 297.999C157.98 297.808 158.244 297.574 158.426 297.297V294.45C158.244 294.164 157.976 293.926 157.62 293.735C157.274 293.536 156.914 293.436 156.541 293.436C155.926 293.436 155.436 293.666 155.072 294.125C154.708 294.576 154.526 295.156 154.526 295.867C154.526 296.578 154.708 297.158 155.072 297.609C155.436 298.06 155.926 298.285 156.541 298.285ZM161.835 291.824C161.662 291.824 161.51 291.763 161.38 291.642C161.25 291.512 161.185 291.356 161.185 291.174C161.185 290.992 161.25 290.836 161.38 290.706C161.51 290.576 161.662 290.511 161.835 290.511C162.017 290.511 162.173 290.576 162.303 290.706C162.433 290.836 162.498 290.992 162.498 291.174C162.498 291.356 162.433 291.512 162.303 291.642C162.173 291.763 162.017 291.824 161.835 291.824ZM162.329 299H161.354V292.721H162.329V299ZM165.86 299.156C165.4 299.156 165.054 299.03 164.82 298.779C164.586 298.528 164.469 298.164 164.469 297.687V293.579H163.429V292.721H164.469V291.005H165.444V292.721H166.718V293.579H165.444V297.479C165.444 297.722 165.496 297.917 165.6 298.064C165.712 298.211 165.873 298.285 166.081 298.285C166.367 298.285 166.588 298.198 166.744 298.025L167.03 298.753C166.744 299.022 166.354 299.156 165.86 299.156ZM168.576 291.824C168.403 291.824 168.251 291.763 168.121 291.642C167.991 291.512 167.926 291.356 167.926 291.174C167.926 290.992 167.991 290.836 168.121 290.706C168.251 290.576 168.403 290.511 168.576 290.511C168.758 290.511 168.914 290.576 169.044 290.706C169.174 290.836 169.239 290.992 169.239 291.174C169.239 291.356 169.174 291.512 169.044 291.642C168.914 291.763 168.758 291.824 168.576 291.824ZM169.07 299H168.095V292.721H169.07V299ZM176.007 298.207C175.444 298.84 174.694 299.156 173.758 299.156C172.822 299.156 172.068 298.84 171.496 298.207C170.933 297.574 170.651 296.79 170.651 295.854C170.651 294.918 170.933 294.138 171.496 293.514C172.068 292.881 172.822 292.565 173.758 292.565C174.694 292.565 175.444 292.881 176.007 293.514C176.579 294.138 176.865 294.918 176.865 295.854C176.865 296.79 176.579 297.574 176.007 298.207ZM172.224 297.583C172.605 298.051 173.117 298.285 173.758 298.285C174.399 298.285 174.906 298.051 175.279 297.583C175.652 297.106 175.838 296.53 175.838 295.854C175.838 295.178 175.652 294.606 175.279 294.138C174.906 293.67 174.399 293.436 173.758 293.436C173.117 293.436 172.605 293.674 172.224 294.151C171.851 294.619 171.665 295.187 171.665 295.854C171.665 296.53 171.851 297.106 172.224 297.583ZM183.667 299H182.692V294.892C182.692 294.363 182.571 293.991 182.328 293.774C182.086 293.549 181.739 293.436 181.288 293.436C180.924 293.436 180.569 293.531 180.222 293.722C179.884 293.913 179.62 294.142 179.429 294.411V299H178.454V292.721H179.429V293.631C179.672 293.345 179.997 293.098 180.404 292.89C180.812 292.673 181.232 292.565 181.665 292.565C183 292.565 183.667 293.241 183.667 294.593V299ZM187.604 299.156C186.538 299.156 185.693 298.827 185.069 298.168L185.576 297.466C185.792 297.717 186.087 297.93 186.46 298.103C186.841 298.276 187.235 298.363 187.643 298.363C188.111 298.363 188.475 298.263 188.735 298.064C188.995 297.865 189.125 297.605 189.125 297.284C189.125 297.007 188.99 296.79 188.722 296.634C188.453 296.469 188.128 296.348 187.747 296.27C187.374 296.183 186.997 296.088 186.616 295.984C186.234 295.871 185.909 295.685 185.641 295.425C185.372 295.156 185.238 294.805 185.238 294.372C185.238 293.861 185.446 293.432 185.862 293.085C186.286 292.738 186.858 292.565 187.578 292.565C188.522 292.565 189.298 292.868 189.905 293.475L189.45 294.151C189.008 293.622 188.384 293.358 187.578 293.358C187.153 293.358 186.815 293.453 186.564 293.644C186.312 293.826 186.187 294.06 186.187 294.346C186.187 294.597 186.321 294.797 186.59 294.944C186.858 295.083 187.179 295.195 187.552 295.282C187.933 295.36 188.314 295.455 188.696 295.568C189.077 295.681 189.402 295.88 189.671 296.166C189.939 296.443 190.074 296.807 190.074 297.258C190.074 297.813 189.857 298.268 189.424 298.623C188.99 298.978 188.384 299.156 187.604 299.156Z" fill="#FB3E3E"/>
<g clip-path="url(#clip0)">
<path fill-rule="evenodd" clip-rule="evenodd" d="M29 278L28.842 278C26.8995 278 25.7499 278 24.7906 278.291C22.6333 278.945 20.9451 280.633 20.2907 282.791C19.9997 283.75 19.9998 284.899 20 286.842L20 287L20 287.158C19.9998 289.101 19.9997 290.25 20.2907 291.209C20.9451 293.367 22.6333 295.055 24.7906 295.709C25.7499 296 26.8995 296 28.842 296H28.842L29 296L29.158 296H29.1581C31.1006 296 32.2502 296 33.2095 295.709C35.3668 295.055 37.055 293.367 37.7094 291.209C38.0004 290.25 38.0003 289.101 38.0001 287.158V287.158L38 287L38.0001 286.842V286.842C38.0003 284.899 38.0004 283.75 37.7094 282.791C37.055 280.633 35.3668 278.945 33.2095 278.291C32.2502 278 31.1006 278 29.1581 278L29 278ZM25.2261 279.726C25.9444 279.508 26.8521 279.5 29 279.5C31.148 279.5 32.0556 279.508 32.774 279.726C34.4519 280.235 35.765 281.548 36.274 283.226C36.4919 283.944 36.5 284.852 36.5 287C36.5 289.148 36.4919 290.056 36.274 290.774C35.765 292.452 34.4519 293.765 32.774 294.274C32.0556 294.492 31.148 294.5 29 294.5C26.8521 294.5 25.9444 294.492 25.2261 294.274C23.5481 293.765 22.2351 292.452 21.7261 290.774C21.5082 290.056 21.5 289.148 21.5 287C21.5 284.852 21.5082 283.944 21.7261 283.226C22.2351 281.548 23.5481 280.235 25.2261 279.726ZM33.2804 285.28C33.5733 284.987 33.5733 284.513 33.2804 284.22C32.9875 283.927 32.5126 283.927 32.2197 284.22L28.25 288.189L26.5304 286.47C26.2375 286.177 25.7626 286.177 25.4697 286.47C25.1768 286.763 25.1768 287.237 25.4697 287.53L27.7197 289.78C28.0126 290.073 28.4875 290.073 28.7804 289.78L33.2804 285.28Z" fill="#FB3E3E"/>
</g>
<rect x="20.5" y="321.5" width="207" height="38" rx="9.5" stroke="#FB3E3E"/>
<path d="M104.392 345H102.232L99.864 341.016H98.008V345H96.136V334.328H100.824C101.869 334.328 102.712 334.637 103.352 335.256C103.992 335.875 104.312 336.68 104.312 337.672C104.312 338.568 104.067 339.288 103.576 339.832C103.085 340.365 102.488 340.691 101.784 340.808L104.392 345ZM100.568 339.368C101.101 339.368 101.539 339.213 101.88 338.904C102.221 338.595 102.392 338.184 102.392 337.672C102.392 337.16 102.221 336.749 101.88 336.44C101.539 336.131 101.101 335.976 100.568 335.976H98.008V339.368H100.568ZM109.219 345.192C108.045 345.192 107.075 344.819 106.307 344.072C105.549 343.315 105.171 342.333 105.171 341.128C105.171 339.997 105.539 339.043 106.275 338.264C107.021 337.475 107.96 337.08 109.091 337.08C110.232 337.08 111.149 337.475 111.843 338.264C112.547 339.053 112.899 340.061 112.899 341.288V341.688H106.931C106.995 342.296 107.245 342.803 107.683 343.208C108.12 343.613 108.691 343.816 109.395 343.816C109.789 343.816 110.184 343.741 110.579 343.592C110.984 343.443 111.32 343.235 111.587 342.968L112.355 344.072C111.576 344.819 110.531 345.192 109.219 345.192ZM111.267 340.504C111.245 339.971 111.048 339.496 110.675 339.08C110.312 338.664 109.784 338.456 109.091 338.456C108.429 338.456 107.912 338.664 107.539 339.08C107.165 339.485 106.957 339.96 106.914 340.504H111.267ZM117.693 348.136C116.381 348.136 115.303 347.752 114.461 346.984L115.245 345.768C115.821 346.429 116.637 346.76 117.693 346.76C118.333 346.76 118.871 346.589 119.309 346.248C119.757 345.917 119.981 345.389 119.981 344.664V343.736C119.319 344.589 118.493 345.016 117.501 345.016C116.487 345.016 115.661 344.664 115.021 343.96C114.391 343.256 114.077 342.285 114.077 341.048C114.077 339.821 114.391 338.856 115.021 338.152C115.661 337.437 116.487 337.08 117.501 337.08C118.514 337.08 119.341 337.501 119.981 338.344V337.272H121.661V344.6C121.661 345.261 121.543 345.832 121.309 346.312C121.085 346.803 120.775 347.171 120.381 347.416C119.986 347.672 119.565 347.853 119.117 347.96C118.679 348.077 118.205 348.136 117.693 348.136ZM117.997 343.528C118.381 343.528 118.759 343.427 119.133 343.224C119.506 343.021 119.789 342.776 119.981 342.488V339.608C119.789 339.32 119.506 339.075 119.133 338.872C118.759 338.669 118.381 338.568 117.997 338.568C117.335 338.568 116.807 338.797 116.413 339.256C116.018 339.704 115.821 340.301 115.821 341.048C115.821 341.795 116.018 342.397 116.413 342.856C116.807 343.304 117.335 343.528 117.997 343.528ZM124.67 336.328C124.393 336.328 124.147 336.227 123.934 336.024C123.731 335.821 123.63 335.576 123.63 335.288C123.63 335 123.731 334.755 123.934 334.552C124.147 334.349 124.393 334.248 124.67 334.248C124.958 334.248 125.203 334.349 125.406 334.552C125.609 334.755 125.71 335 125.71 335.288C125.71 335.576 125.609 335.821 125.406 336.024C125.203 336.227 124.958 336.328 124.67 336.328ZM125.518 345H123.838V337.272H125.518V345ZM130.337 345.192C128.951 345.192 127.847 344.792 127.025 343.992L127.793 342.776C128.081 343.075 128.471 343.331 128.961 343.544C129.452 343.757 129.937 343.864 130.417 343.864C130.908 343.864 131.281 343.768 131.537 343.576C131.804 343.384 131.937 343.133 131.937 342.824C131.937 342.547 131.777 342.333 131.457 342.184C131.137 342.024 130.748 341.901 130.289 341.816C129.831 341.72 129.372 341.608 128.913 341.48C128.455 341.341 128.065 341.101 127.745 340.76C127.425 340.419 127.265 339.976 127.265 339.432C127.265 338.771 127.537 338.216 128.081 337.768C128.625 337.309 129.367 337.08 130.305 337.08C131.489 337.08 132.492 337.443 133.313 338.168L132.609 339.352C132.364 339.075 132.039 338.851 131.633 338.68C131.228 338.509 130.791 338.424 130.321 338.424C129.884 338.424 129.532 338.515 129.265 338.696C129.009 338.867 128.881 339.091 128.881 339.368C128.881 339.581 128.993 339.757 129.217 339.896C129.452 340.024 129.74 340.12 130.081 340.184C130.433 340.248 130.812 340.339 131.217 340.456C131.623 340.563 131.996 340.691 132.337 340.84C132.689 340.989 132.977 341.235 133.201 341.576C133.436 341.907 133.553 342.312 133.553 342.792C133.553 343.496 133.271 344.072 132.705 344.52C132.14 344.968 131.351 345.192 130.337 345.192ZM137.564 345.192C136.914 345.192 136.418 345.021 136.076 344.68C135.746 344.339 135.58 343.848 135.58 343.208V338.744H134.3V337.272H135.58V335.16H137.26V337.272H138.828V338.744H137.26V342.792C137.26 343.069 137.324 343.293 137.452 343.464C137.58 343.624 137.762 343.704 137.996 343.704C138.338 343.704 138.588 343.613 138.748 343.432L139.148 344.696C138.796 345.027 138.268 345.192 137.564 345.192ZM143.922 345.192C142.748 345.192 141.778 344.819 141.01 344.072C140.252 343.315 139.874 342.333 139.874 341.128C139.874 339.997 140.242 339.043 140.978 338.264C141.724 337.475 142.663 337.08 143.794 337.08C144.935 337.08 145.852 337.475 146.546 338.264C147.25 339.053 147.602 340.061 147.602 341.288V341.688H141.634C141.698 342.296 141.948 342.803 142.386 343.208C142.823 343.613 143.394 343.816 144.098 343.816C144.492 343.816 144.887 343.741 145.282 343.592C145.687 343.443 146.023 343.235 146.29 342.968L147.058 344.072C146.279 344.819 145.234 345.192 143.922 345.192ZM145.97 340.504C145.948 339.971 145.751 339.496 145.378 339.08C145.015 338.664 144.487 338.456 143.794 338.456C143.132 338.456 142.615 338.664 142.242 339.08C141.868 339.485 141.66 339.96 141.618 340.504H145.97ZM150.94 345H149.26V337.272H150.94V338.408C151.239 338.024 151.612 337.709 152.06 337.464C152.508 337.219 152.972 337.096 153.452 337.096V338.76C153.303 338.728 153.127 338.712 152.924 338.712C152.572 338.712 152.193 338.819 151.788 339.032C151.393 339.235 151.111 339.469 150.94 339.736V345Z" fill="white"/>
<circle opacity="0.7" cx="223" cy="359" r="18" fill="#FB3E3E"/>
<circle opacity="0.7" cx="223.4" cy="359.4" r="11.2" fill="#FB3E3E"/>
<g clip-path="url(#clip1)">
<path d="M235.243 369.433L232.059 366.248L234.33 364.936C234.508 364.834 234.611 364.639 234.596 364.434C234.582 364.23 234.451 364.052 234.261 363.976L224.131 359.935C223.933 359.856 223.706 359.903 223.555 360.054C223.404 360.205 223.357 360.432 223.436 360.63L227.476 370.761C227.552 370.952 227.73 371.082 227.935 371.097C228.139 371.111 228.334 371.008 228.436 370.831L229.748 368.559L232.932 371.743C233.033 371.844 233.169 371.9 233.311 371.9C233.453 371.9 233.589 371.844 233.689 371.743L235.243 370.189C235.452 369.98 235.452 369.642 235.243 369.433Z" fill="white"/>
<path d="M221.75 357.492C221.541 357.283 221.202 357.283 220.993 357.492C220.784 357.701 220.784 358.04 220.993 358.249L222.182 359.438C222.286 359.542 222.423 359.594 222.56 359.594C222.697 359.594 222.834 359.542 222.938 359.438C223.147 359.229 223.147 358.89 222.938 358.681L221.75 357.492Z" fill="white"/>
<path d="M222.152 361.191C222.152 360.896 221.913 360.656 221.617 360.656H219.936C219.641 360.656 219.401 360.895 219.401 361.191C219.401 361.486 219.64 361.726 219.936 361.726H221.617C221.913 361.726 222.152 361.486 222.152 361.191Z" fill="white"/>
<path d="M221.936 362.842L220.747 364.031C220.538 364.24 220.538 364.579 220.747 364.788C220.851 364.892 220.988 364.945 221.125 364.945C221.262 364.945 221.399 364.892 221.503 364.788L222.692 363.599C222.901 363.39 222.901 363.051 222.692 362.842C222.483 362.633 222.145 362.633 221.936 362.842Z" fill="white"/>
<path d="M224.692 358.652C224.987 358.652 225.227 358.412 225.227 358.116V356.435C225.227 356.139 224.987 355.9 224.692 355.9C224.396 355.9 224.156 356.139 224.156 356.435V358.117C224.156 358.412 224.396 358.652 224.692 358.652Z" fill="white"/>
<path d="M226.721 359.348C226.858 359.348 226.995 359.296 227.099 359.191L228.288 358.002C228.497 357.793 228.497 357.455 228.288 357.246C228.079 357.037 227.741 357.037 227.532 357.246L226.343 358.435C226.134 358.644 226.134 358.982 226.343 359.191C226.447 359.296 226.584 359.348 226.721 359.348Z" fill="white"/>
</g>
<defs>
<clipPath id="clip0">
<rect width="18" height="18" fill="white" transform="translate(20 278)"/>
</clipPath>
<clipPath id="clip1">
<rect width="16" height="16" fill="white" transform="translate(219.4 355.9)"/>
</clipPath>
</defs>
</svg>
