<svg width="248" height="392" viewBox="0 0 248 392" fill="none" xmlns="http://www.w3.org/2000/svg">
<rect width="248" height="392" rx="30" fill="#151A23"/>
<path d="M110.676 38H103.278V25.994H105.384V36.146H110.676V38ZM116.183 38.216C114.839 38.216 113.759 37.778 112.943 36.902C112.127 36.014 111.719 34.928 111.719 33.644C111.719 32.36 112.127 31.28 112.943 30.404C113.759 29.528 114.839 29.09 116.183 29.09C117.539 29.09 118.625 29.528 119.441 30.404C120.257 31.28 120.665 32.36 120.665 33.644C120.665 34.94 120.257 36.026 119.441 36.902C118.625 37.778 117.539 38.216 116.183 38.216ZM116.183 36.542C116.963 36.542 117.575 36.266 118.019 35.714C118.475 35.15 118.703 34.46 118.703 33.644C118.703 32.84 118.475 32.162 118.019 31.61C117.575 31.046 116.963 30.764 116.183 30.764C115.415 30.764 114.803 31.046 114.347 31.61C113.903 32.162 113.681 32.84 113.681 33.644C113.681 34.46 113.903 35.15 114.347 35.714C114.803 36.266 115.415 36.542 116.183 36.542ZM126.106 41.528C124.63 41.528 123.418 41.096 122.47 40.232L123.352 38.864C124 39.608 124.918 39.98 126.106 39.98C126.826 39.98 127.432 39.788 127.924 39.404C128.428 39.032 128.68 38.438 128.68 37.622V36.578C127.936 37.538 127.006 38.018 125.89 38.018C124.75 38.018 123.82 37.622 123.1 36.83C122.392 36.038 122.038 34.946 122.038 33.554C122.038 32.174 122.392 31.088 123.1 30.296C123.82 29.492 124.75 29.09 125.89 29.09C127.03 29.09 127.96 29.564 128.68 30.512V29.306H130.57V37.55C130.57 38.294 130.438 38.936 130.174 39.476C129.922 40.028 129.574 40.442 129.13 40.718C128.686 41.006 128.212 41.21 127.708 41.33C127.216 41.462 126.682 41.528 126.106 41.528ZM126.448 36.344C126.88 36.344 127.306 36.23 127.726 36.002C128.146 35.774 128.464 35.498 128.68 35.174V31.934C128.464 31.61 128.146 31.334 127.726 31.106C127.306 30.878 126.88 30.764 126.448 30.764C125.704 30.764 125.11 31.022 124.666 31.538C124.222 32.042 124 32.714 124 33.554C124 34.394 124.222 35.072 124.666 35.588C125.11 36.092 125.704 36.344 126.448 36.344ZM133.955 28.244C133.643 28.244 133.367 28.13 133.127 27.902C132.899 27.674 132.785 27.398 132.785 27.074C132.785 26.75 132.899 26.474 133.127 26.246C133.367 26.018 133.643 25.904 133.955 25.904C134.279 25.904 134.555 26.018 134.783 26.246C135.011 26.474 135.125 26.75 135.125 27.074C135.125 27.398 135.011 27.674 134.783 27.902C134.555 28.13 134.279 28.244 133.955 28.244ZM134.909 38H133.019V29.306H134.909V38ZM145.119 38H143.229V32.564C143.229 31.364 142.647 30.764 141.483 30.764C141.027 30.764 140.601 30.878 140.205 31.106C139.809 31.334 139.491 31.61 139.251 31.934V38H137.361V29.306H139.251V30.494C139.575 30.11 140.007 29.78 140.547 29.504C141.087 29.228 141.675 29.09 142.311 29.09C143.235 29.09 143.931 29.33 144.399 29.81C144.879 30.29 145.119 30.98 145.119 31.88V38Z" fill="white"/>
<rect x="20.5" y="59.5" width="207" height="38" rx="9.5" fill="#131820" stroke="#191F2B"/>
<path d="M67.24 83H60.248V72.328H67.24V73.512H61.576V76.952H67.128V78.136H61.576V81.816H67.24V83ZM72.4294 79.656H68.5894V78.6H72.4294V79.656ZM84.6343 83H83.4343V77.752C83.4343 76.6853 82.9596 76.152 82.0103 76.152C81.6263 76.152 81.2423 76.2693 80.8583 76.504C80.4743 76.7387 80.1756 77.016 79.9623 77.336V83H78.7623V77.752C78.7623 76.6853 78.2876 76.152 77.3383 76.152C76.9649 76.152 76.5863 76.2693 76.2023 76.504C75.8289 76.7387 75.5303 77.0213 75.3063 77.352V83H74.1063V75.272H75.3063V76.392C75.4983 76.0933 75.8343 75.8 76.3143 75.512C76.7943 75.224 77.2903 75.08 77.8023 75.08C78.3676 75.08 78.8263 75.2133 79.1783 75.48C79.5303 75.7467 79.7649 76.0933 79.8823 76.52C80.1169 76.136 80.4743 75.8 80.9543 75.512C81.4343 75.224 81.9409 75.08 82.4743 75.08C83.9143 75.08 84.6343 75.8587 84.6343 77.416V83ZM93.0601 83H91.8601V82.12C91.2095 82.8347 90.3561 83.192 89.3001 83.192C88.5855 83.192 87.9561 82.9627 87.4121 82.504C86.8681 82.0453 86.5961 81.4213 86.5961 80.632C86.5961 79.8213 86.8628 79.1973 87.3961 78.76C87.9401 78.312 88.5748 78.088 89.3001 78.088C90.3988 78.088 91.2521 78.44 91.8601 79.144V77.752C91.8601 77.24 91.6788 76.84 91.3161 76.552C90.9535 76.264 90.4841 76.12 89.9081 76.12C89.0015 76.12 88.2121 76.4773 87.5401 77.192L86.9801 76.36C87.8015 75.5067 88.8308 75.08 90.0681 75.08C90.9535 75.08 91.6735 75.2933 92.2281 75.72C92.7828 76.1467 93.0601 76.8027 93.0601 77.688V83ZM89.7321 82.328C90.6921 82.328 91.4015 82.008 91.8601 81.368V79.912C91.4015 79.272 90.6921 78.952 89.7321 78.952C89.1775 78.952 88.7188 79.112 88.3561 79.432C88.0041 79.7413 87.8281 80.1467 87.8281 80.648C87.8281 81.1387 88.0041 81.544 88.3561 81.864C88.7188 82.1733 89.1775 82.328 89.7321 82.328ZM96.0576 74.168C95.8443 74.168 95.6576 74.0933 95.4976 73.944C95.3376 73.784 95.2576 73.592 95.2576 73.368C95.2576 73.144 95.3376 72.952 95.4976 72.792C95.6576 72.632 95.8443 72.552 96.0576 72.552C96.2816 72.552 96.4736 72.632 96.6336 72.792C96.7936 72.952 96.8736 73.144 96.8736 73.368C96.8736 73.592 96.7936 73.784 96.6336 73.944C96.4736 74.0933 96.2816 74.168 96.0576 74.168ZM96.6656 83H95.4656V75.272H96.6656V83ZM100.259 83H99.0594V72.328H100.259V83Z" fill="#5D6574"/>
<g clip-path="url(#clip0)">
<path fill-rule="evenodd" clip-rule="evenodd" d="M38.125 71.5L38.0924 71.5C37.0117 71.5 36.1553 71.5 35.4648 71.5558C34.7587 71.6129 34.161 71.732 33.6143 72.0072C32.7041 72.4654 31.9654 73.2041 31.5072 74.1143C31.232 74.661 31.1129 75.2587 31.0558 75.9648C31 76.6553 31 77.5117 31 78.5924L31 78.625L31 78.6576C31 79.7383 31 80.5947 31.0558 81.2852C31.1129 81.9913 31.232 82.589 31.5072 83.1357C31.9654 84.0459 32.7041 84.7846 33.6143 85.2428C34.161 85.518 34.7587 85.6371 35.4648 85.6942C36.1553 85.75 37.0117 85.75 38.0923 85.75H38.0924H38.125H41.875H41.9076H41.9077C42.9883 85.75 43.8447 85.75 44.5352 85.6942C45.2413 85.6371 45.839 85.518 46.3857 85.2428C47.2959 84.7846 48.0346 84.0459 48.4928 83.1357C48.768 82.589 48.8871 81.9913 48.9442 81.2852C49 80.5947 49 79.7383 49 78.6577V78.625V78.5923C49 77.5117 49 76.6553 48.9442 75.9648C48.8871 75.2587 48.768 74.661 48.4928 74.1143C48.0346 73.2041 47.2959 72.4654 46.3857 72.0072C45.839 71.732 45.2413 71.6129 44.5352 71.5558C43.8447 71.5 42.9883 71.5 41.9076 71.5L41.875 71.5H38.125ZM34.2888 73.347C34.5906 73.1951 34.9713 73.1006 35.5857 73.0509C36.2087 73.0006 37.0044 73 38.125 73H41.875C42.9956 73 43.7913 73.0006 44.4143 73.0509C45.0287 73.1006 45.4094 73.1951 45.7112 73.347C46.334 73.6605 46.8395 74.166 47.153 74.7888C47.175 74.8326 47.1959 74.878 47.2155 74.9256L41.7448 78.4069C40.6803 79.0844 39.3197 79.0844 38.2552 78.4069L32.7845 74.9256C32.8041 74.878 32.825 74.8326 32.847 74.7888C33.1605 74.166 33.666 73.6605 34.2888 73.347ZM32.5238 76.5377C32.5003 77.0861 32.5 77.7584 32.5 78.625C32.5 79.7456 32.5006 80.5413 32.5509 81.1643C32.6006 81.7787 32.6951 82.1594 32.847 82.4612C33.1605 83.084 33.666 83.5895 34.2888 83.903C34.5906 84.0549 34.9713 84.1494 35.5857 84.1991C36.2087 84.2494 37.0044 84.25 38.125 84.25H41.875C42.9956 84.25 43.7913 84.2494 44.4143 84.1991C45.0287 84.1494 45.4094 84.0549 45.7112 83.903C46.334 83.5895 46.8395 83.084 47.153 82.4612C47.3049 82.1594 47.3994 81.7787 47.4491 81.1643C47.4994 80.5413 47.5 79.7456 47.5 78.625C47.5 77.7584 47.4997 77.0861 47.4762 76.5377L42.5502 79.6724C40.9942 80.6626 39.0058 80.6626 37.4498 79.6724L32.5238 76.5377Z" fill="#283142"/>
</g>
<rect x="20.5" y="167.5" width="207" height="38" rx="9.5" stroke="#FB3E3E"/>
<path d="M104.784 191.192C102.949 191.192 101.504 190.627 100.448 189.496L101.488 188.056C102.405 189.037 103.531 189.528 104.864 189.528C105.579 189.528 106.112 189.384 106.464 189.096C106.827 188.808 107.008 188.467 107.008 188.072C107.008 187.667 106.795 187.347 106.368 187.112C105.941 186.867 105.424 186.675 104.816 186.536C104.208 186.397 103.595 186.232 102.976 186.04C102.368 185.848 101.851 185.523 101.424 185.064C100.997 184.605 100.784 184.013 100.784 183.288C100.784 182.392 101.141 181.651 101.856 181.064C102.581 180.467 103.52 180.168 104.672 180.168C106.315 180.168 107.648 180.664 108.672 181.656L107.6 183.048C106.789 182.237 105.76 181.832 104.512 181.832C103.957 181.832 103.515 181.955 103.184 182.2C102.864 182.435 102.704 182.755 102.704 183.16C102.704 183.427 102.816 183.651 103.04 183.832C103.275 184.013 103.573 184.163 103.936 184.28C104.299 184.387 104.699 184.493 105.136 184.6C105.584 184.707 106.027 184.84 106.464 185C106.912 185.149 107.317 185.336 107.68 185.56C108.043 185.784 108.336 186.093 108.56 186.488C108.795 186.883 108.912 187.352 108.912 187.896C108.912 188.856 108.565 189.645 107.872 190.264C107.179 190.883 106.149 191.192 104.784 191.192ZM111.42 182.328C111.143 182.328 110.897 182.227 110.684 182.024C110.481 181.821 110.38 181.576 110.38 181.288C110.38 181 110.481 180.755 110.684 180.552C110.897 180.349 111.143 180.248 111.42 180.248C111.708 180.248 111.953 180.349 112.156 180.552C112.359 180.755 112.46 181 112.46 181.288C112.46 181.576 112.359 181.821 112.156 182.024C111.953 182.227 111.708 182.328 111.42 182.328ZM112.268 191H110.588V183.272H112.268V191ZM117.583 194.136C116.271 194.136 115.194 193.752 114.351 192.984L115.135 191.768C115.711 192.429 116.527 192.76 117.583 192.76C118.223 192.76 118.762 192.589 119.199 192.248C119.647 191.917 119.871 191.389 119.871 190.664V189.736C119.21 190.589 118.383 191.016 117.391 191.016C116.378 191.016 115.551 190.664 114.911 189.96C114.282 189.256 113.967 188.285 113.967 187.048C113.967 185.821 114.282 184.856 114.911 184.152C115.551 183.437 116.378 183.08 117.391 183.08C118.405 183.08 119.231 183.501 119.871 184.344V183.272H121.551V190.6C121.551 191.261 121.434 191.832 121.199 192.312C120.975 192.803 120.666 193.171 120.271 193.416C119.877 193.672 119.455 193.853 119.007 193.96C118.57 194.077 118.095 194.136 117.583 194.136ZM117.887 189.528C118.271 189.528 118.65 189.427 119.023 189.224C119.397 189.021 119.679 188.776 119.871 188.488V185.608C119.679 185.32 119.397 185.075 119.023 184.872C118.65 184.669 118.271 184.568 117.887 184.568C117.226 184.568 116.698 184.797 116.303 185.256C115.909 185.704 115.711 186.301 115.711 187.048C115.711 187.795 115.909 188.397 116.303 188.856C116.698 189.304 117.226 189.528 117.887 189.528ZM130.625 191H128.945V186.168C128.945 185.101 128.427 184.568 127.393 184.568C126.987 184.568 126.609 184.669 126.257 184.872C125.905 185.075 125.622 185.32 125.409 185.608V191H123.729V183.272H125.409V184.328C125.697 183.987 126.081 183.693 126.561 183.448C127.041 183.203 127.563 183.08 128.129 183.08C128.95 183.08 129.569 183.293 129.985 183.72C130.411 184.147 130.625 184.76 130.625 185.56V191ZM137.748 182.328C137.471 182.328 137.225 182.227 137.012 182.024C136.809 181.821 136.708 181.576 136.708 181.288C136.708 181 136.809 180.755 137.012 180.552C137.225 180.349 137.471 180.248 137.748 180.248C138.036 180.248 138.281 180.349 138.484 180.552C138.687 180.755 138.788 181 138.788 181.288C138.788 181.576 138.687 181.821 138.484 182.024C138.281 182.227 138.036 182.328 137.748 182.328ZM138.596 191H136.916V183.272H138.596V191ZM147.672 191H145.992V186.168C145.992 185.101 145.474 184.568 144.44 184.568C144.034 184.568 143.656 184.669 143.304 184.872C142.952 185.075 142.669 185.32 142.456 185.608V191H140.776V183.272H142.456V184.328C142.744 183.987 143.128 183.693 143.608 183.448C144.088 183.203 144.61 183.08 145.176 183.08C145.997 183.08 146.616 183.293 147.032 183.72C147.458 184.147 147.672 184.76 147.672 185.56V191Z" fill="white"/>
<rect x="20.5" y="324.5" width="207" height="38" rx="9.5" stroke="#6FDCFF"/>
<path d="M74.256 348.192C72.656 348.192 71.3227 347.68 70.256 346.656C69.1893 345.621 68.656 344.293 68.656 342.672C68.656 341.051 69.1893 339.728 70.256 338.704C71.3227 337.669 72.656 337.152 74.256 337.152C76.112 337.152 77.5413 337.952 78.544 339.552L76.944 340.368C76.6773 339.909 76.2987 339.536 75.808 339.248C75.328 338.96 74.8107 338.816 74.256 338.816C73.2 338.816 72.32 339.179 71.616 339.904C70.9227 340.629 70.576 341.552 70.576 342.672C70.576 343.792 70.9227 344.715 71.616 345.44C72.32 346.165 73.2 346.528 74.256 346.528C74.8213 346.528 75.344 346.384 75.824 346.096C76.304 345.808 76.6773 345.435 76.944 344.976L78.544 345.792C77.52 347.392 76.0907 348.192 74.256 348.192ZM81.6743 348H79.9943V340.272H81.6743V341.408C81.9729 341.024 82.3463 340.709 82.7943 340.464C83.2423 340.219 83.7063 340.096 84.1863 340.096V341.76C84.0369 341.728 83.8609 341.712 83.6583 341.712C83.3063 341.712 82.9276 341.819 82.5223 342.032C82.1276 342.235 81.8449 342.469 81.6743 342.736V348ZM89.1091 348.192C87.9358 348.192 86.9651 347.819 86.1971 347.072C85.4398 346.315 85.0611 345.333 85.0611 344.128C85.0611 342.997 85.4291 342.043 86.1651 341.264C86.9118 340.475 87.8505 340.08 88.9811 340.08C90.1225 340.08 91.0398 340.475 91.7331 341.264C92.4371 342.053 92.7891 343.061 92.7891 344.288V344.688H86.8211C86.8851 345.296 87.1358 345.803 87.5731 346.208C88.0105 346.613 88.5811 346.816 89.2851 346.816C89.6798 346.816 90.0745 346.741 90.4691 346.592C90.8745 346.443 91.2105 346.235 91.4771 345.968L92.2451 347.072C91.4665 347.819 90.4211 348.192 89.1091 348.192ZM91.1571 343.504C91.1358 342.971 90.9385 342.496 90.5651 342.08C90.2025 341.664 89.6745 341.456 88.9811 341.456C88.3198 341.456 87.8025 341.664 87.4291 342.08C87.0558 342.485 86.8478 342.96 86.8051 343.504H91.1571ZM100.847 348H99.1674V347.168C98.57 347.851 97.738 348.192 96.6714 348.192C95.9674 348.192 95.3434 347.968 94.7994 347.52C94.2554 347.061 93.9834 346.432 93.9834 345.632C93.9834 344.811 94.25 344.187 94.7834 343.76C95.3274 343.333 95.9567 343.12 96.6714 343.12C97.77 343.12 98.602 343.451 99.1674 344.112V342.96C99.1674 342.512 99.002 342.16 98.6714 341.904C98.3407 341.648 97.9034 341.52 97.3594 341.52C96.4954 341.52 95.7327 341.845 95.0714 342.496L94.3834 341.328C95.258 340.496 96.3407 340.08 97.6314 340.08C98.5807 340.08 99.354 340.304 99.9514 340.752C100.549 341.2 100.847 341.909 100.847 342.88V348ZM97.3274 347.04C98.17 347.04 98.7834 346.773 99.1674 346.24V345.072C98.7834 344.539 98.17 344.272 97.3274 344.272C96.8474 344.272 96.4527 344.4 96.1434 344.656C95.834 344.912 95.6794 345.248 95.6794 345.664C95.6794 346.08 95.834 346.416 96.1434 346.672C96.4527 346.917 96.8474 347.04 97.3274 347.04ZM105.346 348.192C104.695 348.192 104.199 348.021 103.858 347.68C103.527 347.339 103.362 346.848 103.362 346.208V341.744H102.082V340.272H103.362V338.16H105.042V340.272H106.61V341.744H105.042V345.792C105.042 346.069 105.106 346.293 105.234 346.464C105.362 346.624 105.543 346.704 105.778 346.704C106.119 346.704 106.37 346.613 106.53 346.432L106.93 347.696C106.578 348.027 106.05 348.192 105.346 348.192ZM111.703 348.192C110.53 348.192 109.559 347.819 108.791 347.072C108.034 346.315 107.655 345.333 107.655 344.128C107.655 342.997 108.023 342.043 108.759 341.264C109.506 340.475 110.444 340.08 111.575 340.08C112.716 340.08 113.634 340.475 114.327 341.264C115.031 342.053 115.383 343.061 115.383 344.288V344.688H109.415C109.479 345.296 109.73 345.803 110.167 346.208C110.604 346.613 111.175 346.816 111.879 346.816C112.274 346.816 112.668 346.741 113.063 346.592C113.468 346.443 113.804 346.235 114.071 345.968L114.839 347.072C114.06 347.819 113.015 348.192 111.703 348.192ZM113.751 343.504C113.73 342.971 113.532 342.496 113.159 342.08C112.796 341.664 112.268 341.456 111.575 341.456C110.914 341.456 110.396 341.664 110.023 342.08C109.65 342.485 109.442 342.96 109.399 343.504H113.751ZM130.799 348H128.671L127.887 345.952H122.991L122.207 348H120.079L124.271 337.328H126.607L130.799 348ZM127.359 344.304L125.439 339.216L123.519 344.304H127.359ZM135.436 348.192C134.263 348.192 133.303 347.813 132.556 347.056C131.809 346.288 131.436 345.312 131.436 344.128C131.436 342.955 131.809 341.989 132.556 341.232C133.303 340.464 134.263 340.08 135.436 340.08C136.727 340.08 137.713 340.539 138.396 341.456L137.292 342.48C136.865 341.872 136.273 341.568 135.516 341.568C134.812 341.568 134.247 341.808 133.82 342.288C133.393 342.757 133.18 343.371 133.18 344.128C133.18 344.885 133.393 345.504 133.82 345.984C134.247 346.464 134.812 346.704 135.516 346.704C136.252 346.704 136.844 346.4 137.292 345.792L138.396 346.816C137.713 347.733 136.727 348.192 135.436 348.192ZM143.389 348.192C142.216 348.192 141.256 347.813 140.509 347.056C139.763 346.288 139.389 345.312 139.389 344.128C139.389 342.955 139.763 341.989 140.509 341.232C141.256 340.464 142.216 340.08 143.389 340.08C144.68 340.08 145.667 340.539 146.349 341.456L145.245 342.48C144.819 341.872 144.227 341.568 143.469 341.568C142.765 341.568 142.2 341.808 141.773 342.288C141.347 342.757 141.133 343.371 141.133 344.128C141.133 344.885 141.347 345.504 141.773 345.984C142.2 346.464 142.765 346.704 143.469 346.704C144.205 346.704 144.797 346.4 145.245 345.792L146.349 346.816C145.667 347.733 144.68 348.192 143.389 348.192ZM151.31 348.192C150.116 348.192 149.156 347.803 148.43 347.024C147.705 346.235 147.342 345.269 147.342 344.128C147.342 342.987 147.705 342.027 148.43 341.248C149.156 340.469 150.116 340.08 151.31 340.08C152.516 340.08 153.481 340.469 154.206 341.248C154.932 342.027 155.294 342.987 155.294 344.128C155.294 345.28 154.932 346.245 154.206 347.024C153.481 347.803 152.516 348.192 151.31 348.192ZM151.31 346.704C152.004 346.704 152.548 346.459 152.942 345.968C153.348 345.467 153.55 344.853 153.55 344.128C153.55 343.413 153.348 342.811 152.942 342.32C152.548 341.819 152.004 341.568 151.31 341.568C150.628 341.568 150.084 341.819 149.678 342.32C149.284 342.811 149.086 343.413 149.086 344.128C149.086 344.853 149.284 345.467 149.678 345.968C150.084 346.459 150.628 346.704 151.31 346.704ZM163.89 348H162.21V346.976C161.485 347.787 160.573 348.192 159.474 348.192C157.821 348.192 156.994 347.376 156.994 345.744V340.272H158.674V345.136C158.674 345.701 158.808 346.107 159.074 346.352C159.341 346.587 159.725 346.704 160.226 346.704C160.632 346.704 161.01 346.608 161.362 346.416C161.714 346.224 161.997 345.984 162.21 345.696V340.272H163.89V348ZM172.968 348H171.288V343.168C171.288 342.101 170.771 341.568 169.736 341.568C169.331 341.568 168.952 341.669 168.6 341.872C168.248 342.075 167.966 342.32 167.752 342.608V348H166.072V340.272H167.752V341.328C168.04 340.987 168.424 340.693 168.904 340.448C169.384 340.203 169.907 340.08 170.472 340.08C171.294 340.08 171.912 340.293 172.328 340.72C172.755 341.147 172.968 341.76 172.968 342.56V348ZM177.471 348.192C176.82 348.192 176.324 348.021 175.983 347.68C175.652 347.339 175.487 346.848 175.487 346.208V341.744H174.207V340.272H175.487V338.16H177.167V340.272H178.735V341.744H177.167V345.792C177.167 346.069 177.231 346.293 177.359 346.464C177.487 346.624 177.668 346.704 177.903 346.704C178.244 346.704 178.495 346.613 178.655 346.432L179.055 347.696C178.703 348.027 178.175 348.192 177.471 348.192Z" fill="white"/>
<rect x="20.5" y="113.5" width="207" height="38" rx="9.5" fill="#131820" stroke="#191F2B"/>
<path d="M61.576 137H60.248V126.328H64.536C65.5707 126.328 66.3867 126.637 66.984 127.256C67.5813 127.875 67.88 128.637 67.88 129.544C67.88 130.451 67.576 131.213 66.968 131.832C66.3707 132.451 65.56 132.76 64.536 132.76H61.576V137ZM64.376 131.576C65.0053 131.576 65.5173 131.389 65.912 131.016C66.3067 130.632 66.504 130.141 66.504 129.544C66.504 128.947 66.3067 128.461 65.912 128.088C65.5173 127.704 65.0053 127.512 64.376 127.512H61.576V131.576H64.376ZM75.3101 137H74.1101V136.12C73.4595 136.835 72.6061 137.192 71.5501 137.192C70.8355 137.192 70.2061 136.963 69.6621 136.504C69.1181 136.045 68.8461 135.421 68.8461 134.632C68.8461 133.821 69.1128 133.197 69.6461 132.76C70.1901 132.312 70.8248 132.088 71.5501 132.088C72.6488 132.088 73.5021 132.44 74.1101 133.144V131.752C74.1101 131.24 73.9288 130.84 73.5661 130.552C73.2035 130.264 72.7341 130.12 72.1581 130.12C71.2515 130.12 70.4621 130.477 69.7901 131.192L69.2301 130.36C70.0515 129.507 71.0808 129.08 72.3181 129.08C73.2035 129.08 73.9235 129.293 74.4781 129.72C75.0328 130.147 75.3101 130.803 75.3101 131.688V137ZM71.9821 136.328C72.9421 136.328 73.6515 136.008 74.1101 135.368V133.912C73.6515 133.272 72.9421 132.952 71.9821 132.952C71.4275 132.952 70.9688 133.112 70.6061 133.432C70.2541 133.741 70.0781 134.147 70.0781 134.648C70.0781 135.139 70.2541 135.544 70.6061 135.864C70.9688 136.173 71.4275 136.328 71.9821 136.328ZM80.1636 137.192C78.8516 137.192 77.8116 136.787 77.0436 135.976L77.6676 135.112C77.9343 135.421 78.297 135.683 78.7556 135.896C79.225 136.109 79.7103 136.216 80.2116 136.216C80.7876 136.216 81.2356 136.093 81.5556 135.848C81.8756 135.603 82.0356 135.283 82.0356 134.888C82.0356 134.547 81.8703 134.28 81.5396 134.088C81.209 133.885 80.809 133.736 80.3396 133.64C79.881 133.533 79.417 133.416 78.9476 133.288C78.4783 133.149 78.0783 132.92 77.7476 132.6C77.417 132.269 77.2516 131.837 77.2516 131.304C77.2516 130.675 77.5076 130.147 78.0196 129.72C78.5423 129.293 79.2463 129.08 80.1316 129.08C81.2943 129.08 82.249 129.453 82.9956 130.2L82.4356 131.032C81.8916 130.381 81.1236 130.056 80.1316 130.056C79.609 130.056 79.193 130.173 78.8836 130.408C78.5743 130.632 78.4196 130.92 78.4196 131.272C78.4196 131.581 78.585 131.827 78.9156 132.008C79.2463 132.179 79.641 132.317 80.0996 132.424C80.569 132.52 81.0383 132.637 81.5076 132.776C81.977 132.915 82.377 133.16 82.7076 133.512C83.0383 133.853 83.2036 134.301 83.2036 134.856C83.2036 135.539 82.937 136.099 82.4036 136.536C81.8703 136.973 81.1236 137.192 80.1636 137.192ZM87.6011 137.192C86.2891 137.192 85.2491 136.787 84.4811 135.976L85.1051 135.112C85.3718 135.421 85.7345 135.683 86.1931 135.896C86.6625 136.109 87.1478 136.216 87.6491 136.216C88.2251 136.216 88.6731 136.093 88.9931 135.848C89.3131 135.603 89.4731 135.283 89.4731 134.888C89.4731 134.547 89.3078 134.28 88.9771 134.088C88.6465 133.885 88.2465 133.736 87.7771 133.64C87.3185 133.533 86.8545 133.416 86.3851 133.288C85.9158 133.149 85.5158 132.92 85.1851 132.6C84.8545 132.269 84.6891 131.837 84.6891 131.304C84.6891 130.675 84.9451 130.147 85.4571 129.72C85.9798 129.293 86.6838 129.08 87.5691 129.08C88.7318 129.08 89.6865 129.453 90.4331 130.2L89.8731 131.032C89.3291 130.381 88.5611 130.056 87.5691 130.056C87.0465 130.056 86.6305 130.173 86.3211 130.408C86.0118 130.632 85.8571 130.92 85.8571 131.272C85.8571 131.581 86.0225 131.827 86.3531 132.008C86.6838 132.179 87.0785 132.317 87.5371 132.424C88.0065 132.52 88.4758 132.637 88.9451 132.776C89.4145 132.915 89.8145 133.16 90.1451 133.512C90.4758 133.853 90.6411 134.301 90.6411 134.856C90.6411 135.539 90.3745 136.099 89.8411 136.536C89.3078 136.973 88.5611 137.192 87.6011 137.192ZM100.479 137H99.2786L97.2626 130.792L95.2466 137H94.0466L91.5826 129.272H92.8306L94.7186 135.432L96.7506 129.272H97.7746L99.8066 135.432L101.695 129.272H102.943L100.479 137ZM110.485 136.024C109.791 136.803 108.869 137.192 107.717 137.192C106.565 137.192 105.637 136.803 104.933 136.024C104.239 135.245 103.893 134.28 103.893 133.128C103.893 131.976 104.239 131.016 104.933 130.248C105.637 129.469 106.565 129.08 107.717 129.08C108.869 129.08 109.791 129.469 110.485 130.248C111.189 131.016 111.541 131.976 111.541 133.128C111.541 134.28 111.189 135.245 110.485 136.024ZM105.829 135.256C106.298 135.832 106.927 136.12 107.717 136.12C108.506 136.12 109.13 135.832 109.589 135.256C110.047 134.669 110.277 133.96 110.277 133.128C110.277 132.296 110.047 131.592 109.589 131.016C109.13 130.44 108.506 130.152 107.717 130.152C106.927 130.152 106.298 130.445 105.829 131.032C105.37 131.608 105.141 132.307 105.141 133.128C105.141 133.96 105.37 134.669 105.829 135.256ZM114.697 137H113.497V129.272H114.697V130.52C115.412 129.581 116.27 129.112 117.273 129.112V130.344C117.124 130.312 116.964 130.296 116.793 130.296C116.43 130.296 116.036 130.424 115.609 130.68C115.182 130.936 114.878 131.219 114.697 131.528V137ZM125.578 137H124.378V135.848C123.717 136.744 122.847 137.192 121.77 137.192C120.746 137.192 119.914 136.829 119.274 136.104C118.645 135.368 118.33 134.381 118.33 133.144C118.33 131.917 118.645 130.936 119.274 130.2C119.914 129.453 120.746 129.08 121.77 129.08C122.837 129.08 123.706 129.533 124.378 130.44V126.328H125.578V137ZM122.058 136.12C122.527 136.12 122.975 136.003 123.402 135.768C123.829 135.533 124.154 135.245 124.378 134.904V131.4C124.154 131.048 123.823 130.755 123.386 130.52C122.959 130.275 122.517 130.152 122.058 130.152C121.301 130.152 120.698 130.435 120.25 131C119.802 131.555 119.578 132.269 119.578 133.144C119.578 134.019 119.802 134.733 120.25 135.288C120.698 135.843 121.301 136.12 122.058 136.12Z" fill="#5D6574"/>
<g clip-path="url(#clip1)">
<path fill-rule="evenodd" clip-rule="evenodd" d="M35.5 128.5C35.5 126.015 37.5147 124 40 124C42.4853 124 44.5 126.015 44.5 128.5V130.005C44.6426 130.008 44.7742 130.013 44.8954 130.021C45.2125 130.042 45.512 130.089 45.8024 130.209C46.4762 130.488 47.0116 131.024 47.2907 131.698C47.411 131.988 47.4576 132.288 47.4792 132.605C47.5 132.909 47.5 133.28 47.5 133.725V133.75V134.85V134.883C47.5 135.975 47.5 136.841 47.443 137.538C47.3847 138.252 47.2631 138.855 46.9823 139.406C46.5269 140.3 45.8002 141.027 44.9065 141.482C44.3553 141.763 43.7517 141.885 43.0383 141.943C42.3406 142 41.4752 142 40.383 142H40.35H39.65H39.617C38.5248 142 37.6594 142 36.9617 141.943C36.2483 141.885 35.6447 141.763 35.0935 141.482C34.1998 141.027 33.4731 140.3 33.0177 139.406C32.7369 138.855 32.6153 138.252 32.557 137.538C32.5 136.841 32.5 135.975 32.5 134.883L32.5 134.85V133.75L32.5 133.725C32.5 133.28 32.5 132.909 32.5208 132.605C32.5424 132.288 32.589 131.988 32.7093 131.698C32.9884 131.024 33.5238 130.488 34.1976 130.209C34.488 130.089 34.7875 130.042 35.1046 130.021C35.2258 130.013 35.3574 130.008 35.5 130.005V128.5ZM37 130H43V128.5C43 126.843 41.6569 125.5 40 125.5C38.3431 125.5 37 126.843 37 128.5V130ZM35.2067 131.517C34.966 131.534 34.8488 131.563 34.7716 131.595C34.4654 131.722 34.222 131.965 34.0952 132.272C34.0632 132.349 34.0337 132.466 34.0173 132.707C34.0004 132.954 34 133.274 34 133.75V134.85C34 135.982 34.0006 136.787 34.052 137.416C34.1027 138.037 34.1991 138.421 34.3542 138.725C34.6658 139.337 35.163 139.834 35.7745 140.146C36.079 140.301 36.4633 140.397 37.0839 140.448C37.7133 140.499 38.5175 140.5 39.65 140.5H40.35C41.4825 140.5 42.2867 140.499 42.9161 140.448C43.5367 140.397 43.921 140.301 44.2255 140.146C44.837 139.834 45.3342 139.337 45.6458 138.725C45.8009 138.421 45.8973 138.037 45.948 137.416C45.9994 136.787 46 135.982 46 134.85V133.75C46 133.274 45.9996 132.954 45.9827 132.707C45.9663 132.466 45.9368 132.349 45.9049 132.272C45.778 131.965 45.5346 131.722 45.2284 131.595C45.1512 131.563 45.034 131.534 44.7933 131.517C44.5458 131.5 44.2262 131.5 43.75 131.5H36.25C35.7738 131.5 35.4542 131.5 35.2067 131.517Z" fill="#283142"/>
</g>
<path fill-rule="evenodd" clip-rule="evenodd" d="M201.844 126.518C202.039 126.323 202.356 126.323 202.551 126.518L203.848 127.815C205.029 127.054 206.428 126.5 208 126.5C209.859 126.5 211.476 127.274 212.777 128.251C214.078 129.227 215.092 130.426 215.757 131.334C215.772 131.355 215.787 131.376 215.802 131.396C216.191 131.926 216.498 132.344 216.498 133C216.498 133.656 216.191 134.074 215.802 134.604C215.787 134.624 215.772 134.645 215.757 134.666C215.19 135.44 214.37 136.425 213.336 137.303L215.279 139.246C215.474 139.441 215.474 139.758 215.279 139.953C215.083 140.148 214.767 140.148 214.572 139.953L212.236 137.617L209.392 134.773L206.227 131.608L203.432 128.814L201.844 127.225C201.648 127.03 201.648 126.713 201.844 126.518ZM212.626 136.593C213.61 135.77 214.399 134.827 214.95 134.075C215.4 133.461 215.498 133.3 215.498 133C215.498 132.7 215.4 132.539 214.95 131.925C214.318 131.062 213.371 129.946 212.177 129.05C210.983 128.155 209.573 127.5 208 127.5C206.746 127.5 205.595 127.917 204.573 128.54L206.642 130.609C207.042 130.38 207.506 130.25 208 130.25C209.519 130.25 210.75 131.481 210.75 133C210.75 133.494 210.62 133.958 210.392 134.359L212.626 136.593ZM209.642 133.609C209.712 133.419 209.75 133.214 209.75 133C209.75 132.034 208.967 131.25 208 131.25C207.786 131.25 207.581 131.288 207.392 131.359L209.642 133.609ZM202.425 129.574C202.623 129.767 202.627 130.083 202.435 130.281C201.877 130.854 201.411 131.432 201.05 131.925C200.601 132.539 200.502 132.7 200.502 133C200.502 133.3 200.601 133.461 201.05 134.075C201.683 134.938 202.63 136.054 203.824 136.95C205.017 137.845 206.428 138.5 208 138.5C208.851 138.5 209.653 138.309 210.4 137.991C210.654 137.883 210.947 138.002 211.055 138.256C211.164 138.51 211.045 138.804 210.791 138.912C209.939 139.274 209.004 139.5 208 139.5C206.142 139.5 204.524 138.726 203.223 137.749C201.923 136.773 200.909 135.574 200.244 134.666C200.228 134.645 200.213 134.624 200.198 134.604C199.809 134.074 199.502 133.656 199.502 133C199.502 132.344 199.809 131.926 200.198 131.396C200.213 131.376 200.228 131.355 200.244 131.334C200.626 130.812 201.121 130.197 201.718 129.584C201.911 129.386 202.227 129.382 202.425 129.574ZM205.708 133.252C205.97 133.163 206.254 133.303 206.343 133.565C206.517 134.077 206.923 134.483 207.436 134.657C207.697 134.746 207.837 135.03 207.748 135.292C207.659 135.553 207.375 135.693 207.113 135.604C206.307 135.329 205.671 134.693 205.396 133.887C205.307 133.626 205.447 133.341 205.708 133.252Z" fill="#222A39"/>
<path d="M35.254 234H34.092V224.662H40.21V225.698H35.254V228.708H40.112V229.744H35.254V234ZM47.1233 233.146C46.5166 233.827 45.7093 234.168 44.7013 234.168C43.6933 234.168 42.8813 233.827 42.2653 233.146C41.6586 232.465 41.3553 231.62 41.3553 230.612C41.3553 229.604 41.6586 228.764 42.2653 228.092C42.8813 227.411 43.6933 227.07 44.7013 227.07C45.7093 227.07 46.5166 227.411 47.1233 228.092C47.7393 228.764 48.0473 229.604 48.0473 230.612C48.0473 231.62 47.7393 232.465 47.1233 233.146ZM43.0493 232.474C43.4599 232.978 44.0106 233.23 44.7013 233.23C45.3919 233.23 45.9379 232.978 46.3393 232.474C46.7406 231.961 46.9413 231.34 46.9413 230.612C46.9413 229.884 46.7406 229.268 46.3393 228.764C45.9379 228.26 45.3919 228.008 44.7013 228.008C44.0106 228.008 43.4599 228.265 43.0493 228.778C42.6479 229.282 42.4473 229.893 42.4473 230.612C42.4473 231.34 42.6479 231.961 43.0493 232.474ZM50.809 234H49.759V227.238H50.809V228.33C51.4343 227.509 52.1857 227.098 53.063 227.098V228.176C52.9323 228.148 52.7923 228.134 52.643 228.134C52.3257 228.134 51.9803 228.246 51.607 228.47C51.2337 228.694 50.9677 228.941 50.809 229.212V234ZM57.0961 236.744C56.4987 236.744 55.9901 236.669 55.5701 236.52C55.1501 236.38 54.7487 236.119 54.3661 235.736L54.8981 234.952C55.4114 235.568 56.1441 235.876 57.0961 235.876C57.7214 235.876 58.2394 235.708 58.6501 235.372C59.0607 235.045 59.2661 234.537 59.2661 233.846V232.88C59.0141 233.235 58.6874 233.524 58.2861 233.748C57.8847 233.972 57.4554 234.084 56.9981 234.084C56.1021 234.084 55.3741 233.771 54.8141 233.146C54.2634 232.511 53.9881 231.657 53.9881 230.584C53.9881 229.511 54.2634 228.657 54.8141 228.022C55.3741 227.387 56.1021 227.07 56.9981 227.07C57.9221 227.07 58.6781 227.467 59.2661 228.26V227.238H60.3161V233.804C60.3161 234.84 60.0127 235.587 59.4061 236.044C58.7994 236.511 58.0294 236.744 57.0961 236.744ZM57.2501 233.16C57.6514 233.16 58.0387 233.053 58.4121 232.838C58.7947 232.623 59.0794 232.362 59.2661 232.054V229.1C59.0794 228.792 58.7994 228.535 58.4261 228.33C58.0527 228.115 57.6607 228.008 57.2501 228.008C56.5781 228.008 56.0461 228.246 55.6541 228.722C55.2714 229.198 55.0801 229.819 55.0801 230.584C55.0801 231.34 55.2761 231.961 55.6681 232.446C56.0601 232.922 56.5874 233.16 57.2501 233.16ZM67.7951 233.146C67.1885 233.827 66.3811 234.168 65.3731 234.168C64.3651 234.168 63.5531 233.827 62.9371 233.146C62.3305 232.465 62.0271 231.62 62.0271 230.612C62.0271 229.604 62.3305 228.764 62.9371 228.092C63.5531 227.411 64.3651 227.07 65.3731 227.07C66.3811 227.07 67.1885 227.411 67.7951 228.092C68.4111 228.764 68.7191 229.604 68.7191 230.612C68.7191 231.62 68.4111 232.465 67.7951 233.146ZM63.7211 232.474C64.1318 232.978 64.6825 233.23 65.3731 233.23C66.0638 233.23 66.6098 232.978 67.0111 232.474C67.4125 231.961 67.6131 231.34 67.6131 230.612C67.6131 229.884 67.4125 229.268 67.0111 228.764C66.6098 228.26 66.0638 228.008 65.3731 228.008C64.6825 228.008 64.1318 228.265 63.7211 228.778C63.3198 229.282 63.1191 229.893 63.1191 230.612C63.1191 231.34 63.3198 231.961 63.7211 232.474ZM72.1389 234.168C71.6442 234.168 71.2709 234.033 71.0189 233.762C70.7669 233.491 70.6409 233.099 70.6409 232.586V228.162H69.5209V227.238H70.6409V225.39H71.6909V227.238H73.0629V228.162H71.6909V232.362C71.6909 232.623 71.7469 232.833 71.8589 232.992C71.9802 233.151 72.1529 233.23 72.3769 233.23C72.6849 233.23 72.9229 233.137 73.0909 232.95L73.3989 233.734C73.0909 234.023 72.6709 234.168 72.1389 234.168ZM81.4875 234.168C80.5355 234.168 79.7748 233.771 79.2055 232.978V236.576H78.1555V227.238H79.2055V228.246C79.4575 227.891 79.7841 227.607 80.1855 227.392C80.5868 227.177 81.0208 227.07 81.4875 227.07C82.3835 227.07 83.1068 227.392 83.6575 228.036C84.2175 228.671 84.4975 229.529 84.4975 230.612C84.4975 231.695 84.2175 232.558 83.6575 233.202C83.1068 233.846 82.3835 234.168 81.4875 234.168ZM81.2215 233.23C81.8841 233.23 82.4115 232.987 82.8035 232.502C83.1955 232.007 83.3915 231.377 83.3915 230.612C83.3915 229.847 83.1955 229.221 82.8035 228.736C82.4115 228.251 81.8841 228.008 81.2215 228.008C80.8201 228.008 80.4281 228.115 80.0455 228.33C79.6721 228.535 79.3921 228.787 79.2055 229.086V232.138C79.3921 232.446 79.6721 232.707 80.0455 232.922C80.4281 233.127 80.8201 233.23 81.2215 233.23ZM91.4452 234H90.3952V233.23C89.8259 233.855 89.0792 234.168 88.1552 234.168C87.5299 234.168 86.9792 233.967 86.5032 233.566C86.0272 233.165 85.7892 232.619 85.7892 231.928C85.7892 231.219 86.0225 230.673 86.4892 230.29C86.9652 229.898 87.5205 229.702 88.1552 229.702C89.1165 229.702 89.8632 230.01 90.3952 230.626V229.408C90.3952 228.96 90.2365 228.61 89.9192 228.358C89.6019 228.106 89.1912 227.98 88.6872 227.98C87.8939 227.98 87.2032 228.293 86.6152 228.918L86.1252 228.19C86.8439 227.443 87.7445 227.07 88.8272 227.07C89.6019 227.07 90.2319 227.257 90.7172 227.63C91.2025 228.003 91.4452 228.577 91.4452 229.352V234ZM88.5332 233.412C89.3732 233.412 89.9939 233.132 90.3952 232.572V231.298C89.9939 230.738 89.3732 230.458 88.5332 230.458C88.0479 230.458 87.6465 230.598 87.3292 230.878C87.0212 231.149 86.8672 231.503 86.8672 231.942C86.8672 232.371 87.0212 232.726 87.3292 233.006C87.6465 233.277 88.0479 233.412 88.5332 233.412ZM95.692 234.168C94.544 234.168 93.634 233.813 92.962 233.104L93.508 232.348C93.7413 232.619 94.0587 232.847 94.46 233.034C94.8707 233.221 95.2953 233.314 95.734 233.314C96.238 233.314 96.63 233.207 96.91 232.992C97.19 232.777 97.33 232.497 97.33 232.152C97.33 231.853 97.1853 231.62 96.896 231.452C96.6067 231.275 96.2567 231.144 95.846 231.06C95.4447 230.967 95.0387 230.864 94.628 230.752C94.2173 230.631 93.8673 230.43 93.578 230.15C93.2887 229.861 93.144 229.483 93.144 229.016C93.144 228.465 93.368 228.003 93.816 227.63C94.2733 227.257 94.8893 227.07 95.664 227.07C96.6813 227.07 97.5167 227.397 98.17 228.05L97.68 228.778C97.204 228.209 96.532 227.924 95.664 227.924C95.2067 227.924 94.8427 228.027 94.572 228.232C94.3013 228.428 94.166 228.68 94.166 228.988C94.166 229.259 94.3107 229.473 94.6 229.632C94.8893 229.781 95.2347 229.903 95.636 229.996C96.0467 230.08 96.4573 230.183 96.868 230.304C97.2787 230.425 97.6287 230.64 97.918 230.948C98.2073 231.247 98.352 231.639 98.352 232.124C98.352 232.721 98.1187 233.211 97.652 233.594C97.1853 233.977 96.532 234.168 95.692 234.168ZM102.2 234.168C101.052 234.168 100.142 233.813 99.4698 233.104L100.016 232.348C100.249 232.619 100.566 232.847 100.968 233.034C101.378 233.221 101.803 233.314 102.242 233.314C102.746 233.314 103.138 233.207 103.418 232.992C103.698 232.777 103.838 232.497 103.838 232.152C103.838 231.853 103.693 231.62 103.404 231.452C103.114 231.275 102.764 231.144 102.354 231.06C101.952 230.967 101.546 230.864 101.136 230.752C100.725 230.631 100.375 230.43 100.086 230.15C99.7965 229.861 99.6518 229.483 99.6518 229.016C99.6518 228.465 99.8758 228.003 100.324 227.63C100.781 227.257 101.397 227.07 102.172 227.07C103.189 227.07 104.024 227.397 104.678 228.05L104.188 228.778C103.712 228.209 103.04 227.924 102.172 227.924C101.714 227.924 101.35 228.027 101.08 228.232C100.809 228.428 100.674 228.68 100.674 228.988C100.674 229.259 100.818 229.473 101.108 229.632C101.397 229.781 101.742 229.903 102.144 229.996C102.554 230.08 102.965 230.183 103.376 230.304C103.786 230.425 104.136 230.64 104.426 230.948C104.715 231.247 104.86 231.639 104.86 232.124C104.86 232.721 104.626 233.211 104.16 233.594C103.693 233.977 103.04 234.168 102.2 234.168ZM113.468 234H112.418L110.654 228.568L108.89 234H107.84L105.684 227.238H106.776L108.428 232.628L110.206 227.238H111.102L112.88 232.628L114.532 227.238H115.624L113.468 234ZM122.223 233.146C121.616 233.827 120.809 234.168 119.801 234.168C118.793 234.168 117.981 233.827 117.365 233.146C116.758 232.465 116.455 231.62 116.455 230.612C116.455 229.604 116.758 228.764 117.365 228.092C117.981 227.411 118.793 227.07 119.801 227.07C120.809 227.07 121.616 227.411 122.223 228.092C122.839 228.764 123.147 229.604 123.147 230.612C123.147 231.62 122.839 232.465 122.223 233.146ZM118.149 232.474C118.56 232.978 119.11 233.23 119.801 233.23C120.492 233.23 121.038 232.978 121.439 232.474C121.84 231.961 122.041 231.34 122.041 230.612C122.041 229.884 121.84 229.268 121.439 228.764C121.038 228.26 120.492 228.008 119.801 228.008C119.11 228.008 118.56 228.265 118.149 228.778C117.748 229.282 117.547 229.893 117.547 230.612C117.547 231.34 117.748 231.961 118.149 232.474ZM125.909 234H124.859V227.238H125.909V228.33C126.534 227.509 127.285 227.098 128.163 227.098V228.176C128.032 228.148 127.892 228.134 127.743 228.134C127.425 228.134 127.08 228.246 126.707 228.47C126.333 228.694 126.067 228.941 125.909 229.212V234ZM135.43 234H134.38V232.992C133.801 233.776 133.04 234.168 132.098 234.168C131.202 234.168 130.474 233.851 129.914 233.216C129.363 232.572 129.088 231.709 129.088 230.626C129.088 229.553 129.363 228.694 129.914 228.05C130.474 227.397 131.202 227.07 132.098 227.07C133.031 227.07 133.792 227.467 134.38 228.26V224.662H135.43V234ZM132.35 233.23C132.76 233.23 133.152 233.127 133.526 232.922C133.899 232.717 134.184 232.465 134.38 232.166V229.1C134.184 228.792 133.894 228.535 133.512 228.33C133.138 228.115 132.751 228.008 132.35 228.008C131.687 228.008 131.16 228.255 130.768 228.75C130.376 229.235 130.18 229.861 130.18 230.626C130.18 231.391 130.376 232.017 130.768 232.502C131.16 232.987 131.687 233.23 132.35 233.23ZM139.324 231.41C138.96 231.102 138.778 230.724 138.778 230.276C138.778 229.996 138.839 229.739 138.96 229.506C139.091 229.273 139.25 229.081 139.436 228.932C139.623 228.783 139.824 228.629 140.038 228.47C140.262 228.302 140.468 228.148 140.654 228.008C140.841 227.868 140.995 227.7 141.116 227.504C141.247 227.308 141.312 227.093 141.312 226.86C141.312 226.487 141.168 226.179 140.878 225.936C140.598 225.684 140.192 225.558 139.66 225.558C138.755 225.558 138.013 225.941 137.434 226.706L136.734 225.95C137.472 224.998 138.484 224.522 139.772 224.522C140.603 224.522 141.266 224.732 141.76 225.152C142.264 225.563 142.516 226.076 142.516 226.692C142.516 227.168 142.372 227.593 142.082 227.966C141.802 228.33 141.494 228.61 141.158 228.806C140.822 229.002 140.51 229.235 140.22 229.506C139.94 229.777 139.8 230.061 139.8 230.36C139.8 230.621 139.926 230.85 140.178 231.046L139.324 231.41ZM140.15 233.916C140.001 234.065 139.824 234.14 139.618 234.14C139.413 234.14 139.231 234.065 139.072 233.916C138.923 233.767 138.848 233.585 138.848 233.37C138.848 233.155 138.923 232.973 139.072 232.824C139.231 232.675 139.413 232.6 139.618 232.6C139.824 232.6 140.001 232.675 140.15 232.824C140.309 232.973 140.388 233.155 140.388 233.37C140.388 233.585 140.309 233.767 140.15 233.916Z" fill="#5D6574"/>
<path d="M159.516 234.168C158.153 234.168 157.01 233.72 156.086 232.824C155.171 231.919 154.714 230.757 154.714 229.338C154.714 227.919 155.171 226.762 156.086 225.866C157.01 224.961 158.153 224.508 159.516 224.508C161.009 224.508 162.19 225.124 163.058 226.356L162.078 226.902C161.807 226.501 161.443 226.174 160.986 225.922C160.529 225.67 160.039 225.544 159.516 225.544C158.489 225.544 157.631 225.903 156.94 226.622C156.259 227.331 155.918 228.237 155.918 229.338C155.918 230.439 156.259 231.349 156.94 232.068C157.631 232.777 158.489 233.132 159.516 233.132C160.039 233.132 160.529 233.011 160.986 232.768C161.443 232.516 161.807 232.185 162.078 231.774L163.072 232.32C162.167 233.552 160.981 234.168 159.516 234.168ZM165.561 234H164.511V224.662H165.561V234ZM168.173 226.272C167.987 226.272 167.823 226.207 167.683 226.076C167.543 225.936 167.473 225.768 167.473 225.572C167.473 225.376 167.543 225.208 167.683 225.068C167.823 224.928 167.987 224.858 168.173 224.858C168.369 224.858 168.537 224.928 168.677 225.068C168.817 225.208 168.887 225.376 168.887 225.572C168.887 225.768 168.817 225.936 168.677 226.076C168.537 226.207 168.369 226.272 168.173 226.272ZM168.705 234H167.655V227.238H168.705V234ZM173.782 234.168C172.783 234.168 171.971 233.832 171.346 233.16C170.721 232.479 170.408 231.629 170.408 230.612C170.408 229.595 170.721 228.75 171.346 228.078C171.971 227.406 172.783 227.07 173.782 227.07C174.827 227.07 175.653 227.462 176.26 228.246L175.56 228.89C175.131 228.302 174.557 228.008 173.838 228.008C173.129 228.008 172.559 228.251 172.13 228.736C171.71 229.221 171.5 229.847 171.5 230.612C171.5 231.377 171.71 232.007 172.13 232.502C172.559 232.987 173.129 233.23 173.838 233.23C174.547 233.23 175.121 232.936 175.56 232.348L176.26 232.992C175.653 233.776 174.827 234.168 173.782 234.168ZM183.682 234H182.338L179.902 230.962L178.782 232.068V234H177.732V224.662H178.782V230.836L182.338 227.238H183.668L180.672 230.304L183.682 234ZM194.16 234H193.11V229.548C193.11 228.988 192.98 228.591 192.718 228.358C192.457 228.125 192.079 228.008 191.584 228.008C191.202 228.008 190.824 228.111 190.45 228.316C190.086 228.521 189.797 228.769 189.582 229.058V234H188.532V224.662H189.582V228.218C189.844 227.91 190.194 227.644 190.632 227.42C191.071 227.187 191.528 227.07 192.004 227.07C193.442 227.07 194.16 227.789 194.16 229.226V234ZM199.309 234.168C198.301 234.168 197.475 233.841 196.831 233.188C196.187 232.525 195.865 231.667 195.865 230.612C195.865 229.623 196.182 228.787 196.817 228.106C197.452 227.415 198.245 227.07 199.197 227.07C200.196 227.07 200.984 227.415 201.563 228.106C202.151 228.787 202.445 229.651 202.445 230.696V230.962H196.971C197.018 231.625 197.26 232.18 197.699 232.628C198.138 233.076 198.707 233.3 199.407 233.3C200.247 233.3 200.942 233.015 201.493 232.446L201.997 233.132C201.306 233.823 200.41 234.168 199.309 234.168ZM201.409 230.192C201.4 229.613 201.204 229.095 200.821 228.638C200.438 228.171 199.892 227.938 199.183 227.938C198.511 227.938 197.979 228.167 197.587 228.624C197.204 229.081 196.999 229.604 196.971 230.192H201.409ZM205.196 234H204.146V227.238H205.196V228.33C205.821 227.509 206.572 227.098 207.45 227.098V228.176C207.319 228.148 207.179 228.134 207.03 228.134C206.712 228.134 206.367 228.246 205.994 228.47C205.62 228.694 205.354 228.941 205.196 229.212V234ZM211.819 234.168C210.811 234.168 209.985 233.841 209.341 233.188C208.697 232.525 208.375 231.667 208.375 230.612C208.375 229.623 208.692 228.787 209.327 228.106C209.961 227.415 210.755 227.07 211.707 227.07C212.705 227.07 213.494 227.415 214.073 228.106C214.661 228.787 214.955 229.651 214.955 230.696V230.962H209.481C209.527 231.625 209.77 232.18 210.209 232.628C210.647 233.076 211.217 233.3 211.917 233.3C212.757 233.3 213.452 233.015 214.003 232.446L214.507 233.132C213.816 233.823 212.92 234.168 211.819 234.168ZM213.919 230.192C213.909 229.613 213.713 229.095 213.331 228.638C212.948 228.171 212.402 227.938 211.693 227.938C211.021 227.938 210.489 228.167 210.097 228.624C209.714 229.081 209.509 229.604 209.481 230.192H213.919Z" fill="#FB3E3E"/>
<path d="M154 236.422H215.599V236.702H154V236.422Z" fill="#FB3E3E"/>
<path d="M45.896 300H42.248V289.328H45.896C47.528 289.328 48.8453 289.835 49.848 290.848C50.8613 291.861 51.368 293.136 51.368 294.672C51.368 296.219 50.8613 297.493 49.848 298.496C48.8453 299.499 47.528 300 45.896 300ZM45.896 298.816C47.1547 298.816 48.152 298.421 48.888 297.632C49.624 296.843 49.992 295.856 49.992 294.672C49.992 293.477 49.6293 292.485 48.904 291.696C48.1787 290.907 47.176 290.512 45.896 290.512H43.576V298.816H45.896ZM59.5471 299.024C58.8538 299.803 57.9311 300.192 56.7791 300.192C55.6271 300.192 54.6991 299.803 53.9951 299.024C53.3018 298.245 52.9551 297.28 52.9551 296.128C52.9551 294.976 53.3018 294.016 53.9951 293.248C54.6991 292.469 55.6271 292.08 56.7791 292.08C57.9311 292.08 58.8538 292.469 59.5471 293.248C60.2511 294.016 60.6031 294.976 60.6031 296.128C60.6031 297.28 60.2511 298.245 59.5471 299.024ZM54.8911 298.256C55.3605 298.832 55.9898 299.12 56.7791 299.12C57.5685 299.12 58.1925 298.832 58.6511 298.256C59.1098 297.669 59.3391 296.96 59.3391 296.128C59.3391 295.296 59.1098 294.592 58.6511 294.016C58.1925 293.44 57.5685 293.152 56.7791 293.152C55.9898 293.152 55.3605 293.445 54.8911 294.032C54.4325 294.608 54.2031 295.307 54.2031 296.128C54.2031 296.96 54.4325 297.669 54.8911 298.256ZM68.9754 300H67.7754V294.944C67.7754 294.293 67.626 293.835 67.3274 293.568C67.0287 293.291 66.602 293.152 66.0474 293.152C65.5994 293.152 65.162 293.269 64.7354 293.504C64.3194 293.739 63.994 294.021 63.7594 294.352V300H62.5594V292.272H63.7594V293.392C64.058 293.04 64.458 292.736 64.9594 292.48C65.4607 292.213 65.978 292.08 66.5114 292.08C68.154 292.08 68.9754 292.912 68.9754 294.576V300ZM73.7879 291.104H72.8759L70.1719 288.8H71.4199L73.7879 291.104ZM76.9333 300.192C76.3679 300.192 75.9413 300.037 75.6533 299.728C75.3653 299.419 75.2213 298.971 75.2213 298.384V293.328H73.9413V292.272H75.2213V290.16H76.4213V292.272H77.9893V293.328H76.4213V298.128C76.4213 298.427 76.4853 298.667 76.6133 298.848C76.7519 299.029 76.9493 299.12 77.2053 299.12C77.5573 299.12 77.8293 299.013 78.0213 298.8L78.3733 299.696C78.0213 300.027 77.5413 300.192 76.9333 300.192ZM90.2414 300H89.0414V294.912C89.0414 294.272 88.892 293.819 88.5934 293.552C88.2947 293.285 87.8627 293.152 87.2974 293.152C86.86 293.152 86.428 293.269 86.0014 293.504C85.5854 293.739 85.2547 294.021 85.0094 294.352V300H83.8094V289.328H85.0094V293.392C85.308 293.04 85.708 292.736 86.2094 292.48C86.7107 292.213 87.2334 292.08 87.7774 292.08C89.42 292.08 90.2414 292.901 90.2414 294.544V300ZM98.6695 300H97.4695V299.12C96.8188 299.835 95.9655 300.192 94.9095 300.192C94.1948 300.192 93.5655 299.963 93.0215 299.504C92.4775 299.045 92.2055 298.421 92.2055 297.632C92.2055 296.821 92.4722 296.197 93.0055 295.76C93.5495 295.312 94.1842 295.088 94.9095 295.088C96.0082 295.088 96.8615 295.44 97.4695 296.144V294.752C97.4695 294.24 97.2882 293.84 96.9255 293.552C96.5628 293.264 96.0935 293.12 95.5175 293.12C94.6108 293.12 93.8215 293.477 93.1495 294.192L92.5895 293.36C93.4108 292.507 94.4402 292.08 95.6775 292.08C96.5628 292.08 97.2828 292.293 97.8375 292.72C98.3922 293.147 98.6695 293.803 98.6695 294.688V300ZM95.3415 299.328C96.3015 299.328 97.0108 299.008 97.4695 298.368V296.912C97.0108 296.272 96.3015 295.952 95.3415 295.952C94.7868 295.952 94.3282 296.112 93.9655 296.432C93.6135 296.741 93.4375 297.147 93.4375 297.648C93.4375 298.139 93.6135 298.544 93.9655 298.864C94.3282 299.173 94.7868 299.328 95.3415 299.328ZM104.451 300H103.139L99.923 292.272H101.219L103.795 298.608L106.355 292.272H107.667L104.451 300ZM112.407 300.192C111.255 300.192 110.311 299.819 109.575 299.072C108.839 298.315 108.471 297.333 108.471 296.128C108.471 294.997 108.833 294.043 109.559 293.264C110.284 292.475 111.191 292.08 112.279 292.08C113.42 292.08 114.321 292.475 114.983 293.264C115.655 294.043 115.991 295.029 115.991 296.224V296.528H109.735C109.788 297.285 110.065 297.92 110.567 298.432C111.068 298.944 111.719 299.2 112.519 299.2C113.479 299.2 114.273 298.875 114.903 298.224L115.479 299.008C114.689 299.797 113.665 300.192 112.407 300.192ZM114.807 295.648C114.796 294.987 114.572 294.395 114.135 293.872C113.697 293.339 113.073 293.072 112.263 293.072C111.495 293.072 110.887 293.333 110.439 293.856C110.001 294.379 109.767 294.976 109.735 295.648H114.807ZM128.091 300H126.891V299.12C126.241 299.835 125.387 300.192 124.331 300.192C123.617 300.192 122.987 299.963 122.443 299.504C121.899 299.045 121.627 298.421 121.627 297.632C121.627 296.821 121.894 296.197 122.427 295.76C122.971 295.312 123.606 295.088 124.331 295.088C125.43 295.088 126.283 295.44 126.891 296.144V294.752C126.891 294.24 126.71 293.84 126.347 293.552C125.985 293.264 125.515 293.12 124.939 293.12C124.033 293.12 123.243 293.477 122.571 294.192L122.011 293.36C122.833 292.507 123.862 292.08 125.099 292.08C125.985 292.08 126.705 292.293 127.259 292.72C127.814 293.147 128.091 293.803 128.091 294.688V300ZM124.763 299.328C125.723 299.328 126.433 299.008 126.891 298.368V296.912C126.433 296.272 125.723 295.952 124.763 295.952C124.209 295.952 123.75 296.112 123.387 296.432C123.035 296.741 122.859 297.147 122.859 297.648C122.859 298.139 123.035 298.544 123.387 298.864C123.75 299.173 124.209 299.328 124.763 299.328ZM136.913 300H135.713V294.944C135.713 294.293 135.564 293.835 135.265 293.568C134.966 293.291 134.54 293.152 133.985 293.152C133.537 293.152 133.1 293.269 132.673 293.504C132.257 293.739 131.932 294.021 131.697 294.352V300H130.497V292.272H131.697V293.392C131.996 293.04 132.396 292.736 132.897 292.48C133.398 292.213 133.916 292.08 134.449 292.08C136.092 292.08 136.913 292.912 136.913 294.576V300ZM152.618 300H151.098L150.154 297.632H144.842L143.898 300H142.378L146.666 289.328H148.314L152.618 300ZM149.754 296.448L147.498 290.704L145.226 296.448H149.754ZM157.374 300.192C156.232 300.192 155.304 299.808 154.59 299.04C153.875 298.261 153.518 297.291 153.518 296.128C153.518 294.965 153.875 294 154.59 293.232C155.304 292.464 156.232 292.08 157.374 292.08C158.568 292.08 159.512 292.528 160.206 293.424L159.406 294.16C158.915 293.488 158.259 293.152 157.438 293.152C156.627 293.152 155.976 293.429 155.486 293.984C155.006 294.539 154.766 295.253 154.766 296.128C154.766 297.003 155.006 297.723 155.486 298.288C155.976 298.843 156.627 299.12 157.438 299.12C158.248 299.12 158.904 298.784 159.406 298.112L160.206 298.848C159.512 299.744 158.568 300.192 157.374 300.192ZM165.296 300.192C164.154 300.192 163.226 299.808 162.512 299.04C161.797 298.261 161.44 297.291 161.44 296.128C161.44 294.965 161.797 294 162.512 293.232C163.226 292.464 164.154 292.08 165.296 292.08C166.49 292.08 167.434 292.528 168.128 293.424L167.328 294.16C166.837 293.488 166.181 293.152 165.36 293.152C164.549 293.152 163.898 293.429 163.408 293.984C162.928 294.539 162.688 295.253 162.688 296.128C162.688 297.003 162.928 297.723 163.408 298.288C163.898 298.843 164.549 299.12 165.36 299.12C166.17 299.12 166.826 298.784 167.328 298.112L168.128 298.848C167.434 299.744 166.49 300.192 165.296 300.192ZM175.953 299.024C175.26 299.803 174.337 300.192 173.185 300.192C172.033 300.192 171.105 299.803 170.401 299.024C169.708 298.245 169.361 297.28 169.361 296.128C169.361 294.976 169.708 294.016 170.401 293.248C171.105 292.469 172.033 292.08 173.185 292.08C174.337 292.08 175.26 292.469 175.953 293.248C176.657 294.016 177.009 294.976 177.009 296.128C177.009 297.28 176.657 298.245 175.953 299.024ZM171.297 298.256C171.767 298.832 172.396 299.12 173.185 299.12C173.975 299.12 174.599 298.832 175.057 298.256C175.516 297.669 175.745 296.96 175.745 296.128C175.745 295.296 175.516 294.592 175.057 294.016C174.599 293.44 173.975 293.152 173.185 293.152C172.396 293.152 171.767 293.445 171.297 294.032C170.839 294.608 170.609 295.307 170.609 296.128C170.609 296.96 170.839 297.669 171.297 298.256ZM185.382 300H184.182V298.912C183.862 299.275 183.456 299.579 182.966 299.824C182.486 300.069 181.974 300.192 181.43 300.192C179.787 300.192 178.966 299.371 178.966 297.728V292.272H180.166V297.36C180.166 298 180.31 298.453 180.598 298.72C180.896 298.987 181.328 299.12 181.894 299.12C182.342 299.12 182.774 299.008 183.19 298.784C183.616 298.56 183.947 298.283 184.182 297.952V292.272H185.382V300ZM194.194 300H192.994V294.944C192.994 294.293 192.845 293.835 192.546 293.568C192.247 293.291 191.821 293.152 191.266 293.152C190.818 293.152 190.381 293.269 189.954 293.504C189.538 293.739 189.213 294.021 188.978 294.352V300H187.778V292.272H188.978V293.392C189.277 293.04 189.677 292.736 190.178 292.48C190.679 292.213 191.197 292.08 191.73 292.08C193.373 292.08 194.194 292.912 194.194 294.576V300ZM198.543 300.192C197.977 300.192 197.551 300.037 197.263 299.728C196.975 299.419 196.831 298.971 196.831 298.384V293.328H195.551V292.272H196.831V290.16H198.031V292.272H199.599V293.328H198.031V298.128C198.031 298.427 198.095 298.667 198.223 298.848C198.361 299.029 198.559 299.12 198.815 299.12C199.167 299.12 199.439 299.013 199.631 298.8L199.983 299.696C199.631 300.027 199.151 300.192 198.543 300.192ZM203.342 297.04C202.926 296.688 202.718 296.256 202.718 295.744C202.718 295.424 202.787 295.131 202.926 294.864C203.075 294.597 203.256 294.379 203.47 294.208C203.683 294.037 203.912 293.861 204.158 293.68C204.414 293.488 204.648 293.312 204.862 293.152C205.075 292.992 205.251 292.8 205.39 292.576C205.539 292.352 205.614 292.107 205.614 291.84C205.614 291.413 205.448 291.061 205.118 290.784C204.798 290.496 204.334 290.352 203.726 290.352C202.691 290.352 201.843 290.789 201.182 291.664L200.382 290.8C201.224 289.712 202.382 289.168 203.854 289.168C204.803 289.168 205.56 289.408 206.126 289.888C206.702 290.357 206.99 290.944 206.99 291.648C206.99 292.192 206.824 292.677 206.494 293.104C206.174 293.52 205.822 293.84 205.438 294.064C205.054 294.288 204.696 294.555 204.366 294.864C204.046 295.173 203.886 295.499 203.886 295.84C203.886 296.139 204.03 296.4 204.318 296.624L203.342 297.04ZM204.286 299.904C204.115 300.075 203.912 300.16 203.678 300.16C203.443 300.16 203.235 300.075 203.054 299.904C202.883 299.733 202.798 299.525 202.798 299.28C202.798 299.035 202.883 298.827 203.054 298.656C203.235 298.485 203.443 298.4 203.678 298.4C203.912 298.4 204.115 298.485 204.286 298.656C204.467 298.827 204.558 299.035 204.558 299.28C204.558 299.525 204.467 299.733 204.286 299.904Z" fill="white"/>
<rect x="20" y="261" width="208" height="1" fill="#191F2A"/>
<circle opacity="0.7" cx="223" cy="359" r="18" fill="#6EDCFF"/>
<circle opacity="0.7" cx="223.4" cy="359.4" r="11.2" fill="#6EDCFF"/>
<g clip-path="url(#clip2)">
<path d="M235.243 369.433L232.059 366.248L234.33 364.936C234.508 364.834 234.611 364.639 234.596 364.434C234.582 364.23 234.451 364.052 234.261 363.976L224.131 359.935C223.933 359.856 223.706 359.903 223.555 360.054C223.404 360.205 223.357 360.432 223.436 360.63L227.476 370.761C227.552 370.952 227.73 371.082 227.935 371.097C228.139 371.111 228.334 371.008 228.436 370.831L229.748 368.559L232.932 371.743C233.033 371.844 233.169 371.9 233.311 371.9C233.453 371.9 233.589 371.844 233.689 371.743L235.243 370.189C235.452 369.98 235.452 369.642 235.243 369.433Z" fill="white"/>
<path d="M221.75 357.492C221.541 357.283 221.202 357.283 220.993 357.492C220.784 357.701 220.784 358.04 220.993 358.249L222.182 359.438C222.286 359.542 222.423 359.594 222.56 359.594C222.697 359.594 222.834 359.542 222.938 359.438C223.147 359.229 223.147 358.89 222.938 358.681L221.75 357.492Z" fill="white"/>
<path d="M222.152 361.191C222.152 360.896 221.913 360.656 221.617 360.656H219.936C219.641 360.656 219.401 360.895 219.401 361.191C219.401 361.486 219.64 361.726 219.936 361.726H221.617C221.913 361.726 222.152 361.486 222.152 361.191Z" fill="white"/>
<path d="M221.936 362.842L220.747 364.031C220.538 364.24 220.538 364.579 220.747 364.788C220.851 364.892 220.988 364.945 221.125 364.945C221.262 364.945 221.399 364.892 221.503 364.788L222.692 363.599C222.901 363.39 222.901 363.051 222.692 362.842C222.483 362.633 222.145 362.633 221.936 362.842Z" fill="white"/>
<path d="M224.692 358.652C224.987 358.652 225.227 358.412 225.227 358.116V356.435C225.227 356.139 224.987 355.9 224.692 355.9C224.396 355.9 224.156 356.139 224.156 356.435V358.117C224.156 358.412 224.396 358.652 224.692 358.652Z" fill="white"/>
<path d="M226.721 359.348C226.858 359.348 226.995 359.296 227.099 359.191L228.288 358.002C228.497 357.793 228.497 357.455 228.288 357.246C228.079 357.037 227.741 357.037 227.532 357.246L226.343 358.435C226.134 358.644 226.134 358.982 226.343 359.191C226.447 359.296 226.584 359.348 226.721 359.348Z" fill="white"/>
</g>
<defs>
<clipPath id="clip0">
<rect width="18" height="18" fill="white" transform="translate(31 70)"/>
</clipPath>
<clipPath id="clip1">
<rect width="18" height="18" fill="white" transform="translate(31 124)"/>
</clipPath>
<clipPath id="clip2">
<rect width="16" height="16" fill="white" transform="translate(219.4 355.9)"/>
</clipPath>
</defs>
</svg>
