<svg width="248" height="392" viewBox="0 0 248 392" fill="none" xmlns="http://www.w3.org/2000/svg">
<rect width="248" height="392" rx="30" fill="#151A23"/>
<path d="M48.4247 38H46.0307L45.1487 35.696H39.6407L38.7587 38H36.3647L41.0807 25.994H43.7087L48.4247 38ZM44.5547 33.842L42.3947 28.118L40.2347 33.842H44.5547ZM53.642 38.216C52.322 38.216 51.242 37.79 50.402 36.938C49.562 36.074 49.142 34.976 49.142 33.644C49.142 32.324 49.562 31.238 50.402 30.386C51.242 29.522 52.322 29.09 53.642 29.09C55.094 29.09 56.204 29.606 56.972 30.638L55.73 31.79C55.25 31.106 54.584 30.764 53.732 30.764C52.94 30.764 52.304 31.034 51.824 31.574C51.344 32.102 51.104 32.792 51.104 33.644C51.104 34.496 51.344 35.192 51.824 35.732C52.304 36.272 52.94 36.542 53.732 36.542C54.56 36.542 55.226 36.2 55.73 35.516L56.972 36.668C56.204 37.7 55.094 38.216 53.642 38.216ZM62.5893 38.216C61.2693 38.216 60.1893 37.79 59.3493 36.938C58.5093 36.074 58.0893 34.976 58.0893 33.644C58.0893 32.324 58.5093 31.238 59.3493 30.386C60.1893 29.522 61.2693 29.09 62.5893 29.09C64.0413 29.09 65.1513 29.606 65.9193 30.638L64.6773 31.79C64.1973 31.106 63.5313 30.764 62.6793 30.764C61.8873 30.764 61.2513 31.034 60.7713 31.574C60.2913 32.102 60.0513 32.792 60.0513 33.644C60.0513 34.496 60.2913 35.192 60.7713 35.732C61.2513 36.272 61.8873 36.542 62.6793 36.542C63.5073 36.542 64.1733 36.2 64.6773 35.516L65.9193 36.668C65.1513 37.7 64.0413 38.216 62.5893 38.216ZM71.5005 38.216C70.1565 38.216 69.0765 37.778 68.2605 36.902C67.4445 36.014 67.0365 34.928 67.0365 33.644C67.0365 32.36 67.4445 31.28 68.2605 30.404C69.0765 29.528 70.1565 29.09 71.5005 29.09C72.8565 29.09 73.9425 29.528 74.7585 30.404C75.5745 31.28 75.9825 32.36 75.9825 33.644C75.9825 34.94 75.5745 36.026 74.7585 36.902C73.9425 37.778 72.8565 38.216 71.5005 38.216ZM71.5005 36.542C72.2805 36.542 72.8925 36.266 73.3365 35.714C73.7925 35.15 74.0205 34.46 74.0205 33.644C74.0205 32.84 73.7925 32.162 73.3365 31.61C72.8925 31.046 72.2805 30.764 71.5005 30.764C70.7325 30.764 70.1205 31.046 69.6645 31.61C69.2205 32.162 68.9985 32.84 68.9985 33.644C68.9985 34.46 69.2205 35.15 69.6645 35.714C70.1205 36.266 70.7325 36.542 71.5005 36.542ZM85.6529 38H83.7629V36.848C82.9469 37.76 81.9209 38.216 80.6849 38.216C78.8249 38.216 77.8949 37.298 77.8949 35.462V29.306H79.7849V34.778C79.7849 35.414 79.9349 35.87 80.2349 36.146C80.5349 36.41 80.9669 36.542 81.5309 36.542C81.9869 36.542 82.4129 36.434 82.8089 36.218C83.2049 36.002 83.5229 35.732 83.7629 35.408V29.306H85.6529V38ZM95.8658 38H93.9758V32.564C93.9758 31.364 93.3938 30.764 92.2298 30.764C91.7738 30.764 91.3478 30.878 90.9518 31.106C90.5558 31.334 90.2378 31.61 89.9978 31.934V38H88.1078V29.306H89.9978V30.494C90.3218 30.11 90.7538 29.78 91.2938 29.504C91.8338 29.228 92.4218 29.09 93.0578 29.09C93.9818 29.09 94.6778 29.33 95.1458 29.81C95.6258 30.29 95.8658 30.98 95.8658 31.88V38ZM100.931 38.216C100.199 38.216 99.6407 38.024 99.2567 37.64C98.8847 37.256 98.6987 36.704 98.6987 35.984V30.962H97.2587V29.306H98.6987V26.93H100.589V29.306H102.353V30.962H100.589V35.516C100.589 35.828 100.661 36.08 100.805 36.272C100.949 36.452 101.153 36.542 101.417 36.542C101.801 36.542 102.083 36.44 102.263 36.236L102.713 37.658C102.317 38.03 101.723 38.216 100.931 38.216ZM114.506 38.216C112.706 38.216 111.206 37.64 110.006 36.488C108.806 35.324 108.206 33.83 108.206 32.006C108.206 30.182 108.806 28.694 110.006 27.542C111.206 26.378 112.706 25.796 114.506 25.796C116.594 25.796 118.202 26.696 119.33 28.496L117.53 29.414C117.23 28.898 116.804 28.478 116.252 28.154C115.712 27.83 115.13 27.668 114.506 27.668C113.318 27.668 112.328 28.076 111.536 28.892C110.756 29.708 110.366 30.746 110.366 32.006C110.366 33.266 110.756 34.304 111.536 35.12C112.328 35.936 113.318 36.344 114.506 36.344C115.142 36.344 115.73 36.182 116.27 35.858C116.81 35.534 117.23 35.114 117.53 34.598L119.33 35.516C118.178 37.316 116.57 38.216 114.506 38.216ZM124.885 38.216C123.541 38.216 122.461 37.778 121.645 36.902C120.829 36.014 120.421 34.928 120.421 33.644C120.421 32.36 120.829 31.28 121.645 30.404C122.461 29.528 123.541 29.09 124.885 29.09C126.241 29.09 127.327 29.528 128.143 30.404C128.959 31.28 129.367 32.36 129.367 33.644C129.367 34.94 128.959 36.026 128.143 36.902C127.327 37.778 126.241 38.216 124.885 38.216ZM124.885 36.542C125.665 36.542 126.277 36.266 126.721 35.714C127.177 35.15 127.405 34.46 127.405 33.644C127.405 32.84 127.177 32.162 126.721 31.61C126.277 31.046 125.665 30.764 124.885 30.764C124.117 30.764 123.505 31.046 123.049 31.61C122.605 32.162 122.383 32.84 122.383 33.644C122.383 34.46 122.605 35.15 123.049 35.714C123.505 36.266 124.117 36.542 124.885 36.542ZM139.038 38H137.148V32.564C137.148 31.364 136.566 30.764 135.402 30.764C134.946 30.764 134.52 30.878 134.124 31.106C133.728 31.334 133.41 31.61 133.17 31.934V38H131.28V29.306H133.17V30.494C133.494 30.11 133.926 29.78 134.466 29.504C135.006 29.228 135.594 29.09 136.23 29.09C137.154 29.09 137.85 29.33 138.318 29.81C138.798 30.29 139.038 30.98 139.038 31.88V38ZM143.833 38H141.943V30.962H140.503V29.306H141.943V28.82C141.943 27.872 142.195 27.134 142.699 26.606C143.203 26.078 143.869 25.814 144.697 25.814C145.309 25.814 145.813 25.928 146.209 26.156L145.795 27.56C145.603 27.428 145.351 27.362 145.039 27.362C144.667 27.362 144.373 27.488 144.157 27.74C143.941 27.98 143.833 28.34 143.833 28.82V29.306H145.597V30.962H143.833V38ZM147.973 28.244C147.661 28.244 147.385 28.13 147.145 27.902C146.917 27.674 146.803 27.398 146.803 27.074C146.803 26.75 146.917 26.474 147.145 26.246C147.385 26.018 147.661 25.904 147.973 25.904C148.297 25.904 148.573 26.018 148.801 26.246C149.029 26.474 149.143 26.75 149.143 27.074C149.143 27.398 149.029 27.674 148.801 27.902C148.573 28.13 148.297 28.244 147.973 28.244ZM148.927 38H147.037V29.306H148.927V38ZM153.261 38H151.371V29.306H153.261V30.584C153.597 30.152 154.017 29.798 154.521 29.522C155.025 29.246 155.547 29.108 156.087 29.108V30.98C155.919 30.944 155.721 30.926 155.493 30.926C155.097 30.926 154.671 31.046 154.215 31.286C153.771 31.514 153.453 31.778 153.261 32.078V38ZM170.158 38H168.268V32.33C168.268 31.286 167.794 30.764 166.846 30.764C166.45 30.764 166.066 30.878 165.694 31.106C165.322 31.334 165.034 31.604 164.83 31.916V38H162.94V32.33C162.94 31.286 162.46 30.764 161.5 30.764C161.116 30.764 160.738 30.878 160.366 31.106C160.006 31.334 159.718 31.61 159.502 31.934V38H157.612V29.306H159.502V30.494C159.718 30.17 160.09 29.858 160.618 29.558C161.158 29.246 161.728 29.09 162.328 29.09C163.588 29.09 164.38 29.624 164.704 30.692C164.98 30.26 165.388 29.888 165.928 29.576C166.468 29.252 167.044 29.09 167.656 29.09C169.324 29.09 170.158 29.966 170.158 31.718V38ZM179.806 38H177.916V37.064C177.244 37.832 176.308 38.216 175.108 38.216C174.316 38.216 173.614 37.964 173.002 37.46C172.39 36.944 172.084 36.236 172.084 35.336C172.084 34.412 172.384 33.71 172.984 33.23C173.596 32.75 174.304 32.51 175.108 32.51C176.344 32.51 177.28 32.882 177.916 33.626V32.33C177.916 31.826 177.73 31.43 177.358 31.142C176.986 30.854 176.494 30.71 175.882 30.71C174.91 30.71 174.052 31.076 173.308 31.808L172.534 30.494C173.518 29.558 174.736 29.09 176.188 29.09C177.256 29.09 178.126 29.342 178.798 29.846C179.47 30.35 179.806 31.148 179.806 32.24V38ZM175.846 36.92C176.794 36.92 177.484 36.62 177.916 36.02V34.706C177.484 34.106 176.794 33.806 175.846 33.806C175.306 33.806 174.862 33.95 174.514 34.238C174.166 34.526 173.992 34.904 173.992 35.372C173.992 35.84 174.166 36.218 174.514 36.506C174.862 36.782 175.306 36.92 175.846 36.92ZM184.866 38.216C184.134 38.216 183.576 38.024 183.192 37.64C182.82 37.256 182.634 36.704 182.634 35.984V30.962H181.194V29.306H182.634V26.93H184.524V29.306H186.288V30.962H184.524V35.516C184.524 35.828 184.596 36.08 184.74 36.272C184.884 36.452 185.088 36.542 185.352 36.542C185.736 36.542 186.018 36.44 186.198 36.236L186.648 37.658C186.252 38.03 185.658 38.216 184.866 38.216ZM188.94 28.244C188.628 28.244 188.352 28.13 188.112 27.902C187.884 27.674 187.77 27.398 187.77 27.074C187.77 26.75 187.884 26.474 188.112 26.246C188.352 26.018 188.628 25.904 188.94 25.904C189.264 25.904 189.54 26.018 189.768 26.246C189.996 26.474 190.11 26.75 190.11 27.074C190.11 27.398 189.996 27.674 189.768 27.902C189.54 28.13 189.264 28.244 188.94 28.244ZM189.894 38H188.004V29.306H189.894V38ZM196.27 38.216C194.926 38.216 193.846 37.778 193.03 36.902C192.214 36.014 191.806 34.928 191.806 33.644C191.806 32.36 192.214 31.28 193.03 30.404C193.846 29.528 194.926 29.09 196.27 29.09C197.626 29.09 198.712 29.528 199.528 30.404C200.344 31.28 200.752 32.36 200.752 33.644C200.752 34.94 200.344 36.026 199.528 36.902C198.712 37.778 197.626 38.216 196.27 38.216ZM196.27 36.542C197.05 36.542 197.662 36.266 198.106 35.714C198.562 35.15 198.79 34.46 198.79 33.644C198.79 32.84 198.562 32.162 198.106 31.61C197.662 31.046 197.05 30.764 196.27 30.764C195.502 30.764 194.89 31.046 194.434 31.61C193.99 32.162 193.768 32.84 193.768 33.644C193.768 34.46 193.99 35.15 194.434 35.714C194.89 36.266 195.502 36.542 196.27 36.542ZM210.422 38H208.532V32.564C208.532 31.364 207.95 30.764 206.786 30.764C206.33 30.764 205.904 30.878 205.508 31.106C205.112 31.334 204.794 31.61 204.554 31.934V38H202.664V29.306H204.554V30.494C204.878 30.11 205.31 29.78 205.85 29.504C206.39 29.228 206.978 29.09 207.614 29.09C208.538 29.09 209.234 29.33 209.702 29.81C210.182 30.29 210.422 30.98 210.422 31.88V38Z" fill="white"/>
<circle cx="58.5" cy="97.5" r="21.75" stroke="#FB3E3E" stroke-width="1.5"/>
<path fill-rule="evenodd" clip-rule="evenodd" d="M56.9166 89.75L56.8738 89.75C55.4659 89.75 54.3504 89.75 53.4608 89.8429C52.5492 89.9382 51.7897 90.1376 51.13 90.5942C50.6601 90.9195 50.2527 91.3268 49.9275 91.7968C49.4709 92.4565 49.2714 93.2159 49.1762 94.1276C49.0832 95.0171 49.0832 96.1326 49.0833 97.5405L49.0833 97.5833L49.0833 97.6261C49.0832 99.034 49.0832 100.15 49.1762 101.039C49.2714 101.951 49.4709 102.71 49.9275 103.37C50.2527 103.84 50.6601 104.247 51.13 104.572C51.7897 105.029 52.5492 105.228 53.4608 105.324C54.3504 105.417 55.4659 105.417 56.8738 105.417H56.9166H61.0833H61.126C62.5339 105.417 63.6495 105.417 64.539 105.324C65.4507 105.228 66.2101 105.029 66.8698 104.572C67.3397 104.247 67.7471 103.84 68.0724 103.37C68.5289 102.71 68.7284 101.951 68.8237 101.039C68.9166 100.15 68.9166 99.034 68.9166 97.6261V97.5833V97.5406C68.9166 96.1327 68.9166 95.0171 68.8237 94.1276C68.7284 93.2159 68.5289 92.4565 68.0724 91.7968C67.7471 91.3268 67.3397 90.9195 66.8698 90.5942C66.2101 90.1376 65.4507 89.9382 64.539 89.8429C63.6495 89.75 62.5339 89.75 61.126 89.75L61.0833 89.75H56.9166ZM51.9837 91.8276C52.3512 91.5733 52.8274 91.4173 53.6167 91.3348C54.4192 91.251 55.4563 91.25 56.9166 91.25H61.0833C62.5435 91.25 63.5807 91.251 64.3831 91.3348C65.1724 91.4173 65.6487 91.5733 66.0162 91.8276C66.3377 92.0502 66.6164 92.3289 66.839 92.6504C66.9896 92.868 67.1057 93.1238 67.1925 93.4601L60.7448 97.5632C59.6802 98.2406 58.3197 98.2406 57.2551 97.5632L50.8073 93.4601C50.8941 93.1238 51.0103 92.868 51.1609 92.6504C51.3834 92.3289 51.6621 92.0502 51.9837 91.8276ZM50.6111 95.1132C50.5837 95.7778 50.5833 96.5809 50.5833 97.5833C50.5833 99.0436 50.5842 100.081 50.6681 100.883C50.7505 101.673 50.9065 102.149 51.1609 102.516C51.3834 102.838 51.6621 103.117 51.9837 103.339C52.3512 103.593 52.8274 103.749 53.6167 103.832C54.4192 103.916 55.4563 103.917 56.9166 103.917H61.0833C62.5435 103.917 63.5807 103.916 64.3831 103.832C65.1724 103.749 65.6487 103.593 66.0162 103.339C66.3377 103.117 66.6164 102.838 66.839 102.516C67.0933 102.149 67.2493 101.673 67.3318 100.883C67.4156 100.081 67.4166 99.0436 67.4166 97.5833C67.4166 96.5809 67.4161 95.7778 67.3887 95.1132L61.5501 98.8287C59.9941 99.8188 58.0057 99.8188 56.4498 98.8287L50.6111 95.1132Z" fill="white"/>
<path d="M50.2354 146H44.1174V136.662H50.2354V137.698H45.2794V140.708H50.1374V141.744H45.2794V144.964H50.2354V146ZM61.2581 146H60.2081V141.408C60.2081 140.475 59.7928 140.008 58.9621 140.008C58.6261 140.008 58.2901 140.111 57.9541 140.316C57.6181 140.521 57.3568 140.764 57.1701 141.044V146H56.1201V141.408C56.1201 140.475 55.7048 140.008 54.8741 140.008C54.5474 140.008 54.2161 140.111 53.8801 140.316C53.5534 140.521 53.2921 140.769 53.0961 141.058V146H52.0461V139.238H53.0961V140.218C53.2641 139.957 53.5581 139.7 53.9781 139.448C54.3981 139.196 54.8321 139.07 55.2801 139.07C55.7748 139.07 56.1761 139.187 56.4841 139.42C56.7921 139.653 56.9974 139.957 57.1001 140.33C57.3054 139.994 57.6181 139.7 58.0381 139.448C58.4581 139.196 58.9014 139.07 59.3681 139.07C60.6281 139.07 61.2581 139.751 61.2581 141.114V146ZM68.6307 146H67.5807V145.23C67.0114 145.855 66.2647 146.168 65.3407 146.168C64.7154 146.168 64.1647 145.967 63.6887 145.566C63.2127 145.165 62.9747 144.619 62.9747 143.928C62.9747 143.219 63.2081 142.673 63.6747 142.29C64.1507 141.898 64.7061 141.702 65.3407 141.702C66.3021 141.702 67.0487 142.01 67.5807 142.626V141.408C67.5807 140.96 67.4221 140.61 67.1047 140.358C66.7874 140.106 66.3767 139.98 65.8727 139.98C65.0794 139.98 64.3887 140.293 63.8007 140.918L63.3107 140.19C64.0294 139.443 64.9301 139.07 66.0127 139.07C66.7874 139.07 67.4174 139.257 67.9027 139.63C68.3881 140.003 68.6307 140.577 68.6307 141.352V146ZM65.7187 145.412C66.5587 145.412 67.1794 145.132 67.5807 144.572V143.298C67.1794 142.738 66.5587 142.458 65.7187 142.458C65.2334 142.458 64.8321 142.598 64.5147 142.878C64.2067 143.149 64.0527 143.503 64.0527 143.942C64.0527 144.371 64.2067 144.726 64.5147 145.006C64.8321 145.277 65.2334 145.412 65.7187 145.412ZM71.2535 138.272C71.0669 138.272 70.9035 138.207 70.7635 138.076C70.6235 137.936 70.5535 137.768 70.5535 137.572C70.5535 137.376 70.6235 137.208 70.7635 137.068C70.9035 136.928 71.0669 136.858 71.2535 136.858C71.4495 136.858 71.6175 136.928 71.7575 137.068C71.8975 137.208 71.9675 137.376 71.9675 137.572C71.9675 137.768 71.8975 137.936 71.7575 138.076C71.6175 138.207 71.4495 138.272 71.2535 138.272ZM71.7855 146H70.7355V139.238H71.7855V146ZM74.9301 146H73.8801V136.662H74.9301V146ZM30.0353 169H28.8873L26.0733 162.238H27.2073L29.4613 167.782L31.7013 162.238H32.8493L30.0353 169ZM36.9965 169.168C35.9885 169.168 35.1625 168.841 34.5185 168.188C33.8745 167.525 33.5525 166.667 33.5525 165.612C33.5525 164.623 33.8699 163.787 34.5045 163.106C35.1392 162.415 35.9325 162.07 36.8845 162.07C37.8832 162.07 38.6719 162.415 39.2505 163.106C39.8385 163.787 40.1325 164.651 40.1325 165.696V165.962H34.6585C34.7052 166.625 34.9479 167.18 35.3865 167.628C35.8252 168.076 36.3945 168.3 37.0945 168.3C37.9345 168.3 38.6299 168.015 39.1805 167.446L39.6845 168.132C38.9939 168.823 38.0979 169.168 36.9965 169.168ZM39.0965 165.192C39.0872 164.613 38.8912 164.095 38.5085 163.638C38.1259 163.171 37.5799 162.938 36.8705 162.938C36.1985 162.938 35.6665 163.167 35.2745 163.624C34.8919 164.081 34.6865 164.604 34.6585 165.192H39.0965ZM42.8832 169H41.8332V162.238H42.8832V163.33C43.5085 162.509 44.2599 162.098 45.1372 162.098V163.176C45.0065 163.148 44.8665 163.134 44.7172 163.134C44.3999 163.134 44.0545 163.246 43.6812 163.47C43.3079 163.694 43.0419 163.941 42.8832 164.212V169ZM46.9723 161.272C46.7856 161.272 46.6223 161.207 46.4823 161.076C46.3423 160.936 46.2723 160.768 46.2723 160.572C46.2723 160.376 46.3423 160.208 46.4823 160.068C46.6223 159.928 46.7856 159.858 46.9723 159.858C47.1683 159.858 47.3363 159.928 47.4763 160.068C47.6163 160.208 47.6863 160.376 47.6863 160.572C47.6863 160.768 47.6163 160.936 47.4763 161.076C47.3363 161.207 47.1683 161.272 46.9723 161.272ZM47.5043 169H46.4543V162.238H47.5043V169ZM50.9428 169H49.8928V163.162H48.7728V162.238H49.8928V161.72C49.8928 161.029 50.0702 160.493 50.4248 160.11C50.7795 159.718 51.2555 159.522 51.8528 159.522C52.2822 159.522 52.6228 159.601 52.8748 159.76L52.6088 160.558C52.4315 160.446 52.2308 160.39 52.0068 160.39C51.6615 160.39 51.3955 160.507 51.2088 160.74C51.0315 160.964 50.9428 161.291 50.9428 161.72V162.238H52.3148V163.162H50.9428V169ZM54.0788 161.272C53.8922 161.272 53.7288 161.207 53.5888 161.076C53.4488 160.936 53.3788 160.768 53.3788 160.572C53.3788 160.376 53.4488 160.208 53.5888 160.068C53.7288 159.928 53.8922 159.858 54.0788 159.858C54.2748 159.858 54.4428 159.928 54.5828 160.068C54.7228 160.208 54.7928 160.376 54.7928 160.572C54.7928 160.768 54.7228 160.936 54.5828 161.076C54.4428 161.207 54.2748 161.272 54.0788 161.272ZM54.6108 169H53.5608V162.238H54.6108V169ZM59.7039 169.168C58.7052 169.168 57.8932 168.832 57.2679 168.16C56.6425 167.479 56.3299 166.629 56.3299 165.612C56.3299 164.595 56.6425 163.75 57.2679 163.078C57.8932 162.406 58.7052 162.07 59.7039 162.07C60.7492 162.07 61.5752 162.462 62.1819 163.246L61.4819 163.89C61.0525 163.302 60.4785 163.008 59.7599 163.008C59.0505 163.008 58.4812 163.251 58.0519 163.736C57.6319 164.221 57.4219 164.847 57.4219 165.612C57.4219 166.377 57.6319 167.007 58.0519 167.502C58.4812 167.987 59.0505 168.23 59.7599 168.23C60.4692 168.23 61.0432 167.936 61.4819 167.348L62.1819 167.992C61.5752 168.776 60.7492 169.168 59.7039 169.168ZM68.9315 169H67.8815V168.23C67.3122 168.855 66.5655 169.168 65.6415 169.168C65.0162 169.168 64.4655 168.967 63.9895 168.566C63.5135 168.165 63.2755 167.619 63.2755 166.928C63.2755 166.219 63.5088 165.673 63.9755 165.29C64.4515 164.898 65.0068 164.702 65.6415 164.702C66.6028 164.702 67.3495 165.01 67.8815 165.626V164.408C67.8815 163.96 67.7228 163.61 67.4055 163.358C67.0882 163.106 66.6775 162.98 66.1735 162.98C65.3802 162.98 64.6895 163.293 64.1015 163.918L63.6115 163.19C64.3302 162.443 65.2308 162.07 66.3135 162.07C67.0882 162.07 67.7182 162.257 68.2035 162.63C68.6888 163.003 68.9315 163.577 68.9315 164.352V169ZM66.0195 168.412C66.8595 168.412 67.4802 168.132 67.8815 167.572V166.298C67.4802 165.738 66.8595 165.458 66.0195 165.458C65.5342 165.458 65.1328 165.598 64.8155 165.878C64.5075 166.149 64.3535 166.503 64.3535 166.942C64.3535 167.371 64.5075 167.726 64.8155 168.006C65.1328 168.277 65.5342 168.412 66.0195 168.412ZM72.7443 169.168C72.2497 169.168 71.8763 169.033 71.6243 168.762C71.3723 168.491 71.2463 168.099 71.2463 167.586V163.162H70.1263V162.238H71.2463V160.39H72.2963V162.238H73.6683V163.162H72.2963V167.362C72.2963 167.623 72.3523 167.833 72.4643 167.992C72.5857 168.151 72.7583 168.23 72.9823 168.23C73.2903 168.23 73.5283 168.137 73.6963 167.95L74.0043 168.734C73.6963 169.023 73.2763 169.168 72.7443 169.168ZM75.6696 161.272C75.4829 161.272 75.3196 161.207 75.1796 161.076C75.0396 160.936 74.9696 160.768 74.9696 160.572C74.9696 160.376 75.0396 160.208 75.1796 160.068C75.3196 159.928 75.4829 159.858 75.6696 159.858C75.8656 159.858 76.0336 159.928 76.1736 160.068C76.3136 160.208 76.3836 160.376 76.3836 160.572C76.3836 160.768 76.3136 160.936 76.1736 161.076C76.0336 161.207 75.8656 161.272 75.6696 161.272ZM76.2016 169H75.1516V162.238H76.2016V169ZM83.6721 168.146C83.0654 168.827 82.2581 169.168 81.2501 169.168C80.2421 169.168 79.4301 168.827 78.8141 168.146C78.2074 167.465 77.9041 166.62 77.9041 165.612C77.9041 164.604 78.2074 163.764 78.8141 163.092C79.4301 162.411 80.2421 162.07 81.2501 162.07C82.2581 162.07 83.0654 162.411 83.6721 163.092C84.2881 163.764 84.5961 164.604 84.5961 165.612C84.5961 166.62 84.2881 167.465 83.6721 168.146ZM79.5981 167.474C80.0088 167.978 80.5594 168.23 81.2501 168.23C81.9408 168.23 82.4868 167.978 82.8881 167.474C83.2894 166.961 83.4901 166.34 83.4901 165.612C83.4901 164.884 83.2894 164.268 82.8881 163.764C82.4868 163.26 81.9408 163.008 81.2501 163.008C80.5594 163.008 80.0088 163.265 79.5981 163.778C79.1968 164.282 78.9961 164.893 78.9961 165.612C78.9961 166.34 79.1968 166.961 79.5981 167.474ZM91.9218 169H90.8718V164.576C90.8718 164.007 90.7411 163.605 90.4798 163.372C90.2185 163.129 89.8451 163.008 89.3598 163.008C88.9678 163.008 88.5851 163.111 88.2118 163.316C87.8478 163.521 87.5631 163.769 87.3578 164.058V169H86.3078V162.238H87.3578V163.218C87.6191 162.91 87.9691 162.644 88.4078 162.42C88.8465 162.187 89.2991 162.07 89.7658 162.07C91.2031 162.07 91.9218 162.798 91.9218 164.254V169Z" fill="white"/>
<circle cx="179.5" cy="97.5" r="21.75" stroke="#C9C9C9" stroke-opacity="0.5" stroke-width="1.5"/>
<path fill-rule="evenodd" clip-rule="evenodd" d="M178.967 88.0834L178.935 88.0834C178.122 88.0834 177.466 88.0834 176.935 88.1267C176.389 88.1714 175.909 88.2658 175.464 88.4921C174.759 88.8516 174.185 89.4253 173.825 90.1309C173.599 90.5751 173.505 91.0553 173.46 91.6019C173.417 92.1328 173.417 92.7884 173.417 93.6013L173.417 93.6334V102.367L173.417 102.399C173.417 103.212 173.417 103.867 173.46 104.398C173.505 104.945 173.599 105.425 173.825 105.869C174.185 106.575 174.759 107.148 175.464 107.508C175.909 107.734 176.389 107.829 176.935 107.873C177.466 107.917 178.122 107.917 178.935 107.917H178.935H178.967H181.033H181.066H181.066C181.878 107.917 182.534 107.917 183.065 107.873C183.612 107.829 184.092 107.734 184.536 107.508C185.241 107.148 185.815 106.575 186.175 105.869C186.401 105.425 186.495 104.945 186.54 104.398C186.583 103.867 186.583 103.212 186.583 102.399V102.367V93.6334V93.6013C186.583 92.7884 186.583 92.1328 186.54 91.6019C186.495 91.0553 186.401 90.5751 186.175 90.1309C185.815 89.4253 185.241 88.8516 184.536 88.4921C184.092 88.2658 183.612 88.1714 183.065 88.1267C182.534 88.0834 181.878 88.0834 181.066 88.0834L181.033 88.0834H178.967ZM176.145 89.8286C176.343 89.728 176.604 89.6588 177.057 89.6218C177.52 89.584 178.114 89.5834 178.967 89.5834H181.033C181.886 89.5834 182.48 89.584 182.943 89.6218C183.397 89.6588 183.657 89.728 183.855 89.8286C184.278 90.0443 184.622 90.3885 184.838 90.8119C184.939 91.0094 185.008 91.2702 185.045 91.7241C185.083 92.1867 185.083 92.7809 185.083 93.6334V102.367C185.083 103.219 185.083 103.813 185.045 104.276C185.008 104.73 184.939 104.991 184.838 105.188C184.622 105.612 184.278 105.956 183.855 106.171C183.657 106.272 183.397 106.341 182.943 106.378C182.48 106.416 181.886 106.417 181.033 106.417H178.967C178.114 106.417 177.52 106.416 177.057 106.378C176.604 106.341 176.343 106.272 176.145 106.171C175.722 105.956 175.378 105.612 175.162 105.188C175.061 104.991 174.992 104.73 174.955 104.276C174.917 103.813 174.917 103.219 174.917 102.367V93.6334C174.917 92.7809 174.917 92.1867 174.955 91.7241C174.992 91.2702 175.061 91.0094 175.162 90.8119C175.378 90.3885 175.722 90.0443 176.145 89.8286ZM178.333 89.75C177.919 89.75 177.583 90.0858 177.583 90.5C177.583 90.9143 177.919 91.25 178.333 91.25H181.667C182.081 91.25 182.417 90.9143 182.417 90.5C182.417 90.0858 182.081 89.75 181.667 89.75H178.333Z" fill="white"/>
<path d="M169.953 146H168.791V138.314L165.613 146H165.137L161.973 138.314V146H160.811V136.662H162.477L165.375 143.69L168.287 136.662H169.953V146ZM177.465 145.146C176.858 145.827 176.051 146.168 175.043 146.168C174.035 146.168 173.223 145.827 172.607 145.146C172 144.465 171.697 143.62 171.697 142.612C171.697 141.604 172 140.764 172.607 140.092C173.223 139.411 174.035 139.07 175.043 139.07C176.051 139.07 176.858 139.411 177.465 140.092C178.081 140.764 178.389 141.604 178.389 142.612C178.389 143.62 178.081 144.465 177.465 145.146ZM173.391 144.474C173.802 144.978 174.352 145.23 175.043 145.23C175.734 145.23 176.28 144.978 176.681 144.474C177.082 143.961 177.283 143.34 177.283 142.612C177.283 141.884 177.082 141.268 176.681 140.764C176.28 140.26 175.734 140.008 175.043 140.008C174.352 140.008 173.802 140.265 173.391 140.778C172.99 141.282 172.789 141.893 172.789 142.612C172.789 143.34 172.99 143.961 173.391 144.474ZM181.151 144.166C181.337 144.465 181.617 144.717 181.991 144.922C182.373 145.127 182.765 145.23 183.167 145.23C183.839 145.23 184.371 144.987 184.763 144.502C185.155 144.017 185.351 143.391 185.351 142.626C185.351 141.861 185.155 141.235 184.763 140.75C184.371 140.255 183.839 140.008 183.167 140.008C182.765 140.008 182.373 140.115 181.991 140.33C181.617 140.535 181.337 140.792 181.151 141.1V144.166ZM181.151 146H180.101V136.662H181.151V140.26C181.739 139.467 182.499 139.07 183.433 139.07C184.319 139.07 185.043 139.397 185.603 140.05C186.163 140.694 186.443 141.553 186.443 142.626C186.443 143.709 186.163 144.572 185.603 145.216C185.052 145.851 184.329 146.168 183.433 146.168C182.49 146.168 181.729 145.776 181.151 144.992V146ZM188.672 138.272C188.485 138.272 188.322 138.207 188.182 138.076C188.042 137.936 187.972 137.768 187.972 137.572C187.972 137.376 188.042 137.208 188.182 137.068C188.322 136.928 188.485 136.858 188.672 136.858C188.868 136.858 189.036 136.928 189.176 137.068C189.316 137.208 189.386 137.376 189.386 137.572C189.386 137.768 189.316 137.936 189.176 138.076C189.036 138.207 188.868 138.272 188.672 138.272ZM189.204 146H188.154V139.238H189.204V146ZM192.348 146H191.298V136.662H192.348V146ZM197.495 146.168C196.487 146.168 195.661 145.841 195.017 145.188C194.373 144.525 194.051 143.667 194.051 142.612C194.051 141.623 194.368 140.787 195.003 140.106C195.637 139.415 196.431 139.07 197.383 139.07C198.381 139.07 199.17 139.415 199.749 140.106C200.337 140.787 200.631 141.651 200.631 142.696V142.962H195.157C195.203 143.625 195.446 144.18 195.885 144.628C196.323 145.076 196.893 145.3 197.593 145.3C198.433 145.3 199.128 145.015 199.679 144.446L200.183 145.132C199.492 145.823 198.596 146.168 197.495 146.168ZM199.595 142.192C199.585 141.613 199.389 141.095 199.007 140.638C198.624 140.171 198.078 139.938 197.369 139.938C196.697 139.938 196.165 140.167 195.773 140.624C195.39 141.081 195.185 141.604 195.157 142.192H199.595ZM151.035 169H149.887L147.073 162.238H148.207L150.461 167.782L152.701 162.238H153.849L151.035 169ZM157.997 169.168C156.989 169.168 156.163 168.841 155.519 168.188C154.875 167.525 154.553 166.667 154.553 165.612C154.553 164.623 154.87 163.787 155.505 163.106C156.139 162.415 156.933 162.07 157.885 162.07C158.883 162.07 159.672 162.415 160.251 163.106C160.839 163.787 161.133 164.651 161.133 165.696V165.962H155.659C155.705 166.625 155.948 167.18 156.387 167.628C156.825 168.076 157.395 168.3 158.095 168.3C158.935 168.3 159.63 168.015 160.181 167.446L160.685 168.132C159.994 168.823 159.098 169.168 157.997 169.168ZM160.097 165.192C160.087 164.613 159.891 164.095 159.509 163.638C159.126 163.171 158.58 162.938 157.871 162.938C157.199 162.938 156.667 163.167 156.275 163.624C155.892 164.081 155.687 164.604 155.659 165.192H160.097ZM163.883 169H162.833V162.238H163.883V163.33C164.509 162.509 165.26 162.098 166.137 162.098V163.176C166.007 163.148 165.867 163.134 165.717 163.134C165.4 163.134 165.055 163.246 164.681 163.47C164.308 163.694 164.042 163.941 163.883 164.212V169ZM167.972 161.272C167.786 161.272 167.622 161.207 167.482 161.076C167.342 160.936 167.272 160.768 167.272 160.572C167.272 160.376 167.342 160.208 167.482 160.068C167.622 159.928 167.786 159.858 167.972 159.858C168.168 159.858 168.336 159.928 168.476 160.068C168.616 160.208 168.686 160.376 168.686 160.572C168.686 160.768 168.616 160.936 168.476 161.076C168.336 161.207 168.168 161.272 167.972 161.272ZM168.504 169H167.454V162.238H168.504V169ZM171.943 169H170.893V163.162H169.773V162.238H170.893V161.72C170.893 161.029 171.07 160.493 171.425 160.11C171.779 159.718 172.255 159.522 172.853 159.522C173.282 159.522 173.623 159.601 173.875 159.76L173.609 160.558C173.431 160.446 173.231 160.39 173.007 160.39C172.661 160.39 172.395 160.507 172.209 160.74C172.031 160.964 171.943 161.291 171.943 161.72V162.238H173.315V163.162H171.943V169ZM175.079 161.272C174.892 161.272 174.729 161.207 174.589 161.076C174.449 160.936 174.379 160.768 174.379 160.572C174.379 160.376 174.449 160.208 174.589 160.068C174.729 159.928 174.892 159.858 175.079 159.858C175.275 159.858 175.443 159.928 175.583 160.068C175.723 160.208 175.793 160.376 175.793 160.572C175.793 160.768 175.723 160.936 175.583 161.076C175.443 161.207 175.275 161.272 175.079 161.272ZM175.611 169H174.561V162.238H175.611V169ZM180.704 169.168C179.705 169.168 178.893 168.832 178.268 168.16C177.643 167.479 177.33 166.629 177.33 165.612C177.33 164.595 177.643 163.75 178.268 163.078C178.893 162.406 179.705 162.07 180.704 162.07C181.749 162.07 182.575 162.462 183.182 163.246L182.482 163.89C182.053 163.302 181.479 163.008 180.76 163.008C180.051 163.008 179.481 163.251 179.052 163.736C178.632 164.221 178.422 164.847 178.422 165.612C178.422 166.377 178.632 167.007 179.052 167.502C179.481 167.987 180.051 168.23 180.76 168.23C181.469 168.23 182.043 167.936 182.482 167.348L183.182 167.992C182.575 168.776 181.749 169.168 180.704 169.168ZM189.932 169H188.882V168.23C188.312 168.855 187.566 169.168 186.642 169.168C186.016 169.168 185.466 168.967 184.99 168.566C184.514 168.165 184.276 167.619 184.276 166.928C184.276 166.219 184.509 165.673 184.976 165.29C185.452 164.898 186.007 164.702 186.642 164.702C187.603 164.702 188.35 165.01 188.882 165.626V164.408C188.882 163.96 188.723 163.61 188.406 163.358C188.088 163.106 187.678 162.98 187.174 162.98C186.38 162.98 185.69 163.293 185.102 163.918L184.612 163.19C185.33 162.443 186.231 162.07 187.314 162.07C188.088 162.07 188.718 162.257 189.204 162.63C189.689 163.003 189.932 163.577 189.932 164.352V169ZM187.02 168.412C187.86 168.412 188.48 168.132 188.882 167.572V166.298C188.48 165.738 187.86 165.458 187.02 165.458C186.534 165.458 186.133 165.598 185.816 165.878C185.508 166.149 185.354 166.503 185.354 166.942C185.354 167.371 185.508 167.726 185.816 168.006C186.133 168.277 186.534 168.412 187.02 168.412ZM193.744 169.168C193.25 169.168 192.876 169.033 192.624 168.762C192.372 168.491 192.246 168.099 192.246 167.586V163.162H191.126V162.238H192.246V160.39H193.296V162.238H194.668V163.162H193.296V167.362C193.296 167.623 193.352 167.833 193.464 167.992C193.586 168.151 193.758 168.23 193.982 168.23C194.29 168.23 194.528 168.137 194.696 167.95L195.004 168.734C194.696 169.023 194.276 169.168 193.744 169.168ZM196.67 161.272C196.483 161.272 196.32 161.207 196.18 161.076C196.04 160.936 195.97 160.768 195.97 160.572C195.97 160.376 196.04 160.208 196.18 160.068C196.32 159.928 196.483 159.858 196.67 159.858C196.866 159.858 197.034 159.928 197.174 160.068C197.314 160.208 197.384 160.376 197.384 160.572C197.384 160.768 197.314 160.936 197.174 161.076C197.034 161.207 196.866 161.272 196.67 161.272ZM197.202 169H196.152V162.238H197.202V169ZM204.672 168.146C204.065 168.827 203.258 169.168 202.25 169.168C201.242 169.168 200.43 168.827 199.814 168.146C199.207 167.465 198.904 166.62 198.904 165.612C198.904 164.604 199.207 163.764 199.814 163.092C200.43 162.411 201.242 162.07 202.25 162.07C203.258 162.07 204.065 162.411 204.672 163.092C205.288 163.764 205.596 164.604 205.596 165.612C205.596 166.62 205.288 167.465 204.672 168.146ZM200.598 167.474C201.009 167.978 201.559 168.23 202.25 168.23C202.941 168.23 203.487 167.978 203.888 167.474C204.289 166.961 204.49 166.34 204.49 165.612C204.49 164.884 204.289 164.268 203.888 163.764C203.487 163.26 202.941 163.008 202.25 163.008C201.559 163.008 201.009 163.265 200.598 163.778C200.197 164.282 199.996 164.893 199.996 165.612C199.996 166.34 200.197 166.961 200.598 167.474ZM212.922 169H211.872V164.576C211.872 164.007 211.741 163.605 211.48 163.372C211.218 163.129 210.845 163.008 210.36 163.008C209.968 163.008 209.585 163.111 209.212 163.316C208.848 163.521 208.563 163.769 208.358 164.058V169H207.308V162.238H208.358V163.218C208.619 162.91 208.969 162.644 209.408 162.42C209.846 162.187 210.299 162.07 210.766 162.07C212.203 162.07 212.922 162.798 212.922 164.254V169Z" fill="white"/>
<g opacity="0.5">
<path fill-rule="evenodd" clip-rule="evenodd" d="M123.293 119.293C122.902 119.683 122.902 120.317 123.293 120.707L127.586 125H110C109.448 125 109 125.448 109 126C109 126.552 109.448 127 110 127H127.586L123.293 131.293C122.902 131.683 122.902 132.317 123.293 132.707C123.683 133.098 124.317 133.098 124.707 132.707L130.707 126.707C130.895 126.52 131 126.265 131 126C131 125.735 130.895 125.48 130.707 125.293L124.707 119.293C124.317 118.902 123.683 118.902 123.293 119.293Z" fill="white"/>
</g>
<path d="M124.508 206.059C127.285 206.059 129.537 203.807 129.537 201.029C129.537 198.252 127.285 196 124.508 196C121.73 196 119.478 198.252 119.478 201.029C119.478 203.807 121.73 206.059 124.508 206.059Z" fill="#FB3E3E"/>
<path opacity="0.6" d="M124.508 239C126.174 239 127.525 237.649 127.525 235.983C127.525 234.316 126.174 232.965 124.508 232.965C122.841 232.965 121.49 234.316 121.49 235.983C121.49 237.649 122.841 239 124.508 239Z" fill="#FB3E3E"/>
<path opacity="0.9" d="M112.149 210.674C114.649 210.674 116.676 208.647 116.676 206.147C116.676 203.647 114.649 201.62 112.149 201.62C109.649 201.62 107.622 203.647 107.622 206.147C107.622 208.647 109.649 210.674 112.149 210.674Z" fill="#FB3E3E"/>
<path opacity="0.5" d="M136.866 233.376C138.255 233.376 139.381 232.251 139.381 230.862C139.381 229.473 138.255 228.347 136.866 228.347C135.477 228.347 134.352 229.473 134.352 230.862C134.352 232.251 135.477 233.376 136.866 233.376Z" fill="#FB3E3E"/>
<path opacity="0.8" d="M107.03 222.529C109.251 222.529 111.052 220.728 111.052 218.507C111.052 216.285 109.251 214.484 107.03 214.484C104.808 214.484 103.007 216.285 103.007 218.507C103.007 220.728 104.808 222.529 107.03 222.529Z" fill="#FB3E3E"/>
<path opacity="0.4" d="M141.984 220.516C143.095 220.516 143.995 219.616 143.995 218.505C143.995 217.395 143.095 216.495 141.984 216.495C140.874 216.495 139.974 217.395 139.974 218.505C139.974 219.616 140.874 220.516 141.984 220.516Z" fill="#FB3E3E"/>
<path opacity="0.7" d="M109.66 228.377C108.284 229.752 108.284 231.978 109.66 233.354C111.034 234.729 113.264 234.729 114.638 233.354C116.013 231.978 116.013 229.752 114.638 228.377C113.264 226.999 111.036 226.986 109.66 228.377Z" fill="#FB3E3E"/>
<path opacity="0.3" d="M136.865 207.655C137.697 207.655 138.373 206.98 138.373 206.147C138.373 205.314 137.697 204.639 136.865 204.639C136.032 204.639 135.357 205.314 135.357 206.147C135.357 206.98 136.032 207.655 136.865 207.655Z" fill="#FB3E3E"/>
<path d="M90.68 280H89.352V275.488L85.144 269.328H86.696L90.008 274.288L93.32 269.328H94.872L90.68 275.488V280ZM100.328 279.024C99.635 279.803 98.7124 280.192 97.5604 280.192C96.4084 280.192 95.4804 279.803 94.7764 279.024C94.083 278.245 93.7364 277.28 93.7364 276.128C93.7364 274.976 94.083 274.016 94.7764 273.248C95.4804 272.469 96.4084 272.08 97.5604 272.08C98.7124 272.08 99.635 272.469 100.328 273.248C101.032 274.016 101.384 274.976 101.384 276.128C101.384 277.28 101.032 278.245 100.328 279.024ZM95.6724 278.256C96.1417 278.832 96.771 279.12 97.5604 279.12C98.3497 279.12 98.9737 278.832 99.4324 278.256C99.891 277.669 100.12 276.96 100.12 276.128C100.12 275.296 99.891 274.592 99.4324 274.016C98.9737 273.44 98.3497 273.152 97.5604 273.152C96.771 273.152 96.1417 273.445 95.6724 274.032C95.2137 274.608 94.9844 275.307 94.9844 276.128C94.9844 276.96 95.2137 277.669 95.6724 278.256ZM109.757 280H108.557V278.912C108.237 279.275 107.831 279.579 107.341 279.824C106.861 280.069 106.349 280.192 105.805 280.192C104.162 280.192 103.341 279.371 103.341 277.728V272.272H104.541V277.36C104.541 278 104.685 278.453 104.973 278.72C105.271 278.987 105.703 279.12 106.269 279.12C106.717 279.12 107.149 279.008 107.565 278.784C107.991 278.56 108.322 278.283 108.557 277.952V272.272H109.757V280ZM113.353 280H112.153V272.272H113.353V273.52C114.068 272.581 114.926 272.112 115.929 272.112V273.344C115.78 273.312 115.62 273.296 115.449 273.296C115.086 273.296 114.692 273.424 114.265 273.68C113.838 273.936 113.534 274.219 113.353 274.528V280ZM128.599 280H121.607V269.328H128.599V270.512H122.935V273.952H128.487V275.136H122.935V278.816H128.599V280ZM133.789 276.656H129.949V275.6H133.789V276.656ZM145.962 280H144.634V271.216L141.002 280H140.458L136.842 271.216V280H135.514V269.328H137.418L140.73 277.36L144.058 269.328H145.962V280ZM154.435 280H153.235V279.12C152.584 279.835 151.731 280.192 150.675 280.192C149.96 280.192 149.331 279.963 148.787 279.504C148.243 279.045 147.971 278.421 147.971 277.632C147.971 276.821 148.238 276.197 148.771 275.76C149.315 275.312 149.95 275.088 150.675 275.088C151.774 275.088 152.627 275.44 153.235 276.144V274.752C153.235 274.24 153.054 273.84 152.691 273.552C152.328 273.264 151.859 273.12 151.283 273.12C150.376 273.12 149.587 273.477 148.915 274.192L148.355 273.36C149.176 272.507 150.206 272.08 151.443 272.08C152.328 272.08 153.048 272.293 153.603 272.72C154.158 273.147 154.435 273.803 154.435 274.688V280ZM151.107 279.328C152.067 279.328 152.776 279.008 153.235 278.368V276.912C152.776 276.272 152.067 275.952 151.107 275.952C150.552 275.952 150.094 276.112 149.731 276.432C149.379 276.741 149.203 277.147 149.203 277.648C149.203 278.139 149.379 278.544 149.731 278.864C150.094 279.173 150.552 279.328 151.107 279.328ZM157.433 271.168C157.219 271.168 157.033 271.093 156.873 270.944C156.713 270.784 156.633 270.592 156.633 270.368C156.633 270.144 156.713 269.952 156.873 269.792C157.033 269.632 157.219 269.552 157.433 269.552C157.657 269.552 157.849 269.632 158.009 269.792C158.169 269.952 158.249 270.144 158.249 270.368C158.249 270.592 158.169 270.784 158.009 270.944C157.849 271.093 157.657 271.168 157.433 271.168ZM158.041 280H156.841V272.272H158.041V280ZM161.634 280H160.434V269.328H161.634V280Z" fill="white"/>
<path d="M25.2462 310H24.0842V300.662H25.2462V310ZM33.0058 310H31.9558V305.576C31.9558 305.007 31.8251 304.605 31.5638 304.372C31.3025 304.129 30.9291 304.008 30.4438 304.008C30.0518 304.008 29.6691 304.111 29.2958 304.316C28.9318 304.521 28.6471 304.769 28.4418 305.058V310H27.3918V303.238H28.4418V304.218C28.7031 303.91 29.0531 303.644 29.4918 303.42C29.9305 303.187 30.3831 303.07 30.8498 303.07C32.2871 303.07 33.0058 303.798 33.0058 305.254V310ZM44.0881 309.146C43.4814 309.827 42.6741 310.168 41.6661 310.168C40.6581 310.168 39.8461 309.827 39.2301 309.146C38.6234 308.465 38.3201 307.62 38.3201 306.612C38.3201 305.604 38.6234 304.764 39.2301 304.092C39.8461 303.411 40.6581 303.07 41.6661 303.07C42.6741 303.07 43.4814 303.411 44.0881 304.092C44.7041 304.764 45.0121 305.604 45.0121 306.612C45.0121 307.62 44.7041 308.465 44.0881 309.146ZM40.0141 308.474C40.4248 308.978 40.9754 309.23 41.6661 309.23C42.3568 309.23 42.9028 308.978 43.3041 308.474C43.7054 307.961 43.9061 307.34 43.9061 306.612C43.9061 305.884 43.7054 305.268 43.3041 304.764C42.9028 304.26 42.3568 304.008 41.6661 304.008C40.9754 304.008 40.4248 304.265 40.0141 304.778C39.6128 305.282 39.4121 305.893 39.4121 306.612C39.4121 307.34 39.6128 307.961 40.0141 308.474ZM47.7738 310H46.7238V303.238H47.7738V304.33C48.3992 303.509 49.1505 303.098 50.0278 303.098V304.176C49.8972 304.148 49.7572 304.134 49.6078 304.134C49.2905 304.134 48.9452 304.246 48.5718 304.47C48.1985 304.694 47.9325 304.941 47.7738 305.212V310ZM57.2949 310H56.2449V308.992C55.6663 309.776 54.9056 310.168 53.9629 310.168C53.0669 310.168 52.3389 309.851 51.7789 309.216C51.2283 308.572 50.9529 307.709 50.9529 306.626C50.9529 305.553 51.2283 304.694 51.7789 304.05C52.3389 303.397 53.0669 303.07 53.9629 303.07C54.8963 303.07 55.6569 303.467 56.2449 304.26V300.662H57.2949V310ZM54.2149 309.23C54.6256 309.23 55.0176 309.127 55.3909 308.922C55.7643 308.717 56.0489 308.465 56.2449 308.166V305.1C56.0489 304.792 55.7596 304.535 55.3769 304.33C55.0036 304.115 54.6163 304.008 54.2149 304.008C53.5523 304.008 53.0249 304.255 52.6329 304.75C52.2409 305.235 52.0449 305.861 52.0449 306.626C52.0449 307.391 52.2409 308.017 52.6329 308.502C53.0249 308.987 53.5523 309.23 54.2149 309.23ZM62.4497 310.168C61.4417 310.168 60.6157 309.841 59.9717 309.188C59.3277 308.525 59.0057 307.667 59.0057 306.612C59.0057 305.623 59.323 304.787 59.9577 304.106C60.5923 303.415 61.3857 303.07 62.3377 303.07C63.3363 303.07 64.125 303.415 64.7037 304.106C65.2917 304.787 65.5857 305.651 65.5857 306.696V306.962H60.1117C60.1583 307.625 60.401 308.18 60.8397 308.628C61.2783 309.076 61.8477 309.3 62.5477 309.3C63.3877 309.3 64.083 309.015 64.6337 308.446L65.1377 309.132C64.447 309.823 63.551 310.168 62.4497 310.168ZM64.5497 306.192C64.5403 305.613 64.3443 305.095 63.9617 304.638C63.579 304.171 63.033 303.938 62.3237 303.938C61.6517 303.938 61.1197 304.167 60.7277 304.624C60.345 305.081 60.1397 305.604 60.1117 306.192H64.5497ZM68.3363 310H67.2863V303.238H68.3363V304.33C68.9617 303.509 69.713 303.098 70.5903 303.098V304.176C70.4597 304.148 70.3197 304.134 70.1703 304.134C69.853 304.134 69.5077 304.246 69.1343 304.47C68.761 304.694 68.495 304.941 68.3363 305.212V310ZM77.2248 310.168C76.7301 310.168 76.3568 310.033 76.1048 309.762C75.8528 309.491 75.7268 309.099 75.7268 308.586V304.162H74.6068V303.238H75.7268V301.39H76.7768V303.238H78.1488V304.162H76.7768V308.362C76.7768 308.623 76.8328 308.833 76.9448 308.992C77.0661 309.151 77.2388 309.23 77.4628 309.23C77.7708 309.23 78.0088 309.137 78.1768 308.95L78.4848 309.734C78.1768 310.023 77.7568 310.168 77.2248 310.168ZM85.008 309.146C84.4014 309.827 83.594 310.168 82.586 310.168C81.578 310.168 80.766 309.827 80.15 309.146C79.5434 308.465 79.24 307.62 79.24 306.612C79.24 305.604 79.5434 304.764 80.15 304.092C80.766 303.411 81.578 303.07 82.586 303.07C83.594 303.07 84.4014 303.411 85.008 304.092C85.624 304.764 85.932 305.604 85.932 306.612C85.932 307.62 85.624 308.465 85.008 309.146ZM80.934 308.474C81.3447 308.978 81.8954 309.23 82.586 309.23C83.2767 309.23 83.8227 308.978 84.224 308.474C84.6254 307.961 84.826 307.34 84.826 306.612C84.826 305.884 84.6254 305.268 84.224 304.764C83.8227 304.26 83.2767 304.008 82.586 304.008C81.8954 304.008 81.3447 304.265 80.934 304.778C80.5327 305.282 80.332 305.893 80.332 306.612C80.332 307.34 80.5327 307.961 80.934 308.474ZM93.3951 310.168C92.2471 310.168 91.3371 309.813 90.6651 309.104L91.2111 308.348C91.4445 308.619 91.7618 308.847 92.1631 309.034C92.5738 309.221 92.9985 309.314 93.4371 309.314C93.9411 309.314 94.3331 309.207 94.6131 308.992C94.8931 308.777 95.0331 308.497 95.0331 308.152C95.0331 307.853 94.8885 307.62 94.5991 307.452C94.3098 307.275 93.9598 307.144 93.5491 307.06C93.1478 306.967 92.7418 306.864 92.3311 306.752C91.9205 306.631 91.5705 306.43 91.2811 306.15C90.9918 305.861 90.8471 305.483 90.8471 305.016C90.8471 304.465 91.0711 304.003 91.5191 303.63C91.9765 303.257 92.5925 303.07 93.3671 303.07C94.3845 303.07 95.2198 303.397 95.8731 304.05L95.3831 304.778C94.9071 304.209 94.2351 303.924 93.3671 303.924C92.9098 303.924 92.5458 304.027 92.2751 304.232C92.0045 304.428 91.8691 304.68 91.8691 304.988C91.8691 305.259 92.0138 305.473 92.3031 305.632C92.5925 305.781 92.9378 305.903 93.3391 305.996C93.7498 306.08 94.1605 306.183 94.5711 306.304C94.9818 306.425 95.3318 306.64 95.6211 306.948C95.9105 307.247 96.0551 307.639 96.0551 308.124C96.0551 308.721 95.8218 309.211 95.3551 309.594C94.8885 309.977 94.2351 310.168 93.3951 310.168ZM99.4689 310.168C98.9743 310.168 98.6009 310.033 98.3489 309.762C98.0969 309.491 97.9709 309.099 97.9709 308.586V304.162H96.8509V303.238H97.9709V301.39H99.0209V303.238H100.393V304.162H99.0209V308.362C99.0209 308.623 99.0769 308.833 99.1889 308.992C99.3103 309.151 99.4829 309.23 99.7069 309.23C100.015 309.23 100.253 309.137 100.421 308.95L100.729 309.734C100.421 310.023 100.001 310.168 99.4689 310.168ZM107.154 310H106.104V309.23C105.535 309.855 104.788 310.168 103.864 310.168C103.239 310.168 102.688 309.967 102.212 309.566C101.736 309.165 101.498 308.619 101.498 307.928C101.498 307.219 101.732 306.673 102.198 306.29C102.674 305.898 103.23 305.702 103.864 305.702C104.826 305.702 105.572 306.01 106.104 306.626V305.408C106.104 304.96 105.946 304.61 105.628 304.358C105.311 304.106 104.9 303.98 104.396 303.98C103.603 303.98 102.912 304.293 102.324 304.918L101.834 304.19C102.553 303.443 103.454 303.07 104.536 303.07C105.311 303.07 105.941 303.257 106.426 303.63C106.912 304.003 107.154 304.577 107.154 305.352V310ZM104.242 309.412C105.082 309.412 105.703 309.132 106.104 308.572V307.298C105.703 306.738 105.082 306.458 104.242 306.458C103.757 306.458 103.356 306.598 103.038 306.878C102.73 307.149 102.576 307.503 102.576 307.942C102.576 308.371 102.73 308.726 103.038 309.006C103.356 309.277 103.757 309.412 104.242 309.412ZM110.309 310H109.259V303.238H110.309V304.33C110.934 303.509 111.686 303.098 112.563 303.098V304.176C112.432 304.148 112.292 304.134 112.143 304.134C111.826 304.134 111.48 304.246 111.107 304.47C110.734 304.694 110.468 304.941 110.309 305.212V310ZM115.588 310.168C115.093 310.168 114.72 310.033 114.468 309.762C114.216 309.491 114.09 309.099 114.09 308.586V304.162H112.97V303.238H114.09V301.39H115.14V303.238H116.512V304.162H115.14V308.362C115.14 308.623 115.196 308.833 115.308 308.992C115.429 309.151 115.602 309.23 115.826 309.23C116.134 309.23 116.372 309.137 116.54 308.95L116.848 309.734C116.54 310.023 116.12 310.168 115.588 310.168ZM124.937 310.168C123.985 310.168 123.224 309.771 122.655 308.978V312.576H121.605V303.238H122.655V304.246C122.907 303.891 123.233 303.607 123.635 303.392C124.036 303.177 124.47 303.07 124.937 303.07C125.833 303.07 126.556 303.392 127.107 304.036C127.667 304.671 127.947 305.529 127.947 306.612C127.947 307.695 127.667 308.558 127.107 309.202C126.556 309.846 125.833 310.168 124.937 310.168ZM124.671 309.23C125.333 309.23 125.861 308.987 126.253 308.502C126.645 308.007 126.841 307.377 126.841 306.612C126.841 305.847 126.645 305.221 126.253 304.736C125.861 304.251 125.333 304.008 124.671 304.008C124.269 304.008 123.877 304.115 123.495 304.33C123.121 304.535 122.841 304.787 122.655 305.086V308.138C122.841 308.446 123.121 308.707 123.495 308.922C123.877 309.127 124.269 309.23 124.671 309.23ZM130.666 310H129.616V300.662H130.666V310ZM138.039 310H136.989V309.23C136.42 309.855 135.673 310.168 134.749 310.168C134.124 310.168 133.573 309.967 133.097 309.566C132.621 309.165 132.383 308.619 132.383 307.928C132.383 307.219 132.616 306.673 133.083 306.29C133.559 305.898 134.114 305.702 134.749 305.702C135.71 305.702 136.457 306.01 136.989 306.626V305.408C136.989 304.96 136.83 304.61 136.513 304.358C136.196 304.106 135.785 303.98 135.281 303.98C134.488 303.98 133.797 304.293 133.209 304.918L132.719 304.19C133.438 303.443 134.338 303.07 135.421 303.07C136.196 303.07 136.826 303.257 137.311 303.63C137.796 304.003 138.039 304.577 138.039 305.352V310ZM135.127 309.412C135.967 309.412 136.588 309.132 136.989 308.572V307.298C136.588 306.738 135.967 306.458 135.127 306.458C134.642 306.458 134.24 306.598 133.923 306.878C133.615 307.149 133.461 307.503 133.461 307.942C133.461 308.371 133.615 308.726 133.923 309.006C134.24 309.277 134.642 309.412 135.127 309.412ZM139.766 312.646L139.934 311.694C140.102 311.769 140.293 311.806 140.508 311.806C140.75 311.806 140.951 311.755 141.11 311.652C141.268 311.549 141.404 311.363 141.516 311.092L141.964 310.07L139.136 303.238H140.27L142.524 308.782L144.764 303.238H145.912L142.524 311.372C142.15 312.268 141.488 312.725 140.536 312.744C140.256 312.744 139.999 312.711 139.766 312.646ZM147.525 302.272C147.338 302.272 147.175 302.207 147.035 302.076C146.895 301.936 146.825 301.768 146.825 301.572C146.825 301.376 146.895 301.208 147.035 301.068C147.175 300.928 147.338 300.858 147.525 300.858C147.721 300.858 147.889 300.928 148.029 301.068C148.169 301.208 148.239 301.376 148.239 301.572C148.239 301.768 148.169 301.936 148.029 302.076C147.889 302.207 147.721 302.272 147.525 302.272ZM148.057 310H147.007V303.238H148.057V310ZM155.766 310H154.716V305.576C154.716 305.007 154.585 304.605 154.324 304.372C154.062 304.129 153.689 304.008 153.204 304.008C152.812 304.008 152.429 304.111 152.056 304.316C151.692 304.521 151.407 304.769 151.202 305.058V310H150.152V303.238H151.202V304.218C151.463 303.91 151.813 303.644 152.252 303.42C152.69 303.187 153.143 303.07 153.61 303.07C155.047 303.07 155.766 303.798 155.766 305.254V310ZM160.579 312.744C159.981 312.744 159.473 312.669 159.053 312.52C158.633 312.38 158.231 312.119 157.849 311.736L158.381 310.952C158.894 311.568 159.627 311.876 160.579 311.876C161.204 311.876 161.722 311.708 162.133 311.372C162.543 311.045 162.749 310.537 162.749 309.846V308.88C162.497 309.235 162.17 309.524 161.769 309.748C161.367 309.972 160.938 310.084 160.481 310.084C159.585 310.084 158.857 309.771 158.297 309.146C157.746 308.511 157.471 307.657 157.471 306.584C157.471 305.511 157.746 304.657 158.297 304.022C158.857 303.387 159.585 303.07 160.481 303.07C161.405 303.07 162.161 303.467 162.749 304.26V303.238H163.799V309.804C163.799 310.84 163.495 311.587 162.889 312.044C162.282 312.511 161.512 312.744 160.579 312.744ZM160.733 309.16C161.134 309.16 161.521 309.053 161.895 308.838C162.277 308.623 162.562 308.362 162.749 308.054V305.1C162.562 304.792 162.282 304.535 161.909 304.33C161.535 304.115 161.143 304.008 160.733 304.008C160.061 304.008 159.529 304.246 159.137 304.722C158.754 305.198 158.562 305.819 158.562 306.584C158.562 307.34 158.759 307.961 159.151 308.446C159.543 308.922 160.07 309.16 160.733 309.16ZM167.316 309.664C167.316 310.075 167.208 310.467 166.994 310.84C166.779 311.223 166.504 311.535 166.168 311.778L165.65 311.344C165.883 311.195 166.084 310.994 166.252 310.742C166.429 310.499 166.532 310.266 166.56 310.042C166.522 310.061 166.457 310.07 166.364 310.07C166.168 310.07 166.004 310.005 165.874 309.874C165.752 309.734 165.692 309.561 165.692 309.356C165.692 309.151 165.762 308.973 165.902 308.824C166.051 308.675 166.228 308.6 166.434 308.6C166.676 308.6 166.882 308.698 167.05 308.894C167.227 309.081 167.316 309.337 167.316 309.664ZM179.64 310H178.59L176.826 304.568L175.062 310H174.012L171.856 303.238H172.948L174.6 308.628L176.378 303.238H177.274L179.052 308.628L180.704 303.238H181.796L179.64 310ZM186.071 310.168C185.063 310.168 184.237 309.841 183.593 309.188C182.949 308.525 182.627 307.667 182.627 306.612C182.627 305.623 182.944 304.787 183.579 304.106C184.213 303.415 185.007 303.07 185.959 303.07C186.957 303.07 187.746 303.415 188.325 304.106C188.913 304.787 189.207 305.651 189.207 306.696V306.962H183.733C183.779 307.625 184.022 308.18 184.461 308.628C184.899 309.076 185.469 309.3 186.169 309.3C187.009 309.3 187.704 309.015 188.255 308.446L188.759 309.132C188.068 309.823 187.172 310.168 186.071 310.168ZM188.171 306.192C188.161 305.613 187.965 305.095 187.583 304.638C187.2 304.171 186.654 303.938 185.945 303.938C185.273 303.938 184.741 304.167 184.349 304.624C183.966 305.081 183.761 305.604 183.733 306.192H188.171ZM200.131 310H199.081V305.576C199.081 305.007 198.95 304.605 198.689 304.372C198.427 304.129 198.054 304.008 197.569 304.008C197.177 304.008 196.794 304.111 196.421 304.316C196.057 304.521 195.772 304.769 195.567 305.058V310H194.517V303.238H195.567V304.218C195.828 303.91 196.178 303.644 196.617 303.42C197.055 303.187 197.508 303.07 197.975 303.07C199.412 303.07 200.131 303.798 200.131 305.254V310ZM205.28 310.168C204.272 310.168 203.446 309.841 202.802 309.188C202.158 308.525 201.836 307.667 201.836 306.612C201.836 305.623 202.153 304.787 202.788 304.106C203.422 303.415 204.216 303.07 205.168 303.07C206.166 303.07 206.955 303.415 207.534 304.106C208.122 304.787 208.416 305.651 208.416 306.696V306.962H202.942C202.988 307.625 203.231 308.18 203.67 308.628C204.108 309.076 204.678 309.3 205.378 309.3C206.218 309.3 206.913 309.015 207.464 308.446L207.968 309.132C207.277 309.823 206.381 310.168 205.28 310.168ZM207.38 306.192C207.37 305.613 207.174 305.095 206.792 304.638C206.409 304.171 205.863 303.938 205.154 303.938C204.482 303.938 203.95 304.167 203.558 304.624C203.175 305.081 202.97 305.604 202.942 306.192H207.38ZM213.168 310.168C212.16 310.168 211.334 309.841 210.69 309.188C210.046 308.525 209.724 307.667 209.724 306.612C209.724 305.623 210.042 304.787 210.676 304.106C211.311 303.415 212.104 303.07 213.056 303.07C214.055 303.07 214.844 303.415 215.422 304.106C216.01 304.787 216.304 305.651 216.304 306.696V306.962H210.83C210.877 307.625 211.12 308.18 211.558 308.628C211.997 309.076 212.566 309.3 213.266 309.3C214.106 309.3 214.802 309.015 215.352 308.446L215.856 309.132C215.166 309.823 214.27 310.168 213.168 310.168ZM215.268 306.192C215.259 305.613 215.063 305.095 214.68 304.638C214.298 304.171 213.752 303.938 213.042 303.938C212.37 303.938 211.838 304.167 211.446 304.624C211.064 305.081 210.858 305.604 210.83 306.192H215.268ZM223.955 310H222.905V308.992C222.326 309.776 221.566 310.168 220.623 310.168C219.727 310.168 218.999 309.851 218.439 309.216C217.888 308.572 217.613 307.709 217.613 306.626C217.613 305.553 217.888 304.694 218.439 304.05C218.999 303.397 219.727 303.07 220.623 303.07C221.556 303.07 222.317 303.467 222.905 304.26V300.662H223.955V310ZM220.875 309.23C221.286 309.23 221.678 309.127 222.051 308.922C222.424 308.717 222.709 308.465 222.905 308.166V305.1C222.709 304.792 222.42 304.535 222.037 304.33C221.664 304.115 221.276 304.008 220.875 304.008C220.212 304.008 219.685 304.255 219.293 304.75C218.901 305.235 218.705 305.861 218.705 306.626C218.705 307.391 218.901 308.017 219.293 308.502C219.685 308.987 220.212 309.23 220.875 309.23ZM20.9161 335.646L21.0841 334.694C21.2521 334.769 21.4435 334.806 21.6581 334.806C21.9008 334.806 22.1015 334.755 22.2601 334.652C22.4188 334.549 22.5541 334.363 22.6661 334.092L23.1141 333.07L20.2861 326.238H21.4201L23.6741 331.782L25.9141 326.238H27.0621L23.6741 334.372C23.3008 335.268 22.6381 335.725 21.6861 335.744C21.4061 335.744 21.1495 335.711 20.9161 335.646ZM33.5334 332.146C32.9268 332.827 32.1194 333.168 31.1114 333.168C30.1034 333.168 29.2914 332.827 28.6754 332.146C28.0688 331.465 27.7654 330.62 27.7654 329.612C27.7654 328.604 28.0688 327.764 28.6754 327.092C29.2914 326.411 30.1034 326.07 31.1114 326.07C32.1194 326.07 32.9268 326.411 33.5334 327.092C34.1494 327.764 34.4574 328.604 34.4574 329.612C34.4574 330.62 34.1494 331.465 33.5334 332.146ZM29.4594 331.474C29.8701 331.978 30.4208 332.23 31.1114 332.23C31.8021 332.23 32.3481 331.978 32.7494 331.474C33.1508 330.961 33.3514 330.34 33.3514 329.612C33.3514 328.884 33.1508 328.268 32.7494 327.764C32.3481 327.26 31.8021 327.008 31.1114 327.008C30.4208 327.008 29.8701 327.265 29.4594 327.778C29.0581 328.282 28.8574 328.893 28.8574 329.612C28.8574 330.34 29.0581 330.961 29.4594 331.474ZM41.7831 333H40.7331V332.048C40.4531 332.365 40.0985 332.631 39.6691 332.846C39.2491 333.061 38.8011 333.168 38.3251 333.168C36.8878 333.168 36.1691 332.449 36.1691 331.012V326.238H37.2191V330.69C37.2191 331.25 37.3451 331.647 37.5971 331.88C37.8585 332.113 38.2365 332.23 38.7311 332.23C39.1231 332.23 39.5011 332.132 39.8651 331.936C40.2385 331.74 40.5278 331.497 40.7331 331.208V326.238H41.7831V333ZM49.1975 333.168C48.7028 333.168 48.3295 333.033 48.0775 332.762C47.8255 332.491 47.6995 332.099 47.6995 331.586V327.162H46.5795V326.238H47.6995V324.39H48.7495V326.238H50.1215V327.162H48.7495V331.362C48.7495 331.623 48.8055 331.833 48.9175 331.992C49.0388 332.151 49.2115 332.23 49.4355 332.23C49.7435 332.23 49.9815 332.137 50.1495 331.95L50.4575 332.734C50.1495 333.023 49.7295 333.168 49.1975 333.168ZM56.9807 332.146C56.374 332.827 55.5667 333.168 54.5587 333.168C53.5507 333.168 52.7387 332.827 52.1227 332.146C51.516 331.465 51.2127 330.62 51.2127 329.612C51.2127 328.604 51.516 327.764 52.1227 327.092C52.7387 326.411 53.5507 326.07 54.5587 326.07C55.5667 326.07 56.374 326.411 56.9807 327.092C57.5967 327.764 57.9047 328.604 57.9047 329.612C57.9047 330.62 57.5967 331.465 56.9807 332.146ZM52.9067 331.474C53.3174 331.978 53.868 332.23 54.5587 332.23C55.2494 332.23 55.7954 331.978 56.1967 331.474C56.598 330.961 56.7987 330.34 56.7987 329.612C56.7987 328.884 56.598 328.268 56.1967 327.764C55.7954 327.26 55.2494 327.008 54.5587 327.008C53.868 327.008 53.3174 327.265 52.9067 327.778C52.5054 328.282 52.3047 328.893 52.3047 329.612C52.3047 330.34 52.5054 330.961 52.9067 331.474ZM66.1798 333H65.0318L62.2178 326.238H63.3518L65.6058 331.782L67.8458 326.238H68.9938L66.1798 333ZM73.1411 333.168C72.1331 333.168 71.3071 332.841 70.6631 332.188C70.0191 331.525 69.6971 330.667 69.6971 329.612C69.6971 328.623 70.0144 327.787 70.6491 327.106C71.2837 326.415 72.0771 326.07 73.0291 326.07C74.0277 326.07 74.8164 326.415 75.3951 327.106C75.9831 327.787 76.2771 328.651 76.2771 329.696V329.962H70.8031C70.8497 330.625 71.0924 331.18 71.5311 331.628C71.9697 332.076 72.5391 332.3 73.2391 332.3C74.0791 332.3 74.7744 332.015 75.3251 331.446L75.8291 332.132C75.1384 332.823 74.2424 333.168 73.1411 333.168ZM75.2411 329.192C75.2317 328.613 75.0357 328.095 74.6531 327.638C74.2704 327.171 73.7244 326.938 73.0151 326.938C72.3431 326.938 71.8111 327.167 71.4191 327.624C71.0364 328.081 70.8311 328.604 70.8031 329.192H75.2411ZM79.0277 333H77.9777V326.238H79.0277V327.33C79.6531 326.509 80.4044 326.098 81.2817 326.098V327.176C81.1511 327.148 81.0111 327.134 80.8617 327.134C80.5444 327.134 80.1991 327.246 79.8257 327.47C79.4524 327.694 79.1864 327.941 79.0277 328.212V333ZM83.1168 325.272C82.9302 325.272 82.7668 325.207 82.6268 325.076C82.4868 324.936 82.4168 324.768 82.4168 324.572C82.4168 324.376 82.4868 324.208 82.6268 324.068C82.7668 323.928 82.9302 323.858 83.1168 323.858C83.3128 323.858 83.4808 323.928 83.6208 324.068C83.7608 324.208 83.8308 324.376 83.8308 324.572C83.8308 324.768 83.7608 324.936 83.6208 325.076C83.4808 325.207 83.3128 325.272 83.1168 325.272ZM83.6488 333H82.5988V326.238H83.6488V333ZM87.0874 333H86.0374V327.162H84.9174V326.238H86.0374V325.72C86.0374 325.029 86.21 324.493 86.5554 324.11C86.91 323.718 87.3907 323.522 87.9974 323.522C88.576 323.522 89.052 323.695 89.4254 324.04L88.9914 324.726C88.7394 324.502 88.4594 324.39 88.1514 324.39C87.806 324.39 87.54 324.507 87.3534 324.74C87.176 324.964 87.0874 325.291 87.0874 325.72V326.238H88.4594V327.162H87.0874V333ZM89.3302 335.646L89.4982 334.694C89.6662 334.769 89.8575 334.806 90.0722 334.806C90.3149 334.806 90.5155 334.755 90.6742 334.652C90.8329 334.549 90.9682 334.363 91.0802 334.092L91.5282 333.07L88.7002 326.238H89.8342L92.0882 331.782L94.3282 326.238H95.4762L92.0882 334.372C91.7149 335.268 91.0522 335.725 90.1002 335.744C89.8202 335.744 89.5635 335.711 89.3302 335.646ZM99.8029 335.646L99.9709 334.694C100.139 334.769 100.33 334.806 100.545 334.806C100.788 334.806 100.988 334.755 101.147 334.652C101.306 334.549 101.441 334.363 101.553 334.092L102.001 333.07L99.1729 326.238H100.307L102.561 331.782L104.801 326.238H105.949L102.561 334.372C102.188 335.268 101.525 335.725 100.573 335.744C100.293 335.744 100.036 335.711 99.8029 335.646ZM112.42 332.146C111.813 332.827 111.006 333.168 109.998 333.168C108.99 333.168 108.178 332.827 107.562 332.146C106.955 331.465 106.652 330.62 106.652 329.612C106.652 328.604 106.955 327.764 107.562 327.092C108.178 326.411 108.99 326.07 109.998 326.07C111.006 326.07 111.813 326.411 112.42 327.092C113.036 327.764 113.344 328.604 113.344 329.612C113.344 330.62 113.036 331.465 112.42 332.146ZM108.346 331.474C108.757 331.978 109.307 332.23 109.998 332.23C110.689 332.23 111.235 331.978 111.636 331.474C112.037 330.961 112.238 330.34 112.238 329.612C112.238 328.884 112.037 328.268 111.636 327.764C111.235 327.26 110.689 327.008 109.998 327.008C109.307 327.008 108.757 327.265 108.346 327.778C107.945 328.282 107.744 328.893 107.744 329.612C107.744 330.34 107.945 330.961 108.346 331.474ZM120.67 333H119.62V332.048C119.34 332.365 118.985 332.631 118.556 332.846C118.136 333.061 117.688 333.168 117.212 333.168C115.775 333.168 115.056 332.449 115.056 331.012V326.238H116.106V330.69C116.106 331.25 116.232 331.647 116.484 331.88C116.745 332.113 117.123 332.23 117.618 332.23C118.01 332.23 118.388 332.132 118.752 331.936C119.125 331.74 119.415 331.497 119.62 331.208V326.238H120.67V333ZM123.817 333H122.767V326.238H123.817V327.33C124.442 326.509 125.193 326.098 126.071 326.098V327.176C125.94 327.148 125.8 327.134 125.651 327.134C125.333 327.134 124.988 327.246 124.615 327.47C124.241 327.694 123.975 327.941 123.817 328.212V333ZM131.515 325.272C131.329 325.272 131.165 325.207 131.025 325.076C130.885 324.936 130.815 324.768 130.815 324.572C130.815 324.376 130.885 324.208 131.025 324.068C131.165 323.928 131.329 323.858 131.515 323.858C131.711 323.858 131.879 323.928 132.019 324.068C132.159 324.208 132.229 324.376 132.229 324.572C132.229 324.768 132.159 324.936 132.019 325.076C131.879 325.207 131.711 325.272 131.515 325.272ZM132.047 333H130.997V326.238H132.047V333ZM140.092 333H139.042V331.992C138.463 332.776 137.702 333.168 136.76 333.168C135.864 333.168 135.136 332.851 134.576 332.216C134.025 331.572 133.75 330.709 133.75 329.626C133.75 328.553 134.025 327.694 134.576 327.05C135.136 326.397 135.864 326.07 136.76 326.07C137.693 326.07 138.454 326.467 139.042 327.26V323.662H140.092V333ZM137.012 332.23C137.422 332.23 137.814 332.127 138.188 331.922C138.561 331.717 138.846 331.465 139.042 331.166V328.1C138.846 327.792 138.556 327.535 138.174 327.33C137.8 327.115 137.413 327.008 137.012 327.008C136.349 327.008 135.822 327.255 135.43 327.75C135.038 328.235 134.842 328.861 134.842 329.626C134.842 330.391 135.038 331.017 135.43 331.502C135.822 331.987 136.349 332.23 137.012 332.23ZM145.247 333.168C144.239 333.168 143.413 332.841 142.769 332.188C142.125 331.525 141.803 330.667 141.803 329.612C141.803 328.623 142.12 327.787 142.755 327.106C143.389 326.415 144.183 326.07 145.135 326.07C146.133 326.07 146.922 326.415 147.501 327.106C148.089 327.787 148.383 328.651 148.383 329.696V329.962H142.909C142.955 330.625 143.198 331.18 143.637 331.628C144.075 332.076 144.645 332.3 145.345 332.3C146.185 332.3 146.88 332.015 147.431 331.446L147.935 332.132C147.244 332.823 146.348 333.168 145.247 333.168ZM147.347 329.192C147.337 328.613 147.141 328.095 146.759 327.638C146.376 327.171 145.83 326.938 145.121 326.938C144.449 326.938 143.917 327.167 143.525 327.624C143.142 328.081 142.937 328.604 142.909 329.192H147.347ZM155.697 333H154.647V328.576C154.647 328.007 154.517 327.605 154.255 327.372C153.994 327.129 153.621 327.008 153.135 327.008C152.743 327.008 152.361 327.111 151.987 327.316C151.623 327.521 151.339 327.769 151.133 328.058V333H150.083V326.238H151.133V327.218C151.395 326.91 151.745 326.644 152.183 326.42C152.622 326.187 153.075 326.07 153.541 326.07C154.979 326.07 155.697 326.798 155.697 328.254V333ZM159.502 333.168C159.007 333.168 158.634 333.033 158.382 332.762C158.13 332.491 158.004 332.099 158.004 331.586V327.162H156.884V326.238H158.004V324.39H159.054V326.238H160.426V327.162H159.054V331.362C159.054 331.623 159.11 331.833 159.222 331.992C159.343 332.151 159.516 332.23 159.74 332.23C160.048 332.23 160.286 332.137 160.454 331.95L160.762 332.734C160.454 333.023 160.034 333.168 159.502 333.168ZM162.427 325.272C162.241 325.272 162.077 325.207 161.937 325.076C161.797 324.936 161.727 324.768 161.727 324.572C161.727 324.376 161.797 324.208 161.937 324.068C162.077 323.928 162.241 323.858 162.427 323.858C162.623 323.858 162.791 323.928 162.931 324.068C163.071 324.208 163.141 324.376 163.141 324.572C163.141 324.768 163.071 324.936 162.931 325.076C162.791 325.207 162.623 325.272 162.427 325.272ZM162.959 333H161.909V326.238H162.959V333ZM166.762 333.168C166.267 333.168 165.894 333.033 165.642 332.762C165.39 332.491 165.264 332.099 165.264 331.586V327.162H164.144V326.238H165.264V324.39H166.314V326.238H167.686V327.162H166.314V331.362C166.314 331.623 166.37 331.833 166.482 331.992C166.603 332.151 166.776 332.23 167 332.23C167.308 332.23 167.546 332.137 167.714 331.95L168.022 332.734C167.714 333.023 167.294 333.168 166.762 333.168ZM168.791 335.646L168.959 334.694C169.127 334.769 169.318 334.806 169.533 334.806C169.776 334.806 169.976 334.755 170.135 334.652C170.294 334.549 170.429 334.363 170.541 334.092L170.989 333.07L168.161 326.238H169.295L171.549 331.782L173.789 326.238H174.937L171.549 334.372C171.176 335.268 170.513 335.725 169.561 335.744C169.281 335.744 169.024 335.711 168.791 335.646ZM176.345 332.916C176.196 333.065 176.014 333.14 175.799 333.14C175.585 333.14 175.403 333.065 175.253 332.916C175.104 332.767 175.029 332.585 175.029 332.37C175.029 332.155 175.104 331.973 175.253 331.824C175.403 331.675 175.585 331.6 175.799 331.6C176.014 331.6 176.196 331.675 176.345 331.824C176.495 331.973 176.569 332.155 176.569 332.37C176.569 332.585 176.495 332.767 176.345 332.916ZM185.141 333.168C183.629 333.168 182.435 332.673 181.557 331.684L182.243 330.802C183.037 331.689 184.017 332.132 185.183 332.132C185.939 332.132 186.495 331.973 186.849 331.656C187.204 331.329 187.381 330.951 187.381 330.522C187.381 330.195 187.279 329.92 187.073 329.696C186.868 329.472 186.602 329.299 186.275 329.178C185.958 329.047 185.599 328.931 185.197 328.828C184.805 328.725 184.413 328.613 184.021 328.492C183.629 328.361 183.27 328.207 182.943 328.03C182.626 327.853 182.365 327.601 182.159 327.274C181.954 326.947 181.851 326.56 181.851 326.112C181.851 325.347 182.155 324.726 182.761 324.25C183.368 323.765 184.133 323.522 185.057 323.522C186.448 323.522 187.554 323.956 188.375 324.824L187.675 325.678C186.994 324.931 186.093 324.558 184.973 324.558C184.413 324.558 183.951 324.698 183.587 324.978C183.233 325.249 183.055 325.603 183.055 326.042C183.055 326.369 183.191 326.639 183.461 326.854C183.741 327.069 184.082 327.227 184.483 327.33C184.894 327.433 185.337 327.563 185.813 327.722C186.299 327.871 186.742 328.035 187.143 328.212C187.554 328.38 187.895 328.655 188.165 329.038C188.445 329.421 188.585 329.883 188.585 330.424C188.585 331.189 188.301 331.838 187.731 332.37C187.171 332.902 186.308 333.168 185.141 333.168ZM191.754 333.168C191.259 333.168 190.886 333.033 190.634 332.762C190.382 332.491 190.256 332.099 190.256 331.586V327.162H189.136V326.238H190.256V324.39H191.306V326.238H192.678V327.162H191.306V331.362C191.306 331.623 191.362 331.833 191.474 331.992C191.595 332.151 191.768 332.23 191.992 332.23C192.3 332.23 192.538 332.137 192.706 331.95L193.014 332.734C192.706 333.023 192.286 333.168 191.754 333.168ZM199.439 333H198.389V332.23C197.82 332.855 197.073 333.168 196.149 333.168C195.524 333.168 194.973 332.967 194.497 332.566C194.021 332.165 193.783 331.619 193.783 330.928C193.783 330.219 194.017 329.673 194.483 329.29C194.959 328.898 195.515 328.702 196.149 328.702C197.111 328.702 197.857 329.01 198.389 329.626V328.408C198.389 327.96 198.231 327.61 197.913 327.358C197.596 327.106 197.185 326.98 196.681 326.98C195.888 326.98 195.197 327.293 194.609 327.918L194.119 327.19C194.838 326.443 195.739 326.07 196.821 326.07C197.596 326.07 198.226 326.257 198.711 326.63C199.197 327.003 199.439 327.577 199.439 328.352V333ZM196.527 332.412C197.367 332.412 197.988 332.132 198.389 331.572V330.298C197.988 329.738 197.367 329.458 196.527 329.458C196.042 329.458 195.641 329.598 195.323 329.878C195.015 330.149 194.861 330.503 194.861 330.942C194.861 331.371 195.015 331.726 195.323 332.006C195.641 332.277 196.042 332.412 196.527 332.412ZM202.594 333H201.544V326.238H202.594V327.33C203.219 326.509 203.971 326.098 204.848 326.098V327.176C204.717 327.148 204.577 327.134 204.428 327.134C204.111 327.134 203.765 327.246 203.392 327.47C203.019 327.694 202.753 327.941 202.594 328.212V333ZM207.873 333.168C207.379 333.168 207.005 333.033 206.753 332.762C206.501 332.491 206.375 332.099 206.375 331.586V327.162H205.255V326.238H206.375V324.39H207.425V326.238H208.797V327.162H207.425V331.362C207.425 331.623 207.481 331.833 207.593 331.992C207.715 332.151 207.887 332.23 208.111 332.23C208.419 332.23 208.657 332.137 208.825 331.95L209.133 332.734C208.825 333.023 208.405 333.168 207.873 333.168ZM214.94 331.166C215.127 331.465 215.407 331.717 215.78 331.922C216.163 332.127 216.555 332.23 216.956 332.23C217.628 332.23 218.16 331.987 218.552 331.502C218.944 331.017 219.14 330.391 219.14 329.626C219.14 328.861 218.944 328.235 218.552 327.75C218.16 327.255 217.628 327.008 216.956 327.008C216.555 327.008 216.163 327.115 215.78 327.33C215.407 327.535 215.127 327.792 214.94 328.1V331.166ZM214.94 333H213.89V323.662H214.94V327.26C215.528 326.467 216.289 326.07 217.222 326.07C218.109 326.07 218.832 326.397 219.392 327.05C219.952 327.694 220.232 328.553 220.232 329.626C220.232 330.709 219.952 331.572 219.392 332.216C218.841 332.851 218.118 333.168 217.222 333.168C216.279 333.168 215.519 332.776 214.94 331.992V333ZM221.565 335.646L221.733 334.694C221.901 334.769 222.092 334.806 222.307 334.806C222.549 334.806 222.75 334.755 222.909 334.652C223.067 334.549 223.203 334.363 223.315 334.092L223.763 333.07L220.935 326.238H222.069L224.323 331.782L226.563 326.238H227.711L224.323 334.372C223.949 335.268 223.287 335.725 222.335 335.744C222.055 335.744 221.798 335.711 221.565 335.646ZM34.1609 356.168C33.1622 356.168 32.3502 355.832 31.7249 355.16C31.0996 354.479 30.7869 353.629 30.7869 352.612C30.7869 351.595 31.0996 350.75 31.7249 350.078C32.3502 349.406 33.1622 349.07 34.1609 349.07C35.2062 349.07 36.0322 349.462 36.6389 350.246L35.9389 350.89C35.5096 350.302 34.9356 350.008 34.2169 350.008C33.5076 350.008 32.9382 350.251 32.5089 350.736C32.0889 351.221 31.8789 351.847 31.8789 352.612C31.8789 353.377 32.0889 354.007 32.5089 354.502C32.9382 354.987 33.5076 355.23 34.2169 355.23C34.9262 355.23 35.5002 354.936 35.9389 354.348L36.6389 354.992C36.0322 355.776 35.2062 356.168 34.1609 356.168ZM43.4865 355.146C42.8799 355.827 42.0725 356.168 41.0645 356.168C40.0565 356.168 39.2445 355.827 38.6285 355.146C38.0219 354.465 37.7185 353.62 37.7185 352.612C37.7185 351.604 38.0219 350.764 38.6285 350.092C39.2445 349.411 40.0565 349.07 41.0645 349.07C42.0725 349.07 42.8799 349.411 43.4865 350.092C44.1025 350.764 44.4105 351.604 44.4105 352.612C44.4105 353.62 44.1025 354.465 43.4865 355.146ZM39.4125 354.474C39.8232 354.978 40.3739 355.23 41.0645 355.23C41.7552 355.23 42.3012 354.978 42.7025 354.474C43.1039 353.961 43.3045 353.34 43.3045 352.612C43.3045 351.884 43.1039 351.268 42.7025 350.764C42.3012 350.26 41.7552 350.008 41.0645 350.008C40.3739 350.008 39.8232 350.265 39.4125 350.778C39.0112 351.282 38.8105 351.893 38.8105 352.612C38.8105 353.34 39.0112 353.961 39.4125 354.474ZM51.7363 356H50.6863V351.576C50.6863 351.007 50.5556 350.605 50.2943 350.372C50.0329 350.129 49.6596 350.008 49.1743 350.008C48.7823 350.008 48.3996 350.111 48.0263 350.316C47.6623 350.521 47.3776 350.769 47.1723 351.058V356H46.1223V349.238H47.1723V350.218C47.4336 349.91 47.7836 349.644 48.2223 349.42C48.6609 349.187 49.1136 349.07 49.5803 349.07C51.0176 349.07 51.7363 349.798 51.7363 351.254V356ZM55.1772 356H54.1272V350.162H53.0072V349.238H54.1272V348.72C54.1272 348.029 54.3045 347.493 54.6592 347.11C55.0139 346.718 55.4899 346.522 56.0872 346.522C56.5165 346.522 56.8572 346.601 57.1092 346.76L56.8432 347.558C56.6659 347.446 56.4652 347.39 56.2412 347.39C55.8959 347.39 55.6299 347.507 55.4432 347.74C55.2659 347.964 55.1772 348.291 55.1772 348.72V349.238H56.5492V350.162H55.1772V356ZM58.3132 348.272C58.1265 348.272 57.9632 348.207 57.8232 348.076C57.6832 347.936 57.6132 347.768 57.6132 347.572C57.6132 347.376 57.6832 347.208 57.8232 347.068C57.9632 346.928 58.1265 346.858 58.3132 346.858C58.5092 346.858 58.6772 346.928 58.8172 347.068C58.9572 347.208 59.0272 347.376 59.0272 347.572C59.0272 347.768 58.9572 347.936 58.8172 348.076C58.6772 348.207 58.5092 348.272 58.3132 348.272ZM58.8452 356H57.7952V349.238H58.8452V356ZM62.0063 356H60.9563V349.238H62.0063V350.33C62.6316 349.509 63.3829 349.098 64.2603 349.098V350.176C64.1296 350.148 63.9896 350.134 63.8403 350.134C63.5229 350.134 63.1776 350.246 62.8043 350.47C62.4309 350.694 62.1649 350.941 62.0063 351.212V356ZM74.7893 356H73.7393V351.408C73.7393 350.475 73.324 350.008 72.4933 350.008C72.1573 350.008 71.8213 350.111 71.4853 350.316C71.1493 350.521 70.888 350.764 70.7013 351.044V356H69.6513V351.408C69.6513 350.475 69.236 350.008 68.4053 350.008C68.0787 350.008 67.7473 350.111 67.4113 350.316C67.0847 350.521 66.8233 350.769 66.6273 351.058V356H65.5773V349.238H66.6273V350.218C66.7953 349.957 67.0893 349.7 67.5093 349.448C67.9293 349.196 68.3633 349.07 68.8113 349.07C69.306 349.07 69.7073 349.187 70.0153 349.42C70.3233 349.653 70.5287 349.957 70.6313 350.33C70.8367 349.994 71.1493 349.7 71.5693 349.448C71.9893 349.196 72.4327 349.07 72.8993 349.07C74.1593 349.07 74.7893 349.751 74.7893 351.114V356ZM77.402 348.272C77.2153 348.272 77.052 348.207 76.912 348.076C76.772 347.936 76.702 347.768 76.702 347.572C76.702 347.376 76.772 347.208 76.912 347.068C77.052 346.928 77.2153 346.858 77.402 346.858C77.598 346.858 77.766 346.928 77.906 347.068C78.046 347.208 78.116 347.376 78.116 347.572C78.116 347.768 78.046 347.936 77.906 348.076C77.766 348.207 77.598 348.272 77.402 348.272ZM77.934 356H76.884V349.238H77.934V356ZM85.6425 356H84.5925V351.576C84.5925 351.007 84.4618 350.605 84.2005 350.372C83.9392 350.129 83.5658 350.008 83.0805 350.008C82.6885 350.008 82.3058 350.111 81.9325 350.316C81.5685 350.521 81.2838 350.769 81.0785 351.058V356H80.0285V349.238H81.0785V350.218C81.3398 349.91 81.6898 349.644 82.1285 349.42C82.5672 349.187 83.0198 349.07 83.4865 349.07C84.9238 349.07 85.6425 349.798 85.6425 351.254V356ZM90.4555 358.744C89.8581 358.744 89.3495 358.669 88.9295 358.52C88.5095 358.38 88.1081 358.119 87.7255 357.736L88.2575 356.952C88.7708 357.568 89.5035 357.876 90.4555 357.876C91.0808 357.876 91.5988 357.708 92.0095 357.372C92.4201 357.045 92.6255 356.537 92.6255 355.846V354.88C92.3735 355.235 92.0468 355.524 91.6455 355.748C91.2441 355.972 90.8148 356.084 90.3575 356.084C89.4615 356.084 88.7335 355.771 88.1735 355.146C87.6228 354.511 87.3475 353.657 87.3475 352.584C87.3475 351.511 87.6228 350.657 88.1735 350.022C88.7335 349.387 89.4615 349.07 90.3575 349.07C91.2815 349.07 92.0375 349.467 92.6255 350.26V349.238H93.6755V355.804C93.6755 356.84 93.3721 357.587 92.7655 358.044C92.1588 358.511 91.3888 358.744 90.4555 358.744ZM90.6095 355.16C91.0108 355.16 91.3981 355.053 91.7715 354.838C92.1541 354.623 92.4388 354.362 92.6255 354.054V351.1C92.4388 350.792 92.1588 350.535 91.7855 350.33C91.4121 350.115 91.0201 350.008 90.6095 350.008C89.9375 350.008 89.4055 350.246 89.0135 350.722C88.6308 351.198 88.4395 351.819 88.4395 352.584C88.4395 353.34 88.6355 353.961 89.0275 354.446C89.4195 354.922 89.9468 355.16 90.6095 355.16ZM99.0099 358.646L99.1779 357.694C99.3459 357.769 99.5372 357.806 99.7519 357.806C99.9946 357.806 100.195 357.755 100.354 357.652C100.513 357.549 100.648 357.363 100.76 357.092L101.208 356.07L98.3799 349.238H99.5139L101.768 354.782L104.008 349.238H105.156L101.768 357.372C101.395 358.268 100.732 358.725 99.7799 358.744C99.4999 358.744 99.2432 358.711 99.0099 358.646ZM111.627 355.146C111.021 355.827 110.213 356.168 109.205 356.168C108.197 356.168 107.385 355.827 106.769 355.146C106.163 354.465 105.859 353.62 105.859 352.612C105.859 351.604 106.163 350.764 106.769 350.092C107.385 349.411 108.197 349.07 109.205 349.07C110.213 349.07 111.021 349.411 111.627 350.092C112.243 350.764 112.551 351.604 112.551 352.612C112.551 353.62 112.243 354.465 111.627 355.146ZM107.553 354.474C107.964 354.978 108.515 355.23 109.205 355.23C109.896 355.23 110.442 354.978 110.843 354.474C111.245 353.961 111.445 353.34 111.445 352.612C111.445 351.884 111.245 351.268 110.843 350.764C110.442 350.26 109.896 350.008 109.205 350.008C108.515 350.008 107.964 350.265 107.553 350.778C107.152 351.282 106.951 351.893 106.951 352.612C106.951 353.34 107.152 353.961 107.553 354.474ZM119.877 356H118.827V355.048C118.547 355.365 118.192 355.631 117.763 355.846C117.343 356.061 116.895 356.168 116.419 356.168C114.982 356.168 114.263 355.449 114.263 354.012V349.238H115.313V353.69C115.313 354.25 115.439 354.647 115.691 354.88C115.952 355.113 116.33 355.23 116.825 355.23C117.217 355.23 117.595 355.132 117.959 354.936C118.332 354.74 118.622 354.497 118.827 354.208V349.238H119.877V356ZM123.024 356H121.974V349.238H123.024V350.33C123.649 349.509 124.4 349.098 125.278 349.098V350.176C125.147 350.148 125.007 350.134 124.858 350.134C124.54 350.134 124.195 350.246 123.822 350.47C123.448 350.694 123.182 350.941 123.024 351.212V356ZM133.256 356.168C132.248 356.168 131.422 355.841 130.778 355.188C130.134 354.525 129.812 353.667 129.812 352.612C129.812 351.623 130.13 350.787 130.764 350.106C131.399 349.415 132.192 349.07 133.144 349.07C134.143 349.07 134.932 349.415 135.51 350.106C136.098 350.787 136.392 351.651 136.392 352.696V352.962H130.918C130.965 353.625 131.208 354.18 131.646 354.628C132.085 355.076 132.654 355.3 133.354 355.3C134.194 355.3 134.89 355.015 135.44 354.446L135.944 355.132C135.254 355.823 134.358 356.168 133.256 356.168ZM135.356 352.192C135.347 351.613 135.151 351.095 134.768 350.638C134.386 350.171 133.84 349.938 133.13 349.938C132.458 349.938 131.926 350.167 131.534 350.624C131.152 351.081 130.946 351.604 130.918 352.192H135.356ZM147.305 356H146.255V351.408C146.255 350.475 145.84 350.008 145.009 350.008C144.673 350.008 144.337 350.111 144.001 350.316C143.665 350.521 143.404 350.764 143.217 351.044V356H142.167V351.408C142.167 350.475 141.752 350.008 140.921 350.008C140.594 350.008 140.263 350.111 139.927 350.316C139.6 350.521 139.339 350.769 139.143 351.058V356H138.093V349.238H139.143V350.218C139.311 349.957 139.605 349.7 140.025 349.448C140.445 349.196 140.879 349.07 141.327 349.07C141.822 349.07 142.223 349.187 142.531 349.42C142.839 349.653 143.044 349.957 143.147 350.33C143.352 349.994 143.665 349.7 144.085 349.448C144.505 349.196 144.948 349.07 145.415 349.07C146.675 349.07 147.305 349.751 147.305 351.114V356ZM154.678 356H153.628V355.23C153.058 355.855 152.312 356.168 151.388 356.168C150.762 356.168 150.212 355.967 149.736 355.566C149.26 355.165 149.022 354.619 149.022 353.928C149.022 353.219 149.255 352.673 149.722 352.29C150.198 351.898 150.753 351.702 151.388 351.702C152.349 351.702 153.096 352.01 153.628 352.626V351.408C153.628 350.96 153.469 350.61 153.152 350.358C152.834 350.106 152.424 349.98 151.92 349.98C151.126 349.98 150.436 350.293 149.848 350.918L149.358 350.19C150.076 349.443 150.977 349.07 152.06 349.07C152.834 349.07 153.464 349.257 153.95 349.63C154.435 350.003 154.678 350.577 154.678 351.352V356ZM151.766 355.412C152.606 355.412 153.226 355.132 153.628 354.572V353.298C153.226 352.738 152.606 352.458 151.766 352.458C151.28 352.458 150.879 352.598 150.562 352.878C150.254 353.149 150.1 353.503 150.1 353.942C150.1 354.371 150.254 354.726 150.562 355.006C150.879 355.277 151.28 355.412 151.766 355.412ZM157.3 348.272C157.114 348.272 156.95 348.207 156.81 348.076C156.67 347.936 156.6 347.768 156.6 347.572C156.6 347.376 156.67 347.208 156.81 347.068C156.95 346.928 157.114 346.858 157.3 346.858C157.496 346.858 157.664 346.928 157.804 347.068C157.944 347.208 158.014 347.376 158.014 347.572C158.014 347.768 157.944 347.936 157.804 348.076C157.664 348.207 157.496 348.272 157.3 348.272ZM157.832 356H156.782V349.238H157.832V356ZM160.977 356H159.927V346.662H160.977V356ZM171.959 356H170.909V355.23C170.34 355.855 169.593 356.168 168.669 356.168C168.044 356.168 167.493 355.967 167.017 355.566C166.541 355.165 166.303 354.619 166.303 353.928C166.303 353.219 166.536 352.673 167.003 352.29C167.479 351.898 168.034 351.702 168.669 351.702C169.63 351.702 170.377 352.01 170.909 352.626V351.408C170.909 350.96 170.75 350.61 170.433 350.358C170.116 350.106 169.705 349.98 169.201 349.98C168.408 349.98 167.717 350.293 167.129 350.918L166.639 350.19C167.358 349.443 168.258 349.07 169.341 349.07C170.116 349.07 170.746 349.257 171.231 349.63C171.716 350.003 171.959 350.577 171.959 351.352V356ZM169.047 355.412C169.887 355.412 170.508 355.132 170.909 354.572V353.298C170.508 352.738 169.887 352.458 169.047 352.458C168.562 352.458 168.16 352.598 167.843 352.878C167.535 353.149 167.381 353.503 167.381 353.942C167.381 354.371 167.535 354.726 167.843 355.006C168.16 355.277 168.562 355.412 169.047 355.412ZM180.014 356H178.964V354.992C178.385 355.776 177.624 356.168 176.682 356.168C175.786 356.168 175.058 355.851 174.498 355.216C173.947 354.572 173.672 353.709 173.672 352.626C173.672 351.553 173.947 350.694 174.498 350.05C175.058 349.397 175.786 349.07 176.682 349.07C177.615 349.07 178.376 349.467 178.964 350.26V346.662H180.014V356ZM176.934 355.23C177.344 355.23 177.736 355.127 178.11 354.922C178.483 354.717 178.768 354.465 178.964 354.166V351.1C178.768 350.792 178.478 350.535 178.096 350.33C177.722 350.115 177.335 350.008 176.934 350.008C176.271 350.008 175.744 350.255 175.352 350.75C174.96 351.235 174.764 351.861 174.764 352.626C174.764 353.391 174.96 354.017 175.352 354.502C175.744 354.987 176.271 355.23 176.934 355.23ZM188.066 356H187.016V354.992C186.438 355.776 185.677 356.168 184.734 356.168C183.838 356.168 183.11 355.851 182.55 355.216C182 354.572 181.724 353.709 181.724 352.626C181.724 351.553 182 350.694 182.55 350.05C183.11 349.397 183.838 349.07 184.734 349.07C185.668 349.07 186.428 349.467 187.016 350.26V346.662H188.066V356ZM184.986 355.23C185.397 355.23 185.789 355.127 186.162 354.922C186.536 354.717 186.82 354.465 187.016 354.166V351.1C186.82 350.792 186.531 350.535 186.148 350.33C185.775 350.115 185.388 350.008 184.986 350.008C184.324 350.008 183.796 350.255 183.404 350.75C183.012 351.235 182.816 351.861 182.816 352.626C182.816 353.391 183.012 354.017 183.404 354.502C183.796 354.987 184.324 355.23 184.986 355.23ZM191.219 356H190.169V349.238H191.219V350.33C191.844 349.509 192.596 349.098 193.473 349.098V350.176C193.342 350.148 193.202 350.134 193.053 350.134C192.736 350.134 192.39 350.246 192.017 350.47C191.644 350.694 191.378 350.941 191.219 351.212V356ZM197.842 356.168C196.834 356.168 196.008 355.841 195.364 355.188C194.72 354.525 194.398 353.667 194.398 352.612C194.398 351.623 194.716 350.787 195.35 350.106C195.985 349.415 196.778 349.07 197.73 349.07C198.729 349.07 199.518 349.415 200.096 350.106C200.684 350.787 200.978 351.651 200.978 352.696V352.962H195.504C195.551 353.625 195.794 354.18 196.232 354.628C196.671 355.076 197.24 355.3 197.94 355.3C198.78 355.3 199.476 355.015 200.026 354.446L200.53 355.132C199.84 355.823 198.944 356.168 197.842 356.168ZM199.942 352.192C199.933 351.613 199.737 351.095 199.354 350.638C198.972 350.171 198.426 349.938 197.716 349.938C197.044 349.938 196.512 350.167 196.12 350.624C195.738 351.081 195.532 351.604 195.504 352.192H199.942ZM204.821 356.168C203.673 356.168 202.763 355.813 202.091 355.104L202.637 354.348C202.87 354.619 203.188 354.847 203.589 355.034C204 355.221 204.424 355.314 204.863 355.314C205.367 355.314 205.759 355.207 206.039 354.992C206.319 354.777 206.459 354.497 206.459 354.152C206.459 353.853 206.314 353.62 206.025 353.452C205.736 353.275 205.386 353.144 204.975 353.06C204.574 352.967 204.168 352.864 203.757 352.752C203.346 352.631 202.996 352.43 202.707 352.15C202.418 351.861 202.273 351.483 202.273 351.016C202.273 350.465 202.497 350.003 202.945 349.63C203.402 349.257 204.018 349.07 204.793 349.07C205.81 349.07 206.646 349.397 207.299 350.05L206.809 350.778C206.333 350.209 205.661 349.924 204.793 349.924C204.336 349.924 203.972 350.027 203.701 350.232C203.43 350.428 203.295 350.68 203.295 350.988C203.295 351.259 203.44 351.473 203.729 351.632C204.018 351.781 204.364 351.903 204.765 351.996C205.176 352.08 205.586 352.183 205.997 352.304C206.408 352.425 206.758 352.64 207.047 352.948C207.336 353.247 207.481 353.639 207.481 354.124C207.481 354.721 207.248 355.211 206.781 355.594C206.314 355.977 205.661 356.168 204.821 356.168ZM211.329 356.168C210.181 356.168 209.271 355.813 208.599 355.104L209.145 354.348C209.378 354.619 209.695 354.847 210.097 355.034C210.507 355.221 210.932 355.314 211.371 355.314C211.875 355.314 212.267 355.207 212.547 354.992C212.827 354.777 212.967 354.497 212.967 354.152C212.967 353.853 212.822 353.62 212.533 353.452C212.243 353.275 211.893 353.144 211.483 353.06C211.081 352.967 210.675 352.864 210.265 352.752C209.854 352.631 209.504 352.43 209.215 352.15C208.925 351.861 208.781 351.483 208.781 351.016C208.781 350.465 209.005 350.003 209.453 349.63C209.91 349.257 210.526 349.07 211.301 349.07C212.318 349.07 213.153 349.397 213.807 350.05L213.317 350.778C212.841 350.209 212.169 349.924 211.301 349.924C210.843 349.924 210.479 350.027 210.209 350.232C209.938 350.428 209.803 350.68 209.803 350.988C209.803 351.259 209.947 351.473 210.237 351.632C210.526 351.781 210.871 351.903 211.273 351.996C211.683 352.08 212.094 352.183 212.505 352.304C212.915 352.425 213.265 352.64 213.555 352.948C213.844 353.247 213.989 353.639 213.989 354.124C213.989 354.721 213.755 355.211 213.289 355.594C212.822 355.977 212.169 356.168 211.329 356.168ZM216.801 355.916C216.651 356.065 216.469 356.14 216.255 356.14C216.04 356.14 215.858 356.065 215.709 355.916C215.559 355.767 215.485 355.585 215.485 355.37C215.485 355.155 215.559 354.973 215.709 354.824C215.858 354.675 216.04 354.6 216.255 354.6C216.469 354.6 216.651 354.675 216.801 354.824C216.95 354.973 217.025 355.155 217.025 355.37C217.025 355.585 216.95 355.767 216.801 355.916Z" fill="#5D6574"/>
</svg>
