<svg width="248" height="392" viewBox="0 0 248 392" fill="none" xmlns="http://www.w3.org/2000/svg">
<rect width="248" height="392" rx="30" fill="#151A23"/>
<path d="M48.4247 38H46.0307L45.1487 35.696H39.6407L38.7587 38H36.3647L41.0807 25.994H43.7087L48.4247 38ZM44.5547 33.842L42.3947 28.118L40.2347 33.842H44.5547ZM53.642 38.216C52.322 38.216 51.242 37.79 50.402 36.938C49.562 36.074 49.142 34.976 49.142 33.644C49.142 32.324 49.562 31.238 50.402 30.386C51.242 29.522 52.322 29.09 53.642 29.09C55.094 29.09 56.204 29.606 56.972 30.638L55.73 31.79C55.25 31.106 54.584 30.764 53.732 30.764C52.94 30.764 52.304 31.034 51.824 31.574C51.344 32.102 51.104 32.792 51.104 33.644C51.104 34.496 51.344 35.192 51.824 35.732C52.304 36.272 52.94 36.542 53.732 36.542C54.56 36.542 55.226 36.2 55.73 35.516L56.972 36.668C56.204 37.7 55.094 38.216 53.642 38.216ZM62.5893 38.216C61.2693 38.216 60.1893 37.79 59.3493 36.938C58.5093 36.074 58.0893 34.976 58.0893 33.644C58.0893 32.324 58.5093 31.238 59.3493 30.386C60.1893 29.522 61.2693 29.09 62.5893 29.09C64.0413 29.09 65.1513 29.606 65.9193 30.638L64.6773 31.79C64.1973 31.106 63.5313 30.764 62.6793 30.764C61.8873 30.764 61.2513 31.034 60.7713 31.574C60.2913 32.102 60.0513 32.792 60.0513 33.644C60.0513 34.496 60.2913 35.192 60.7713 35.732C61.2513 36.272 61.8873 36.542 62.6793 36.542C63.5073 36.542 64.1733 36.2 64.6773 35.516L65.9193 36.668C65.1513 37.7 64.0413 38.216 62.5893 38.216ZM71.5005 38.216C70.1565 38.216 69.0765 37.778 68.2605 36.902C67.4445 36.014 67.0365 34.928 67.0365 33.644C67.0365 32.36 67.4445 31.28 68.2605 30.404C69.0765 29.528 70.1565 29.09 71.5005 29.09C72.8565 29.09 73.9425 29.528 74.7585 30.404C75.5745 31.28 75.9825 32.36 75.9825 33.644C75.9825 34.94 75.5745 36.026 74.7585 36.902C73.9425 37.778 72.8565 38.216 71.5005 38.216ZM71.5005 36.542C72.2805 36.542 72.8925 36.266 73.3365 35.714C73.7925 35.15 74.0205 34.46 74.0205 33.644C74.0205 32.84 73.7925 32.162 73.3365 31.61C72.8925 31.046 72.2805 30.764 71.5005 30.764C70.7325 30.764 70.1205 31.046 69.6645 31.61C69.2205 32.162 68.9985 32.84 68.9985 33.644C68.9985 34.46 69.2205 35.15 69.6645 35.714C70.1205 36.266 70.7325 36.542 71.5005 36.542ZM85.6529 38H83.7629V36.848C82.9469 37.76 81.9209 38.216 80.6849 38.216C78.8249 38.216 77.8949 37.298 77.8949 35.462V29.306H79.7849V34.778C79.7849 35.414 79.9349 35.87 80.2349 36.146C80.5349 36.41 80.9669 36.542 81.5309 36.542C81.9869 36.542 82.4129 36.434 82.8089 36.218C83.2049 36.002 83.5229 35.732 83.7629 35.408V29.306H85.6529V38ZM95.8658 38H93.9758V32.564C93.9758 31.364 93.3938 30.764 92.2298 30.764C91.7738 30.764 91.3478 30.878 90.9518 31.106C90.5558 31.334 90.2378 31.61 89.9978 31.934V38H88.1078V29.306H89.9978V30.494C90.3218 30.11 90.7538 29.78 91.2938 29.504C91.8338 29.228 92.4218 29.09 93.0578 29.09C93.9818 29.09 94.6778 29.33 95.1458 29.81C95.6258 30.29 95.8658 30.98 95.8658 31.88V38ZM100.931 38.216C100.199 38.216 99.6407 38.024 99.2567 37.64C98.8847 37.256 98.6987 36.704 98.6987 35.984V30.962H97.2587V29.306H98.6987V26.93H100.589V29.306H102.353V30.962H100.589V35.516C100.589 35.828 100.661 36.08 100.805 36.272C100.949 36.452 101.153 36.542 101.417 36.542C101.801 36.542 102.083 36.44 102.263 36.236L102.713 37.658C102.317 38.03 101.723 38.216 100.931 38.216ZM114.506 38.216C112.706 38.216 111.206 37.64 110.006 36.488C108.806 35.324 108.206 33.83 108.206 32.006C108.206 30.182 108.806 28.694 110.006 27.542C111.206 26.378 112.706 25.796 114.506 25.796C116.594 25.796 118.202 26.696 119.33 28.496L117.53 29.414C117.23 28.898 116.804 28.478 116.252 28.154C115.712 27.83 115.13 27.668 114.506 27.668C113.318 27.668 112.328 28.076 111.536 28.892C110.756 29.708 110.366 30.746 110.366 32.006C110.366 33.266 110.756 34.304 111.536 35.12C112.328 35.936 113.318 36.344 114.506 36.344C115.142 36.344 115.73 36.182 116.27 35.858C116.81 35.534 117.23 35.114 117.53 34.598L119.33 35.516C118.178 37.316 116.57 38.216 114.506 38.216ZM124.885 38.216C123.541 38.216 122.461 37.778 121.645 36.902C120.829 36.014 120.421 34.928 120.421 33.644C120.421 32.36 120.829 31.28 121.645 30.404C122.461 29.528 123.541 29.09 124.885 29.09C126.241 29.09 127.327 29.528 128.143 30.404C128.959 31.28 129.367 32.36 129.367 33.644C129.367 34.94 128.959 36.026 128.143 36.902C127.327 37.778 126.241 38.216 124.885 38.216ZM124.885 36.542C125.665 36.542 126.277 36.266 126.721 35.714C127.177 35.15 127.405 34.46 127.405 33.644C127.405 32.84 127.177 32.162 126.721 31.61C126.277 31.046 125.665 30.764 124.885 30.764C124.117 30.764 123.505 31.046 123.049 31.61C122.605 32.162 122.383 32.84 122.383 33.644C122.383 34.46 122.605 35.15 123.049 35.714C123.505 36.266 124.117 36.542 124.885 36.542ZM139.038 38H137.148V32.564C137.148 31.364 136.566 30.764 135.402 30.764C134.946 30.764 134.52 30.878 134.124 31.106C133.728 31.334 133.41 31.61 133.17 31.934V38H131.28V29.306H133.17V30.494C133.494 30.11 133.926 29.78 134.466 29.504C135.006 29.228 135.594 29.09 136.23 29.09C137.154 29.09 137.85 29.33 138.318 29.81C138.798 30.29 139.038 30.98 139.038 31.88V38ZM143.833 38H141.943V30.962H140.503V29.306H141.943V28.82C141.943 27.872 142.195 27.134 142.699 26.606C143.203 26.078 143.869 25.814 144.697 25.814C145.309 25.814 145.813 25.928 146.209 26.156L145.795 27.56C145.603 27.428 145.351 27.362 145.039 27.362C144.667 27.362 144.373 27.488 144.157 27.74C143.941 27.98 143.833 28.34 143.833 28.82V29.306H145.597V30.962H143.833V38ZM147.973 28.244C147.661 28.244 147.385 28.13 147.145 27.902C146.917 27.674 146.803 27.398 146.803 27.074C146.803 26.75 146.917 26.474 147.145 26.246C147.385 26.018 147.661 25.904 147.973 25.904C148.297 25.904 148.573 26.018 148.801 26.246C149.029 26.474 149.143 26.75 149.143 27.074C149.143 27.398 149.029 27.674 148.801 27.902C148.573 28.13 148.297 28.244 147.973 28.244ZM148.927 38H147.037V29.306H148.927V38ZM153.261 38H151.371V29.306H153.261V30.584C153.597 30.152 154.017 29.798 154.521 29.522C155.025 29.246 155.547 29.108 156.087 29.108V30.98C155.919 30.944 155.721 30.926 155.493 30.926C155.097 30.926 154.671 31.046 154.215 31.286C153.771 31.514 153.453 31.778 153.261 32.078V38ZM170.158 38H168.268V32.33C168.268 31.286 167.794 30.764 166.846 30.764C166.45 30.764 166.066 30.878 165.694 31.106C165.322 31.334 165.034 31.604 164.83 31.916V38H162.94V32.33C162.94 31.286 162.46 30.764 161.5 30.764C161.116 30.764 160.738 30.878 160.366 31.106C160.006 31.334 159.718 31.61 159.502 31.934V38H157.612V29.306H159.502V30.494C159.718 30.17 160.09 29.858 160.618 29.558C161.158 29.246 161.728 29.09 162.328 29.09C163.588 29.09 164.38 29.624 164.704 30.692C164.98 30.26 165.388 29.888 165.928 29.576C166.468 29.252 167.044 29.09 167.656 29.09C169.324 29.09 170.158 29.966 170.158 31.718V38ZM179.806 38H177.916V37.064C177.244 37.832 176.308 38.216 175.108 38.216C174.316 38.216 173.614 37.964 173.002 37.46C172.39 36.944 172.084 36.236 172.084 35.336C172.084 34.412 172.384 33.71 172.984 33.23C173.596 32.75 174.304 32.51 175.108 32.51C176.344 32.51 177.28 32.882 177.916 33.626V32.33C177.916 31.826 177.73 31.43 177.358 31.142C176.986 30.854 176.494 30.71 175.882 30.71C174.91 30.71 174.052 31.076 173.308 31.808L172.534 30.494C173.518 29.558 174.736 29.09 176.188 29.09C177.256 29.09 178.126 29.342 178.798 29.846C179.47 30.35 179.806 31.148 179.806 32.24V38ZM175.846 36.92C176.794 36.92 177.484 36.62 177.916 36.02V34.706C177.484 34.106 176.794 33.806 175.846 33.806C175.306 33.806 174.862 33.95 174.514 34.238C174.166 34.526 173.992 34.904 173.992 35.372C173.992 35.84 174.166 36.218 174.514 36.506C174.862 36.782 175.306 36.92 175.846 36.92ZM184.866 38.216C184.134 38.216 183.576 38.024 183.192 37.64C182.82 37.256 182.634 36.704 182.634 35.984V30.962H181.194V29.306H182.634V26.93H184.524V29.306H186.288V30.962H184.524V35.516C184.524 35.828 184.596 36.08 184.74 36.272C184.884 36.452 185.088 36.542 185.352 36.542C185.736 36.542 186.018 36.44 186.198 36.236L186.648 37.658C186.252 38.03 185.658 38.216 184.866 38.216ZM188.94 28.244C188.628 28.244 188.352 28.13 188.112 27.902C187.884 27.674 187.77 27.398 187.77 27.074C187.77 26.75 187.884 26.474 188.112 26.246C188.352 26.018 188.628 25.904 188.94 25.904C189.264 25.904 189.54 26.018 189.768 26.246C189.996 26.474 190.11 26.75 190.11 27.074C190.11 27.398 189.996 27.674 189.768 27.902C189.54 28.13 189.264 28.244 188.94 28.244ZM189.894 38H188.004V29.306H189.894V38ZM196.27 38.216C194.926 38.216 193.846 37.778 193.03 36.902C192.214 36.014 191.806 34.928 191.806 33.644C191.806 32.36 192.214 31.28 193.03 30.404C193.846 29.528 194.926 29.09 196.27 29.09C197.626 29.09 198.712 29.528 199.528 30.404C200.344 31.28 200.752 32.36 200.752 33.644C200.752 34.94 200.344 36.026 199.528 36.902C198.712 37.778 197.626 38.216 196.27 38.216ZM196.27 36.542C197.05 36.542 197.662 36.266 198.106 35.714C198.562 35.15 198.79 34.46 198.79 33.644C198.79 32.84 198.562 32.162 198.106 31.61C197.662 31.046 197.05 30.764 196.27 30.764C195.502 30.764 194.89 31.046 194.434 31.61C193.99 32.162 193.768 32.84 193.768 33.644C193.768 34.46 193.99 35.15 194.434 35.714C194.89 36.266 195.502 36.542 196.27 36.542ZM210.422 38H208.532V32.564C208.532 31.364 207.95 30.764 206.786 30.764C206.33 30.764 205.904 30.878 205.508 31.106C205.112 31.334 204.794 31.61 204.554 31.934V38H202.664V29.306H204.554V30.494C204.878 30.11 205.31 29.78 205.85 29.504C206.39 29.228 206.978 29.09 207.614 29.09C208.538 29.09 209.234 29.33 209.702 29.81C210.182 30.29 210.422 30.98 210.422 31.88V38Z" fill="white"/>
<circle cx="58.5" cy="97.5" r="21.75" stroke="#46D880" stroke-width="1.5"/>
<path fill-rule="evenodd" clip-rule="evenodd" d="M56.9168 89.75L56.874 89.75C55.4661 89.75 54.3506 89.75 53.4611 89.8429C52.5494 89.9382 51.79 90.1376 51.1303 90.5942C50.6603 90.9195 50.253 91.3268 49.9277 91.7968C49.4711 92.4565 49.2717 93.2159 49.1764 94.1276C49.0835 95.0171 49.0835 96.1326 49.0835 97.5405L49.0835 97.5833L49.0835 97.6261C49.0835 99.034 49.0835 100.15 49.1764 101.039C49.2717 101.951 49.4711 102.71 49.9277 103.37C50.253 103.84 50.6603 104.247 51.1303 104.572C51.79 105.029 52.5494 105.228 53.4611 105.324C54.3506 105.417 55.4661 105.417 56.874 105.417H56.9168H61.0835H61.1263C62.5342 105.417 63.6497 105.417 64.5392 105.324C65.4509 105.228 66.2104 105.029 66.8701 104.572C67.34 104.247 67.7474 103.84 68.0726 103.37C68.5292 102.71 68.7286 101.951 68.8239 101.039C68.9168 100.15 68.9168 99.034 68.9168 97.6261V97.5833V97.5406C68.9168 96.1327 68.9168 95.0171 68.8239 94.1276C68.7286 93.2159 68.5292 92.4565 68.0726 91.7968C67.7474 91.3268 67.34 90.9195 66.8701 90.5942C66.2104 90.1376 65.4509 89.9382 64.5392 89.8429C63.6497 89.75 62.5342 89.75 61.1263 89.75L61.0835 89.75H56.9168ZM51.9839 91.8276C52.3514 91.5733 52.8276 91.4173 53.617 91.3348C54.4194 91.251 55.4566 91.25 56.9168 91.25H61.0835C62.5437 91.25 63.5809 91.251 64.3834 91.3348C65.1727 91.4173 65.6489 91.5733 66.0164 91.8276C66.3379 92.0502 66.6167 92.3289 66.8392 92.6504C66.9898 92.868 67.1059 93.1238 67.1927 93.4601L60.745 97.5632C59.6804 98.2406 58.3199 98.2406 57.2553 97.5632L50.8076 93.4601C50.8944 93.1238 51.0105 92.868 51.1611 92.6504C51.3837 92.3289 51.6624 92.0502 51.9839 91.8276ZM50.6114 95.1132C50.5839 95.7778 50.5835 96.5809 50.5835 97.5833C50.5835 99.0436 50.5845 100.081 50.6683 100.883C50.7508 101.673 50.9068 102.149 51.1611 102.516C51.3837 102.838 51.6624 103.117 51.9839 103.339C52.3514 103.593 52.8276 103.749 53.617 103.832C54.4194 103.916 55.4566 103.917 56.9168 103.917H61.0835C62.5437 103.917 63.5809 103.916 64.3834 103.832C65.1727 103.749 65.6489 103.593 66.0164 103.339C66.3379 103.117 66.6167 102.838 66.8392 102.516C67.0935 102.149 67.2495 101.673 67.332 100.883C67.4159 100.081 67.4168 99.0436 67.4168 97.5833C67.4168 96.5809 67.4164 95.7778 67.389 95.1132L61.5503 98.8287C59.9944 99.8188 58.0059 99.8188 56.45 98.8287L50.6114 95.1132Z" fill="white"/>
<path d="M50.2354 146H44.1174V136.662H50.2354V137.698H45.2794V140.708H50.1374V141.744H45.2794V144.964H50.2354V146ZM61.2581 146H60.2081V141.408C60.2081 140.475 59.7928 140.008 58.9621 140.008C58.6261 140.008 58.2901 140.111 57.9541 140.316C57.6181 140.521 57.3568 140.764 57.1701 141.044V146H56.1201V141.408C56.1201 140.475 55.7048 140.008 54.8741 140.008C54.5474 140.008 54.2161 140.111 53.8801 140.316C53.5534 140.521 53.2921 140.769 53.0961 141.058V146H52.0461V139.238H53.0961V140.218C53.2641 139.957 53.5581 139.7 53.9781 139.448C54.3981 139.196 54.8321 139.07 55.2801 139.07C55.7748 139.07 56.1761 139.187 56.4841 139.42C56.7921 139.653 56.9974 139.957 57.1001 140.33C57.3054 139.994 57.6181 139.7 58.0381 139.448C58.4581 139.196 58.9014 139.07 59.3681 139.07C60.6281 139.07 61.2581 139.751 61.2581 141.114V146ZM68.6307 146H67.5807V145.23C67.0114 145.855 66.2647 146.168 65.3407 146.168C64.7154 146.168 64.1647 145.967 63.6887 145.566C63.2127 145.165 62.9747 144.619 62.9747 143.928C62.9747 143.219 63.2081 142.673 63.6747 142.29C64.1507 141.898 64.7061 141.702 65.3407 141.702C66.3021 141.702 67.0487 142.01 67.5807 142.626V141.408C67.5807 140.96 67.4221 140.61 67.1047 140.358C66.7874 140.106 66.3767 139.98 65.8727 139.98C65.0794 139.98 64.3887 140.293 63.8007 140.918L63.3107 140.19C64.0294 139.443 64.9301 139.07 66.0127 139.07C66.7874 139.07 67.4174 139.257 67.9027 139.63C68.3881 140.003 68.6307 140.577 68.6307 141.352V146ZM65.7187 145.412C66.5587 145.412 67.1794 145.132 67.5807 144.572V143.298C67.1794 142.738 66.5587 142.458 65.7187 142.458C65.2334 142.458 64.8321 142.598 64.5147 142.878C64.2067 143.149 64.0527 143.503 64.0527 143.942C64.0527 144.371 64.2067 144.726 64.5147 145.006C64.8321 145.277 65.2334 145.412 65.7187 145.412ZM71.2535 138.272C71.0669 138.272 70.9035 138.207 70.7635 138.076C70.6235 137.936 70.5535 137.768 70.5535 137.572C70.5535 137.376 70.6235 137.208 70.7635 137.068C70.9035 136.928 71.0669 136.858 71.2535 136.858C71.4495 136.858 71.6175 136.928 71.7575 137.068C71.8975 137.208 71.9675 137.376 71.9675 137.572C71.9675 137.768 71.8975 137.936 71.7575 138.076C71.6175 138.207 71.4495 138.272 71.2535 138.272ZM71.7855 146H70.7355V139.238H71.7855V146ZM74.9301 146H73.8801V136.662H74.9301V146ZM30.0353 169H28.8873L26.0733 162.238H27.2073L29.4613 167.782L31.7013 162.238H32.8493L30.0353 169ZM36.9965 169.168C35.9885 169.168 35.1625 168.841 34.5185 168.188C33.8745 167.525 33.5525 166.667 33.5525 165.612C33.5525 164.623 33.8699 163.787 34.5045 163.106C35.1392 162.415 35.9325 162.07 36.8845 162.07C37.8832 162.07 38.6719 162.415 39.2505 163.106C39.8385 163.787 40.1325 164.651 40.1325 165.696V165.962H34.6585C34.7052 166.625 34.9479 167.18 35.3865 167.628C35.8252 168.076 36.3945 168.3 37.0945 168.3C37.9345 168.3 38.6299 168.015 39.1805 167.446L39.6845 168.132C38.9939 168.823 38.0979 169.168 36.9965 169.168ZM39.0965 165.192C39.0872 164.613 38.8912 164.095 38.5085 163.638C38.1259 163.171 37.5799 162.938 36.8705 162.938C36.1985 162.938 35.6665 163.167 35.2745 163.624C34.8919 164.081 34.6865 164.604 34.6585 165.192H39.0965ZM42.8832 169H41.8332V162.238H42.8832V163.33C43.5085 162.509 44.2599 162.098 45.1372 162.098V163.176C45.0065 163.148 44.8665 163.134 44.7172 163.134C44.3999 163.134 44.0545 163.246 43.6812 163.47C43.3079 163.694 43.0419 163.941 42.8832 164.212V169ZM46.9723 161.272C46.7856 161.272 46.6223 161.207 46.4823 161.076C46.3423 160.936 46.2723 160.768 46.2723 160.572C46.2723 160.376 46.3423 160.208 46.4823 160.068C46.6223 159.928 46.7856 159.858 46.9723 159.858C47.1683 159.858 47.3363 159.928 47.4763 160.068C47.6163 160.208 47.6863 160.376 47.6863 160.572C47.6863 160.768 47.6163 160.936 47.4763 161.076C47.3363 161.207 47.1683 161.272 46.9723 161.272ZM47.5043 169H46.4543V162.238H47.5043V169ZM50.9428 169H49.8928V163.162H48.7728V162.238H49.8928V161.72C49.8928 161.029 50.0702 160.493 50.4248 160.11C50.7795 159.718 51.2555 159.522 51.8528 159.522C52.2822 159.522 52.6228 159.601 52.8748 159.76L52.6088 160.558C52.4315 160.446 52.2308 160.39 52.0068 160.39C51.6615 160.39 51.3955 160.507 51.2088 160.74C51.0315 160.964 50.9428 161.291 50.9428 161.72V162.238H52.3148V163.162H50.9428V169ZM54.0788 161.272C53.8922 161.272 53.7288 161.207 53.5888 161.076C53.4488 160.936 53.3788 160.768 53.3788 160.572C53.3788 160.376 53.4488 160.208 53.5888 160.068C53.7288 159.928 53.8922 159.858 54.0788 159.858C54.2748 159.858 54.4428 159.928 54.5828 160.068C54.7228 160.208 54.7928 160.376 54.7928 160.572C54.7928 160.768 54.7228 160.936 54.5828 161.076C54.4428 161.207 54.2748 161.272 54.0788 161.272ZM54.6108 169H53.5608V162.238H54.6108V169ZM59.7039 169.168C58.7052 169.168 57.8932 168.832 57.2679 168.16C56.6425 167.479 56.3299 166.629 56.3299 165.612C56.3299 164.595 56.6425 163.75 57.2679 163.078C57.8932 162.406 58.7052 162.07 59.7039 162.07C60.7492 162.07 61.5752 162.462 62.1819 163.246L61.4819 163.89C61.0525 163.302 60.4785 163.008 59.7599 163.008C59.0505 163.008 58.4812 163.251 58.0519 163.736C57.6319 164.221 57.4219 164.847 57.4219 165.612C57.4219 166.377 57.6319 167.007 58.0519 167.502C58.4812 167.987 59.0505 168.23 59.7599 168.23C60.4692 168.23 61.0432 167.936 61.4819 167.348L62.1819 167.992C61.5752 168.776 60.7492 169.168 59.7039 169.168ZM68.9315 169H67.8815V168.23C67.3122 168.855 66.5655 169.168 65.6415 169.168C65.0162 169.168 64.4655 168.967 63.9895 168.566C63.5135 168.165 63.2755 167.619 63.2755 166.928C63.2755 166.219 63.5088 165.673 63.9755 165.29C64.4515 164.898 65.0068 164.702 65.6415 164.702C66.6028 164.702 67.3495 165.01 67.8815 165.626V164.408C67.8815 163.96 67.7228 163.61 67.4055 163.358C67.0882 163.106 66.6775 162.98 66.1735 162.98C65.3802 162.98 64.6895 163.293 64.1015 163.918L63.6115 163.19C64.3302 162.443 65.2308 162.07 66.3135 162.07C67.0882 162.07 67.7182 162.257 68.2035 162.63C68.6888 163.003 68.9315 163.577 68.9315 164.352V169ZM66.0195 168.412C66.8595 168.412 67.4802 168.132 67.8815 167.572V166.298C67.4802 165.738 66.8595 165.458 66.0195 165.458C65.5342 165.458 65.1328 165.598 64.8155 165.878C64.5075 166.149 64.3535 166.503 64.3535 166.942C64.3535 167.371 64.5075 167.726 64.8155 168.006C65.1328 168.277 65.5342 168.412 66.0195 168.412ZM72.7443 169.168C72.2497 169.168 71.8763 169.033 71.6243 168.762C71.3723 168.491 71.2463 168.099 71.2463 167.586V163.162H70.1263V162.238H71.2463V160.39H72.2963V162.238H73.6683V163.162H72.2963V167.362C72.2963 167.623 72.3523 167.833 72.4643 167.992C72.5857 168.151 72.7583 168.23 72.9823 168.23C73.2903 168.23 73.5283 168.137 73.6963 167.95L74.0043 168.734C73.6963 169.023 73.2763 169.168 72.7443 169.168ZM75.6696 161.272C75.4829 161.272 75.3196 161.207 75.1796 161.076C75.0396 160.936 74.9696 160.768 74.9696 160.572C74.9696 160.376 75.0396 160.208 75.1796 160.068C75.3196 159.928 75.4829 159.858 75.6696 159.858C75.8656 159.858 76.0336 159.928 76.1736 160.068C76.3136 160.208 76.3836 160.376 76.3836 160.572C76.3836 160.768 76.3136 160.936 76.1736 161.076C76.0336 161.207 75.8656 161.272 75.6696 161.272ZM76.2016 169H75.1516V162.238H76.2016V169ZM83.6721 168.146C83.0654 168.827 82.2581 169.168 81.2501 169.168C80.2421 169.168 79.4301 168.827 78.8141 168.146C78.2074 167.465 77.9041 166.62 77.9041 165.612C77.9041 164.604 78.2074 163.764 78.8141 163.092C79.4301 162.411 80.2421 162.07 81.2501 162.07C82.2581 162.07 83.0654 162.411 83.6721 163.092C84.2881 163.764 84.5961 164.604 84.5961 165.612C84.5961 166.62 84.2881 167.465 83.6721 168.146ZM79.5981 167.474C80.0088 167.978 80.5594 168.23 81.2501 168.23C81.9408 168.23 82.4868 167.978 82.8881 167.474C83.2894 166.961 83.4901 166.34 83.4901 165.612C83.4901 164.884 83.2894 164.268 82.8881 163.764C82.4868 163.26 81.9408 163.008 81.2501 163.008C80.5594 163.008 80.0088 163.265 79.5981 163.778C79.1968 164.282 78.9961 164.893 78.9961 165.612C78.9961 166.34 79.1968 166.961 79.5981 167.474ZM91.9218 169H90.8718V164.576C90.8718 164.007 90.7411 163.605 90.4798 163.372C90.2185 163.129 89.8451 163.008 89.3598 163.008C88.9678 163.008 88.5851 163.111 88.2118 163.316C87.8478 163.521 87.5631 163.769 87.3578 164.058V169H86.3078V162.238H87.3578V163.218C87.6191 162.91 87.9691 162.644 88.4078 162.42C88.8465 162.187 89.2991 162.07 89.7658 162.07C91.2031 162.07 91.9218 162.798 91.9218 164.254V169Z" fill="white"/>
<circle cx="179.5" cy="97.5" r="21.75" stroke="#FB3E3E" stroke-width="1.5"/>
<path fill-rule="evenodd" clip-rule="evenodd" d="M178.967 88.0834L178.934 88.0834C178.122 88.0834 177.466 88.0834 176.935 88.1267C176.388 88.1714 175.908 88.2658 175.464 88.4921C174.758 88.8516 174.185 89.4253 173.825 90.1309C173.599 90.5751 173.505 91.0553 173.46 91.6019C173.416 92.1328 173.416 92.7884 173.417 93.6013L173.417 93.6334V102.367L173.417 102.399C173.416 103.212 173.416 103.867 173.46 104.398C173.505 104.945 173.599 105.425 173.825 105.869C174.185 106.575 174.758 107.148 175.464 107.508C175.908 107.734 176.388 107.829 176.935 107.873C177.466 107.917 178.122 107.917 178.934 107.917H178.934H178.967H181.033H181.065H181.065C181.878 107.917 182.534 107.917 183.065 107.873C183.611 107.829 184.091 107.734 184.536 107.508C185.241 107.148 185.815 106.575 186.174 105.869C186.401 105.425 186.495 104.945 186.54 104.398C186.583 103.867 186.583 103.212 186.583 102.399V102.367V93.6334V93.6013C186.583 92.7884 186.583 92.1328 186.54 91.6019C186.495 91.0553 186.401 90.5751 186.174 90.1309C185.815 89.4253 185.241 88.8516 184.536 88.4921C184.091 88.2658 183.611 88.1714 183.065 88.1267C182.534 88.0834 181.878 88.0834 181.065 88.0834L181.033 88.0834H178.967ZM176.145 89.8286C176.343 89.728 176.603 89.6588 177.057 89.6218C177.52 89.584 178.114 89.5834 178.967 89.5834H181.033C181.886 89.5834 182.48 89.584 182.942 89.6218C183.396 89.6588 183.657 89.728 183.855 89.8286C184.278 90.0443 184.622 90.3885 184.838 90.8119C184.939 91.0094 185.008 91.2702 185.045 91.7241C185.083 92.1867 185.083 92.7809 185.083 93.6334V102.367C185.083 103.219 185.083 103.813 185.045 104.276C185.008 104.73 184.939 104.991 184.838 105.188C184.622 105.612 184.278 105.956 183.855 106.171C183.657 106.272 183.396 106.341 182.942 106.378C182.48 106.416 181.886 106.417 181.033 106.417H178.967C178.114 106.417 177.52 106.416 177.057 106.378C176.603 106.341 176.343 106.272 176.145 106.171C175.722 105.956 175.377 105.612 175.162 105.188C175.061 104.991 174.992 104.73 174.955 104.276C174.917 103.813 174.917 103.219 174.917 102.367V93.6334C174.917 92.7809 174.917 92.1867 174.955 91.7241C174.992 91.2702 175.061 91.0094 175.162 90.8119C175.377 90.3885 175.722 90.0443 176.145 89.8286ZM178.333 89.75C177.919 89.75 177.583 90.0858 177.583 90.5C177.583 90.9143 177.919 91.25 178.333 91.25H181.667C182.081 91.25 182.417 90.9143 182.417 90.5C182.417 90.0858 182.081 89.75 181.667 89.75H178.333Z" fill="white"/>
<path d="M169.953 146H168.791V138.314L165.613 146H165.137L161.973 138.314V146H160.811V136.662H162.477L165.375 143.69L168.287 136.662H169.953V146ZM177.465 145.146C176.858 145.827 176.051 146.168 175.043 146.168C174.035 146.168 173.223 145.827 172.607 145.146C172 144.465 171.697 143.62 171.697 142.612C171.697 141.604 172 140.764 172.607 140.092C173.223 139.411 174.035 139.07 175.043 139.07C176.051 139.07 176.858 139.411 177.465 140.092C178.081 140.764 178.389 141.604 178.389 142.612C178.389 143.62 178.081 144.465 177.465 145.146ZM173.391 144.474C173.802 144.978 174.352 145.23 175.043 145.23C175.734 145.23 176.28 144.978 176.681 144.474C177.082 143.961 177.283 143.34 177.283 142.612C177.283 141.884 177.082 141.268 176.681 140.764C176.28 140.26 175.734 140.008 175.043 140.008C174.352 140.008 173.802 140.265 173.391 140.778C172.99 141.282 172.789 141.893 172.789 142.612C172.789 143.34 172.99 143.961 173.391 144.474ZM181.151 144.166C181.337 144.465 181.617 144.717 181.991 144.922C182.373 145.127 182.765 145.23 183.167 145.23C183.839 145.23 184.371 144.987 184.763 144.502C185.155 144.017 185.351 143.391 185.351 142.626C185.351 141.861 185.155 141.235 184.763 140.75C184.371 140.255 183.839 140.008 183.167 140.008C182.765 140.008 182.373 140.115 181.991 140.33C181.617 140.535 181.337 140.792 181.151 141.1V144.166ZM181.151 146H180.101V136.662H181.151V140.26C181.739 139.467 182.499 139.07 183.433 139.07C184.319 139.07 185.043 139.397 185.603 140.05C186.163 140.694 186.443 141.553 186.443 142.626C186.443 143.709 186.163 144.572 185.603 145.216C185.052 145.851 184.329 146.168 183.433 146.168C182.49 146.168 181.729 145.776 181.151 144.992V146ZM188.672 138.272C188.485 138.272 188.322 138.207 188.182 138.076C188.042 137.936 187.972 137.768 187.972 137.572C187.972 137.376 188.042 137.208 188.182 137.068C188.322 136.928 188.485 136.858 188.672 136.858C188.868 136.858 189.036 136.928 189.176 137.068C189.316 137.208 189.386 137.376 189.386 137.572C189.386 137.768 189.316 137.936 189.176 138.076C189.036 138.207 188.868 138.272 188.672 138.272ZM189.204 146H188.154V139.238H189.204V146ZM192.348 146H191.298V136.662H192.348V146ZM197.495 146.168C196.487 146.168 195.661 145.841 195.017 145.188C194.373 144.525 194.051 143.667 194.051 142.612C194.051 141.623 194.368 140.787 195.003 140.106C195.637 139.415 196.431 139.07 197.383 139.07C198.381 139.07 199.17 139.415 199.749 140.106C200.337 140.787 200.631 141.651 200.631 142.696V142.962H195.157C195.203 143.625 195.446 144.18 195.885 144.628C196.323 145.076 196.893 145.3 197.593 145.3C198.433 145.3 199.128 145.015 199.679 144.446L200.183 145.132C199.492 145.823 198.596 146.168 197.495 146.168ZM199.595 142.192C199.585 141.613 199.389 141.095 199.007 140.638C198.624 140.171 198.078 139.938 197.369 139.938C196.697 139.938 196.165 140.167 195.773 140.624C195.39 141.081 195.185 141.604 195.157 142.192H199.595ZM151.035 169H149.887L147.073 162.238H148.207L150.461 167.782L152.701 162.238H153.849L151.035 169ZM157.997 169.168C156.989 169.168 156.163 168.841 155.519 168.188C154.875 167.525 154.553 166.667 154.553 165.612C154.553 164.623 154.87 163.787 155.505 163.106C156.139 162.415 156.933 162.07 157.885 162.07C158.883 162.07 159.672 162.415 160.251 163.106C160.839 163.787 161.133 164.651 161.133 165.696V165.962H155.659C155.705 166.625 155.948 167.18 156.387 167.628C156.825 168.076 157.395 168.3 158.095 168.3C158.935 168.3 159.63 168.015 160.181 167.446L160.685 168.132C159.994 168.823 159.098 169.168 157.997 169.168ZM160.097 165.192C160.087 164.613 159.891 164.095 159.509 163.638C159.126 163.171 158.58 162.938 157.871 162.938C157.199 162.938 156.667 163.167 156.275 163.624C155.892 164.081 155.687 164.604 155.659 165.192H160.097ZM163.883 169H162.833V162.238H163.883V163.33C164.509 162.509 165.26 162.098 166.137 162.098V163.176C166.007 163.148 165.867 163.134 165.717 163.134C165.4 163.134 165.055 163.246 164.681 163.47C164.308 163.694 164.042 163.941 163.883 164.212V169ZM167.972 161.272C167.786 161.272 167.622 161.207 167.482 161.076C167.342 160.936 167.272 160.768 167.272 160.572C167.272 160.376 167.342 160.208 167.482 160.068C167.622 159.928 167.786 159.858 167.972 159.858C168.168 159.858 168.336 159.928 168.476 160.068C168.616 160.208 168.686 160.376 168.686 160.572C168.686 160.768 168.616 160.936 168.476 161.076C168.336 161.207 168.168 161.272 167.972 161.272ZM168.504 169H167.454V162.238H168.504V169ZM171.943 169H170.893V163.162H169.773V162.238H170.893V161.72C170.893 161.029 171.07 160.493 171.425 160.11C171.779 159.718 172.255 159.522 172.853 159.522C173.282 159.522 173.623 159.601 173.875 159.76L173.609 160.558C173.431 160.446 173.231 160.39 173.007 160.39C172.661 160.39 172.395 160.507 172.209 160.74C172.031 160.964 171.943 161.291 171.943 161.72V162.238H173.315V163.162H171.943V169ZM175.079 161.272C174.892 161.272 174.729 161.207 174.589 161.076C174.449 160.936 174.379 160.768 174.379 160.572C174.379 160.376 174.449 160.208 174.589 160.068C174.729 159.928 174.892 159.858 175.079 159.858C175.275 159.858 175.443 159.928 175.583 160.068C175.723 160.208 175.793 160.376 175.793 160.572C175.793 160.768 175.723 160.936 175.583 161.076C175.443 161.207 175.275 161.272 175.079 161.272ZM175.611 169H174.561V162.238H175.611V169ZM180.704 169.168C179.705 169.168 178.893 168.832 178.268 168.16C177.643 167.479 177.33 166.629 177.33 165.612C177.33 164.595 177.643 163.75 178.268 163.078C178.893 162.406 179.705 162.07 180.704 162.07C181.749 162.07 182.575 162.462 183.182 163.246L182.482 163.89C182.053 163.302 181.479 163.008 180.76 163.008C180.051 163.008 179.481 163.251 179.052 163.736C178.632 164.221 178.422 164.847 178.422 165.612C178.422 166.377 178.632 167.007 179.052 167.502C179.481 167.987 180.051 168.23 180.76 168.23C181.469 168.23 182.043 167.936 182.482 167.348L183.182 167.992C182.575 168.776 181.749 169.168 180.704 169.168ZM189.932 169H188.882V168.23C188.312 168.855 187.566 169.168 186.642 169.168C186.016 169.168 185.466 168.967 184.99 168.566C184.514 168.165 184.276 167.619 184.276 166.928C184.276 166.219 184.509 165.673 184.976 165.29C185.452 164.898 186.007 164.702 186.642 164.702C187.603 164.702 188.35 165.01 188.882 165.626V164.408C188.882 163.96 188.723 163.61 188.406 163.358C188.088 163.106 187.678 162.98 187.174 162.98C186.38 162.98 185.69 163.293 185.102 163.918L184.612 163.19C185.33 162.443 186.231 162.07 187.314 162.07C188.088 162.07 188.718 162.257 189.204 162.63C189.689 163.003 189.932 163.577 189.932 164.352V169ZM187.02 168.412C187.86 168.412 188.48 168.132 188.882 167.572V166.298C188.48 165.738 187.86 165.458 187.02 165.458C186.534 165.458 186.133 165.598 185.816 165.878C185.508 166.149 185.354 166.503 185.354 166.942C185.354 167.371 185.508 167.726 185.816 168.006C186.133 168.277 186.534 168.412 187.02 168.412ZM193.744 169.168C193.25 169.168 192.876 169.033 192.624 168.762C192.372 168.491 192.246 168.099 192.246 167.586V163.162H191.126V162.238H192.246V160.39H193.296V162.238H194.668V163.162H193.296V167.362C193.296 167.623 193.352 167.833 193.464 167.992C193.586 168.151 193.758 168.23 193.982 168.23C194.29 168.23 194.528 168.137 194.696 167.95L195.004 168.734C194.696 169.023 194.276 169.168 193.744 169.168ZM196.67 161.272C196.483 161.272 196.32 161.207 196.18 161.076C196.04 160.936 195.97 160.768 195.97 160.572C195.97 160.376 196.04 160.208 196.18 160.068C196.32 159.928 196.483 159.858 196.67 159.858C196.866 159.858 197.034 159.928 197.174 160.068C197.314 160.208 197.384 160.376 197.384 160.572C197.384 160.768 197.314 160.936 197.174 161.076C197.034 161.207 196.866 161.272 196.67 161.272ZM197.202 169H196.152V162.238H197.202V169ZM204.672 168.146C204.065 168.827 203.258 169.168 202.25 169.168C201.242 169.168 200.43 168.827 199.814 168.146C199.207 167.465 198.904 166.62 198.904 165.612C198.904 164.604 199.207 163.764 199.814 163.092C200.43 162.411 201.242 162.07 202.25 162.07C203.258 162.07 204.065 162.411 204.672 163.092C205.288 163.764 205.596 164.604 205.596 165.612C205.596 166.62 205.288 167.465 204.672 168.146ZM200.598 167.474C201.009 167.978 201.559 168.23 202.25 168.23C202.941 168.23 203.487 167.978 203.888 167.474C204.289 166.961 204.49 166.34 204.49 165.612C204.49 164.884 204.289 164.268 203.888 163.764C203.487 163.26 202.941 163.008 202.25 163.008C201.559 163.008 201.009 163.265 200.598 163.778C200.197 164.282 199.996 164.893 199.996 165.612C199.996 166.34 200.197 166.961 200.598 167.474ZM212.922 169H211.872V164.576C211.872 164.007 211.741 163.605 211.48 163.372C211.218 163.129 210.845 163.008 210.36 163.008C209.968 163.008 209.585 163.111 209.212 163.316C208.848 163.521 208.563 163.769 208.358 164.058V169H207.308V162.238H208.358V163.218C208.619 162.91 208.969 162.644 209.408 162.42C209.846 162.187 210.299 162.07 210.766 162.07C212.203 162.07 212.922 162.798 212.922 164.254V169Z" fill="white"/>
<g opacity="0.5">
<path fill-rule="evenodd" clip-rule="evenodd" d="M123.293 119.293C122.902 119.683 122.902 120.317 123.293 120.707L127.586 125H110C109.448 125 109 125.448 109 126C109 126.552 109.448 127 110 127H127.586L123.293 131.293C122.902 131.683 122.902 132.317 123.293 132.707C123.683 133.098 124.317 133.098 124.707 132.707L130.707 126.707C130.895 126.52 131 126.265 131 126C131 125.735 130.895 125.48 130.707 125.293L124.707 119.293C124.317 118.902 123.683 118.902 123.293 119.293Z" fill="white"/>
</g>
<circle cx="76" cy="111" r="8.75" fill="#46D880" stroke="#151A23" stroke-width="1.5"/>
<path fill-rule="evenodd" clip-rule="evenodd" d="M74.9618 114.416C74.7828 114.407 74.6063 114.334 74.4696 114.197L72.4697 112.197C72.1768 111.904 72.1768 111.429 72.4697 111.136C72.7626 110.843 73.2374 110.843 73.5303 111.136L75 112.606L79.1365 108.47C79.4294 108.177 79.9042 108.177 80.1971 108.47C80.49 108.763 80.49 109.237 80.1971 109.53L75.5305 114.197C75.3743 114.353 75.1663 114.426 74.9618 114.416Z" fill="white"/>
<rect x="20.5" y="260.5" width="207" height="38" rx="9.5" fill="#131820" stroke="#191F2B"/>
<path d="M114.664 283.424C113.885 283.936 112.92 284.192 111.768 284.192C110.616 284.192 109.645 283.936 108.856 283.424C108.067 282.901 107.672 282.181 107.672 281.264C107.672 280.613 107.896 280.048 108.344 279.568C108.803 279.088 109.379 278.731 110.072 278.496C109.411 278.283 108.872 277.968 108.456 277.552C108.051 277.136 107.848 276.608 107.848 275.968C107.848 275.499 107.96 275.077 108.184 274.704C108.419 274.331 108.723 274.037 109.096 273.824C109.48 273.611 109.896 273.451 110.344 273.344C110.803 273.227 111.277 273.168 111.768 273.168C112.259 273.168 112.728 273.227 113.176 273.344C113.624 273.451 114.04 273.611 114.424 273.824C114.808 274.037 115.112 274.331 115.336 274.704C115.571 275.077 115.688 275.499 115.688 275.968C115.688 277.173 114.941 278.016 113.448 278.496C114.141 278.731 114.712 279.088 115.16 279.568C115.619 280.048 115.848 280.613 115.848 281.264C115.848 282.181 115.453 282.901 114.664 283.424ZM111.768 277.76C112.056 277.707 112.333 277.637 112.6 277.552C112.867 277.456 113.128 277.296 113.384 277.072C113.651 276.837 113.784 276.565 113.784 276.256C113.784 275.819 113.592 275.472 113.208 275.216C112.835 274.96 112.355 274.832 111.768 274.832C111.171 274.832 110.68 274.96 110.296 275.216C109.923 275.472 109.736 275.819 109.736 276.256C109.736 276.565 109.869 276.837 110.136 277.072C110.403 277.296 110.669 277.456 110.936 277.552C111.203 277.637 111.48 277.707 111.768 277.76ZM111.768 282.528C112.376 282.528 112.893 282.389 113.32 282.112C113.747 281.835 113.96 281.472 113.96 281.024C113.96 280.544 113.709 280.16 113.208 279.872C112.717 279.573 112.237 279.397 111.768 279.344C111.491 279.376 111.197 279.451 110.888 279.568C110.579 279.675 110.28 279.861 109.992 280.128C109.704 280.384 109.56 280.683 109.56 281.024C109.56 281.472 109.768 281.835 110.184 282.112C110.611 282.389 111.139 282.528 111.768 282.528ZM124.18 283.424C123.401 283.936 122.436 284.192 121.284 284.192C120.132 284.192 119.161 283.936 118.372 283.424C117.582 282.901 117.188 282.181 117.188 281.264C117.188 280.613 117.412 280.048 117.86 279.568C118.318 279.088 118.894 278.731 119.588 278.496C118.926 278.283 118.388 277.968 117.972 277.552C117.566 277.136 117.364 276.608 117.364 275.968C117.364 275.499 117.476 275.077 117.7 274.704C117.934 274.331 118.238 274.037 118.612 273.824C118.996 273.611 119.412 273.451 119.86 273.344C120.318 273.227 120.793 273.168 121.284 273.168C121.774 273.168 122.244 273.227 122.692 273.344C123.14 273.451 123.556 273.611 123.94 273.824C124.324 274.037 124.628 274.331 124.852 274.704C125.086 275.077 125.204 275.499 125.204 275.968C125.204 277.173 124.457 278.016 122.964 278.496C123.657 278.731 124.228 279.088 124.676 279.568C125.134 280.048 125.364 280.613 125.364 281.264C125.364 282.181 124.969 282.901 124.18 283.424ZM121.284 277.76C121.572 277.707 121.849 277.637 122.116 277.552C122.382 277.456 122.644 277.296 122.9 277.072C123.166 276.837 123.3 276.565 123.3 276.256C123.3 275.819 123.108 275.472 122.724 275.216C122.35 274.96 121.87 274.832 121.284 274.832C120.686 274.832 120.196 274.96 119.812 275.216C119.438 275.472 119.252 275.819 119.252 276.256C119.252 276.565 119.385 276.837 119.652 277.072C119.918 277.296 120.185 277.456 120.452 277.552C120.718 277.637 120.996 277.707 121.284 277.76ZM121.284 282.528C121.892 282.528 122.409 282.389 122.836 282.112C123.262 281.835 123.476 281.472 123.476 281.024C123.476 280.544 123.225 280.16 122.724 279.872C122.233 279.573 121.753 279.397 121.284 279.344C121.006 279.376 120.713 279.451 120.404 279.568C120.094 279.675 119.796 279.861 119.508 280.128C119.22 280.384 119.076 280.683 119.076 281.024C119.076 281.472 119.284 281.835 119.7 282.112C120.126 282.389 120.654 282.528 121.284 282.528ZM130.975 284H129.103V275.76L127.359 277.568L126.271 276.432L129.343 273.328H130.975V284ZM136.349 284.176C135.101 284.176 134.083 283.781 133.293 282.992L134.157 281.584C134.755 282.203 135.485 282.512 136.349 282.512C137.256 282.512 137.949 282.171 138.429 281.488C138.92 280.795 139.165 279.968 139.165 279.008V278.688C138.888 279.083 138.488 279.435 137.965 279.744C137.443 280.043 136.888 280.192 136.301 280.192C135.288 280.192 134.435 279.888 133.741 279.28C133.059 278.672 132.717 277.824 132.717 276.736C132.717 275.723 133.08 274.875 133.805 274.192C134.541 273.499 135.491 273.152 136.653 273.152C137.656 273.152 138.493 273.413 139.165 273.936C139.848 274.448 140.333 275.109 140.621 275.92C140.909 276.72 141.053 277.637 141.053 278.672C141.053 280.272 140.643 281.589 139.821 282.624C139 283.659 137.843 284.176 136.349 284.176ZM136.797 278.576C137.256 278.576 137.693 278.464 138.109 278.24C138.525 278.016 138.867 277.712 139.133 277.328C139.08 276.656 138.856 276.069 138.461 275.568C138.077 275.067 137.507 274.816 136.749 274.816C136.099 274.816 135.581 275.008 135.197 275.392C134.813 275.776 134.621 276.203 134.621 276.672C134.621 277.291 134.829 277.765 135.245 278.096C135.661 278.416 136.179 278.576 136.797 278.576Z" fill="white"/>
<rect x="20.5" y="314.5" width="207" height="38" rx="9.5" stroke="#46D880"/>
<path d="M82.256 338.192C80.656 338.192 79.3227 337.68 78.256 336.656C77.1893 335.621 76.656 334.293 76.656 332.672C76.656 331.051 77.1893 329.728 78.256 328.704C79.3227 327.669 80.656 327.152 82.256 327.152C84.112 327.152 85.5413 327.952 86.544 329.552L84.944 330.368C84.6773 329.909 84.2987 329.536 83.808 329.248C83.328 328.96 82.8107 328.816 82.256 328.816C81.2 328.816 80.32 329.179 79.616 329.904C78.9227 330.629 78.576 331.552 78.576 332.672C78.576 333.792 78.9227 334.715 79.616 335.44C80.32 336.165 81.2 336.528 82.256 336.528C82.8213 336.528 83.344 336.384 83.824 336.096C84.304 335.808 84.6773 335.435 84.944 334.976L86.544 335.792C85.52 337.392 84.0907 338.192 82.256 338.192ZM91.4823 338.192C90.2876 338.192 89.3276 337.803 88.6023 337.024C87.8769 336.235 87.5143 335.269 87.5143 334.128C87.5143 332.987 87.8769 332.027 88.6023 331.248C89.3276 330.469 90.2876 330.08 91.4823 330.08C92.6876 330.08 93.6529 330.469 94.3783 331.248C95.1036 332.027 95.4663 332.987 95.4663 334.128C95.4663 335.28 95.1036 336.245 94.3783 337.024C93.6529 337.803 92.6876 338.192 91.4823 338.192ZM91.4823 336.704C92.1756 336.704 92.7196 336.459 93.1143 335.968C93.5196 335.467 93.7223 334.853 93.7223 334.128C93.7223 333.413 93.5196 332.811 93.1143 332.32C92.7196 331.819 92.1756 331.568 91.4823 331.568C90.7996 331.568 90.2556 331.819 89.8503 332.32C89.4556 332.811 89.2582 333.413 89.2582 334.128C89.2582 334.853 89.4556 335.467 89.8503 335.968C90.2556 336.459 90.7996 336.704 91.4823 336.704ZM104.062 338H102.382V333.168C102.382 332.101 101.865 331.568 100.83 331.568C100.425 331.568 100.046 331.669 99.6941 331.872C99.3421 332.075 99.0595 332.32 98.8461 332.608V338H97.1661V330.272H98.8461V331.328C99.1341 330.987 99.5181 330.693 99.9981 330.448C100.478 330.203 101.001 330.08 101.566 330.08C102.387 330.08 103.006 330.293 103.422 330.72C103.849 331.147 104.062 331.76 104.062 332.56V338ZM108.324 338H106.644V331.744H105.364V330.272H106.644V329.84C106.644 328.997 106.868 328.341 107.316 327.872C107.764 327.403 108.356 327.168 109.092 327.168C109.636 327.168 110.084 327.269 110.436 327.472L110.068 328.72C109.898 328.603 109.674 328.544 109.396 328.544C109.066 328.544 108.804 328.656 108.612 328.88C108.42 329.093 108.324 329.413 108.324 329.84V330.272H109.892V331.744H108.324V338ZM112.004 329.328C111.727 329.328 111.482 329.227 111.268 329.024C111.066 328.821 110.964 328.576 110.964 328.288C110.964 328 111.066 327.755 111.268 327.552C111.482 327.349 111.727 327.248 112.004 327.248C112.292 327.248 112.538 327.349 112.74 327.552C112.943 327.755 113.044 328 113.044 328.288C113.044 328.576 112.943 328.821 112.74 329.024C112.538 329.227 112.292 329.328 112.004 329.328ZM112.852 338H111.172V330.272H112.852V338ZM116.706 338H115.026V330.272H116.706V331.408C117.004 331.024 117.378 330.709 117.826 330.464C118.274 330.219 118.738 330.096 119.218 330.096V331.76C119.068 331.728 118.892 331.712 118.69 331.712C118.338 331.712 117.959 331.819 117.554 332.032C117.159 332.235 116.876 332.469 116.706 332.736V338ZM131.724 338H130.044V332.96C130.044 332.032 129.623 331.568 128.78 331.568C128.428 331.568 128.087 331.669 127.756 331.872C127.426 332.075 127.17 332.315 126.988 332.592V338H125.308V332.96C125.308 332.032 124.882 331.568 124.028 331.568C123.687 331.568 123.351 331.669 123.02 331.872C122.7 332.075 122.444 332.32 122.252 332.608V338H120.572V330.272H122.252V331.328C122.444 331.04 122.775 330.763 123.244 330.496C123.724 330.219 124.231 330.08 124.764 330.08C125.884 330.08 126.588 330.555 126.876 331.504C127.122 331.12 127.484 330.789 127.964 330.512C128.444 330.224 128.956 330.08 129.5 330.08C130.983 330.08 131.724 330.859 131.724 332.416V338ZM141.53 338.192C140.357 338.192 139.397 337.813 138.65 337.056C137.903 336.288 137.53 335.312 137.53 334.128C137.53 332.955 137.903 331.989 138.65 331.232C139.397 330.464 140.357 330.08 141.53 330.08C142.821 330.08 143.807 330.539 144.49 331.456L143.386 332.48C142.959 331.872 142.367 331.568 141.61 331.568C140.906 331.568 140.341 331.808 139.914 332.288C139.487 332.757 139.274 333.371 139.274 334.128C139.274 334.885 139.487 335.504 139.914 335.984C140.341 336.464 140.906 336.704 141.61 336.704C142.346 336.704 142.938 336.4 143.386 335.792L144.49 336.816C143.807 337.733 142.821 338.192 141.53 338.192ZM149.451 338.192C148.256 338.192 147.296 337.803 146.571 337.024C145.846 336.235 145.483 335.269 145.483 334.128C145.483 332.987 145.846 332.027 146.571 331.248C147.296 330.469 148.256 330.08 149.451 330.08C150.656 330.08 151.622 330.469 152.347 331.248C153.072 332.027 153.435 332.987 153.435 334.128C153.435 335.28 153.072 336.245 152.347 337.024C151.622 337.803 150.656 338.192 149.451 338.192ZM149.451 336.704C150.144 336.704 150.688 336.459 151.083 335.968C151.488 335.467 151.691 334.853 151.691 334.128C151.691 333.413 151.488 332.811 151.083 332.32C150.688 331.819 150.144 331.568 149.451 331.568C148.768 331.568 148.224 331.819 147.819 332.32C147.424 332.811 147.227 333.413 147.227 334.128C147.227 334.853 147.424 335.467 147.819 335.968C148.224 336.459 148.768 336.704 149.451 336.704ZM162.255 338H160.575V336.944C159.935 337.776 159.108 338.192 158.095 338.192C157.082 338.192 156.255 337.829 155.615 337.104C154.975 336.379 154.655 335.392 154.655 334.144C154.655 332.907 154.975 331.92 155.615 331.184C156.255 330.448 157.082 330.08 158.095 330.08C159.108 330.08 159.935 330.501 160.575 331.344V327.328H162.255V338ZM158.575 336.704C158.97 336.704 159.354 336.608 159.727 336.416C160.1 336.224 160.383 335.979 160.575 335.68V332.608C160.383 332.309 160.1 332.064 159.727 331.872C159.354 331.669 158.97 331.568 158.575 331.568C157.914 331.568 157.386 331.808 156.991 332.288C156.596 332.768 156.399 333.387 156.399 334.144C156.399 334.901 156.596 335.52 156.991 336C157.386 336.469 157.914 336.704 158.575 336.704ZM168 338.192C166.826 338.192 165.856 337.819 165.088 337.072C164.33 336.315 163.952 335.333 163.952 334.128C163.952 332.997 164.32 332.043 165.056 331.264C165.802 330.475 166.741 330.08 167.872 330.08C169.013 330.08 169.93 330.475 170.624 331.264C171.328 332.053 171.68 333.061 171.68 334.288V334.688H165.712C165.776 335.296 166.026 335.803 166.464 336.208C166.901 336.613 167.472 336.816 168.176 336.816C168.57 336.816 168.965 336.741 169.36 336.592C169.765 336.443 170.101 336.235 170.368 335.968L171.136 337.072C170.357 337.819 169.312 338.192 168 338.192ZM170.048 333.504C170.026 332.971 169.829 332.496 169.456 332.08C169.093 331.664 168.565 331.456 167.872 331.456C167.21 331.456 166.693 331.664 166.32 332.08C165.946 332.485 165.738 332.96 165.696 333.504H170.048Z" fill="white"/>
<circle opacity="0.7" cx="223" cy="349" r="18" fill="#46D880"/>
<circle opacity="0.7" cx="223.4" cy="349.4" r="11.2" fill="#46D880"/>
<g clip-path="url(#clip0)">
<path d="M235.243 359.433L232.059 356.248L234.33 354.936C234.508 354.834 234.611 354.639 234.596 354.434C234.582 354.23 234.451 354.052 234.261 353.976L224.131 349.935C223.933 349.856 223.706 349.903 223.555 350.054C223.404 350.205 223.357 350.432 223.436 350.63L227.476 360.761C227.552 360.952 227.73 361.082 227.935 361.097C228.139 361.111 228.334 361.008 228.436 360.831L229.748 358.559L232.932 361.743C233.033 361.844 233.169 361.9 233.311 361.9C233.453 361.9 233.589 361.844 233.689 361.743L235.243 360.189C235.452 359.98 235.452 359.642 235.243 359.433Z" fill="white"/>
<path d="M221.749 347.492C221.54 347.283 221.202 347.283 220.993 347.492C220.784 347.701 220.784 348.04 220.993 348.249L222.182 349.438C222.286 349.542 222.423 349.594 222.56 349.594C222.697 349.594 222.834 349.542 222.938 349.438C223.147 349.229 223.147 348.89 222.938 348.681L221.749 347.492Z" fill="white"/>
<path d="M222.152 351.191C222.152 350.896 221.913 350.656 221.617 350.656H219.936C219.641 350.656 219.401 350.895 219.401 351.191C219.401 351.486 219.64 351.726 219.936 351.726H221.617C221.913 351.726 222.152 351.486 222.152 351.191Z" fill="white"/>
<path d="M221.936 352.842L220.747 354.031C220.538 354.24 220.538 354.579 220.747 354.788C220.851 354.892 220.988 354.945 221.125 354.945C221.262 354.945 221.399 354.892 221.503 354.788L222.692 353.599C222.901 353.39 222.901 353.051 222.692 352.842C222.483 352.633 222.145 352.633 221.936 352.842Z" fill="white"/>
<path d="M224.692 348.652C224.987 348.652 225.227 348.412 225.227 348.116V346.435C225.227 346.139 224.987 345.9 224.692 345.9C224.396 345.9 224.157 346.139 224.157 346.435V348.117C224.157 348.412 224.396 348.652 224.692 348.652Z" fill="white"/>
<path d="M226.721 349.348C226.858 349.348 226.995 349.296 227.099 349.191L228.288 348.002C228.497 347.793 228.497 347.455 228.288 347.246C228.079 347.037 227.741 347.037 227.532 347.246L226.343 348.435C226.134 348.644 226.134 348.982 226.343 349.191C226.447 349.296 226.584 349.348 226.721 349.348Z" fill="white"/>
</g>
<path d="M125.508 206.059C128.285 206.059 130.537 203.807 130.537 201.029C130.537 198.252 128.285 196 125.508 196C122.73 196 120.478 198.252 120.478 201.029C120.478 203.807 122.73 206.059 125.508 206.059Z" fill="#FB3E3E"/>
<path opacity="0.6" d="M125.508 239C127.174 239 128.525 237.649 128.525 235.983C128.525 234.316 127.174 232.965 125.508 232.965C123.841 232.965 122.49 234.316 122.49 235.983C122.49 237.649 123.841 239 125.508 239Z" fill="#FB3E3E"/>
<path opacity="0.9" d="M113.149 210.674C115.649 210.674 117.676 208.647 117.676 206.147C117.676 203.647 115.649 201.62 113.149 201.62C110.649 201.62 108.622 203.647 108.622 206.147C108.622 208.647 110.649 210.674 113.149 210.674Z" fill="#FB3E3E"/>
<path opacity="0.5" d="M137.866 233.376C139.255 233.376 140.381 232.251 140.381 230.862C140.381 229.473 139.255 228.347 137.866 228.347C136.477 228.347 135.352 229.473 135.352 230.862C135.352 232.251 136.477 233.376 137.866 233.376Z" fill="#FB3E3E"/>
<path opacity="0.8" d="M108.03 222.529C110.251 222.529 112.052 220.728 112.052 218.507C112.052 216.285 110.251 214.484 108.03 214.484C105.808 214.484 104.007 216.285 104.007 218.507C104.007 220.728 105.808 222.529 108.03 222.529Z" fill="#FB3E3E"/>
<path opacity="0.4" d="M142.984 220.516C144.095 220.516 144.995 219.616 144.995 218.505C144.995 217.395 144.095 216.495 142.984 216.495C141.874 216.495 140.974 217.395 140.974 218.505C140.974 219.616 141.874 220.516 142.984 220.516Z" fill="#FB3E3E"/>
<path opacity="0.7" d="M110.66 228.377C109.284 229.752 109.284 231.978 110.66 233.354C112.034 234.729 114.264 234.729 115.638 233.354C117.013 231.978 117.013 229.752 115.638 228.377C114.264 226.999 112.036 226.986 110.66 228.377Z" fill="#FB3E3E"/>
<path opacity="0.3" d="M137.865 207.655C138.698 207.655 139.373 206.98 139.373 206.147C139.373 205.314 138.698 204.639 137.865 204.639C137.032 204.639 136.357 205.314 136.357 206.147C136.357 206.98 137.032 207.655 137.865 207.655Z" fill="#FB3E3E"/>
<defs>
<clipPath id="clip0">
<rect width="16" height="16" fill="white" transform="translate(219.4 345.9)"/>
</clipPath>
</defs>
</svg>
