<svg width="248" height="392" viewBox="0 0 248 392" fill="none" xmlns="http://www.w3.org/2000/svg">
<rect width="248" height="392" rx="30" fill="#151A23"/>
<path d="M48.4247 38H46.0307L45.1487 35.696H39.6407L38.7587 38H36.3647L41.0807 25.994H43.7087L48.4247 38ZM44.5547 33.842L42.3947 28.118L40.2347 33.842H44.5547ZM53.642 38.216C52.322 38.216 51.242 37.79 50.402 36.938C49.562 36.074 49.142 34.976 49.142 33.644C49.142 32.324 49.562 31.238 50.402 30.386C51.242 29.522 52.322 29.09 53.642 29.09C55.094 29.09 56.204 29.606 56.972 30.638L55.73 31.79C55.25 31.106 54.584 30.764 53.732 30.764C52.94 30.764 52.304 31.034 51.824 31.574C51.344 32.102 51.104 32.792 51.104 33.644C51.104 34.496 51.344 35.192 51.824 35.732C52.304 36.272 52.94 36.542 53.732 36.542C54.56 36.542 55.226 36.2 55.73 35.516L56.972 36.668C56.204 37.7 55.094 38.216 53.642 38.216ZM62.5893 38.216C61.2693 38.216 60.1893 37.79 59.3493 36.938C58.5093 36.074 58.0893 34.976 58.0893 33.644C58.0893 32.324 58.5093 31.238 59.3493 30.386C60.1893 29.522 61.2693 29.09 62.5893 29.09C64.0413 29.09 65.1513 29.606 65.9193 30.638L64.6773 31.79C64.1973 31.106 63.5313 30.764 62.6793 30.764C61.8873 30.764 61.2513 31.034 60.7713 31.574C60.2913 32.102 60.0513 32.792 60.0513 33.644C60.0513 34.496 60.2913 35.192 60.7713 35.732C61.2513 36.272 61.8873 36.542 62.6793 36.542C63.5073 36.542 64.1733 36.2 64.6773 35.516L65.9193 36.668C65.1513 37.7 64.0413 38.216 62.5893 38.216ZM71.5005 38.216C70.1565 38.216 69.0765 37.778 68.2605 36.902C67.4445 36.014 67.0365 34.928 67.0365 33.644C67.0365 32.36 67.4445 31.28 68.2605 30.404C69.0765 29.528 70.1565 29.09 71.5005 29.09C72.8565 29.09 73.9425 29.528 74.7585 30.404C75.5745 31.28 75.9825 32.36 75.9825 33.644C75.9825 34.94 75.5745 36.026 74.7585 36.902C73.9425 37.778 72.8565 38.216 71.5005 38.216ZM71.5005 36.542C72.2805 36.542 72.8925 36.266 73.3365 35.714C73.7925 35.15 74.0205 34.46 74.0205 33.644C74.0205 32.84 73.7925 32.162 73.3365 31.61C72.8925 31.046 72.2805 30.764 71.5005 30.764C70.7325 30.764 70.1205 31.046 69.6645 31.61C69.2205 32.162 68.9985 32.84 68.9985 33.644C68.9985 34.46 69.2205 35.15 69.6645 35.714C70.1205 36.266 70.7325 36.542 71.5005 36.542ZM85.6529 38H83.7629V36.848C82.9469 37.76 81.9209 38.216 80.6849 38.216C78.8249 38.216 77.8949 37.298 77.8949 35.462V29.306H79.7849V34.778C79.7849 35.414 79.9349 35.87 80.2349 36.146C80.5349 36.41 80.9669 36.542 81.5309 36.542C81.9869 36.542 82.4129 36.434 82.8089 36.218C83.2049 36.002 83.5229 35.732 83.7629 35.408V29.306H85.6529V38ZM95.8658 38H93.9758V32.564C93.9758 31.364 93.3938 30.764 92.2298 30.764C91.7738 30.764 91.3478 30.878 90.9518 31.106C90.5558 31.334 90.2378 31.61 89.9978 31.934V38H88.1078V29.306H89.9978V30.494C90.3218 30.11 90.7538 29.78 91.2938 29.504C91.8338 29.228 92.4218 29.09 93.0578 29.09C93.9818 29.09 94.6778 29.33 95.1458 29.81C95.6258 30.29 95.8658 30.98 95.8658 31.88V38ZM100.931 38.216C100.199 38.216 99.6407 38.024 99.2567 37.64C98.8847 37.256 98.6987 36.704 98.6987 35.984V30.962H97.2587V29.306H98.6987V26.93H100.589V29.306H102.353V30.962H100.589V35.516C100.589 35.828 100.661 36.08 100.805 36.272C100.949 36.452 101.153 36.542 101.417 36.542C101.801 36.542 102.083 36.44 102.263 36.236L102.713 37.658C102.317 38.03 101.723 38.216 100.931 38.216ZM114.506 38.216C112.706 38.216 111.206 37.64 110.006 36.488C108.806 35.324 108.206 33.83 108.206 32.006C108.206 30.182 108.806 28.694 110.006 27.542C111.206 26.378 112.706 25.796 114.506 25.796C116.594 25.796 118.202 26.696 119.33 28.496L117.53 29.414C117.23 28.898 116.804 28.478 116.252 28.154C115.712 27.83 115.13 27.668 114.506 27.668C113.318 27.668 112.328 28.076 111.536 28.892C110.756 29.708 110.366 30.746 110.366 32.006C110.366 33.266 110.756 34.304 111.536 35.12C112.328 35.936 113.318 36.344 114.506 36.344C115.142 36.344 115.73 36.182 116.27 35.858C116.81 35.534 117.23 35.114 117.53 34.598L119.33 35.516C118.178 37.316 116.57 38.216 114.506 38.216ZM124.885 38.216C123.541 38.216 122.461 37.778 121.645 36.902C120.829 36.014 120.421 34.928 120.421 33.644C120.421 32.36 120.829 31.28 121.645 30.404C122.461 29.528 123.541 29.09 124.885 29.09C126.241 29.09 127.327 29.528 128.143 30.404C128.959 31.28 129.367 32.36 129.367 33.644C129.367 34.94 128.959 36.026 128.143 36.902C127.327 37.778 126.241 38.216 124.885 38.216ZM124.885 36.542C125.665 36.542 126.277 36.266 126.721 35.714C127.177 35.15 127.405 34.46 127.405 33.644C127.405 32.84 127.177 32.162 126.721 31.61C126.277 31.046 125.665 30.764 124.885 30.764C124.117 30.764 123.505 31.046 123.049 31.61C122.605 32.162 122.383 32.84 122.383 33.644C122.383 34.46 122.605 35.15 123.049 35.714C123.505 36.266 124.117 36.542 124.885 36.542ZM139.038 38H137.148V32.564C137.148 31.364 136.566 30.764 135.402 30.764C134.946 30.764 134.52 30.878 134.124 31.106C133.728 31.334 133.41 31.61 133.17 31.934V38H131.28V29.306H133.17V30.494C133.494 30.11 133.926 29.78 134.466 29.504C135.006 29.228 135.594 29.09 136.23 29.09C137.154 29.09 137.85 29.33 138.318 29.81C138.798 30.29 139.038 30.98 139.038 31.88V38ZM143.833 38H141.943V30.962H140.503V29.306H141.943V28.82C141.943 27.872 142.195 27.134 142.699 26.606C143.203 26.078 143.869 25.814 144.697 25.814C145.309 25.814 145.813 25.928 146.209 26.156L145.795 27.56C145.603 27.428 145.351 27.362 145.039 27.362C144.667 27.362 144.373 27.488 144.157 27.74C143.941 27.98 143.833 28.34 143.833 28.82V29.306H145.597V30.962H143.833V38ZM147.973 28.244C147.661 28.244 147.385 28.13 147.145 27.902C146.917 27.674 146.803 27.398 146.803 27.074C146.803 26.75 146.917 26.474 147.145 26.246C147.385 26.018 147.661 25.904 147.973 25.904C148.297 25.904 148.573 26.018 148.801 26.246C149.029 26.474 149.143 26.75 149.143 27.074C149.143 27.398 149.029 27.674 148.801 27.902C148.573 28.13 148.297 28.244 147.973 28.244ZM148.927 38H147.037V29.306H148.927V38ZM153.261 38H151.371V29.306H153.261V30.584C153.597 30.152 154.017 29.798 154.521 29.522C155.025 29.246 155.547 29.108 156.087 29.108V30.98C155.919 30.944 155.721 30.926 155.493 30.926C155.097 30.926 154.671 31.046 154.215 31.286C153.771 31.514 153.453 31.778 153.261 32.078V38ZM170.158 38H168.268V32.33C168.268 31.286 167.794 30.764 166.846 30.764C166.45 30.764 166.066 30.878 165.694 31.106C165.322 31.334 165.034 31.604 164.83 31.916V38H162.94V32.33C162.94 31.286 162.46 30.764 161.5 30.764C161.116 30.764 160.738 30.878 160.366 31.106C160.006 31.334 159.718 31.61 159.502 31.934V38H157.612V29.306H159.502V30.494C159.718 30.17 160.09 29.858 160.618 29.558C161.158 29.246 161.728 29.09 162.328 29.09C163.588 29.09 164.38 29.624 164.704 30.692C164.98 30.26 165.388 29.888 165.928 29.576C166.468 29.252 167.044 29.09 167.656 29.09C169.324 29.09 170.158 29.966 170.158 31.718V38ZM179.806 38H177.916V37.064C177.244 37.832 176.308 38.216 175.108 38.216C174.316 38.216 173.614 37.964 173.002 37.46C172.39 36.944 172.084 36.236 172.084 35.336C172.084 34.412 172.384 33.71 172.984 33.23C173.596 32.75 174.304 32.51 175.108 32.51C176.344 32.51 177.28 32.882 177.916 33.626V32.33C177.916 31.826 177.73 31.43 177.358 31.142C176.986 30.854 176.494 30.71 175.882 30.71C174.91 30.71 174.052 31.076 173.308 31.808L172.534 30.494C173.518 29.558 174.736 29.09 176.188 29.09C177.256 29.09 178.126 29.342 178.798 29.846C179.47 30.35 179.806 31.148 179.806 32.24V38ZM175.846 36.92C176.794 36.92 177.484 36.62 177.916 36.02V34.706C177.484 34.106 176.794 33.806 175.846 33.806C175.306 33.806 174.862 33.95 174.514 34.238C174.166 34.526 173.992 34.904 173.992 35.372C173.992 35.84 174.166 36.218 174.514 36.506C174.862 36.782 175.306 36.92 175.846 36.92ZM184.866 38.216C184.134 38.216 183.576 38.024 183.192 37.64C182.82 37.256 182.634 36.704 182.634 35.984V30.962H181.194V29.306H182.634V26.93H184.524V29.306H186.288V30.962H184.524V35.516C184.524 35.828 184.596 36.08 184.74 36.272C184.884 36.452 185.088 36.542 185.352 36.542C185.736 36.542 186.018 36.44 186.198 36.236L186.648 37.658C186.252 38.03 185.658 38.216 184.866 38.216ZM188.94 28.244C188.628 28.244 188.352 28.13 188.112 27.902C187.884 27.674 187.77 27.398 187.77 27.074C187.77 26.75 187.884 26.474 188.112 26.246C188.352 26.018 188.628 25.904 188.94 25.904C189.264 25.904 189.54 26.018 189.768 26.246C189.996 26.474 190.11 26.75 190.11 27.074C190.11 27.398 189.996 27.674 189.768 27.902C189.54 28.13 189.264 28.244 188.94 28.244ZM189.894 38H188.004V29.306H189.894V38ZM196.27 38.216C194.926 38.216 193.846 37.778 193.03 36.902C192.214 36.014 191.806 34.928 191.806 33.644C191.806 32.36 192.214 31.28 193.03 30.404C193.846 29.528 194.926 29.09 196.27 29.09C197.626 29.09 198.712 29.528 199.528 30.404C200.344 31.28 200.752 32.36 200.752 33.644C200.752 34.94 200.344 36.026 199.528 36.902C198.712 37.778 197.626 38.216 196.27 38.216ZM196.27 36.542C197.05 36.542 197.662 36.266 198.106 35.714C198.562 35.15 198.79 34.46 198.79 33.644C198.79 32.84 198.562 32.162 198.106 31.61C197.662 31.046 197.05 30.764 196.27 30.764C195.502 30.764 194.89 31.046 194.434 31.61C193.99 32.162 193.768 32.84 193.768 33.644C193.768 34.46 193.99 35.15 194.434 35.714C194.89 36.266 195.502 36.542 196.27 36.542ZM210.422 38H208.532V32.564C208.532 31.364 207.95 30.764 206.786 30.764C206.33 30.764 205.904 30.878 205.508 31.106C205.112 31.334 204.794 31.61 204.554 31.934V38H202.664V29.306H204.554V30.494C204.878 30.11 205.31 29.78 205.85 29.504C206.39 29.228 206.978 29.09 207.614 29.09C208.538 29.09 209.234 29.33 209.702 29.81C210.182 30.29 210.422 30.98 210.422 31.88V38Z" fill="white"/>
<circle cx="58.5" cy="97.5" r="21.75" stroke="#46D880" stroke-width="1.5"/>
<path fill-rule="evenodd" clip-rule="evenodd" d="M56.9166 89.75L56.8738 89.75C55.4659 89.75 54.3504 89.75 53.4608 89.8429C52.5492 89.9382 51.7897 90.1376 51.13 90.5942C50.6601 90.9195 50.2527 91.3268 49.9275 91.7968C49.4709 92.4565 49.2714 93.2159 49.1762 94.1276C49.0832 95.0171 49.0832 96.1326 49.0833 97.5405L49.0833 97.5833L49.0833 97.6261C49.0832 99.034 49.0832 100.15 49.1762 101.039C49.2714 101.951 49.4709 102.71 49.9275 103.37C50.2527 103.84 50.6601 104.247 51.13 104.572C51.7897 105.029 52.5492 105.228 53.4608 105.324C54.3504 105.417 55.4659 105.417 56.8738 105.417H56.9166H61.0833H61.126C62.5339 105.417 63.6495 105.417 64.539 105.324C65.4507 105.228 66.2101 105.029 66.8698 104.572C67.3397 104.247 67.7471 103.84 68.0724 103.37C68.5289 102.71 68.7284 101.951 68.8237 101.039C68.9166 100.15 68.9166 99.034 68.9166 97.6261V97.5833V97.5406C68.9166 96.1327 68.9166 95.0171 68.8237 94.1276C68.7284 93.2159 68.5289 92.4565 68.0724 91.7968C67.7471 91.3268 67.3397 90.9195 66.8698 90.5942C66.2101 90.1376 65.4507 89.9382 64.539 89.8429C63.6495 89.75 62.5339 89.75 61.126 89.75L61.0833 89.75H56.9166ZM51.9837 91.8276C52.3512 91.5733 52.8274 91.4173 53.6167 91.3348C54.4192 91.251 55.4563 91.25 56.9166 91.25H61.0833C62.5435 91.25 63.5807 91.251 64.3831 91.3348C65.1724 91.4173 65.6487 91.5733 66.0162 91.8276C66.3377 92.0502 66.6164 92.3289 66.839 92.6504C66.9896 92.868 67.1057 93.1238 67.1925 93.4601L60.7448 97.5632C59.6802 98.2406 58.3197 98.2406 57.2551 97.5632L50.8073 93.4601C50.8941 93.1238 51.0103 92.868 51.1609 92.6504C51.3834 92.3289 51.6621 92.0502 51.9837 91.8276ZM50.6111 95.1132C50.5837 95.7778 50.5833 96.5809 50.5833 97.5833C50.5833 99.0436 50.5842 100.081 50.6681 100.883C50.7505 101.673 50.9065 102.149 51.1609 102.516C51.3834 102.838 51.6621 103.117 51.9837 103.339C52.3512 103.593 52.8274 103.749 53.6167 103.832C54.4192 103.916 55.4563 103.917 56.9166 103.917H61.0833C62.5435 103.917 63.5807 103.916 64.3831 103.832C65.1724 103.749 65.6487 103.593 66.0162 103.339C66.3377 103.117 66.6164 102.838 66.839 102.516C67.0933 102.149 67.2493 101.673 67.3318 100.883C67.4156 100.081 67.4166 99.0436 67.4166 97.5833C67.4166 96.5809 67.4161 95.7778 67.3887 95.1132L61.5501 98.8287C59.9941 99.8188 58.0057 99.8188 56.4498 98.8287L50.6111 95.1132Z" fill="white"/>
<path d="M50.2354 146H44.1174V136.662H50.2354V137.698H45.2794V140.708H50.1374V141.744H45.2794V144.964H50.2354V146ZM61.2581 146H60.2081V141.408C60.2081 140.475 59.7928 140.008 58.9621 140.008C58.6261 140.008 58.2901 140.111 57.9541 140.316C57.6181 140.521 57.3568 140.764 57.1701 141.044V146H56.1201V141.408C56.1201 140.475 55.7048 140.008 54.8741 140.008C54.5474 140.008 54.2161 140.111 53.8801 140.316C53.5534 140.521 53.2921 140.769 53.0961 141.058V146H52.0461V139.238H53.0961V140.218C53.2641 139.957 53.5581 139.7 53.9781 139.448C54.3981 139.196 54.8321 139.07 55.2801 139.07C55.7748 139.07 56.1761 139.187 56.4841 139.42C56.7921 139.653 56.9974 139.957 57.1001 140.33C57.3054 139.994 57.6181 139.7 58.0381 139.448C58.4581 139.196 58.9014 139.07 59.3681 139.07C60.6281 139.07 61.2581 139.751 61.2581 141.114V146ZM68.6307 146H67.5807V145.23C67.0114 145.855 66.2647 146.168 65.3407 146.168C64.7154 146.168 64.1647 145.967 63.6887 145.566C63.2127 145.165 62.9747 144.619 62.9747 143.928C62.9747 143.219 63.2081 142.673 63.6747 142.29C64.1507 141.898 64.7061 141.702 65.3407 141.702C66.3021 141.702 67.0487 142.01 67.5807 142.626V141.408C67.5807 140.96 67.4221 140.61 67.1047 140.358C66.7874 140.106 66.3767 139.98 65.8727 139.98C65.0794 139.98 64.3887 140.293 63.8007 140.918L63.3107 140.19C64.0294 139.443 64.9301 139.07 66.0127 139.07C66.7874 139.07 67.4174 139.257 67.9027 139.63C68.3881 140.003 68.6307 140.577 68.6307 141.352V146ZM65.7187 145.412C66.5587 145.412 67.1794 145.132 67.5807 144.572V143.298C67.1794 142.738 66.5587 142.458 65.7187 142.458C65.2334 142.458 64.8321 142.598 64.5147 142.878C64.2067 143.149 64.0527 143.503 64.0527 143.942C64.0527 144.371 64.2067 144.726 64.5147 145.006C64.8321 145.277 65.2334 145.412 65.7187 145.412ZM71.2535 138.272C71.0669 138.272 70.9035 138.207 70.7635 138.076C70.6235 137.936 70.5535 137.768 70.5535 137.572C70.5535 137.376 70.6235 137.208 70.7635 137.068C70.9035 136.928 71.0669 136.858 71.2535 136.858C71.4495 136.858 71.6175 136.928 71.7575 137.068C71.8975 137.208 71.9675 137.376 71.9675 137.572C71.9675 137.768 71.8975 137.936 71.7575 138.076C71.6175 138.207 71.4495 138.272 71.2535 138.272ZM71.7855 146H70.7355V139.238H71.7855V146ZM74.9301 146H73.8801V136.662H74.9301V146ZM30.0353 169H28.8873L26.0733 162.238H27.2073L29.4613 167.782L31.7013 162.238H32.8493L30.0353 169ZM36.9965 169.168C35.9885 169.168 35.1625 168.841 34.5185 168.188C33.8745 167.525 33.5525 166.667 33.5525 165.612C33.5525 164.623 33.8699 163.787 34.5045 163.106C35.1392 162.415 35.9325 162.07 36.8845 162.07C37.8832 162.07 38.6719 162.415 39.2505 163.106C39.8385 163.787 40.1325 164.651 40.1325 165.696V165.962H34.6585C34.7052 166.625 34.9479 167.18 35.3865 167.628C35.8252 168.076 36.3945 168.3 37.0945 168.3C37.9345 168.3 38.6299 168.015 39.1805 167.446L39.6845 168.132C38.9939 168.823 38.0979 169.168 36.9965 169.168ZM39.0965 165.192C39.0872 164.613 38.8912 164.095 38.5085 163.638C38.1259 163.171 37.5799 162.938 36.8705 162.938C36.1985 162.938 35.6665 163.167 35.2745 163.624C34.8919 164.081 34.6865 164.604 34.6585 165.192H39.0965ZM42.8832 169H41.8332V162.238H42.8832V163.33C43.5085 162.509 44.2599 162.098 45.1372 162.098V163.176C45.0065 163.148 44.8665 163.134 44.7172 163.134C44.3999 163.134 44.0545 163.246 43.6812 163.47C43.3079 163.694 43.0419 163.941 42.8832 164.212V169ZM46.9723 161.272C46.7856 161.272 46.6223 161.207 46.4823 161.076C46.3423 160.936 46.2723 160.768 46.2723 160.572C46.2723 160.376 46.3423 160.208 46.4823 160.068C46.6223 159.928 46.7856 159.858 46.9723 159.858C47.1683 159.858 47.3363 159.928 47.4763 160.068C47.6163 160.208 47.6863 160.376 47.6863 160.572C47.6863 160.768 47.6163 160.936 47.4763 161.076C47.3363 161.207 47.1683 161.272 46.9723 161.272ZM47.5043 169H46.4543V162.238H47.5043V169ZM50.9428 169H49.8928V163.162H48.7728V162.238H49.8928V161.72C49.8928 161.029 50.0702 160.493 50.4248 160.11C50.7795 159.718 51.2555 159.522 51.8528 159.522C52.2822 159.522 52.6228 159.601 52.8748 159.76L52.6088 160.558C52.4315 160.446 52.2308 160.39 52.0068 160.39C51.6615 160.39 51.3955 160.507 51.2088 160.74C51.0315 160.964 50.9428 161.291 50.9428 161.72V162.238H52.3148V163.162H50.9428V169ZM54.0788 161.272C53.8922 161.272 53.7288 161.207 53.5888 161.076C53.4488 160.936 53.3788 160.768 53.3788 160.572C53.3788 160.376 53.4488 160.208 53.5888 160.068C53.7288 159.928 53.8922 159.858 54.0788 159.858C54.2748 159.858 54.4428 159.928 54.5828 160.068C54.7228 160.208 54.7928 160.376 54.7928 160.572C54.7928 160.768 54.7228 160.936 54.5828 161.076C54.4428 161.207 54.2748 161.272 54.0788 161.272ZM54.6108 169H53.5608V162.238H54.6108V169ZM59.7039 169.168C58.7052 169.168 57.8932 168.832 57.2679 168.16C56.6425 167.479 56.3299 166.629 56.3299 165.612C56.3299 164.595 56.6425 163.75 57.2679 163.078C57.8932 162.406 58.7052 162.07 59.7039 162.07C60.7492 162.07 61.5752 162.462 62.1819 163.246L61.4819 163.89C61.0525 163.302 60.4785 163.008 59.7599 163.008C59.0505 163.008 58.4812 163.251 58.0519 163.736C57.6319 164.221 57.4219 164.847 57.4219 165.612C57.4219 166.377 57.6319 167.007 58.0519 167.502C58.4812 167.987 59.0505 168.23 59.7599 168.23C60.4692 168.23 61.0432 167.936 61.4819 167.348L62.1819 167.992C61.5752 168.776 60.7492 169.168 59.7039 169.168ZM68.9315 169H67.8815V168.23C67.3122 168.855 66.5655 169.168 65.6415 169.168C65.0162 169.168 64.4655 168.967 63.9895 168.566C63.5135 168.165 63.2755 167.619 63.2755 166.928C63.2755 166.219 63.5088 165.673 63.9755 165.29C64.4515 164.898 65.0068 164.702 65.6415 164.702C66.6028 164.702 67.3495 165.01 67.8815 165.626V164.408C67.8815 163.96 67.7228 163.61 67.4055 163.358C67.0882 163.106 66.6775 162.98 66.1735 162.98C65.3802 162.98 64.6895 163.293 64.1015 163.918L63.6115 163.19C64.3302 162.443 65.2308 162.07 66.3135 162.07C67.0882 162.07 67.7182 162.257 68.2035 162.63C68.6888 163.003 68.9315 163.577 68.9315 164.352V169ZM66.0195 168.412C66.8595 168.412 67.4802 168.132 67.8815 167.572V166.298C67.4802 165.738 66.8595 165.458 66.0195 165.458C65.5342 165.458 65.1328 165.598 64.8155 165.878C64.5075 166.149 64.3535 166.503 64.3535 166.942C64.3535 167.371 64.5075 167.726 64.8155 168.006C65.1328 168.277 65.5342 168.412 66.0195 168.412ZM72.7443 169.168C72.2497 169.168 71.8763 169.033 71.6243 168.762C71.3723 168.491 71.2463 168.099 71.2463 167.586V163.162H70.1263V162.238H71.2463V160.39H72.2963V162.238H73.6683V163.162H72.2963V167.362C72.2963 167.623 72.3523 167.833 72.4643 167.992C72.5857 168.151 72.7583 168.23 72.9823 168.23C73.2903 168.23 73.5283 168.137 73.6963 167.95L74.0043 168.734C73.6963 169.023 73.2763 169.168 72.7443 169.168ZM75.6696 161.272C75.4829 161.272 75.3196 161.207 75.1796 161.076C75.0396 160.936 74.9696 160.768 74.9696 160.572C74.9696 160.376 75.0396 160.208 75.1796 160.068C75.3196 159.928 75.4829 159.858 75.6696 159.858C75.8656 159.858 76.0336 159.928 76.1736 160.068C76.3136 160.208 76.3836 160.376 76.3836 160.572C76.3836 160.768 76.3136 160.936 76.1736 161.076C76.0336 161.207 75.8656 161.272 75.6696 161.272ZM76.2016 169H75.1516V162.238H76.2016V169ZM83.6721 168.146C83.0654 168.827 82.2581 169.168 81.2501 169.168C80.2421 169.168 79.4301 168.827 78.8141 168.146C78.2074 167.465 77.9041 166.62 77.9041 165.612C77.9041 164.604 78.2074 163.764 78.8141 163.092C79.4301 162.411 80.2421 162.07 81.2501 162.07C82.2581 162.07 83.0654 162.411 83.6721 163.092C84.2881 163.764 84.5961 164.604 84.5961 165.612C84.5961 166.62 84.2881 167.465 83.6721 168.146ZM79.5981 167.474C80.0088 167.978 80.5594 168.23 81.2501 168.23C81.9408 168.23 82.4868 167.978 82.8881 167.474C83.2894 166.961 83.4901 166.34 83.4901 165.612C83.4901 164.884 83.2894 164.268 82.8881 163.764C82.4868 163.26 81.9408 163.008 81.2501 163.008C80.5594 163.008 80.0088 163.265 79.5981 163.778C79.1968 164.282 78.9961 164.893 78.9961 165.612C78.9961 166.34 79.1968 166.961 79.5981 167.474ZM91.9218 169H90.8718V164.576C90.8718 164.007 90.7411 163.605 90.4798 163.372C90.2185 163.129 89.8451 163.008 89.3598 163.008C88.9678 163.008 88.5851 163.111 88.2118 163.316C87.8478 163.521 87.5631 163.769 87.3578 164.058V169H86.3078V162.238H87.3578V163.218C87.6191 162.91 87.9691 162.644 88.4078 162.42C88.8465 162.187 89.2991 162.07 89.7658 162.07C91.2031 162.07 91.9218 162.798 91.9218 164.254V169Z" fill="white"/>
<circle cx="179.5" cy="97.5" r="21.75" stroke="#FB3E3E" stroke-width="1.5"/>
<path fill-rule="evenodd" clip-rule="evenodd" d="M178.967 88.0834L178.935 88.0834C178.122 88.0834 177.466 88.0834 176.935 88.1267C176.389 88.1714 175.909 88.2658 175.464 88.4921C174.759 88.8516 174.185 89.4253 173.825 90.1309C173.599 90.5751 173.505 91.0553 173.46 91.6019C173.417 92.1328 173.417 92.7884 173.417 93.6013L173.417 93.6334V102.367L173.417 102.399C173.417 103.212 173.417 103.867 173.46 104.398C173.505 104.945 173.599 105.425 173.825 105.869C174.185 106.575 174.759 107.148 175.464 107.508C175.909 107.734 176.389 107.829 176.935 107.873C177.466 107.917 178.122 107.917 178.935 107.917H178.935H178.967H181.033H181.066H181.066C181.878 107.917 182.534 107.917 183.065 107.873C183.612 107.829 184.092 107.734 184.536 107.508C185.241 107.148 185.815 106.575 186.175 105.869C186.401 105.425 186.495 104.945 186.54 104.398C186.583 103.867 186.583 103.212 186.583 102.399V102.367V93.6334V93.6013C186.583 92.7884 186.583 92.1328 186.54 91.6019C186.495 91.0553 186.401 90.5751 186.175 90.1309C185.815 89.4253 185.241 88.8516 184.536 88.4921C184.092 88.2658 183.612 88.1714 183.065 88.1267C182.534 88.0834 181.878 88.0834 181.066 88.0834L181.033 88.0834H178.967ZM176.145 89.8286C176.343 89.728 176.604 89.6588 177.057 89.6218C177.52 89.584 178.114 89.5834 178.967 89.5834H181.033C181.886 89.5834 182.48 89.584 182.943 89.6218C183.397 89.6588 183.657 89.728 183.855 89.8286C184.278 90.0443 184.622 90.3885 184.838 90.8119C184.939 91.0094 185.008 91.2702 185.045 91.7241C185.083 92.1867 185.083 92.7809 185.083 93.6334V102.367C185.083 103.219 185.083 103.813 185.045 104.276C185.008 104.73 184.939 104.991 184.838 105.188C184.622 105.612 184.278 105.956 183.855 106.171C183.657 106.272 183.397 106.341 182.943 106.378C182.48 106.416 181.886 106.417 181.033 106.417H178.967C178.114 106.417 177.52 106.416 177.057 106.378C176.604 106.341 176.343 106.272 176.145 106.171C175.722 105.956 175.378 105.612 175.162 105.188C175.061 104.991 174.992 104.73 174.955 104.276C174.917 103.813 174.917 103.219 174.917 102.367V93.6334C174.917 92.7809 174.917 92.1867 174.955 91.7241C174.992 91.2702 175.061 91.0094 175.162 90.8119C175.378 90.3885 175.722 90.0443 176.145 89.8286ZM178.333 89.75C177.919 89.75 177.583 90.0858 177.583 90.5C177.583 90.9143 177.919 91.25 178.333 91.25H181.667C182.081 91.25 182.417 90.9143 182.417 90.5C182.417 90.0858 182.081 89.75 181.667 89.75H178.333Z" fill="white"/>
<path d="M169.953 146H168.791V138.314L165.613 146H165.137L161.973 138.314V146H160.811V136.662H162.477L165.375 143.69L168.287 136.662H169.953V146ZM177.465 145.146C176.858 145.827 176.051 146.168 175.043 146.168C174.035 146.168 173.223 145.827 172.607 145.146C172 144.465 171.697 143.62 171.697 142.612C171.697 141.604 172 140.764 172.607 140.092C173.223 139.411 174.035 139.07 175.043 139.07C176.051 139.07 176.858 139.411 177.465 140.092C178.081 140.764 178.389 141.604 178.389 142.612C178.389 143.62 178.081 144.465 177.465 145.146ZM173.391 144.474C173.802 144.978 174.352 145.23 175.043 145.23C175.734 145.23 176.28 144.978 176.681 144.474C177.082 143.961 177.283 143.34 177.283 142.612C177.283 141.884 177.082 141.268 176.681 140.764C176.28 140.26 175.734 140.008 175.043 140.008C174.352 140.008 173.802 140.265 173.391 140.778C172.99 141.282 172.789 141.893 172.789 142.612C172.789 143.34 172.99 143.961 173.391 144.474ZM181.151 144.166C181.337 144.465 181.617 144.717 181.991 144.922C182.373 145.127 182.765 145.23 183.167 145.23C183.839 145.23 184.371 144.987 184.763 144.502C185.155 144.017 185.351 143.391 185.351 142.626C185.351 141.861 185.155 141.235 184.763 140.75C184.371 140.255 183.839 140.008 183.167 140.008C182.765 140.008 182.373 140.115 181.991 140.33C181.617 140.535 181.337 140.792 181.151 141.1V144.166ZM181.151 146H180.101V136.662H181.151V140.26C181.739 139.467 182.499 139.07 183.433 139.07C184.319 139.07 185.043 139.397 185.603 140.05C186.163 140.694 186.443 141.553 186.443 142.626C186.443 143.709 186.163 144.572 185.603 145.216C185.052 145.851 184.329 146.168 183.433 146.168C182.49 146.168 181.729 145.776 181.151 144.992V146ZM188.672 138.272C188.485 138.272 188.322 138.207 188.182 138.076C188.042 137.936 187.972 137.768 187.972 137.572C187.972 137.376 188.042 137.208 188.182 137.068C188.322 136.928 188.485 136.858 188.672 136.858C188.868 136.858 189.036 136.928 189.176 137.068C189.316 137.208 189.386 137.376 189.386 137.572C189.386 137.768 189.316 137.936 189.176 138.076C189.036 138.207 188.868 138.272 188.672 138.272ZM189.204 146H188.154V139.238H189.204V146ZM192.348 146H191.298V136.662H192.348V146ZM197.495 146.168C196.487 146.168 195.661 145.841 195.017 145.188C194.373 144.525 194.051 143.667 194.051 142.612C194.051 141.623 194.368 140.787 195.003 140.106C195.637 139.415 196.431 139.07 197.383 139.07C198.381 139.07 199.17 139.415 199.749 140.106C200.337 140.787 200.631 141.651 200.631 142.696V142.962H195.157C195.203 143.625 195.446 144.18 195.885 144.628C196.323 145.076 196.893 145.3 197.593 145.3C198.433 145.3 199.128 145.015 199.679 144.446L200.183 145.132C199.492 145.823 198.596 146.168 197.495 146.168ZM199.595 142.192C199.585 141.613 199.389 141.095 199.007 140.638C198.624 140.171 198.078 139.938 197.369 139.938C196.697 139.938 196.165 140.167 195.773 140.624C195.39 141.081 195.185 141.604 195.157 142.192H199.595ZM151.035 169H149.887L147.073 162.238H148.207L150.461 167.782L152.701 162.238H153.849L151.035 169ZM157.997 169.168C156.989 169.168 156.163 168.841 155.519 168.188C154.875 167.525 154.553 166.667 154.553 165.612C154.553 164.623 154.87 163.787 155.505 163.106C156.139 162.415 156.933 162.07 157.885 162.07C158.883 162.07 159.672 162.415 160.251 163.106C160.839 163.787 161.133 164.651 161.133 165.696V165.962H155.659C155.705 166.625 155.948 167.18 156.387 167.628C156.825 168.076 157.395 168.3 158.095 168.3C158.935 168.3 159.63 168.015 160.181 167.446L160.685 168.132C159.994 168.823 159.098 169.168 157.997 169.168ZM160.097 165.192C160.087 164.613 159.891 164.095 159.509 163.638C159.126 163.171 158.58 162.938 157.871 162.938C157.199 162.938 156.667 163.167 156.275 163.624C155.892 164.081 155.687 164.604 155.659 165.192H160.097ZM163.883 169H162.833V162.238H163.883V163.33C164.509 162.509 165.26 162.098 166.137 162.098V163.176C166.007 163.148 165.867 163.134 165.717 163.134C165.4 163.134 165.055 163.246 164.681 163.47C164.308 163.694 164.042 163.941 163.883 164.212V169ZM167.972 161.272C167.786 161.272 167.622 161.207 167.482 161.076C167.342 160.936 167.272 160.768 167.272 160.572C167.272 160.376 167.342 160.208 167.482 160.068C167.622 159.928 167.786 159.858 167.972 159.858C168.168 159.858 168.336 159.928 168.476 160.068C168.616 160.208 168.686 160.376 168.686 160.572C168.686 160.768 168.616 160.936 168.476 161.076C168.336 161.207 168.168 161.272 167.972 161.272ZM168.504 169H167.454V162.238H168.504V169ZM171.943 169H170.893V163.162H169.773V162.238H170.893V161.72C170.893 161.029 171.07 160.493 171.425 160.11C171.779 159.718 172.255 159.522 172.853 159.522C173.282 159.522 173.623 159.601 173.875 159.76L173.609 160.558C173.431 160.446 173.231 160.39 173.007 160.39C172.661 160.39 172.395 160.507 172.209 160.74C172.031 160.964 171.943 161.291 171.943 161.72V162.238H173.315V163.162H171.943V169ZM175.079 161.272C174.892 161.272 174.729 161.207 174.589 161.076C174.449 160.936 174.379 160.768 174.379 160.572C174.379 160.376 174.449 160.208 174.589 160.068C174.729 159.928 174.892 159.858 175.079 159.858C175.275 159.858 175.443 159.928 175.583 160.068C175.723 160.208 175.793 160.376 175.793 160.572C175.793 160.768 175.723 160.936 175.583 161.076C175.443 161.207 175.275 161.272 175.079 161.272ZM175.611 169H174.561V162.238H175.611V169ZM180.704 169.168C179.705 169.168 178.893 168.832 178.268 168.16C177.643 167.479 177.33 166.629 177.33 165.612C177.33 164.595 177.643 163.75 178.268 163.078C178.893 162.406 179.705 162.07 180.704 162.07C181.749 162.07 182.575 162.462 183.182 163.246L182.482 163.89C182.053 163.302 181.479 163.008 180.76 163.008C180.051 163.008 179.481 163.251 179.052 163.736C178.632 164.221 178.422 164.847 178.422 165.612C178.422 166.377 178.632 167.007 179.052 167.502C179.481 167.987 180.051 168.23 180.76 168.23C181.469 168.23 182.043 167.936 182.482 167.348L183.182 167.992C182.575 168.776 181.749 169.168 180.704 169.168ZM189.932 169H188.882V168.23C188.312 168.855 187.566 169.168 186.642 169.168C186.016 169.168 185.466 168.967 184.99 168.566C184.514 168.165 184.276 167.619 184.276 166.928C184.276 166.219 184.509 165.673 184.976 165.29C185.452 164.898 186.007 164.702 186.642 164.702C187.603 164.702 188.35 165.01 188.882 165.626V164.408C188.882 163.96 188.723 163.61 188.406 163.358C188.088 163.106 187.678 162.98 187.174 162.98C186.38 162.98 185.69 163.293 185.102 163.918L184.612 163.19C185.33 162.443 186.231 162.07 187.314 162.07C188.088 162.07 188.718 162.257 189.204 162.63C189.689 163.003 189.932 163.577 189.932 164.352V169ZM187.02 168.412C187.86 168.412 188.48 168.132 188.882 167.572V166.298C188.48 165.738 187.86 165.458 187.02 165.458C186.534 165.458 186.133 165.598 185.816 165.878C185.508 166.149 185.354 166.503 185.354 166.942C185.354 167.371 185.508 167.726 185.816 168.006C186.133 168.277 186.534 168.412 187.02 168.412ZM193.744 169.168C193.25 169.168 192.876 169.033 192.624 168.762C192.372 168.491 192.246 168.099 192.246 167.586V163.162H191.126V162.238H192.246V160.39H193.296V162.238H194.668V163.162H193.296V167.362C193.296 167.623 193.352 167.833 193.464 167.992C193.586 168.151 193.758 168.23 193.982 168.23C194.29 168.23 194.528 168.137 194.696 167.95L195.004 168.734C194.696 169.023 194.276 169.168 193.744 169.168ZM196.67 161.272C196.483 161.272 196.32 161.207 196.18 161.076C196.04 160.936 195.97 160.768 195.97 160.572C195.97 160.376 196.04 160.208 196.18 160.068C196.32 159.928 196.483 159.858 196.67 159.858C196.866 159.858 197.034 159.928 197.174 160.068C197.314 160.208 197.384 160.376 197.384 160.572C197.384 160.768 197.314 160.936 197.174 161.076C197.034 161.207 196.866 161.272 196.67 161.272ZM197.202 169H196.152V162.238H197.202V169ZM204.672 168.146C204.065 168.827 203.258 169.168 202.25 169.168C201.242 169.168 200.43 168.827 199.814 168.146C199.207 167.465 198.904 166.62 198.904 165.612C198.904 164.604 199.207 163.764 199.814 163.092C200.43 162.411 201.242 162.07 202.25 162.07C203.258 162.07 204.065 162.411 204.672 163.092C205.288 163.764 205.596 164.604 205.596 165.612C205.596 166.62 205.288 167.465 204.672 168.146ZM200.598 167.474C201.009 167.978 201.559 168.23 202.25 168.23C202.941 168.23 203.487 167.978 203.888 167.474C204.289 166.961 204.49 166.34 204.49 165.612C204.49 164.884 204.289 164.268 203.888 163.764C203.487 163.26 202.941 163.008 202.25 163.008C201.559 163.008 201.009 163.265 200.598 163.778C200.197 164.282 199.996 164.893 199.996 165.612C199.996 166.34 200.197 166.961 200.598 167.474ZM212.922 169H211.872V164.576C211.872 164.007 211.741 163.605 211.48 163.372C211.218 163.129 210.845 163.008 210.36 163.008C209.968 163.008 209.585 163.111 209.212 163.316C208.848 163.521 208.563 163.769 208.358 164.058V169H207.308V162.238H208.358V163.218C208.619 162.91 208.969 162.644 209.408 162.42C209.846 162.187 210.299 162.07 210.766 162.07C212.203 162.07 212.922 162.798 212.922 164.254V169Z" fill="white"/>
<g opacity="0.5">
<path fill-rule="evenodd" clip-rule="evenodd" d="M123.293 119.293C122.902 119.683 122.902 120.317 123.293 120.707L127.586 125H110C109.448 125 109 125.448 109 126C109 126.552 109.448 127 110 127H127.586L123.293 131.293C122.902 131.683 122.902 132.317 123.293 132.707C123.683 133.098 124.317 133.098 124.707 132.707L130.707 126.707C130.895 126.52 131 126.265 131 126C131 125.735 130.895 125.48 130.707 125.293L124.707 119.293C124.317 118.902 123.683 118.902 123.293 119.293Z" fill="white"/>
</g>
<circle cx="76" cy="111" r="8.75" fill="#46D880" stroke="#151A23" stroke-width="1.5"/>
<path fill-rule="evenodd" clip-rule="evenodd" d="M74.9618 114.416C74.7828 114.407 74.6063 114.334 74.4696 114.197L72.4697 112.197C72.1768 111.904 72.1768 111.429 72.4697 111.136C72.7626 110.843 73.2374 110.843 73.5303 111.136L75 112.606L79.1365 108.47C79.4294 108.177 79.9042 108.177 80.1971 108.47C80.49 108.763 80.49 109.237 80.1971 109.53L75.5305 114.197C75.3743 114.353 75.1663 114.426 74.9618 114.416Z" fill="white"/>
<rect x="20.5" y="314.5" width="207" height="38" rx="9.5" stroke="#46D880"/>
<path d="M110.784 338.192C108.949 338.192 107.504 337.627 106.448 336.496L107.488 335.056C108.405 336.037 109.531 336.528 110.864 336.528C111.579 336.528 112.112 336.384 112.464 336.096C112.827 335.808 113.008 335.467 113.008 335.072C113.008 334.667 112.795 334.347 112.368 334.112C111.941 333.867 111.424 333.675 110.816 333.536C110.208 333.397 109.595 333.232 108.976 333.04C108.368 332.848 107.851 332.523 107.424 332.064C106.997 331.605 106.784 331.013 106.784 330.288C106.784 329.392 107.141 328.651 107.856 328.064C108.581 327.467 109.52 327.168 110.672 327.168C112.315 327.168 113.648 327.664 114.672 328.656L113.6 330.048C112.789 329.237 111.76 328.832 110.512 328.832C109.957 328.832 109.515 328.955 109.184 329.2C108.864 329.435 108.704 329.755 108.704 330.16C108.704 330.427 108.816 330.651 109.04 330.832C109.275 331.013 109.573 331.163 109.936 331.28C110.299 331.387 110.699 331.493 111.136 331.6C111.584 331.707 112.027 331.84 112.464 332C112.912 332.149 113.317 332.336 113.68 332.56C114.043 332.784 114.336 333.093 114.56 333.488C114.795 333.883 114.912 334.352 114.912 334.896C114.912 335.856 114.565 336.645 113.872 337.264C113.179 337.883 112.149 338.192 110.784 338.192ZM120.156 338.192C118.983 338.192 118.012 337.819 117.244 337.072C116.487 336.315 116.108 335.333 116.108 334.128C116.108 332.997 116.476 332.043 117.212 331.264C117.959 330.475 118.897 330.08 120.028 330.08C121.169 330.08 122.087 330.475 122.78 331.264C123.484 332.053 123.836 333.061 123.836 334.288V334.688H117.868C117.932 335.296 118.183 335.803 118.62 336.208C119.057 336.613 119.628 336.816 120.332 336.816C120.727 336.816 121.121 336.741 121.516 336.592C121.921 336.443 122.257 336.235 122.524 335.968L123.292 337.072C122.513 337.819 121.468 338.192 120.156 338.192ZM122.204 333.504C122.183 332.971 121.985 332.496 121.612 332.08C121.249 331.664 120.721 331.456 120.028 331.456C119.367 331.456 118.849 331.664 118.476 332.08C118.103 332.485 117.895 332.96 117.852 333.504H122.204ZM132.39 338H130.71V333.168C130.71 332.101 130.193 331.568 129.158 331.568C128.753 331.568 128.374 331.669 128.022 331.872C127.67 332.075 127.388 332.32 127.174 332.608V338H125.494V330.272H127.174V331.328C127.462 330.987 127.846 330.693 128.326 330.448C128.806 330.203 129.329 330.08 129.894 330.08C130.716 330.08 131.334 330.293 131.75 330.72C132.177 331.147 132.39 331.76 132.39 332.56V338ZM141.692 338H140.012V336.944C139.372 337.776 138.546 338.192 137.532 338.192C136.519 338.192 135.692 337.829 135.052 337.104C134.412 336.379 134.092 335.392 134.092 334.144C134.092 332.907 134.412 331.92 135.052 331.184C135.692 330.448 136.519 330.08 137.532 330.08C138.546 330.08 139.372 330.501 140.012 331.344V327.328H141.692V338ZM138.012 336.704C138.407 336.704 138.791 336.608 139.164 336.416C139.538 336.224 139.82 335.979 140.012 335.68V332.608C139.82 332.309 139.538 332.064 139.164 331.872C138.791 331.669 138.407 331.568 138.012 331.568C137.351 331.568 136.823 331.808 136.428 332.288C136.034 332.768 135.836 333.387 135.836 334.144C135.836 334.901 136.034 335.52 136.428 336C136.823 336.469 137.351 336.704 138.012 336.704Z" fill="white"/>
<circle opacity="0.7" cx="223" cy="349" r="18" fill="#46D880"/>
<circle opacity="0.7" cx="223.4" cy="349.4" r="11.2" fill="#46D880"/>
<g clip-path="url(#clip0)">
<path d="M235.243 359.433L232.059 356.248L234.33 354.936C234.508 354.834 234.611 354.639 234.596 354.434C234.582 354.23 234.451 354.052 234.261 353.976L224.131 349.935C223.933 349.856 223.706 349.903 223.555 350.054C223.404 350.205 223.357 350.432 223.436 350.63L227.476 360.761C227.552 360.952 227.73 361.082 227.935 361.097C228.139 361.111 228.334 361.008 228.436 360.831L229.748 358.559L232.932 361.743C233.033 361.844 233.169 361.9 233.311 361.9C233.453 361.9 233.589 361.844 233.689 361.743L235.243 360.189C235.452 359.98 235.452 359.642 235.243 359.433Z" fill="white"/>
<path d="M221.75 347.492C221.541 347.283 221.202 347.283 220.993 347.492C220.784 347.701 220.784 348.04 220.993 348.249L222.182 349.438C222.286 349.542 222.423 349.594 222.56 349.594C222.697 349.594 222.834 349.542 222.938 349.438C223.147 349.229 223.147 348.89 222.938 348.681L221.75 347.492Z" fill="white"/>
<path d="M222.152 351.191C222.152 350.896 221.913 350.656 221.617 350.656H219.936C219.641 350.656 219.401 350.895 219.401 351.191C219.401 351.486 219.64 351.726 219.936 351.726H221.617C221.913 351.726 222.152 351.486 222.152 351.191Z" fill="white"/>
<path d="M221.936 352.842L220.747 354.031C220.538 354.24 220.538 354.579 220.747 354.788C220.851 354.892 220.988 354.945 221.125 354.945C221.262 354.945 221.399 354.892 221.503 354.788L222.692 353.599C222.901 353.39 222.901 353.051 222.692 352.842C222.483 352.633 222.145 352.633 221.936 352.842Z" fill="white"/>
<path d="M224.692 348.652C224.987 348.652 225.227 348.412 225.227 348.116V346.435C225.227 346.139 224.987 345.9 224.692 345.9C224.396 345.9 224.156 346.139 224.156 346.435V348.117C224.156 348.412 224.396 348.652 224.692 348.652Z" fill="white"/>
<path d="M226.721 349.348C226.858 349.348 226.995 349.296 227.099 349.191L228.288 348.002C228.497 347.793 228.497 347.455 228.288 347.246C228.079 347.037 227.741 347.037 227.532 347.246L226.343 348.435C226.134 348.644 226.134 348.982 226.343 349.191C226.447 349.296 226.584 349.348 226.721 349.348Z" fill="white"/>
</g>
<path d="M53.7003 207H52.3703L51.5443 204.928H46.8963L46.0703 207H44.7403L48.4923 197.662H49.9343L53.7003 207ZM51.1943 203.892L49.2203 198.866L47.2323 203.892H51.1943ZM55.9291 207H54.8791V197.662H55.9291V207ZM67.2356 207H66.1856V202.408C66.1856 201.475 65.7703 201.008 64.9396 201.008C64.6036 201.008 64.2676 201.111 63.9316 201.316C63.5956 201.521 63.3343 201.764 63.1476 202.044V207H62.0976V202.408C62.0976 201.475 61.6823 201.008 60.8516 201.008C60.525 201.008 60.1936 201.111 59.8576 201.316C59.531 201.521 59.2696 201.769 59.0736 202.058V207H58.0236V200.238H59.0736V201.218C59.2416 200.957 59.5356 200.7 59.9556 200.448C60.3756 200.196 60.8096 200.07 61.2576 200.07C61.7523 200.07 62.1536 200.187 62.4616 200.42C62.7696 200.653 62.975 200.957 63.0776 201.33C63.283 200.994 63.5956 200.7 64.0156 200.448C64.4356 200.196 64.879 200.07 65.3456 200.07C66.6056 200.07 67.2356 200.751 67.2356 202.114V207ZM74.7063 206.146C74.0996 206.827 73.2923 207.168 72.2843 207.168C71.2763 207.168 70.4643 206.827 69.8483 206.146C69.2416 205.465 68.9383 204.62 68.9383 203.612C68.9383 202.604 69.2416 201.764 69.8483 201.092C70.4643 200.411 71.2763 200.07 72.2843 200.07C73.2923 200.07 74.0996 200.411 74.7063 201.092C75.3223 201.764 75.6303 202.604 75.6303 203.612C75.6303 204.62 75.3223 205.465 74.7063 206.146ZM70.6323 205.474C71.0429 205.978 71.5936 206.23 72.2843 206.23C72.9749 206.23 73.5209 205.978 73.9223 205.474C74.3236 204.961 74.5243 204.34 74.5243 203.612C74.5243 202.884 74.3236 202.268 73.9223 201.764C73.5209 201.26 72.9749 201.008 72.2843 201.008C71.5936 201.008 71.0429 201.265 70.6323 201.778C70.2309 202.282 70.0303 202.893 70.0303 203.612C70.0303 204.34 70.2309 204.961 70.6323 205.474ZM79.484 207.168C78.336 207.168 77.426 206.813 76.754 206.104L77.3 205.348C77.5333 205.619 77.8507 205.847 78.252 206.034C78.6627 206.221 79.0873 206.314 79.526 206.314C80.03 206.314 80.422 206.207 80.702 205.992C80.982 205.777 81.122 205.497 81.122 205.152C81.122 204.853 80.9773 204.62 80.688 204.452C80.3987 204.275 80.0487 204.144 79.638 204.06C79.2367 203.967 78.8307 203.864 78.42 203.752C78.0093 203.631 77.6593 203.43 77.37 203.15C77.0807 202.861 76.936 202.483 76.936 202.016C76.936 201.465 77.16 201.003 77.608 200.63C78.0653 200.257 78.6813 200.07 79.456 200.07C80.4733 200.07 81.3087 200.397 81.962 201.05L81.472 201.778C80.996 201.209 80.324 200.924 79.456 200.924C78.9987 200.924 78.6347 201.027 78.364 201.232C78.0933 201.428 77.958 201.68 77.958 201.988C77.958 202.259 78.1027 202.473 78.392 202.632C78.6813 202.781 79.0267 202.903 79.428 202.996C79.8387 203.08 80.2493 203.183 80.66 203.304C81.0707 203.425 81.4207 203.64 81.71 203.948C81.9993 204.247 82.144 204.639 82.144 205.124C82.144 205.721 81.9107 206.211 81.444 206.594C80.9773 206.977 80.324 207.168 79.484 207.168ZM85.5578 207.168C85.0631 207.168 84.6898 207.033 84.4378 206.762C84.1858 206.491 84.0598 206.099 84.0598 205.586V201.162H82.9398V200.238H84.0598V198.39H85.1098V200.238H86.4818V201.162H85.1098V205.362C85.1098 205.623 85.1658 205.833 85.2778 205.992C85.3991 206.151 85.5718 206.23 85.7958 206.23C86.1038 206.23 86.3418 206.137 86.5098 205.95L86.8178 206.734C86.5098 207.023 86.0898 207.168 85.5578 207.168ZM93.2824 207.168C92.7877 207.168 92.4144 207.033 92.1624 206.762C91.9104 206.491 91.7844 206.099 91.7844 205.586V201.162H90.6644V200.238H91.7844V198.39H92.8344V200.238H94.2064V201.162H92.8344V205.362C92.8344 205.623 92.8904 205.833 93.0024 205.992C93.1237 206.151 93.2964 206.23 93.5204 206.23C93.8284 206.23 94.0664 206.137 94.2344 205.95L94.5424 206.734C94.2344 207.023 93.8144 207.168 93.2824 207.168ZM101.318 207H100.268V202.548C100.268 201.988 100.137 201.591 99.8756 201.358C99.6143 201.125 99.2363 201.008 98.7416 201.008C98.359 201.008 97.981 201.111 97.6076 201.316C97.2436 201.521 96.9543 201.769 96.7396 202.058V207H95.6896V197.662H96.7396V201.218C97.001 200.91 97.351 200.644 97.7896 200.42C98.2283 200.187 98.6856 200.07 99.1616 200.07C100.599 200.07 101.318 200.789 101.318 202.226V207ZM106.466 207.168C105.458 207.168 104.632 206.841 103.988 206.188C103.344 205.525 103.022 204.667 103.022 203.612C103.022 202.623 103.34 201.787 103.974 201.106C104.609 200.415 105.402 200.07 106.354 200.07C107.353 200.07 108.142 200.415 108.72 201.106C109.308 201.787 109.602 202.651 109.602 203.696V203.962H104.128C104.175 204.625 104.418 205.18 104.856 205.628C105.295 206.076 105.864 206.3 106.564 206.3C107.404 206.3 108.1 206.015 108.65 205.446L109.154 206.132C108.464 206.823 107.568 207.168 106.466 207.168ZM108.566 203.192C108.557 202.613 108.361 202.095 107.978 201.638C107.596 201.171 107.05 200.938 106.34 200.938C105.668 200.938 105.136 201.167 104.744 201.624C104.362 202.081 104.156 202.604 104.128 203.192H108.566ZM112.353 207H111.303V200.238H112.353V201.33C112.978 200.509 113.73 200.098 114.607 200.098V201.176C114.476 201.148 114.336 201.134 114.187 201.134C113.87 201.134 113.524 201.246 113.151 201.47C112.778 201.694 112.512 201.941 112.353 202.212V207ZM118.976 207.168C117.968 207.168 117.142 206.841 116.498 206.188C115.854 205.525 115.532 204.667 115.532 203.612C115.532 202.623 115.849 201.787 116.484 201.106C117.119 200.415 117.912 200.07 118.864 200.07C119.863 200.07 120.651 200.415 121.23 201.106C121.818 201.787 122.112 202.651 122.112 203.696V203.962H116.638C116.685 204.625 116.927 205.18 117.366 205.628C117.805 206.076 118.374 206.3 119.074 206.3C119.914 206.3 120.609 206.015 121.16 205.446L121.664 206.132C120.973 206.823 120.077 207.168 118.976 207.168ZM121.076 203.192C121.067 202.613 120.871 202.095 120.488 201.638C120.105 201.171 119.559 200.938 118.85 200.938C118.178 200.938 117.646 201.167 117.254 201.624C116.871 202.081 116.666 202.604 116.638 203.192H121.076ZM124.807 204.382H123.939L123.715 197.662H125.031L124.807 204.382ZM124.905 206.916C124.755 207.065 124.578 207.14 124.373 207.14C124.167 207.14 123.985 207.065 123.827 206.916C123.677 206.757 123.603 206.575 123.603 206.37C123.603 206.155 123.677 205.973 123.827 205.824C123.976 205.675 124.158 205.6 124.373 205.6C124.587 205.6 124.769 205.675 124.919 205.824C125.068 205.973 125.143 206.155 125.143 206.37C125.143 206.575 125.063 206.757 124.905 206.916ZM131.853 207H130.691V197.662H136.809V198.698H131.853V201.708H136.711V202.744H131.853V207ZM138.864 199.272C138.677 199.272 138.514 199.207 138.374 199.076C138.234 198.936 138.164 198.768 138.164 198.572C138.164 198.376 138.234 198.208 138.374 198.068C138.514 197.928 138.677 197.858 138.864 197.858C139.06 197.858 139.228 197.928 139.368 198.068C139.508 198.208 139.578 198.376 139.578 198.572C139.578 198.768 139.508 198.936 139.368 199.076C139.228 199.207 139.06 199.272 138.864 199.272ZM139.396 207H138.346V200.238H139.396V207ZM147.104 207H146.054V202.576C146.054 202.007 145.924 201.605 145.662 201.372C145.401 201.129 145.028 201.008 144.542 201.008C144.15 201.008 143.768 201.111 143.394 201.316C143.03 201.521 142.746 201.769 142.54 202.058V207H141.49V200.238H142.54V201.218C142.802 200.91 143.152 200.644 143.59 200.42C144.029 200.187 144.482 200.07 144.948 200.07C146.386 200.07 147.104 200.798 147.104 202.254V207ZM149.719 199.272C149.533 199.272 149.369 199.207 149.229 199.076C149.089 198.936 149.019 198.768 149.019 198.572C149.019 198.376 149.089 198.208 149.229 198.068C149.369 197.928 149.533 197.858 149.719 197.858C149.915 197.858 150.083 197.928 150.223 198.068C150.363 198.208 150.433 198.376 150.433 198.572C150.433 198.768 150.363 198.936 150.223 199.076C150.083 199.207 149.915 199.272 149.719 199.272ZM150.251 207H149.201V200.238H150.251V207ZM154.488 207.168C153.34 207.168 152.43 206.813 151.758 206.104L152.304 205.348C152.537 205.619 152.855 205.847 153.256 206.034C153.667 206.221 154.091 206.314 154.53 206.314C155.034 206.314 155.426 206.207 155.706 205.992C155.986 205.777 156.126 205.497 156.126 205.152C156.126 204.853 155.981 204.62 155.692 204.452C155.403 204.275 155.053 204.144 154.642 204.06C154.241 203.967 153.835 203.864 153.424 203.752C153.013 203.631 152.663 203.43 152.374 203.15C152.085 202.861 151.94 202.483 151.94 202.016C151.94 201.465 152.164 201.003 152.612 200.63C153.069 200.257 153.685 200.07 154.46 200.07C155.477 200.07 156.313 200.397 156.966 201.05L156.476 201.778C156 201.209 155.328 200.924 154.46 200.924C154.003 200.924 153.639 201.027 153.368 201.232C153.097 201.428 152.962 201.68 152.962 201.988C152.962 202.259 153.107 202.473 153.396 202.632C153.685 202.781 154.031 202.903 154.432 202.996C154.843 203.08 155.253 203.183 155.664 203.304C156.075 203.425 156.425 203.64 156.714 203.948C157.003 204.247 157.148 204.639 157.148 205.124C157.148 205.721 156.915 206.211 156.448 206.594C155.981 206.977 155.328 207.168 154.488 207.168ZM164.482 207H163.432V202.548C163.432 201.988 163.301 201.591 163.04 201.358C162.778 201.125 162.4 201.008 161.906 201.008C161.523 201.008 161.145 201.111 160.772 201.316C160.408 201.521 160.118 201.769 159.904 202.058V207H158.854V197.662H159.904V201.218C160.165 200.91 160.515 200.644 160.954 200.42C161.392 200.187 161.85 200.07 162.326 200.07C163.763 200.07 164.482 200.789 164.482 202.226V207ZM175.802 207H174.752V206.048C174.472 206.365 174.117 206.631 173.688 206.846C173.268 207.061 172.82 207.168 172.344 207.168C170.906 207.168 170.188 206.449 170.188 205.012V200.238H171.238V204.69C171.238 205.25 171.364 205.647 171.616 205.88C171.877 206.113 172.255 206.23 172.75 206.23C173.142 206.23 173.52 206.132 173.884 205.936C174.257 205.74 174.546 205.497 174.752 205.208V200.238H175.802V207ZM181.231 207.168C180.279 207.168 179.518 206.771 178.949 205.978V209.576H177.899V200.238H178.949V201.246C179.201 200.891 179.527 200.607 179.929 200.392C180.33 200.177 180.764 200.07 181.231 200.07C182.127 200.07 182.85 200.392 183.401 201.036C183.961 201.671 184.241 202.529 184.241 203.612C184.241 204.695 183.961 205.558 183.401 206.202C182.85 206.846 182.127 207.168 181.231 207.168ZM180.965 206.23C181.627 206.23 182.155 205.987 182.547 205.502C182.939 205.007 183.135 204.377 183.135 203.612C183.135 202.847 182.939 202.221 182.547 201.736C182.155 201.251 181.627 201.008 180.965 201.008C180.563 201.008 180.171 201.115 179.789 201.33C179.415 201.535 179.135 201.787 178.949 202.086V205.138C179.135 205.446 179.415 205.707 179.789 205.922C180.171 206.127 180.563 206.23 180.965 206.23ZM190.57 205.166C190.756 205.465 191.036 205.717 191.41 205.922C191.792 206.127 192.184 206.23 192.586 206.23C193.258 206.23 193.79 205.987 194.182 205.502C194.574 205.017 194.77 204.391 194.77 203.626C194.77 202.861 194.574 202.235 194.182 201.75C193.79 201.255 193.258 201.008 192.586 201.008C192.184 201.008 191.792 201.115 191.41 201.33C191.036 201.535 190.756 201.792 190.57 202.1V205.166ZM190.57 207H189.52V197.662H190.57V201.26C191.158 200.467 191.918 200.07 192.852 200.07C193.738 200.07 194.462 200.397 195.022 201.05C195.582 201.694 195.862 202.553 195.862 203.626C195.862 204.709 195.582 205.572 195.022 206.216C194.471 206.851 193.748 207.168 192.852 207.168C191.909 207.168 191.148 206.776 190.57 205.992V207ZM197.194 209.646L197.362 208.694C197.53 208.769 197.722 208.806 197.936 208.806C198.179 208.806 198.38 208.755 198.538 208.652C198.697 208.549 198.832 208.363 198.944 208.092L199.392 207.07L196.564 200.238H197.698L199.952 205.782L202.192 200.238H203.34L199.952 208.372C199.579 209.268 198.916 209.725 197.964 209.744C197.684 209.744 197.428 209.711 197.194 209.646ZM32.4383 230.168C31.4396 230.168 30.6276 229.832 30.0023 229.16C29.3769 228.479 29.0643 227.629 29.0643 226.612C29.0643 225.595 29.3769 224.75 30.0023 224.078C30.6276 223.406 31.4396 223.07 32.4383 223.07C33.4836 223.07 34.3096 223.462 34.9163 224.246L34.2163 224.89C33.7869 224.302 33.2129 224.008 32.4943 224.008C31.7849 224.008 31.2156 224.251 30.7863 224.736C30.3663 225.221 30.1562 225.847 30.1562 226.612C30.1562 227.377 30.3663 228.007 30.7863 228.502C31.2156 228.987 31.7849 229.23 32.4943 229.23C33.2036 229.23 33.7776 228.936 34.2163 228.348L34.9163 228.992C34.3096 229.776 33.4836 230.168 32.4383 230.168ZM41.7639 229.146C41.1572 229.827 40.3499 230.168 39.3419 230.168C38.3339 230.168 37.5219 229.827 36.9059 229.146C36.2992 228.465 35.9959 227.62 35.9959 226.612C35.9959 225.604 36.2992 224.764 36.9059 224.092C37.5219 223.411 38.3339 223.07 39.3419 223.07C40.3499 223.07 41.1572 223.411 41.7639 224.092C42.3799 224.764 42.6879 225.604 42.6879 226.612C42.6879 227.62 42.3799 228.465 41.7639 229.146ZM37.6899 228.474C38.1006 228.978 38.6512 229.23 39.3419 229.23C40.0326 229.23 40.5786 228.978 40.9799 228.474C41.3812 227.961 41.5819 227.34 41.5819 226.612C41.5819 225.884 41.3812 225.268 40.9799 224.764C40.5786 224.26 40.0326 224.008 39.3419 224.008C38.6512 224.008 38.1006 224.265 37.6899 224.778C37.2886 225.282 37.0879 225.893 37.0879 226.612C37.0879 227.34 37.2886 227.961 37.6899 228.474ZM47.7316 230.168C46.7796 230.168 46.0189 229.771 45.4496 228.978V232.576H44.3996V223.238H45.4496V224.246C45.7016 223.891 46.0283 223.607 46.4296 223.392C46.8309 223.177 47.2649 223.07 47.7316 223.07C48.6276 223.07 49.3509 223.392 49.9016 224.036C50.4616 224.671 50.7416 225.529 50.7416 226.612C50.7416 227.695 50.4616 228.558 49.9016 229.202C49.3509 229.846 48.6276 230.168 47.7316 230.168ZM47.4656 229.23C48.1283 229.23 48.6556 228.987 49.0476 228.502C49.4396 228.007 49.6356 227.377 49.6356 226.612C49.6356 225.847 49.4396 225.221 49.0476 224.736C48.6556 224.251 48.1283 224.008 47.4656 224.008C47.0643 224.008 46.6723 224.115 46.2896 224.33C45.9163 224.535 45.6363 224.787 45.4496 225.086V228.138C45.6363 228.446 45.9163 228.707 46.2896 228.922C46.6723 229.127 47.0643 229.23 47.4656 229.23ZM61.6233 230H60.5733V225.408C60.5733 224.475 60.158 224.008 59.3273 224.008C58.9913 224.008 58.6553 224.111 58.3193 224.316C57.9833 224.521 57.722 224.764 57.5353 225.044V230H56.4853V225.408C56.4853 224.475 56.07 224.008 55.2393 224.008C54.9127 224.008 54.5813 224.111 54.2453 224.316C53.9187 224.521 53.6573 224.769 53.4613 225.058V230H52.4113V223.238H53.4613V224.218C53.6293 223.957 53.9233 223.7 54.3433 223.448C54.7633 223.196 55.1973 223.07 55.6453 223.07C56.14 223.07 56.5413 223.187 56.8493 223.42C57.1573 223.653 57.3627 223.957 57.4653 224.33C57.6707 223.994 57.9833 223.7 58.4033 223.448C58.8233 223.196 59.2667 223.07 59.7333 223.07C60.9933 223.07 61.6233 223.751 61.6233 225.114V230ZM64.768 230H63.718V220.662H64.768V230ZM69.9145 230.168C68.9065 230.168 68.0805 229.841 67.4365 229.188C66.7925 228.525 66.4705 227.667 66.4705 226.612C66.4705 225.623 66.7878 224.787 67.4225 224.106C68.0572 223.415 68.8505 223.07 69.8025 223.07C70.8012 223.07 71.5898 223.415 72.1685 224.106C72.7565 224.787 73.0505 225.651 73.0505 226.696V226.962H67.5765C67.6232 227.625 67.8658 228.18 68.3045 228.628C68.7432 229.076 69.3125 229.3 70.0125 229.3C70.8525 229.3 71.5478 229.015 72.0985 228.446L72.6025 229.132C71.9118 229.823 71.0158 230.168 69.9145 230.168ZM72.0145 226.192C72.0052 225.613 71.8092 225.095 71.4265 224.638C71.0438 224.171 70.4978 223.938 69.7885 223.938C69.1165 223.938 68.5845 224.167 68.1925 224.624C67.8098 225.081 67.6045 225.604 67.5765 226.192H72.0145ZM76.4592 230.168C75.9645 230.168 75.5912 230.033 75.3392 229.762C75.0872 229.491 74.9612 229.099 74.9612 228.586V224.162H73.8412V223.238H74.9612V221.39H76.0112V223.238H77.3832V224.162H76.0112V228.362C76.0112 228.623 76.0672 228.833 76.1792 228.992C76.3005 229.151 76.4732 229.23 76.6972 229.23C77.0052 229.23 77.2432 229.137 77.4112 228.95L77.7192 229.734C77.4112 230.023 76.9912 230.168 76.4592 230.168ZM79.3844 222.272C79.1977 222.272 79.0344 222.207 78.8944 222.076C78.7544 221.936 78.6844 221.768 78.6844 221.572C78.6844 221.376 78.7544 221.208 78.8944 221.068C79.0344 220.928 79.1977 220.858 79.3844 220.858C79.5804 220.858 79.7484 220.928 79.8884 221.068C80.0284 221.208 80.0984 221.376 80.0984 221.572C80.0984 221.768 80.0284 221.936 79.8884 222.076C79.7484 222.207 79.5804 222.272 79.3844 222.272ZM79.9164 230H78.8664V223.238H79.9164V230ZM87.6249 230H86.5749V225.576C86.5749 225.007 86.4443 224.605 86.1829 224.372C85.9216 224.129 85.5483 224.008 85.0629 224.008C84.6709 224.008 84.2883 224.111 83.9149 224.316C83.5509 224.521 83.2663 224.769 83.0609 225.058V230H82.0109V223.238H83.0609V224.218C83.3223 223.91 83.6723 223.644 84.1109 223.42C84.5496 223.187 85.0023 223.07 85.4689 223.07C86.9063 223.07 87.6249 223.798 87.6249 225.254V230ZM92.4379 232.744C91.8405 232.744 91.3319 232.669 90.9119 232.52C90.4919 232.38 90.0905 232.119 89.7079 231.736L90.2399 230.952C90.7532 231.568 91.4859 231.876 92.4379 231.876C93.0632 231.876 93.5812 231.708 93.9919 231.372C94.4025 231.045 94.6079 230.537 94.6079 229.846V228.88C94.3559 229.235 94.0292 229.524 93.6279 229.748C93.2265 229.972 92.7972 230.084 92.3399 230.084C91.4439 230.084 90.7159 229.771 90.1559 229.146C89.6052 228.511 89.3299 227.657 89.3299 226.584C89.3299 225.511 89.6052 224.657 90.1559 224.022C90.7159 223.387 91.4439 223.07 92.3399 223.07C93.2639 223.07 94.0199 223.467 94.6079 224.26V223.238H95.6579V229.804C95.6579 230.84 95.3545 231.587 94.7479 232.044C94.1412 232.511 93.3712 232.744 92.4379 232.744ZM92.5919 229.16C92.9932 229.16 93.3805 229.053 93.7539 228.838C94.1365 228.623 94.4212 228.362 94.6079 228.054V225.1C94.4212 224.792 94.1412 224.535 93.7679 224.33C93.3945 224.115 93.0025 224.008 92.5919 224.008C91.9199 224.008 91.3879 224.246 90.9959 224.722C90.6132 225.198 90.4219 225.819 90.4219 226.584C90.4219 227.34 90.6179 227.961 91.0099 228.446C91.4019 228.922 91.9292 229.16 92.5919 229.16ZM104.324 230H103.176L100.362 223.238H101.496L103.75 228.782L105.99 223.238H107.138L104.324 230ZM111.286 230.168C110.278 230.168 109.452 229.841 108.808 229.188C108.164 228.525 107.842 227.667 107.842 226.612C107.842 225.623 108.159 224.787 108.794 224.106C109.428 223.415 110.222 223.07 111.174 223.07C112.172 223.07 112.961 223.415 113.54 224.106C114.128 224.787 114.422 225.651 114.422 226.696V226.962H108.948C108.994 227.625 109.237 228.18 109.676 228.628C110.114 229.076 110.684 229.3 111.384 229.3C112.224 229.3 112.919 229.015 113.47 228.446L113.974 229.132C113.283 229.823 112.387 230.168 111.286 230.168ZM113.386 226.192C113.376 225.613 113.18 225.095 112.798 224.638C112.415 224.171 111.869 223.938 111.16 223.938C110.488 223.938 109.956 224.167 109.564 224.624C109.181 225.081 108.976 225.604 108.948 226.192H113.386ZM117.172 230H116.122V223.238H117.172V224.33C117.798 223.509 118.549 223.098 119.426 223.098V224.176C119.296 224.148 119.156 224.134 119.006 224.134C118.689 224.134 118.344 224.246 117.97 224.47C117.597 224.694 117.331 224.941 117.172 225.212V230ZM121.261 222.272C121.075 222.272 120.911 222.207 120.771 222.076C120.631 221.936 120.561 221.768 120.561 221.572C120.561 221.376 120.631 221.208 120.771 221.068C120.911 220.928 121.075 220.858 121.261 220.858C121.457 220.858 121.625 220.928 121.765 221.068C121.905 221.208 121.975 221.376 121.975 221.572C121.975 221.768 121.905 221.936 121.765 222.076C121.625 222.207 121.457 222.272 121.261 222.272ZM121.793 230H120.743V223.238H121.793V230ZM125.232 230H124.182V224.162H123.062V223.238H124.182V222.72C124.182 222.029 124.359 221.493 124.714 221.11C125.069 220.718 125.545 220.522 126.142 220.522C126.571 220.522 126.912 220.601 127.164 220.76L126.898 221.558C126.721 221.446 126.52 221.39 126.296 221.39C125.951 221.39 125.685 221.507 125.498 221.74C125.321 221.964 125.232 222.291 125.232 222.72V223.238H126.604V224.162H125.232V230ZM128.368 222.272C128.181 222.272 128.018 222.207 127.878 222.076C127.738 221.936 127.668 221.768 127.668 221.572C127.668 221.376 127.738 221.208 127.878 221.068C128.018 220.928 128.181 220.858 128.368 220.858C128.564 220.858 128.732 220.928 128.872 221.068C129.012 221.208 129.082 221.376 129.082 221.572C129.082 221.768 129.012 221.936 128.872 222.076C128.732 222.207 128.564 222.272 128.368 222.272ZM128.9 230H127.85V223.238H128.9V230ZM133.993 230.168C132.994 230.168 132.182 229.832 131.557 229.16C130.932 228.479 130.619 227.629 130.619 226.612C130.619 225.595 130.932 224.75 131.557 224.078C132.182 223.406 132.994 223.07 133.993 223.07C135.038 223.07 135.864 223.462 136.471 224.246L135.771 224.89C135.342 224.302 134.768 224.008 134.049 224.008C133.34 224.008 132.77 224.251 132.341 224.736C131.921 225.221 131.711 225.847 131.711 226.612C131.711 227.377 131.921 228.007 132.341 228.502C132.77 228.987 133.34 229.23 134.049 229.23C134.758 229.23 135.332 228.936 135.771 228.348L136.471 228.992C135.864 229.776 135.038 230.168 133.993 230.168ZM143.221 230H142.171V229.23C141.601 229.855 140.855 230.168 139.931 230.168C139.305 230.168 138.755 229.967 138.279 229.566C137.803 229.165 137.565 228.619 137.565 227.928C137.565 227.219 137.798 226.673 138.265 226.29C138.741 225.898 139.296 225.702 139.931 225.702C140.892 225.702 141.639 226.01 142.171 226.626V225.408C142.171 224.96 142.012 224.61 141.695 224.358C141.377 224.106 140.967 223.98 140.463 223.98C139.669 223.98 138.979 224.293 138.391 224.918L137.901 224.19C138.619 223.443 139.52 223.07 140.603 223.07C141.377 223.07 142.007 223.257 142.493 223.63C142.978 224.003 143.221 224.577 143.221 225.352V230ZM140.309 229.412C141.149 229.412 141.769 229.132 142.171 228.572V227.298C141.769 226.738 141.149 226.458 140.309 226.458C139.823 226.458 139.422 226.598 139.105 226.878C138.797 227.149 138.643 227.503 138.643 227.942C138.643 228.371 138.797 228.726 139.105 229.006C139.422 229.277 139.823 229.412 140.309 229.412ZM147.033 230.168C146.539 230.168 146.165 230.033 145.913 229.762C145.661 229.491 145.535 229.099 145.535 228.586V224.162H144.415V223.238H145.535V221.39H146.585V223.238H147.957V224.162H146.585V228.362C146.585 228.623 146.641 228.833 146.753 228.992C146.875 229.151 147.047 229.23 147.271 229.23C147.579 229.23 147.817 229.137 147.985 228.95L148.293 229.734C147.985 230.023 147.565 230.168 147.033 230.168ZM149.959 222.272C149.772 222.272 149.609 222.207 149.469 222.076C149.329 221.936 149.259 221.768 149.259 221.572C149.259 221.376 149.329 221.208 149.469 221.068C149.609 220.928 149.772 220.858 149.959 220.858C150.155 220.858 150.323 220.928 150.463 221.068C150.603 221.208 150.673 221.376 150.673 221.572C150.673 221.768 150.603 221.936 150.463 222.076C150.323 222.207 150.155 222.272 149.959 222.272ZM150.491 230H149.441V223.238H150.491V230ZM157.961 229.146C157.354 229.827 156.547 230.168 155.539 230.168C154.531 230.168 153.719 229.827 153.103 229.146C152.496 228.465 152.193 227.62 152.193 226.612C152.193 225.604 152.496 224.764 153.103 224.092C153.719 223.411 154.531 223.07 155.539 223.07C156.547 223.07 157.354 223.411 157.961 224.092C158.577 224.764 158.885 225.604 158.885 226.612C158.885 227.62 158.577 228.465 157.961 229.146ZM153.887 228.474C154.298 228.978 154.848 229.23 155.539 229.23C156.23 229.23 156.776 228.978 157.177 228.474C157.578 227.961 157.779 227.34 157.779 226.612C157.779 225.884 157.578 225.268 157.177 224.764C156.776 224.26 156.23 224.008 155.539 224.008C154.848 224.008 154.298 224.265 153.887 224.778C153.486 225.282 153.285 225.893 153.285 226.612C153.285 227.34 153.486 227.961 153.887 228.474ZM166.211 230H165.161V225.576C165.161 225.007 165.03 224.605 164.769 224.372C164.508 224.129 164.134 224.008 163.649 224.008C163.257 224.008 162.874 224.111 162.501 224.316C162.137 224.521 161.852 224.769 161.647 225.058V230H160.597V223.238H161.647V224.218C161.908 223.91 162.258 223.644 162.697 223.42C163.136 223.187 163.588 223.07 164.055 223.07C165.492 223.07 166.211 223.798 166.211 225.254V230ZM174.871 230H173.723L170.909 223.238H172.043L174.297 228.782L176.537 223.238H177.685L174.871 230ZM179.298 222.272C179.112 222.272 178.948 222.207 178.808 222.076C178.668 221.936 178.598 221.768 178.598 221.572C178.598 221.376 178.668 221.208 178.808 221.068C178.948 220.928 179.112 220.858 179.298 220.858C179.494 220.858 179.662 220.928 179.802 221.068C179.942 221.208 180.012 221.376 180.012 221.572C180.012 221.768 179.942 221.936 179.802 222.076C179.662 222.207 179.494 222.272 179.298 222.272ZM179.83 230H178.78V223.238H179.83V230ZM187.203 230H186.153V229.23C185.584 229.855 184.837 230.168 183.913 230.168C183.288 230.168 182.737 229.967 182.261 229.566C181.785 229.165 181.547 228.619 181.547 227.928C181.547 227.219 181.78 226.673 182.247 226.29C182.723 225.898 183.278 225.702 183.913 225.702C184.874 225.702 185.621 226.01 186.153 226.626V225.408C186.153 224.96 185.994 224.61 185.677 224.358C185.36 224.106 184.949 223.98 184.445 223.98C183.652 223.98 182.961 224.293 182.373 224.918L181.883 224.19C182.602 223.443 183.502 223.07 184.585 223.07C185.36 223.07 185.99 223.257 186.475 223.63C186.96 224.003 187.203 224.577 187.203 225.352V230ZM184.291 229.412C185.131 229.412 185.752 229.132 186.153 228.572V227.298C185.752 226.738 185.131 226.458 184.291 226.458C183.806 226.458 183.404 226.598 183.087 226.878C182.779 227.149 182.625 227.503 182.625 227.942C182.625 228.371 182.779 228.726 183.087 229.006C183.404 229.277 183.806 229.412 184.291 229.412ZM195.983 230.168C194.471 230.168 193.277 229.673 192.399 228.684L193.085 227.802C193.879 228.689 194.859 229.132 196.025 229.132C196.781 229.132 197.337 228.973 197.691 228.656C198.046 228.329 198.223 227.951 198.223 227.522C198.223 227.195 198.121 226.92 197.915 226.696C197.71 226.472 197.444 226.299 197.117 226.178C196.8 226.047 196.441 225.931 196.039 225.828C195.647 225.725 195.255 225.613 194.863 225.492C194.471 225.361 194.112 225.207 193.785 225.03C193.468 224.853 193.207 224.601 193.001 224.274C192.796 223.947 192.693 223.56 192.693 223.112C192.693 222.347 192.997 221.726 193.603 221.25C194.21 220.765 194.975 220.522 195.899 220.522C197.29 220.522 198.396 220.956 199.217 221.824L198.517 222.678C197.836 221.931 196.935 221.558 195.815 221.558C195.255 221.558 194.793 221.698 194.429 221.978C194.075 222.249 193.897 222.603 193.897 223.042C193.897 223.369 194.033 223.639 194.303 223.854C194.583 224.069 194.924 224.227 195.325 224.33C195.736 224.433 196.179 224.563 196.655 224.722C197.141 224.871 197.584 225.035 197.985 225.212C198.396 225.38 198.737 225.655 199.007 226.038C199.287 226.421 199.427 226.883 199.427 227.424C199.427 228.189 199.143 228.838 198.573 229.37C198.013 229.902 197.15 230.168 195.983 230.168ZM210.304 230H209.142V222.314L205.964 230H205.488L202.324 222.314V230H201.162V220.662H202.828L205.726 227.69L208.638 220.662H210.304V230ZM215.507 230.168C213.995 230.168 212.8 229.673 211.923 228.684L212.609 227.802C213.402 228.689 214.382 229.132 215.549 229.132C216.305 229.132 216.86 228.973 217.215 228.656C217.569 228.329 217.747 227.951 217.747 227.522C217.747 227.195 217.644 226.92 217.439 226.696C217.233 226.472 216.967 226.299 216.641 226.178C216.323 226.047 215.964 225.931 215.563 225.828C215.171 225.725 214.779 225.613 214.387 225.492C213.995 225.361 213.635 225.207 213.309 225.03C212.991 224.853 212.73 224.601 212.525 224.274C212.319 223.947 212.217 223.56 212.217 223.112C212.217 222.347 212.52 221.726 213.127 221.25C213.733 220.765 214.499 220.522 215.423 220.522C216.813 220.522 217.919 220.956 218.741 221.824L218.041 222.678C217.359 221.931 216.459 221.558 215.339 221.558C214.779 221.558 214.317 221.698 213.953 221.978C213.598 222.249 213.421 222.603 213.421 223.042C213.421 223.369 213.556 223.639 213.827 223.854C214.107 224.069 214.447 224.227 214.849 224.33C215.259 224.433 215.703 224.563 216.179 224.722C216.664 224.871 217.107 225.035 217.509 225.212C217.919 225.38 218.26 225.655 218.531 226.038C218.811 226.421 218.951 226.883 218.951 227.424C218.951 228.189 218.666 228.838 218.097 229.37C217.537 229.902 216.673 230.168 215.507 230.168Z" fill="#5D6574"/>
<rect x="20.5" y="260.5" width="207" height="38" rx="9.5" fill="#131820" stroke="#191F2B"/>
<path d="M73.11 278.957H70.614V281.726H69.873V278.957H67.377V278.281H69.873V275.59H70.614V278.281H73.11V278.957ZM79.8289 285.132L79.2439 285.587C78.0219 283.914 77.4109 281.999 77.4109 279.841C77.4109 277.692 78.0219 275.776 79.2439 274.095L79.8289 274.537C79.3695 275.447 79.0272 276.305 78.8019 277.111C78.5852 277.917 78.4769 278.827 78.4769 279.841C78.4769 280.855 78.5852 281.769 78.8019 282.584C79.0272 283.39 79.3695 284.239 79.8289 285.132ZM128.693 285.587L128.108 285.132C128.567 284.239 128.909 283.39 129.135 282.584C129.36 281.769 129.473 280.855 129.473 279.841C129.473 278.818 129.36 277.904 129.135 277.098C128.909 276.292 128.567 275.438 128.108 274.537L128.693 274.095C129.923 275.768 130.539 277.683 130.539 279.841C130.539 282.008 129.923 283.923 128.693 285.587ZM163.795 280.283H160.675V279.425H163.795V280.283ZM188.767 280.283H185.647V279.425H188.767V280.283Z" fill="#5D6574"/>
<path d="M89.031 283H87.952V280.803H83.831V279.906L87.549 274.329H89.031V279.854H90.253V280.803H89.031V283ZM87.952 279.854V275.33L84.91 279.854H87.952ZM94.1611 283.143C93.1644 283.143 92.3627 282.796 91.7561 282.103L92.3021 281.297C92.8047 281.886 93.4244 282.181 94.1611 282.181C94.7157 282.181 95.1837 282.008 95.5651 281.661C95.9464 281.314 96.2151 280.894 96.3711 280.4C96.5271 279.906 96.6051 279.369 96.6051 278.788C96.6051 278.632 96.6007 278.515 96.5921 278.437C96.3754 278.784 96.0417 279.096 95.5911 279.373C95.1404 279.65 94.6594 279.789 94.1481 279.789C93.3247 279.789 92.6444 279.551 92.1071 279.074C91.5697 278.589 91.3011 277.904 91.3011 277.02C91.3011 276.24 91.5784 275.573 92.1331 275.018C92.6877 274.463 93.4201 274.186 94.3301 274.186C94.9194 274.186 95.4351 274.307 95.8771 274.55C96.3191 274.793 96.6657 275.126 96.9171 275.551C97.1771 275.976 97.3677 276.448 97.4891 276.968C97.6191 277.488 97.6841 278.056 97.6841 278.671C97.6841 279.486 97.5627 280.222 97.3201 280.881C97.0774 281.531 96.6831 282.073 96.1371 282.506C95.5997 282.931 94.9411 283.143 94.1611 283.143ZM94.3951 278.853C94.8197 278.853 95.2271 278.736 95.6171 278.502C96.0157 278.268 96.3277 277.956 96.5531 277.566C96.5011 276.925 96.2974 276.361 95.9421 275.876C95.5867 275.391 95.0667 275.148 94.3821 275.148C93.7667 275.148 93.2814 275.339 92.9261 275.72C92.5707 276.101 92.3931 276.522 92.3931 276.981C92.3931 277.588 92.5794 278.051 92.9521 278.372C93.3247 278.693 93.8057 278.853 94.3951 278.853ZM108.352 283H102.398V282.142C103.3 281.431 103.997 280.868 104.491 280.452C104.994 280.027 105.475 279.581 105.934 279.113C106.402 278.636 106.732 278.216 106.922 277.852C107.113 277.479 107.208 277.111 107.208 276.747C107.208 276.227 107.031 275.833 106.675 275.564C106.32 275.295 105.895 275.161 105.401 275.161C104.405 275.161 103.62 275.525 103.048 276.253L102.385 275.564C102.715 275.131 103.144 274.797 103.672 274.563C104.21 274.32 104.786 274.199 105.401 274.199C106.19 274.199 106.87 274.42 107.442 274.862C108.023 275.304 108.313 275.932 108.313 276.747C108.313 277.553 107.967 278.359 107.273 279.165C106.58 279.962 105.523 280.92 104.101 282.038H108.352V283ZM115.995 283H110.041V282.142C110.942 281.431 111.64 280.868 112.134 280.452C112.637 280.027 113.118 279.581 113.577 279.113C114.045 278.636 114.374 278.216 114.565 277.852C114.756 277.479 114.851 277.111 114.851 276.747C114.851 276.227 114.673 275.833 114.318 275.564C113.963 275.295 113.538 275.161 113.044 275.161C112.047 275.161 111.263 275.525 110.691 276.253L110.028 275.564C110.357 275.131 110.786 274.797 111.315 274.563C111.852 274.32 112.429 274.199 113.044 274.199C113.833 274.199 114.513 274.42 115.085 274.862C115.666 275.304 115.956 275.932 115.956 276.747C115.956 277.553 115.609 278.359 114.916 279.165C114.223 279.962 113.165 280.92 111.744 282.038H115.995V283ZM122.974 282.519C122.385 282.944 121.648 283.156 120.764 283.156C119.88 283.156 119.139 282.944 118.541 282.519C117.952 282.094 117.657 281.522 117.657 280.803C117.657 280.257 117.852 279.785 118.242 279.386C118.641 278.987 119.135 278.701 119.724 278.528C119.17 278.372 118.71 278.121 118.346 277.774C117.982 277.419 117.8 276.977 117.8 276.448C117.8 275.72 118.095 275.165 118.684 274.784C119.274 274.394 119.967 274.199 120.764 274.199C121.562 274.199 122.255 274.394 122.844 274.784C123.442 275.165 123.741 275.72 123.741 276.448C123.741 276.977 123.559 277.419 123.195 277.774C122.831 278.121 122.368 278.372 121.804 278.528C122.394 278.701 122.883 278.987 123.273 279.386C123.672 279.785 123.871 280.257 123.871 280.803C123.871 281.514 123.572 282.086 122.974 282.519ZM120.764 278.086C120.938 278.06 121.111 278.017 121.284 277.956C121.466 277.895 121.67 277.813 121.895 277.709C122.121 277.596 122.303 277.445 122.441 277.254C122.58 277.055 122.649 276.834 122.649 276.591C122.649 276.158 122.467 275.811 122.103 275.551C121.748 275.291 121.302 275.161 120.764 275.161C120.218 275.161 119.768 275.291 119.412 275.551C119.057 275.811 118.879 276.158 118.879 276.591C118.879 276.834 118.949 277.055 119.087 277.254C119.226 277.445 119.408 277.596 119.633 277.709C119.859 277.813 120.058 277.895 120.231 277.956C120.413 278.008 120.591 278.051 120.764 278.086ZM120.764 282.194C121.319 282.194 121.791 282.055 122.181 281.778C122.58 281.501 122.779 281.137 122.779 280.686C122.779 280.339 122.641 280.036 122.363 279.776C122.095 279.507 121.817 279.321 121.531 279.217C121.254 279.104 120.998 279.035 120.764 279.009C120.53 279.035 120.27 279.104 119.984 279.217C119.707 279.321 119.43 279.507 119.152 279.776C118.875 280.036 118.736 280.339 118.736 280.686C118.736 281.137 118.931 281.501 119.321 281.778C119.72 282.055 120.201 282.194 120.764 282.194ZM137.921 283.156C137.228 283.156 136.612 283.022 136.075 282.753C135.538 282.484 135.126 282.142 134.84 281.726L135.477 281.05C135.737 281.397 136.079 281.674 136.504 281.882C136.929 282.09 137.392 282.194 137.895 282.194C138.528 282.194 139.022 282.051 139.377 281.765C139.741 281.47 139.923 281.072 139.923 280.569C139.923 280.049 139.728 279.663 139.338 279.412C138.957 279.161 138.432 279.035 137.765 279.035C137.254 279.035 136.955 279.039 136.868 279.048V278.06C136.963 278.069 137.262 278.073 137.765 278.073C138.354 278.073 138.835 277.956 139.208 277.722C139.589 277.479 139.78 277.12 139.78 276.643C139.78 276.184 139.594 275.824 139.221 275.564C138.857 275.295 138.398 275.161 137.843 275.161C136.968 275.161 136.205 275.512 135.555 276.214L134.957 275.538C135.694 274.645 136.682 274.199 137.921 274.199C138.779 274.199 139.481 274.407 140.027 274.823C140.582 275.23 140.859 275.794 140.859 276.513C140.859 277.085 140.668 277.544 140.287 277.891C139.906 278.229 139.472 278.441 138.987 278.528C139.464 278.571 139.914 278.779 140.339 279.152C140.772 279.525 140.989 280.027 140.989 280.66C140.989 281.397 140.712 281.999 140.157 282.467C139.602 282.926 138.857 283.156 137.921 283.156ZM147.692 282.519C147.103 282.944 146.366 283.156 145.482 283.156C144.598 283.156 143.857 282.944 143.259 282.519C142.67 282.094 142.375 281.522 142.375 280.803C142.375 280.257 142.57 279.785 142.96 279.386C143.359 278.987 143.853 278.701 144.442 278.528C143.888 278.372 143.428 278.121 143.064 277.774C142.7 277.419 142.518 276.977 142.518 276.448C142.518 275.72 142.813 275.165 143.402 274.784C143.992 274.394 144.685 274.199 145.482 274.199C146.28 274.199 146.973 274.394 147.562 274.784C148.16 275.165 148.459 275.72 148.459 276.448C148.459 276.977 148.277 277.419 147.913 277.774C147.549 278.121 147.086 278.372 146.522 278.528C147.112 278.701 147.601 278.987 147.991 279.386C148.39 279.785 148.589 280.257 148.589 280.803C148.589 281.514 148.29 282.086 147.692 282.519ZM145.482 278.086C145.656 278.06 145.829 278.017 146.002 277.956C146.184 277.895 146.388 277.813 146.613 277.709C146.839 277.596 147.021 277.445 147.159 277.254C147.298 277.055 147.367 276.834 147.367 276.591C147.367 276.158 147.185 275.811 146.821 275.551C146.466 275.291 146.02 275.161 145.482 275.161C144.936 275.161 144.486 275.291 144.13 275.551C143.775 275.811 143.597 276.158 143.597 276.591C143.597 276.834 143.667 277.055 143.805 277.254C143.944 277.445 144.126 277.596 144.351 277.709C144.577 277.813 144.776 277.895 144.949 277.956C145.131 278.008 145.309 278.051 145.482 278.086ZM145.482 282.194C146.037 282.194 146.509 282.055 146.899 281.778C147.298 281.501 147.497 281.137 147.497 280.686C147.497 280.339 147.359 280.036 147.081 279.776C146.813 279.507 146.535 279.321 146.249 279.217C145.972 279.104 145.716 279.035 145.482 279.009C145.248 279.035 144.988 279.104 144.702 279.217C144.425 279.321 144.148 279.507 143.87 279.776C143.593 280.036 143.454 280.339 143.454 280.686C143.454 281.137 143.649 281.501 144.039 281.778C144.438 282.055 144.919 282.194 145.482 282.194ZM153.257 283.156C152.676 283.156 152.165 283.035 151.723 282.792C151.281 282.549 150.93 282.22 150.67 281.804C150.419 281.379 150.228 280.907 150.098 280.387C149.977 279.858 149.916 279.291 149.916 278.684C149.916 277.869 150.037 277.133 150.28 276.474C150.523 275.815 150.913 275.274 151.45 274.849C151.996 274.416 152.659 274.199 153.439 274.199C154.436 274.199 155.237 274.546 155.844 275.239L155.298 276.045C154.795 275.456 154.176 275.161 153.439 275.161C152.902 275.161 152.442 275.33 152.061 275.668C151.688 276.006 151.415 276.426 151.242 276.929C151.077 277.423 150.995 277.969 150.995 278.567C150.995 278.714 150.999 278.827 151.008 278.905C151.225 278.558 151.558 278.246 152.009 277.969C152.468 277.692 152.954 277.553 153.465 277.553C154.288 277.553 154.964 277.796 155.493 278.281C156.03 278.758 156.299 279.438 156.299 280.322C156.299 281.111 156.022 281.782 155.467 282.337C154.912 282.883 154.176 283.156 153.257 283.156ZM153.218 282.194C153.842 282.194 154.327 282.008 154.674 281.635C155.029 281.254 155.207 280.829 155.207 280.361C155.207 279.754 155.021 279.291 154.648 278.97C154.275 278.649 153.794 278.489 153.205 278.489C152.78 278.489 152.373 278.61 151.983 278.853C151.593 279.087 151.277 279.399 151.034 279.789C151.095 280.43 151.303 280.994 151.658 281.479C152.013 281.956 152.533 282.194 153.218 282.194ZM170.303 283H169.107L172.604 275.291H167.937V274.329H173.852V275.07L170.303 283ZM177.722 283.143C176.725 283.143 175.923 282.796 175.317 282.103L175.863 281.297C176.365 281.886 176.985 282.181 177.722 282.181C178.276 282.181 178.744 282.008 179.126 281.661C179.507 281.314 179.776 280.894 179.932 280.4C180.088 279.906 180.166 279.369 180.166 278.788C180.166 278.632 180.161 278.515 180.153 278.437C179.936 278.784 179.602 279.096 179.152 279.373C178.701 279.65 178.22 279.789 177.709 279.789C176.885 279.789 176.205 279.551 175.668 279.074C175.13 278.589 174.862 277.904 174.862 277.02C174.862 276.24 175.139 275.573 175.694 275.018C176.248 274.463 176.981 274.186 177.891 274.186C178.48 274.186 178.996 274.307 179.438 274.55C179.88 274.793 180.226 275.126 180.478 275.551C180.738 275.976 180.928 276.448 181.05 276.968C181.18 277.488 181.245 278.056 181.245 278.671C181.245 279.486 181.123 280.222 180.881 280.881C180.638 281.531 180.244 282.073 179.698 282.506C179.16 282.931 178.502 283.143 177.722 283.143ZM177.956 278.853C178.38 278.853 178.788 278.736 179.178 278.502C179.576 278.268 179.888 277.956 180.114 277.566C180.062 276.925 179.858 276.361 179.503 275.876C179.147 275.391 178.627 275.148 177.943 275.148C177.327 275.148 176.842 275.339 176.487 275.72C176.131 276.101 175.954 276.522 175.954 276.981C175.954 277.588 176.14 278.051 176.513 278.372C176.885 278.693 177.366 278.853 177.956 278.853ZM195.964 283.156C195.271 283.156 194.655 283.022 194.118 282.753C193.581 282.484 193.169 282.142 192.883 281.726L193.52 281.05C193.78 281.397 194.122 281.674 194.547 281.882C194.972 282.09 195.435 282.194 195.938 282.194C196.571 282.194 197.065 282.051 197.42 281.765C197.784 281.47 197.966 281.072 197.966 280.569C197.966 280.049 197.771 279.663 197.381 279.412C197 279.161 196.475 279.035 195.808 279.035C195.297 279.035 194.998 279.039 194.911 279.048V278.06C195.006 278.069 195.305 278.073 195.808 278.073C196.397 278.073 196.878 277.956 197.251 277.722C197.632 277.479 197.823 277.12 197.823 276.643C197.823 276.184 197.637 275.824 197.264 275.564C196.9 275.295 196.441 275.161 195.886 275.161C195.011 275.161 194.248 275.512 193.598 276.214L193 275.538C193.737 274.645 194.725 274.199 195.964 274.199C196.822 274.199 197.524 274.407 198.07 274.823C198.625 275.23 198.902 275.794 198.902 276.513C198.902 277.085 198.711 277.544 198.33 277.891C197.949 278.229 197.515 278.441 197.03 278.528C197.507 278.571 197.957 278.779 198.382 279.152C198.815 279.525 199.032 280.027 199.032 280.66C199.032 281.397 198.755 281.999 198.2 282.467C197.645 282.926 196.9 283.156 195.964 283.156ZM203.72 283.156C203.148 283.156 202.641 283.026 202.199 282.766C201.766 282.497 201.419 282.142 201.159 281.7C200.908 281.258 200.717 280.781 200.587 280.27C200.466 279.759 200.405 279.226 200.405 278.671C200.405 278.116 200.466 277.583 200.587 277.072C200.717 276.561 200.908 276.088 201.159 275.655C201.419 275.213 201.766 274.862 202.199 274.602C202.641 274.333 203.148 274.199 203.72 274.199C204.284 274.199 204.786 274.333 205.228 274.602C205.67 274.862 206.017 275.213 206.268 275.655C206.528 276.088 206.719 276.561 206.84 277.072C206.97 277.583 207.035 278.116 207.035 278.671C207.035 279.226 206.97 279.759 206.84 280.27C206.719 280.781 206.528 281.258 206.268 281.7C206.017 282.142 205.67 282.497 205.228 282.766C204.786 283.026 204.284 283.156 203.72 283.156ZM202.42 281.661C202.767 282.016 203.2 282.194 203.72 282.194C204.24 282.194 204.674 282.016 205.02 281.661C205.367 281.297 205.605 280.864 205.735 280.361C205.865 279.858 205.93 279.295 205.93 278.671C205.93 278.047 205.865 277.484 205.735 276.981C205.605 276.478 205.367 276.049 205.02 275.694C204.674 275.339 204.24 275.161 203.72 275.161C203.2 275.161 202.767 275.339 202.42 275.694C202.074 276.049 201.835 276.478 201.705 276.981C201.575 277.484 201.51 278.047 201.51 278.671C201.51 279.295 201.575 279.858 201.705 280.361C201.835 280.864 202.074 281.297 202.42 281.661Z" fill="white"/>
<g clip-path="url(#clip1)">
<path d="M32 282.333H55V288H32V282.333Z" fill="#FFCE00"/>
<path d="M32 271H55V276.667H32V271Z" fill="black"/>
<path d="M32 276.667H55V282.333H32V276.667Z" fill="#DD0000"/>
</g>
<defs>
<clipPath id="clip0">
<rect width="16" height="16" fill="white" transform="translate(219.4 345.9)"/>
</clipPath>
<clipPath id="clip1">
<rect x="32" y="271" width="23" height="17" rx="3" fill="white"/>
</clipPath>
</defs>
</svg>
