<svg width="248" height="392" viewBox="0 0 248 392" fill="none" xmlns="http://www.w3.org/2000/svg">
<rect width="248" height="392" rx="30" fill="#151A23"/>
<path d="M91.299 127.114H95.559V141.314H91.299V139.979C90.2955 141.134 88.885 141.712 87.0674 141.712C85.193 141.712 83.5931 140.992 82.2678 139.553C80.9425 138.095 80.2798 136.316 80.2798 134.214C80.2798 132.112 80.9425 130.342 82.2678 128.903C83.5931 127.445 85.193 126.716 87.0674 126.716C88.885 126.716 90.2955 127.294 91.299 128.449V127.114ZM85.477 136.742C86.1018 137.366 86.9159 137.679 87.9194 137.679C88.9229 137.679 89.737 137.366 90.3618 136.742C90.9866 136.117 91.299 135.274 91.299 134.214C91.299 133.154 90.9866 132.311 90.3618 131.686C89.737 131.062 88.9229 130.749 87.9194 130.749C86.9159 130.749 86.1018 131.062 85.477 131.686C84.8522 132.311 84.5398 133.154 84.5398 134.214C84.5398 135.274 84.8522 136.117 85.477 136.742Z" fill="white"/>
<path d="M110.84 139.553C109.382 140.992 107.602 141.712 105.5 141.712C103.399 141.712 101.619 140.992 100.161 139.553C98.7032 138.095 97.9743 136.316 97.9743 134.214C97.9743 132.112 98.7032 130.342 100.161 128.903C101.619 127.445 103.399 126.716 105.5 126.716C107.602 126.716 109.382 127.445 110.84 128.903C112.297 130.342 113.026 132.112 113.026 134.214C113.026 136.316 112.297 138.095 110.84 139.553ZM103.172 136.628C103.796 137.253 104.573 137.565 105.5 137.565C106.428 137.565 107.204 137.253 107.829 136.628C108.454 136.003 108.766 135.198 108.766 134.214C108.766 133.229 108.454 132.425 107.829 131.8C107.204 131.175 106.428 130.863 105.5 130.863C104.573 130.863 103.796 131.175 103.172 131.8C102.547 132.425 102.234 133.229 102.234 134.214C102.234 135.198 102.547 136.003 103.172 136.628Z" fill="white"/>
<path d="M75.32 124.068C73.3556 122.023 70.9053 121 67.9689 121H59.4634V124.122L59.472 124.113L64.3236 128.965V125.678H67.9689C69.6497 125.678 71.0065 126.225 72.0393 127.318C73.0924 128.392 73.6189 129.829 73.6189 131.632C73.6189 133.434 73.0924 134.882 72.0393 135.976C71.0065 137.049 69.6497 137.586 67.9689 137.586H64.3236V134.737L59.472 139.589L59.4634 139.58V142.264H67.9689C70.9053 142.264 73.3556 141.251 75.32 139.226C77.3046 137.181 78.2969 134.649 78.2969 131.632C78.2969 128.614 77.3046 126.093 75.32 124.068Z" fill="white"/>
<g opacity="0.25" filter="url(#filter0_f)">
<rect x="53" y="131.986" width="8.13756" height="8.13756" transform="rotate(-45 53 131.986)" fill="#FB3E3E"/>
</g>
<path d="M126.142 121C128.23 121 129.994 121.709 131.433 123.127C132.873 124.545 133.592 126.267 133.592 128.292C133.592 130.318 132.873 132.04 131.433 133.458C129.994 134.876 128.23 135.584 126.142 135.584H122.949V142.269H118.083V121H126.142ZM126.142 131.027C126.892 131.027 127.51 130.764 127.997 130.237C128.483 129.71 128.727 129.062 128.727 128.292C128.727 127.523 128.483 126.874 127.997 126.348C127.51 125.821 126.892 125.558 126.142 125.558H122.949V131.027H126.142Z" fill="#FB3E3E"/>
<path d="M147.963 140.385C146.402 141.925 144.496 142.694 142.246 142.694C139.996 142.694 138.09 141.925 136.529 140.385C134.968 138.826 134.187 136.921 134.187 134.673C134.187 132.425 134.968 130.531 136.529 128.991C138.09 127.431 139.996 126.651 142.246 126.651C144.496 126.651 146.402 127.431 147.963 128.991C149.524 130.531 150.304 132.425 150.304 134.673C150.304 136.921 149.524 138.826 147.963 140.385ZM139.752 137.256C140.421 137.924 141.252 138.258 142.246 138.258C143.239 138.258 144.07 137.924 144.739 137.256C145.408 136.587 145.743 135.726 145.743 134.673C145.743 133.62 145.408 132.759 144.739 132.09C144.07 131.422 143.239 131.088 142.246 131.088C141.252 131.088 140.421 131.422 139.752 132.09C139.083 132.759 138.749 133.62 138.749 134.673C138.749 135.726 139.083 136.587 139.752 137.256Z" fill="#FB3E3E"/>
<path d="M167.481 142.269H162.311L157.446 135.554V142.269H152.884V121H157.446V133.731L162.007 127.077H167.329L161.794 134.673L167.481 142.269Z" fill="#FB3E3E"/>
<path d="M172.312 136.496C172.839 137.914 174.056 138.623 175.962 138.623C177.198 138.623 178.171 138.238 178.881 137.468L182.53 139.565C181.03 141.651 178.82 142.694 175.901 142.694C173.346 142.694 171.299 141.935 169.758 140.416C168.238 138.896 167.477 136.982 167.477 134.673C167.477 132.384 168.227 130.48 169.728 128.961C171.248 127.421 173.194 126.651 175.566 126.651C177.776 126.651 179.611 127.421 181.07 128.961C182.55 130.48 183.29 132.384 183.29 134.673C183.29 135.321 183.229 135.929 183.108 136.496H172.312ZM172.221 133.093H178.759C178.313 131.493 177.239 130.693 175.536 130.693C173.772 130.693 172.667 131.493 172.221 133.093Z" fill="#FB3E3E"/>
<path d="M190.439 129.781C190.723 128.809 191.29 128.069 192.142 127.563C193.013 127.036 193.966 126.773 195 126.773V131.938C193.885 131.756 192.841 131.949 191.868 132.516C190.915 133.063 190.439 134.025 190.439 135.402V142.269H185.877V127.077H190.439V129.781Z" fill="#FB3E3E"/>
<rect x="53" y="131.986" width="8.13756" height="8.13756" transform="rotate(-45 53 131.986)" fill="#FB3E3E"/>
<path d="M67.1154 203.216C65.3634 203.216 63.8934 202.64 62.7054 201.488C61.5294 200.324 60.9414 198.83 60.9414 197.006C60.9414 195.182 61.5294 193.694 62.7054 192.542C63.8934 191.378 65.3634 190.796 67.1154 190.796C69.0354 190.796 70.5534 191.588 71.6694 193.172L70.4094 193.874C70.0614 193.358 69.5934 192.938 69.0054 192.614C68.4174 192.29 67.7874 192.128 67.1154 192.128C65.7954 192.128 64.6914 192.59 63.8034 193.514C62.9274 194.426 62.4894 195.59 62.4894 197.006C62.4894 198.422 62.9274 199.592 63.8034 200.516C64.6914 201.428 65.7954 201.884 67.1154 201.884C67.7874 201.884 68.4174 201.728 69.0054 201.416C69.5934 201.092 70.0614 200.666 70.4094 200.138L71.6874 200.84C70.5234 202.424 68.9994 203.216 67.1154 203.216ZM80.4495 201.902C79.6695 202.778 78.6315 203.216 77.3355 203.216C76.0395 203.216 74.9955 202.778 74.2035 201.902C73.4235 201.026 73.0335 199.94 73.0335 198.644C73.0335 197.348 73.4235 196.268 74.2035 195.404C74.9955 194.528 76.0395 194.09 77.3355 194.09C78.6315 194.09 79.6695 194.528 80.4495 195.404C81.2415 196.268 81.6375 197.348 81.6375 198.644C81.6375 199.94 81.2415 201.026 80.4495 201.902ZM75.2115 201.038C75.7395 201.686 76.4475 202.01 77.3355 202.01C78.2235 202.01 78.9255 201.686 79.4415 201.038C79.9575 200.378 80.2155 199.58 80.2155 198.644C80.2155 197.708 79.9575 196.916 79.4415 196.268C78.9255 195.62 78.2235 195.296 77.3355 195.296C76.4475 195.296 75.7395 195.626 75.2115 196.286C74.6955 196.934 74.4375 197.72 74.4375 198.644C74.4375 199.58 74.6955 200.378 75.2115 201.038ZM91.0563 203H89.7063V197.312C89.7063 196.58 89.5383 196.064 89.2023 195.764C88.8663 195.452 88.3863 195.296 87.7623 195.296C87.2583 195.296 86.7663 195.428 86.2863 195.692C85.8183 195.956 85.4523 196.274 85.1883 196.646V203H83.8383V194.306H85.1883V195.566C85.5243 195.17 85.9743 194.828 86.5383 194.54C87.1023 194.24 87.6843 194.09 88.2843 194.09C90.1323 194.09 91.0563 195.026 91.0563 196.898V203ZM97.2443 206.528C96.4763 206.528 95.8223 206.432 95.2823 206.24C94.7423 206.06 94.2263 205.724 93.7343 205.232L94.4183 204.224C95.0783 205.016 96.0203 205.412 97.2443 205.412C98.0483 205.412 98.7143 205.196 99.2423 204.764C99.7703 204.344 100.034 203.69 100.034 202.802V201.56C99.7103 202.016 99.2903 202.388 98.7743 202.676C98.2583 202.964 97.7063 203.108 97.1183 203.108C95.9663 203.108 95.0303 202.706 94.3103 201.902C93.6023 201.086 93.2483 199.988 93.2483 198.608C93.2483 197.228 93.6023 196.13 94.3103 195.314C95.0303 194.498 95.9663 194.09 97.1183 194.09C98.3063 194.09 99.2783 194.6 100.034 195.62V194.306H101.384V202.748C101.384 204.08 100.994 205.04 100.214 205.628C99.4343 206.228 98.4443 206.528 97.2443 206.528ZM97.4423 201.92C97.9583 201.92 98.4563 201.782 98.9363 201.506C99.4283 201.23 99.7943 200.894 100.034 200.498V196.7C99.7943 196.304 99.4343 195.974 98.9543 195.71C98.4743 195.434 97.9703 195.296 97.4423 195.296C96.5783 195.296 95.8943 195.602 95.3903 196.214C94.8983 196.826 94.6523 197.624 94.6523 198.608C94.6523 199.58 94.9043 200.378 95.4083 201.002C95.9123 201.614 96.5903 201.92 97.4423 201.92ZM105.438 203H104.088V194.306H105.438V195.71C106.242 194.654 107.208 194.126 108.336 194.126V195.512C108.168 195.476 107.988 195.458 107.796 195.458C107.388 195.458 106.944 195.602 106.464 195.89C105.984 196.178 105.642 196.496 105.438 196.844V203ZM116.816 203H115.466V202.01C114.734 202.814 113.774 203.216 112.586 203.216C111.782 203.216 111.074 202.958 110.462 202.442C109.85 201.926 109.544 201.224 109.544 200.336C109.544 199.424 109.844 198.722 110.444 198.23C111.056 197.726 111.77 197.474 112.586 197.474C113.822 197.474 114.782 197.87 115.466 198.662V197.096C115.466 196.52 115.262 196.07 114.854 195.746C114.446 195.422 113.918 195.26 113.27 195.26C112.25 195.26 111.362 195.662 110.606 196.466L109.976 195.53C110.9 194.57 112.058 194.09 113.45 194.09C114.446 194.09 115.256 194.33 115.88 194.81C116.504 195.29 116.816 196.028 116.816 197.024V203ZM113.072 202.244C114.152 202.244 114.95 201.884 115.466 201.164V199.526C114.95 198.806 114.152 198.446 113.072 198.446C112.448 198.446 111.932 198.626 111.524 198.986C111.128 199.334 110.93 199.79 110.93 200.354C110.93 200.906 111.128 201.362 111.524 201.722C111.932 202.07 112.448 202.244 113.072 202.244ZM121.718 203.216C121.082 203.216 120.602 203.042 120.278 202.694C119.954 202.346 119.792 201.842 119.792 201.182V195.494H118.352V194.306H119.792V191.93H121.142V194.306H122.906V195.494H121.142V200.894C121.142 201.23 121.214 201.5 121.358 201.704C121.514 201.908 121.736 202.01 122.024 202.01C122.42 202.01 122.726 201.89 122.942 201.65L123.338 202.658C122.942 203.03 122.402 203.216 121.718 203.216ZM132.031 203H130.681V201.776C130.321 202.184 129.865 202.526 129.313 202.802C128.773 203.078 128.197 203.216 127.585 203.216C125.737 203.216 124.813 202.292 124.813 200.444V194.306H126.163V200.03C126.163 200.75 126.325 201.26 126.649 201.56C126.985 201.86 127.471 202.01 128.107 202.01C128.611 202.01 129.097 201.884 129.565 201.632C130.045 201.38 130.417 201.068 130.681 200.696V194.306H132.031V203ZM136.077 203H134.727V190.994H136.077V203ZM145.556 203H144.206V202.01C143.474 202.814 142.514 203.216 141.326 203.216C140.522 203.216 139.814 202.958 139.202 202.442C138.59 201.926 138.284 201.224 138.284 200.336C138.284 199.424 138.584 198.722 139.184 198.23C139.796 197.726 140.51 197.474 141.326 197.474C142.562 197.474 143.522 197.87 144.206 198.662V197.096C144.206 196.52 144.002 196.07 143.594 195.746C143.186 195.422 142.658 195.26 142.01 195.26C140.99 195.26 140.102 195.662 139.346 196.466L138.716 195.53C139.64 194.57 140.798 194.09 142.19 194.09C143.186 194.09 143.996 194.33 144.62 194.81C145.244 195.29 145.556 196.028 145.556 197.024V203ZM141.812 202.244C142.892 202.244 143.69 201.884 144.206 201.164V199.526C143.69 198.806 142.892 198.446 141.812 198.446C141.188 198.446 140.672 198.626 140.264 198.986C139.868 199.334 139.67 199.79 139.67 200.354C139.67 200.906 139.868 201.362 140.264 201.722C140.672 202.07 141.188 202.244 141.812 202.244ZM150.458 203.216C149.822 203.216 149.342 203.042 149.018 202.694C148.694 202.346 148.532 201.842 148.532 201.182V195.494H147.092V194.306H148.532V191.93H149.882V194.306H151.646V195.494H149.882V200.894C149.882 201.23 149.954 201.5 150.098 201.704C150.254 201.908 150.476 202.01 150.764 202.01C151.16 202.01 151.466 201.89 151.682 201.65L152.078 202.658C151.682 203.03 151.142 203.216 150.458 203.216ZM154.219 193.064C153.979 193.064 153.769 192.98 153.589 192.812C153.409 192.632 153.319 192.416 153.319 192.164C153.319 191.912 153.409 191.696 153.589 191.516C153.769 191.336 153.979 191.246 154.219 191.246C154.471 191.246 154.687 191.336 154.867 191.516C155.047 191.696 155.137 191.912 155.137 192.164C155.137 192.416 155.047 192.632 154.867 192.812C154.687 192.98 154.471 193.064 154.219 193.064ZM154.903 203H153.553V194.306H154.903V203ZM164.508 201.902C163.728 202.778 162.69 203.216 161.394 203.216C160.098 203.216 159.054 202.778 158.262 201.902C157.482 201.026 157.092 199.94 157.092 198.644C157.092 197.348 157.482 196.268 158.262 195.404C159.054 194.528 160.098 194.09 161.394 194.09C162.69 194.09 163.728 194.528 164.508 195.404C165.3 196.268 165.696 197.348 165.696 198.644C165.696 199.94 165.3 201.026 164.508 201.902ZM159.27 201.038C159.798 201.686 160.506 202.01 161.394 202.01C162.282 202.01 162.984 201.686 163.5 201.038C164.016 200.378 164.274 199.58 164.274 198.644C164.274 197.708 164.016 196.916 163.5 196.268C162.984 195.62 162.282 195.296 161.394 195.296C160.506 195.296 159.798 195.626 159.27 196.286C158.754 196.934 158.496 197.72 158.496 198.644C158.496 199.58 158.754 200.378 159.27 201.038ZM175.115 203H173.765V197.312C173.765 196.58 173.597 196.064 173.261 195.764C172.925 195.452 172.445 195.296 171.821 195.296C171.317 195.296 170.825 195.428 170.345 195.692C169.877 195.956 169.511 196.274 169.247 196.646V203H167.897V194.306H169.247V195.566C169.583 195.17 170.033 194.828 170.597 194.54C171.161 194.24 171.743 194.09 172.343 194.09C174.191 194.09 175.115 195.026 175.115 196.898V203ZM180.565 203.216C179.089 203.216 177.919 202.76 177.055 201.848L177.757 200.876C178.057 201.224 178.465 201.518 178.981 201.758C179.509 201.998 180.055 202.118 180.619 202.118C181.267 202.118 181.771 201.98 182.131 201.704C182.491 201.428 182.671 201.068 182.671 200.624C182.671 200.24 182.485 199.94 182.113 199.724C181.741 199.496 181.291 199.328 180.763 199.22C180.247 199.1 179.725 198.968 179.197 198.824C178.669 198.668 178.219 198.41 177.847 198.05C177.475 197.678 177.289 197.192 177.289 196.592C177.289 195.884 177.577 195.29 178.153 194.81C178.741 194.33 179.533 194.09 180.529 194.09C181.837 194.09 182.911 194.51 183.751 195.35L183.121 196.286C182.509 195.554 181.645 195.188 180.529 195.188C179.941 195.188 179.473 195.32 179.125 195.584C178.777 195.836 178.603 196.16 178.603 196.556C178.603 196.904 178.789 197.18 179.161 197.384C179.533 197.576 179.977 197.732 180.493 197.852C181.021 197.96 181.549 198.092 182.077 198.248C182.605 198.404 183.055 198.68 183.427 199.076C183.799 199.46 183.985 199.964 183.985 200.588C183.985 201.356 183.685 201.986 183.085 202.478C182.485 202.97 181.645 203.216 180.565 203.216ZM187.456 199.634H186.34L186.052 190.994H187.744L187.456 199.634ZM187.582 202.892C187.39 203.084 187.162 203.18 186.898 203.18C186.634 203.18 186.4 203.084 186.196 202.892C186.004 202.688 185.908 202.454 185.908 202.19C185.908 201.914 186.004 201.68 186.196 201.488C186.388 201.296 186.622 201.2 186.898 201.2C187.174 201.2 187.408 201.296 187.6 201.488C187.792 201.68 187.888 201.914 187.888 202.19C187.888 202.454 187.786 202.688 187.582 202.892ZM29.6312 233H28.1372V227.924L23.4032 220.994H25.1492L28.8752 226.574L32.6012 220.994H34.3472L29.6312 227.924V233ZM40.4856 231.902C39.7056 232.778 38.6676 233.216 37.3716 233.216C36.0756 233.216 35.0316 232.778 34.2396 231.902C33.4596 231.026 33.0696 229.94 33.0696 228.644C33.0696 227.348 33.4596 226.268 34.2396 225.404C35.0316 224.528 36.0756 224.09 37.3716 224.09C38.6676 224.09 39.7056 224.528 40.4856 225.404C41.2776 226.268 41.6736 227.348 41.6736 228.644C41.6736 229.94 41.2776 231.026 40.4856 231.902ZM35.2476 231.038C35.7756 231.686 36.4836 232.01 37.3716 232.01C38.2596 232.01 38.9616 231.686 39.4776 231.038C39.9936 230.378 40.2516 229.58 40.2516 228.644C40.2516 227.708 39.9936 226.916 39.4776 226.268C38.9616 225.62 38.2596 225.296 37.3716 225.296C36.4836 225.296 35.7756 225.626 35.2476 226.286C34.7316 226.934 34.4736 227.72 34.4736 228.644C34.4736 229.58 34.7316 230.378 35.2476 231.038ZM51.0924 233H49.7424V231.776C49.3824 232.184 48.9264 232.526 48.3744 232.802C47.8344 233.078 47.2584 233.216 46.6464 233.216C44.7984 233.216 43.8744 232.292 43.8744 230.444V224.306H45.2244V230.03C45.2244 230.75 45.3864 231.26 45.7104 231.56C46.0464 231.86 46.5324 232.01 47.1684 232.01C47.6724 232.01 48.1584 231.884 48.6264 231.632C49.1064 231.38 49.4784 231.068 49.7424 230.696V224.306H51.0924V233ZM55.1385 233H53.7885V224.306H55.1385V225.71C55.9425 224.654 56.9085 224.126 58.0365 224.126V225.512C57.8685 225.476 57.6885 225.458 57.4965 225.458C57.0885 225.458 56.6445 225.602 56.1645 225.89C55.6845 226.178 55.3425 226.496 55.1385 226.844V233ZM68.5285 233H64.4245V220.994H68.5285C70.3645 220.994 71.8465 221.564 72.9745 222.704C74.1145 223.844 74.6845 225.278 74.6845 227.006C74.6845 228.746 74.1145 230.18 72.9745 231.308C71.8465 232.436 70.3645 233 68.5285 233ZM68.5285 231.668C69.9445 231.668 71.0665 231.224 71.8945 230.336C72.7225 229.448 73.1365 228.338 73.1365 227.006C73.1365 225.662 72.7285 224.546 71.9125 223.658C71.0965 222.77 69.9685 222.326 68.5285 222.326H65.9185V231.668H68.5285ZM83.76 233H82.41V232.01C81.678 232.814 80.718 233.216 79.53 233.216C78.726 233.216 78.018 232.958 77.406 232.442C76.794 231.926 76.488 231.224 76.488 230.336C76.488 229.424 76.788 228.722 77.388 228.23C78 227.726 78.714 227.474 79.53 227.474C80.766 227.474 81.726 227.87 82.41 228.662V227.096C82.41 226.52 82.206 226.07 81.798 225.746C81.39 225.422 80.862 225.26 80.214 225.26C79.194 225.26 78.306 225.662 77.55 226.466L76.92 225.53C77.844 224.57 79.002 224.09 80.394 224.09C81.39 224.09 82.2 224.33 82.824 224.81C83.448 225.29 83.76 226.028 83.76 227.024V233ZM80.016 232.244C81.096 232.244 81.894 231.884 82.41 231.164V229.526C81.894 228.806 81.096 228.446 80.016 228.446C79.392 228.446 78.876 228.626 78.468 228.986C78.072 229.334 77.874 229.79 77.874 230.354C77.874 230.906 78.072 231.362 78.468 231.722C78.876 232.07 79.392 232.244 80.016 232.244ZM93.3782 231.902C92.5982 232.778 91.5602 233.216 90.2642 233.216C88.9682 233.216 87.9242 232.778 87.1322 231.902C86.3522 231.026 85.9622 229.94 85.9622 228.644C85.9622 227.348 86.3522 226.268 87.1322 225.404C87.9242 224.528 88.9682 224.09 90.2642 224.09C91.5602 224.09 92.5982 224.528 93.3782 225.404C94.1702 226.268 94.5662 227.348 94.5662 228.644C94.5662 229.94 94.1702 231.026 93.3782 231.902ZM88.1402 231.038C88.6682 231.686 89.3762 232.01 90.2642 232.01C91.1522 232.01 91.8542 231.686 92.3702 231.038C92.8862 230.378 93.1442 229.58 93.1442 228.644C93.1442 227.708 92.8862 226.916 92.3702 226.268C91.8542 225.62 91.1522 225.296 90.2642 225.296C89.3762 225.296 88.6682 225.626 88.1402 226.286C87.6242 226.934 87.3662 227.72 87.3662 228.644C87.3662 229.58 87.6242 230.378 88.1402 231.038ZM98.315 233H96.821V220.994H101.645C102.809 220.994 103.727 221.342 104.399 222.038C105.071 222.734 105.407 223.592 105.407 224.612C105.407 225.632 105.065 226.49 104.381 227.186C103.709 227.882 102.797 228.23 101.645 228.23H98.315V233ZM101.465 226.898C102.173 226.898 102.749 226.688 103.193 226.268C103.637 225.836 103.859 225.284 103.859 224.612C103.859 223.94 103.637 223.394 103.193 222.974C102.749 222.542 102.173 222.326 101.465 222.326H98.315V226.898H101.465ZM114.015 231.902C113.235 232.778 112.197 233.216 110.901 233.216C109.605 233.216 108.561 232.778 107.769 231.902C106.989 231.026 106.599 229.94 106.599 228.644C106.599 227.348 106.989 226.268 107.769 225.404C108.561 224.528 109.605 224.09 110.901 224.09C112.197 224.09 113.235 224.528 114.015 225.404C114.807 226.268 115.203 227.348 115.203 228.644C115.203 229.94 114.807 231.026 114.015 231.902ZM108.777 231.038C109.305 231.686 110.013 232.01 110.901 232.01C111.789 232.01 112.491 231.686 113.007 231.038C113.523 230.378 113.781 229.58 113.781 228.644C113.781 227.708 113.523 226.916 113.007 226.268C112.491 225.62 111.789 225.296 110.901 225.296C110.013 225.296 109.305 225.626 108.777 226.286C108.261 226.934 108.003 227.72 108.003 228.644C108.003 229.58 108.261 230.378 108.777 231.038ZM125.054 233H123.326L120.194 229.094L118.754 230.516V233H117.404V220.994H118.754V228.932L123.326 224.306H125.036L121.184 228.248L125.054 233ZM130.521 233.216C129.225 233.216 128.163 232.796 127.335 231.956C126.507 231.104 126.093 230 126.093 228.644C126.093 227.372 126.501 226.298 127.317 225.422C128.133 224.534 129.153 224.09 130.377 224.09C131.661 224.09 132.675 224.534 133.419 225.422C134.175 226.298 134.553 227.408 134.553 228.752V229.094H127.515C127.575 229.946 127.887 230.66 128.451 231.236C129.015 231.812 129.747 232.1 130.647 232.1C131.727 232.1 132.621 231.734 133.329 231.002L133.977 231.884C133.089 232.772 131.937 233.216 130.521 233.216ZM133.221 228.104C133.209 227.36 132.957 226.694 132.465 226.106C131.973 225.506 131.271 225.206 130.359 225.206C129.495 225.206 128.811 225.5 128.307 226.088C127.815 226.676 127.551 227.348 127.515 228.104H133.221ZM138.09 233H136.74V224.306H138.09V225.71C138.894 224.654 139.86 224.126 140.988 224.126V225.512C140.82 225.476 140.64 225.458 140.448 225.458C140.04 225.458 139.596 225.602 139.116 225.89C138.636 226.178 138.294 226.496 138.09 226.844V233ZM154.108 233H152.758V232.01C152.026 232.814 151.066 233.216 149.878 233.216C149.074 233.216 148.366 232.958 147.754 232.442C147.142 231.926 146.836 231.224 146.836 230.336C146.836 229.424 147.136 228.722 147.736 228.23C148.348 227.726 149.062 227.474 149.878 227.474C151.114 227.474 152.074 227.87 152.758 228.662V227.096C152.758 226.52 152.554 226.07 152.146 225.746C151.738 225.422 151.21 225.26 150.562 225.26C149.542 225.26 148.654 225.662 147.898 226.466L147.268 225.53C148.192 224.57 149.35 224.09 150.742 224.09C151.738 224.09 152.548 224.33 153.172 224.81C153.796 225.29 154.108 226.028 154.108 227.024V233ZM150.364 232.244C151.444 232.244 152.242 231.884 152.758 231.164V229.526C152.242 228.806 151.444 228.446 150.364 228.446C149.74 228.446 149.224 228.626 148.816 228.986C148.42 229.334 148.222 229.79 148.222 230.354C148.222 230.906 148.42 231.362 148.816 231.722C149.224 232.07 149.74 232.244 150.364 232.244ZM160.648 233.216C159.364 233.216 158.32 232.784 157.516 231.92C156.712 231.044 156.31 229.952 156.31 228.644C156.31 227.336 156.712 226.25 157.516 225.386C158.32 224.522 159.364 224.09 160.648 224.09C161.992 224.09 163.054 224.594 163.834 225.602L162.934 226.43C162.382 225.674 161.644 225.296 160.72 225.296C159.808 225.296 159.076 225.608 158.524 226.232C157.984 226.856 157.714 227.66 157.714 228.644C157.714 229.628 157.984 230.438 158.524 231.074C159.076 231.698 159.808 232.01 160.72 232.01C161.632 232.01 162.37 231.632 162.934 230.876L163.834 231.704C163.054 232.712 161.992 233.216 160.648 233.216ZM169.56 233.216C168.276 233.216 167.232 232.784 166.428 231.92C165.624 231.044 165.222 229.952 165.222 228.644C165.222 227.336 165.624 226.25 166.428 225.386C167.232 224.522 168.276 224.09 169.56 224.09C170.904 224.09 171.966 224.594 172.746 225.602L171.846 226.43C171.294 225.674 170.556 225.296 169.632 225.296C168.72 225.296 167.988 225.608 167.436 226.232C166.896 226.856 166.626 227.66 166.626 228.644C166.626 229.628 166.896 230.438 167.436 231.074C167.988 231.698 168.72 232.01 169.632 232.01C170.544 232.01 171.282 231.632 171.846 230.876L172.746 231.704C171.966 232.712 170.904 233.216 169.56 233.216ZM181.55 231.902C180.77 232.778 179.732 233.216 178.436 233.216C177.14 233.216 176.096 232.778 175.304 231.902C174.524 231.026 174.134 229.94 174.134 228.644C174.134 227.348 174.524 226.268 175.304 225.404C176.096 224.528 177.14 224.09 178.436 224.09C179.732 224.09 180.77 224.528 181.55 225.404C182.342 226.268 182.738 227.348 182.738 228.644C182.738 229.94 182.342 231.026 181.55 231.902ZM176.312 231.038C176.84 231.686 177.548 232.01 178.436 232.01C179.324 232.01 180.026 231.686 180.542 231.038C181.058 230.378 181.316 229.58 181.316 228.644C181.316 227.708 181.058 226.916 180.542 226.268C180.026 225.62 179.324 225.296 178.436 225.296C177.548 225.296 176.84 225.626 176.312 226.286C175.796 226.934 175.538 227.72 175.538 228.644C175.538 229.58 175.796 230.378 176.312 231.038ZM192.157 233H190.807V231.776C190.447 232.184 189.991 232.526 189.439 232.802C188.899 233.078 188.323 233.216 187.711 233.216C185.863 233.216 184.939 232.292 184.939 230.444V224.306H186.289V230.03C186.289 230.75 186.451 231.26 186.775 231.56C187.111 231.86 187.597 232.01 188.233 232.01C188.737 232.01 189.223 231.884 189.691 231.632C190.171 231.38 190.543 231.068 190.807 230.696V224.306H192.157V233ZM202.071 233H200.721V227.312C200.721 226.58 200.553 226.064 200.217 225.764C199.881 225.452 199.401 225.296 198.777 225.296C198.273 225.296 197.781 225.428 197.301 225.692C196.833 225.956 196.467 226.274 196.203 226.646V233H194.853V224.306H196.203V225.566C196.539 225.17 196.989 224.828 197.553 224.54C198.117 224.24 198.699 224.09 199.299 224.09C201.147 224.09 202.071 225.026 202.071 226.898V233ZM206.963 233.216C206.327 233.216 205.847 233.042 205.523 232.694C205.199 232.346 205.037 231.842 205.037 231.182V225.494H203.597V224.306H205.037V221.93H206.387V224.306H208.151V225.494H206.387V230.894C206.387 231.23 206.459 231.5 206.603 231.704C206.759 231.908 206.981 232.01 207.269 232.01C207.665 232.01 207.971 231.89 208.187 231.65L208.583 232.658C208.187 233.03 207.647 233.216 206.963 233.216ZM215.365 223.064C215.125 223.064 214.915 222.98 214.735 222.812C214.555 222.632 214.465 222.416 214.465 222.164C214.465 221.912 214.555 221.696 214.735 221.516C214.915 221.336 215.125 221.246 215.365 221.246C215.617 221.246 215.833 221.336 216.013 221.516C216.193 221.696 216.283 221.912 216.283 222.164C216.283 222.416 216.193 222.632 216.013 222.812C215.833 222.98 215.617 223.064 215.365 223.064ZM216.049 233H214.699V224.306H216.049V233ZM221.496 233.216C220.02 233.216 218.85 232.76 217.986 231.848L218.688 230.876C218.988 231.224 219.396 231.518 219.912 231.758C220.44 231.998 220.986 232.118 221.55 232.118C222.198 232.118 222.702 231.98 223.062 231.704C223.422 231.428 223.602 231.068 223.602 230.624C223.602 230.24 223.416 229.94 223.044 229.724C222.672 229.496 222.222 229.328 221.694 229.22C221.178 229.1 220.656 228.968 220.128 228.824C219.6 228.668 219.15 228.41 218.778 228.05C218.406 227.678 218.22 227.192 218.22 226.592C218.22 225.884 218.508 225.29 219.084 224.81C219.672 224.33 220.464 224.09 221.46 224.09C222.768 224.09 223.842 224.51 224.682 225.35L224.052 226.286C223.44 225.554 222.576 225.188 221.46 225.188C220.872 225.188 220.404 225.32 220.056 225.584C219.708 225.836 219.534 226.16 219.534 226.556C219.534 226.904 219.72 227.18 220.092 227.384C220.464 227.576 220.908 227.732 221.424 227.852C221.952 227.96 222.48 228.092 223.008 228.248C223.536 228.404 223.986 228.68 224.358 229.076C224.73 229.46 224.916 229.964 224.916 230.588C224.916 231.356 224.616 231.986 224.016 232.478C223.416 232.97 222.576 233.216 221.496 233.216ZM39.7809 263H38.4309V257.312C38.4309 256.58 38.2629 256.064 37.9269 255.764C37.5909 255.452 37.1109 255.296 36.4869 255.296C35.9829 255.296 35.4909 255.428 35.0109 255.692C34.5429 255.956 34.1769 256.274 33.9129 256.646V263H32.5629V254.306H33.9129V255.566C34.2489 255.17 34.6989 254.828 35.2629 254.54C35.8269 254.24 36.4089 254.09 37.0089 254.09C38.8569 254.09 39.7809 255.026 39.7809 256.898V263ZM49.389 261.902C48.609 262.778 47.571 263.216 46.275 263.216C44.979 263.216 43.935 262.778 43.143 261.902C42.363 261.026 41.973 259.94 41.973 258.644C41.973 257.348 42.363 256.268 43.143 255.404C43.935 254.528 44.979 254.09 46.275 254.09C47.571 254.09 48.609 254.528 49.389 255.404C50.181 256.268 50.577 257.348 50.577 258.644C50.577 259.94 50.181 261.026 49.389 261.902ZM44.151 261.038C44.679 261.686 45.387 262.01 46.275 262.01C47.163 262.01 47.865 261.686 48.381 261.038C48.897 260.378 49.155 259.58 49.155 258.644C49.155 257.708 48.897 256.916 48.381 256.268C47.865 255.62 47.163 255.296 46.275 255.296C45.387 255.296 44.679 255.626 44.151 256.286C43.635 256.934 43.377 257.72 43.377 258.644C43.377 259.58 43.635 260.378 44.151 261.038ZM61.6517 263H60.3017L58.0337 256.016L55.7657 263H54.4157L51.6437 254.306H53.0477L55.1717 261.236L57.4577 254.306H58.6097L60.8957 261.236L63.0197 254.306H64.4237L61.6517 263ZM128.769 263H127.419V262.01C126.687 262.814 125.727 263.216 124.539 263.216C123.735 263.216 123.027 262.958 122.415 262.442C121.803 261.926 121.497 261.224 121.497 260.336C121.497 259.424 121.797 258.722 122.397 258.23C123.009 257.726 123.723 257.474 124.539 257.474C125.775 257.474 126.735 257.87 127.419 258.662V257.096C127.419 256.52 127.215 256.07 126.807 255.746C126.399 255.422 125.871 255.26 125.223 255.26C124.203 255.26 123.315 255.662 122.559 256.466L121.929 255.53C122.853 254.57 124.011 254.09 125.403 254.09C126.399 254.09 127.209 254.33 127.833 254.81C128.457 255.29 128.769 256.028 128.769 257.024V263ZM125.025 262.244C126.105 262.244 126.903 261.884 127.419 261.164V259.526C126.903 258.806 126.105 258.446 125.025 258.446C124.401 258.446 123.885 258.626 123.477 258.986C123.081 259.334 122.883 259.79 122.883 260.354C122.883 260.906 123.081 261.362 123.477 261.722C123.885 262.07 124.401 262.244 125.025 262.244ZM138.693 263H137.343V257.312C137.343 256.58 137.175 256.064 136.839 255.764C136.503 255.452 136.023 255.296 135.399 255.296C134.895 255.296 134.403 255.428 133.923 255.692C133.455 255.956 133.089 256.274 132.825 256.646V263H131.475V254.306H132.825V255.566C133.161 255.17 133.611 254.828 134.175 254.54C134.739 254.24 135.321 254.09 135.921 254.09C137.769 254.09 138.693 255.026 138.693 256.898V263ZM149.039 263H147.689V261.704C146.945 262.712 145.967 263.216 144.755 263.216C143.603 263.216 142.667 262.808 141.947 261.992C141.239 261.164 140.885 260.054 140.885 258.662C140.885 257.282 141.239 256.178 141.947 255.35C142.667 254.51 143.603 254.09 144.755 254.09C145.955 254.09 146.933 254.6 147.689 255.62V250.994H149.039V263ZM145.079 262.01C145.607 262.01 146.111 261.878 146.591 261.614C147.071 261.35 147.437 261.026 147.689 260.642V256.7C147.437 256.304 147.065 255.974 146.573 255.71C146.093 255.434 145.595 255.296 145.079 255.296C144.227 255.296 143.549 255.614 143.045 256.25C142.541 256.874 142.289 257.678 142.289 258.662C142.289 259.646 142.541 260.45 143.045 261.074C143.549 261.698 144.227 262.01 145.079 262.01ZM216.411 262.892C216.219 263.084 215.985 263.18 215.709 263.18C215.433 263.18 215.199 263.084 215.007 262.892C214.815 262.7 214.719 262.466 214.719 262.19C214.719 261.914 214.815 261.68 215.007 261.488C215.199 261.296 215.433 261.2 215.709 261.2C215.985 261.2 216.219 261.296 216.411 261.488C216.603 261.68 216.699 261.914 216.699 262.19C216.699 262.466 216.603 262.7 216.411 262.892Z" fill="white"/>
<path d="M77.4231 263H76.0731V262.01C75.3411 262.814 74.3811 263.216 73.1931 263.216C72.3891 263.216 71.6811 262.958 71.0691 262.442C70.4571 261.926 70.1511 261.224 70.1511 260.336C70.1511 259.424 70.4511 258.722 71.0511 258.23C71.6631 257.726 72.3771 257.474 73.1931 257.474C74.4291 257.474 75.3891 257.87 76.0731 258.662V257.096C76.0731 256.52 75.8691 256.07 75.4611 255.746C75.0531 255.422 74.5251 255.26 73.8771 255.26C72.8571 255.26 71.9691 255.662 71.2131 256.466L70.5831 255.53C71.5071 254.57 72.6651 254.09 74.0571 254.09C75.0531 254.09 75.8631 254.33 76.4871 254.81C77.1111 255.29 77.4231 256.028 77.4231 257.024V263ZM73.6791 262.244C74.7591 262.244 75.5571 261.884 76.0731 261.164V259.526C75.5571 258.806 74.7591 258.446 73.6791 258.446C73.0551 258.446 72.5391 258.626 72.1311 258.986C71.7351 259.334 71.5371 259.79 71.5371 260.354C71.5371 260.906 71.7351 261.362 72.1311 261.722C72.5391 262.07 73.0551 262.244 73.6791 262.244ZM83.9633 263.216C82.6793 263.216 81.6353 262.784 80.8313 261.92C80.0273 261.044 79.6253 259.952 79.6253 258.644C79.6253 257.336 80.0273 256.25 80.8313 255.386C81.6353 254.522 82.6793 254.09 83.9633 254.09C85.3073 254.09 86.3693 254.594 87.1493 255.602L86.2493 256.43C85.6973 255.674 84.9593 255.296 84.0353 255.296C83.1233 255.296 82.3913 255.608 81.8393 256.232C81.2993 256.856 81.0293 257.66 81.0293 258.644C81.0293 259.628 81.2993 260.438 81.8393 261.074C82.3913 261.698 83.1233 262.01 84.0353 262.01C84.9473 262.01 85.6853 261.632 86.2493 260.876L87.1493 261.704C86.3693 262.712 85.3073 263.216 83.9633 263.216ZM91.2374 263.216C90.6014 263.216 90.1214 263.042 89.7974 262.694C89.4734 262.346 89.3114 261.842 89.3114 261.182V255.494H87.8714V254.306H89.3114V251.93H90.6614V254.306H92.4254V255.494H90.6614V260.894C90.6614 261.23 90.7334 261.5 90.8774 261.704C91.0334 261.908 91.2554 262.01 91.5434 262.01C91.9394 262.01 92.2454 261.89 92.4614 261.65L92.8574 262.658C92.4614 263.03 91.9214 263.216 91.2374 263.216ZM94.9984 253.064C94.7584 253.064 94.5484 252.98 94.3684 252.812C94.1884 252.632 94.0984 252.416 94.0984 252.164C94.0984 251.912 94.1884 251.696 94.3684 251.516C94.5484 251.336 94.7584 251.246 94.9984 251.246C95.2504 251.246 95.4664 251.336 95.6464 251.516C95.8264 251.696 95.9164 251.912 95.9164 252.164C95.9164 252.416 95.8264 252.632 95.6464 252.812C95.4664 252.98 95.2504 253.064 94.9984 253.064ZM95.6824 263H94.3324V254.306H95.6824V263ZM102.173 263H100.697L97.0794 254.306H98.5374L101.435 261.434L104.315 254.306H105.791L102.173 263ZM111.124 263.216C109.828 263.216 108.766 262.796 107.938 261.956C107.11 261.104 106.696 260 106.696 258.644C106.696 257.372 107.104 256.298 107.92 255.422C108.736 254.534 109.756 254.09 110.98 254.09C112.264 254.09 113.278 254.534 114.022 255.422C114.778 256.298 115.156 257.408 115.156 258.752V259.094H108.118C108.178 259.946 108.49 260.66 109.054 261.236C109.618 261.812 110.35 262.1 111.25 262.1C112.33 262.1 113.224 261.734 113.932 261.002L114.58 261.884C113.692 262.772 112.54 263.216 111.124 263.216ZM113.824 258.104C113.812 257.36 113.56 256.694 113.068 256.106C112.576 255.506 111.874 255.206 110.962 255.206C110.098 255.206 109.414 255.5 108.91 256.088C108.418 256.676 108.154 257.348 108.118 258.104H113.824ZM160.181 263H158.705L155.087 254.306H156.545L159.443 261.434L162.323 254.306H163.799L160.181 263ZM169.131 263.216C167.835 263.216 166.773 262.796 165.945 261.956C165.117 261.104 164.703 260 164.703 258.644C164.703 257.372 165.111 256.298 165.927 255.422C166.743 254.534 167.763 254.09 168.987 254.09C170.271 254.09 171.285 254.534 172.029 255.422C172.785 256.298 173.163 257.408 173.163 258.752V259.094H166.125C166.185 259.946 166.497 260.66 167.061 261.236C167.625 261.812 168.357 262.1 169.257 262.1C170.337 262.1 171.231 261.734 171.939 261.002L172.587 261.884C171.699 262.772 170.547 263.216 169.131 263.216ZM171.831 258.104C171.819 257.36 171.567 256.694 171.075 256.106C170.583 255.506 169.881 255.206 168.969 255.206C168.105 255.206 167.421 255.5 166.917 256.088C166.425 256.676 166.161 257.348 166.125 258.104H171.831ZM176.7 263H175.35V254.306H176.7V255.71C177.504 254.654 178.47 254.126 179.598 254.126V255.512C179.43 255.476 179.25 255.458 179.058 255.458C178.65 255.458 178.206 255.602 177.726 255.89C177.246 256.178 176.904 256.496 176.7 256.844V263ZM181.957 253.064C181.717 253.064 181.507 252.98 181.327 252.812C181.147 252.632 181.057 252.416 181.057 252.164C181.057 251.912 181.147 251.696 181.327 251.516C181.507 251.336 181.717 251.246 181.957 251.246C182.209 251.246 182.425 251.336 182.605 251.516C182.785 251.696 182.875 251.912 182.875 252.164C182.875 252.416 182.785 252.632 182.605 252.812C182.425 252.98 182.209 253.064 181.957 253.064ZM182.641 263H181.291V254.306H182.641V263ZM187.062 263H185.712V255.494H184.272V254.306H185.712V253.64C185.712 252.752 185.94 252.062 186.396 251.57C186.852 251.066 187.464 250.814 188.232 250.814C188.784 250.814 189.222 250.916 189.546 251.12L189.204 252.146C188.976 252.002 188.718 251.93 188.43 251.93C187.986 251.93 187.644 252.08 187.404 252.38C187.176 252.668 187.062 253.088 187.062 253.64V254.306H188.826V255.494H187.062V263ZM191.094 253.064C190.854 253.064 190.644 252.98 190.464 252.812C190.284 252.632 190.194 252.416 190.194 252.164C190.194 251.912 190.284 251.696 190.464 251.516C190.644 251.336 190.854 251.246 191.094 251.246C191.346 251.246 191.562 251.336 191.742 251.516C191.922 251.696 192.012 251.912 192.012 252.164C192.012 252.416 191.922 252.632 191.742 252.812C191.562 252.98 191.346 253.064 191.094 253.064ZM191.778 263H190.428V254.306H191.778V263ZM198.417 263.216C197.121 263.216 196.059 262.796 195.231 261.956C194.403 261.104 193.989 260 193.989 258.644C193.989 257.372 194.397 256.298 195.213 255.422C196.029 254.534 197.049 254.09 198.273 254.09C199.557 254.09 200.571 254.534 201.315 255.422C202.071 256.298 202.449 257.408 202.449 258.752V259.094H195.411C195.471 259.946 195.783 260.66 196.347 261.236C196.911 261.812 197.643 262.1 198.543 262.1C199.623 262.1 200.517 261.734 201.225 261.002L201.873 261.884C200.985 262.772 199.833 263.216 198.417 263.216ZM201.117 258.104C201.105 257.36 200.853 256.694 200.361 256.106C199.869 255.506 199.167 255.206 198.255 255.206C197.391 255.206 196.707 255.5 196.203 256.088C195.711 256.676 195.447 257.348 195.411 258.104H201.117ZM212.285 263H210.935V261.704C210.191 262.712 209.213 263.216 208.001 263.216C206.849 263.216 205.913 262.808 205.193 261.992C204.485 261.164 204.131 260.054 204.131 258.662C204.131 257.282 204.485 256.178 205.193 255.35C205.913 254.51 206.849 254.09 208.001 254.09C209.201 254.09 210.179 254.6 210.935 255.62V250.994H212.285V263ZM208.325 262.01C208.853 262.01 209.357 261.878 209.837 261.614C210.317 261.35 210.683 261.026 210.935 260.642V256.7C210.683 256.304 210.311 255.974 209.819 255.71C209.339 255.434 208.841 255.296 208.325 255.296C207.473 255.296 206.795 255.614 206.291 256.25C205.787 256.874 205.535 257.678 205.535 258.662C205.535 259.646 205.787 260.45 206.291 261.074C206.795 261.698 207.473 262.01 208.325 262.01Z" fill="#FB3E3E"/>
<defs>
<filter id="filter0_f" x="3" y="76.2316" width="111.508" height="111.508" filterUnits="userSpaceOnUse" color-interpolation-filters="sRGB">
<feFlood flood-opacity="0" result="BackgroundImageFix"/>
<feBlend mode="normal" in="SourceGraphic" in2="BackgroundImageFix" result="shape"/>
<feGaussianBlur stdDeviation="25" result="effect1_foregroundBlur"/>
</filter>
</defs>
</svg>
