<svg width="248" height="392" viewBox="0 0 248 392" fill="none" xmlns="http://www.w3.org/2000/svg">
<rect width="248" height="392" rx="30" fill="#151A23"/>
<rect x="17.5" y="253.5" width="207" height="38" rx="9.5" fill="#FB3E3E" stroke="#FB3E3E"/>
<path d="M85.544 277H83.208L79.016 266.328H81.144L84.376 274.968L87.608 266.328H89.736L85.544 277ZM93.4685 277.192C92.2952 277.192 91.3245 276.819 90.5565 276.072C89.7992 275.315 89.4205 274.333 89.4205 273.128C89.4205 271.997 89.7885 271.043 90.5245 270.264C91.2712 269.475 92.2098 269.08 93.3405 269.08C94.4818 269.08 95.3992 269.475 96.0925 270.264C96.7965 271.053 97.1485 272.061 97.1485 273.288V273.688H91.1805C91.2445 274.296 91.4952 274.803 91.9325 275.208C92.3698 275.613 92.9405 275.816 93.6445 275.816C94.0392 275.816 94.4338 275.741 94.8285 275.592C95.2338 275.443 95.5698 275.235 95.8365 274.968L96.6045 276.072C95.8258 276.819 94.7805 277.192 93.4685 277.192ZM95.5165 272.504C95.4952 271.971 95.2978 271.496 94.9245 271.08C94.5618 270.664 94.0338 270.456 93.3405 270.456C92.6792 270.456 92.1618 270.664 91.7885 271.08C91.4152 271.485 91.2072 271.96 91.1645 272.504H95.5165ZM100.487 277H98.8068V269.272H100.487V270.408C100.785 270.024 101.159 269.709 101.607 269.464C102.055 269.219 102.519 269.096 102.999 269.096V270.76C102.849 270.728 102.673 270.712 102.471 270.712C102.119 270.712 101.74 270.819 101.335 271.032C100.94 271.235 100.657 271.469 100.487 271.736V277ZM105.186 268.328C104.908 268.328 104.663 268.227 104.45 268.024C104.247 267.821 104.146 267.576 104.146 267.288C104.146 267 104.247 266.755 104.45 266.552C104.663 266.349 104.908 266.248 105.186 266.248C105.474 266.248 105.719 266.349 105.922 266.552C106.124 266.755 106.226 267 106.226 267.288C106.226 267.576 106.124 267.821 105.922 268.024C105.719 268.227 105.474 268.328 105.186 268.328ZM106.034 277H104.354V269.272H106.034V277ZM110.293 277H108.613V270.744H107.333V269.272H108.613V268.84C108.613 268.008 108.832 267.357 109.269 266.888C109.717 266.408 110.314 266.168 111.061 266.168C111.861 266.168 112.48 266.392 112.917 266.84L112.261 267.88C112.016 267.656 111.717 267.544 111.365 267.544C111.034 267.544 110.773 267.656 110.581 267.88C110.389 268.093 110.293 268.413 110.293 268.84V269.272H111.861V270.744H110.293V277ZM112.799 280.024L113.055 278.52C113.247 278.605 113.46 278.648 113.695 278.648C114.239 278.648 114.607 278.424 114.799 277.976L115.183 277.096L112.015 269.272H113.807L116.063 275.064L118.319 269.272H120.127L116.399 278.392C115.94 279.533 115.055 280.115 113.743 280.136C113.391 280.136 113.076 280.099 112.799 280.024ZM132.651 277H125.339V266.328H132.651V267.976H127.211V270.744H132.539V272.392H127.211V275.352H132.651V277ZM145.678 277H143.998V271.96C143.998 271.032 143.576 270.568 142.734 270.568C142.382 270.568 142.04 270.669 141.71 270.872C141.379 271.075 141.123 271.315 140.942 271.592V277H139.262V271.96C139.262 271.032 138.835 270.568 137.982 270.568C137.64 270.568 137.304 270.669 136.974 270.872C136.654 271.075 136.398 271.32 136.206 271.608V277H134.526V269.272H136.206V270.328C136.398 270.04 136.728 269.763 137.198 269.496C137.678 269.219 138.184 269.08 138.718 269.08C139.838 269.08 140.542 269.555 140.83 270.504C141.075 270.12 141.438 269.789 141.918 269.512C142.398 269.224 142.91 269.08 143.454 269.08C144.936 269.08 145.678 269.859 145.678 271.416V277ZM154.254 277H152.574V276.168C151.976 276.851 151.144 277.192 150.078 277.192C149.374 277.192 148.75 276.968 148.206 276.52C147.662 276.061 147.39 275.432 147.39 274.632C147.39 273.811 147.656 273.187 148.19 272.76C148.734 272.333 149.363 272.12 150.078 272.12C151.176 272.12 152.008 272.451 152.574 273.112V271.96C152.574 271.512 152.408 271.16 152.078 270.904C151.747 270.648 151.31 270.52 150.766 270.52C149.902 270.52 149.139 270.845 148.478 271.496L147.79 270.328C148.664 269.496 149.747 269.08 151.038 269.08C151.987 269.08 152.76 269.304 153.358 269.752C153.955 270.2 154.254 270.909 154.254 271.88V277ZM150.734 276.04C151.576 276.04 152.19 275.773 152.574 275.24V274.072C152.19 273.539 151.576 273.272 150.734 273.272C150.254 273.272 149.859 273.4 149.55 273.656C149.24 273.912 149.086 274.248 149.086 274.664C149.086 275.08 149.24 275.416 149.55 275.672C149.859 275.917 150.254 276.04 150.734 276.04ZM157.264 268.328C156.986 268.328 156.741 268.227 156.528 268.024C156.325 267.821 156.224 267.576 156.224 267.288C156.224 267 156.325 266.755 156.528 266.552C156.741 266.349 156.986 266.248 157.264 266.248C157.552 266.248 157.797 266.349 158 266.552C158.202 266.755 158.304 267 158.304 267.288C158.304 267.576 158.202 267.821 158 268.024C157.797 268.227 157.552 268.328 157.264 268.328ZM158.112 277H156.432V269.272H158.112V277ZM161.971 277H160.291V266.328H161.971V277Z" fill="white"/>
<circle opacity="0.7" cx="220" cy="291" r="18" fill="white"/>
<circle cx="220.4" cy="291.4" r="11.2" fill="white"/>
<g clip-path="url(#clip0)">
<path d="M232.243 301.433L229.059 298.248L231.33 296.936C231.508 296.834 231.611 296.639 231.596 296.434C231.582 296.23 231.451 296.052 231.261 295.976L221.131 291.935C220.933 291.856 220.706 291.903 220.555 292.054C220.404 292.205 220.357 292.432 220.436 292.63L224.476 302.761C224.552 302.952 224.73 303.082 224.935 303.097C225.139 303.111 225.334 303.008 225.436 302.831L226.748 300.559L229.932 303.743C230.033 303.844 230.169 303.9 230.311 303.9C230.453 303.9 230.589 303.844 230.689 303.743L232.243 302.189C232.452 301.98 232.452 301.642 232.243 301.433Z" fill="#FF4848"/>
<path d="M218.75 289.492C218.541 289.283 218.202 289.283 217.993 289.492C217.784 289.701 217.784 290.04 217.993 290.249L219.182 291.438C219.286 291.542 219.423 291.594 219.56 291.594C219.697 291.594 219.834 291.542 219.938 291.438C220.147 291.229 220.147 290.89 219.938 290.681L218.75 289.492Z" fill="#FF4848"/>
<path d="M219.152 293.191C219.152 292.896 218.913 292.656 218.617 292.656H216.936C216.641 292.656 216.401 292.895 216.401 293.191C216.401 293.486 216.64 293.726 216.936 293.726H218.617C218.913 293.726 219.152 293.486 219.152 293.191Z" fill="#FF4848"/>
<path d="M218.936 294.842L217.747 296.031C217.538 296.24 217.538 296.579 217.747 296.788C217.851 296.892 217.988 296.945 218.125 296.945C218.262 296.945 218.399 296.892 218.503 296.788L219.692 295.599C219.901 295.39 219.901 295.051 219.692 294.842C219.483 294.633 219.145 294.633 218.936 294.842Z" fill="#FF4848"/>
<path d="M221.692 290.652C221.987 290.652 222.227 290.412 222.227 290.116V288.435C222.227 288.139 221.987 287.9 221.692 287.9C221.396 287.9 221.156 288.139 221.156 288.435V290.117C221.156 290.412 221.396 290.652 221.692 290.652Z" fill="#FF4848"/>
<path d="M223.721 291.348C223.858 291.348 223.995 291.296 224.099 291.191L225.288 290.002C225.497 289.793 225.497 289.455 225.288 289.246C225.079 289.037 224.741 289.037 224.532 289.246L223.343 290.435C223.134 290.644 223.134 290.982 223.343 291.191C223.447 291.296 223.584 291.348 223.721 291.348Z" fill="#FF4848"/>
</g>
<path d="M52.0975 115.694H50.8375L48.7795 108.162L46.7215 115.694H45.4615L42.8015 106.356H44.0895L46.1615 114.14L48.3035 106.356H49.2695L51.4115 114.14L53.4695 106.356H54.7575L52.0975 115.694ZM58.5063 115.862C57.4983 115.862 56.6723 115.536 56.0283 114.882C55.3843 114.22 55.0623 113.361 55.0623 112.306C55.0623 111.317 55.3796 110.482 56.0143 109.8C56.649 109.11 57.4423 108.764 58.3943 108.764C59.393 108.764 60.1816 109.11 60.7603 109.8C61.3483 110.482 61.6423 111.345 61.6423 112.39V112.656H56.1683C56.215 113.319 56.4576 113.874 56.8963 114.322C57.335 114.77 57.9043 114.994 58.6043 114.994C59.4443 114.994 60.1396 114.71 60.6903 114.14L61.1943 114.826C60.5036 115.517 59.6076 115.862 58.5063 115.862ZM60.6063 111.886C60.597 111.308 60.401 110.79 60.0183 110.332C59.6356 109.866 59.0896 109.632 58.3803 109.632C57.7083 109.632 57.1763 109.861 56.7843 110.318C56.4016 110.776 56.1963 111.298 56.1683 111.886H60.6063ZM64.393 115.694H63.343V106.356H64.393V115.694ZM69.4695 115.862C68.4708 115.862 67.6588 115.526 67.0335 114.854C66.4082 114.173 66.0955 113.324 66.0955 112.306C66.0955 111.289 66.4082 110.444 67.0335 109.772C67.6588 109.1 68.4708 108.764 69.4695 108.764C70.5148 108.764 71.3408 109.156 71.9475 109.94L71.2475 110.584C70.8182 109.996 70.2442 109.702 69.5255 109.702C68.8162 109.702 68.2468 109.945 67.8175 110.43C67.3975 110.916 67.1875 111.541 67.1875 112.306C67.1875 113.072 67.3975 113.702 67.8175 114.196C68.2468 114.682 68.8162 114.924 69.5255 114.924C70.2348 114.924 70.8088 114.63 71.2475 114.042L71.9475 114.686C71.3408 115.47 70.5148 115.862 69.4695 115.862ZM78.7951 114.84C78.1885 115.522 77.3811 115.862 76.3731 115.862C75.3651 115.862 74.5531 115.522 73.9371 114.84C73.3305 114.159 73.0271 113.314 73.0271 112.306C73.0271 111.298 73.3305 110.458 73.9371 109.786C74.5531 109.105 75.3651 108.764 76.3731 108.764C77.3811 108.764 78.1885 109.105 78.7951 109.786C79.4111 110.458 79.7191 111.298 79.7191 112.306C79.7191 113.314 79.4111 114.159 78.7951 114.84ZM74.7211 114.168C75.1318 114.672 75.6825 114.924 76.3731 114.924C77.0638 114.924 77.6098 114.672 78.0111 114.168C78.4125 113.655 78.6131 113.034 78.6131 112.306C78.6131 111.578 78.4125 110.962 78.0111 110.458C77.6098 109.954 77.0638 109.702 76.3731 109.702C75.6825 109.702 75.1318 109.959 74.7211 110.472C74.3198 110.976 74.1191 111.588 74.1191 112.306C74.1191 113.034 74.3198 113.655 74.7211 114.168ZM90.6429 115.694H89.5929V111.102C89.5929 110.169 89.1775 109.702 88.3469 109.702C88.0109 109.702 87.6749 109.805 87.3389 110.01C87.0029 110.216 86.7415 110.458 86.5549 110.738V115.694H85.5049V111.102C85.5049 110.169 85.0895 109.702 84.2589 109.702C83.9322 109.702 83.6009 109.805 83.2649 110.01C82.9382 110.216 82.6769 110.463 82.4809 110.752V115.694H81.4309V108.932H82.4809V109.912C82.6489 109.651 82.9429 109.394 83.3629 109.142C83.7829 108.89 84.2169 108.764 84.6649 108.764C85.1595 108.764 85.5609 108.881 85.8689 109.114C86.1769 109.348 86.3822 109.651 86.4849 110.024C86.6902 109.688 87.0029 109.394 87.4229 109.142C87.8429 108.89 88.2862 108.764 88.7529 108.764C90.0129 108.764 90.6429 109.446 90.6429 110.808V115.694ZM95.7895 115.862C94.7815 115.862 93.9555 115.536 93.3115 114.882C92.6675 114.22 92.3455 113.361 92.3455 112.306C92.3455 111.317 92.6628 110.482 93.2975 109.8C93.9322 109.11 94.7255 108.764 95.6775 108.764C96.6762 108.764 97.4648 109.11 98.0435 109.8C98.6315 110.482 98.9255 111.345 98.9255 112.39V112.656H93.4515C93.4982 113.319 93.7408 113.874 94.1795 114.322C94.6182 114.77 95.1875 114.994 95.8875 114.994C96.7275 114.994 97.4228 114.71 97.9735 114.14L98.4775 114.826C97.7868 115.517 96.8908 115.862 95.7895 115.862ZM97.8895 111.886C97.8802 111.308 97.6842 110.79 97.3015 110.332C96.9188 109.866 96.3728 109.632 95.6635 109.632C94.9915 109.632 94.4595 109.861 94.0675 110.318C93.6848 110.776 93.4795 111.298 93.4515 111.886H97.8895ZM105.944 115.862C105.449 115.862 105.076 115.727 104.824 115.456C104.572 115.186 104.446 114.794 104.446 114.28V109.856H103.326V108.932H104.446V107.084H105.496V108.932H106.868V109.856H105.496V114.056C105.496 114.318 105.552 114.528 105.664 114.686C105.785 114.845 105.958 114.924 106.182 114.924C106.49 114.924 106.728 114.831 106.896 114.644L107.204 115.428C106.896 115.718 106.476 115.862 105.944 115.862ZM113.727 114.84C113.12 115.522 112.313 115.862 111.305 115.862C110.297 115.862 109.485 115.522 108.869 114.84C108.262 114.159 107.959 113.314 107.959 112.306C107.959 111.298 108.262 110.458 108.869 109.786C109.485 109.105 110.297 108.764 111.305 108.764C112.313 108.764 113.12 109.105 113.727 109.786C114.343 110.458 114.651 111.298 114.651 112.306C114.651 113.314 114.343 114.159 113.727 114.84ZM109.653 114.168C110.063 114.672 110.614 114.924 111.305 114.924C111.995 114.924 112.541 114.672 112.943 114.168C113.344 113.655 113.545 113.034 113.545 112.306C113.545 111.578 113.344 110.962 112.943 110.458C112.541 109.954 111.995 109.702 111.305 109.702C110.614 109.702 110.063 109.959 109.653 110.472C109.251 110.976 109.051 111.588 109.051 112.306C109.051 113.034 109.251 113.655 109.653 114.168ZM121.68 115.862C121.185 115.862 120.812 115.727 120.56 115.456C120.308 115.186 120.182 114.794 120.182 114.28V109.856H119.062V108.932H120.182V107.084H121.232V108.932H122.604V109.856H121.232V114.056C121.232 114.318 121.288 114.528 121.4 114.686C121.521 114.845 121.694 114.924 121.918 114.924C122.226 114.924 122.464 114.831 122.632 114.644L122.94 115.428C122.632 115.718 122.212 115.862 121.68 115.862ZM129.715 115.694H128.665V111.242C128.665 110.682 128.534 110.286 128.273 110.052C128.012 109.819 127.634 109.702 127.139 109.702C126.756 109.702 126.378 109.805 126.005 110.01C125.641 110.216 125.352 110.463 125.137 110.752V115.694H124.087V106.356H125.137V109.912C125.398 109.604 125.748 109.338 126.187 109.114C126.626 108.881 127.083 108.764 127.559 108.764C128.996 108.764 129.715 109.483 129.715 110.92V115.694ZM134.864 115.862C133.856 115.862 133.03 115.536 132.386 114.882C131.742 114.22 131.42 113.361 131.42 112.306C131.42 111.317 131.737 110.482 132.372 109.8C133.006 109.11 133.8 108.764 134.752 108.764C135.75 108.764 136.539 109.11 137.118 109.8C137.706 110.482 138 111.345 138 112.39V112.656H132.526C132.572 113.319 132.815 113.874 133.254 114.322C133.692 114.77 134.262 114.994 134.962 114.994C135.802 114.994 136.497 114.71 137.048 114.14L137.552 114.826C136.861 115.517 135.965 115.862 134.864 115.862ZM136.964 111.886C136.954 111.308 136.758 110.79 136.376 110.332C135.993 109.866 135.447 109.632 134.738 109.632C134.066 109.632 133.534 109.861 133.142 110.318C132.759 110.776 132.554 111.298 132.526 111.886H136.964ZM146.544 115.694H143.352V106.356H146.544C147.972 106.356 149.124 106.8 150.002 107.686C150.888 108.573 151.332 109.688 151.332 111.032C151.332 112.386 150.888 113.501 150.002 114.378C149.124 115.256 147.972 115.694 146.544 115.694ZM146.544 114.658C147.645 114.658 148.518 114.313 149.162 113.622C149.806 112.932 150.128 112.068 150.128 111.032C150.128 109.987 149.81 109.119 149.176 108.428C148.541 107.738 147.664 107.392 146.544 107.392H144.514V114.658H146.544ZM158.391 115.694H157.341V114.924C156.771 115.55 156.025 115.862 155.101 115.862C154.475 115.862 153.925 115.662 153.449 115.26C152.973 114.859 152.735 114.313 152.735 113.622C152.735 112.913 152.968 112.367 153.435 111.984C153.911 111.592 154.466 111.396 155.101 111.396C156.062 111.396 156.809 111.704 157.341 112.32V111.102C157.341 110.654 157.182 110.304 156.865 110.052C156.547 109.8 156.137 109.674 155.633 109.674C154.839 109.674 154.149 109.987 153.561 110.612L153.071 109.884C153.789 109.138 154.69 108.764 155.773 108.764C156.547 108.764 157.177 108.951 157.663 109.324C158.148 109.698 158.391 110.272 158.391 111.046V115.694ZM155.479 115.106C156.319 115.106 156.939 114.826 157.341 114.266V112.992C156.939 112.432 156.319 112.152 155.479 112.152C154.993 112.152 154.592 112.292 154.275 112.572C153.967 112.843 153.812 113.198 153.812 113.636C153.812 114.066 153.967 114.42 154.275 114.7C154.592 114.971 154.993 115.106 155.479 115.106ZM165.871 114.84C165.265 115.522 164.457 115.862 163.449 115.862C162.441 115.862 161.629 115.522 161.013 114.84C160.407 114.159 160.103 113.314 160.103 112.306C160.103 111.298 160.407 110.458 161.013 109.786C161.629 109.105 162.441 108.764 163.449 108.764C164.457 108.764 165.265 109.105 165.871 109.786C166.487 110.458 166.795 111.298 166.795 112.306C166.795 113.314 166.487 114.159 165.871 114.84ZM161.797 114.168C162.208 114.672 162.759 114.924 163.449 114.924C164.14 114.924 164.686 114.672 165.087 114.168C165.489 113.655 165.689 113.034 165.689 112.306C165.689 111.578 165.489 110.962 165.087 110.458C164.686 109.954 164.14 109.702 163.449 109.702C162.759 109.702 162.208 109.959 161.797 110.472C161.396 110.976 161.195 111.588 161.195 112.306C161.195 113.034 161.396 113.655 161.797 114.168ZM169.711 115.694H168.549V106.356H172.301C173.206 106.356 173.92 106.627 174.443 107.168C174.966 107.71 175.227 108.377 175.227 109.17C175.227 109.964 174.961 110.631 174.429 111.172C173.906 111.714 173.197 111.984 172.301 111.984H169.711V115.694ZM172.161 110.948C172.712 110.948 173.16 110.785 173.505 110.458C173.85 110.122 174.023 109.693 174.023 109.17C174.023 108.648 173.85 108.223 173.505 107.896C173.16 107.56 172.712 107.392 172.161 107.392H169.711V110.948H172.161ZM181.922 114.84C181.315 115.522 180.508 115.862 179.5 115.862C178.492 115.862 177.68 115.522 177.064 114.84C176.457 114.159 176.154 113.314 176.154 112.306C176.154 111.298 176.457 110.458 177.064 109.786C177.68 109.105 178.492 108.764 179.5 108.764C180.508 108.764 181.315 109.105 181.922 109.786C182.538 110.458 182.846 111.298 182.846 112.306C182.846 113.314 182.538 114.159 181.922 114.84ZM177.848 114.168C178.259 114.672 178.809 114.924 179.5 114.924C180.191 114.924 180.737 114.672 181.138 114.168C181.539 113.655 181.74 113.034 181.74 112.306C181.74 111.578 181.539 110.962 181.138 110.458C180.737 109.954 180.191 109.702 179.5 109.702C178.809 109.702 178.259 109.959 177.848 110.472C177.447 110.976 177.246 111.588 177.246 112.306C177.246 113.034 177.447 113.655 177.848 114.168ZM190.508 115.694H189.164L186.728 112.656L185.608 113.762V115.694H184.558V106.356H185.608V112.53L189.164 108.932H190.494L187.498 111.998L190.508 115.694ZM194.76 115.862C193.752 115.862 192.926 115.536 192.282 114.882C191.638 114.22 191.316 113.361 191.316 112.306C191.316 111.317 191.634 110.482 192.268 109.8C192.903 109.11 193.696 108.764 194.648 108.764C195.647 108.764 196.436 109.11 197.014 109.8C197.602 110.482 197.896 111.345 197.896 112.39V112.656H192.422C192.469 113.319 192.712 113.874 193.15 114.322C193.589 114.77 194.158 114.994 194.858 114.994C195.698 114.994 196.394 114.71 196.944 114.14L197.448 114.826C196.758 115.517 195.862 115.862 194.76 115.862ZM196.86 111.886C196.851 111.308 196.655 110.79 196.272 110.332C195.89 109.866 195.344 109.632 194.634 109.632C193.962 109.632 193.43 109.861 193.038 110.318C192.656 110.776 192.45 111.298 192.422 111.886H196.86ZM200.647 115.694H199.597V108.932H200.647V110.024C201.272 109.203 202.024 108.792 202.901 108.792V109.87C202.77 109.842 202.63 109.828 202.481 109.828C202.164 109.828 201.818 109.94 201.445 110.164C201.072 110.388 200.806 110.636 200.647 110.906V115.694ZM205.212 113.076H204.344L204.12 106.356H205.436L205.212 113.076ZM205.31 115.61C205.161 115.76 204.983 115.834 204.778 115.834C204.573 115.834 204.391 115.76 204.232 115.61C204.083 115.452 204.008 115.27 204.008 115.064C204.008 114.85 204.083 114.668 204.232 114.518C204.381 114.369 204.563 114.294 204.778 114.294C204.993 114.294 205.175 114.369 205.324 114.518C205.473 114.668 205.548 114.85 205.548 115.064C205.548 115.27 205.469 115.452 205.31 115.61ZM25.9287 138.694H24.7667V134.41H19.3067V138.694H18.1447V129.356H19.3067V133.374H24.7667V129.356H25.9287V138.694ZM28.5875 130.966C28.4009 130.966 28.2375 130.901 28.0975 130.77C27.9575 130.63 27.8875 130.462 27.8875 130.266C27.8875 130.07 27.9575 129.902 28.0975 129.762C28.2375 129.622 28.4009 129.552 28.5875 129.552C28.7835 129.552 28.9515 129.622 29.0915 129.762C29.2315 129.902 29.3015 130.07 29.3015 130.266C29.3015 130.462 29.2315 130.63 29.0915 130.77C28.9515 130.901 28.7835 130.966 28.5875 130.966ZM29.1195 138.694H28.0695V131.932H29.1195V138.694ZM32.9221 138.862C32.4274 138.862 32.0541 138.727 31.8021 138.456C31.5501 138.186 31.4241 137.794 31.4241 137.28V132.856H30.3041V131.932H31.4241V130.084H32.4741V131.932H33.8461V132.856H32.4741V137.056C32.4741 137.318 32.5301 137.528 32.6421 137.686C32.7634 137.845 32.9361 137.924 33.1601 137.924C33.4681 137.924 33.7061 137.831 33.8741 137.644L34.1821 138.428C33.8741 138.718 33.4541 138.862 32.9221 138.862ZM40.6467 138.862C40.152 138.862 39.7787 138.727 39.5267 138.456C39.2747 138.186 39.1487 137.794 39.1487 137.28V132.856H38.0287V131.932H39.1487V130.084H40.1987V131.932H41.5707V132.856H40.1987V137.056C40.1987 137.318 40.2547 137.528 40.3667 137.686C40.488 137.845 40.6607 137.924 40.8847 137.924C41.1927 137.924 41.4307 137.831 41.5987 137.644L41.9067 138.428C41.5987 138.718 41.1787 138.862 40.6467 138.862ZM48.6819 138.694H47.6319V134.242C47.6319 133.682 47.5012 133.286 47.2399 133.052C46.9786 132.819 46.6006 132.702 46.1059 132.702C45.7232 132.702 45.3452 132.805 44.9719 133.01C44.6079 133.216 44.3186 133.463 44.1039 133.752V138.694H43.0539V129.356H44.1039V132.912C44.3652 132.604 44.7152 132.338 45.1539 132.114C45.5926 131.881 46.0499 131.764 46.5259 131.764C47.9632 131.764 48.6819 132.483 48.6819 133.92V138.694ZM53.8305 138.862C52.8225 138.862 51.9965 138.536 51.3525 137.882C50.7085 137.22 50.3865 136.361 50.3865 135.306C50.3865 134.317 50.7038 133.482 51.3385 132.8C51.9732 132.11 52.7665 131.764 53.7185 131.764C54.7172 131.764 55.5058 132.11 56.0845 132.8C56.6725 133.482 56.9665 134.345 56.9665 135.39V135.656H51.4925C51.5392 136.319 51.7818 136.874 52.2205 137.322C52.6592 137.77 53.2285 137.994 53.9285 137.994C54.7685 137.994 55.4638 137.71 56.0145 137.14L56.5185 137.826C55.8278 138.517 54.9318 138.862 53.8305 138.862ZM55.9305 134.886C55.9212 134.308 55.7252 133.79 55.3425 133.332C54.9598 132.866 54.4138 132.632 53.7045 132.632C53.0325 132.632 52.5005 132.861 52.1085 133.318C51.7258 133.776 51.5205 134.298 51.4925 134.886H55.9305ZM63.9846 138.862C63.4899 138.862 63.1166 138.727 62.8646 138.456C62.6126 138.186 62.4866 137.794 62.4866 137.28V132.856H61.3666V131.932H62.4866V130.084H63.5366V131.932H64.9086V132.856H63.5366V137.056C63.5366 137.318 63.5926 137.528 63.7046 137.686C63.8259 137.845 63.9986 137.924 64.2226 137.924C64.5306 137.924 64.7686 137.831 64.9366 137.644L65.2446 138.428C64.9366 138.718 64.5166 138.862 63.9846 138.862ZM71.6698 138.694H70.6198V137.924C70.0505 138.55 69.3038 138.862 68.3798 138.862C67.7545 138.862 67.2038 138.662 66.7278 138.26C66.2518 137.859 66.0138 137.313 66.0138 136.622C66.0138 135.913 66.2471 135.367 66.7138 134.984C67.1898 134.592 67.7451 134.396 68.3798 134.396C69.3411 134.396 70.0878 134.704 70.6198 135.32V134.102C70.6198 133.654 70.4611 133.304 70.1438 133.052C69.8265 132.8 69.4158 132.674 68.9118 132.674C68.1185 132.674 67.4278 132.987 66.8398 133.612L66.3498 132.884C67.0685 132.138 67.9691 131.764 69.0518 131.764C69.8265 131.764 70.4565 131.951 70.9418 132.324C71.4271 132.698 71.6698 133.272 71.6698 134.046V138.694ZM68.7578 138.106C69.5978 138.106 70.2185 137.826 70.6198 137.266V135.992C70.2185 135.432 69.5978 135.152 68.7578 135.152C68.2725 135.152 67.8711 135.292 67.5538 135.572C67.2458 135.843 67.0918 136.198 67.0918 136.636C67.0918 137.066 67.2458 137.42 67.5538 137.7C67.8711 137.971 68.2725 138.106 68.7578 138.106ZM74.8246 136.86C75.0113 137.159 75.2913 137.411 75.6646 137.616C76.0473 137.822 76.4393 137.924 76.8406 137.924C77.5126 137.924 78.0446 137.682 78.4366 137.196C78.8286 136.711 79.0246 136.086 79.0246 135.32C79.0246 134.555 78.8286 133.93 78.4366 133.444C78.0446 132.95 77.5126 132.702 76.8406 132.702C76.4393 132.702 76.0473 132.81 75.6646 133.024C75.2913 133.23 75.0113 133.486 74.8246 133.794V136.86ZM74.8246 138.694H73.7746V129.356H74.8246V132.954C75.4126 132.161 76.1733 131.764 77.1066 131.764C77.9933 131.764 78.7166 132.091 79.2766 132.744C79.8366 133.388 80.1166 134.247 80.1166 135.32C80.1166 136.403 79.8366 137.266 79.2766 137.91C78.7259 138.545 78.0026 138.862 77.1066 138.862C76.1639 138.862 75.4033 138.47 74.8246 137.686V138.694ZM82.8773 138.694H81.8273V129.356H82.8773V138.694ZM88.0239 138.862C87.0159 138.862 86.1899 138.536 85.5459 137.882C84.9019 137.22 84.5799 136.361 84.5799 135.306C84.5799 134.317 84.8972 133.482 85.5319 132.8C86.1665 132.11 86.9599 131.764 87.9119 131.764C88.9105 131.764 89.6992 132.11 90.2779 132.8C90.8659 133.482 91.1599 134.345 91.1599 135.39V135.656H85.6859C85.7325 136.319 85.9752 136.874 86.4139 137.322C86.8525 137.77 87.4219 137.994 88.1219 137.994C88.9619 137.994 89.6572 137.71 90.2079 137.14L90.7119 137.826C90.0212 138.517 89.1252 138.862 88.0239 138.862ZM90.1239 134.886C90.1145 134.308 89.9185 133.79 89.5359 133.332C89.1532 132.866 88.6072 132.632 87.8979 132.632C87.2259 132.632 86.6939 132.861 86.3019 133.318C85.9192 133.776 85.7139 134.298 85.6859 134.886H90.1239ZM95.0025 138.862C93.8545 138.862 92.9445 138.508 92.2725 137.798L92.8185 137.042C93.0519 137.313 93.3692 137.542 93.7705 137.728C94.1812 137.915 94.6059 138.008 95.0445 138.008C95.5485 138.008 95.9405 137.901 96.2205 137.686C96.5005 137.472 96.6405 137.192 96.6405 136.846C96.6405 136.548 96.4959 136.314 96.2065 136.146C95.9172 135.969 95.5672 135.838 95.1565 135.754C94.7552 135.661 94.3492 135.558 93.9385 135.446C93.5279 135.325 93.1779 135.124 92.8885 134.844C92.5992 134.555 92.4545 134.177 92.4545 133.71C92.4545 133.16 92.6785 132.698 93.1265 132.324C93.5839 131.951 94.1999 131.764 94.9745 131.764C95.9919 131.764 96.8272 132.091 97.4805 132.744L96.9905 133.472C96.5145 132.903 95.8425 132.618 94.9745 132.618C94.5172 132.618 94.1532 132.721 93.8825 132.926C93.6119 133.122 93.4765 133.374 93.4765 133.682C93.4765 133.953 93.6212 134.168 93.9105 134.326C94.1999 134.476 94.5452 134.597 94.9465 134.69C95.3572 134.774 95.7679 134.877 96.1785 134.998C96.5892 135.12 96.9392 135.334 97.2285 135.642C97.5179 135.941 97.6625 136.333 97.6625 136.818C97.6625 137.416 97.4292 137.906 96.9625 138.288C96.4959 138.671 95.8425 138.862 95.0025 138.862ZM108.256 138.694H107.206V137.924C106.636 138.55 105.89 138.862 104.966 138.862C104.34 138.862 103.79 138.662 103.314 138.26C102.838 137.859 102.6 137.313 102.6 136.622C102.6 135.913 102.833 135.367 103.3 134.984C103.776 134.592 104.331 134.396 104.966 134.396C105.927 134.396 106.674 134.704 107.206 135.32V134.102C107.206 133.654 107.047 133.304 106.73 133.052C106.412 132.8 106.002 132.674 105.498 132.674C104.704 132.674 104.014 132.987 103.426 133.612L102.936 132.884C103.654 132.138 104.555 131.764 105.638 131.764C106.412 131.764 107.042 131.951 107.528 132.324C108.013 132.698 108.256 133.272 108.256 134.046V138.694ZM105.344 138.106C106.184 138.106 106.804 137.826 107.206 137.266V135.992C106.804 135.432 106.184 135.152 105.344 135.152C104.858 135.152 104.457 135.292 104.14 135.572C103.832 135.843 103.678 136.198 103.678 136.636C103.678 137.066 103.832 137.42 104.14 137.7C104.457 137.971 104.858 138.106 105.344 138.106ZM115.975 138.694H114.925V134.27C114.925 133.701 114.794 133.3 114.533 133.066C114.271 132.824 113.898 132.702 113.413 132.702C113.021 132.702 112.638 132.805 112.265 133.01C111.901 133.216 111.616 133.463 111.411 133.752V138.694H110.361V131.932H111.411V132.912C111.672 132.604 112.022 132.338 112.461 132.114C112.899 131.881 113.352 131.764 113.819 131.764C115.256 131.764 115.975 132.492 115.975 133.948V138.694ZM124.021 138.694H122.971V137.686C122.393 138.47 121.632 138.862 120.689 138.862C119.793 138.862 119.065 138.545 118.505 137.91C117.955 137.266 117.679 136.403 117.679 135.32C117.679 134.247 117.955 133.388 118.505 132.744C119.065 132.091 119.793 131.764 120.689 131.764C121.623 131.764 122.383 132.161 122.971 132.954V129.356H124.021V138.694ZM120.941 137.924C121.352 137.924 121.744 137.822 122.117 137.616C122.491 137.411 122.775 137.159 122.971 136.86V133.794C122.775 133.486 122.486 133.23 122.103 133.024C121.73 132.81 121.343 132.702 120.941 132.702C120.279 132.702 119.751 132.95 119.359 133.444C118.967 133.93 118.771 134.555 118.771 135.32C118.771 136.086 118.967 136.711 119.359 137.196C119.751 137.682 120.279 137.924 120.941 137.924ZM132.45 141.438C131.852 141.438 131.344 141.364 130.924 141.214C130.504 141.074 130.102 140.813 129.72 140.43L130.252 139.646C130.765 140.262 131.498 140.57 132.45 140.57C133.075 140.57 133.593 140.402 134.004 140.066C134.414 139.74 134.62 139.231 134.62 138.54V137.574C134.368 137.929 134.041 138.218 133.64 138.442C133.238 138.666 132.809 138.778 132.352 138.778C131.456 138.778 130.728 138.466 130.168 137.84C129.617 137.206 129.342 136.352 129.342 135.278C129.342 134.205 129.617 133.351 130.168 132.716C130.728 132.082 131.456 131.764 132.352 131.764C133.276 131.764 134.032 132.161 134.62 132.954V131.932H135.67V138.498C135.67 139.534 135.366 140.281 134.76 140.738C134.153 141.205 133.383 141.438 132.45 141.438ZM132.604 137.854C133.005 137.854 133.392 137.747 133.766 137.532C134.148 137.318 134.433 137.056 134.62 136.748V133.794C134.433 133.486 134.153 133.23 133.78 133.024C133.406 132.81 133.014 132.702 132.604 132.702C131.932 132.702 131.4 132.94 131.008 133.416C130.625 133.892 130.434 134.513 130.434 135.278C130.434 136.034 130.63 136.655 131.022 137.14C131.414 137.616 131.941 137.854 132.604 137.854ZM140.825 138.862C139.817 138.862 138.991 138.536 138.347 137.882C137.703 137.22 137.381 136.361 137.381 135.306C137.381 134.317 137.698 133.482 138.333 132.8C138.967 132.11 139.761 131.764 140.713 131.764C141.711 131.764 142.5 132.11 143.079 132.8C143.667 133.482 143.961 134.345 143.961 135.39V135.656H138.487C138.533 136.319 138.776 136.874 139.215 137.322C139.653 137.77 140.223 137.994 140.923 137.994C141.763 137.994 142.458 137.71 143.009 137.14L143.513 137.826C142.822 138.517 141.926 138.862 140.825 138.862ZM142.925 134.886C142.915 134.308 142.719 133.79 142.337 133.332C141.954 132.866 141.408 132.632 140.699 132.632C140.027 132.632 139.495 132.861 139.103 133.318C138.72 133.776 138.515 134.298 138.487 134.886H142.925ZM147.369 138.862C146.875 138.862 146.501 138.727 146.249 138.456C145.997 138.186 145.871 137.794 145.871 137.28V132.856H144.751V131.932H145.871V130.084H146.921V131.932H148.293V132.856H146.921V137.056C146.921 137.318 146.977 137.528 147.089 137.686C147.211 137.845 147.383 137.924 147.607 137.924C147.915 137.924 148.153 137.831 148.321 137.644L148.629 138.428C148.321 138.718 147.901 138.862 147.369 138.862ZM153.008 141.34L153.176 140.388C153.344 140.463 153.535 140.5 153.75 140.5C153.993 140.5 154.193 140.449 154.352 140.346C154.511 140.244 154.646 140.057 154.758 139.786L155.206 138.764L152.378 131.932H153.512L155.766 137.476L158.006 131.932H159.154L155.766 140.066C155.393 140.962 154.73 141.42 153.778 141.438C153.498 141.438 153.241 141.406 153.008 141.34ZM165.625 137.84C165.019 138.522 164.211 138.862 163.203 138.862C162.195 138.862 161.383 138.522 160.767 137.84C160.161 137.159 159.857 136.314 159.857 135.306C159.857 134.298 160.161 133.458 160.767 132.786C161.383 132.105 162.195 131.764 163.203 131.764C164.211 131.764 165.019 132.105 165.625 132.786C166.241 133.458 166.549 134.298 166.549 135.306C166.549 136.314 166.241 137.159 165.625 137.84ZM161.551 137.168C161.962 137.672 162.513 137.924 163.203 137.924C163.894 137.924 164.44 137.672 164.841 137.168C165.243 136.655 165.443 136.034 165.443 135.306C165.443 134.578 165.243 133.962 164.841 133.458C164.44 132.954 163.894 132.702 163.203 132.702C162.513 132.702 161.962 132.959 161.551 133.472C161.15 133.976 160.949 134.588 160.949 135.306C160.949 136.034 161.15 136.655 161.551 137.168ZM173.875 138.694H172.825V137.742C172.545 138.06 172.19 138.326 171.761 138.54C171.341 138.755 170.893 138.862 170.417 138.862C168.98 138.862 168.261 138.144 168.261 136.706V131.932H169.311V136.384C169.311 136.944 169.437 137.341 169.689 137.574C169.95 137.808 170.328 137.924 170.823 137.924C171.215 137.924 171.593 137.826 171.957 137.63C172.33 137.434 172.62 137.192 172.825 136.902V131.932H173.875V138.694ZM177.022 138.694H175.972V131.932H177.022V133.024C177.647 132.203 178.399 131.792 179.276 131.792V132.87C179.145 132.842 179.005 132.828 178.856 132.828C178.539 132.828 178.193 132.94 177.82 133.164C177.447 133.388 177.181 133.636 177.022 133.906V138.694ZM189.48 138.694H188.43V137.924C187.861 138.55 187.114 138.862 186.19 138.862C185.565 138.862 185.014 138.662 184.538 138.26C184.062 137.859 183.824 137.313 183.824 136.622C183.824 135.913 184.058 135.367 184.524 134.984C185 134.592 185.556 134.396 186.19 134.396C187.152 134.396 187.898 134.704 188.43 135.32V134.102C188.43 133.654 188.272 133.304 187.954 133.052C187.637 132.8 187.226 132.674 186.722 132.674C185.929 132.674 185.238 132.987 184.65 133.612L184.16 132.884C184.879 132.138 185.78 131.764 186.862 131.764C187.637 131.764 188.267 131.951 188.752 132.324C189.238 132.698 189.48 133.272 189.48 134.046V138.694ZM186.568 138.106C187.408 138.106 188.029 137.826 188.43 137.266V135.992C188.029 135.432 187.408 135.152 186.568 135.152C186.083 135.152 185.682 135.292 185.364 135.572C185.056 135.843 184.902 136.198 184.902 136.636C184.902 137.066 185.056 137.42 185.364 137.7C185.682 137.971 186.083 138.106 186.568 138.106ZM194.567 138.862C193.568 138.862 192.756 138.526 192.131 137.854C191.506 137.173 191.193 136.324 191.193 135.306C191.193 134.289 191.506 133.444 192.131 132.772C192.756 132.1 193.568 131.764 194.567 131.764C195.612 131.764 196.438 132.156 197.045 132.94L196.345 133.584C195.916 132.996 195.342 132.702 194.623 132.702C193.914 132.702 193.344 132.945 192.915 133.43C192.495 133.916 192.285 134.541 192.285 135.306C192.285 136.072 192.495 136.702 192.915 137.196C193.344 137.682 193.914 137.924 194.623 137.924C195.332 137.924 195.906 137.63 196.345 137.042L197.045 137.686C196.438 138.47 195.612 138.862 194.567 138.862ZM201.499 138.862C200.5 138.862 199.688 138.526 199.063 137.854C198.437 137.173 198.125 136.324 198.125 135.306C198.125 134.289 198.437 133.444 199.063 132.772C199.688 132.1 200.5 131.764 201.499 131.764C202.544 131.764 203.37 132.156 203.977 132.94L203.277 133.584C202.847 132.996 202.273 132.702 201.555 132.702C200.845 132.702 200.276 132.945 199.847 133.43C199.427 133.916 199.217 134.541 199.217 135.306C199.217 136.072 199.427 136.702 199.847 137.196C200.276 137.682 200.845 137.924 201.555 137.924C202.264 137.924 202.838 137.63 203.277 137.042L203.977 137.686C203.37 138.47 202.544 138.862 201.499 138.862ZM210.824 137.84C210.218 138.522 209.41 138.862 208.402 138.862C207.394 138.862 206.582 138.522 205.966 137.84C205.36 137.159 205.056 136.314 205.056 135.306C205.056 134.298 205.36 133.458 205.966 132.786C206.582 132.105 207.394 131.764 208.402 131.764C209.41 131.764 210.218 132.105 210.824 132.786C211.44 133.458 211.748 134.298 211.748 135.306C211.748 136.314 211.44 137.159 210.824 137.84ZM206.75 137.168C207.161 137.672 207.712 137.924 208.402 137.924C209.093 137.924 209.639 137.672 210.04 137.168C210.442 136.655 210.642 136.034 210.642 135.306C210.642 134.578 210.442 133.962 210.04 133.458C209.639 132.954 209.093 132.702 208.402 132.702C207.712 132.702 207.161 132.959 206.75 133.472C206.349 133.976 206.148 134.588 206.148 135.306C206.148 136.034 206.349 136.655 206.75 137.168ZM219.074 138.694H218.024V137.742C217.744 138.06 217.389 138.326 216.96 138.54C216.54 138.755 216.092 138.862 215.616 138.862C214.179 138.862 213.46 138.144 213.46 136.706V131.932H214.51V136.384C214.51 136.944 214.636 137.341 214.888 137.574C215.149 137.808 215.527 137.924 216.022 137.924C216.414 137.924 216.792 137.826 217.156 137.63C217.529 137.434 217.819 137.192 218.024 136.902V131.932H219.074V138.694ZM226.785 138.694H225.735V134.27C225.735 133.701 225.604 133.3 225.343 133.066C225.082 132.824 224.708 132.702 224.223 132.702C223.831 132.702 223.448 132.805 223.075 133.01C222.711 133.216 222.426 133.463 222.221 133.752V138.694H221.171V131.932H222.221V132.912C222.482 132.604 222.832 132.338 223.271 132.114C223.71 131.881 224.162 131.764 224.629 131.764C226.066 131.764 226.785 132.492 226.785 133.948V138.694ZM230.59 138.862C230.095 138.862 229.722 138.727 229.47 138.456C229.218 138.186 229.092 137.794 229.092 137.28V132.856H227.972V131.932H229.092V130.084H230.142V131.932H231.514V132.856H230.142V137.056C230.142 137.318 230.198 137.528 230.31 137.686C230.431 137.845 230.604 137.924 230.828 137.924C231.136 137.924 231.374 137.831 231.542 137.644L231.85 138.428C231.542 138.718 231.122 138.862 230.59 138.862ZM23.5756 161.694H22.5256V154.932H23.5756V156.024C24.2009 155.203 24.9523 154.792 25.8296 154.792V155.87C25.6989 155.842 25.5589 155.828 25.4096 155.828C25.0923 155.828 24.7469 155.94 24.3736 156.164C24.0003 156.388 23.7343 156.636 23.5756 156.906V161.694ZM30.1987 161.862C29.1907 161.862 28.3647 161.536 27.7207 160.882C27.0767 160.22 26.7547 159.361 26.7547 158.306C26.7547 157.317 27.072 156.482 27.7067 155.8C28.3413 155.11 29.1347 154.764 30.0867 154.764C31.0853 154.764 31.874 155.11 32.4527 155.8C33.0407 156.482 33.3347 157.345 33.3347 158.39V158.656H27.8607C27.9073 159.319 28.15 159.874 28.5887 160.322C29.0273 160.77 29.5967 160.994 30.2967 160.994C31.1367 160.994 31.832 160.71 32.3827 160.14L32.8867 160.826C32.196 161.517 31.3 161.862 30.1987 161.862ZM32.2987 157.886C32.2893 157.308 32.0933 156.79 31.7107 156.332C31.328 155.866 30.782 155.632 30.0727 155.632C29.4007 155.632 28.8687 155.861 28.4767 156.318C28.094 156.776 27.8887 157.298 27.8607 157.886H32.2987ZM40.3134 161.694H39.2634V160.924C38.694 161.55 37.9474 161.862 37.0234 161.862C36.398 161.862 35.8474 161.662 35.3714 161.26C34.8954 160.859 34.6574 160.313 34.6574 159.622C34.6574 158.913 34.8907 158.367 35.3574 157.984C35.8334 157.592 36.3887 157.396 37.0234 157.396C37.9847 157.396 38.7314 157.704 39.2634 158.32V157.102C39.2634 156.654 39.1047 156.304 38.7874 156.052C38.47 155.8 38.0594 155.674 37.5554 155.674C36.762 155.674 36.0714 155.987 35.4834 156.612L34.9934 155.884C35.712 155.138 36.6127 154.764 37.6954 154.764C38.47 154.764 39.1 154.951 39.5854 155.324C40.0707 155.698 40.3134 156.272 40.3134 157.046V161.694ZM37.4014 161.106C38.2414 161.106 38.862 160.826 39.2634 160.266V158.992C38.862 158.432 38.2414 158.152 37.4014 158.152C36.916 158.152 36.5147 158.292 36.1974 158.572C35.8894 158.843 35.7354 159.198 35.7354 159.636C35.7354 160.066 35.8894 160.42 36.1974 160.7C36.5147 160.971 36.916 161.106 37.4014 161.106ZM48.3682 161.694H47.3182V160.686C46.7395 161.47 45.9788 161.862 45.0362 161.862C44.1402 161.862 43.4122 161.545 42.8522 160.91C42.3015 160.266 42.0262 159.403 42.0262 158.32C42.0262 157.247 42.3015 156.388 42.8522 155.744C43.4122 155.091 44.1402 154.764 45.0362 154.764C45.9695 154.764 46.7302 155.161 47.3182 155.954V152.356H48.3682V161.694ZM45.2882 160.924C45.6988 160.924 46.0908 160.822 46.4642 160.616C46.8375 160.411 47.1222 160.159 47.3182 159.86V156.794C47.1222 156.486 46.8328 156.23 46.4502 156.024C46.0768 155.81 45.6895 155.702 45.2882 155.702C44.6255 155.702 44.0982 155.95 43.7062 156.444C43.3142 156.93 43.1182 157.555 43.1182 158.32C43.1182 159.086 43.3142 159.711 43.7062 160.196C44.0982 160.682 44.6255 160.924 45.2882 160.924ZM50.0929 164.34L50.2609 163.388C50.4289 163.463 50.6202 163.5 50.8349 163.5C51.0776 163.5 51.2782 163.449 51.4369 163.346C51.5956 163.244 51.7309 163.057 51.8429 162.786L52.2909 161.764L49.4629 154.932H50.5969L52.8509 160.476L55.0909 154.932H56.2389L52.8509 163.066C52.4776 163.962 51.8149 164.42 50.8629 164.438C50.5829 164.438 50.3262 164.406 50.0929 164.34ZM62.6516 161.862C62.1569 161.862 61.7836 161.727 61.5316 161.456C61.2796 161.186 61.1536 160.794 61.1536 160.28V155.856H60.0336V154.932H61.1536V153.084H62.2036V154.932H63.5756V155.856H62.2036V160.056C62.2036 160.318 62.2596 160.528 62.3716 160.686C62.4929 160.845 62.6656 160.924 62.8896 160.924C63.1976 160.924 63.4356 160.831 63.6036 160.644L63.9116 161.428C63.6036 161.718 63.1836 161.862 62.6516 161.862ZM70.4348 160.84C69.8281 161.522 69.0208 161.862 68.0128 161.862C67.0048 161.862 66.1928 161.522 65.5768 160.84C64.9701 160.159 64.6668 159.314 64.6668 158.306C64.6668 157.298 64.9701 156.458 65.5768 155.786C66.1928 155.105 67.0048 154.764 68.0128 154.764C69.0208 154.764 69.8281 155.105 70.4348 155.786C71.0508 156.458 71.3588 157.298 71.3588 158.306C71.3588 159.314 71.0508 160.159 70.4348 160.84ZM66.3608 160.168C66.7715 160.672 67.3221 160.924 68.0128 160.924C68.7035 160.924 69.2495 160.672 69.6508 160.168C70.0521 159.655 70.2528 159.034 70.2528 158.306C70.2528 157.578 70.0521 156.962 69.6508 156.458C69.2495 155.954 68.7035 155.702 68.0128 155.702C67.3221 155.702 66.7715 155.959 66.3608 156.472C65.9595 156.976 65.7588 157.588 65.7588 158.306C65.7588 159.034 65.9595 159.655 66.3608 160.168ZM79.3959 164.438C78.7985 164.438 78.2899 164.364 77.8699 164.214C77.4499 164.074 77.0485 163.813 76.6659 163.43L77.1979 162.646C77.7112 163.262 78.4439 163.57 79.3959 163.57C80.0212 163.57 80.5392 163.402 80.9499 163.066C81.3605 162.74 81.5659 162.231 81.5659 161.54V160.574C81.3139 160.929 80.9872 161.218 80.5859 161.442C80.1845 161.666 79.7552 161.778 79.2979 161.778C78.4019 161.778 77.6739 161.466 77.1139 160.84C76.5632 160.206 76.2879 159.352 76.2879 158.278C76.2879 157.205 76.5632 156.351 77.1139 155.716C77.6739 155.082 78.4019 154.764 79.2979 154.764C80.2219 154.764 80.9779 155.161 81.5659 155.954V154.932H82.6159V161.498C82.6159 162.534 82.3125 163.281 81.7059 163.738C81.0992 164.205 80.3292 164.438 79.3959 164.438ZM79.5499 160.854C79.9512 160.854 80.3385 160.747 80.7119 160.532C81.0945 160.318 81.3792 160.056 81.5659 159.748V156.794C81.3792 156.486 81.0992 156.23 80.7259 156.024C80.3525 155.81 79.9605 155.702 79.5499 155.702C78.8779 155.702 78.3459 155.94 77.9539 156.416C77.5712 156.892 77.3799 157.513 77.3799 158.278C77.3799 159.034 77.5759 159.655 77.9679 160.14C78.3599 160.616 78.8872 160.854 79.5499 160.854ZM90.0949 160.84C89.4883 161.522 88.6809 161.862 87.6729 161.862C86.6649 161.862 85.8529 161.522 85.2369 160.84C84.6303 160.159 84.3269 159.314 84.3269 158.306C84.3269 157.298 84.6303 156.458 85.2369 155.786C85.8529 155.105 86.6649 154.764 87.6729 154.764C88.6809 154.764 89.4883 155.105 90.0949 155.786C90.7109 156.458 91.0189 157.298 91.0189 158.306C91.0189 159.314 90.7109 160.159 90.0949 160.84ZM86.0209 160.168C86.4316 160.672 86.9823 160.924 87.6729 160.924C88.3636 160.924 88.9096 160.672 89.3109 160.168C89.7123 159.655 89.9129 159.034 89.9129 158.306C89.9129 157.578 89.7123 156.962 89.3109 156.458C88.9096 155.954 88.3636 155.702 87.6729 155.702C86.9823 155.702 86.4316 155.959 86.0209 156.472C85.6196 156.976 85.4189 157.588 85.4189 158.306C85.4189 159.034 85.6196 159.655 86.0209 160.168ZM97.39 159.86C97.5767 160.159 97.8567 160.411 98.23 160.616C98.6127 160.822 99.0047 160.924 99.406 160.924C100.078 160.924 100.61 160.682 101.002 160.196C101.394 159.711 101.59 159.086 101.59 158.32C101.59 157.555 101.394 156.93 101.002 156.444C100.61 155.95 100.078 155.702 99.406 155.702C99.0047 155.702 98.6127 155.81 98.23 156.024C97.8567 156.23 97.5767 156.486 97.39 156.794V159.86ZM97.39 161.694H96.34V152.356H97.39V155.954C97.978 155.161 98.7387 154.764 99.672 154.764C100.559 154.764 101.282 155.091 101.842 155.744C102.402 156.388 102.682 157.247 102.682 158.32C102.682 159.403 102.402 160.266 101.842 160.91C101.291 161.545 100.568 161.862 99.672 161.862C98.7294 161.862 97.9687 161.47 97.39 160.686V161.694ZM104.015 164.34L104.183 163.388C104.351 163.463 104.542 163.5 104.757 163.5C104.999 163.5 105.2 163.449 105.359 163.346C105.517 163.244 105.653 163.057 105.765 162.786L106.213 161.764L103.385 154.932H104.519L106.773 160.476L109.013 154.932H110.161L106.773 163.066C106.399 163.962 105.737 164.42 104.785 164.438C104.505 164.438 104.248 164.406 104.015 164.34ZM117.847 161.862C116.849 161.862 116.037 161.526 115.411 160.854C114.786 160.173 114.473 159.324 114.473 158.306C114.473 157.289 114.786 156.444 115.411 155.772C116.037 155.1 116.849 154.764 117.847 154.764C118.893 154.764 119.719 155.156 120.325 155.94L119.625 156.584C119.196 155.996 118.622 155.702 117.903 155.702C117.194 155.702 116.625 155.945 116.195 156.43C115.775 156.916 115.565 157.541 115.565 158.306C115.565 159.072 115.775 159.702 116.195 160.196C116.625 160.682 117.194 160.924 117.903 160.924C118.613 160.924 119.187 160.63 119.625 160.042L120.325 160.686C119.719 161.47 118.893 161.862 117.847 161.862ZM122.847 161.694H121.797V152.356H122.847V161.694ZM125.46 153.966C125.273 153.966 125.11 153.901 124.97 153.77C124.83 153.63 124.76 153.462 124.76 153.266C124.76 153.07 124.83 152.902 124.97 152.762C125.11 152.622 125.273 152.552 125.46 152.552C125.656 152.552 125.824 152.622 125.964 152.762C126.104 152.902 126.174 153.07 126.174 153.266C126.174 153.462 126.104 153.63 125.964 153.77C125.824 153.901 125.656 153.966 125.46 153.966ZM125.992 161.694H124.942V154.932H125.992V161.694ZM131.068 161.862C130.069 161.862 129.257 161.526 128.632 160.854C128.007 160.173 127.694 159.324 127.694 158.306C127.694 157.289 128.007 156.444 128.632 155.772C129.257 155.1 130.069 154.764 131.068 154.764C132.113 154.764 132.939 155.156 133.546 155.94L132.846 156.584C132.417 155.996 131.843 155.702 131.124 155.702C130.415 155.702 129.845 155.945 129.416 156.43C128.996 156.916 128.786 157.541 128.786 158.306C128.786 159.072 128.996 159.702 129.416 160.196C129.845 160.682 130.415 160.924 131.124 160.924C131.833 160.924 132.407 160.63 132.846 160.042L133.546 160.686C132.939 161.47 132.113 161.862 131.068 161.862ZM140.968 161.694H139.624L137.188 158.656L136.068 159.762V161.694H135.018V152.356H136.068V158.53L139.624 154.932H140.954L137.958 157.998L140.968 161.694ZM142.727 153.966C142.541 153.966 142.377 153.901 142.237 153.77C142.097 153.63 142.027 153.462 142.027 153.266C142.027 153.07 142.097 152.902 142.237 152.762C142.377 152.622 142.541 152.552 142.727 152.552C142.923 152.552 143.091 152.622 143.231 152.762C143.371 152.902 143.441 153.07 143.441 153.266C143.441 153.462 143.371 153.63 143.231 153.77C143.091 153.901 142.923 153.966 142.727 153.966ZM143.259 161.694H142.209V154.932H143.259V161.694ZM150.968 161.694H149.918V157.27C149.918 156.701 149.787 156.3 149.526 156.066C149.264 155.824 148.891 155.702 148.406 155.702C148.014 155.702 147.631 155.805 147.258 156.01C146.894 156.216 146.609 156.463 146.404 156.752V161.694H145.354V154.932H146.404V155.912C146.665 155.604 147.015 155.338 147.454 155.114C147.892 154.881 148.345 154.764 148.812 154.764C150.249 154.764 150.968 155.492 150.968 156.948V161.694ZM155.781 164.438C155.183 164.438 154.675 164.364 154.255 164.214C153.835 164.074 153.433 163.813 153.051 163.43L153.583 162.646C154.096 163.262 154.829 163.57 155.781 163.57C156.406 163.57 156.924 163.402 157.335 163.066C157.745 162.74 157.951 162.231 157.951 161.54V160.574C157.699 160.929 157.372 161.218 156.971 161.442C156.569 161.666 156.14 161.778 155.683 161.778C154.787 161.778 154.059 161.466 153.499 160.84C152.948 160.206 152.673 159.352 152.673 158.278C152.673 157.205 152.948 156.351 153.499 155.716C154.059 155.082 154.787 154.764 155.683 154.764C156.607 154.764 157.363 155.161 157.951 155.954V154.932H159.001V161.498C159.001 162.534 158.697 163.281 158.091 163.738C157.484 164.205 156.714 164.438 155.781 164.438ZM155.935 160.854C156.336 160.854 156.723 160.747 157.097 160.532C157.479 160.318 157.764 160.056 157.951 159.748V156.794C157.764 156.486 157.484 156.23 157.111 156.024C156.737 155.81 156.345 155.702 155.935 155.702C155.263 155.702 154.731 155.94 154.339 156.416C153.956 156.892 153.765 157.513 153.765 158.278C153.765 159.034 153.961 159.655 154.353 160.14C154.745 160.616 155.272 160.854 155.935 160.854ZM170.089 160.84C169.482 161.522 168.675 161.862 167.667 161.862C166.659 161.862 165.847 161.522 165.231 160.84C164.624 160.159 164.321 159.314 164.321 158.306C164.321 157.298 164.624 156.458 165.231 155.786C165.847 155.105 166.659 154.764 167.667 154.764C168.675 154.764 169.482 155.105 170.089 155.786C170.705 156.458 171.013 157.298 171.013 158.306C171.013 159.314 170.705 160.159 170.089 160.84ZM166.015 160.168C166.426 160.672 166.976 160.924 167.667 160.924C168.358 160.924 168.904 160.672 169.305 160.168C169.706 159.655 169.907 159.034 169.907 158.306C169.907 157.578 169.706 156.962 169.305 156.458C168.904 155.954 168.358 155.702 167.667 155.702C166.976 155.702 166.426 155.959 166.015 156.472C165.614 156.976 165.413 157.588 165.413 158.306C165.413 159.034 165.614 159.655 166.015 160.168ZM178.339 161.694H177.289V157.27C177.289 156.701 177.158 156.3 176.897 156.066C176.635 155.824 176.262 155.702 175.777 155.702C175.385 155.702 175.002 155.805 174.629 156.01C174.265 156.216 173.98 156.463 173.775 156.752V161.694H172.725V154.932H173.775V155.912C174.036 155.604 174.386 155.338 174.825 155.114C175.263 154.881 175.716 154.764 176.183 154.764C177.62 154.764 178.339 155.492 178.339 156.948V161.694ZM185.753 161.862C185.258 161.862 184.885 161.727 184.633 161.456C184.381 161.186 184.255 160.794 184.255 160.28V155.856H183.135V154.932H184.255V153.084H185.305V154.932H186.677V155.856H185.305V160.056C185.305 160.318 185.361 160.528 185.473 160.686C185.594 160.845 185.767 160.924 185.991 160.924C186.299 160.924 186.537 160.831 186.705 160.644L187.013 161.428C186.705 161.718 186.285 161.862 185.753 161.862ZM193.788 161.694H192.738V157.242C192.738 156.682 192.608 156.286 192.346 156.052C192.085 155.819 191.707 155.702 191.212 155.702C190.83 155.702 190.452 155.805 190.078 156.01C189.714 156.216 189.425 156.463 189.21 156.752V161.694H188.16V152.356H189.21V155.912C189.472 155.604 189.822 155.338 190.26 155.114C190.699 154.881 191.156 154.764 191.632 154.764C193.07 154.764 193.788 155.483 193.788 156.92V161.694ZM198.937 161.862C197.929 161.862 197.103 161.536 196.459 160.882C195.815 160.22 195.493 159.361 195.493 158.306C195.493 157.317 195.81 156.482 196.445 155.8C197.08 155.11 197.873 154.764 198.825 154.764C199.824 154.764 200.612 155.11 201.191 155.8C201.779 156.482 202.073 157.345 202.073 158.39V158.656H196.599C196.646 159.319 196.888 159.874 197.327 160.322C197.766 160.77 198.335 160.994 199.035 160.994C199.875 160.994 200.57 160.71 201.121 160.14L201.625 160.826C200.934 161.517 200.038 161.862 198.937 161.862ZM201.037 157.886C201.028 157.308 200.832 156.79 200.449 156.332C200.066 155.866 199.52 155.632 198.811 155.632C198.139 155.632 197.607 155.861 197.215 156.318C196.832 156.776 196.627 157.298 196.599 157.886H201.037ZM208.433 161.694H207.383V152.356H208.433V161.694ZM211.046 153.966C210.859 153.966 210.696 153.901 210.556 153.77C210.416 153.63 210.346 153.462 210.346 153.266C210.346 153.07 210.416 152.902 210.556 152.762C210.696 152.622 210.859 152.552 211.046 152.552C211.242 152.552 211.41 152.622 211.55 152.762C211.69 152.902 211.76 153.07 211.76 153.266C211.76 153.462 211.69 153.63 211.55 153.77C211.41 153.901 211.242 153.966 211.046 153.966ZM211.578 161.694H210.528V154.932H211.578V161.694ZM219.286 161.694H218.236V157.27C218.236 156.701 218.105 156.3 217.844 156.066C217.583 155.824 217.209 155.702 216.724 155.702C216.332 155.702 215.949 155.805 215.576 156.01C215.212 156.216 214.927 156.463 214.722 156.752V161.694H213.672V154.932H214.722V155.912C214.983 155.604 215.333 155.338 215.772 155.114C216.211 154.881 216.663 154.764 217.13 154.764C218.567 154.764 219.286 155.492 219.286 156.948V161.694ZM227.333 161.694H225.989L223.553 158.656L222.433 159.762V161.694H221.383V152.356H222.433V158.53L225.989 154.932H227.319L224.323 157.998L227.333 161.694ZM19.9936 182.86C20.1802 183.159 20.4602 183.411 20.8336 183.616C21.2162 183.822 21.6082 183.924 22.0096 183.924C22.6816 183.924 23.2136 183.682 23.6056 183.196C23.9976 182.711 24.1936 182.086 24.1936 181.32C24.1936 180.555 23.9976 179.93 23.6056 179.444C23.2136 178.95 22.6816 178.702 22.0096 178.702C21.6082 178.702 21.2162 178.81 20.8336 179.024C20.4602 179.23 20.1802 179.486 19.9936 179.794V182.86ZM19.9936 184.694H18.9436V175.356H19.9936V178.954C20.5816 178.161 21.3422 177.764 22.2756 177.764C23.1622 177.764 23.8856 178.091 24.4456 178.744C25.0056 179.388 25.2856 180.247 25.2856 181.32C25.2856 182.403 25.0056 183.266 24.4456 183.91C23.8949 184.545 23.1716 184.862 22.2756 184.862C21.3329 184.862 20.5722 184.47 19.9936 183.686V184.694ZM30.0483 184.862C29.0403 184.862 28.2143 184.536 27.5703 183.882C26.9263 183.22 26.6043 182.361 26.6043 181.306C26.6043 180.317 26.9216 179.482 27.5563 178.8C28.191 178.11 28.9843 177.764 29.9363 177.764C30.935 177.764 31.7236 178.11 32.3023 178.8C32.8903 179.482 33.1843 180.345 33.1843 181.39V181.656H27.7103C27.757 182.319 27.9996 182.874 28.4383 183.322C28.877 183.77 29.4463 183.994 30.1463 183.994C30.9863 183.994 31.6816 183.71 32.2323 183.14L32.7363 183.826C32.0456 184.517 31.1496 184.862 30.0483 184.862ZM32.1483 180.886C32.139 180.308 31.943 179.79 31.5603 179.332C31.1776 178.866 30.6316 178.632 29.9223 178.632C29.2503 178.632 28.7183 178.861 28.3263 179.318C27.9436 179.776 27.7383 180.298 27.7103 180.886H32.1483ZM35.935 184.694H34.885V175.356H35.935V184.694ZM43.4055 183.84C42.7988 184.522 41.9915 184.862 40.9835 184.862C39.9755 184.862 39.1635 184.522 38.5475 183.84C37.9408 183.159 37.6375 182.314 37.6375 181.306C37.6375 180.298 37.9408 179.458 38.5475 178.786C39.1635 178.105 39.9755 177.764 40.9835 177.764C41.9915 177.764 42.7988 178.105 43.4055 178.786C44.0215 179.458 44.3295 180.298 44.3295 181.306C44.3295 182.314 44.0215 183.159 43.4055 183.84ZM39.3315 183.168C39.7422 183.672 40.2928 183.924 40.9835 183.924C41.6742 183.924 42.2202 183.672 42.6215 183.168C43.0228 182.655 43.2235 182.034 43.2235 181.306C43.2235 180.578 43.0228 179.962 42.6215 179.458C42.2202 178.954 41.6742 178.702 40.9835 178.702C40.2928 178.702 39.7422 178.959 39.3315 179.472C38.9302 179.976 38.7295 180.588 38.7295 181.306C38.7295 182.034 38.9302 182.655 39.3315 183.168ZM52.9432 184.694H51.8932L50.1292 179.262L48.3652 184.694H47.3152L45.1592 177.932H46.2512L47.9032 183.322L49.6812 177.932H50.5772L52.3552 183.322L54.0072 177.932H55.0992L52.9432 184.694ZM61.6398 184.862C61.1452 184.862 60.7718 184.727 60.5198 184.456C60.2678 184.186 60.1418 183.794 60.1418 183.28V178.856H59.0218V177.932H60.1418V176.084H61.1918V177.932H62.5638V178.856H61.1918V183.056C61.1918 183.318 61.2478 183.528 61.3598 183.686C61.4812 183.845 61.6538 183.924 61.8778 183.924C62.1858 183.924 62.4238 183.831 62.5918 183.644L62.8998 184.428C62.5918 184.718 62.1718 184.862 61.6398 184.862ZM69.4231 183.84C68.8164 184.522 68.0091 184.862 67.0011 184.862C65.9931 184.862 65.1811 184.522 64.5651 183.84C63.9584 183.159 63.6551 182.314 63.6551 181.306C63.6551 180.298 63.9584 179.458 64.5651 178.786C65.1811 178.105 65.9931 177.764 67.0011 177.764C68.0091 177.764 68.8164 178.105 69.4231 178.786C70.0391 179.458 70.3471 180.298 70.3471 181.306C70.3471 182.314 70.0391 183.159 69.4231 183.84ZM65.3491 183.168C65.7597 183.672 66.3104 183.924 67.0011 183.924C67.6917 183.924 68.2377 183.672 68.6391 183.168C69.0404 182.655 69.2411 182.034 69.2411 181.306C69.2411 180.578 69.0404 179.962 68.6391 179.458C68.2377 178.954 67.6917 178.702 67.0011 178.702C66.3104 178.702 65.7597 178.959 65.3491 179.472C64.9477 179.976 64.7471 180.588 64.7471 181.306C64.7471 182.034 64.9477 182.655 65.3491 183.168ZM78.6222 184.694H77.4742L74.6602 177.932H75.7942L78.0482 183.476L80.2882 177.932H81.4362L78.6222 184.694ZM85.5834 184.862C84.5754 184.862 83.7494 184.536 83.1054 183.882C82.4614 183.22 82.1394 182.361 82.1394 181.306C82.1394 180.317 82.4568 179.482 83.0914 178.8C83.7261 178.11 84.5194 177.764 85.4714 177.764C86.4701 177.764 87.2588 178.11 87.8374 178.8C88.4254 179.482 88.7194 180.345 88.7194 181.39V181.656H83.2454C83.2921 182.319 83.5348 182.874 83.9734 183.322C84.4121 183.77 84.9814 183.994 85.6814 183.994C86.5214 183.994 87.2168 183.71 87.7674 183.14L88.2714 183.826C87.5808 184.517 86.6848 184.862 85.5834 184.862ZM87.6834 180.886C87.6741 180.308 87.4781 179.79 87.0954 179.332C86.7128 178.866 86.1668 178.632 85.4574 178.632C84.7854 178.632 84.2534 178.861 83.8614 179.318C83.4788 179.776 83.2734 180.298 83.2454 180.886H87.6834ZM91.4701 184.694H90.4201V177.932H91.4701V179.024C92.0955 178.203 92.8468 177.792 93.7241 177.792V178.87C93.5935 178.842 93.4535 178.828 93.3041 178.828C92.9868 178.828 92.6415 178.94 92.2681 179.164C91.8948 179.388 91.6288 179.636 91.4701 179.906V184.694ZM95.5592 176.966C95.3725 176.966 95.2092 176.901 95.0692 176.77C94.9292 176.63 94.8592 176.462 94.8592 176.266C94.8592 176.07 94.9292 175.902 95.0692 175.762C95.2092 175.622 95.3725 175.552 95.5592 175.552C95.7552 175.552 95.9232 175.622 96.0632 175.762C96.2032 175.902 96.2732 176.07 96.2732 176.266C96.2732 176.462 96.2032 176.63 96.0632 176.77C95.9232 176.901 95.7552 176.966 95.5592 176.966ZM96.0912 184.694H95.0412V177.932H96.0912V184.694ZM99.5297 184.694H98.4797V178.856H97.3597V177.932H98.4797V177.414C98.4797 176.724 98.6524 176.187 98.9977 175.804C99.3524 175.412 99.8331 175.216 100.44 175.216C101.018 175.216 101.494 175.389 101.868 175.734L101.434 176.42C101.182 176.196 100.902 176.084 100.594 176.084C100.248 176.084 99.9824 176.201 99.7957 176.434C99.6184 176.658 99.5297 176.985 99.5297 177.414V177.932H100.902V178.856H99.5297V184.694ZM101.773 187.34L101.941 186.388C102.109 186.463 102.3 186.5 102.515 186.5C102.757 186.5 102.958 186.449 103.117 186.346C103.275 186.244 103.411 186.057 103.523 185.786L103.971 184.764L101.143 177.932H102.277L104.531 183.476L106.771 177.932H107.919L104.531 186.066C104.157 186.962 103.495 187.42 102.543 187.438C102.263 187.438 102.006 187.406 101.773 187.34ZM112.245 187.34L112.413 186.388C112.581 186.463 112.773 186.5 112.987 186.5C113.23 186.5 113.431 186.449 113.589 186.346C113.748 186.244 113.883 186.057 113.995 185.786L114.443 184.764L111.615 177.932H112.749L115.003 183.476L117.243 177.932H118.391L115.003 186.066C114.63 186.962 113.967 187.42 113.015 187.438C112.735 187.438 112.479 187.406 112.245 187.34ZM124.863 183.84C124.256 184.522 123.449 184.862 122.441 184.862C121.433 184.862 120.621 184.522 120.005 183.84C119.398 183.159 119.095 182.314 119.095 181.306C119.095 180.298 119.398 179.458 120.005 178.786C120.621 178.105 121.433 177.764 122.441 177.764C123.449 177.764 124.256 178.105 124.863 178.786C125.479 179.458 125.787 180.298 125.787 181.306C125.787 182.314 125.479 183.159 124.863 183.84ZM120.789 183.168C121.199 183.672 121.75 183.924 122.441 183.924C123.131 183.924 123.677 183.672 124.079 183.168C124.48 182.655 124.681 182.034 124.681 181.306C124.681 180.578 124.48 179.962 124.079 179.458C123.677 178.954 123.131 178.702 122.441 178.702C121.75 178.702 121.199 178.959 120.789 179.472C120.387 179.976 120.187 180.588 120.187 181.306C120.187 182.034 120.387 182.655 120.789 183.168ZM133.112 184.694H132.062V183.742C131.782 184.06 131.428 184.326 130.998 184.54C130.578 184.755 130.13 184.862 129.654 184.862C128.217 184.862 127.498 184.144 127.498 182.706V177.932H128.548V182.384C128.548 182.944 128.674 183.341 128.926 183.574C129.188 183.808 129.566 183.924 130.06 183.924C130.452 183.924 130.83 183.826 131.194 183.63C131.568 183.434 131.857 183.192 132.062 182.902V177.932H133.112V184.694ZM136.259 184.694H135.209V177.932H136.259V179.024C136.885 178.203 137.636 177.792 138.513 177.792V178.87C138.383 178.842 138.243 178.828 138.093 178.828C137.776 178.828 137.431 178.94 137.057 179.164C136.684 179.388 136.418 179.636 136.259 179.906V184.694ZM146.492 184.862C145.484 184.862 144.658 184.536 144.014 183.882C143.37 183.22 143.048 182.361 143.048 181.306C143.048 180.317 143.365 179.482 144 178.8C144.634 178.11 145.428 177.764 146.38 177.764C147.378 177.764 148.167 178.11 148.746 178.8C149.334 179.482 149.628 180.345 149.628 181.39V181.656H144.154C144.2 182.319 144.443 182.874 144.882 183.322C145.32 183.77 145.89 183.994 146.59 183.994C147.43 183.994 148.125 183.71 148.676 183.14L149.18 183.826C148.489 184.517 147.593 184.862 146.492 184.862ZM148.592 180.886C148.582 180.308 148.386 179.79 148.004 179.332C147.621 178.866 147.075 178.632 146.366 178.632C145.694 178.632 145.162 178.861 144.77 179.318C144.387 179.776 144.182 180.298 144.154 180.886H148.592ZM160.54 184.694H159.49V180.102C159.49 179.169 159.075 178.702 158.244 178.702C157.908 178.702 157.572 178.805 157.236 179.01C156.9 179.216 156.639 179.458 156.452 179.738V184.694H155.402V180.102C155.402 179.169 154.987 178.702 154.156 178.702C153.83 178.702 153.498 178.805 153.162 179.01C152.836 179.216 152.574 179.463 152.378 179.752V184.694H151.328V177.932H152.378V178.912C152.546 178.651 152.84 178.394 153.26 178.142C153.68 177.89 154.114 177.764 154.562 177.764C155.057 177.764 155.458 177.881 155.766 178.114C156.074 178.348 156.28 178.651 156.382 179.024C156.588 178.688 156.9 178.394 157.32 178.142C157.74 177.89 158.184 177.764 158.65 177.764C159.91 177.764 160.54 178.446 160.54 179.808V184.694ZM167.913 184.694H166.863V183.924C166.294 184.55 165.547 184.862 164.623 184.862C163.998 184.862 163.447 184.662 162.971 184.26C162.495 183.859 162.257 183.313 162.257 182.622C162.257 181.913 162.49 181.367 162.957 180.984C163.433 180.592 163.988 180.396 164.623 180.396C165.584 180.396 166.331 180.704 166.863 181.32V180.102C166.863 179.654 166.704 179.304 166.387 179.052C166.07 178.8 165.659 178.674 165.155 178.674C164.362 178.674 163.671 178.987 163.083 179.612L162.593 178.884C163.312 178.138 164.212 177.764 165.295 177.764C166.07 177.764 166.7 177.951 167.185 178.324C167.67 178.698 167.913 179.272 167.913 180.046V184.694ZM165.001 184.106C165.841 184.106 166.462 183.826 166.863 183.266V181.992C166.462 181.432 165.841 181.152 165.001 181.152C164.516 181.152 164.114 181.292 163.797 181.572C163.489 181.843 163.335 182.198 163.335 182.636C163.335 183.066 163.489 183.42 163.797 183.7C164.114 183.971 164.516 184.106 165.001 184.106ZM170.536 176.966C170.349 176.966 170.186 176.901 170.046 176.77C169.906 176.63 169.836 176.462 169.836 176.266C169.836 176.07 169.906 175.902 170.046 175.762C170.186 175.622 170.349 175.552 170.536 175.552C170.732 175.552 170.9 175.622 171.04 175.762C171.18 175.902 171.25 176.07 171.25 176.266C171.25 176.462 171.18 176.63 171.04 176.77C170.9 176.901 170.732 176.966 170.536 176.966ZM171.068 184.694H170.018V177.932H171.068V184.694ZM174.212 184.694H173.162V175.356H174.212V184.694ZM185.194 184.694H184.144V183.924C183.575 184.55 182.828 184.862 181.904 184.862C181.279 184.862 180.728 184.662 180.252 184.26C179.776 183.859 179.538 183.313 179.538 182.622C179.538 181.913 179.772 181.367 180.238 180.984C180.714 180.592 181.27 180.396 181.904 180.396C182.866 180.396 183.612 180.704 184.144 181.32V180.102C184.144 179.654 183.986 179.304 183.668 179.052C183.351 178.8 182.94 178.674 182.436 178.674C181.643 178.674 180.952 178.987 180.364 179.612L179.874 178.884C180.593 178.138 181.494 177.764 182.576 177.764C183.351 177.764 183.981 177.951 184.466 178.324C184.952 178.698 185.194 179.272 185.194 180.046V184.694ZM182.282 184.106C183.122 184.106 183.743 183.826 184.144 183.266V181.992C183.743 181.432 183.122 181.152 182.282 181.152C181.797 181.152 181.396 181.292 181.078 181.572C180.77 181.843 180.616 182.198 180.616 182.636C180.616 183.066 180.77 183.42 181.078 183.7C181.396 183.971 181.797 184.106 182.282 184.106ZM193.249 184.694H192.199V183.686C191.62 184.47 190.86 184.862 189.917 184.862C189.021 184.862 188.293 184.545 187.733 183.91C187.182 183.266 186.907 182.403 186.907 181.32C186.907 180.247 187.182 179.388 187.733 178.744C188.293 178.091 189.021 177.764 189.917 177.764C190.85 177.764 191.611 178.161 192.199 178.954V175.356H193.249V184.694ZM190.169 183.924C190.58 183.924 190.972 183.822 191.345 183.616C191.718 183.411 192.003 183.159 192.199 182.86V179.794C192.003 179.486 191.714 179.23 191.331 179.024C190.958 178.81 190.57 178.702 190.169 178.702C189.506 178.702 188.979 178.95 188.587 179.444C188.195 179.93 187.999 180.555 187.999 181.32C187.999 182.086 188.195 182.711 188.587 183.196C188.979 183.682 189.506 183.924 190.169 183.924ZM201.302 184.694H200.252V183.686C199.673 184.47 198.912 184.862 197.97 184.862C197.074 184.862 196.346 184.545 195.786 183.91C195.235 183.266 194.96 182.403 194.96 181.32C194.96 180.247 195.235 179.388 195.786 178.744C196.346 178.091 197.074 177.764 197.97 177.764C198.903 177.764 199.664 178.161 200.252 178.954V175.356H201.302V184.694ZM198.222 183.924C198.632 183.924 199.024 183.822 199.398 183.616C199.771 183.411 200.056 183.159 200.252 182.86V179.794C200.056 179.486 199.766 179.23 199.384 179.024C199.01 178.81 198.623 178.702 198.222 178.702C197.559 178.702 197.032 178.95 196.64 179.444C196.248 179.93 196.052 180.555 196.052 181.32C196.052 182.086 196.248 182.711 196.64 183.196C197.032 183.682 197.559 183.924 198.222 183.924ZM204.454 184.694H203.404V177.932H204.454V179.024C205.08 178.203 205.831 177.792 206.708 177.792V178.87C206.578 178.842 206.438 178.828 206.288 178.828C205.971 178.828 205.626 178.94 205.252 179.164C204.879 179.388 204.613 179.636 204.454 179.906V184.694ZM211.078 184.862C210.07 184.862 209.244 184.536 208.6 183.882C207.956 183.22 207.634 182.361 207.634 181.306C207.634 180.317 207.951 179.482 208.586 178.8C209.22 178.11 210.014 177.764 210.966 177.764C211.964 177.764 212.753 178.11 213.332 178.8C213.92 179.482 214.214 180.345 214.214 181.39V181.656H208.74C208.786 182.319 209.029 182.874 209.468 183.322C209.906 183.77 210.476 183.994 211.176 183.994C212.016 183.994 212.711 183.71 213.262 183.14L213.766 183.826C213.075 184.517 212.179 184.862 211.078 184.862ZM213.178 180.886C213.168 180.308 212.972 179.79 212.59 179.332C212.207 178.866 211.661 178.632 210.952 178.632C210.28 178.632 209.748 178.861 209.356 179.318C208.973 179.776 208.768 180.298 208.74 180.886H213.178ZM218.056 184.862C216.908 184.862 215.998 184.508 215.326 183.798L215.872 183.042C216.106 183.313 216.423 183.542 216.824 183.728C217.235 183.915 217.66 184.008 218.098 184.008C218.602 184.008 218.994 183.901 219.274 183.686C219.554 183.472 219.694 183.192 219.694 182.846C219.694 182.548 219.55 182.314 219.26 182.146C218.971 181.969 218.621 181.838 218.21 181.754C217.809 181.661 217.403 181.558 216.992 181.446C216.582 181.325 216.232 181.124 215.942 180.844C215.653 180.555 215.508 180.177 215.508 179.71C215.508 179.16 215.732 178.698 216.18 178.324C216.638 177.951 217.254 177.764 218.028 177.764C219.046 177.764 219.881 178.091 220.534 178.744L220.044 179.472C219.568 178.903 218.896 178.618 218.028 178.618C217.571 178.618 217.207 178.721 216.936 178.926C216.666 179.122 216.53 179.374 216.53 179.682C216.53 179.953 216.675 180.168 216.964 180.326C217.254 180.476 217.599 180.597 218 180.69C218.411 180.774 218.822 180.877 219.232 180.998C219.643 181.12 219.993 181.334 220.282 181.642C220.572 181.941 220.716 182.333 220.716 182.818C220.716 183.416 220.483 183.906 220.016 184.288C219.55 184.671 218.896 184.862 218.056 184.862ZM224.564 184.862C223.416 184.862 222.506 184.508 221.834 183.798L222.38 183.042C222.613 183.313 222.931 183.542 223.332 183.728C223.743 183.915 224.167 184.008 224.606 184.008C225.11 184.008 225.502 183.901 225.782 183.686C226.062 183.472 226.202 183.192 226.202 182.846C226.202 182.548 226.057 182.314 225.768 182.146C225.479 181.969 225.129 181.838 224.718 181.754C224.317 181.661 223.911 181.558 223.5 181.446C223.089 181.325 222.739 181.124 222.45 180.844C222.161 180.555 222.016 180.177 222.016 179.71C222.016 179.16 222.24 178.698 222.688 178.324C223.145 177.951 223.761 177.764 224.536 177.764C225.553 177.764 226.389 178.091 227.042 178.744L226.552 179.472C226.076 178.903 225.404 178.618 224.536 178.618C224.079 178.618 223.715 178.721 223.444 178.926C223.173 179.122 223.038 179.374 223.038 179.682C223.038 179.953 223.183 180.168 223.472 180.326C223.761 180.476 224.107 180.597 224.508 180.69C224.919 180.774 225.329 180.877 225.74 180.998C226.151 181.12 226.501 181.334 226.79 181.642C227.079 181.941 227.224 182.333 227.224 182.818C227.224 183.416 226.991 183.906 226.524 184.288C226.057 184.671 225.404 184.862 224.564 184.862ZM230.036 184.61C229.887 184.76 229.705 184.834 229.49 184.834C229.275 184.834 229.093 184.76 228.944 184.61C228.795 184.461 228.72 184.279 228.72 184.064C228.72 183.85 228.795 183.668 228.944 183.518C229.093 183.369 229.275 183.294 229.49 183.294C229.705 183.294 229.887 183.369 230.036 183.518C230.185 183.668 230.26 183.85 230.26 184.064C230.26 184.279 230.185 184.461 230.036 184.61Z" fill="#5D6574"/>
<path d="M91.299 54.1139H95.559V68.3139H91.299V66.9791C90.2955 68.134 88.885 68.7115 87.0674 68.7115C85.193 68.7115 83.5931 67.992 82.2678 66.5531C80.9425 65.0952 80.2798 63.3155 80.2798 61.2139C80.2798 59.1123 80.9425 57.342 82.2678 55.9031C83.5931 54.4452 85.193 53.7163 87.0674 53.7163C88.885 53.7163 90.2955 54.2938 91.299 55.4487V54.1139ZM85.477 63.7415C86.1018 64.3663 86.9159 64.6787 87.9194 64.6787C88.9229 64.6787 89.737 64.3663 90.3618 63.7415C90.9866 63.1167 91.299 62.2742 91.299 61.2139C91.299 60.1536 90.9866 59.3111 90.3618 58.6863C89.737 58.0615 88.9229 57.7491 87.9194 57.7491C86.9159 57.7491 86.1018 58.0615 85.477 58.6863C84.8522 59.3111 84.5398 60.1536 84.5398 61.2139C84.5398 62.2742 84.8522 63.1167 85.477 63.7415Z" fill="white"/>
<path d="M110.84 66.5531C109.382 67.992 107.602 68.7115 105.5 68.7115C103.399 68.7115 101.619 67.992 100.161 66.5531C98.7032 65.0952 97.9743 63.3155 97.9743 61.2139C97.9743 59.1123 98.7032 57.342 100.161 55.9031C101.619 54.4452 103.399 53.7163 105.5 53.7163C107.602 53.7163 109.382 54.4452 110.84 55.9031C112.297 57.342 113.026 59.1123 113.026 61.2139C113.026 63.3155 112.297 65.0952 110.84 66.5531ZM103.172 63.6279C103.796 64.2527 104.573 64.5651 105.5 64.5651C106.428 64.5651 107.204 64.2527 107.829 63.6279C108.454 63.0031 108.766 62.1984 108.766 61.2139C108.766 60.2294 108.454 59.4247 107.829 58.7999C107.204 58.1751 106.428 57.8627 105.5 57.8627C104.573 57.8627 103.796 58.1751 103.172 58.7999C102.547 59.4247 102.234 60.2294 102.234 61.2139C102.234 62.1984 102.547 63.0031 103.172 63.6279Z" fill="white"/>
<path d="M75.3203 51.068C73.3559 49.0227 70.9055 48 67.9691 48H59.4636V51.1218L59.4722 51.1132L64.3239 55.9649V52.678H67.9691C69.6499 52.678 71.0068 53.2248 72.0396 54.3184C73.0926 55.3917 73.6192 56.8295 73.6192 58.6318C73.6192 60.4342 73.0926 61.8821 72.0396 62.9757C71.0068 64.049 69.6499 64.5857 67.9691 64.5857H64.3239V61.737L59.4722 66.5887L59.4636 66.5801V69.2637H67.9691C70.9055 69.2637 73.3559 68.2511 75.3203 66.226C77.3049 64.1806 78.2972 61.6493 78.2972 58.6318C78.2972 55.6144 77.3049 53.0932 75.3203 51.068Z" fill="white"/>
<g opacity="0.25" filter="url(#filter0_f)">
<rect x="53" y="58.9857" width="8.13756" height="8.13756" transform="rotate(-45 53 58.9857)" fill="#FB3E3E"/>
</g>
<path d="M126.142 48C128.23 48 129.994 48.709 131.433 50.1269C132.872 51.5448 133.592 53.2666 133.592 55.2923C133.592 57.3179 132.872 59.0397 131.433 60.4576C129.994 61.8755 128.23 62.5845 126.142 62.5845H122.949V69.2691H118.083V48H126.142ZM126.142 58.0268C126.892 58.0268 127.51 57.7635 127.997 57.2368C128.483 56.7102 128.727 56.062 128.727 55.2923C128.727 54.5225 128.483 53.8743 127.997 53.3476C127.51 52.821 126.892 52.5577 126.142 52.5577H122.949V58.0268H126.142Z" fill="#FB3E3E"/>
<path d="M147.963 67.3852C146.402 68.9247 144.496 69.6944 142.246 69.6944C139.995 69.6944 138.09 68.9247 136.529 67.3852C134.968 65.8255 134.187 63.9214 134.187 61.673C134.187 59.4245 134.968 57.5306 136.529 55.9911C138.09 54.4314 139.995 53.6515 142.246 53.6515C144.496 53.6515 146.402 54.4314 147.963 55.9911C149.524 57.5306 150.304 59.4245 150.304 61.673C150.304 63.9214 149.524 65.8255 147.963 67.3852ZM139.752 64.2556C140.421 64.9241 141.252 65.2583 142.246 65.2583C143.239 65.2583 144.07 64.9241 144.739 64.2556C145.408 63.5872 145.743 62.7263 145.743 61.673C145.743 60.6196 145.408 59.7588 144.739 59.0903C144.07 58.4218 143.239 58.0876 142.246 58.0876C141.252 58.0876 140.421 58.4218 139.752 59.0903C139.083 59.7588 138.749 60.6196 138.749 61.673C138.749 62.7263 139.083 63.5872 139.752 64.2556Z" fill="#FB3E3E"/>
<path d="M167.481 69.2691H162.311L157.446 62.5541V69.2691H152.884V48H157.446V60.7311L162.007 54.0769H167.329L161.794 61.673L167.481 69.2691Z" fill="#FB3E3E"/>
<path d="M172.312 63.496C172.839 64.914 174.056 65.6229 175.961 65.6229C177.198 65.6229 178.171 65.2381 178.881 64.4683L182.53 66.5649C181.03 68.6512 178.82 69.6944 175.9 69.6944C173.346 69.6944 171.299 68.9348 169.758 67.4156C168.237 65.8964 167.477 63.9822 167.477 61.673C167.477 59.384 168.227 57.4799 169.727 55.9607C171.248 54.4212 173.194 53.6515 175.566 53.6515C177.776 53.6515 179.61 54.4212 181.07 55.9607C182.55 57.4799 183.29 59.384 183.29 61.673C183.29 62.3212 183.229 62.9289 183.107 63.496H172.312ZM172.221 60.093H178.759C178.313 58.4927 177.238 57.6926 175.536 57.6926C173.772 57.6926 172.667 58.4927 172.221 60.093Z" fill="#FB3E3E"/>
<path d="M190.439 56.7811C190.722 55.8088 191.29 55.0694 192.141 54.563C193.013 54.0364 193.966 53.773 195 53.773V58.9384C193.885 58.7561 192.841 58.9485 191.868 59.5157C190.915 60.0626 190.439 61.0248 190.439 62.4022V69.2691H185.877V54.0769H190.439V56.7811Z" fill="#FB3E3E"/>
<rect x="53" y="58.9857" width="8.13756" height="8.13756" transform="rotate(-45 53 58.9857)" fill="#FB3E3E"/>
<rect x="20" y="222" width="208" height="1" fill="#191F2A"/>
<path d="M81.7572 337.168C80.3852 337.168 79.2698 336.711 78.4112 335.796C77.5525 334.881 77.1232 333.729 77.1232 332.338C77.1232 330.947 77.5525 329.795 78.4112 328.88C79.2698 327.965 80.3852 327.508 81.7572 327.508C83.1198 327.508 84.2305 327.965 85.0892 328.88C85.9572 329.795 86.3912 330.947 86.3912 332.338C86.3912 333.729 85.9572 334.881 85.0892 335.796C84.2305 336.711 83.1198 337.168 81.7572 337.168ZM81.7572 336.132C82.7838 336.132 83.6098 335.777 84.2352 335.068C84.8698 334.349 85.1872 333.439 85.1872 332.338C85.1872 331.227 84.8698 330.317 84.2352 329.608C83.6098 328.899 82.7838 328.544 81.7572 328.544C80.7212 328.544 79.8905 328.899 79.2652 329.608C78.6398 330.317 78.3272 331.227 78.3272 332.338C78.3272 333.439 78.6398 334.349 79.2652 335.068C79.8905 335.777 80.7212 336.132 81.7572 336.132ZM89.2143 337H88.1643V330.238H89.2143V331.33C89.8396 330.509 90.5909 330.098 91.4683 330.098V331.176C91.3376 331.148 91.1976 331.134 91.0483 331.134C90.7309 331.134 90.3856 331.246 90.0123 331.47C89.6389 331.694 89.3729 331.941 89.2143 332.212V337ZM99.3767 337.168C98.3781 337.168 97.5661 336.832 96.9407 336.16C96.3154 335.479 96.0027 334.629 96.0027 333.612C96.0027 332.595 96.3154 331.75 96.9407 331.078C97.5661 330.406 98.3781 330.07 99.3767 330.07C100.422 330.07 101.248 330.462 101.855 331.246L101.155 331.89C100.725 331.302 100.151 331.008 99.4327 331.008C98.7234 331.008 98.1541 331.251 97.7247 331.736C97.3047 332.221 97.0947 332.847 97.0947 333.612C97.0947 334.377 97.3047 335.007 97.7247 335.502C98.1541 335.987 98.7234 336.23 99.4327 336.23C100.142 336.23 100.716 335.936 101.155 335.348L101.855 335.992C101.248 336.776 100.422 337.168 99.3767 337.168ZM104.376 337H103.326V327.662H104.376V337ZM106.989 329.272C106.802 329.272 106.639 329.207 106.499 329.076C106.359 328.936 106.289 328.768 106.289 328.572C106.289 328.376 106.359 328.208 106.499 328.068C106.639 327.928 106.802 327.858 106.989 327.858C107.185 327.858 107.353 327.928 107.493 328.068C107.633 328.208 107.703 328.376 107.703 328.572C107.703 328.768 107.633 328.936 107.493 329.076C107.353 329.207 107.185 329.272 106.989 329.272ZM107.521 337H106.471V330.238H107.521V337ZM112.597 337.168C111.599 337.168 110.787 336.832 110.161 336.16C109.536 335.479 109.223 334.629 109.223 333.612C109.223 332.595 109.536 331.75 110.161 331.078C110.787 330.406 111.599 330.07 112.597 330.07C113.643 330.07 114.469 330.462 115.075 331.246L114.375 331.89C113.946 331.302 113.372 331.008 112.653 331.008C111.944 331.008 111.375 331.251 110.945 331.736C110.525 332.221 110.315 332.847 110.315 333.612C110.315 334.377 110.525 335.007 110.945 335.502C111.375 335.987 111.944 336.23 112.653 336.23C113.363 336.23 113.937 335.936 114.375 335.348L115.075 335.992C114.469 336.776 113.643 337.168 112.597 337.168ZM122.497 337H121.153L118.717 333.962L117.597 335.068V337H116.547V327.662H117.597V333.836L121.153 330.238H122.483L119.487 333.304L122.497 337ZM153.499 337H152.449V327.662H153.499V337ZM156.112 329.272C155.925 329.272 155.762 329.207 155.622 329.076C155.482 328.936 155.412 328.768 155.412 328.572C155.412 328.376 155.482 328.208 155.622 328.068C155.762 327.928 155.925 327.858 156.112 327.858C156.308 327.858 156.476 327.928 156.616 328.068C156.756 328.208 156.826 328.376 156.826 328.572C156.826 328.768 156.756 328.936 156.616 329.076C156.476 329.207 156.308 329.272 156.112 329.272ZM156.644 337H155.594V330.238H156.644V337ZM164.352 337H163.302V332.576C163.302 332.007 163.172 331.605 162.91 331.372C162.649 331.129 162.276 331.008 161.79 331.008C161.398 331.008 161.016 331.111 160.642 331.316C160.278 331.521 159.994 331.769 159.788 332.058V337H158.738V330.238H159.788V331.218C160.05 330.91 160.4 330.644 160.838 330.42C161.277 330.187 161.73 330.07 162.196 330.07C163.634 330.07 164.352 330.798 164.352 332.254V337ZM172.399 337H171.055L168.619 333.962L167.499 335.068V337H166.449V327.662H167.499V333.836L171.055 330.238H172.385L169.389 333.304L172.399 337Z" fill="#5D6574"/>
<path d="M129.056 337.168C128.561 337.168 128.188 337.033 127.936 336.762C127.684 336.491 127.558 336.099 127.558 335.586V331.162H126.438V330.238H127.558V328.39H128.608V330.238H129.98V331.162H128.608V335.362C128.608 335.623 128.664 335.833 128.776 335.992C128.897 336.151 129.07 336.23 129.294 336.23C129.602 336.23 129.84 336.137 130.008 335.95L130.316 336.734C130.008 337.023 129.588 337.168 129.056 337.168ZM137.091 337H136.041V332.548C136.041 331.988 135.91 331.591 135.649 331.358C135.388 331.125 135.01 331.008 134.515 331.008C134.132 331.008 133.754 331.111 133.381 331.316C133.017 331.521 132.728 331.769 132.513 332.058V337H131.463V327.662H132.513V331.218C132.774 330.91 133.124 330.644 133.563 330.42C134.002 330.187 134.459 330.07 134.935 330.07C136.372 330.07 137.091 330.789 137.091 332.226V337ZM139.706 329.272C139.519 329.272 139.356 329.207 139.216 329.076C139.076 328.936 139.006 328.768 139.006 328.572C139.006 328.376 139.076 328.208 139.216 328.068C139.356 327.928 139.519 327.858 139.706 327.858C139.902 327.858 140.07 327.928 140.21 328.068C140.35 328.208 140.42 328.376 140.42 328.572C140.42 328.768 140.35 328.936 140.21 329.076C140.07 329.207 139.902 329.272 139.706 329.272ZM140.238 337H139.188V330.238H140.238V337ZM144.474 337.168C143.326 337.168 142.416 336.813 141.744 336.104L142.29 335.348C142.524 335.619 142.841 335.847 143.242 336.034C143.653 336.221 144.078 336.314 144.516 336.314C145.02 336.314 145.412 336.207 145.692 335.992C145.972 335.777 146.112 335.497 146.112 335.152C146.112 334.853 145.968 334.62 145.678 334.452C145.389 334.275 145.039 334.144 144.628 334.06C144.227 333.967 143.821 333.864 143.41 333.752C143 333.631 142.65 333.43 142.36 333.15C142.071 332.861 141.926 332.483 141.926 332.016C141.926 331.465 142.15 331.003 142.598 330.63C143.056 330.257 143.672 330.07 144.446 330.07C145.464 330.07 146.299 330.397 146.952 331.05L146.462 331.778C145.986 331.209 145.314 330.924 144.446 330.924C143.989 330.924 143.625 331.027 143.354 331.232C143.084 331.428 142.948 331.68 142.948 331.988C142.948 332.259 143.093 332.473 143.382 332.632C143.672 332.781 144.017 332.903 144.418 332.996C144.829 333.08 145.24 333.183 145.65 333.304C146.061 333.425 146.411 333.64 146.7 333.948C146.99 334.247 147.134 334.639 147.134 335.124C147.134 335.721 146.901 336.211 146.434 336.594C145.968 336.977 145.314 337.168 144.474 337.168Z" fill="#FB3E3E"/>
<defs>
<filter id="filter0_f" x="3" y="3.23157" width="111.508" height="111.508" filterUnits="userSpaceOnUse" color-interpolation-filters="sRGB">
<feFlood flood-opacity="0" result="BackgroundImageFix"/>
<feBlend mode="normal" in="SourceGraphic" in2="BackgroundImageFix" result="shape"/>
<feGaussianBlur stdDeviation="25" result="effect1_foregroundBlur"/>
</filter>
<clipPath id="clip0">
<rect width="16" height="16" fill="white" transform="translate(216.4 287.9)"/>
</clipPath>
</defs>
</svg>
