<?xml version="1.0" encoding="iso-8859-1"?>
<!-- Generator: Adobe Illustrator 18.0.0, SVG Export Plug-In . SVG Version: 6.00 Build 0)  -->
<!DOCTYPE svg PUBLIC "-//W3C//DTD SVG 1.1//EN" "http://www.w3.org/Graphics/SVG/1.1/DTD/svg11.dtd">
<svg version="1.1" id="Capa_1" xmlns="http://www.w3.org/2000/svg" xmlns:xlink="http://www.w3.org/1999/xlink" x="0px" y="0px"
	 viewBox="0 0 480.809 480.809" style="enable-background:new 0 0 480.809 480.809;" xml:space="preserve">
<g>
	<path d="M372.219,18.75c-59.975,0-108.592,41.142-108.592,91.892c0,15.767,4.695,30.604,12.961,43.57l-17.432,36.7
		c-1.373,2.892-0.922,6.319,1.15,8.758c1.57,1.846,3.848,2.865,6.197,2.864c0.752,0,1.514-0.105,2.262-0.322l46.315-13.42
		c16.598,8.709,36.172,13.742,57.139,13.742c59.973,0,108.59-41.142,108.59-91.893C480.809,59.892,432.191,18.75,372.219,18.75z
		 M339.256,127.309c-9.205,0-16.666-7.462-16.666-16.667c0-9.205,7.461-16.667,16.666-16.667c9.205,0,16.666,7.462,16.666,16.667
		C355.922,119.847,348.461,127.309,339.256,127.309z M399.924,127.309c-9.205,0-16.668-7.462-16.668-16.667
		c0-9.205,7.463-16.667,16.668-16.667s16.666,7.462,16.666,16.667C416.59,119.847,409.129,127.309,399.924,127.309z"/>
	<path d="M264.223,286.683l-49.387-14.968c-1.191-3.608-3.838-6.73-7.537-9.371c4.07-4.524,7.506-9.103,10.119-12.891
		c6.199-8.987,11.356-18.667,14.928-28.006c1.76-3.939,3.26-7.893,4.475-11.774c4.809-4.03,7.639-10.049,7.639-16.363v-15.467
		c0-4.438-1.396-8.779-3.965-12.378v-21.774c0-38.197-31.074-69.267-69.266-69.267h-22.455c-38.193,0-69.268,31.07-69.268,69.267
		v21.776c-2.568,3.598-3.964,7.941-3.964,12.377v15.467c0,6.31,2.831,12.325,7.639,16.361c1.214,3.875,2.714,7.833,4.474,11.781
		c3.573,9.336,8.732,19.014,14.928,27.996c2.613,3.789,6.051,8.37,10.121,12.896c-3.701,2.641-6.347,5.763-7.539,9.371
		l-49.386,14.968C21.008,296.675,0.172,446.906,0.172,446.906h0.004C0.071,447.574,0,448.252,0,448.95
		c0,7.24,5.868,13.109,13.109,13.109h293.781c7.242,0,13.109-5.869,13.109-13.109C320,442.664,298.992,296.675,264.223,286.683z
		 M146.711,325.574c-0.188,1.815-1.468,3.332-3.227,3.822c-0.395,0.109-0.794,0.164-1.192,0.164c-1.37,0-2.691-0.638-3.545-1.768
		l-12.475-16.548c-0.582-0.771-0.895-1.711-0.895-2.676l0.016-26.532c0.001-1.556,0.816-2.998,2.149-3.801
		c1.334-0.803,2.989-0.849,4.365-0.122c3.632,1.92,7.259,3.21,10.778,3.836c2.119,0.376,3.664,2.218,3.664,4.371v11.069
		c0.632,0.249,1.207,0.643,1.672,1.158c0.842,0.933,1.248,2.179,1.12,3.429L146.711,325.574z M193.71,311.245l-12.458,16.537
		c-0.852,1.13-2.174,1.768-3.547,1.768c-0.395,0-0.795-0.053-1.188-0.162c-1.758-0.49-3.039-2.006-3.227-3.823l-2.432-23.587
		c-0.131-1.25,0.277-2.496,1.119-3.429c0.465-0.516,1.039-0.91,1.67-1.158V286.32c0-2.153,1.547-3.995,3.666-4.371
		c3.518-0.626,7.143-1.915,10.773-3.833c1.377-0.728,3.033-0.68,4.367,0.122c1.333,0.804,2.148,2.247,2.148,3.803l0.002,26.532
		C194.605,309.537,194.293,310.474,193.71,311.245z M171.926,258.461h-23.852c-5.27,0-15.445-7.049-26.303-22.797
		c-8.572-12.422-14.527-26.173-15.93-36.781l-0.239-1.839l-4.31-2.8c-1.26-0.819-2.02-2.22-2.02-3.723v-7.309
		c0-2.452,1.987-4.44,4.439-4.44h1.813v-7.917c0-1.684,0.951-3.221,2.457-3.973c6.112-3.052,18.242-8.171,30.801-8.171
		c10.021,0,18.329,3.334,24.696,9.907c7.932,8.198,17.072,12.354,27.174,12.354c5.716,0,11.627-1.348,17.564-4.009
		c1.373-0.616,2.965-0.493,4.229,0.325c0.592,0.383,1.074,0.895,1.42,1.483h2.422c2.451,0,4.439,1.988,4.439,4.44v7.309
		c0,1.503-0.762,2.904-2.021,3.723l-4.309,2.8l-0.238,1.829c-1.404,10.615-7.359,24.369-15.932,36.794
		C187.371,251.412,177.197,258.461,171.926,258.461z"/>
</g>
<g>
</g>
<g>
</g>
<g>
</g>
<g>
</g>
<g>
</g>
<g>
</g>
<g>
</g>
<g>
</g>
<g>
</g>
<g>
</g>
<g>
</g>
<g>
</g>
<g>
</g>
<g>
</g>
<g>
</g>
</svg>
