<?xml version="1.0" encoding="utf-8"?>
<!-- Svg Vector Icons : http://www.onlinewebfonts.com/icon -->
<!DOCTYPE svg PUBLIC "-//W3C//DTD SVG 1.1//EN" "http://www.w3.org/Graphics/SVG/1.1/DTD/svg11.dtd">
<svg version="1.1" xmlns="http://www.w3.org/2000/svg" xmlns:xlink="http://www.w3.org/1999/xlink" x="0px" y="0px" viewBox="0 0 1000 1000" enable-background="new 0 0 1000 1000" xml:space="preserve" width="33px" height="33px">
<metadata> Svg Vector Icons : http://www.onlinewebfonts.com/icon </metadata>
<g><g><path fill="#4c4c4c" d="M507.7,45.9c-1.3,0-2.4,0.3-3.6,0.3c-3.7-0.1-7.4-0.4-11.1-0.3H507.7z M502,614.4c-0.7,0-1.3-0.1-1.9-0.1c-0.5,0-0.9,0.1-1.4,0.1H502z M294.2,405.2c0.5-0.1,0.9-0.7,1.5-0.8c32.9,118.9,118,208,204.4,209.8c78.7-3.6,175.4-91,207.6-209.4c14.8,0.9,29.6-16.5,33.8-40.9c4.3-25.3-4.7-48-20-50.6c-1-0.2-2,0.5-2.9,0.5c-4.4-195.7-97.4-264.8-214.5-267.7c-120.8,0.6-228.9,84.5-222,267.8c-1.2,0-2.2-0.7-3.4-0.5c-15.3,2.6-24.3,25.3-20,50.6C262.9,389.3,278.9,407.7,294.2,405.2z M662.8,648.2L553.1,862.9l-17.3-139.6l27.1-22.2h-65.6h-60l27.1,22.2L447,862.9L337.4,648.2C146.8,673.9,10,755.6,10,954.1h980C990.1,755.5,853.3,673.9,662.8,648.2z"/></g><g></g><g></g><g></g><g></g><g></g><g></g><g></g><g></g><g></g><g></g><g></g><g></g><g></g><g></g><g></g></g>
</svg>