<svg height="63px" viewBox="0 0 512 512" width="63px" xmlns="http://www.w3.org/2000/svg"><path fill="#ffffff" d="m437.019531 74.980469c-48.351562-48.351563-112.640625-74.980469-181.019531-74.980469s-132.667969 26.628906-181.019531 74.980469c-48.351563 48.351562-74.980469 112.640625-74.980469 181.019531s26.628906 132.667969 74.980469 181.019531c48.351562 48.351563 112.640625 74.980469 181.019531 74.980469s132.667969-26.628906 181.019531-74.980469c48.351563-48.351562 74.980469-112.640625 74.980469-181.019531s-26.628906-132.667969-74.980469-181.019531zm-21.214843 340.824219c-42.683594 42.6875-99.4375 66.195312-159.804688 66.195312s-117.121094-23.507812-159.804688-66.195312c-42.6875-42.683594-66.195312-99.4375-66.195312-159.804688s23.507812-117.121094 66.195312-159.804688c42.683594-42.6875 99.4375-66.195312 159.804688-66.195312s117.121094 23.507812 159.804688 66.195312c42.6875 42.683594 66.195312 99.4375 66.195312 159.804688s-23.507812 117.121094-66.195312 159.804688zm0 0"/><path fill="#ffffff" d="m256 61c-107.523438 0-195 87.476562-195 195 0 59.066406 26.492188 114.347656 72.683594 151.667969 2.671875 2.15625 5.996094 3.332031 9.429687 3.332031h225.777344c3.429687 0 6.757813-1.175781 9.425781-3.332031 46.191406-37.320313 72.683594-92.601563 72.683594-151.667969 0-107.523438-87.476562-195-195-195zm149.785156 264.15625-12.382812-7.144531c-7.171875-4.144531-16.347656-1.6875-20.488282 5.488281-4.140624 7.175781-1.683593 16.347656 5.488282 20.488281l12.320312 7.113281c-7.742187 10.910157-16.867187 20.960938-27.261718 29.898438h-214.921876c-10.394531-8.9375-19.519531-18.988281-27.261718-29.898438l12.320312-7.113281c7.171875-4.140625 9.632813-13.3125 5.488282-20.488281-4.140626-7.175781-13.316407-9.632812-20.488282-5.488281l-12.378906 7.144531c-7.863281-16.945312-12.808594-35.226562-14.527344-54.15625h14.308594c8.285156 0 15-6.714844 15-15s-6.714844-15-15-15h-14.3125c1.738281-19.179688 6.769531-37.425781 14.527344-54.15625l12.382812 7.148438c2.359375 1.363281 4.9375 2.011718 7.484375 2.011718 5.183594 0 10.226563-2.691406 13.003907-7.503906 4.140624-7.171875 1.683593-16.347656-5.488282-20.488281l-12.347656-7.128907c10.867188-15.347656 24.285156-28.765624 39.632812-39.632812l7.128907 12.347656c2.777343 4.8125 7.816406 7.5 13.003906 7.5 2.542969 0 5.121094-.648437 7.484375-2.011718 7.175781-4.140626 9.632812-13.316407 5.488281-20.488282l-7.148437-12.382812c16.734375-7.757813 34.976562-12.789063 54.160156-14.523438v14.308594c0 8.285156 6.714844 15 15 15s15-6.714844 15-15v-14.3125c19.179688 1.738281 37.425781 6.769531 54.160156 14.527344l-7.148437 12.382812c-4.144531 7.171875-1.6875 16.347656 5.488281 20.488282 2.363281 1.363281 4.941406 2.011718 7.484375 2.011718 5.1875 0 10.226563-2.691406 13.003906-7.5l7.128907-12.347656c15.347656 10.867188 28.765624 24.285156 39.632812 39.632812l-12.347656 7.128907c-7.171875 4.140625-9.628906 13.3125-5.488282 20.488281 2.777344 4.8125 7.820313 7.503906 13.003907 7.503906 2.542969 0 5.125-.648437 7.484375-2.015625l12.382812-7.148437c7.757813 16.734375 12.789063 34.976562 14.527344 54.160156h-14.3125c-8.285156 0-15 6.714844-15 15 0 8.28125 6.714844 15 15 15h14.308594c-1.71875 18.929688-6.664063 37.210938-14.523438 54.15625zm0 0"/><path fill="#ffffff" d="m276 331h-40c-8.285156 0-15 6.714844-15 15s6.714844 15 15 15h40c8.285156 0 15-6.714844 15-15s-6.714844-15-15-15zm0 0"/><path fill="#ffffff" d="m318.585938 147.710938c-5.800782-3.351563-13.121094-2.449219-17.933594 2.210937l-75.890625 73.429687c-10.28125 9.945313-15.175781 23.792969-13.425781 37.988282 1.75 14.199218 9.859374 26.441406 22.25 33.59375 7.011718 4.050781 14.75 6.09375 22.535156 6.09375 5.96875 0 11.964844-1.199219 17.679687-3.625 13.171875-5.582032 22.714844-16.742188 26.1875-30.617188l25.648438-102.441406c1.625-6.496094-1.253907-13.285156-7.050781-16.632812zm-47.699219 111.789062c-1.167969 4.660156-4.371094 8.40625-8.796875 10.28125-4.421875 1.875-9.34375 1.574219-13.507813-.828125-4.160156-2.402344-6.882812-6.515625-7.472656-11.28125-.585937-4.769531 1.058594-9.417969 4.511719-12.761719l38.160156-36.921875zm0 0"/></svg>