<?xml version="1.0" encoding="utf-8"?>
<!-- Generator: Adobe Illustrator 22.0.0, SVG Export Plug-In . SVG Version: 6.00 Build 0)  -->
<svg version="1.1" id="Слой_1" xmlns="http://www.w3.org/2000/svg" xmlns:xlink="http://www.w3.org/1999/xlink" x="0px" y="0px"
	 viewBox="0 0 4249.9 825" style="enable-background:new 0 0 4249.9 825;" xml:space="preserve">
<style type="text/css">
	.st0{fill:#FFFFFF;}
</style>
<path d="M607.2,633.1c-1.1-0.7-1.9-1.2-2.7-1.7c-41.7-27.8-83.5-55.6-125.2-83.4c-0.3-0.2-0.7-0.4-1-0.7c-1-0.9-2-0.9-3.3-0.5
	c-8,2.5-16,4.9-24.1,7.3c-28,8.5-56.1,17-84.1,25.6c-0.7,0.2-1.4,0.4-2.3,0.6c-41.5-91.6-82.9-183-124.5-274.9
	c-40.1,20.3-80,40.6-120,60.9s-79.9,40.6-120.1,61C0,284.8,0,142.1,0,0h607.2C607.2,210.8,607.2,421.8,607.2,633.1z M100.3,174
	c0,0,0.5,0,0.7,0c6.2,0,12.3,0.1,18.4-0.3c5.9-0.3,9.7-4.1,10.7-9.9c1.3-7.2-2.4-13-9.2-14.4c-1.6-0.3-3.2-0.5-4.8-0.5
	c-4.6-0.1-9.3,0-13.9,0c-0.6,0-1.9,0-1.9,0C100.3,157.2,100.3,165.8,100.3,174z M205.2,164.3c3.5,0,6.7,0,9.9,0c2.3,0,4.6,0.1,7-0.1
	c2.9-0.2,4.3-1.5,4.5-4.3c0.1-2.2,0.1-4.5,0-6.7c-0.2-2.6-1.2-3.6-3.8-4.1c-0.6-0.1-1.3-0.2-1.9-0.2c-6.6,0-13.1,0-19.7,0
	c-0.5,0-1.6,0-1.6,0c0,8.3,0,16.7,0,25c1.9,0,3.7,0,5.7,0C205.2,170.7,205.2,167.7,205.2,164.3z M296.2,174.2c5.7,0,11.1,0,16.5,0
	c0.9,0,1.7-0.2,2.6-0.4c3.1-0.8,5.3-2.6,6.5-5.5c0.9-2.2,1.2-4.4,0.8-6.8c-0.7-4.2-3.2-6.7-7.1-7.8c-1.4-0.4-3-0.5-4.5-0.6
	c-4.3-0.1-8.6,0-12.9,0c-0.6,0-1.9,0-1.9,0C296.2,160.1,296.2,167.2,296.2,174.2z M274.8,153.1L274.8,153.1c-3,0-5.9-0.1-8.9,0
	s-4.1,1.1-4.2,4c-0.2,4.2-0.2,8.5,0,12.7c0.1,3,1.1,4,4.2,4.1c5.8,0.1,11.6,0.1,17.5,0c3.3-0.1,4.4-1.2,4.4-4.6
	c0.1-3.8,0.1-7.7,0-11.5c-0.1-3.5-1.2-4.6-4.6-4.7C280.4,153.1,277.6,153.1,274.8,153.1z M448.3,153.1L448.3,153.1
	c-2.7,0-5.4-0.1-8.2,0c-3.5,0.1-4.6,1.1-4.7,4.6c-0.1,3.9-0.1,7.8,0,11.8c0.1,3.4,1.1,4.4,4.5,4.5c5.7,0.1,11.4,0.1,17,0
	c3.4-0.1,4.5-1.2,4.5-4.5c0.1-3.9,0.1-7.8,0-11.8c-0.1-3.3-1.2-4.4-4.6-4.5C454.1,153.1,451.2,153.1,448.3,153.1z M247,166.2
	c1.8-0.2,3.1-0.1,4.1-0.3c2.2-0.4,3-1.4,3.1-3.6c0.1-1.7,0.1-3.4,0-5c-0.1-2.1-1-3.1-3-3.5c-0.6-0.1-1.3-0.1-1.9-0.1
	c-5.4,0-10.7,0-16.1,0c-0.5,0-1.9,0-1.9,0c0.1,6.8-0.1,13.6,0.1,20.2c1.7,0,3.1,0,4.9,0c0-2.7,0-5.2,0-7.7c0.9,0,4.8,0,4.8,0
	l8.3,7.8h7.1C253.6,171.6,250.2,168.8,247,166.2z M470.3,153.1l0.3,20.9c1.6,0,3.1,0,4.9,0c0.2-4.7,0-9.4,0.1-14.3
	c5.3,4.4,10.2,8.6,15,12.8c0.2,0.2,1.6,1.4,1.6,1.4h4c0-6.9,0-13.9,0-20.7c-1.8,0-3.3,0-5,0c0,4.6,0,9,0,13.9
	c-0.9-0.7-1.6-1.2-2.2-1.7c-4-3.4-8.1-6.7-12-10.3c-0.5-0.5-2.4-2.1-2.4-2.1h-4.3V153.1z M366.6,169.8c0-4.2,0-8.1,0-12.2
	c4.3,0,8.5,0,12.8,0v3.6c1.7,0,3.2,0,5,0c0,0,0.1-3.2-0.1-4.7s-1.2-2.4-2.7-2.7c-0.8-0.1-1.6-0.2-2.4-0.2c-4.2,0-8.5,0-12.7,0
	c-0.5,0-1,0-1.4,0.1c-2.5,0.3-3.5,1.2-3.6,3.6c-0.2,4.3-0.2,8.6,0,12.9c0.1,2.6,1.1,3.4,3.8,3.7c0.8,0.1,1.6,0.1,2.4,0.1
	c3.5,0,7,0,10.5,0c3.6,0,5.3-0.5,5.9-2.4c0.4-1,0.2-4.5,0.2-4.5v-0.4h-5v3.1C375.2,169.8,371,169.8,366.6,169.8z M329.7,153.1
	c0,5.4-0.1,11.4,0,16.7c0.1,3,1.2,3.9,4.2,4.1c0.4,0,0.8,0.1,1.2,0.1c4.3,0,8.6,0,12.9,0c0.8,0,1.6,0,2.4-0.2c1.8-0.3,2.7-1.1,3-2.9
	c0.1-0.6,0.1-1.3,0.1-1.9c0-4.7,0-11.2,0-15.9h-0.2c-1.6,0-3.1,0-4.8,0c0,5.6,0,11.3,0,16.7c-4.7,0-9.2,0-13.9,0
	c0-5.6,0-11.1,0-16.7c-1.3,0-3.4,0-3.4,0C331.3,153.1,329.7,153.1,329.7,153.1z M412.4,153.3c-8.2,0-16.2,0-24.2,0
	c0,1.5,0,2.8,0,4.2c3.2,0.2,6.3-0.1,9.6,0.2c0,5.6,0,10.8,0,16.2c1.7,0,3.1,0,4.8,0c0.1-5.5,0-10.8,0.1-16.5c3.4,0,6.5,0,9.7,0
	C412.4,155.9,412.4,154.7,412.4,153.3z M146,173.9l-0.2-24.8c-1.7,0-3.4,0-5.3,0c0,8.3,0,16.5,0,24.8
	C142.5,173.9,144.3,173.9,146,173.9z M427.4,173.9c0-6.9,0-13.8,0-20.6c-1.7,0-3.1,0-4.7,0c0,6.9,0,13.7,0,20.6
	C424.4,173.9,425.9,173.9,427.4,173.9z"/>
<path d="M0,680.2c3.7-0.6,7.2-1.3,10.8-1.9c14.6-2.5,29.1-5,43.7-7.5s29.1-5,43.7-7.5c14.4-2.5,28.8-4.9,43.2-7.4
	c14.5-2.5,29-5,43.5-7.5c15.6-2.7,31.2-5.3,46.8-8c3.9-0.7,7.9-1.3,11.8-2.1c1.5-0.3,2.8,0.1,4.1,0.8
	c35.1,19.5,70.2,38.9,105.3,58.4c6.6,3.6,13.2,7.3,19.7,10.9c1.3,0.7,2.4,0.9,3.8,0.6c32.9-7.8,65.8-15.6,98.6-23.4
	c1.5-0.4,2.7-0.2,4.1,0.4c42,18.8,84,37.6,126,56.4c0.7,0.3,1.4,0.7,2.1,1c0,27,0,54.5,0,81.2c-0.1,0-607.2,0-607.2,0
	C0,776.9,0,728.5,0,680.2z"/>
<path d="M229.4,440.7C152.9,466.1,76.5,491.6,0,517.1c0-27.1,0-53.9,0-81c78.6-39.9,157.3-79.9,236.3-120
	c41.4,91.3,82.6,182.4,124,273.7c1-0.3,1.8-0.5,2.7-0.7c36.6-11.1,73.2-22.2,109.8-33.4c1.9-0.6,3.3-0.5,5.1,0.7
	c42.3,28.2,84.6,56.4,127,84.6c0.4,0.3,2.4,2.1,2.4,2.1s0,0,0,1.2c0,8.2,0.2,16.5,0.2,24.7c0,0.3-0.1,0.6-0.1,1.2
	c-0.9-0.5-1.7-0.8-2.4-1.3c-31.8-18.5-63.5-37-95.3-55.6c-7.9-4.6-15.8-9.1-23.6-13.8c-1.5-0.9-2.9-1.2-4.7-0.8
	c-16.1,3.3-32.3,6.5-48.4,9.8c-19.3,3.9-38.5,7.7-57.8,11.7c-1.6,0.3-2.3-0.4-3.2-1.4c-11.2-14.1-22.5-28.1-33.7-42.2
	c-35.8-44.7-71.5-89.4-107.3-134.1C230.4,441.8,229.9,441.3,229.4,440.7z"/>
<path d="M370.1,628.9c6.9-1.4,13.6-2.7,20.4-4.1c22-4.4,44-8.8,66-13.2c7.7-1.5,15.4-3.1,23-4.7c1.9-0.4,3.4-0.2,5.2,0.8
	c31.1,18.2,62.3,36.4,93.4,54.5c9,5.2,18,10.5,26.9,15.7c0.8,0.4,1.5,0.9,2.3,1.4c0,9.9,0,19.7,0,29.9c-1-0.5-1.9-0.8-2.7-1.2
	c-37.3-18.8-74.7-37.6-112-56.4c-2-1-3.9-2.5-6-2.8s-4.4,0.4-6.6,0.8c-23.2,3.5-46.5,7-69.7,10.6c-14.2,2.2-28.4,4.3-42.7,6.5
	c-1.8,0.3-3.2-0.2-4.6-1.3c-42-31.5-84.1-63-126.2-94.5c-1.4-1-2.7-1.4-4.4-1.2c-12,1.3-24,2.5-36,3.7c-11.7,1.2-23.4,2.4-35.1,3.6
	c-9.9,1-19.7,2.1-29.6,3.1c-11.8,1.2-23.5,2.4-35.3,3.6c-9.9,1-19.7,2.1-29.6,3.1c-10.3,1.1-20.5,2.1-30.8,3.1
	c-8.3,0.9-16.5,1.7-24.8,2.6c-3.7,0.4-7.5,0.8-11.3,1.1c0-22.8,0-45.5,0-68.5c75.5-25,151.1-50.1,226.9-75.4
	C274.5,509.4,322.2,569.1,370.1,628.9z"/>
<path d="M0,672.1c0-23.6,0-46.9,0-70.5c3.2-0.3,6.3-0.7,9.5-1c8.7-0.9,17.3-1.8,26-2.7c8.6-0.9,17.2-1.8,25.8-2.6
	c8.4-0.9,16.9-1.8,25.3-2.6c10.2-1.1,20.4-2.1,30.5-3.1c8.6-0.9,17.2-1.8,25.8-2.7c9.9-1,19.9-2,29.8-3c8.5-0.9,17-1.8,25.5-2.6
	c8.5-0.9,17-1.7,25.5-2.6c2.3-0.2,4.6-0.4,6.9-0.8c1.4-0.2,2.4,0.1,3.5,0.9c14.3,10.7,28.5,21.4,42.8,32.1
	c28.1,21,56.2,42.1,84.3,63.1c1.3,1,2.6,1.3,4.2,1.1c21.6-3.3,43.3-6.6,64.9-9.9c17.8-2.7,35.6-5.4,53.3-8.1
	c1.4-0.2,2.5,0.2,3.6,0.8c22.7,11.4,45.4,22.9,68.1,34.3c16.5,8.3,33,16.6,49.5,24.9c0.8,0.4,1.7,0.9,2.4,1.3c0,5.6,0,11.1,0,16.8
	c-0.9-0.4-1.6-0.6-2.4-0.9c-41.3-18.5-82.7-37-124-55.6c-2.1-0.9-4-1.1-6.2-0.6c-32.3,7.7-64.7,15.4-97,23.1
	c-1.7,0.4-2.9,0.1-4.3-0.7c-39.6-22-79.2-44-118.9-66c-2-1.1-4.1-2.2-6.1-3.4c-1-0.6-2-0.8-3.2-0.6c-14.3,2.5-28.5,4.9-42.8,7.3
	c-15.4,2.6-30.9,5.3-46.3,7.9c-15.4,2.6-30.9,5.3-46.3,7.9c-15.5,2.6-31,5.3-46.5,8c-15.4,2.6-30.9,5.3-46.3,7.9
	c-5,0.8-9.9,1.7-14.9,2.6C1.6,672,0.9,672.1,0,672.1z"/>
<g>
	<path class="st0" d="M604.5,631.3c-41.7-27.8-83.5-55.6-125.2-83.4c-0.3-0.2-0.7-0.4-1-0.7c-1-0.9-2-0.9-3.3-0.5
		c-8,2.5-16,4.9-24.1,7.3c-28,8.5-56.1,17-84.1,25.6c-0.7,0.2-1.4,0.4-2.3,0.6c-41.5-91.6-82.9-183-124.5-274.9
		c-40.1,20.3-80,40.6-120,60.9s-79.9,40.6-120.1,61l0,0l0,0v8.8c78.6-39.9,157.3-79.9,236.3-120c41.4,91.3,82.6,182.4,124,273.7
		c1-0.3,1.8-0.5,2.7-0.7c36.6-11.1,73.2-22.2,109.8-33.4c1.9-0.6,3.3-0.5,5.1,0.7c42.3,28.2,84.6,56.4,127,84.6l1.1,0.9l1.3,1.2
		v-9.9C606.1,632.4,605.3,631.9,604.5,631.3z"/>
	<path class="st0" d="M604.9,734.1c-41.3-18.5-82.7-37-124-55.6c-2.1-0.9-4-1.1-6.2-0.6c-32.3,7.7-64.7,15.4-97,23.1
		c-1.7,0.4-2.9,0.1-4.3-0.7c-39.6-22-79.2-44-118.9-66c-2-1.1-4.1-2.2-6.1-3.4c-1-0.6-2-0.8-3.2-0.6c-14.3,2.5-28.5,4.9-42.8,7.3
		c-15.4,2.6-30.9,5.3-46.3,7.9c-15.4,2.6-30.9,5.3-46.3,7.9c-15.5,2.6-31,5.3-46.5,8c-15.4,2.6-30.9,5.3-46.3,7.9
		c-5,0.8-9.9,1.7-14.9,2.6c-0.6,0.1-2.2,0.2-2.2,0.2v8.1c0,0,7.2-1.3,10.8-1.9c14.6-2.5,29.1-5,43.7-7.5s29.1-5,43.7-7.5
		c14.4-2.5,28.8-4.9,43.2-7.4c14.5-2.5,29-5,43.5-7.5c15.6-2.7,31.2-5.3,46.8-8c3.9-0.7,7.9-1.3,11.8-2.1c1.5-0.3,2.8,0.1,4.1,0.8
		c35.1,19.5,70.2,38.9,105.3,58.4c6.6,3.6,13.2,7.3,19.7,10.9c1.3,0.7,2.4,0.9,3.8,0.6c32.9-7.8,65.8-15.6,98.6-23.4
		c1.5-0.4,2.7-0.2,4.1,0.4c42,18.8,84,37.6,126,56.4c0.7,0.3,1.4,0.7,2.1,1v-8.8C606.3,734.6,605.6,734.4,604.9,734.1z"/>
	<path class="st0" d="M604.6,708c-37.3-18.8-74.7-37.6-112-56.4c-2-1-3.9-2.5-6-2.8s-4.4,0.4-6.6,0.8c-23.2,3.5-46.5,7-69.7,10.6
		c-14.2,2.2-28.4,4.3-42.7,6.5c-1.8,0.3-3.2-0.2-4.6-1.3c-42-31.5-84.1-63-126.2-94.5c-1.4-1-2.7-1.4-4.4-1.2c-12,1.3-24,2.5-36,3.7
		c-11.7,1.2-23.4,2.4-35.1,3.6c-9.9,1-19.7,2.1-29.6,3.1c-11.8,1.2-23.5,2.4-35.3,3.6c-9.9,1-19.7,2.1-29.6,3.1
		c-10.3,1.1-20.5,2.1-30.8,3.1c-8.3,0.9-16.5,1.7-24.8,2.6C7.6,593,0.1,593.7,0,593.7v7.9c0,0,6.3-0.7,9.5-1
		c8.7-0.9,17.3-1.8,26-2.7c8.6-0.9,17.2-1.8,25.8-2.6c8.4-0.9,16.9-1.8,25.3-2.6c10.2-1.1,20.4-2.1,30.5-3.1
		c8.6-0.9,17.2-1.8,25.8-2.7c9.9-1,19.9-2,29.8-3c8.5-0.9,17-1.8,25.5-2.6c8.5-0.9,17-1.7,25.5-2.6c2.3-0.2,4.6-0.4,6.9-0.8
		c1.4-0.2,2.4,0.1,3.5,0.9c14.3,10.7,28.5,21.4,42.8,32.1c28.1,21,56.2,42.1,84.3,63.1c1.3,1,2.6,1.3,4.2,1.1
		c21.6-3.3,43.3-6.6,64.9-9.9c17.8-2.7,35.6-5.4,53.3-8.1c1.4-0.2,2.5,0.2,3.6,0.8c22.7,11.4,45.4,22.9,68.1,34.3
		c16.5,8.3,33,16.6,49.5,24.9c0.8,0.4,1.7,0.9,2.4,1.3l0.1-8.9C606.3,708.8,605.4,708.4,604.6,708z"/>
	<path class="st0" d="M604.8,668.8c-31.8-18.5-63.5-37-95.3-55.6c-7.9-4.6-15.8-9.1-23.6-13.8c-1.5-0.9-2.9-1.2-4.7-0.8
		c-16.1,3.3-32.3,6.5-48.4,9.8c-19.3,3.9-38.5,7.7-57.8,11.7c-1.6,0.3-2.3-0.4-3.2-1.4c-11.2-14.1-22.5-28.1-33.7-42.2
		c-35.8-44.7-71.5-89.4-107.3-134.1c-0.4-0.6-0.9-1.1-1.5-1.7C152.9,466.1,76.5,491.6,0,517.1l0.1,8.2c0,0,150.9-50.3,226.7-75.5
		c47.7,59.6,95.4,119.3,143.3,179.2c6.9-1.4,13.6-2.7,20.4-4.1c22-4.4,44-8.8,66-13.2c7.7-1.5,15.4-3.1,23-4.7
		c1.9-0.4,3.4-0.2,5.2,0.8c31.1,18.2,62.3,36.4,93.4,54.5c9,5.2,18,10.5,26.9,15.7c0.7,0.4,1.5,0.9,2.3,1.4l0.1-9.3
		C606.5,669.7,605.6,669.3,604.8,668.8z"/>
</g>
<path d="M106.3,153.7c4.3,0,8.3-0.2,12.4,0.1c3.1,0.2,5.1,2.7,5.4,5.8c0.1,0.6,0.1,1.3,0.1,1.9c-0.1,4.2-1.8,6.4-5.9,7.2
	c-3.9,0.8-7.9,0.6-12,0.4C106.3,164,106.3,159,106.3,153.7z"/>
<polygon points="266.8,169.8 266.8,157.2 282.7,157.2 282.7,169.8 "/>
<path d="M440.6,157.1c5.4,0,10.5,0,15.9,0c0,4.2,0,8.4,0,12.5l-15.9,0.2C440.6,165.6,440.6,161.5,440.6,157.1z"/>
<path d="M310.4,170.2h-8.9V157H312c3.2,0,5.8,2.6,5.8,5.8l0,0C317.7,166.9,314.4,170.2,310.4,170.2z"/>
<path d="M219.3,159.9h-13.9v-6.6h13.9c0.8,0,1.5,0.7,1.5,1.5v3.7C220.8,159.2,220.1,159.9,219.3,159.9z"/>
<path d="M248.2,162.3h-11.7v-4.9h11.7c0.6,0,1.2,0.5,1.2,1.2v2.6C249.4,161.8,248.9,162.3,248.2,162.3z"/>
<g>
	<path class="st0" d="M379.4,157.7v3.6c1.7,0,3.2,0,5,0c0,0,0.1-3.2-0.1-4.7s-1.2-2.4-2.7-2.7c-0.8-0.1-1.6-0.2-2.4-0.2
		c-4.2,0-8.5,0-12.7,0c-0.5,0-1,0-1.4,0.1c-2.5,0.3-3.5,1.2-3.6,3.6c-0.2,4.3-0.2,8.6,0,12.9c0.1,2.6,1.1,3.4,3.8,3.7
		c0.8,0.1,1.6,0.1,2.4,0.1c3.5,0,7,0,10.5,0c3.6,0,5.3-0.5,5.9-2.4c0.4-1,0.2-4.5,0.2-4.5v-0.4h-5v3.1c-4.3,0-8.5,0-12.8,0
		c0-4.2,0-8.1,0-12.2C371,157.7,375.1,157.7,379.4,157.7z"/>
	<path class="st0" d="M412.4,157.4c0-1.5,0-2.7,0-4.1c-8.2,0-16.2,0-24.2,0c0,1.5,0,2.8,0,4.2c3.2,0.2,6.3-0.1,9.6,0.2
		c0,5.6,0,10.8,0,16.2c1.7,0,3.1,0,4.8,0c0.1-5.5,0-10.8,0.1-16.5C406.1,157.4,409.2,157.4,412.4,157.4z"/>
	<path class="st0" d="M331.3,153.1h-1.6c0,5.4-0.1,11.4,0,16.7c0.1,3,1.2,3.9,4.2,4.1c0.4,0,0.8,0.1,1.2,0.1c4.3,0,8.6,0,12.9,0
		c0.8,0,1.6,0,2.4-0.2c1.8-0.3,2.7-1.1,3-2.9c0.1-0.6,0.1-1.3,0.1-1.9c0-4.7,0-11.2,0-15.9h-0.2c-1.6,0-3.1,0-4.8,0
		c0,5.6,0,11.3,0,16.7c-4.7,0-9.2,0-13.9,0c0-5.6,0-11.1,0-16.7C333.4,153.1,331.3,153.1,331.3,153.1z"/>
	<path class="st0" d="M427.4,173.9c0-6.9,0-13.8,0-20.6c-1.7,0-3.1,0-4.7,0c0,6.9,0,13.7,0,20.6
		C424.4,173.9,425.9,173.9,427.4,173.9z"/>
	<path class="st0" d="M315.4,153.7c-1.4-0.4-3-0.5-4.5-0.6c-4.3-0.1-8.6,0-12.9,0c-0.6,0-1.9,0-1.9,0c0,7,0,14.1,0,21.1
		c5.7,0,11.1,0,16.5,0c0.9,0,1.7-0.2,2.6-0.4c3.1-0.8,5.3-2.6,6.5-5.5c0.9-2.2,1.2-4.4,0.8-6.8C321.9,157.3,319.4,154.8,315.4,153.7
		z M317.7,162.8c0,4.1-3.3,7.4-7.4,7.4h-8.9V157H312C315.1,157,317.7,159.6,317.7,162.8L317.7,162.8z"/>
	<path class="st0" d="M440.2,153.1c-3.5,0.1-4.6,1.1-4.7,4.6c-0.1,3.9-0.1,7.8,0,11.8c0.1,3.4,1.1,4.4,4.5,4.5
		c5.7,0.1,11.4,0.1,17,0c3.4-0.1,4.5-1.2,4.5-4.5c0.1-3.9,0.1-7.8,0-11.8c-0.1-3.3-1.2-4.4-4.6-4.5c-2.9-0.1-5.8,0-8.6,0l0,0
		C445.6,153.1,442.9,153.1,440.2,153.1z M456.5,157.1c0,4.2,0,8.4,0,12.5l-15.9,0.2c0-4.2,0-8.3,0-12.7
		C446,157.1,451.2,157.1,456.5,157.1z"/>
	<path class="st0" d="M222.7,149.1c-0.6-0.1-1.3-0.2-1.9-0.2c-6.6,0-13.1,0-19.7,0c-0.5,0-1.6,0-1.6,0c0,8.3,0,16.7,0,25
		c1.9,0,3.7,0,5.7,0c0-3.2,0-6.2,0-9.6c3.5,0,6.7,0,9.9,0c2.3,0,4.6,0.1,7-0.1c2.9-0.2,4.3-1.5,4.5-4.3c0.1-2.2,0.1-4.5,0-6.7
		C226.4,150.6,225.3,149.6,222.7,149.1z M220.8,158.4c0,0.8-0.7,1.5-1.5,1.5h-13.9v-6.6h13.9c0.8,0,1.5,0.7,1.5,1.5V158.4z"/>
	<path class="st0" d="M231.6,173.9c1.7,0,3.1,0,4.9,0c0-2.7,0-5.2,0-7.7c0.9,0,4.8,0,4.8,0l8.3,7.8h7.1c-3-2.4-6.4-5.2-9.6-7.8
		c1.8-0.2,3.1-0.1,4.1-0.3c2.2-0.4,3-1.4,3.1-3.6c0.1-1.7,0.1-3.4,0-5c-0.1-2.1-1-3.1-3-3.5c-0.6-0.1-1.3-0.1-1.9-0.1
		c-5.4,0-10.7,0-16.1,0c-0.5,0-1.9,0-1.9,0C231.5,160.4,231.3,167.2,231.6,173.9z M236.5,157.4h11.7c0.6,0,1.2,0.5,1.2,1.2v2.6
		c0,0.6-0.5,1.2-1.2,1.2h-11.7V157.4z"/>
	<path class="st0" d="M140.6,173.9c1.9,0,3.7,0,5.5,0l-0.2-24.8c-1.7,0-3.4,0-5.3,0C140.6,157.4,140.6,165.5,140.6,173.9z"/>
	<path class="st0" d="M116.2,148.9c-4.6-0.1-9.3,0-13.9,0c-0.6,0-1.9,0-1.9,0c0,8.3,0,16.9,0,25.1c0,0,0.5,0,0.7,0
		c6.2,0,12.3,0.1,18.4-0.3c5.9-0.3,9.7-4.1,10.7-9.9c1.3-7.2-2.4-13-9.2-14.4C119.4,149.1,117.8,148.9,116.2,148.9z M124.1,159.6
		c0.1,0.6,0.1,1.3,0.1,1.9c-0.1,4.2-1.8,6.4-5.9,7.2c-3.9,0.8-7.9,0.6-12,0.4c0-5.2,0-10.2,0-15.4c4.3,0,8.3-0.2,12.4,0.1
		C121.8,154,123.8,156.5,124.1,159.6z"/>
	<path class="st0" d="M496.2,153.3c-1.8,0-3.3,0-5,0c0,4.6,0,9,0,13.9c-0.9-0.7-1.6-1.2-2.2-1.7c-4-3.4-8.1-6.7-12-10.3
		c-0.5-0.5-2.4-2.1-2.4-2.1h-4.4l0.3,20.9c1.6,0,3.1,0,4.9,0c0.2-4.7,0-9.4,0.1-14.3c5.3,4.4,10.2,8.6,15,12.8
		c0.2,0.2,1.6,1.4,1.6,1.4h4C496.2,167.2,496.3,160.1,496.2,153.3z"/>
	<path class="st0" d="M283.1,153.1c-2.8-0.1-5.6,0-8.4,0l0,0c-3,0-5.9-0.1-8.9,0s-4.1,1.1-4.2,4c-0.2,4.2-0.2,8.5,0,12.7
		c0.1,3,1.1,4,4.2,4.1c5.8,0.1,11.6,0.1,17.5,0c3.3-0.1,4.4-1.2,4.4-4.6c0.1-3.8,0.1-7.7,0-11.5
		C287.7,154.4,286.6,153.2,283.1,153.1z M282.7,169.8h-15.9v-12.6h16L282.7,169.8z"/>
</g>
<g>
	<path d="M904.7,248.3h79.2c17.9,0,31.5,1.4,40.9,4.1c12.6,3.7,23.4,10.3,32.4,19.8s15.8,21.1,20.5,34.8c4.7,13.7,7,30.6,7,50.8
		c0,17.7-2.2,32.9-6.6,45.7c-5.4,15.6-13,28.3-23,37.9c-7.5,7.3-17.7,13-30.5,17.1c-9.6,3-22.4,4.5-38.4,4.5h-81.6L904.7,248.3
		L904.7,248.3z M948,284.6v142.2h32.4c12.1,0,20.8-0.7,26.2-2.1c7-1.8,12.9-4.7,17.5-8.9c4.6-4.2,8.4-11.1,11.4-20.7
		c2.9-9.6,4.4-22.7,4.4-39.3c0-16.6-1.5-29.3-4.4-38.2c-2.9-8.9-7-15.8-12.3-20.8s-12-8.3-20.1-10.1c-6.1-1.4-17.9-2.1-35.6-2.1
		L948,284.6L948,284.6z"/>
	<path d="M1121.2,286.4v-38.1h41.2v38.1H1121.2z M1121.2,463.1V307.5h41.2v155.6H1121.2z"/>
	<path d="M1288.2,463.1V248.3h69.6c26.4,0,43.6,1.1,51.6,3.2c12.3,3.2,22.6,10.2,30.9,21s12.5,24.7,12.5,41.8
		c0,13.2-2.4,24.3-7.2,33.3c-4.8,9-10.9,16-18.2,21.2c-7.4,5.1-14.9,8.5-22.5,10.2c-10.4,2.1-25.3,3.1-45,3.1h-28.3v81H1288.2z
		 M1331.5,284.6v60.9h23.7c17.1,0,28.5-1.1,34.3-3.4c5.8-2.2,10.3-5.8,13.5-10.5c3.3-4.8,4.9-10.3,4.9-16.7c0-7.8-2.3-14.3-6.9-19.3
		c-4.6-5.1-10.4-8.3-17.4-9.5c-5.2-1-15.6-1.5-31.2-1.5H1331.5z"/>
	<path d="M1527.4,463.1h-41.2V307.5h38.2v22.1c6.5-10.4,12.4-17.3,17.7-20.7c5.2-3.3,11.2-5,17.8-5c9.4,0,18.4,2.6,27.1,7.8
		l-12.7,35.9c-6.9-4.5-13.4-6.7-19.3-6.7c-5.8,0-10.6,1.6-14.6,4.8c-4,3.2-7.2,8.9-9.4,17.2c-2.3,8.3-3.4,25.7-3.4,52.1v48.1H1527.4
		z"/>
	<path d="M1595.2,383.1c0-13.7,3.4-26.9,10.1-39.7c6.7-12.8,16.3-22.6,28.6-29.3c12.4-6.7,26.1-10.1,41.4-10.1
		c23.5,0,42.8,7.6,57.9,22.9c15,15.3,22.6,34.6,22.6,57.9c0,23.5-7.6,43-22.8,58.5c-15.2,15.5-34.3,23.2-57.3,23.2
		c-14.3,0-27.9-3.2-40.8-9.7c-12.9-6.4-22.8-15.9-29.5-28.3S1595.2,401,1595.2,383.1z M1637.4,385.3c0,15.4,3.7,27.2,11,35.4
		s16.4,12.3,27.1,12.3s19.8-4.1,27-12.3c7.3-8.2,10.9-20.1,10.9-35.7c0-15.2-3.6-27-10.9-35.2s-16.3-12.3-27-12.3
		s-19.8,4.1-27.1,12.3S1637.4,369.8,1637.4,385.3z"/>
	<path d="M1930.7,463.1h-38.2v-22.9c-6.3,8.9-13.8,15.5-22.5,19.8c-8.6,4.3-17.4,6.5-26.1,6.5c-17.9,0-33.2-7.2-45.9-21.6
		c-12.7-14.4-19.1-34.5-19.1-60.3c0-26.4,6.2-46.4,18.6-60.1s28.1-20.6,47-20.6c17.4,0,32.4,7.2,45.1,21.7v-77.3h41.2L1930.7,463.1
		L1930.7,463.1z M1820.8,381.9c0,16.6,2.3,28.6,6.9,36c6.6,10.7,15.9,16.1,27.8,16.1c9.5,0,17.5-4,24.2-12.1
		c6.6-8.1,10-20.1,10-36.1c0-17.9-3.2-30.7-9.7-38.6c-6.4-7.9-14.7-11.8-24.8-11.8c-9.8,0-17.9,3.9-24.5,11.6
		S1820.8,366.5,1820.8,381.9z"/>
	<path d="M2073.6,463.1v-23.3c-5.7,8.3-13.1,14.8-22.3,19.6c-9.2,4.8-19,7.2-29.2,7.2c-10.5,0-19.8-2.3-28.1-6.9
		c-8.3-4.6-14.3-11-18-19.3s-5.6-19.8-5.6-34.4v-98.4h41.2V379c0,21.9,0.8,35.3,2.3,40.2c1.5,4.9,4.3,8.8,8.3,11.7
		c4,2.9,9.1,4.3,15.2,4.3c7,0,13.3-1.9,18.9-5.8c5.6-3.9,9.4-8.6,11.4-14.4s3.1-19.7,3.1-42v-65.6h41.2V463L2073.6,463.1
		L2073.6,463.1z"/>
	<path d="M2290.1,353.5l-40.6,7.3c-1.4-8.1-4.5-14.2-9.3-18.3s-11.1-6.2-18.8-6.2c-10.3,0-18.4,3.5-24.5,10.6s-9.2,18.9-9.2,35.5
		c0,18.5,3.1,31.5,9.3,39.1s14.5,11.4,25,11.4c7.8,0,14.2-2.2,19.2-6.7c5-4.4,8.5-12.1,10.5-22.9l40.4,6.9
		c-4.2,18.6-12.3,32.6-24.2,42c-11.9,9.5-27.9,14.2-47.9,14.2c-22.8,0-40.9-7.2-54.4-21.5c-13.5-14.4-20.3-34.2-20.3-59.6
		c0-25.7,6.8-45.7,20.4-60c13.6-14.3,31.9-21.5,55.1-21.5c18.9,0,34,4.1,45.2,12.2C2277.2,324.4,2285.2,336.8,2290.1,353.5z"/>
	<path d="M2392.7,307.5v32.8h-28.1V403c0,12.7,0.3,20.1,0.8,22.2s1.8,3.8,3.7,5.2c1.9,1.4,4.2,2.1,7,2.1c3.8,0,9.3-1.3,16.6-4
		l3.5,31.9c-9.6,4.1-20.4,6.2-32.5,6.2c-7.4,0-14.1-1.2-20.1-3.7s-10.3-5.7-13.1-9.7s-4.7-9.3-5.8-16c-0.9-4.8-1.3-14.5-1.3-29
		v-67.8h-18.9v-32.8h18.9v-30.9l41.3-24v54.9h28V307.5z"/>
	<path d="M2421.2,286.4v-38.1h41.2v38.1H2421.2z M2421.2,463.1V307.5h41.2v155.6H2421.2z"/>
	<path d="M2495.1,383.1c0-13.7,3.4-26.9,10.1-39.7c6.7-12.8,16.3-22.6,28.6-29.3c12.4-6.7,26.1-10.1,41.4-10.1
		c23.5,0,42.8,7.6,57.9,22.9c15,15.3,22.6,34.6,22.6,57.9c0,23.5-7.6,43-22.8,58.5s-34.3,23.2-57.3,23.2c-14.3,0-27.9-3.2-40.8-9.7
		c-12.9-6.4-22.8-15.9-29.5-28.3S2495.1,401,2495.1,383.1z M2537.2,385.3c0,15.4,3.7,27.2,11,35.4s16.4,12.3,27.1,12.3
		c10.7,0,19.8-4.1,27-12.3c7.3-8.2,10.9-20.1,10.9-35.7c0-15.2-3.6-27-10.9-35.2c-7.3-8.2-16.3-12.3-27-12.3s-19.8,4.1-27.1,12.3
		S2537.2,369.8,2537.2,385.3z"/>
	<path d="M2829.3,463.1h-41.2v-79.4c0-16.8-0.9-27.7-2.6-32.6c-1.8-4.9-4.6-8.8-8.6-11.5s-8.7-4.1-14.3-4.1c-7.1,0-13.5,2-19.2,5.9
		s-9.5,9.1-11.6,15.5s-3.1,18.4-3.1,35.7v70.5h-41.2V307.5h38.2v22.9c13.6-17.6,30.7-26.4,51.3-26.4c9.1,0,17.4,1.6,24.9,4.9
		s13.2,7.4,17.1,12.5c3.9,5.1,6.5,10.8,8.1,17.3c1.5,6.4,2.3,15.7,2.3,27.7L2829.3,463.1L2829.3,463.1z"/>
	<path d="M894.7,535.7h84.4v107.4h-14.3v-94.7h-56v94.7h-14.2L894.7,535.7L894.7,535.7z"/>
	<path d="M1000.7,672.9V565.3h12v10.1c2.8-4,6-6.9,9.6-8.9c3.6-2,7.9-3,13-3c6.6,0,12.5,1.7,17.6,5.1c5.1,3.4,8.9,8.2,11.5,14.5
		c2.6,6.2,3.9,13,3.9,20.5c0,8-1.4,15.1-4.3,21.5s-7,11.3-12.5,14.6c-5.4,3.4-11.2,5.1-17.2,5.1c-4.4,0-8.3-0.9-11.8-2.8
		c-3.5-1.9-6.4-4.2-8.6-7v37.9L1000.7,672.9L1000.7,672.9z M1012.6,604.6c0,10,2,17.4,6.1,22.2s9,7.2,14.7,7.2
		c5.9,0,10.9-2.5,15.1-7.4c4.2-5,6.3-12.6,6.3-23c0-9.9-2-17.3-6.1-22.3c-4.1-4.9-8.9-7.4-14.6-7.4c-5.6,0-10.6,2.6-14.9,7.9
		C1014.8,587,1012.6,594.6,1012.6,604.6z"/>
	<path d="M1079.2,604.2c0-14.4,4-25.1,12-32c6.7-5.8,14.8-8.6,24.5-8.6c10.7,0,19.4,3.5,26.2,10.5c6.8,7,10.2,16.7,10.2,29
		c0,10-1.5,17.9-4.5,23.6c-3,5.7-7.4,10.2-13.1,13.4s-12,4.8-18.8,4.8c-10.9,0-19.7-3.5-26.4-10.5
		C1082.6,627.4,1079.2,617.3,1079.2,604.2z M1092.8,604.2c0,10,2.2,17.4,6.5,22.4s9.8,7.4,16.4,7.4c6.5,0,12-2.5,16.3-7.5
		s6.5-12.6,6.5-22.8c0-9.6-2.2-16.9-6.6-21.9s-9.8-7.4-16.3-7.4c-6.6,0-12.1,2.5-16.4,7.4C1094.9,586.8,1092.8,594.2,1092.8,604.2z"
		/>
	<path d="M1167.5,565.3h13.2v59.3l36.5-59.3h14.2v77.8h-13.2v-59l-36.5,59h-14.2V565.3z"/>
	<path d="M1268.5,607.9v-10.3c5.6,0,9.4-0.3,11.4-0.7s3.9-1.6,5.8-3.5c1.8-2,2.7-4.4,2.7-7.3c0-3.6-1.2-6.4-3.6-8.5
		s-5.4-3.2-9.2-3.2c-7.4,0-12.6,4.4-15.6,13.1l-12.5-2.1c3.9-14.6,13.3-21.9,28.3-21.9c8.3,0,14.8,2.3,19.5,6.8s7.1,10,7.1,16.3
		s-3.1,11.4-9.2,15.2c3.9,2.1,6.8,4.8,8.8,8s2.9,7.1,2.9,11.5c0,7-2.5,12.6-7.6,17c-5.1,4.3-12.2,6.5-21.3,6.5
		c-17.7,0-28-7.9-30.8-23.7l12.4-2.6c1.1,5,3.4,8.8,6.8,11.6c3.4,2.7,7.4,4.1,11.8,4.1s8.1-1.3,11.1-3.8s4.4-5.7,4.4-9.6
		c0-3-0.9-5.7-2.8-7.9s-3.8-3.6-5.9-4.2c-2.1-0.6-5.9-0.8-11.4-0.8C1271.1,607.8,1270.1,607.9,1268.5,607.9z"/>
	<path d="M1320.2,565.3h30.4c7.5,0,13,0.6,16.7,1.9c3.6,1.2,6.8,3.5,9.4,6.8s3.9,7.3,3.9,11.9c0,3.7-0.8,6.9-2.3,9.7
		s-3.8,5.1-6.9,6.9c3.7,1.2,6.7,3.5,9.1,6.8s3.6,7.3,3.6,11.9c-0.5,7.4-3.1,12.8-7.9,16.4c-4.8,3.6-11.7,5.3-20.9,5.3h-35.1
		L1320.2,565.3L1320.2,565.3z M1333.4,598h14.1c5.6,0,9.5-0.3,11.6-0.9c2.1-0.6,4-1.8,5.6-3.6c1.7-1.8,2.5-3.9,2.5-6.4
		c0-4.1-1.5-7-4.4-8.6s-7.9-2.4-14.9-2.4h-14.5L1333.4,598L1333.4,598z M1333.4,632.2h17.4c7.5,0,12.6-0.9,15.4-2.6
		c2.8-1.7,4.2-4.7,4.4-9c0-2.5-0.8-4.8-2.4-6.9s-3.7-3.5-6.3-4c-2.6-0.6-6.7-0.8-12.5-0.8h-16V632.2z"/>
	<path d="M1393.2,604.2c0-14.4,4-25.1,12-32c6.7-5.8,14.8-8.6,24.5-8.6c10.7,0,19.4,3.5,26.2,10.5c6.8,7,10.2,16.7,10.2,29
		c0,10-1.5,17.9-4.5,23.6c-3,5.7-7.4,10.2-13.1,13.4s-12,4.8-18.8,4.8c-10.9,0-19.7-3.5-26.4-10.5
		C1396.6,627.4,1393.2,617.3,1393.2,604.2z M1406.8,604.2c0,10,2.2,17.4,6.5,22.4s9.8,7.4,16.4,7.4c6.5,0,12-2.5,16.3-7.5
		s6.5-12.6,6.5-22.8c0-9.6-2.2-16.9-6.6-21.9s-9.8-7.4-16.3-7.4c-6.6,0-12.1,2.5-16.4,7.4C1408.9,586.8,1406.8,594.2,1406.8,604.2z"
		/>
	<path d="M1488.6,565.3h54.2v66.9h8.4v32.9h-10.8v-22h-61.2v22h-10.8v-32.9h7C1484.6,619.6,1489,597.3,1488.6,565.3z M1499.6,576.2
		c-1,25.2-4.9,43.9-11.7,56h41.8v-56H1499.6z"/>
	<path d="M1616.5,614.6l13,1.7c-1.4,8.9-5,15.9-10.9,21c-5.8,5.1-13,7.6-21.5,7.6c-10.6,0-19.2-3.5-25.7-10.4
		c-6.5-7-9.7-16.9-9.7-29.9c0-8.4,1.4-15.7,4.2-22s7-11,12.7-14.2c5.7-3.1,11.9-4.7,18.6-4.7c8.4,0,15.4,2.1,20.7,6.4
		c5.4,4.3,8.8,10.3,10.3,18.2l-12.8,2c-1.2-5.2-3.4-9.2-6.5-11.8s-6.8-4-11.2-4c-6.6,0-12,2.4-16.2,7.1c-4.2,4.8-6.2,12.3-6.2,22.6
		c0,10.5,2,18,6,22.8c4,4.7,9.2,7.1,15.7,7.1c5.2,0,9.5-1.6,13-4.8C1613.4,626,1615.6,621.2,1616.5,614.6z"/>
	<path d="M1633.7,565.3h63.2v10.9h-25v66.9h-13.1v-66.9h-25L1633.7,565.3L1633.7,565.3z"/>
	<path d="M1709.5,565.3h30.4c7.5,0,13,0.6,16.7,1.9c3.6,1.2,6.8,3.5,9.4,6.8s3.9,7.3,3.9,11.9c0,3.7-0.8,6.9-2.3,9.7
		s-3.8,5.1-6.9,6.9c3.7,1.2,6.7,3.5,9.1,6.8s3.6,7.3,3.6,11.9c-0.5,7.4-3.1,12.8-7.9,16.4c-4.8,3.6-11.7,5.3-20.9,5.3h-35.1
		L1709.5,565.3L1709.5,565.3z M1722.7,598h14.1c5.6,0,9.5-0.3,11.6-0.9c2.1-0.6,4-1.8,5.6-3.6c1.7-1.8,2.5-3.9,2.5-6.4
		c0-4.1-1.5-7-4.4-8.6s-7.9-2.4-14.9-2.4h-14.5L1722.7,598L1722.7,598z M1722.7,632.2h17.4c7.5,0,12.6-0.9,15.4-2.6
		c2.8-1.7,4.2-4.7,4.4-9c0-2.5-0.8-4.8-2.4-6.9s-3.7-3.5-6.3-4c-2.6-0.6-6.7-0.8-12.5-0.8h-16V632.2z"/>
	<path d="M1782.6,604.2c0-14.4,4-25.1,12-32c6.7-5.8,14.8-8.6,24.5-8.6c10.7,0,19.4,3.5,26.2,10.5c6.8,7,10.2,16.7,10.2,29
		c0,10-1.5,17.9-4.5,23.6c-3,5.7-7.4,10.2-13.1,13.4s-12,4.8-18.8,4.8c-10.9,0-19.7-3.5-26.4-10.5
		C1785.9,627.4,1782.6,617.3,1782.6,604.2z M1796.1,604.2c0,10,2.2,17.4,6.5,22.4s9.8,7.4,16.4,7.4c6.5,0,12-2.5,16.3-7.5
		s6.5-12.6,6.5-22.8c0-9.6-2.2-16.9-6.6-21.9s-9.8-7.4-16.3-7.4c-6.6,0-12.1,2.5-16.4,7.4C1798.3,586.8,1796.1,594.2,1796.1,604.2z"
		/>
	<path d="M1912.6,565.3h30.4c7.5,0,13,0.6,16.7,1.9c3.6,1.2,6.8,3.5,9.4,6.8s3.9,7.3,3.9,11.9c0,3.7-0.8,6.9-2.3,9.7
		s-3.8,5.1-6.9,6.9c3.7,1.2,6.7,3.5,9.1,6.8s3.6,7.3,3.6,11.9c-0.5,7.4-3.1,12.8-7.9,16.4c-4.8,3.6-11.7,5.3-20.9,5.3h-35.1
		L1912.6,565.3L1912.6,565.3z M1925.8,598h14.1c5.6,0,9.5-0.3,11.6-0.9c2.1-0.6,4-1.8,5.6-3.6c1.7-1.8,2.5-3.9,2.5-6.4
		c0-4.1-1.5-7-4.4-8.6s-7.9-2.4-14.9-2.4h-14.5L1925.8,598L1925.8,598z M1925.8,632.2h17.4c7.5,0,12.6-0.9,15.4-2.6
		c2.8-1.7,4.2-4.7,4.4-9c0-2.5-0.8-4.8-2.4-6.9s-3.7-3.5-6.3-4c-2.6-0.6-6.7-0.8-12.5-0.8h-16V632.2z"/>
	<path d="M2041.3,614.6l13,1.7c-1.4,8.9-5,15.9-10.9,21c-5.8,5.1-13,7.6-21.5,7.6c-10.6,0-19.2-3.5-25.7-10.4
		c-6.5-7-9.7-16.9-9.7-29.9c0-8.4,1.4-15.7,4.2-22s7-11,12.7-14.2c5.7-3.1,11.9-4.7,18.6-4.7c8.4,0,15.4,2.1,20.7,6.4
		c5.4,4.3,8.8,10.3,10.3,18.2l-12.8,2c-1.2-5.2-3.4-9.2-6.5-11.8s-6.8-4-11.2-4c-6.6,0-12,2.4-16.2,7.1c-4.2,4.8-6.2,12.3-6.2,22.6
		c0,10.5,2,18,6,22.8c4,4.7,9.2,7.1,15.7,7.1c5.2,0,9.5-1.6,13-4.8C2038.2,626,2040.4,621.2,2041.3,614.6z"/>
	<path d="M2058.5,565.3h63.2v10.9h-25v66.9h-13.1v-66.9h-25L2058.5,565.3L2058.5,565.3z"/>
	<path d="M2134.3,672.9V565.3h12v10.1c2.8-4,6-6.9,9.6-8.9s7.9-3,13-3c6.6,0,12.5,1.7,17.6,5.1c5.1,3.4,8.9,8.2,11.5,14.5
		c2.6,6.2,3.9,13,3.9,20.5c0,8-1.4,15.1-4.3,21.5s-7,11.3-12.5,14.6c-5.4,3.4-11.2,5.1-17.2,5.1c-4.4,0-8.3-0.9-11.8-2.8
		c-3.5-1.9-6.4-4.2-8.6-7v37.9L2134.3,672.9L2134.3,672.9z M2146.2,604.6c0,10,2,17.4,6.1,22.2s9,7.2,14.7,7.2
		c5.9,0,10.9-2.5,15.1-7.4c4.2-5,6.3-12.6,6.3-23c0-9.9-2-17.3-6.1-22.3c-4.1-4.9-8.9-7.4-14.6-7.4c-5.6,0-10.6,2.6-14.9,7.9
		C2148.4,587,2146.2,594.6,2146.2,604.6z"/>
	<path d="M2212.8,604.2c0-14.4,4-25.1,12-32c6.7-5.8,14.8-8.6,24.5-8.6c10.7,0,19.4,3.5,26.2,10.5s10.2,16.7,10.2,29
		c0,10-1.5,17.9-4.5,23.6c-3,5.7-7.4,10.2-13.1,13.4c-5.7,3.2-12,4.8-18.8,4.8c-10.9,0-19.7-3.5-26.4-10.5
		C2216.1,627.4,2212.8,617.3,2212.8,604.2z M2226.3,604.2c0,10,2.2,17.4,6.5,22.4s9.8,7.4,16.4,7.4c6.5,0,12-2.5,16.3-7.5
		s6.5-12.6,6.5-22.8c0-9.6-2.2-16.9-6.6-21.9c-4.4-5-9.8-7.4-16.3-7.4c-6.6,0-12.1,2.5-16.4,7.4
		C2228.5,586.8,2226.3,594.2,2226.3,604.2z"/>
	<path d="M2354.4,618l13.6,1.7c-2.1,8-6.1,14.1-11.9,18.5c-5.8,4.4-13.2,6.6-22.3,6.6c-11.4,0-20.4-3.5-27.1-10.5
		c-6.7-7-10-16.8-10-29.5c0-13.1,3.4-23.2,10.1-30.5c6.7-7.2,15.5-10.8,26.2-10.8c10.4,0,18.9,3.5,25.5,10.6s9.9,17,9.9,29.9
		c0,0.8,0,2-0.1,3.5h-58c0.5,8.5,2.9,15.1,7.3,19.6c4.3,4.5,9.8,6.8,16.3,6.8c4.8,0,9-1.3,12.4-3.8
		C2349.6,627.6,2352.4,623.6,2354.4,618z M2311.1,596.7h43.4c-0.6-6.5-2.2-11.4-5-14.7c-4.2-5.1-9.6-7.6-16.3-7.6
		c-6.1,0-11.1,2-15.3,6.1C2313.8,584.5,2311.5,589.9,2311.1,596.7z"/>
	<path d="M2384.6,565.3h13.2v32.4h36.5v-32.4h13.2v77.8h-13.2v-34.5h-36.5v34.5h-13.2V565.3z"/>
	<path d="M2467.4,565.3h13.2v32.4h36.5v-32.4h13.2v77.8h-13.2v-34.5h-36.5v34.5h-13.2V565.3z"/>
	<path d="M2550.5,565.3h13.2v30.4h16.7c10.9,0,19.3,2.1,25.2,6.3s8.8,10,8.8,17.5c0,6.5-2.5,12-7.4,16.7c-4.9,4.6-12.8,6.9-23.5,6.9
		h-33V565.3z M2563.7,632.2h13.8c8.3,0,14.3-1,17.9-3.1c3.6-2.1,5.3-5.2,5.3-9.6c0-3.4-1.3-6.4-4-9s-8.5-4-17.5-4h-15.6v25.7H2563.7
		z M2624.3,565.3h13.2v77.8h-13.2V565.3z"/>
	<path d="M2649.2,643.1l28.4-40.4l-26.3-37.4h16.5l11.9,18.2c2.2,3.5,4.1,6.4,5.4,8.7c2.1-3.2,4.1-6.1,5.9-8.6l13.1-18.4h15.7
		l-26.9,36.6l28.9,41.2h-16.2l-16-24.2l-4.2-6.5L2665,643h-15.8V643.1z"/>
	<path d="M2774.7,565.3h13.2v59.3l36.5-59.3h14.2v77.8h-13.2v-59l-36.5,59h-14.2V565.3z"/>
	<path d="M2858.6,565.3h13.2v32.4h36.5v-32.4h13.2v77.8h-13.2v-34.5h-36.5v34.5h-13.2V565.3z"/>
	<path d="M2934.2,565.3h63.2v10.9h-25v66.9h-13.1v-66.9h-25L2934.2,565.3L2934.2,565.3z"/>
	<path d="M3061.6,618l13.6,1.7c-2.1,8-6.1,14.1-11.9,18.5c-5.8,4.4-13.2,6.6-22.3,6.6c-11.4,0-20.4-3.5-27.1-10.5
		c-6.7-7-10-16.8-10-29.5c0-13.1,3.4-23.2,10.1-30.5c6.7-7.2,15.5-10.8,26.2-10.8c10.4,0,18.9,3.5,25.5,10.6s9.9,17,9.9,29.9
		c0,0.8,0,2-0.1,3.5h-58c0.5,8.5,2.9,15.1,7.3,19.6c4.3,4.5,9.8,6.8,16.3,6.8c4.8,0,9-1.3,12.4-3.8S3059.6,623.6,3061.6,618z
		 M3018.3,596.7h43.4c-0.6-6.5-2.2-11.4-5-14.7c-4.2-5.1-9.6-7.6-16.3-7.6c-6.1,0-11.1,2-15.3,6.1
		C3021,584.5,3018.7,589.9,3018.3,596.7z"/>
	<path d="M3091.8,672.9V565.3h12v10.1c2.8-4,6-6.9,9.6-8.9s7.9-3,13-3c6.6,0,12.5,1.7,17.6,5.1c5.1,3.4,8.9,8.2,11.5,14.5
		c2.6,6.2,3.9,13,3.9,20.5c0,8-1.4,15.1-4.3,21.5c-2.9,6.4-7,11.3-12.5,14.6c-5.4,3.4-11.2,5.1-17.2,5.1c-4.4,0-8.3-0.9-11.8-2.8
		c-3.5-1.9-6.4-4.2-8.6-7v37.9L3091.8,672.9L3091.8,672.9z M3103.7,604.6c0,10,2,17.4,6.1,22.2s9,7.2,14.7,7.2
		c5.9,0,10.9-2.5,15.1-7.4c4.2-5,6.3-12.6,6.3-23c0-9.9-2-17.3-6.1-22.3c-4.1-4.9-8.9-7.4-14.6-7.4c-5.6,0-10.6,2.6-14.9,7.9
		C3105.9,587,3103.7,594.6,3103.7,604.6z"/>
	<path d="M3175,565.3h13.2v30.4h16.7c10.9,0,19.3,2.1,25.2,6.3s8.8,10,8.8,17.5c0,6.5-2.5,12-7.4,16.7c-4.9,4.6-12.8,6.9-23.5,6.9
		h-33V565.3z M3188.2,632.2h13.8c8.3,0,14.3-1,17.9-3.1c3.6-2.1,5.3-5.2,5.3-9.6c0-3.4-1.3-6.4-4-9s-8.5-4-17.5-4h-15.6v25.7H3188.2
		z"/>
	<path d="M3306.6,618l13.6,1.7c-2.1,8-6.1,14.1-11.9,18.5c-5.8,4.4-13.2,6.6-22.3,6.6c-11.4,0-20.4-3.5-27.1-10.5
		c-6.7-7-10-16.8-10-29.5c0-13.1,3.4-23.2,10.1-30.5c6.7-7.2,15.5-10.8,26.2-10.8c10.4,0,18.9,3.5,25.5,10.6s9.9,17,9.9,29.9
		c0,0.8,0,2-0.1,3.5h-58c0.5,8.5,2.9,15.1,7.3,19.6c4.3,4.5,9.8,6.8,16.3,6.8c4.8,0,9-1.3,12.4-3.8S3304.6,623.6,3306.6,618z
		 M3263.3,596.7h43.4c-0.6-6.5-2.2-11.4-5-14.7c-4.2-5.1-9.6-7.6-16.3-7.6c-6.1,0-11.1,2-15.3,6.1
		C3266,584.5,3263.7,589.9,3263.3,596.7z"/>
	<path d="M3336.8,672.9V565.3h12v10.1c2.8-4,6-6.9,9.6-8.9s7.9-3,13-3c6.6,0,12.5,1.7,17.6,5.1c5.1,3.4,8.9,8.2,11.5,14.5
		c2.6,6.2,3.9,13,3.9,20.5c0,8-1.4,15.1-4.3,21.5c-2.9,6.4-7,11.3-12.5,14.6c-5.4,3.4-11.2,5.1-17.2,5.1c-4.4,0-8.3-0.9-11.8-2.8
		c-3.5-1.9-6.4-4.2-8.6-7v37.9L3336.8,672.9L3336.8,672.9z M3348.7,604.6c0,10,2,17.4,6.1,22.2s9,7.2,14.7,7.2
		c5.9,0,10.9-2.5,15.1-7.4c4.2-5,6.3-12.6,6.3-23c0-9.9-2-17.3-6.1-22.3c-4.1-4.9-8.9-7.4-14.6-7.4c-5.6,0-10.6,2.6-14.9,7.9
		C3350.9,587,3348.7,594.6,3348.7,604.6z"/>
	<path d="M3415.3,604.2c0-14.4,4-25.1,12-32c6.7-5.8,14.8-8.6,24.5-8.6c10.7,0,19.4,3.5,26.2,10.5s10.2,16.7,10.2,29
		c0,10-1.5,17.9-4.5,23.6c-3,5.7-7.4,10.2-13.1,13.4c-5.7,3.2-12,4.8-18.8,4.8c-10.9,0-19.7-3.5-26.4-10.5
		C3418.6,627.4,3415.3,617.3,3415.3,604.2z M3428.8,604.2c0,10,2.2,17.4,6.5,22.4s9.8,7.4,16.4,7.4c6.5,0,12-2.5,16.3-7.5
		s6.5-12.6,6.5-22.8c0-9.6-2.2-16.9-6.6-21.9c-4.4-5-9.8-7.4-16.3-7.4c-6.6,0-12.1,2.5-16.4,7.4
		C3431,586.8,3428.8,594.2,3428.8,604.2z"/>
	<path d="M3503.7,565.3h30.4c7.5,0,13,0.6,16.7,1.9c3.6,1.2,6.8,3.5,9.4,6.8c2.6,3.3,3.9,7.3,3.9,11.9c0,3.7-0.8,6.9-2.3,9.7
		s-3.8,5.1-6.9,6.9c3.7,1.2,6.7,3.5,9.1,6.8c2.4,3.3,3.6,7.3,3.6,11.9c-0.5,7.4-3.1,12.8-7.9,16.4c-4.8,3.6-11.7,5.3-20.9,5.3h-35.1
		V565.3z M3516.9,598h14.1c5.6,0,9.5-0.3,11.6-0.9c2.1-0.6,4-1.8,5.6-3.6c1.7-1.8,2.5-3.9,2.5-6.4c0-4.1-1.5-7-4.4-8.6
		s-7.9-2.4-14.9-2.4h-14.5L3516.9,598L3516.9,598z M3516.9,632.2h17.4c7.5,0,12.6-0.9,15.4-2.6c2.8-1.7,4.2-4.7,4.4-9
		c0-2.5-0.8-4.8-2.4-6.9s-3.7-3.5-6.3-4c-2.6-0.6-6.7-0.8-12.5-0.8h-16L3516.9,632.2L3516.9,632.2z"/>
	<path d="M3625,565.3h13.2v59.3l36.5-59.3h14.2v77.8h-13.2v-59l-36.5,59H3625V565.3z"/>
	<path d="M3750.8,565.3h20.5l20.4,62.3l22.7-62.3h19v77.8h-13.2v-62.6l-23,62.6h-11.8l-21.8-65.6v65.6h-12.9v-77.8H3750.8z"/>
	<path d="M3906.8,618l13.6,1.7c-2.1,8-6.1,14.1-11.9,18.5c-5.8,4.4-13.2,6.6-22.3,6.6c-11.4,0-20.4-3.5-27.1-10.5
		c-6.7-7-10-16.8-10-29.5c0-13.1,3.4-23.2,10.1-30.5c6.7-7.2,15.5-10.8,26.2-10.8c10.4,0,18.9,3.5,25.5,10.6s9.9,17,9.9,29.9
		c0,0.8,0,2-0.1,3.5h-58c0.5,8.5,2.9,15.1,7.3,19.6c4.3,4.5,9.8,6.8,16.3,6.8c4.8,0,9-1.3,12.4-3.8
		C3902.1,627.6,3904.8,623.6,3906.8,618z M3863.5,596.7h43.4c-0.6-6.5-2.2-11.4-5-14.7c-4.2-5.1-9.6-7.6-16.3-7.6
		c-6.1,0-11.1,2-15.3,6.1C3866.2,584.5,3864,589.9,3863.5,596.7z"/>
	<path d="M3992.3,533.1l11.6,0.1c-0.5,5.2-1.7,8.9-3.5,10.9c-1.8,2.1-4.1,3.4-6.9,4c-2.8,0.6-8.3,0.9-16.5,0.9
		c-10.9,0-18.3,1.1-22.3,3.1c-4,2.1-6.8,5.5-8.5,10.1s-2.7,10.6-2.9,17.8c3.3-4.9,7.2-8.6,11.6-11.1c4.4-2.5,9.4-3.7,15-3.7
		c10.2,0,18.7,3.5,25.3,10.5c6.7,7,10,16.5,10,28.5c0,9.1-1.7,16.5-5.1,22.3c-3.4,5.8-7.4,10.3-12,13.5s-10.9,4.8-18.9,4.8
		c-9.2,0-16.4-2.1-21.5-6.3s-9.1-9.6-11.8-16.2c-2.7-6.6-4.1-18.1-4.1-34.4c0-20.6,3.5-34.4,10.4-41.5c7-7.1,17.7-10.7,32.1-10.7
		c9,0,14.1-0.1,15.3-0.4C3991.2,534.9,3991.9,534.2,3992.3,533.1z M3991.6,603.9c0-8.1-1.9-14.7-5.8-19.9c-3.8-5.2-9.2-7.8-16.2-7.8
		c-7.3,0-12.9,2.7-16.8,8.2c-4,5.5-5.9,12.8-5.9,21.9c0,9,2.2,15.9,6.6,20.7c4.4,4.8,9.8,7.2,16.1,7.2c6.5,0,11.9-2.8,15.9-8.3
		C3989.6,620.3,3991.6,613,3991.6,603.9z"/>
	<path d="M4072.8,618l13.6,1.7c-2.1,8-6.1,14.1-11.9,18.5c-5.8,4.4-13.2,6.6-22.3,6.6c-11.4,0-20.4-3.5-27.1-10.5
		c-6.7-7-10-16.8-10-29.5c0-13.1,3.4-23.2,10.1-30.5c6.7-7.2,15.5-10.8,26.2-10.8c10.4,0,18.9,3.5,25.5,10.6s9.9,17,9.9,29.9
		c0,0.8,0,2-0.1,3.5h-58c0.5,8.5,2.9,15.1,7.3,19.6c4.3,4.5,9.8,6.8,16.3,6.8c4.8,0,9-1.3,12.4-3.8
		C4068.1,627.6,4070.8,623.6,4072.8,618z M4029.5,596.7h43.4c-0.6-6.5-2.2-11.4-5-14.7c-4.2-5.1-9.6-7.6-16.3-7.6
		c-6.1,0-11.1,2-15.3,6.1C4032.2,584.5,4029.9,589.9,4029.5,596.7z"/>
	<path d="M4104.4,565.3h61.2v77.8h-13.1v-66.9h-34.9v38.7c0,9-0.3,15-0.9,17.9s-2.2,5.4-4.8,7.5c-2.6,2.1-6.4,3.2-11.4,3.2
		c-3.1,0-6.6-0.2-10.6-0.6v-11h5.8c2.7,0,4.7-0.3,5.9-0.8c1.2-0.6,2-1.5,2.3-2.7c0.4-1.2,0.6-5.2,0.6-11.9v-51.2H4104.4z"/>
	<path d="M4185.5,565.3h13.2v59.3l36.5-59.3h14.2v77.8h-13.2v-59l-36.5,59h-14.2V565.3z"/>
</g>
</svg>
