<?xml version="1.0" encoding="utf-8"?>
<!-- Generator: Adobe Illustrator 22.0.0, SVG Export Plug-In . SVG Version: 6.00 Build 0)  -->
<svg version="1.1" id="Capa_1" xmlns="http://www.w3.org/2000/svg" xmlns:xlink="http://www.w3.org/1999/xlink" x="0px" y="0px"
	 viewBox="0 0 512 292.7" style="enable-background:new 0 0 512 292.7;" xml:space="preserve" width="21" height="12">
<g>
	<g>
		<path d="M507.4,260.8c-1.4-2.3-9.9-20.8-50.8-58.8c-42.9-39.8-37.1-33.3,14.5-102.2c31.5-41.9,44-67.5,40.1-78.5
			c-3.7-10.4-26.9-7.7-26.9-7.7l-76.9,0.4c0,0-5.7-0.8-10,1.8c-4.1,2.5-6.8,8.3-6.8,8.3s-12.2,32.4-28.4,60
			c-34.3,58.2-48,61.3-53.6,57.7c-13-8.4-9.8-33.9-9.8-51.9c0-56.4,8.5-79.9-16.7-86c-8.4-2-14.5-3.4-35.9-3.6
			c-27.5-0.3-50.7,0.1-63.9,6.5c-8.8,4.3-15.5,13.9-11.4,14.4c5.1,0.7,16.6,3.1,22.7,11.4c7.9,10.7,7.6,34.8,7.6,34.8
			s4.5,66.4-10.6,74.7c-10.4,5.7-24.6-5.9-55.2-58.7c-15.6-27-27.5-57-27.5-57s-2.3-5.6-6.3-8.5c-4.9-3.6-11.8-4.8-11.8-4.8
			l-73.2,0.4c0,0-11,0.3-15,5.1c-3.6,4.3-0.3,13-0.3,13s57.3,134,122.1,201.5c59.5,61.9,127,57.9,127,57.9h30.6c0,0,9.2-1,14-6.1
			c4.4-4.7,4.2-13.4,4.2-13.4s-0.6-41.1,18.5-47.1c18.8-6,42.9,39.7,68.5,57.2c19.3,13.3,34,10.4,34,10.4l68.4-1
			C488.6,291.1,524.4,288.9,507.4,260.8z"/>
	</g>
</g>
</svg>
