<svg width="40" height="50" viewBox="0 0 40 50" fill="none" xmlns="http://www.w3.org/2000/svg">
<path d="M0 3.05176e-05H40V50L20 40L0 50V3.05176e-05Z" fill="url(#paint0_linear)"/>
<path d="M0 3.05176e-05H40V50L20 40L0 50V3.05176e-05Z" fill="url(#paint1_linear)"/>
<path d="M27.3095 18.6959C27.3095 18.6959 29.1204 18.7862 29.1204 17.7227C29.1204 16.3326 26.7094 15.0801 26.7094 15.0801C26.7094 15.0801 27.088 14.2787 27.3224 13.8319C27.559 13.385 28.2214 11.6383 28.2816 11.2387C28.3569 10.7381 28.2429 10.5813 28.2429 10.5813C28.0794 11.6555 26.3288 14.7471 26.189 14.8524C24.4813 14.0532 22.1371 13.8297 22.1371 13.8297C22.1371 13.8297 19.8402 9.00003 17.6809 9.00003C15.5388 9.00003 15.5495 13.1358 15.5495 13.1358C15.5495 13.1358 14.9452 11.9627 14.186 11.9627C13.0762 11.9627 12.7106 13.6407 12.7106 15.4604C10.5191 15.4604 8.67378 15.9502 8.51033 15.9975C8.34473 16.0448 7.82641 16.4207 8.06084 16.3735C8.54044 16.2209 10.7944 15.8729 12.7665 16.0426C12.8741 17.7721 13.8849 20.0237 13.8849 20.0237C13.8849 20.0237 11.7192 23.1604 11.7192 25.3991C11.7192 25.9899 11.9385 27.15 13.4956 27.15C14.7989 27.15 16.298 26.2842 16.5733 26.1252C16.3324 26.469 16.1539 27.12 16.1539 27.4207C16.1539 27.5604 16.2098 27.8483 16.4399 28.0696C16.8077 27.7043 17.169 27.3412 17.6163 26.8965C17.1346 26.8084 17.0701 26.4518 17.0701 26.3594C17.0701 26.0371 17.3217 25.6547 17.3217 25.6547C17.3217 25.6547 18.4938 24.8641 18.5669 24.7803L19.4315 26.3916C19.4315 26.3916 18.5454 26.9158 17.8508 26.9158C17.7626 26.9158 17.6852 26.9094 17.6163 26.8965C17.169 27.3412 16.8077 27.7043 16.4399 28.0696C16.612 28.235 16.8787 28.3617 17.3045 28.3617C18.5949 28.3617 20.038 27.3735 20.038 27.3735C20.038 27.3735 21.3994 29.6336 22.5608 30.6692C22.8748 30.9485 23.1759 31 23.1759 31C23.1759 31 22.0188 29.8871 20.4961 27.0233C21.9113 26.1489 23.3845 24.0885 23.3845 24.0885C23.3845 24.0885 23.5587 24.0928 24.9029 24.0928C27.0084 24.0928 30 23.6502 30 21.9787C30 20.2535 27.3095 18.6959 27.3095 18.6959ZM27.5461 17.6561C27.5461 18.2662 26.9632 18.2598 26.9632 18.2598L26.5223 18.2877L25.176 17.641C25.176 17.641 25.9632 16.4293 26.1481 16.0899C26.2879 16.1715 27.5461 16.9578 27.5461 17.6561ZM14.8118 13.3248C15.1258 13.3248 15.4355 13.7073 15.5624 14.0317C15.5624 14.2444 15.6743 15.4948 15.6743 15.4948L13.8569 15.4282C13.8569 13.7889 14.4978 13.3248 14.8118 13.3248ZM14.6247 24.6965C13.6311 24.6965 13.4268 24.1444 13.4268 23.6459C13.4268 22.518 14.3258 20.9432 14.3258 20.9432C14.3258 20.9432 15.3345 23.0637 17.0959 23.9575C16.2227 24.4709 15.5001 24.6965 14.6247 24.6965ZM20.0208 26.0371C19.5971 25.2959 19.2853 24.5225 19.2853 24.5225C19.2853 24.5225 21.0252 24.6364 21.9607 23.6696C21.3779 23.9317 20.4488 24.2625 19.367 24.1616L24.062 19.2416C23.9652 19.1256 23.4555 18.769 23.3307 18.7088C22.6576 19.5188 20.0402 22.316 17.6163 23.6996C14.5473 22.0282 13.9021 17.1061 13.8376 16.0856L15.513 16.2467C15.513 16.2467 14.8828 17.3617 14.8828 18.1825C14.8828 19.0032 14.9817 19.0483 14.9817 19.0483C14.9817 19.0483 14.9602 17.6153 15.8442 16.511C16.5195 20.0946 17.2206 21.9315 17.769 23.0272C18.0486 22.9112 18.5691 22.6813 18.5691 22.6813C18.5691 22.6813 17.0206 18.2211 17.1066 15.2026C17.5948 14.9426 18.2486 14.6784 18.9928 14.5409C18.9756 14.3475 18.9347 14.1541 18.8508 13.9629C18.2874 14.094 17.683 14.3024 17.1174 14.6354C17.1668 12.9532 17.7325 11.4321 18.7347 11.4321C19.724 11.4321 21.137 13.7653 21.137 13.7653C21.137 13.7653 20.0939 13.6729 18.8508 13.9608C18.9347 14.1541 18.9756 14.3475 18.9928 14.5409C19.3197 14.4807 19.6638 14.442 20.0208 14.442C23.1092 14.442 25.5911 15.7698 25.5911 15.7698L24.6211 17.1254C24.6211 17.1254 23.7544 15.5592 22.5328 15.2799C23.178 15.759 23.8985 16.395 24.2749 17.308C21.7156 16.3069 18.6272 15.7805 17.6357 15.6645C17.5497 16.0297 17.5604 16.5518 17.5604 16.5518C17.5604 16.5518 21.7026 17.3145 24.7158 19.0375C24.6964 22.808 20.5886 25.6998 20.0208 26.0371ZM23.9437 23.2205C23.9437 23.2205 25.2319 21.534 25.2104 19.3018C25.2104 19.3018 27.2858 20.5866 27.2858 21.8412C27.288 23.242 23.9437 23.2205 23.9437 23.2205Z" fill="white"/>
<path d="M16.1539 27.4207C16.1539 27.1221 16.3324 26.469 16.5711 26.1252C16.9776 25.9211 17.3217 25.6547 17.3217 25.6547C17.3217 25.6547 17.0679 26.0371 17.0679 26.3594C17.0679 26.4518 17.1324 26.8084 17.6142 26.8965C17.683 26.9094 17.7604 26.9158 17.8486 26.9158C18.5454 26.9158 19.4294 26.3916 19.4294 26.3916C16.5862 28.9375 16.1539 27.4573 16.1539 27.4207ZM16.6141 22.9692L16.5797 22.9842L16.5388 23.01C16.3775 23.1045 16.227 23.1819 16.0786 23.2506C16.384 23.5213 16.7217 23.7684 17.0959 23.9575C17.2572 23.8801 17.5024 23.7598 17.6163 23.7018C17.2486 23.4998 16.9152 23.2506 16.6141 22.9692ZM13.7279 24.4237C13.4978 24.2174 13.4268 23.9252 13.4268 23.6459C13.4268 22.518 14.3258 20.9432 14.3258 20.9432L13.8849 20.0258C13.8849 20.0258 11.6568 23.3731 13.7214 24.4387C13.7257 24.4258 13.7236 24.4366 13.7279 24.4237ZM27.2514 22.0819C26.8901 23.2399 23.9437 23.2205 23.9437 23.2205L23.3845 24.0885C23.3845 24.0885 23.5501 24.0928 24.69 24.095C24.69 24.095 27.0256 23.9037 27.2514 22.0819ZM24.6448 20.245C24.6448 20.245 24.834 20.3674 25.0857 20.5608C25.1653 20.1676 25.2147 19.7465 25.2104 19.3018C25.1007 19.2352 24.8211 19.0869 24.7179 19.0397C24.7158 19.4393 24.6598 19.826 24.5738 20.2041C24.6018 20.2213 24.6276 20.2364 24.6448 20.245ZM27.5461 17.6561C27.5461 18.2662 26.9632 18.2598 26.9632 18.2598L26.5223 18.2877L27.3095 18.6938C29.8516 18.5907 27.8966 16.6141 26.1481 16.0899C26.2879 16.1715 27.5461 16.9578 27.5461 17.6561ZM18.425 11.4879C18.5239 11.4557 18.625 11.4342 18.7347 11.4342C19.724 11.4342 21.137 13.7674 21.137 13.7674L22.1371 13.8297C22.1371 13.8297 21.907 13.3485 21.5263 12.691C21.0037 11.8446 19.3928 11.0024 18.425 11.4879ZM14.7108 12.4032C13.73 12.3 13.7602 15.1188 13.8569 15.4282C13.8569 13.791 14.4978 13.3248 14.8118 13.3248C15.1258 13.3248 15.4355 13.7073 15.5624 14.0317C15.5474 13.5483 15.5495 13.1358 15.5495 13.1358C15.5495 13.1358 15.1581 12.4891 14.7108 12.4032ZM18.2185 14.6805C18.2228 14.4893 18.2422 14.3088 18.2637 14.1305C17.8787 14.2551 17.4894 14.4162 17.1174 14.6354C17.1066 14.8653 17.1195 14.9705 17.1066 15.2047C17.4142 15.0393 17.7948 14.8782 18.2164 14.7428C18.2164 14.7235 18.2164 14.7041 18.2185 14.6805ZM20.0101 26.0371C19.5864 25.2959 19.2724 24.5225 19.2724 24.5225C19.2724 24.5225 21.0144 24.6364 21.95 23.6696C21.365 23.9317 20.438 24.2625 19.3541 24.1616C19.1261 24.4 18.8508 24.5826 18.554 24.7803L19.4186 26.3916C19.4186 26.3916 20.0767 25.9963 20.0101 26.0371ZM20.4832 27.0233C20.6166 26.9416 20.0251 27.3735 20.0251 27.3735C20.0251 27.3735 21.3843 29.6336 22.5479 30.6692C22.8619 30.9485 23.1608 31 23.1608 31C23.1608 31 22.0059 29.8871 20.4832 27.0233ZM28.2429 10.5791C28.0794 11.6534 26.3288 14.7471 26.1911 14.8524C26.0191 14.7729 26.7116 15.078 26.7116 15.078C26.7116 15.078 27.088 14.2787 27.3245 13.8297C27.559 13.3828 28.2235 11.6383 28.2816 11.2387C28.3569 10.7381 28.2429 10.5791 28.2429 10.5791ZM25.5932 15.7719L24.6211 17.1276C24.6211 17.1276 23.7544 15.5614 22.5328 15.2821C23.0253 15.6494 23.5608 16.1071 23.9544 16.7086C24.077 16.8955 24.1867 17.0932 24.2749 17.3102C24.7803 17.5014 25.219 17.6582 25.176 17.641C25.176 17.641 25.9632 16.4293 26.1481 16.0899C26.1997 16.12 25.5932 15.7719 25.5932 15.7719ZM15.6743 15.4969L13.8569 15.4282C13.8268 15.6108 13.8376 15.8987 13.8376 16.0856L15.513 16.2467C15.513 16.2467 14.885 17.3617 14.885 18.1846C14.885 19.0053 14.9817 19.0483 14.9817 19.0483C14.9817 19.0483 14.9645 17.7764 15.7022 16.7043C15.7001 16.7022 15.6979 16.7022 15.6979 16.7C15.7001 16.7022 15.7022 16.7043 15.7022 16.7043C15.7474 16.6399 15.7947 16.5754 15.8463 16.511C15.7302 15.8643 15.6743 15.4969 15.6743 15.4969ZM12.7106 15.4604C10.5191 15.4604 8.67378 15.9502 8.50818 15.9975C8.34258 16.0448 7.82426 16.4207 8.06084 16.3735C8.54044 16.2209 10.7944 15.8729 12.7665 16.0448C12.7257 15.6795 12.7106 15.4604 12.7106 15.4604Z" fill="white"/>
<defs>
<linearGradient id="paint0_linear" x1="0" y1="3.05176e-05" x2="40" y2="50" gradientUnits="userSpaceOnUse">
<stop stop-color="#303C67"/>
<stop offset="1" stop-color="#0A0F22"/>
</linearGradient>
<linearGradient id="paint1_linear" x1="0" y1="3.05176e-05" x2="40" y2="50" gradientUnits="userSpaceOnUse">
<stop stop-color="#A19FFD"/>
<stop offset="1" stop-color="#5754CE"/>
</linearGradient>
</defs>
</svg>
