<svg width="40" height="50" viewBox="0 0 40 50" fill="none" xmlns="http://www.w3.org/2000/svg">
<path d="M0 3.05176e-05H40V50L20 40L0 50V3.05176e-05Z" fill="url(#paint0_linear)"/>
<path d="M0 3.05176e-05H40V50L20 40L0 50V3.05176e-05Z" fill="url(#paint1_linear)"/>
<path d="M14.1246 28C12 28 12 25.8828 12 25.8828C12 25.8828 12 17.4125 12 15.294C12 13.1763 14.1246 13.1763 14.1246 13.1763C14.1246 13.1763 16.2497 13.1763 18.3747 13.1763C20.5002 13.1763 22.6248 15.294 22.6248 15.294C22.6248 9.12623 24.5796 17.5813 26.8749 15.294C28.3776 13.797 29 22.7056 29 22.7056L26.8749 21.6479C26.8749 21.6479 26.8749 19.5298 23.6876 17.4125C19.7337 14.785 15.1874 16.5162 15.1874 20.5884C15.1874 28.8964 29 25.8828 29 25.8828C29 25.8828 29 28 26.8749 28C24.7503 28 14.1246 28 14.1246 28Z" fill="white"/>
<path d="M24.7503 13.1768C24.7503 12.5925 25.2259 10 25.8122 10C26.3994 10 26.8745 12.5925 26.8745 13.1768C26.8745 13.7623 26.3989 14.2358 25.8122 14.2358C25.2259 14.2358 24.7503 13.7623 24.7503 13.1768Z" fill="white"/>
<defs>
<linearGradient id="paint0_linear" x1="0" y1="3.05176e-05" x2="40" y2="50" gradientUnits="userSpaceOnUse">
<stop stop-color="#303C67"/>
<stop offset="1" stop-color="#0A0F22"/>
</linearGradient>
<linearGradient id="paint1_linear" x1="0" y1="3.05176e-05" x2="40" y2="50" gradientUnits="userSpaceOnUse">
<stop stop-color="#F45656"/>
<stop offset="1" stop-color="#C13333"/>
</linearGradient>
</defs>
</svg>
