<svg width="40" height="50" viewBox="0 0 40 50" fill="none" xmlns="http://www.w3.org/2000/svg">
<path d="M0 3.05176e-05H40V50L20 40L0 50V3.05176e-05Z" fill="url(#paint0_linear)"/>
<path d="M0 3.05176e-05H40V50L20 40L0 50V3.05176e-05Z" fill="url(#paint1_linear)"/>
<path d="M28.9015 14C27.1925 14 25.8026 15.4484 25.8026 17.2287C25.8026 17.243 25.8026 17.2573 25.8034 17.2707L23.8071 20.2872C23.4837 20.2725 23.1592 20.3312 22.8515 20.4632C22.7158 20.5206 22.5888 20.5915 22.4695 20.673L13.4727 16.7977C13.3214 16.068 12.8425 15.4239 12.1325 15.1151C10.981 14.6156 9.65405 15.1852 9.17393 16.3854C8.6942 17.5848 9.24118 18.9676 10.3926 19.4675C10.9501 19.7095 11.5648 19.7107 12.1239 19.4715C12.2525 19.4161 12.3737 19.3477 12.4894 19.2715L21.5062 23.1557C21.6618 23.8785 22.1388 24.5132 22.8425 24.8184C23.9939 25.3191 25.3213 24.7487 25.8007 23.5501C25.925 23.2372 25.9832 22.9084 25.9746 22.5805L28.8311 20.4571C28.8546 20.4579 28.878 20.4583 28.9015 20.4583C30.6105 20.4583 32 19.0091 32 17.2287C32 15.4484 30.6105 14 28.9015 14ZM10.5916 18.97C9.92226 18.6795 9.5176 18.002 9.5176 17.289C9.5176 17.056 9.56061 16.8201 9.6521 16.5928C10.0216 15.6667 11.0455 15.2271 11.9335 15.6126C12.3526 15.7943 12.665 16.1275 12.8425 16.5256L11.8099 16.0807C11.1554 15.7967 10.4032 16.1194 10.1299 16.8018C9.85736 17.4846 10.1674 18.2693 10.8219 18.5532L11.8576 18.9989C11.4451 19.1558 10.9986 19.1476 10.5916 18.97ZM25.3241 23.3419C24.953 24.2676 23.9302 24.7071 23.0411 24.3217C22.631 24.1437 22.3213 23.8182 22.1427 23.4299L23.1514 23.865C23.8071 24.1494 24.5593 23.8259 24.8318 23.1439C25.1051 22.4615 24.7951 21.6777 24.1398 21.3933L23.097 20.9439C23.4994 20.785 23.9568 20.7793 24.3841 20.9643C24.815 21.1509 25.1493 21.5017 25.3264 21.9506C25.5039 22.3996 25.5031 22.8946 25.3241 23.3419ZM28.9015 19.3807C27.7634 19.3807 26.8371 18.4151 26.8371 17.2287C26.8371 16.0432 27.7634 15.0776 28.9015 15.0776C30.0396 15.0776 30.9663 16.0432 30.9663 17.2287C30.9663 18.4151 30.0396 19.3807 28.9015 19.3807ZM28.9046 18.8413C28.0488 18.8413 27.3544 18.1181 27.3544 17.2255C27.3544 16.3329 28.0488 15.6089 28.9046 15.6089C29.7613 15.6089 30.456 16.3329 30.456 17.2255C30.456 18.1181 29.7613 18.8413 28.9046 18.8413Z" fill="white"/>
<defs>
<linearGradient id="paint0_linear" x1="0" y1="3.05176e-05" x2="40" y2="50" gradientUnits="userSpaceOnUse">
<stop stop-color="#303C67"/>
<stop offset="1" stop-color="#0A0F22"/>
</linearGradient>
<linearGradient id="paint1_linear" x1="0" y1="3.05176e-05" x2="40" y2="50" gradientUnits="userSpaceOnUse">
<stop stop-color="#8B97C2"/>
<stop offset="1" stop-color="#5C678F"/>
</linearGradient>
</defs>
</svg>
