<?xml version="1.0" encoding="utf-8"?>
<!-- Generator: Adobe Illustrator 22.0.0, SVG Export Plug-In . SVG Version: 6.00 Build 0)  -->
<svg version="1.1" id="Слой_1" xmlns="http://www.w3.org/2000/svg" xmlns:xlink="http://www.w3.org/1999/xlink" x="0px" y="0px"
	 viewBox="0 0 100 100" style="enable-background:new 0 0 100 100;" xml:space="preserve" width="15" height="15">
<g>
	<path d="M50,1.2c8,0,16.1,0,24.1,0c13.7,0.1,24.5,10.6,24.5,24.4c0.1,16.2,0.1,32.5,0,48.7C98.6,88,88,98.6,74.4,98.7
		c-16.2,0.1-32.5,0.1-48.7,0C12,98.6,1.4,88,1.3,74.3c-0.1-16.2-0.1-32.5,0-48.7C1.4,11.9,12.2,1.3,25.9,1.3C33.9,1.2,42,1.2,50,1.2
		z M49.9,29.8c-11.3,0-20.2,8.9-20.2,20.1c0,11.4,9.1,20.5,20.4,20.4c11.1-0.1,20.1-9.2,20.1-20.3C70.2,38.6,61.3,29.8,49.9,29.8z
		 M82.4,23.6c0-3.2-2.7-6-5.9-6.1c-3.3-0.1-6.2,2.7-6.2,5.9c0,3.4,2.7,6.1,6,6.2C79.7,29.7,82.4,27.1,82.4,23.6z"/>
</g>
</svg>
