<svg width="177" height="31" viewBox="0 0 177 31" fill="none" xmlns="http://www.w3.org/2000/svg">
<path d="M14.5673 27.5834C18.9484 27.5834 22.5 23.9325 22.5 19.429C22.5 16.6626 21.1599 14.2179 19.1106 12.7436L21.9952 3.41669H7.93269C3.55159 3.41669 0 7.06753 0 11.5711L0.010836 11.8328C0.111408 13.376 0.901578 16.0189 3.46154 16.0189C5.05378 16.0189 6.42555 15.3373 7.42788 14.5744L5.33654 7.93867L10.8173 11.9417L15.3098 8.56705L16.4423 7.71628L15.7196 10.0071L15.3087 11.3097L14.2788 14.5744L15.0598 15.1558L19.9038 18.7618H12.9808L12.6313 19.8513L10.8173 25.5077L9.06199 19.6435L8.79808 18.7618C8.37851 18.7029 7.59581 18.6949 6.65272 18.8737C6.218 18.9561 5.7492 19.0782 5.26617 19.2533C4.81586 19.4166 4.35318 19.626 3.89423 19.8922C1.72202 21.3637 0.288462 23.8937 0.288462 26.7679C0.288462 27.0431 0.301602 27.3151 0.327273 27.5834H14.5673Z" fill="#FD7166"/>
<path d="M37.4306 24.25C36.1202 24.25 34.8776 24.0898 33.7027 23.7692C32.5278 23.4487 31.5714 23.0366 30.8333 22.533L32.5956 19.1447C33.3939 19.6636 34.245 20.0604 35.1487 20.3352C36.0524 20.5946 36.9562 20.7244 37.8599 20.7244C38.7185 20.7244 39.3812 20.6023 39.8481 20.3581C40.3301 20.0986 40.5711 19.7476 40.5711 19.305C40.5711 18.9234 40.3527 18.6258 39.9159 18.4121C39.4942 18.1984 38.8314 17.9695 37.9277 17.7253C36.9035 17.4506 36.0524 17.1758 35.3746 16.9011C34.6968 16.6111 34.1094 16.1761 33.6123 15.5962C33.1303 15.0162 32.8893 14.2531 32.8893 13.3068C32.8893 12.1621 33.1981 11.1624 33.8157 10.3077C34.4332 9.43774 35.3144 8.76619 36.4591 8.29305C37.6039 7.81991 38.9444 7.58334 40.4808 7.58334C41.6104 7.58334 42.6648 7.70544 43.6439 7.94964C44.6229 8.17858 45.4664 8.51436 46.1743 8.95697L44.5476 12.3224C43.93 11.9255 43.2447 11.6279 42.4916 11.4295C41.7535 11.2158 40.9929 11.109 40.2096 11.109C39.321 11.109 38.6206 11.254 38.1084 11.544C37.6114 11.834 37.3629 12.2079 37.3629 12.6658C37.3629 13.0626 37.5813 13.3678 38.0181 13.5815C38.4549 13.7952 39.1327 14.0241 40.0515 14.2683C41.0757 14.5278 41.9192 14.7949 42.582 15.0696C43.2598 15.3443 43.8397 15.7641 44.3217 16.3288C44.8037 16.8935 45.0446 17.6337 45.0446 18.5495C45.0446 19.6789 44.7283 20.6786 44.0957 21.5485C43.4782 22.4032 42.5895 23.0672 41.4297 23.5403C40.285 24.0134 38.9519 24.25 37.4306 24.25Z" fill="white"/>
<path d="M51.748 11.4982H46.8904L47.6134 7.90386H61.7796L61.0566 11.4982H56.2215L53.7589 23.9295H49.2853L51.748 11.4982Z" fill="white"/>
<path d="M67.1515 11.4066L66.6319 14.1081H73.6584L73.0032 17.4963H65.9541L65.3892 20.4267H73.681L72.958 23.9295H60.2831L63.4462 7.90386H75.8274L75.127 11.4066H67.1515Z" fill="white"/>
<path d="M86.8502 20.8159H80.1174L78.2873 23.9295H73.5652L83.7097 7.90386H88.1155L91.9338 23.9295H87.4828L86.8502 20.8159ZM86.1724 17.4735L85.1105 12.2766L82.083 17.4735H86.1724Z" fill="white"/>
<path d="M114.734 7.90386L111.616 23.9295H107.481L109.108 15.4817L103.844 22.3498H101.878L99.0085 15.4817L97.3366 23.9295H93.2246L96.3877 7.90386H100.025L103.731 17.1758L110.915 7.90386H114.734Z" fill="white"/>
<path d="M121.717 11.4066L121.017 14.9322H127.998L127.298 18.435H120.339L119.255 23.9295H114.781L117.944 7.90386H130.325L129.625 11.4066H121.717Z" fill="white"/>
<path d="M140.046 20.8159H133.314L131.484 23.9295H126.761L136.906 7.90386H141.312L145.13 23.9295H140.679L140.046 20.8159ZM139.369 17.4735L138.307 12.2766L135.279 17.4735H139.369Z" fill="white"/>
<path d="M152.318 24.25C151.007 24.25 149.765 24.0898 148.59 23.7692C147.415 23.4487 146.458 23.0366 145.72 22.533L147.483 19.1447C148.281 19.6636 149.132 20.0604 150.036 20.3352C150.94 20.5946 151.843 20.7244 152.747 20.7244C153.606 20.7244 154.268 20.6023 154.735 20.3581C155.217 20.0986 155.458 19.7476 155.458 19.305C155.458 18.9234 155.24 18.6258 154.803 18.4121C154.381 18.1984 153.719 17.9695 152.815 17.7253C151.791 17.4506 150.94 17.1758 150.262 16.9011C149.584 16.6111 148.997 16.1761 148.499 15.5962C148.017 15.0162 147.776 14.2531 147.776 13.3068C147.776 12.1621 148.085 11.1624 148.703 10.3077C149.32 9.43774 150.201 8.76619 151.346 8.29305C152.491 7.81991 153.832 7.58334 155.368 7.58334C156.498 7.58334 157.552 7.70544 158.531 7.94964C159.51 8.17858 160.354 8.51436 161.061 8.95697L159.435 12.3224C158.817 11.9255 158.132 11.6279 157.379 11.4295C156.641 11.2158 155.88 11.109 155.097 11.109C154.208 11.109 153.508 11.254 152.996 11.544C152.498 11.834 152.25 12.2079 152.25 12.6658C152.25 13.0626 152.468 13.3678 152.905 13.5815C153.342 13.7952 154.02 14.0241 154.939 14.2683C155.963 14.5278 156.806 14.7949 157.469 15.0696C158.147 15.3443 158.727 15.7641 159.209 16.3288C159.691 16.8935 159.932 17.6337 159.932 18.5495C159.932 19.6789 159.615 20.6786 158.983 21.5485C158.365 22.4032 157.477 23.0672 156.317 23.5403C155.172 24.0134 153.839 24.25 152.318 24.25Z" fill="white"/>
<path d="M166.635 11.4982H161.778L162.501 7.90386H176.667L175.944 11.4982H171.109L168.646 23.9295H164.172L166.635 11.4982Z" fill="white"/>
</svg>
