<svg xmlns="http://www.w3.org/2000/svg" width="20" height="20" viewBox="0 0 20 20"><g><g><path fill="#ffa800" d="M19.414 1.443c.324 0 .586.263.586.586 0 2.626-.686 5.103-1.932 6.975-1.232 1.851-2.872 2.913-4.644 3.016a6.012 6.012 0 0 1-1.269 1.066v2.604h.983c1.188 0 2.155.967 2.155 2.155v.983h.042a.586.586 0 1 1 0 1.172H4.665a.586.586 0 1 1 0-1.172h.042v-.983c0-1.188.967-2.155 2.155-2.155h.983v-2.604a6.018 6.018 0 0 1-1.269-1.066c-1.772-.103-3.412-1.165-4.644-3.016C.686 7.132 0 4.654 0 2.03c0-.323.262-.586.586-.586h2.566c-.009-.284-.014-.57-.014-.857C3.138.262 3.4 0 3.724 0h12.552c.324 0 .586.262.586.586 0 .287-.005.573-.015.857zM5.527 10.61c-.17-.278-.333-.573-.489-.885-.981-1.962-1.609-4.434-1.82-7.109H1.184c.092 2.176.696 4.196 1.724 5.74.743 1.117 1.645 1.886 2.62 2.254zm8.594 7.236a.984.984 0 0 0-.983-.983H6.862a.984.984 0 0 0-.983.983v.983h8.242zm-3.138-4.25a3.85 3.85 0 0 1-1.966 0v2.095h1.966zm1.687-2.486a.574.574 0 0 1 .075-.087A9.251 9.251 0 0 0 13.914 9.2c1.076-2.154 1.698-4.986 1.77-8.028H4.316c.07 3.042.692 5.874 1.77 8.028a9.24 9.24 0 0 0 1.168 1.822.589.589 0 0 1 .074.087c.42.482.865.849 1.325 1.092a2.835 2.835 0 0 0 1.346.351 2.834 2.834 0 0 0 1.346-.351c.46-.243.904-.61 1.324-1.092zm6.146-8.494h-2.034c-.211 2.675-.839 5.147-1.82 7.109-.156.312-.32.607-.49.885.975-.368 1.877-1.137 2.62-2.254 1.028-1.544 1.632-3.564 1.724-5.74z"/></g></g></svg>