<?xml version="1.0" standalone="no"?>
<!DOCTYPE svg PUBLIC "-//W3C//DTD SVG 20010904//EN"
 "http://www.w3.org/TR/2001/REC-SVG-20010904/DTD/svg10.dtd">
<svg version="1.0" xmlns="http://www.w3.org/2000/svg"
 width="800.000000pt" height="800.000000pt" viewBox="0 0 800.000000 800.000000"
 preserveAspectRatio="xMidYMid meet">
<metadata>
Created by potrace 1.11, written by Peter Selinger 2001-2013
</metadata>
<g transform="translate(0.000000,800.000000) scale(0.100000,-0.100000)"
fill="#000000" stroke="none">
<path d="M2183 6724 l0 -466 724 -724 c399 -398 728 -724 731 -724 4 0 7 219
7 487 l0 488 620 -1 c560 -1 705 -5 777 -20 13 -2 39 -7 58 -10 19 -3 62 -12
95 -21 33 -8 65 -16 70 -18 141 -33 347 -133 487 -237 88 -65 264 -236 314
-303 16 -22 32 -42 35 -45 31 -25 176 -287 204 -370 1 -3 4 -12 8 -20 18 -47
56 -173 61 -205 4 -20 8 -41 11 -45 3 -4 7 -23 9 -42 3 -18 7 -45 10 -58 38
-155 37 -678 -1 -780 -3 -8 -6 -31 -8 -50 -2 -19 -10 -62 -19 -95 -19 -69 -24
-88 -30 -112 -8 -30 -45 -133 -53 -146 -4 -6 -9 -21 -10 -31 -2 -11 -10 -27
-17 -35 -8 -9 -18 -28 -21 -43 -4 -16 -12 -28 -18 -28 -6 0 -8 -3 -5 -6 5 -4
-37 -82 -72 -134 -99 -146 -220 -279 -328 -362 -23 -18 -42 -36 -42 -40 0 -4
-6 -8 -14 -8 -8 0 -16 -4 -18 -8 -1 -4 -32 -26 -68 -48 -191 -120 -397 -196
-615 -228 -16 -3 -52 -8 -80 -12 -27 -5 -340 -9 -695 -9 l-645 0 -2 395 c0
217 -2 408 -2 424 -1 27 -73 -42 -730 -698 l-728 -728 -1 -382 c0 -209 1 -390
3 -401 4 -20 11 -20 1377 -18 755 0 1402 4 1438 7 36 4 88 8 115 11 28 2 66 7
85 10 19 3 53 8 74 11 70 9 268 53 361 79 50 14 97 27 105 29 68 19 376 147
420 176 8 5 33 18 55 30 85 43 309 185 340 216 7 8 17 14 22 14 4 0 25 16 45
35 20 19 39 35 43 35 3 0 16 10 29 23 13 12 46 41 73 64 104 88 276 268 385
403 50 63 198 267 198 274 0 3 13 24 29 48 50 76 141 246 141 265 0 6 4 13 8
15 8 3 121 265 126 292 1 6 15 49 30 96 32 95 74 257 82 310 2 19 9 51 14 70
5 19 11 53 14 75 3 22 10 72 15 110 13 92 24 208 25 270 1 28 5 55 8 61 4 6 5
14 1 17 -7 8 -10 77 -3 77 7 0 4 120 -3 127 -3 3 -2 15 3 28 5 13 6 26 2 29
-3 4 -7 41 -8 84 -3 88 -10 191 -18 242 -3 19 -8 57 -11 83 -3 26 -10 71 -16
100 -5 29 -12 63 -14 77 -9 47 -14 72 -19 88 -3 9 -7 29 -10 43 -22 127 -181
576 -208 587 -4 2 -8 10 -8 18 0 17 -76 161 -127 242 -18 29 -33 54 -33 57 0
11 -184 269 -210 295 -3 3 -30 34 -59 70 -83 98 -212 231 -338 346 -36 34 -47
42 -128 107 -33 27 -67 54 -77 62 -37 30 -207 141 -283 184 -78 46 -288 151
-299 151 -4 0 -25 9 -49 19 -59 28 -247 92 -247 84 0 -3 -6 -1 -12 4 -7 6 -53
20 -101 32 -84 21 -102 25 -157 36 -14 3 -36 7 -50 10 -65 12 -78 15 -120 20
-25 4 -58 8 -74 11 -16 3 -58 7 -93 8 -36 2 -67 7 -70 9 -3 3 -638 6 -1412 7
l-1408 1 0 -467z"/>
<path d="M1106 4755 l-864 -864 859 -858 c472 -472 862 -859 867 -861 5 -1
396 385 870 858 l861 861 -864 864 -864 863 -865 -863z"/>
</g>
</svg>
