<?xml version="1.0" standalone="no"?>
<!DOCTYPE svg PUBLIC "-//W3C//DTD SVG 20010904//EN"
 "http://www.w3.org/TR/2001/REC-SVG-20010904/DTD/svg10.dtd">
<svg version="1.0" xmlns="http://www.w3.org/2000/svg"
 width="73.000000pt" height="73.000000pt" viewBox="0 0 73.000000 73.000000"
 preserveAspectRatio="xMidYMid meet">
<metadata>
Created by potrace 1.11, written by Peter Selinger 2001-2013
</metadata>
<g transform="translate(0.000000,73.000000) scale(0.100000,-0.100000)"
fill="#000000" stroke="none">
<path d="M272 698 c-7 -7 -12 -8 -12 -4 0 5 -7 3 -15 -4 -8 -7 -15 -9 -15 -5
0 4 -11 0 -25 -9 -14 -9 -25 -13 -25 -9 0 4 -7 -2 -15 -13 -8 -10 -15 -16 -15
-12 0 3 -16 -10 -35 -29 -96 -96 -129 -247 -82 -372 23 -64 27 -69 88 -132 42
-42 149 -108 149 -92 0 4 5 2 12 -5 8 -8 53 -12 135 -12 110 0 127 2 164 24
61 34 128 103 122 127 -4 15 -9 17 -26 7 -12 -6 -35 -24 -52 -40 -16 -15 -42
-34 -57 -41 -16 -6 -28 -15 -28 -18 0 -3 -6 -6 -12 -7 -7 0 -29 -3 -48 -6 -39
-6 -66 6 -56 23 4 6 12 8 18 4 14 -8 78 -11 78 -3 0 3 10 10 22 15 12 6 22 17
24 25 1 13 -11 15 -67 14 -38 -1 -72 2 -74 6 -6 10 -81 -4 -98 -18 -22 -18
-60 -20 -84 -4 -13 8 -23 12 -23 9 0 -3 -19 12 -43 33 -42 38 -96 120 -80 120
4 0 2 4 -5 9 -16 10 -25 178 -11 187 5 3 7 10 4 15 -4 5 -2 9 4 9 6 0 8 6 5
14 -3 7 2 20 10 29 9 9 16 20 16 24 0 11 96 113 107 115 18 1 52 17 58 27 8
15 2 14 -13 -1z"/>
<path d="M350 690 c0 -3 -10 -6 -21 -7 -35 -3 -90 -33 -132 -72 -42 -38 -87
-117 -87 -151 0 -11 -3 -20 -7 -20 -10 0 -10 -76 -1 -85 4 -4 3 -17 -3 -28 -8
-14 -8 -18 0 -13 7 5 11 -2 11 -18 0 -14 5 -26 10 -26 6 0 10 -9 10 -20 0 -11
4 -20 9 -20 6 0 6 13 1 33 -13 46 -18 127 -8 133 4 3 8 18 8 35 0 16 4 29 8
29 4 0 13 15 20 33 7 19 30 51 52 71 94 87 209 102 315 41 36 -21 106 -87 105
-100 0 -3 6 -18 15 -34 8 -16 16 -43 17 -60 1 -17 5 -31 9 -31 7 0 5 -20 -6
-87 -4 -22 9 -31 19 -15 9 16 18 67 17 102 -2 38 -7 85 -10 85 -2 0 -4 8 -6
18 -11 58 -82 140 -154 176 -49 25 -191 48 -191 31z"/>
<path d="M364 530 c-14 -3 -21 -14 -21 -32 -3 -79 0 -75 -44 -73 -50 2 -66
-13 -63 -57 1 -18 3 -40 3 -48 1 -12 13 -16 48 -17 52 -2 60 -10 57 -55 -3
-45 8 -54 62 -52 54 2 62 11 59 65 -2 41 4 45 65 40 30 -2 43 17 43 63 0 26
-3 49 -6 53 -4 3 -28 6 -54 7 l-48 1 -1 48 c0 26 -3 50 -6 52 -8 8 -70 12 -94
5z"/>
<path d="M665 250 c-3 -5 -2 -10 4 -10 5 0 13 5 16 10 3 6 2 10 -4 10 -5 0
-13 -4 -16 -10z"/>
</g>
</svg>
