<svg width="40" height="50" viewBox="0 0 40 50" fill="none" xmlns="http://www.w3.org/2000/svg">
<path d="M0 3.05176e-05H40V50L20 40L0 50V3.05176e-05Z" fill="url(#paint0_linear)"/>
<path d="M0 3.05176e-05H40V50L20 40L0 50V3.05176e-05Z" fill="url(#paint1_linear)"/>
<path fill-rule="evenodd" clip-rule="evenodd" d="M15.1511 23.4077H12.3593C12.1402 23.4077 11.9645 23.5946 11.9645 23.8248C11.9645 23.8248 11.9653 23.8248 11.9653 23.8274H11.9645V25.9209H11.9653L11.9645 25.9227C11.9645 26.152 12.1402 26.3407 12.3593 26.3407H15.1511V27.7373H11.6673V27.7338C11.0973 27.7338 10.6363 27.2493 10.6363 26.652V23.0923C10.6363 22.4981 11.0973 22.0137 11.6673 22.0137H15.1511V23.4077Z" fill="white"/>
<path fill-rule="evenodd" clip-rule="evenodd" d="M16.159 19.5203C16.159 20.1292 15.6908 20.619 15.114 20.619H10.6331V19.2036H14.411C14.6334 19.2036 14.8117 19.0126 14.8117 18.7802V14.1017C14.8117 13.8684 14.6334 13.6793 14.411 13.6793H12.3807C12.1587 13.6793 11.98 13.8684 11.98 14.1017V16.2309C11.98 16.4646 12.1587 16.6542 12.3807 16.6542H14.0027V18.0696H11.6777C11.0996 18.0696 10.6331 17.5789 10.6331 16.9718V13.3612C10.6331 12.7546 11.0996 12.263 11.6777 12.263H15.114C15.6908 12.263 16.159 12.7546 16.159 13.3612V19.5203Z" fill="white"/>
<path fill-rule="evenodd" clip-rule="evenodd" d="M29.3628 27.7338H28.035V23.4077H27.102C26.8825 23.4077 26.7068 23.5946 26.7068 23.8248V27.7338H25.379V23.4077H24.4455C24.2257 23.4077 24.0499 23.5946 24.0499 23.8248V27.7373H22.7226V23.0923C22.7226 22.4981 23.1823 22.0137 23.7524 22.0137H29.3628V27.7338Z" fill="white"/>
<path fill-rule="evenodd" clip-rule="evenodd" d="M29.3665 19.5203C29.3665 20.1292 28.8979 20.619 28.3219 20.619H23.8406V19.2036H27.6185C27.8418 19.2036 28.0209 19.0126 28.0209 18.7802V14.1017C28.0209 13.8684 27.8418 13.6793 27.6185 13.6793H25.5886C25.3687 13.6793 25.1892 13.8684 25.1892 14.1017V16.2309C25.1892 16.4646 25.3687 16.6542 25.5886 16.6542H27.2097V18.0696H24.8861C24.3079 18.0696 23.8406 17.5789 23.8406 16.9718V13.3612C23.8406 12.7546 24.3079 12.263 24.8861 12.263H28.3219C28.8979 12.263 29.3665 12.7546 29.3665 13.3612V19.5203Z" fill="white"/>
<path fill-rule="evenodd" clip-rule="evenodd" d="M21.4125 16.2306C21.4125 16.4644 21.2381 16.6544 21.0152 16.6544H18.9857C18.7629 16.6544 18.5846 16.4644 18.5846 16.2306V14.1015C18.5846 13.8682 18.7629 13.6795 18.9857 13.6795H21.0152C21.2381 13.6795 21.4125 13.8682 21.4125 14.1015V16.2306ZM21.7186 12.2632H18.2811C17.7038 12.2632 17.2373 12.7548 17.2373 13.3614V16.972C17.2373 17.5787 17.7038 18.0698 18.2811 18.0698H21.7186C22.2942 18.0698 22.7628 17.5787 22.7628 16.972V13.3614C22.7628 12.7548 22.2942 12.2632 21.7186 12.2632Z" fill="white"/>
<path fill-rule="evenodd" clip-rule="evenodd" d="M20.3315 25.9207C20.3315 26.1509 20.1558 26.3387 19.9376 26.3387C19.9355 26.3387 19.9351 26.3365 19.9329 26.3365V26.3387H17.9412V26.3365C17.9412 26.3365 17.9391 26.3387 17.937 26.3387C17.718 26.3387 17.5422 26.1509 17.5422 25.9207V23.8246C17.5422 23.5944 17.718 23.4075 17.937 23.4075H19.9376C20.1558 23.4075 20.3315 23.5944 20.3315 23.8246V25.9207ZM20.6299 22.0135H17.2442C16.6742 22.0135 16.214 22.4979 16.214 23.0921V26.6518C16.214 27.2491 16.6742 27.7336 17.2442 27.7336H20.6299C21.1979 27.7336 21.6589 27.2491 21.6589 26.6518V23.0921C21.6589 22.4979 21.1979 22.0135 20.6299 22.0135Z" fill="white"/>
<path d="M31.4898 30.1653C31.4898 30.5248 31.3518 30.8478 31.1277 31.0838C30.9036 31.3189 30.5958 31.4634 30.2545 31.4634H9.74549C9.40378 31.4634 9.09645 31.3189 8.87232 31.0838C8.64819 30.8478 8.51108 30.5248 8.51023 30.1653V9.83387C8.51108 9.47477 8.64819 9.15226 8.87232 8.91628C9.09645 8.6812 9.40378 8.53666 9.74549 8.53622H30.2545C30.5958 8.53666 30.9036 8.6812 31.1277 8.91628C31.3518 9.15226 31.4898 9.47477 31.4898 9.83387V30.1653ZM31.4881 8.53711C31.1731 8.20523 30.7359 8.00003 30.2545 8.00003H9.74549C9.26412 8.00003 8.8269 8.20523 8.51193 8.53711C8.19611 8.8681 8 9.32846 8 9.83387V30.1653C8 30.6712 8.19611 31.1315 8.51193 31.4625C8.8269 31.7939 9.26412 32 9.74549 32H30.2545C30.7359 32 31.1731 31.7939 31.4881 31.4625C31.8039 31.1315 32 30.6712 32 30.1653V9.83387C32 9.32846 31.8039 8.8681 31.4881 8.53711Z" fill="white"/>
<defs>
<linearGradient id="paint0_linear" x1="0" y1="3.05176e-05" x2="40" y2="50" gradientUnits="userSpaceOnUse">
<stop stop-color="#303C67"/>
<stop offset="1" stop-color="#0A0F22"/>
</linearGradient>
<linearGradient id="paint1_linear" x1="0" y1="3.05176e-05" x2="40" y2="50" gradientUnits="userSpaceOnUse">
<stop stop-color="#F1BFBF"/>
<stop offset="1" stop-color="#C89797"/>
</linearGradient>
</defs>
</svg>
