<svg width="40" height="50" viewBox="0 0 40 50" fill="none" xmlns="http://www.w3.org/2000/svg">
<path d="M0 3.05176e-05H40V50L20 40L0 50V3.05176e-05Z" fill="url(#paint0_linear)"/>
<path d="M0 3.05176e-05H40V50L20 40L0 50V3.05176e-05Z" fill="url(#paint1_linear)"/>
<path d="M19.6874 11.0242C19.7907 10.9693 19.9435 11.0101 19.979 11.1243C20.0173 11.2186 19.9511 11.3049 19.8968 11.3778C19.5126 11.8989 19.2577 12.5045 19.1372 13.131C19.0642 13.1608 19.0431 13.2341 19.0658 13.3032C19.1017 13.3158 19.138 13.3268 19.1747 13.3375C19.9203 13.2749 20.6767 13.2879 21.4108 13.4379C22.7464 13.6953 23.9947 14.342 24.9542 15.2667C25.9108 16.1819 26.5822 17.3677 26.8539 18.6364C27.1551 20.0101 26.9867 21.4724 26.3844 22.7518C25.1069 25.3644 22.9535 27.5742 20.3185 28.975C20.2335 29.0128 20.111 29.0143 20.0528 28.9334C19.9842 28.8486 20.0125 28.728 20.0803 28.6509C20.4358 28.1763 20.6839 27.6307 20.8188 27.0618C20.8447 26.9439 20.8802 26.8244 20.8694 26.703C20.8259 26.6487 20.7541 26.6652 20.6931 26.6671C19.4141 26.7896 18.098 26.5709 16.9423 26.0302C15.7044 25.4595 14.654 24.5264 13.9594 23.3921C13.3159 22.3486 12.9776 21.1334 13.0012 19.9212C13.0055 18.8086 13.3227 17.7052 13.8812 16.7313C15.1814 14.3424 17.2227 12.3265 19.6874 11.0242ZM19.6156 17.4082C18.8548 17.5059 18.153 17.9336 17.727 18.5429C17.4385 18.9613 17.2638 19.4584 17.2674 19.9616C17.2459 20.6359 17.5267 21.3113 18.0134 21.7969C18.4387 22.2352 19.0295 22.5208 19.6491 22.5972C20.2798 22.677 20.9384 22.5357 21.4726 22.2039C22.0156 21.874 22.4293 21.3533 22.6144 20.7634C22.9619 19.7394 22.5454 18.5398 21.639 17.9072C21.0697 17.4926 20.3233 17.3086 19.6156 17.4082Z" fill="white"/>
<defs>
<linearGradient id="paint0_linear" x1="0" y1="3.05176e-05" x2="40" y2="50" gradientUnits="userSpaceOnUse">
<stop stop-color="#303C67"/>
<stop offset="1" stop-color="#0A0F22"/>
</linearGradient>
<linearGradient id="paint1_linear" x1="0" y1="3.05176e-05" x2="40" y2="50" gradientUnits="userSpaceOnUse">
<stop stop-color="#F1D1BF"/>
<stop offset="1" stop-color="#C8A897"/>
</linearGradient>
</defs>
</svg>
