<svg width="40" height="50" viewBox="0 0 40 50" fill="none" xmlns="http://www.w3.org/2000/svg">
<path d="M0 3.05176e-05H40V50L20 40L0 50V3.05176e-05Z" fill="url(#paint0_linear)"/>
<path d="M0 3.05176e-05H40V50L20 40L0 50V3.05176e-05Z" fill="url(#paint1_linear)"/>
<path d="M19.439 11C13.6594 11 11.1647 15.9739 11.1647 15.9739L11.899 16.4821C11.899 16.4821 10.9749 18.1812 11.0005 20.3605C11.0005 24.8092 14.6633 29 20.0553 29C24.9536 29 29 25.1453 29 20.3714C29 14.1453 24.0062 11 19.439 11ZM19.4891 12.5177C24.0047 12.5177 27.5087 16.0359 27.5087 20.1259C27.5087 24.4616 24.1359 27.4768 20.2057 27.4768C17.3131 27.4768 14.7038 25.3471 14.7038 22.4271C14.7038 20.7406 15.6309 19.5648 16.6698 18.9382L16.8219 19.0977C16.5376 19.3128 15.7268 20.5719 15.7268 21.8094C15.7268 24.1068 17.5903 25.6979 19.938 25.6979C22.9286 25.6979 24.9231 23.2318 24.9231 20.3683C24.9231 17.0367 21.8814 14.2083 18.221 14.2083C16.1964 14.2083 14.478 15.0501 13.4907 15.7933L13.337 15.6588C14.6288 13.7331 16.8658 12.5177 19.4891 12.5177ZM18.1418 15.7049C20.4776 15.7049 22.7582 17.199 23.3275 19.3198L23.1204 19.3956C22.0983 18.0906 20.4235 17.0092 18.4458 17.0092C14.8067 17.0092 12.8955 20.2064 13.176 22.8767L12.9617 22.9526C12.9617 22.9526 12.5598 22.0951 12.5598 21.0783C12.5598 18.1338 15.0608 15.7049 18.1418 15.7049ZM19.6857 19.4003C20.7916 19.4003 21.676 20.2669 21.676 21.2957C21.676 22.147 21.1107 22.6516 21.1107 22.6516L21.7803 23.1043C21.7803 23.1043 21.1163 24.1122 19.7609 24.1122C18.4643 24.1122 17.3176 23.1004 17.3176 21.7398C17.3176 20.3379 18.5649 19.4003 19.6857 19.4003Z" fill="white"/>
<defs>
<linearGradient id="paint0_linear" x1="0" y1="3.05176e-05" x2="40" y2="50" gradientUnits="userSpaceOnUse">
<stop stop-color="#303C67"/>
<stop offset="1" stop-color="#0A0F22"/>
</linearGradient>
<linearGradient id="paint1_linear" x1="0" y1="3.05176e-05" x2="40" y2="50" gradientUnits="userSpaceOnUse">
<stop stop-color="#BFCAF1"/>
<stop offset="1" stop-color="#97A1C8"/>
</linearGradient>
</defs>
</svg>
