<svg xmlns="http://www.w3.org/2000/svg" width="15" height="15" viewBox="0 0 15 15"><g><g><path fill="#828282" d="M15 7.5c0 4.135-3.365 7.5-7.5 7.5S0 11.635 0 7.5 3.365 0 7.5 0C11.636 0 15 3.365 15 7.5zM8.09 9.493c0-.72-.23-1.152-.853-1.592-.267-.189-.509-.466-.513-.55 0-.155.014-.23.361-.5.45-.352.697-.814.697-1.303 0-.442-.135-.837-.365-1.113h.178a.178.178 0 0 0 .103-.033l.499-.36a.175.175 0 0 0-.103-.318h-2.23c-.244 0-.492.043-.735.127-.813.28-1.381.973-1.381 1.684 0 1.006.78 1.77 1.823 1.794a.886.886 0 0 0 .089.68H5.63c-.994 0-1.891.488-2.232 1.214-.089.189-.134.38-.134.568 0 .183.047.36.14.525.214.383.673.68 1.295.837.32.081.665.122 1.024.122.321 0 .628-.041.911-.123.884-.257 1.456-.907 1.456-1.66zm3.581-2.166v-.361a.176.176 0 0 0-.175-.175H10.23V5.524a.175.175 0 0 0-.174-.175h-.361a.175.175 0 0 0-.176.175v1.267H8.25a.176.176 0 0 0-.175.175v.36c0 .098.079.176.175.176h1.267V8.77c0 .097.078.175.176.175h.36a.175.175 0 0 0 .175-.175V7.502h1.268a.175.175 0 0 0 .175-.175z"/></g></g></svg>