<svg xmlns="http://www.w3.org/2000/svg" width="15" height="15" viewBox="0 0 15 15"><g><g><path fill="#828282" d="M15 7.5c0 4.135-3.365 7.5-7.5 7.5S0 11.635 0 7.5 3.365 0 7.5 0C11.636 0 15 3.365 15 7.5zm-3.294-2.609c-.308.138-.642.23-.991.272.357-.214.63-.552.76-.956a3.446 3.446 0 0 1-1.097.42 1.726 1.726 0 0 0-2.942 1.575A4.902 4.902 0 0 1 3.88 4.396a1.725 1.725 0 0 0 .534 2.305 1.72 1.72 0 0 1-.782-.216v.022c0 .837.595 1.534 1.385 1.693a1.724 1.724 0 0 1-.78.029c.22.686.857 1.185 1.613 1.199a3.465 3.465 0 0 1-2.556.714c.764.49 1.671.775 2.646.775 3.176 0 4.912-2.63 4.912-4.91 0-.075-.002-.15-.005-.225.337-.242.63-.546.86-.892z"/></g></g></svg>