<svg width="24" height="24" viewBox="0 0 24 24" fill="none" xmlns="http://www.w3.org/2000/svg">
<path d="M11.9771 8.59065C11.9771 8.59065 14.2001 5.22769 12.7334 2.90449C12.1712 2.01419 10.9698 1.73342 10.0497 2.27735C9.39042 2.66713 9.05463 3.37456 9.12406 4.07177C8.51459 3.69385 7.71089 3.66014 7.05159 4.04983C6.13155 4.59376 5.8414 5.75639 6.40346 6.64672C7.87028 8.96993 11.9771 8.59065 11.9771 8.59065Z" fill="white"/>
<path d="M12.8964 10.0468C12.8964 10.0468 10.6734 13.4097 12.1401 15.733C12.7023 16.6233 13.9038 16.9041 14.8239 16.3601C15.4831 15.9703 15.8189 15.2629 15.7494 14.5657C16.3589 14.9437 17.1626 14.9774 17.8219 14.5876C18.7419 14.0437 19.0321 12.881 18.47 11.9908C17.0033 9.6675 12.8964 10.0468 12.8964 10.0468Z" fill="white"/>
<path d="M19.7135 7.00887C19.3107 6.37088 18.5796 6.04595 17.859 6.11313C18.2496 5.52337 18.2845 4.74565 17.8818 4.10771C17.3196 3.21742 16.1182 2.93661 15.1981 3.4805C12.7974 4.89989 13.1892 8.87392 13.1892 8.87392C13.1892 8.87392 16.6645 11.0251 19.0654 9.60576C19.9853 9.06183 20.2755 7.89916 19.7135 7.00887Z" fill="white"/>
<path d="M7.01449 12.5244C6.6239 13.1141 6.58902 13.8919 6.99186 14.5298C7.55392 15.42 8.75544 15.7008 9.6754 15.1569C12.0763 13.7376 11.6844 9.7635 11.6844 9.7635C11.6844 9.7635 8.20915 7.61231 5.80821 9.03174C4.88821 9.57563 4.59802 10.7383 5.16016 11.6286C5.56295 12.2666 6.29398 12.5915 7.01449 12.5244Z" fill="white"/>
<path d="M11.0847 14.5957C11.0579 14.6537 11.0303 14.7182 10.9968 14.787C10.9618 14.8552 10.9269 14.9295 10.883 15.0061C10.7994 15.1609 10.6951 15.3297 10.5708 15.5055C10.4468 15.6814 10.3023 15.864 10.1379 16.046C9.97356 16.2283 9.78944 16.41 9.58884 16.5864C9.38841 16.7628 9.17163 16.9338 8.94343 17.0966C8.71477 17.2589 8.47445 17.4128 8.22854 17.557C7.73661 17.8455 7.21998 18.0927 6.72483 18.2972C6.22977 18.5022 5.75583 18.6645 5.34704 18.7888C4.938 18.9131 4.59395 18.9991 4.3563 19.053C4.23753 19.0798 4.14527 19.0987 4.08463 19.1103C4.05551 19.1155 4.03312 19.1196 4.01812 19.1222C4.01028 19.1237 4.00785 19.1236 4.00568 19.1238C4.00358 19.124 3.99951 19.1248 4.00005 19.1247L4.58335 21C4.58335 21 4.59514 20.9956 4.61794 20.987C4.63745 20.979 4.6665 20.9671 4.70437 20.9517C4.77721 20.921 4.88032 20.8763 5.00853 20.8178C5.26487 20.7007 5.62154 20.5277 6.03571 20.3009C6.44972 20.074 6.92153 19.7934 7.40533 19.4628C7.88906 19.1327 8.38502 18.7526 8.84426 18.334C9.07398 18.1248 9.29479 17.9068 9.50081 17.6827C9.70646 17.4581 9.89732 17.2278 10.0689 16.9964C10.2406 16.7651 10.3926 16.5327 10.5229 16.3057C10.6534 16.0789 10.7618 15.8576 10.8498 15.6497C10.9379 15.4418 11.0063 15.2476 11.0563 15.0733C11.0834 14.9869 11.1025 14.9041 11.1222 14.8289C11.1407 14.7531 11.1541 14.6828 11.1679 14.62C11.191 14.4931 11.2077 14.3939 11.2153 14.3257C11.2242 14.2578 11.2288 14.2216 11.2288 14.2216C11.2288 14.2216 11.2164 14.2561 11.1932 14.3207C11.1714 14.3853 11.1336 14.4786 11.0847 14.5957Z" fill="white"/>
</svg>
