<?xml version="1.0" encoding="utf-8"?>
<!-- Generator: Adobe Illustrator 22.0.0, SVG Export Plug-In . SVG Version: 6.00 Build 0)  -->
<svg version="1.1" id="Слой_1" xmlns="http://www.w3.org/2000/svg" xmlns:xlink="http://www.w3.org/1999/xlink" x="0px" y="0px"
	 viewBox="0 0 448 448" style="enable-background:new 0 0 448 448;" xml:space="preserve">
<path d="M280,56c0,30.9-25.1,56-56,56s-56-25.1-56-56s25.1-56,56-56S280,25.1,280,56z"/>
<path d="M280,392c0,30.9-25.1,56-56,56s-56-25.1-56-56s25.1-56,56-56S280,361.1,280,392z"/>
<path d="M280,224c0,30.9-25.1,56-56,56s-56-25.1-56-56s25.1-56,56-56S280,193.1,280,224z"/>
<path d="M448,56c0,30.9-25.1,56-56,56s-56-25.1-56-56s25.1-56,56-56S448,25.1,448,56z"/>
<path d="M448,392c0,30.9-25.1,56-56,56s-56-25.1-56-56s25.1-56,56-56S448,361.1,448,392z"/>
<path d="M448,224c0,30.9-25.1,56-56,56s-56-25.1-56-56s25.1-56,56-56S448,193.1,448,224z"/>
<path d="M112,56c0,30.9-25.1,56-56,56S0,86.9,0,56S25.1,0,56,0S112,25.1,112,56z"/>
<path d="M112,392c0,30.9-25.1,56-56,56S0,422.9,0,392s25.1-56,56-56S112,361.1,112,392z"/>
<path d="M112,224c0,30.9-25.1,56-56,56S0,254.9,0,224s25.1-56,56-56S112,193.1,112,224z"/>
</svg>
