<?xml version="1.0" standalone="no"?>
<!DOCTYPE svg PUBLIC "-//W3C//DTD SVG 20010904//EN"
 "http://www.w3.org/TR/2001/REC-SVG-20010904/DTD/svg10.dtd">
<svg version="1.0" xmlns="http://www.w3.org/2000/svg"
 width="2083.000000pt" height="417.000000pt" viewBox="0 0 2083.000000 417.000000"
 preserveAspectRatio="xMidYMid meet">

<g transform="translate(0.000000,417.000000) scale(0.100000,-0.100000)"
fill="#000000" stroke="none">
<path d="M0 3065 c0 -575 2 -1045 5 -1045 3 0 266 133 586 296 319 163 584
292 588 288 5 -5 143 -307 307 -671 164 -365 304 -663 309 -663 6 0 130 36
277 81 l266 80 316 -210 c174 -116 318 -211 321 -211 3 0 5 698 5 1550 l0
1550 -1490 0 -1490 0 0 -1045z m425 313 c44 -39 46 -141 4 -186 -17 -19 -31
-22 -89 -22 l-70 0 0 115 0 115 64 0 c53 0 70 -4 91 -22z m130 0 c3 -13 5 -63
3 -113 -3 -76 -6 -90 -20 -93 -16 -3 -18 7 -18 112 0 96 3 116 15 116 8 0 17
-10 20 -22z m483 10 c14 -14 16 -96 3 -117 -6 -9 -28 -14 -63 -15 l-53 -1 -3
-42 c-3 -35 -7 -43 -23 -43 -18 0 -19 8 -19 115 l0 115 73 0 c43 0 78 -5 85
-12z m180 -84 c2 -28 -2 -47 -12 -57 -20 -20 -20 -31 -1 -47 20 -17 19 -30 -2
-30 -10 0 -31 16 -46 35 -35 44 -47 44 -47 -1 0 -28 -3 -35 -17 -32 -15 3 -18
16 -21 82 -2 43 1 83 7 89 6 8 31 10 73 7 l63 -5 3 -41z m197 -39 l0 -90 -75
0 -75 0 -3 79 c-2 44 -1 85 2 93 4 10 24 13 78 11 l73 -3 0 -90z m197 78 c36
-41 30 -139 -9 -169 -10 -7 -43 -14 -75 -14 l-58 0 0 100 0 100 63 0 c48 0 68
-4 79 -17z m98 -58 l0 -75 40 0 40 0 0 75 c0 68 2 75 20 75 18 0 20 -7 20 -72
0 -119 -1 -119 -79 -116 l-66 3 -3 93 c-2 77 0 92 13 92 12 0 15 -14 15 -75z
m301 53 c11 -17 11 -29 0 -47 -10 -16 -31 -6 -31 15 0 9 -11 14 -35 14 l-35 0
0 -55 c0 -55 0 -55 31 -55 18 0 37 7 44 17 14 19 35 9 35 -17 0 -32 -28 -50
-79 -50 -26 0 -52 5 -59 12 -14 14 -16 159 -3 174 15 14 122 8 132 -8z m174 2
c0 -8 -11 -17 -25 -20 -23 -5 -25 -11 -30 -75 -4 -53 -9 -70 -20 -70 -12 0
-16 16 -18 73 -3 69 -4 72 -27 72 -19 0 -25 5 -25 20 0 19 5 21 73 18 55 -2
72 -6 72 -18z m90 -75 c0 -62 -4 -90 -12 -92 -10 -4 -13 19 -13 92 0 73 3 96
13 93 8 -3 12 -31 12 -93z m209 79 c3 -9 6 -49 6 -90 0 -71 -1 -75 -26 -84
-43 -17 -102 -12 -124 10 -16 16 -20 33 -20 81 0 91 7 99 89 99 54 0 70 -4 75
-16z m133 -45 l48 -62 3 62 c2 45 7 61 17 61 12 0 15 -19 15 -95 0 -115 -9
-120 -72 -40 -23 30 -47 55 -51 55 -5 0 -8 -19 -7 -42 3 -63 1 -68 -15 -68
-12 0 -15 17 -15 95 0 116 9 120 77 34z"/>
<path d="M310 3285 c0 -71 9 -83 55 -71 39 10 60 50 49 94 -9 36 -11 37 -56
40 l-48 3 0 -66z"/>
<path d="M924 3351 c-2 -2 -4 -15 -4 -28 0 -22 3 -24 43 -21 34 2 43 7 45 24
3 19 -3 22 -38 26 -23 2 -43 2 -46 -1z"/>
<path d="M1110 3295 c0 -22 4 -25 35 -25 31 0 35 3 35 25 0 22 -4 25 -35 25
-31 0 -35 -3 -35 -25z"/>
<path d="M1300 3264 l0 -55 43 3 42 3 3 53 3 52 -45 0 -46 0 0 -56z"/>
<path d="M1510 3265 l0 -55 35 0 c37 0 55 20 55 62 0 33 -18 48 -57 48 l-33 0
0 -55z"/>
<path d="M2360 3265 l0 -55 45 0 45 0 0 55 0 55 -45 0 -45 0 0 -55z"/>
<path d="M4432 2363 l3 -528 255 1 c269 0 318 7 412 55 122 62 204 224 215
423 14 268 -86 476 -265 548 -54 21 -73 23 -340 26 l-282 3 2 -528z m533 320
c48 -25 65 -43 96 -103 20 -40 24 -63 27 -192 4 -129 1 -156 -17 -217 -24 -78
-64 -123 -128 -140 -21 -6 -95 -11 -165 -11 l-128 0 0 346 0 347 138 -5 c113
-4 144 -8 177 -25z"/>
<path d="M5492 2798 l3 -93 103 -3 102 -3 0 96 0 95 -105 0 -106 0 3 -92z"/>
<path d="M6312 2363 l3 -528 105 0 105 0 3 198 2 197 113 0 c225 1 332 31 402
112 72 85 96 229 58 349 -21 66 -107 157 -168 179 -30 10 -117 15 -333 17
l-292 4 2 -528z m517 322 c65 -38 88 -117 53 -184 -33 -67 -57 -76 -213 -79
l-139 -4 0 147 0 147 133 -4 c110 -2 138 -6 166 -23z"/>
<path d="M9260 2704 l0 -186 -42 36 c-73 63 -175 81 -278 50 -42 -12 -67 -29
-114 -77 -86 -88 -101 -132 -101 -307 1 -170 19 -226 104 -311 114 -113 278
-121 395 -18 l45 40 3 -48 3 -48 95 0 95 0 3 528 2 527 -105 0 -105 0 0 -186z
m-101 -259 c73 -37 108 -130 98 -261 -9 -116 -59 -187 -141 -201 -74 -12 -153
44 -175 124 -14 51 -14 192 1 234 34 100 133 148 217 104z"/>
<path d="M11862 2798 l3 -93 103 -3 102 -3 0 96 0 95 -105 0 -106 0 3 -92z"/>
<path d="M11488 2812 l-98 -57 0 -77 0 -78 -50 0 -50 0 0 -80 0 -80 49 0 50 0
3 -259 c3 -295 4 -295 88 -338 51 -26 156 -30 225 -9 44 13 42 8 30 118 -6 56
-7 57 -31 48 -43 -17 -82 -12 -98 12 -13 19 -16 58 -16 225 l0 203 70 0 70 0
0 80 0 80 -70 0 -69 0 -3 134 -3 135 -97 -57z"/>
<path d="M7574 2602 c-22 -11 -55 -39 -72 -63 l-32 -43 0 52 0 52 -95 0 -95 0
2 -382 3 -383 100 0 100 0 6 240 c6 256 12 289 60 334 27 25 95 29 139 6 l28
-15 30 90 31 90 -31 16 c-49 25 -126 28 -174 6z"/>
<path d="M8103 2605 c-121 -34 -196 -96 -246 -203 -54 -115 -49 -284 11 -395
122 -227 489 -252 652 -45 161 203 93 513 -136 620 -79 37 -197 47 -281 23z
m212 -189 c53 -41 78 -102 77 -195 0 -92 -20 -149 -68 -191 -41 -36 -70 -44
-134 -38 -101 10 -152 80 -158 216 -4 74 -1 88 23 137 37 76 88 107 167 102
43 -2 65 -10 93 -31z"/>
<path d="M10749 2597 c-133 -45 -206 -140 -231 -301 -9 -59 -9 -93 0 -152 23
-145 81 -232 188 -285 56 -28 81 -34 154 -37 144 -7 246 36 314 131 32 44 65
132 54 142 -5 5 -163 35 -184 35 -6 0 -14 -14 -18 -31 -15 -76 -72 -115 -157
-107 -60 6 -110 48 -128 107 -14 49 -14 208 0 252 43 129 227 145 270 24 7
-19 18 -35 24 -35 5 0 49 7 98 16 61 11 87 20 87 30 0 18 -35 89 -63 126 -71
96 -259 136 -408 85z"/>
<path d="M12513 2605 c-119 -32 -195 -95 -246 -203 -30 -63 -32 -73 -32 -182
0 -96 4 -124 23 -172 60 -149 212 -237 390 -226 108 7 180 37 248 103 160 156
163 427 7 583 -99 98 -248 135 -390 97z m212 -189 c53 -41 78 -102 78 -195 0
-91 -21 -148 -69 -191 -41 -36 -70 -44 -134 -38 -101 10 -152 80 -158 216 -4
74 -1 88 23 137 37 76 88 107 167 102 43 -2 65 -10 93 -31z"/>
<path d="M13525 2607 c-56 -19 -81 -33 -126 -74 l-39 -35 0 51 0 51 -95 0 -95
0 0 -385 0 -386 103 3 102 3 5 262 c5 244 6 263 26 289 49 66 131 92 192 60
55 -28 57 -38 62 -336 l5 -275 100 0 100 0 3 275 c3 296 -3 351 -43 412 -51
76 -199 118 -300 85z"/>
<path d="M5492 2218 l3 -383 100 0 100 0 3 383 2 382 -105 0 -105 0 2 -382z"/>
<path d="M9660 2312 c0 -340 5 -368 75 -430 24 -21 61 -44 83 -50 100 -30 226
-2 300 66 l41 38 3 -50 3 -51 93 -3 92 -3 0 386 0 385 -99 0 -99 0 -4 -253
c-3 -231 -5 -256 -24 -287 -30 -52 -78 -80 -136 -80 -60 0 -83 11 -105 53 -16
28 -18 68 -21 300 l-4 267 -99 0 -99 0 0 -288z"/>
<path d="M11862 2218 l3 -383 103 -3 102 -3 0 386 0 385 -105 0 -105 0 2 -382z"/>
<path d="M573 2259 l-573 -290 0 -195 c0 -107 3 -194 8 -194 4 0 257 83 562
185 305 102 557 181 561 177 3 -4 161 -200 349 -437 189 -236 345 -432 347
-434 2 -3 125 20 273 51 l270 55 187 -110 c104 -60 241 -140 306 -178 l117
-68 0 64 0 65 -317 211 c-175 117 -324 214 -333 216 -8 2 -134 -33 -280 -77
-145 -44 -270 -79 -278 -78 -7 2 -148 300 -312 663 -164 363 -302 661 -307
662 -4 1 -266 -128 -580 -288z"/>
<path d="M553 1713 l-553 -185 0 -164 c0 -94 4 -164 9 -164 5 0 247 25 538 55
290 30 546 56 568 57 38 2 55 -9 357 -236 l317 -238 297 45 297 46 299 -150
299 -150 -3 73 -3 73 -210 122 c-115 68 -254 148 -307 179 l-97 55 -258 -51
c-142 -28 -265 -53 -274 -56 -10 -3 -121 128 -363 431 -191 239 -351 437 -354
439 -4 2 -256 -80 -559 -181z"/>
<path d="M19565 1490 c-3 -5 -37 -10 -74 -10 -165 0 -221 -67 -221 -265 0
-121 19 -182 69 -228 87 -79 223 -50 272 57 21 46 25 139 8 183 -39 103 -170
142 -256 77 -38 -29 -43 -17 -19 40 21 51 50 66 126 66 94 0 136 14 148 49 6
16 8 32 5 35 -10 10 -51 7 -58 -4z m-57 -226 c33 -23 52 -67 52 -119 0 -128
-97 -190 -176 -111 -31 31 -34 39 -34 95 0 95 39 151 105 151 17 0 41 -7 53
-16z"/>
<path d="M4380 1214 l0 -265 38 3 37 3 3 233 2 232 135 0 135 0 0 -235 0 -235
35 0 35 0 0 265 0 265 -210 0 -210 0 0 -266z"/>
<path d="M5030 1339 c-13 -6 -32 -17 -41 -25 -15 -13 -17 -13 -22 6 -4 15 -13
20 -36 20 l-31 0 2 -267 3 -268 33 -3 32 -3 0 92 0 91 28 -18 c39 -26 109 -23
156 5 127 79 106 323 -33 370 -40 13 -57 13 -91 0z m93 -69 c42 -33 57 -109
36 -183 -19 -69 -72 -100 -130 -77 -46 19 -62 60 -57 148 3 69 6 76 36 103 38
35 79 37 115 9z"/>
<path d="M5421 1340 c-105 -25 -158 -152 -119 -282 22 -74 116 -128 197 -113
49 9 107 48 127 87 36 69 28 185 -17 249 -33 48 -122 75 -188 59z m104 -72
c53 -42 69 -122 39 -198 -36 -89 -145 -95 -189 -10 -19 37 -19 133 0 170 30
58 102 76 150 38z"/>
<path d="M6203 1339 c-36 -10 -83 -61 -83 -90 0 -31 47 -24 80 11 32 34 69 39
93 12 35 -39 17 -82 -39 -91 -33 -5 -39 -10 -39 -31 0 -22 5 -25 40 -28 71 -6
99 -59 53 -102 -31 -28 -83 -26 -113 5 -14 13 -25 29 -25 35 0 13 -57 13 -65
0 -9 -14 20 -65 51 -89 34 -27 99 -35 154 -19 85 26 116 123 59 184 -22 23
-22 24 -4 44 21 23 24 75 5 110 -13 24 -83 60 -115 59 -11 0 -34 -5 -52 -10z"/>
<path d="M6961 1340 c-78 -19 -124 -76 -129 -165 -6 -91 4 -130 44 -175 92
-102 269 -59 303 73 32 128 -20 240 -124 266 -49 12 -46 12 -94 1z m108 -76
c89 -75 46 -264 -61 -264 -68 0 -108 54 -108 147 0 120 91 183 169 117z"/>
<path d="M7768 1334 c-59 -18 -94 -62 -110 -137 -25 -117 27 -221 122 -247 95
-26 174 20 204 118 7 20 4 22 -28 22 -30 0 -37 -4 -42 -25 -9 -35 -50 -65 -91
-65 -74 0 -120 99 -93 199 26 98 125 124 172 45 18 -30 25 -35 47 -29 37 9 38
12 16 53 -36 65 -114 91 -197 66z"/>
<path d="M8856 1335 c-79 -28 -119 -91 -119 -190 0 -69 17 -115 56 -153 101
-97 268 -45 297 93 26 124 -26 226 -128 255 -47 13 -58 12 -106 -5z m137 -85
c24 -27 27 -37 27 -106 0 -73 -1 -77 -34 -110 -47 -47 -95 -47 -142 0 -33 33
-34 37 -34 109 0 61 4 79 21 101 44 55 115 58 162 6z"/>
<path d="M9867 1339 c-56 -13 -83 -35 -109 -87 -48 -100 -18 -240 62 -286 48
-28 139 -28 176 0 36 26 61 62 70 97 6 26 4 27 -30 27 -26 0 -36 -4 -36 -16 0
-25 -56 -74 -85 -74 -38 0 -79 24 -93 55 -7 14 -12 58 -12 96 0 67 2 73 34
105 23 23 43 34 64 34 32 0 82 -33 82 -55 0 -20 15 -27 45 -19 34 8 32 35 -5
77 -20 23 -45 38 -74 46 -25 6 -46 11 -48 10 -2 -1 -20 -5 -41 -10z"/>
<path d="M10595 1343 c-11 -3 -32 -14 -47 -25 -28 -19 -28 -19 -28 1 0 17 -6
21 -30 21 l-30 0 0 -271 0 -270 33 3 32 3 3 86 3 86 41 -20 c36 -18 46 -19 87
-8 87 23 130 91 131 202 0 110 -51 180 -140 192 -19 3 -44 3 -55 0z m88 -77
c33 -31 40 -60 35 -143 -4 -59 -7 -69 -36 -94 -98 -87 -204 50 -147 189 30 72
98 94 148 48z"/>
<path d="M10970 1337 c-50 -17 -74 -36 -101 -82 -32 -54 -33 -161 -1 -221 52
-100 188 -121 277 -43 40 35 58 83 58 154 0 71 -18 119 -58 154 -32 28 -91 52
-125 50 -8 0 -31 -6 -50 -12z m94 -57 c41 -15 66 -66 66 -133 0 -93 -40 -147
-108 -147 -105 0 -149 185 -62 263 32 28 62 33 104 17z"/>
<path d="M11377 1335 c-40 -14 -82 -47 -98 -77 -5 -10 -14 -40 -19 -68 -14
-73 3 -143 47 -191 62 -68 179 -75 252 -14 33 28 58 85 38 85 -7 0 -22 3 -33
6 -17 4 -26 -1 -40 -25 -49 -83 -175 -56 -191 43 l-6 36 142 0 141 0 0 28 c0
84 -53 161 -125 181 -50 14 -61 13 -108 -4z m112 -61 c19 -14 51 -69 51 -89 0
-3 -47 -5 -105 -5 -96 0 -105 2 -105 19 0 24 37 70 64 81 34 14 70 11 95 -6z"/>
<path d="M14847 1338 c-98 -27 -150 -150 -116 -273 38 -136 242 -167 320 -49
26 40 24 51 -13 59 -23 6 -33 4 -37 -6 -2 -8 -17 -26 -32 -41 -34 -35 -84 -37
-124 -6 -25 20 -55 73 -55 98 0 6 52 10 146 10 l146 0 -7 48 c-18 125 -114
192 -228 160z m103 -63 c33 -17 50 -43 50 -74 0 -20 -6 -21 -100 -21 -109 0
-116 5 -86 59 27 48 84 63 136 36z"/>
<path d="M15280 1339 c-13 -6 -32 -17 -41 -25 -15 -13 -17 -13 -22 6 -4 15
-13 20 -36 20 l-31 0 2 -267 3 -268 33 -3 32 -3 0 92 0 91 23 -14 c90 -59 199
-7 233 110 31 107 -8 215 -90 253 -46 21 -69 22 -106 8z m100 -79 c59 -63 46
-211 -21 -245 -91 -48 -164 42 -140 171 18 95 104 135 161 74z"/>
<path d="M16065 1343 c-53 -14 -87 -39 -113 -82 -22 -38 -27 -58 -27 -116 1
-86 23 -137 77 -173 80 -53 214 -27 253 48 21 41 19 48 -17 55 -23 6 -33 4
-37 -6 -11 -33 -60 -69 -94 -69 -39 0 -92 37 -101 70 -4 11 -9 29 -12 40 -5
19 -1 20 142 20 l147 0 -6 45 c-9 63 -40 119 -80 144 -35 21 -98 33 -132 24z
m85 -68 c33 -17 50 -43 50 -74 0 -20 -6 -21 -100 -21 -108 0 -112 3 -89 53 13
28 56 56 87 57 13 0 36 -7 52 -15z"/>
<path d="M16480 1339 c-13 -6 -32 -17 -41 -25 -15 -13 -17 -13 -22 6 -4 15
-13 20 -36 20 l-31 0 2 -267 3 -268 33 -3 32 -3 0 92 0 91 28 -18 c39 -26 109
-23 156 5 127 79 106 323 -33 370 -40 13 -57 13 -91 0z m93 -69 c42 -33 57
-109 36 -183 -19 -69 -72 -100 -130 -77 -46 19 -62 60 -57 148 3 69 6 76 36
103 38 35 79 37 115 9z"/>
<path d="M16871 1340 c-104 -25 -157 -150 -121 -282 20 -71 119 -128 199 -113
49 9 107 48 127 87 36 69 28 185 -17 249 -33 48 -122 75 -188 59z m108 -76
c69 -58 63 -212 -10 -250 -87 -45 -159 16 -159 133 0 120 91 183 169 117z"/>
<path d="M18990 1339 c-111 -33 -161 -189 -100 -310 50 -97 208 -116 286 -34
45 48 49 72 12 79 -25 5 -35 0 -68 -35 -37 -39 -42 -41 -82 -36 -53 7 -98 52
-98 97 l0 30 140 0 140 0 0 29 c0 64 -42 141 -90 166 -39 20 -98 26 -140 14z
m94 -59 c26 -10 49 -39 61 -77 6 -23 6 -23 -99 -23 -101 0 -106 1 -106 21 0
12 15 36 34 55 35 35 64 42 110 24z"/>
<path d="M19797 1336 c-78 -28 -116 -92 -117 -194 0 -75 16 -119 59 -155 86
-72 220 -52 274 41 22 38 22 37 -19 46 -26 6 -32 3 -44 -19 -16 -30 -58 -55
-90 -55 -53 0 -110 57 -110 110 0 19 6 20 140 20 l140 0 0 38 c0 43 -28 109
-58 135 -23 21 -87 46 -117 46 -11 0 -37 -6 -58 -13z m122 -73 c17 -16 33 -40
37 -55 l6 -28 -106 0 c-67 0 -106 4 -106 10 0 24 32 70 58 84 42 23 78 19 111
-11z"/>
<path d="M5720 1144 l0 -195 37 3 c37 3 40 7 123 141 l85 137 3 -140 3 -140
34 0 35 0 0 195 0 195 -37 0 c-38 0 -38 0 -123 -140 l-85 -140 -3 140 -3 140
-34 0 -35 0 0 -196z"/>
<path d="M6470 1145 l0 -195 98 0 c147 0 199 23 216 93 8 32 -17 92 -41 101
-14 6 -13 9 3 27 26 28 26 100 0 128 -27 30 -77 41 -183 41 l-93 0 0 -195z
m208 119 c26 -18 28 -41 5 -66 -12 -14 -31 -18 -80 -18 l-63 0 0 50 0 50 58 0
c36 0 66 -6 80 -16z m16 -157 c11 -8 19 -26 19 -42 0 -41 -26 -55 -105 -55
l-68 0 0 55 0 55 68 0 c41 0 75 -5 86 -13z"/>
<path d="M7295 1328 c-2 -7 -6 -53 -8 -103 -6 -116 -32 -195 -70 -213 -27 -13
-28 -15 -25 -90 3 -76 3 -77 31 -80 27 -3 27 -2 27 52 l0 56 150 0 150 0 0
-56 c0 -54 0 -55 28 -52 27 3 27 3 27 83 0 75 -1 80 -22 83 -23 3 -23 5 -23
168 l0 164 -130 0 c-96 0 -132 -3 -135 -12z m205 -183 l0 -135 -101 0 c-93 0
-101 1 -94 18 17 40 36 121 42 185 l6 67 73 0 74 0 0 -135z"/>
<path d="M8006 1332 c-3 -5 -2 -18 1 -30 5 -19 12 -22 64 -22 l59 0 0 -166 0
-165 33 3 32 3 3 163 2 162 60 0 c60 0 60 0 60 30 l0 30 -154 0 c-85 0 -157
-4 -160 -8z"/>
<path d="M8380 1145 l0 -195 98 0 c116 0 164 12 192 47 28 36 27 94 -5 131
-21 25 -22 31 -10 43 43 43 16 135 -45 156 -19 7 -79 12 -132 12 l-98 1 0
-195z m208 119 c26 -18 28 -41 5 -66 -12 -14 -31 -18 -80 -18 l-63 0 0 50 0
50 58 0 c36 0 66 -6 80 -16z m14 -161 c24 -22 24 -69 -1 -83 -11 -5 -49 -10
-85 -10 l-66 0 0 55 0 55 67 0 c48 0 72 -5 85 -17z"/>
<path d="M9370 1145 l0 -195 108 0 c128 0 181 18 201 69 17 41 7 95 -23 119
-23 18 -23 18 -5 41 42 52 11 131 -59 151 -20 5 -79 10 -129 10 l-93 0 0 -195z
m211 125 c12 -7 19 -21 19 -40 0 -38 -23 -50 -99 -50 l-61 0 0 50 0 50 61 0
c33 0 69 -5 80 -10z m19 -170 c50 -50 9 -90 -92 -90 l-68 0 0 55 0 55 70 0
c57 0 74 -4 90 -20z"/>
<path d="M10090 1310 l0 -30 60 0 60 0 0 -165 0 -165 35 0 35 0 0 165 0 165
60 0 60 0 0 30 0 30 -155 0 -155 0 0 -30z"/>
<path d="M11690 1145 l0 -195 30 0 30 0 0 85 0 85 90 0 90 0 0 -85 0 -85 35 0
35 0 0 195 0 195 -35 0 -35 0 0 -80 0 -80 -90 0 -90 0 0 80 0 80 -30 0 -30 0
0 -195z"/>
<path d="M12090 1145 l0 -195 35 0 35 0 0 85 0 85 85 0 84 0 3 -82 3 -83 33
-3 32 -3 0 196 0 196 -32 -3 -33 -3 -3 -77 -3 -78 -84 0 -85 0 0 80 0 80 -35
0 -35 0 0 -195z"/>
<path d="M12500 1145 l0 -195 103 0 c128 0 180 20 203 77 13 30 14 44 5 74
-17 56 -65 81 -162 87 l-79 5 0 73 0 74 -35 0 -35 0 0 -195z m218 -31 c14 -10
22 -26 22 -44 0 -42 -32 -60 -107 -60 l-63 0 0 60 0 60 63 0 c40 0 70 -5 85
-16z"/>
<path d="M12860 1145 l0 -195 35 0 35 0 0 195 0 195 -35 0 -35 0 0 -195z"/>
<path d="M13004 1325 c3 -8 30 -50 61 -94 l56 -81 -61 -86 c-80 -112 -81 -114
-36 -114 33 0 39 5 87 76 l51 77 49 -77 c47 -74 50 -76 89 -76 43 0 47 5 27
29 -8 9 -39 53 -70 97 l-57 81 65 86 c36 48 65 89 65 92 0 3 -17 5 -39 5 -36
0 -41 -4 -84 -66 l-46 -66 -43 66 c-41 62 -45 66 -82 66 -29 0 -37 -3 -32 -15z"/>
<path d="M13600 1146 l0 -196 35 0 c33 0 36 4 122 142 l88 142 3 -142 3 -143
32 3 32 3 0 190 0 190 -36 3 -35 3 -85 -138 -84 -138 -5 135 -5 135 -32 3 -33
3 0 -195z"/>
<path d="M14010 1145 l0 -195 35 0 35 0 0 85 0 85 85 0 85 0 0 -85 0 -85 35 0
35 0 0 195 0 195 -35 0 -35 0 0 -80 0 -80 -85 0 -85 0 0 80 0 80 -35 0 -35 0
0 -195z"/>
<path d="M14380 1310 l0 -30 60 0 60 0 0 -165 0 -165 35 0 35 0 0 165 0 165
60 0 60 0 0 30 0 30 -155 0 -155 0 0 -30z"/>
<path d="M15560 1144 l0 -196 119 3 c137 5 166 17 190 85 12 34 11 44 -2 76
-21 50 -64 70 -159 76 l-78 5 0 73 0 74 -35 0 -35 0 0 -196z m225 -39 c14 -13
25 -29 25 -35 0 -6 -11 -22 -25 -35 -21 -22 -33 -25 -90 -25 l-65 0 0 60 0 60
65 0 c57 0 69 -3 90 -25z"/>
<path d="M17170 1145 l0 -195 98 0 c151 0 204 23 218 96 7 35 -15 88 -41 98
-15 5 -14 9 4 32 44 56 14 134 -57 154 -20 5 -79 10 -129 10 l-93 0 0 -195z
m220 115 c31 -49 -2 -80 -86 -80 l-64 0 0 51 0 51 71 -4 c47 -2 73 -8 79 -18z
m10 -160 c11 -11 20 -27 20 -35 0 -8 -9 -24 -20 -35 -16 -16 -33 -20 -90 -20
l-70 0 0 55 0 55 70 0 c57 0 74 -4 90 -20z"/>
<path d="M17764 1327 c-2 -7 -3 -94 -2 -192 l3 -180 36 -3 36 -3 84 137 84
137 5 -134 5 -134 33 -3 32 -3 0 195 0 196 -34 0 c-33 0 -37 -4 -123 -142
l-88 -143 -3 143 -3 142 -30 0 c-16 0 -32 -6 -35 -13z"/>
<path d="M18380 1145 l0 -195 35 0 35 0 1 148 1 147 50 -148 50 -148 31 3 c29
3 32 7 81 142 l51 138 3 -141 3 -141 34 0 35 0 0 195 0 195 -48 0 -47 0 -54
-150 c-30 -82 -55 -150 -57 -150 -2 0 -24 68 -50 150 l-47 150 -54 0 -53 0 0
-195z"/>
<path d="M20115 1328 c-3 -7 -6 -80 -7 -163 l-3 -150 -33 -3 c-29 -3 -33 -6
-30 -30 3 -24 8 -27 44 -30 29 -2 47 3 67 18 l27 21 0 145 0 144 85 0 85 0 0
-165 0 -165 35 0 35 0 0 195 0 195 -150 0 c-111 0 -152 -3 -155 -12z"/>
<path d="M20510 1145 l0 -195 38 0 c37 0 37 0 124 143 l88 142 0 -142 0 -143
35 0 35 0 0 196 0 195 -37 -3 c-37 -3 -40 -6 -123 -142 l-85 -139 -3 142 -3
141 -34 0 -35 0 0 -195z"/>
<path d="M538 1212 l-538 -56 0 -172 c0 -159 1 -172 17 -168 10 2 283 49 606
104 l588 100 316 -175 315 -176 251 60 250 60 310 -140 c171 -76 314 -139 319
-139 4 0 8 16 8 35 l0 35 -297 150 -298 151 -150 -21 c-82 -11 -219 -31 -303
-44 l-153 -23 -317 238 c-278 210 -321 238 -352 238 -19 -1 -277 -27 -572 -57z"/>
<path d="M605 874 c-324 -57 -593 -103 -597 -103 -5 -1 -8 -161 -8 -356 l0
-355 1490 0 1490 0 0 198 0 199 -27 12 c-233 108 -608 271 -622 271 -10 0
-122 -25 -249 -55 -127 -30 -236 -55 -243 -55 -7 0 -141 71 -298 159 -157 87
-299 165 -316 173 -28 13 -73 7 -620 -88z"/>
</g>
</svg>
