<svg xmlns="http://www.w3.org/2000/svg" width="47" height="41" viewBox="0 0 47 41"><g><g><path fill="#fd7166" d="M25.33 1.095a3.1 3.1 0 0 1 4.396-.021c.75.75 1.062 1.812.854 2.854L28.6 13.47h11.772c4.479 0 7.5 4.583 5.75 8.708L39.33 38.032a4.196 4.196 0 0 1-3.833 2.52h-18.75a4.179 4.179 0 0 1-4.167-4.166V15.574c0-1.104.437-2.167 1.208-2.938zM.08 36.385V19.72a4.179 4.179 0 0 1 4.167-4.167 4.179 4.179 0 0 1 4.166 4.167v16.666a4.179 4.179 0 0 1-4.166 4.167A4.179 4.179 0 0 1 .08 36.386z"/></g></g></svg>