<svg xmlns="http://www.w3.org/2000/svg" width="41" height="42" viewBox="0 0 41 42"><g><g><path fill="#fd7166" d="M40.314 26.483c.396.312.5.875.25 1.333l-4.166 7.208c-.25.458-.792.646-1.271.458L29.939 33.4c-1.083.813-2.25 1.521-3.52 2.042l-.792 5.52c-.063.5-.5.876-1.02.876h-8.334c-.521 0-.959-.375-1.021-.875l-.792-5.521a15.221 15.221 0 0 1-3.52-2.042l-5.188 2.083c-.458.167-1.02 0-1.27-.458L.313 27.816c-.25-.458-.145-1.021.25-1.333l4.396-3.438a16.524 16.524 0 0 1-.146-2.042c0-.687.063-1.375.146-2.041L.564 15.524a1.027 1.027 0 0 1-.25-1.333l4.167-7.208c.25-.459.792-.646 1.27-.459l5.188 2.084c1.084-.813 2.25-1.521 3.521-2.042l.792-5.521c.062-.5.5-.875 1.02-.875h8.334c.52 0 .958.375 1.02.875l.793 5.52c1.27.522 2.437 1.21 3.52 2.043l5.188-2.084c.458-.166 1.02 0 1.27.459l4.167 7.208c.25.458.146 1.02-.25 1.333l-4.395 3.438c.083.666.145 1.333.145 2.041 0 .709-.062 1.375-.145 2.042zm-12.583-5.48c0-4.02-3.27-7.291-7.292-7.291-4.02 0-7.291 3.27-7.291 7.291 0 4.021 3.27 7.292 7.292 7.292 4.02 0 7.291-3.27 7.291-7.292z"/></g></g></svg>