<svg xmlns="http://www.w3.org/2000/svg" width="47" height="27" viewBox="0 0 47 27"><g><g><path fill="#fd7166" d="M34.398 4.044l-11.75 11.771-2.938-2.937 11.75-11.75a2.075 2.075 0 0 1 2.938 0c.791.791.791 2.125 0 2.916zm8.833-2.937a2.032 2.032 0 0 1 2.917.02h.02a2.075 2.075 0 0 1 0 2.938L24.107 26.107a2.075 2.075 0 0 1-2.938 0l-8.708-8.708a2.075 2.075 0 0 1 0-2.938 2.075 2.075 0 0 1 2.938 0l7.25 7.23zM.689 17.419a2.1 2.1 0 0 1 0-2.958 2.075 2.075 0 0 1 2.938 0l10.167 10.208-1.459 1.459a2.075 2.075 0 0 1-2.937 0z"/></g></g></svg>