<svg xmlns="http://www.w3.org/2000/svg" width="46" height="46" viewBox="0 0 46 46"><g><g><path fill="#fd7166" d="M34.684 20.476c.688.917 1.375 2.062 1.833 3.208.23.458.23.917 0 1.146L25.06 36.288c-.458.459-.917.459-1.375.23-1.146-.459-2.292-1.146-3.437-1.834-.917 3.438-.688 6.875.458 9.854-6.646-2.52-9.854-9.395-8.708-16.5C5.122 20.934.309 11.08.08 1.226.08.538.538.08 1.226.08c9.854.23 19.708 5.042 26.812 12.146 7.334-1.375 13.98 2.062 16.5 8.708-2.979-1.146-6.416-1.375-9.854-.458zM19.33 12.913c-1.833-1.833-4.583-1.833-6.417 0-1.833 1.834-1.833 4.584 0 6.417 1.834 1.833 4.584 1.833 6.417 0 1.833-1.833 1.833-4.583 0-6.417zM45.226 33.08c.917.917.917 2.292 0 3.208-.917.917-2.292.917-3.208 0l-4.813-4.812c-.917-.917-.917-2.292 0-3.208.917-.917 2.292-.917 3.208 0zm-8.938 8.938c.917.916.917 2.291 0 3.208-.916.917-2.291.917-3.208 0l-4.813-4.813c-.916-.916-.916-2.291 0-3.208.917-.917 2.292-.917 3.209 0zm6.188-2.521c.917.916.917 2.291 0 3.208-.917.917-2.292.917-3.208 0l-6.646-6.646c-.917-.917-.917-2.292 0-3.208.916-.917 2.291-.917 3.208 0z"/></g></g></svg>