<svg xmlns="http://www.w3.org/2000/svg" width="27" height="27" viewBox="0 0 27 27"><g><g><g/><g><g><g><path fill="#556dc3" fill-opacity=".6" d="M25.895 11.758l-5.52 5.525v6.77a2.287 2.287 0 0 1-2.285 2.283H2.864A2.287 2.287 0 0 1 .58 24.052V2.634A2.287 2.287 0 0 1 2.864.35h13.073c.61 0 1.184.238 1.615.669l2.153 2.153c.432.432.67 1.005.67 1.615v6.033l2.29-2.292c.89-.89 2.34-.89 3.23 0a2.283 2.283 0 0 1 0 3.23zm-10.089-6.84h3.046c0-.163.018-.427-.223-.67l-2.154-2.152c-.248-.248-.525-.223-.669-.223zm3.046 13.888l-.093.093a.762.762 0 0 1-.297.184l-3.23 1.076a.761.761 0 0 1-.963-.963l1.076-3.23a.762.762 0 0 1 .184-.297l1.076-1.076 2.246-2.249V6.441h-3.806a.761.761 0 0 1-.761-.762V1.873H2.864a.762.762 0 0 0-.761.76v21.42c0 .419.341.76.76.76H18.09c.42 0 .762-.341.762-.76zm-2.12-2.188l-.537 1.615 1.615-.538.41-.411-1.076-1.077zm6.225-4.074l-1.077-1.077c-.54.54-3.086 3.09-3.66 3.663l1.077 1.077zm1.86-1.863a.76.76 0 1 0-1.075-1.076l-.785.785 1.076 1.077z"/></g></g></g><g><g><g><path fill="#556dc3" fill-opacity=".6" d="M15.04 7.96H4.38a.761.761 0 0 0 0 1.523H15.04a.761.761 0 1 0 0-1.523z"/></g></g></g><g><g><g><path fill="#556dc3" fill-opacity=".6" d="M11.994 11.01H4.381a.761.761 0 0 0 0 1.523h7.613a.761.761 0 0 0 0-1.523z"/></g></g></g><g><g><g><path fill="#556dc3" fill-opacity=".6" d="M11.994 14.05H4.381a.761.761 0 0 0 0 1.523h7.613a.761.761 0 0 0 0-1.523z"/></g></g></g><g><g><g><path fill="#556dc3" fill-opacity=".6" d="M11.994 17.1H4.381a.761.761 0 0 0 0 1.523h7.613a.761.761 0 0 0 0-1.523z"/></g></g></g><g><g><g><path fill="#556dc3" fill-opacity=".6" d="M15.04 21.77H10.47a.761.761 0 0 0 0 1.523h4.568a.761.761 0 0 0 0-1.523z"/></g></g></g></g></g></svg>