<svg xmlns="http://www.w3.org/2000/svg" width="23" height="27" viewBox="0 0 23 27"><g><g><g/><g><g><g><path fill="#99a7db" d="M22.98 17.963c0 .584-.221 1.118-.584 1.523.363.404.583.938.583 1.522 0 1.052-.714 1.94-1.683 2.204a2.287 2.287 0 0 1-2.124 3.125h-6.377a8.357 8.357 0 0 1-2.648-.43l-2.616-.871a2.286 2.286 0 0 1-2.062 1.302H.901a.762.762 0 0 1-.761-.762V11.873c0-.42.341-.762.761-.762H5.47c.965 0 1.79.601 2.125 1.448 1.91-.466 3.754-3.03 4.335-5.353l.415-1.66a.761.761 0 0 1 .738-.576h.762a3.049 3.049 0 0 1 3.045 3.045v.761c0 .758-.187 2.526-.626 3.858h4.432a2.287 2.287 0 0 1 2.284 2.284c0 .584-.22 1.118-.583 1.523.363.404.583.938.583 1.522zM6.23 13.395a.762.762 0 0 0-.76-.761H1.662v12.18h3.806c.42 0 .762-.34.762-.76zm12.943 3.807a.762.762 0 0 1 0-1.523h1.523a.762.762 0 0 0 0-1.522h-7.614a.762.762 0 0 1 0-1.523h1.555c.41-.875.73-2.836.73-3.858v-.76c0-.84-.684-1.523-1.523-1.523h-.167l-.27 1.082c-.37 1.477-1.205 3.08-2.236 4.288-1.055 1.238-2.224 1.995-3.418 2.221v9.42l2.875.96c.7.233 1.43.35 2.167.35h6.378a.762.762 0 0 0 0-1.522.762.762 0 0 1 0-1.522h1.523a.762.762 0 0 0 0-1.523h-1.523a.762.762 0 0 1 0-1.523h1.523a.762.762 0 0 0 0-1.522z"/></g></g></g><g><g><g><path fill="#99a7db" d="M3.941 23.293a.761.761 0 1 0 0-1.523.761.761 0 0 0 0 1.523z"/></g></g></g><g><g><g><path fill="#99a7db" d="M14.601.35c-.42 0-.761.34-.761.761v1.574a.761.761 0 0 0 1.523 0V1.11c0-.42-.341-.761-.762-.761z"/></g></g></g><g><g><g><path fill="#99a7db" d="M11.376 3.71L10.3 2.633A.761.761 0 1 0 9.223 3.71L10.3 4.786a.761.761 0 0 0 1.076-1.076z"/></g></g></g><g><g><g><path fill="#99a7db" d="M19.986 2.633a.761.761 0 0 0-1.076 0L17.833 3.71a.761.761 0 1 0 1.077 1.076l1.076-1.076a.761.761 0 0 0 0-1.077z"/></g></g></g></g></g></svg>