<svg width="121" height="35" viewBox="0 0 121 35" fill="none" xmlns="http://www.w3.org/2000/svg">
<path d="M13.2849 32.1428V22.7321H4.63593L16.224 2.93213V12.3464H24.7012L13.2849 32.1428Z" fill="#FBCD02"/>
<path d="M53.4047 22.1393L56.7304 23.8607C55.9858 24.8393 54.9977 25.6107 53.7627 26.1821C52.5312 26.75 51.1637 27.0357 49.6637 27.0357C47.3117 27.0357 45.4609 26.375 44.1077 25.0571C42.7545 23.7393 42.0743 21.9857 42.0743 19.8036C42.0743 17.3071 42.9228 15.1964 44.6161 13.4679C46.3093 11.7393 48.357 10.875 50.7556 10.875C52.1983 10.875 53.487 11.1893 54.6147 11.8214C55.7423 12.4536 56.6337 13.3714 57.2853 14.575C57.9368 15.7821 58.2626 17.0893 58.2626 18.5036C58.2626 18.9464 58.216 19.4643 58.1194 20.0571H45.8296C45.8654 21.125 46.2198 21.9786 46.8857 22.6107C47.5516 23.2429 48.468 23.5607 49.6386 23.5607C51.0563 23.5571 52.3092 23.0857 53.4047 22.1393ZM54.3677 17.2857C54.0848 16.3429 53.6123 15.6321 52.95 15.1464C52.2877 14.6607 51.493 14.4179 50.5587 14.4179C49.6351 14.4179 48.7974 14.6679 48.0527 15.1679C47.3081 15.6679 46.7389 16.375 46.3523 17.2857H54.3677Z" fill="white"/>
<path d="M62.5334 11.2679H66.3066L66.0918 12.8286C67.538 11.525 69.0416 10.875 70.5989 10.875C71.9306 10.875 73.0224 11.2964 73.8744 12.1393C74.7265 12.9821 75.1489 14.0464 75.1489 15.3286C75.1489 15.9321 75.0701 16.8321 74.909 18.0286L73.7312 26.6393H69.958L71.1072 18.2357C71.2217 17.3714 71.2754 16.7214 71.2754 16.2857C71.2754 15.6643 71.0965 15.1857 70.742 14.8536C70.3876 14.5179 69.8829 14.3536 69.2278 14.3536C68.5941 14.3536 67.9569 14.5714 67.3233 15.0107C66.6896 15.45 66.1992 16.0571 65.8591 16.8321C65.519 17.6071 65.204 19.0679 64.9212 21.2036L64.198 26.6429H60.4284L62.5334 11.2679Z" fill="white"/>
<path d="M86.8623 10.8713C88.2298 10.8713 89.4756 11.1856 90.5925 11.8178C91.7094 12.4499 92.5829 13.3428 93.2058 14.4999C93.8287 15.6571 94.1402 16.9571 94.1402 18.3999C94.1402 20.7928 93.2846 22.8285 91.577 24.5106C89.8694 26.1928 87.7537 27.0321 85.2334 27.0321C83.0425 27.0321 81.2991 26.3713 79.9961 25.0463C78.693 23.7213 78.0414 21.9928 78.0414 19.8571C78.0414 17.2785 78.9257 15.1356 80.6906 13.4285C82.4554 11.7249 84.5139 10.8713 86.8623 10.8713ZM86.6009 14.4463C85.0544 14.4463 83.8695 14.9999 83.0461 16.1071C82.2227 17.2142 81.8075 18.4106 81.8075 19.7035C81.8075 20.8535 82.144 21.7785 82.817 22.4785C83.49 23.1785 84.3886 23.5321 85.5091 23.5321C87.1021 23.5321 88.3157 22.9963 89.1498 21.9285C89.9839 20.8606 90.4028 19.6392 90.4028 18.2642C90.4028 17.1356 90.0484 16.2142 89.3431 15.5106C88.6343 14.7999 87.7214 14.4463 86.6009 14.4463Z" fill="white"/>
<path d="M99.2487 5.56067H103.008L102.231 11.2678H104.622L104.167 14.5178H101.783L100.133 26.6357H96.3597L98.0208 14.5178H96.1664L96.6067 11.2678H98.4682L99.2487 5.56067Z" fill="white"/>
<path d="M107.35 22.2856C108.001 22.2856 108.56 22.5178 109.029 22.9785C109.498 23.4392 109.731 23.9999 109.731 24.6606C109.731 25.3106 109.498 25.8678 109.029 26.3356C108.564 26.8035 108.001 27.0356 107.35 27.0356C106.688 27.0356 106.126 26.8035 105.664 26.3356C105.202 25.8714 104.969 25.3106 104.969 24.6606C104.969 23.9999 105.202 23.4428 105.664 22.9785C106.129 22.5178 106.688 22.2856 107.35 22.2856Z" fill="#FBCD02"/>
</svg>
