<svg xmlns="http://www.w3.org/2000/svg" width="124" height="22" viewBox="0 0 124 22"><g><g><g/><g><path fill="#7453aa" d="M11.479 0c2.322 0 4.333.503 6.076 1.74v4.11c-1.704-1.101-3.974-1.813-6.114-1.813C7.3 4.037 4.208 6.938 4.208 11s3.092 6.963 7.233 6.963c2.14 0 4.41-.712 6.114-1.812v4.11C15.812 21.496 13.801 22 11.48 22 4.946 22 0 17.295 0 11 0 4.706 4.946 0 11.479 0zm95.449 13.687c0 4.582-3.793 8.313-8.469 8.313-4.676 0-8.47-3.731-8.47-8.313 0-4.582 3.794-8.314 8.47-8.314s8.469 3.731 8.469 8.314zm-3.597 0c0-2.717-2.158-4.91-4.872-4.91s-4.872 2.193-4.872 4.91c0 2.716 2.158 4.91 4.872 4.91s4.872-2.194 4.872-4.91zM124.056 5.7v15.972h-3.597v-10.31l-7.027 10.31h-3.597V5.701h3.541v10.343L120.407 5.7zM35.859 17.09c0 2.65-2.027 4.582-4.709 4.582h-9.338V5.7h8.979c2.681 0 4.643 1.898 4.643 4.484 0 1.341-.85 2.552-1.733 3.076 1.08.59 2.159 2.03 2.158 3.83zM25.41 11.92h4.826c.915 0 1.602-.655 1.602-1.54 0-.883-.687-1.537-1.602-1.537h-4.826zm5.055 6.611c1.046 0 1.798-.753 1.798-1.735 0-.982-.752-1.734-1.798-1.734h-5.055v3.469zm22.574-12.83v15.972H49.44v-5.008h-1.996l-4.172 5.008h-4.644l4.36-5.233c-2.328-.659-3.935-2.717-3.935-5.24 0-3.11 2.387-5.5 5.56-5.5zm-7.935 3.142c-1.438 0-2.452 1.047-2.452 2.357 0 1.243 1.014 2.323 2.452 2.323h4.338v-4.68zM76.46 12.05h7.027V5.7h3.597v15.973h-3.597v-6.48h-7.027v6.48h-3.597V5.701h3.597zM56.593 17.21c1.404.736 3.12 1.387 5.083 1.387 2.386 0 3.891-.713 3.891-1.98 0-1.132-1.315-1.566-2.99-1.566h-2.744v-3.142h2.745c1.705 0 2.66-.626 2.66-1.484 0-1.258-1.507-1.647-3.25-1.647-2.013 0-3.648.585-4.983 1.235V6.587c1.385-.683 3.22-1.214 5.503-1.214 3.482 0 6.312 1.854 6.312 4.41 0 1.863-1.09 3.01-1.966 3.396 1.123.53 2.394 1.853 2.394 3.764 0 2.996-2.875 5.057-7.082 5.057-2.414 0-4.18-.523-5.573-1.258z"/></g><g><path fill="#ff0098" d="M116.651 4.841c2.764 0 4.873-1.71 5.101-4.221L118.87.26c0 1.085-.983 1.918-2.219 1.918-1.236 0-2.22-.833-2.22-1.918l-2.881.36c.229 2.51 2.337 4.221 5.101 4.221z"/></g></g></g></svg>