<svg xmlns="http://www.w3.org/2000/svg" width="87" height="33" viewBox="0 0 87 33"><g><g><g/><g><path fill="#595959" d="M12.894 10.06v5.08L.25 16.531V11.84zm-3.98 6.284V32.9H4.285V16.818zM19.48 9.132v23.769h-4.878V9.819zm7.952-1.119v5.525l-7.043.776v-5.31zm-2.42 9.855v5.552l-4.624.253v-5.407zm2.42 9.489V32.9H20.39V27.57zm24.61-22.815V32.9h-6.394V5.44zm10.513-1.48v6.602l-9.319 1.026V4.373zm-3.21 11.854v6.623l-6.109.334V15.44zm3.21 11.378V32.9h-9.319v-6.326zM34.852 6.968v25.933h-5.556V7.75zm9.103 19.89V32.9h-8.066v-5.8zm42.05-17.31c-.423 4.858-2.777 8.751-9.333 15.165l-10.73.353s7.475-6.798 10.285-10.12c1.821-2.151 2.593-4.474 1.845-6.023-.474-.982-1.537-1.47-2.85-1.396V.52c3.241-.466 6.204.318 8.225 2.23 1.848 1.75 2.78 4.226 2.557 6.797zm.377 16.023v7.33L64.62 26.227zm-21.76 7.33h21.76L64.62 26.227zm9.352-25.088c-1.326.56-2.638 1.578-2.33 5.872l-6.741.599c-.359-7.6 2.746-12.257 9.068-13.606z"/></g></g></g></svg>