<svg xmlns="http://www.w3.org/2000/svg" width="98" height="35" viewBox="0 0 98 35"><g><g><g/><g><g><g><g><g><path fill="#86dcff" d="M29.611 0l-1.658 4.543H4.97L6.63 0zm-2.488 6.813l-1.658 4.542H2.483L4.14 6.813zm-2.484 6.813l-1.657 4.542H0l1.658-4.542z"/></g><g><g><path fill="#fff" d="M34.48 34.727h62.91V6.9H34.48z"/></g></g><g clip-path="url(#clip-36:286)"><path fill="#5473bd" d="M48.858 19.994c1.05.386 2.053 1.06 2.579 1.493 1.624 1.348 2.34 3.13 2.34 5.44 0 3.804-2.006 6.548-5.302 7.415-1.003.289-2.053.386-4.013.386H34.48V6.9h8.837c1.815 0 3.057.096 4.155.384 3.201.867 5.303 3.082 5.303 6.596 0 1.878-.67 3.467-1.768 4.526a6.698 6.698 0 0 1-2.15 1.492zm-8.837 2.841v7.318h3.822c1.145 0 2.196-.096 2.961-.818.764-.723 1.099-1.637 1.099-2.841 0-.914-.24-1.781-.717-2.407-.812-1.01-1.816-1.252-3.535-1.252zm-.048-4.815h3.105c.955 0 1.432 0 1.91-.144 1.29-.385 2.103-1.54 2.103-3.13 0-1.876-.86-2.695-2.103-3.08-.526-.144-1.05-.193-2.102-.193h-2.913zm22.116 16.707V11.57h-7.977V6.9h22.165L74.7 11.57h-7.07v23.157zm15.907 0V6.9h17.961l-1.576 4.67H83.49v6.162h4.442c3.583 0 5.446.867 6.736 1.974 1.003.867 2.722 2.792 2.722 6.596 0 3.755-1.767 5.825-3.248 6.884-1.72 1.203-3.534 1.541-7.213 1.541zm5.494-4.67h4.156c1.576 0 2.531-.385 3.2-1.252.334-.433.812-1.204.812-2.648 0-1.444-.478-2.455-1.433-3.178-.573-.433-1.337-.673-2.627-.673H83.49z"/></g></g></g></g></g></g></g></svg>