<svg xmlns="http://www.w3.org/2000/svg" width="143" height="27" viewBox="0 0 143 27"><g><g><g/><g><g><path fill="#eb001b" d="M7.13 14.277l-3.97 8.925H.26l4.362-9.544C3.6 13.136 2.78 12.375 2.15 11.365c-.63-1.01-.94-2.377-.94-4.124 0-1.212.179-2.282.536-3.209.356-.927.843-1.688 1.461-2.294A5.98 5.98 0 0 1 5.37.372c.82-.31 1.7-.452 2.603-.452h3.744v23.294H9.209v-8.926H7.13zM9.21 2H7.877c-.5 0-.986.095-1.462.273-.475.19-.903.476-1.271.88-.369.404-.666.938-.892 1.604-.226.666-.344 1.486-.344 2.472 0 .939.107 1.723.309 2.353.202.63.487 1.141.843 1.533.357.392.785.666 1.272.832.487.167.998.25 1.545.25h1.331z"/></g><g><path fill="#646464" d="M23.8 6.788V23.2h-2.507v-7.356h-3.78V23.2H14.97V6.788h2.543v6.976h3.78V6.788zM34.58 26.42v-3.22h-7.036v3.22h-2.282v-5.312h1.01c.369-.868.666-1.83.88-2.888.214-1.058.38-2.14.499-3.257s.19-2.258.226-3.422c.035-1.165.047-2.282.047-3.376V6.788h7.618V21.12h1.307v5.301zM33.046 8.867h-2.828v.298c0 .867-.012 1.818-.048 2.84a47.363 47.363 0 0 1-.214 3.138 39.04 39.04 0 0 1-.451 3.137 14.17 14.17 0 0 1-.82 2.84h4.361zm14.856 13.228a6.074 6.074 0 0 1-1.795.975c-.677.237-1.426.356-2.246.356-1.7 0-3.03-.654-4.005-1.973-.974-1.319-1.462-3.244-1.462-5.776 0-1.319.095-2.543.274-3.648.19-1.105.475-2.068.88-2.888.403-.82.914-1.45 1.544-1.902.63-.451 1.379-.689 2.246-.689.678 0 1.296.13 1.854.404.559.273 1.046.713 1.438 1.32.393.605.69 1.39.916 2.364.213.963.32 2.14.32 3.53v1.402h-6.845c0 1.866.25 3.28.76 4.231.512.951 1.272 1.438 2.294 1.438.713 0 1.355-.119 1.902-.38.558-.25.998-.5 1.319-.737zM43.338 8.642c-.784 0-1.33.44-1.663 1.319-.333.88-.535 2.056-.618 3.53h4.207c0-.69-.036-1.343-.095-1.938a7.225 7.225 0 0 0-.31-1.545c-.142-.44-.332-.772-.582-1.01a1.32 1.32 0 0 0-.939-.356zm9.674 6.382V23.2H50.47V6.788h2.543v7.594l3.946-7.594h2.58l-4.077 7.725 4.658 8.7H57.35zm13.062 8.402c-1.76 0-3.138-.701-4.136-2.103-.999-1.403-1.498-3.518-1.498-6.335 0-1.283.12-2.448.38-3.482.25-1.046.619-1.925 1.106-2.65a5.277 5.277 0 0 1 1.818-1.7c.725-.404 1.569-.606 2.52-.606.737 0 1.33.083 1.794.25.452.166.868.368 1.236.606l-.356 2.412a5.791 5.791 0 0 0-1.224-.82 3.221 3.221 0 0 0-1.486-.356c-.915 0-1.664.51-2.246 1.545-.582 1.022-.88 2.59-.88 4.682 0 2.068.25 3.672.737 4.801.488 1.13 1.26 1.688 2.294 1.688.63 0 1.177-.107 1.628-.32a4.823 4.823 0 0 0 1.141-.726l.582 1.89c-.44.368-.927.665-1.461.891-.535.226-1.189.333-1.95.333z"/></g><g><path fill="#a6a6a6" d="M86.769 23.2h-9.972l-.225 3.874H75.3v-5.17h.69c.558-.475.998-1.33 1.307-2.543.309-1.212.546-2.662.713-4.338.178-1.735.297-3.874.356-6.405.06-2.532.12-5.432.167-8.688h8.14v21.986h1.593v5.182h-1.272zM79.983 1.214c-.048 2.983-.107 5.609-.19 7.855-.084 2.258-.19 4.231-.322 5.93-.154 1.771-.368 3.221-.63 4.362-.273 1.141-.63 1.985-1.057 2.532h7.261V1.213z"/></g><g><path fill="#a6a6a6" d="M91.386 15.256c.047 2.27.356 3.994.938 5.182.583 1.189 1.474 1.783 2.674 1.783.547 0 1.023-.083 1.438-.262a4.21 4.21 0 0 0 1.046-.63c.321-.237.606-.546.844-.89l.487 1.235c-.261.368-.57.69-.939.939a4.93 4.93 0 0 1-1.2.63c-.475.178-1.046.273-1.7.273-1.734 0-3.018-.749-3.838-2.246-.82-1.497-1.236-3.59-1.236-6.287 0-1.343.119-2.543.357-3.6.237-1.059.57-1.95.998-2.687.428-.737.927-1.295 1.51-1.676a3.448 3.448 0 0 1 1.924-.57c.714 0 1.355.19 1.926.559.558.368 1.034.927 1.402 1.663.369.737.63 1.652.784 2.758.155 1.093.167 2.377.036 3.826zm3.292-7.487c-.868 0-1.617.535-2.235 1.605-.618 1.07-.962 2.626-1.022 4.682h5.966c.131-2.187-.083-3.78-.63-4.777-.546-.999-1.26-1.51-2.08-1.51z"/></g><g><path fill="#a6a6a6" d="M108.85 15.359h-5.597v7.856h-1.533V6.79h1.533v7.261h5.598V6.79h1.533v16.413h-1.533z"/></g><g><path fill="#a6a6a6" d="M113.99 6.79h1.533v6.085h1.2c1.57 0 2.817.428 3.744 1.272.939.843 1.402 2.127 1.402 3.838 0 1.735-.487 3.043-1.461 3.91-.975.868-2.235 1.308-3.78 1.308h-2.638zm1.533 7.297v7.915h.975c1.152 0 2.08-.309 2.804-.927.725-.618 1.07-1.628 1.07-3.042 0-1.39-.32-2.389-.975-3.019-.653-.618-1.568-.927-2.733-.927z"/></g><g><path fill="#a6a6a6" d="M126.007 8.085v15.118h-1.497V6.79h6.94v1.307h-5.443z"/></g><g><path fill="#a6a6a6" d="M141.447 11.772c0-.44.012-.832.036-1.189.024-.356.06-.713.095-1.058h-.095a7.457 7.457 0 0 1-.392 1.058c-.155.333-.321.69-.488 1.058l-5.336 11.563h-1.307V6.792h1.438v11.397c0 .44-.012.832-.036 1.2-.023.369-.059.737-.095 1.106h.095c.107-.369.238-.737.393-1.094.154-.356.309-.725.487-1.093l5.336-11.528h1.331v16.413h-1.462z"/></g></g></g></g></svg>