<svg xmlns="http://www.w3.org/2000/svg" width="70" height="55" viewBox="0 0 70 55"><g><g><g/><g><g><g><path fill="#a6a6a6" d="M11.478 54.166v-3.197c0-.973-.409-1.514-1.262-1.514a1.352 1.352 0 0 0-1.406 1.526v3.185H7.548v-3.197c0-.973-.42-1.514-1.25-1.514a1.346 1.346 0 0 0-1.406 1.526v3.16H3.63v-5.744h1.25v.71a1.899 1.899 0 0 1 1.682-.854 2.11 2.11 0 0 1 1.9 1.022 2.223 2.223 0 0 1 2.018-1.022 2.14 2.14 0 0 1 2.26 2.284v3.605zm19.943-4.627h-2.043v2.62c0 .577.228.961.83.961.39-.013.77-.124 1.105-.324l.36 1.07a2.932 2.932 0 0 1-1.562.444c-1.478 0-1.995-.793-1.995-2.127v-2.644H26.95v-1.142h1.142v-1.742h1.262v1.742h2.055zm10.624-1.31c.303.001.604.054.889.156l-.385 1.202a2.038 2.038 0 0 0-.78-.144c-.794 0-1.203.529-1.203 1.478v3.22h-1.25v-5.744h1.238v.697a1.695 1.695 0 0 1 1.515-.84zM25.4 49.864a3.702 3.702 0 0 0-1.803-.493c-.685 0-1.093.288-1.093.673 0 .384.432.493.973.565l.601.084c1.25.18 2.007.625 2.007 1.718 0 1.094-.961 1.875-2.62 1.875a4.146 4.146 0 0 1-2.487-.745l.6-.973c.552.409 1.225.62 1.911.6.853 0 1.31-.252 1.31-.697 0-.324-.324-.504-1.01-.6l-.6-.085c-1.286-.18-1.983-.757-1.983-1.694 0-1.142.95-1.839 2.404-1.839a4.296 4.296 0 0 1 2.343.601zm34.004-1.635c.303.001.604.054.89.156l-.385 1.202a2.038 2.038 0 0 0-.781-.144c-.793 0-1.202.529-1.202 1.478v3.22h-1.25v-5.744h1.238v.697a1.695 1.695 0 0 1 1.514-.84zm-16.08 3.005a2.901 2.901 0 0 1 3.065-3.005 3.004 3.004 0 0 1 2.067.685l-.6 1.01a2.524 2.524 0 0 0-1.503-.517 1.845 1.845 0 0 0 0 3.677 2.524 2.524 0 0 0 1.502-.516l.601 1.009a3.004 3.004 0 0 1-2.067.685 2.903 2.903 0 0 1-3.064-3.004zm11.706 2.884h-1.25v-.697a2.18 2.18 0 0 1-1.803.841 3.005 3.005 0 1 1 0-6.009 2.181 2.181 0 0 1 1.803.841v-.697h1.25zm-4.553-2.161a1.725 1.725 0 0 0 1.645 1.14 1.737 1.737 0 1 0-1.743-1.84c-.016.238.018.476.098.7zm-15.162-3.692c1.61 0 2.728 1.202 2.728 3.005v.48h-4.267a1.593 1.593 0 0 0 1.719 1.406 2.734 2.734 0 0 0 1.67-.6l.601.925a3.491 3.491 0 0 1-2.385.781 3.005 3.005 0 0 1-.084-6.009zm-.042 1.106a1.478 1.478 0 0 0-1.527 1.394h3.005a1.424 1.424 0 0 0-1.454-1.394zm31.336 4.747h-1.202v-.697a2.181 2.181 0 0 1-1.803.841 3.004 3.004 0 1 1 0-6.009 2.18 2.18 0 0 1 1.803.841V46.09h1.202zm2.313-.77a.6.6 0 0 1 .187.12.56.56 0 0 1-.186.925.565.565 0 0 1-.23.05.601.601 0 0 1-.54-.35.565.565 0 0 1 .126-.624.601.601 0 0 1 .433-.162h-.003a.6.6 0 0 1 .213.042zm-.054.938a.45.45 0 0 0 .138-.096.445.445 0 0 0 0-.6.433.433 0 0 0-.487-.096.44.44 0 0 0-.144.095.445.445 0 0 0 0 .6c.042.042.09.075.145.097.06.026.126.039.192.036h-.013a.427.427 0 0 0 .17-.036zm-.138-.679a.24.24 0 0 1 .156.048.15.15 0 0 1 .054.126.146.146 0 0 1-.042.108.21.21 0 0 1-.126.055l.174.198h-.138l-.162-.198h-.054v.198h-.114v-.529zm-.132.102v.144h.132a.126.126 0 0 0 .072 0 .06.06 0 0 0 0-.054.06.06 0 0 0 0-.054.126.126 0 0 0-.072 0zm-6.511-1.74a1.725 1.725 0 0 0 1.644 1.14 1.737 1.737 0 1 0-1.743-1.84c-.016.238.018.476.098.7zm-42.3 2.149h-1.249v-.697a2.181 2.181 0 0 1-1.803.841 3.004 3.004 0 1 1 0-6.009 2.18 2.18 0 0 1 1.803.841v-.697h1.25zm-4.662-2.848a1.725 1.725 0 0 0 1.755 1.838 1.736 1.736 0 1 0-1.743-1.838z"/></g><g><g><path fill="#ff9a5e" d="M44.458 4.63H25.53v34.016h18.928z"/></g><g><path fill="#ee6878" d="M26.736 21.635a21.595 21.595 0 0 1 8.262-17.011 21.632 21.632 0 1 0 0 34.016 21.596 21.596 0 0 1-8.262-17.005z"/></g><g><path fill="#ffb953" d="M70.002 21.637A21.632 21.632 0 0 1 35 38.642a21.633 21.633 0 0 0 0-34.016 21.632 21.632 0 0 1 35.002 17.005z"/></g><g><path fill="#d3d3d3" d="M67.933 35.041v-.697h.282V34.2H67.5v.144h.306v.697zm1.388 0V34.2h-.217l-.252.6-.252-.6h-.193v.841h.157v-.63l.234.546h.162l.235-.547v.637z"/></g></g></g></g></g></g></svg>