<svg xmlns="http://www.w3.org/2000/svg" width="112" height="50" viewBox="0 0 112 50"><g><g><g/><g><g><path fill="#d3d3d3" d="M54.51 28.34h1.746v3.911h1.245l2.261-3.911h1.895l-2.72 4.575v.027l2.883 5.008h-1.977l-2.342-4.196h-1.245v4.196H54.51zm11.224 2.545c2.112 0 3.804 1.502 3.804 3.614 0 2.125-1.692 3.614-3.79 3.614-2.099 0-3.79-1.489-3.79-3.614 0-2.112 1.691-3.614 3.776-3.614zm.014 5.766a2.155 2.155 0 1 0-2.044-2.152 2.055 2.055 0 0 0 2.044 2.152zm5.169-5.604h1.638v5.441h2.152v-5.441h1.638v5.441h2.152v-5.441h1.638v6.903h-9.218zm14.147-.162c1.977 0 3.06 1.448 3.06 3.275a5.504 5.504 0 0 1-.054.664h-4.752a1.956 1.956 0 0 0 2.071 1.827 3.263 3.263 0 0 0 1.977-.758l.676 1.232a4.37 4.37 0 0 1-2.775.988c-2.287 0-3.722-1.652-3.722-3.614 0-2.125 1.448-3.614 3.52-3.614zm1.34 2.76c-.013-.92-.609-1.461-1.38-1.461a1.655 1.655 0 0 0-1.665 1.462zm2.533 2.857c.853-.122 1.448-.839 1.448-3.29v-2.165h5.036v6.903H93.7v-5.509h-1.678v.772c0 3.005-.798 4.737-3.086 4.805zm11.4-5.617c1.976 0 3.06 1.448 3.06 3.275a5.503 5.503 0 0 1-.055.664h-4.751a1.956 1.956 0 0 0 2.07 1.827 3.263 3.263 0 0 0 1.977-.758l.677 1.232c-.783.64-1.764.99-2.775.988-2.288 0-3.723-1.652-3.723-3.614 0-2.125 1.449-3.614 3.52-3.614zm1.34 2.76c-.013-.92-.61-1.461-1.38-1.461a1.655 1.655 0 0 0-1.666 1.462zm3.167-2.598h1.72v2.64h.839l1.678-2.64h1.909l-2.193 3.29v.026l2.463 3.587h-1.99l-1.813-2.802h-.894v2.802h-1.719z"/></g><g><path fill="#ff9f10" d="M78.623 7.363a.444.444 0 0 0-.444-.444h-3.334a.444.444 0 0 0-.444.444v16.323a.444.444 0 0 0 .444.443h3.334a.443.443 0 0 0 .444-.443zm22.252-.444a.446.446 0 0 0-.424.312l-2.953 9.646-3.245-9.657a.443.443 0 0 0-.42-.301h-2.604a.443.443 0 0 0-.42.301l-3.245 9.657L84.61 7.23a.443.443 0 0 0-.424-.312h-3.73a.444.444 0 0 0-.44.374.437.437 0 0 0 .018.205l5.48 16.332a.443.443 0 0 0 .421.3h2.961a.444.444 0 0 0 .421-.3l3.213-9.541 3.213 9.541a.444.444 0 0 0 .42.3h2.962a.443.443 0 0 0 .42-.3l5.48-16.332a.43.43 0 0 0-.218-.531.447.447 0 0 0-.202-.048zm6.007 0a.438.438 0 0 0-.313.13.426.426 0 0 0-.096.144.431.431 0 0 0-.034.17v16.323a.442.442 0 0 0 .443.444h3.335a.445.445 0 0 0 .444-.444V7.363a.45.45 0 0 0-.274-.41.446.446 0 0 0-.17-.034zM69.699 20.394a9.034 9.034 0 1 0-2.694 2.702l.692.833a.56.56 0 0 0 .43.202h4.087a.339.339 0 0 0 .258-.562zm-5.325-.463a4.622 4.622 0 0 1-2.262.582c-2.755 0-4.762-2.292-4.762-4.989 0-2.696 2.007-5.021 4.762-5.021 2.755 0 4.762 2.325 4.762 5.021a5.29 5.29 0 0 1-.28 1.687H62.85a.346.346 0 0 0-.266.568zm-25.92 11.552a.695.695 0 0 0-.926.263c-.245.446-.064 1.329.429 2.098.5.78.923 1.174 1.26 1.174.31 0 .617-.403.472-1.378-.087-.582-.41-1.845-1.236-2.157zm-4.931 3.639a1.31 1.31 0 0 0-1.049.439c-.587.724-.323 1.998.576 2.784.425.355.96.549 1.514.548a1.609 1.609 0 0 0 1.327-.596c.524-.702.223-1.696-.766-2.532a2.527 2.527 0 0 0-1.602-.643zm-.054 8.716c4.262 0 8.885 1.461 14.003 5.995.513.455 1.195-.11.748-.674-5.03-6.35-9.681-7.56-14.32-8.581-5.674-1.25-8.593-4.444-10.627-7.95-.405-.697-.587-.574-.623.323-.042 1.33.051 2.662.276 3.975-.228.01-.459.008-.69.008a14.7 14.7 0 1 1 14.699-14.7c.002.572-.03 1.142-.093 1.71a22.04 22.04 0 0 0-4.669-.088c-.557.048-.479.308-.057.384 4.859.878 8.197 3.89 8.96 9.354a.134.134 0 0 0 .185.107.134.134 0 0 0 .062-.052A22.225 22.225 0 1 0 22.236 44.47c3.258 0 6.49-.633 11.233-.633z"/></g></g></g></g></svg>