<svg xmlns="http://www.w3.org/2000/svg" width="149" height="35" viewBox="0 0 149 35"><g><g><g/><g><g><path fill="#468ec1" d="M131.244.532c2.689 0 5.247.616 7.542 1.717.36.162.722.356 1.081.551l-1.573 1.395-2.36-2.432-4.065 3.566-2.394-2.56-7.476 6.645 4.787 5.218-1.869 1.618 4.722 5.219-1.869 1.62 6.756 7.423 3.998-3.631 3.477 3.89a19.32 19.32 0 0 1-2.262 1.492 17.273 17.273 0 0 1-8.461 2.202c-9.476 0-17.181-7.614-17.181-16.981C114.065 8.18 121.77.53 131.245.53zm-3.148 15.912v.001zm4.1-3.63l3.672 4.053-4.1 3.63-3.671-4.052zm-1.182 10.633l4.068-3.663 3.704 4.052-4.1 3.631-3.671-4.02zM125.18 9.541l4.097-3.629 3.674 4.051-4.1 3.632zm7.508-1.943l3.048-2.723 2.755 3.014-3.051 2.755-2.754-3.046zm5.442 12.478l3.047-2.722 2.755 3.045-3.05 2.725-2.753-3.048zm2.688 6.126l3.05-2.723 2.752 3.014-3.049 2.755zm1.245-14.004l2.035-1.813 1.834 2.01-2.031 1.814-1.839-2.01zm-2.622-5.995l2.034-1.847 1.837 2.043-2.034 1.815-1.836-2.01zm5.215 11.994l2.031-1.816 1.868 2.01-2.066 1.815-1.834-2.009zm-9.148-4.507l3.049-2.722 2.754 3.014-3.048 2.723-2.755-3.014zM9.523 12.22H9.37L6.465 23.25H4.092L.53 7.581h2.463l2.462 11.69h.154l2.857-11.69h1.957l3.057 11.69h.155l2.243-11.69h2.573l-3.564 15.667h-2.374zm17.086 4.358c-.11-2.319-1.232-3.248-2.42-3.248-1.341 0-2.374 1.04-2.615 3.248zm1.76 4.156v1.68c-.991.575-2.31 1.017-3.894 1.017-3.695 0-5.21-2.299-5.21-5.79 0-3.36 1.694-5.79 4.99-5.79 2.748 0 4.441 1.79 4.441 5.39v.819H21.53c0 2.652 1.076 3.823 3.342 3.823 1.189 0 2.288-.422 3.496-1.15zm5.444.926c.703.309 1.474.354 2.024.354 1.63 0 2.857-1.017 2.857-4.597 0-2.807-1.012-3.712-2.484-3.712-.88 0-1.517.243-2.396.728v7.226zm2.99-9.68c2.727 0 4.2 1.901 4.2 5.437 0 4.131-1.98 6.144-5.166 6.144-1.166 0-2.97-.377-4.289-1.086V7.055l2.288-.553V12.8c.66-.354 1.78-.82 2.968-.82zm14.098 7.944h.109l4.704-12.353h2.726V23.24h-2.375V11.88h-.197L51.383 23.24h-1.406L45.49 12.147h-.199V23.24h-1.978V7.57h2.662zm17.241-2.283c0-2.981-1.207-4.241-2.701-4.241-1.45 0-2.705 1.258-2.705 4.241 0 3.028 1.143 4.242 2.705 4.242 1.56 0 2.702-1.214 2.702-4.243zm-7.713 0c0-3.869 2.11-5.79 5.013-5.79 2.904 0 5.014 1.92 5.014 5.788 0 3.778-2 5.79-5.013 5.79-3.014 0-5.013-2.012-5.013-5.79zm11.764-4.154c.99-.596 3.08-1.636 5.606-1.636 2.64 0 3.627 1.037 3.627 3.312v8.002h-2.285v-7.49c0-1.746-.855-2.055-1.979-2.055-.878 0-2.002.399-2.683.796v8.75h-2.286zM91.3 16.578c-.106-2.319-1.23-3.248-2.417-3.248-1.342 0-2.375 1.04-2.616 3.248zm1.759 5.836c-.989.575-2.308 1.017-3.893 1.017-3.69 0-5.207-2.299-5.207-5.79 0-3.36 1.69-5.79 4.989-5.79 2.748 0 4.443 1.79 4.443 5.39v.819h-7.167c0 2.652 1.075 3.823 3.34 3.823 1.187 0 2.29-.422 3.495-1.15zm9.466-10.562h2.353l-3.98 11.044c-1.1 3.05-2.44 4.64-4.968 4.64v-1.808c1.495 0 2.417-1.192 2.946-2.83l-4.221-11.046h2.417l2.816 8.13h.132l2.505-8.13z"/></g></g></g></g></svg>