<svg xmlns="http://www.w3.org/2000/svg" width="70" height="55" viewBox="0 0 70 55"><g><g><g/><g><g><g><g><path fill="#d3d3d3" d="M69.213 35.045v-.634l-.237.547h-.16l-.237-.546v.633h-.156v-.84h.22l.252.577.253-.576h.219v.839zm-1.388 0v-.696h-.28v-.142h.715v.142h-.28v.696z"/></g></g><g><path fill="#8d8bef" d="M44.497 38.656H25.57V4.64h18.927z"/></g><g><g><path fill="#ee6877" d="M26.786 21.643c0-6.9 3.23-13.047 8.261-17.008A21.538 21.538 0 0 0 21.68.01C9.732.01.049 9.695.049 21.643c0 11.948 9.683 21.633 21.63 21.633 5.046 0 9.69-1.729 13.368-4.625-5.03-3.961-8.261-10.108-8.261-17.008z"/></g></g><g><g><path fill="#56b4df" d="M70.027 21.643c0 11.948-9.684 21.633-21.63 21.633-5.046 0-9.69-1.729-13.37-4.625 5.032-3.961 8.263-10.108 8.263-17.008 0-6.9-3.23-13.047-8.263-17.008A21.545 21.545 0 0 1 48.397.01c11.946 0 21.63 9.685 21.63 21.633z"/></g></g><g><g><path fill="#a6a6a6" d="M50.882 48.26c.252 0 .613.047.89.156l-.385 1.177a2.025 2.025 0 0 0-.782-.144c-.816 0-1.225.528-1.225 1.477v3.221h-1.25v-5.743h1.238v.697c.324-.505.793-.842 1.514-.842zm-4.619 1.285h-2.042v2.596c0 .576.204.96.83.96.324 0 .732-.108 1.104-.324l.36 1.069c-.396.276-1.02.446-1.561.446-1.478 0-1.994-.794-1.994-2.128v-2.619h-1.166v-1.141h1.166V46.66h1.261v1.743h2.042zM33.25 50.771c-.132-.89-.65-1.395-1.454-1.395-.89 0-1.393.565-1.527 1.395zm1.273.984h-4.265c.18 1.033.914 1.406 1.718 1.406.576 0 1.19-.216 1.67-.601l.613.926c-.697.588-1.49.804-2.354.804-1.72 0-2.945-1.19-2.945-3.015 0-1.79 1.177-3.016 2.86-3.016 1.61 0 2.716 1.226 2.728 3.016 0 .168-.012.324-.025.48zm5.516-1.885a3.684 3.684 0 0 0-1.79-.494c-.685 0-1.093.253-1.093.674 0 .384.432.492.972.564l.589.084c1.25.181 2.006.71 2.006 1.719 0 1.093-.961 1.875-2.618 1.875-.938 0-1.803-.241-2.488-.746l.588-.974c.421.325 1.047.601 1.912.601.853 0 1.31-.251 1.31-.697 0-.323-.325-.505-1.01-.6l-.589-.083c-1.286-.182-1.983-.758-1.983-1.695 0-1.141.938-1.839 2.392-1.839.913 0 1.742.205 2.342.601zm15.41-.424c-.257 0-.495.046-.716.135a1.72 1.72 0 0 0-.572.38 1.758 1.758 0 0 0-.38.584 1.975 1.975 0 0 0-.137.75c0 .273.045.522.137.75.092.226.219.421.38.584.16.162.352.289.572.38.221.09.46.134.717.134.257 0 .496-.044.716-.135a1.719 1.719 0 0 0 .959-.964c.092-.227.137-.476.137-.75 0-.272-.045-.522-.137-.749a1.719 1.719 0 0 0-.959-.964c-.22-.09-.46-.135-.716-.135zm0-1.187c.446 0 .859.077 1.238.233a2.922 2.922 0 0 1 1.635 1.598c.157.37.236.771.236 1.205 0 .433-.079.835-.235 1.204a2.928 2.928 0 0 1-1.636 1.6 3.26 3.26 0 0 1-1.237.231 3.26 3.26 0 0 1-1.238-.231 2.995 2.995 0 0 1-.981-.638 2.963 2.963 0 0 1-.648-.962 3.056 3.056 0 0 1-.235-1.204c0-.434.078-.835.235-1.205.157-.369.373-.69.648-.96.275-.271.601-.484.98-.638.38-.156.793-.233 1.239-.233zm-30.738 4.854c1.033 0 1.73-.792 1.73-1.838 0-1.045-.697-1.838-1.73-1.838-1.08 0-1.742.829-1.742 1.838 0 1.01.661 1.838 1.742 1.838zm2.908 1.034H26.37v-.697c-.397.517-.997.842-1.814.842-1.61 0-2.872-1.263-2.872-3.017 0-1.755 1.261-3.016 2.872-3.016.817 0 1.417.325 1.814.842v-.697h1.249zm-8.302 0v-3.196c0-.974-.408-1.514-1.262-1.514-.828 0-1.406.529-1.406 1.526v3.184h-1.261v-3.196c0-.974-.421-1.514-1.25-1.514-.853 0-1.406.529-1.406 1.526v3.184H11.47v-5.743h1.249v.708c.469-.673 1.07-.853 1.682-.853.877 0 1.503.385 1.899 1.022.528-.806 1.286-1.034 2.02-1.022 1.392.013 2.257.926 2.257 2.283v3.605z"/></g></g><g><g><path fill="#d3d3d3" d="M60.035 53.717c.029 0 .054.005.07.018a.058.058 0 0 1 .028.052.06.06 0 0 1-.028.053.129.129 0 0 1-.07.018h-.13v-.141zm-.243-.1v.53h.112v-.198h.053l.16.198h.135l-.173-.2a.219.219 0 0 0 .125-.052.142.142 0 0 0 .044-.108.15.15 0 0 0-.055-.124.242.242 0 0 0-.157-.045zm.035.677a.417.417 0 0 1-.237-.237.429.429 0 0 1-.034-.173c0-.061.011-.12.035-.173a.431.431 0 0 1 .411-.27c.062 0 .12.012.172.035a.425.425 0 0 1 .235.235.453.453 0 0 1-.095.488.451.451 0 0 1-.312.13.435.435 0 0 1-.175-.035zm.175-.98a.58.58 0 0 0-.585.57.545.545 0 0 0 .17.402.578.578 0 0 0 .415.17.593.593 0 0 0 .535-.35.545.545 0 0 0 .045-.221.56.56 0 0 0-.355-.525.56.56 0 0 0-.225-.046"/></g></g></g></g></g></g></svg>