<svg xmlns="http://www.w3.org/2000/svg" width="150" height="28" viewBox="0 0 150 28"><g><g><g/><g><path fill="#7cc283" d="M81.684 14.128h3.308v5.11c0 1.006-.821 1.96-1.966 1.96h-4.959v-.003c-4.686-.069-6.67-2.144-6.773-6.37l-.004-.005.004-.342c.096-4.354 2.084-6.402 6.909-6.427h6.773v2.782h-6.773v-.006c-2.723.038-3.653 1.294-3.692 3.812.04 2.598 1.081 3.793 3.677 3.835H81.4c.16 0 .283-.13.283-.282zm23.243 7.064V7.933c0-1.008.823-1.96 1.967-1.96h9.774v2.78h-8.15a.284.284 0 0 0-.283.283v4.057h8.242v2.686h-8.242v5.413zM69.12 18.425v2.783h-9.775c-1.146 0-1.97-.954-1.97-1.964v-9.238c0-1.006.824-1.963 1.97-1.963h9.775v2.782h-8.15a.283.283 0 0 0-.284.283v2.002h8.239v2.684h-8.239v2.35c0 .152.123.282.284.282zM51.98 5.66c1.448 0 2.946 1.035 2.946 3.283V21.21h-3.302V9.279l-4.336 9.823c-.582 1.373-1.52 2.234-2.883 2.236h-.004c-1.363-.002-2.3-.863-2.883-2.236L37.182 9.28v11.93H33.88V8.943c0-2.248 1.496-3.283 2.945-3.283 1.548 0 2.536.824 3.27 2.48l4.31 9.908 4.309-9.907c.732-1.657 1.72-2.481 3.267-2.481zm45.145 10.134l-2.037-4.78a.284.284 0 0 0-.268-.189h-.002c-.088 0-.205.04-.269.19l-2.033 4.779zm.411-6.281l5.403 11.695h-3.515l-1.179-2.78h-6.85l-1.178 2.78h-3.516l5.404-11.695c.551-1.2 1.653-1.783 2.713-1.783h.002c1.059 0 2.161.584 2.716 1.783zm52.038-1.47v10.87c0 1.583-1.242 2.304-2.249 2.304-1.132 0-1.64-.368-2.133-1.037l-5.652-7.76v8.797h-3.307V10.346c0-1.508 1.243-2.302 2.249-2.302 1.096 0 1.629.463 2.108 1.064l5.678 7.734V8.044zm-18.773 6.574v-.014c0-2.675-.924-3.989-4.35-3.989-3.421 0-4.348 1.314-4.348 3.989v.014c0 2.756.972 3.994 4.348 3.994 3.377 0 4.35-1.238 4.35-3.994zm3.22-.005c0 4.538-1.894 6.726-7.57 6.726-5.674 0-7.568-2.188-7.568-6.726v-.01c.003-4.608 1.846-6.757 7.568-6.757 5.726 0 7.569 2.15 7.57 6.758z"/></g><g><path fill="#7cc283" d="M11.493 11.68c-.913 0-1.655-.74-1.655-1.65a1.654 1.654 0 0 1 3.308 0c0 .91-.74 1.65-1.653 1.65zM14.029.79C6.721.79.8 6.702.8 13.997c0 6.33 4.462 11.62 10.416 12.907V15.053h.001a1.08 1.08 0 0 1 1.038-1.055v-.001h1.67c.078 0 .142-.061.146-.138V.792zm9.116 20.411c-.912 0-1.653-.74-1.653-1.652a1.653 1.653 0 1 1 3.307 0c0 .913-.742 1.652-1.654 1.652zm-3.876 0c-.912 0-1.652-.74-1.652-1.652 0-.91.74-1.649 1.652-1.649.913 0 1.654.74 1.654 1.65 0 .912-.74 1.651-1.654 1.651zm-3.878 0c-.912 0-1.655-.74-1.655-1.652 0-.91.743-1.649 1.655-1.649.914 0 1.655.74 1.655 1.65 0 .912-.74 1.651-1.655 1.651zm.27-6.686l-.003.003a1.077 1.077 0 0 1-1.078 1.066h-1.628a.146.146 0 0 0-.147.146v11.418c.403.037.81.057 1.223.057 7.307 0 13.23-5.914 13.23-13.209 0-6.74-5.06-12.303-11.596-13.106z"/></g></g></g></svg>