<svg xmlns="http://www.w3.org/2000/svg" width="87" height="43" viewBox="0 0 87 43"><g><g><g/><g><path fill="#eb5353" d="M.43 42.407h41.645V.46H.43z"/></g><g><path fill="#fff" d="M21.247 4.77c5.918 0 12.242 10.658 12.242 19.887 0 7.25-4.23 13.434-12.242 13.434-8.017 0-12.237-6.184-12.237-13.434 0-9.23 6.318-19.887 12.237-19.887z"/></g><g><path fill="#eb5353" d="M86.67 42.427H45.03V.48h41.64z"/></g><g><path fill="#fff" d="M48.08 16.48h4.385l1.432 5.924h.023l1.434-5.924h4.381v10.07h-2.913v-6.463h-.03l-1.734 6.463H52.76l-1.737-6.463h-.025v6.463H48.08z"/></g><g><path fill="#fff" d="M64.21 19.059h-2.8V16.48h8.684v2.579h-2.806v7.49h-3.079z"/></g><g><path fill="#fff" d="M77.535 20.226c-.056-.363-.339-1.48-1.608-1.48-1.445 0-1.908 1.413-1.908 2.77 0 1.355.463 2.763 1.908 2.763 1.032 0 1.44-.733 1.621-1.683h3.026c0 2.031-1.64 4.194-4.567 4.194-3.237 0-5.067-2.299-5.067-5.274 0-3.177 1.987-5.276 5.067-5.276 2.747.011 4.26 1.463 4.521 3.986h-2.993z"/></g></g></g></svg>