<svg xmlns="http://www.w3.org/2000/svg" width="128" height="45" viewBox="0 0 128 45"><g><g><g/><g><g><g><g><g><path fill="#f16b6b" d="M14.36 0c3.045 0 4.001 2.197 4.804 4.39l8.485 23.378c.063.182.02.482-.258.59-.281.107-4.391 1.715-4.619 1.8a.44.44 0 0 1-.564-.268c-.086-.225-1.792-4.976-1.983-5.506H8.5c-.184.53-1.91 5.291-1.988 5.506-.078.219-.323.367-.566.269-.243-.097-4.368-1.704-4.615-1.8a.467.467 0 0 1-.262-.591c.291-.816 8.082-22.26 8.479-23.378C10.32 2.23 11.31 0 14.36 0zm13.907 38.995c.251 0 .448.206.448.458v5.093a.449.449 0 0 1-.448.455H.443A.448.448 0 0 1 0 44.546v-5.093a.45.45 0 0 1 .443-.458zM14.334 7.116L10.37 19.09h7.99L14.385 7.116zm59.323 17.99v-.73c-.147-.05-.462-.097-.782-.097-1.31 0-1.978.34-1.978 1.36 0 .977.526 1.354 1.474 1.354.458 0 .843-.048 1.427-.246-.098-.337-.14-.854-.14-1.64zm1.814 3.987c-.215-.074-.744-.468-1.008-.854-.438.286-.585.374-.924.522-.561.23-1.27.356-1.947.356-1.815 0-3.306-1.1-3.306-3.117 0-2.152 1.395-3.451 4.035-3.451.508 0 .946.075 1.336.18v-.494c0-1.323-.2-1.578-1.954-1.578-.549 0-1.328.09-2.07.194l-.397-1.945a13.608 13.608 0 0 1 3.401-.41c1.652 0 2.55.331 3.089 1.092.387.537.558 1.069.558 2.542v2.737c0 1.348.183 1.978.883 3.047zm27.671-3.986v-.73c-.144-.052-.46-.098-.78-.098-1.314 0-1.99.34-1.99 1.36 0 .977.532 1.354 1.483 1.354.462 0 .841-.048 1.427-.246-.099-.337-.14-.854-.14-1.64zm1.812 3.986c-.217-.074-.746-.468-1.013-.854-.438.286-.58.374-.924.522-.556.23-1.257.356-1.943.356-1.825 0-3.318-1.1-3.318-3.117 0-2.152 1.4-3.451 4.043-3.451.518 0 .953.075 1.343.18v-.494c0-1.323-.207-1.578-1.95-1.578-.565 0-1.345.09-2.09.194l-.392-1.945c1.099-.282 2.24-.41 3.407-.41 1.657 0 2.557.331 3.089 1.092.39.537.564 1.069.564 2.542v2.737c0 1.348.18 1.978.885 3.047zm19.369-.205s-.898-2.198-1.367-3.157c-.4-.803-.534-.995-1.292-.995l-.361.007v4.145h-2.643V14.472h2.643v8.106h.447c.686 0 .806-.241 1.061-.776.256-.522.451-.935.698-1.448.233-.47.421-.88.698-1.154.354-.358.725-.566 1.444-.609a6.562 6.562 0 0 1 1.23.03l-.133 1.83s-.356-.085-.616.149c-.265.236-.399.45-.849 1.44-.476 1.015-.91 1.347-1.456 1.452v.045c.815.198 1.184.747 1.583 1.542.354.706 1.802 3.81 1.802 3.81zm-71.583 0s-.375-1.244-.827-2.783h-5.058c-.465 1.54-.86 2.783-.86 2.783h-2.928l4.884-14.175c.547-.172.797-.265 1.497-.265.641 0 1.242.101 1.728.265l4.615 14.175zm-1.532-5.16l-.924-3.309c-.308-1.06-.78-2.947-.78-2.947h-.084s-.51 1.821-.845 2.968l-.977 3.288zm32.151.082c0 .945-.755 1.706-1.689 1.706-.932 0-1.69-.76-1.69-1.706a1.7 1.7 0 0 1 1.69-1.704c.934 0 1.689.766 1.689 1.704zm-23.946 5.077h-2.65V14.472h2.65zm51.278-7.975v7.976h-2.654v-9.767c1.453-.435 2.582-.625 4.355-.625 1.792 0 2.851.331 3.39 1.092.39.537.561 1.069.561 2.542v6.758h-2.627V22.36c0-1.236-.181-1.54-1.646-1.571-.559 0-.682.022-1.379.124zm-42.745-6.568l-.414 2.071a8.55 8.55 0 0 0-.632-.027c-1.755 0-1.955.256-1.955 1.578l-.007 1.155h2.62v2.155h-2.62l.007 7.612h-2.628v-7.612H61v-2.155h1.316v-1.256c0-1.477.172-2.021.562-2.56.53-.76 1.433-1.09 3.089-1.09.666 0 1.33.043 1.978.13zm19.109.006c.902-.054 2.917-.13 4.182-.13.23 0 .47.002.71.014 2.486 0 3.911 1.822 3.911 3.96 0 1.454-.662 2.42-2.214 2.995 1.826.406 2.782 1.84 2.782 3.594 0 1.288-.36 2.31-1.023 3.007-.859.85-2.16 1.327-3.89 1.327-1.54 0-3.474-.048-4.458-.106zm4.182 2.361c-.438 0-.98.009-1.518.028v3.462h1.52c.602 0 1.086-.169 1.416-.494.315-.307.48-.74.48-1.255 0-1.107-.596-1.734-1.703-1.74zm.17 9.92c1.38 0 2.225-.738 2.235-2.225a1.985 1.985 0 0 0-.581-1.382c-.399-.403-.964-.613-1.626-.613H89.72v4.205c.484.01 1.018.012 1.572.016z"/></g></g></g></g></g></g></g></svg>