<svg xmlns="http://www.w3.org/2000/svg" width="207" height="126" viewBox="0 0 207 126"><defs><linearGradient id="47lxa" x1="-2.41" x2="241.02" y1="138.28" y2="-28.52" gradientUnits="userSpaceOnUse"><stop offset="0" stop-color="#ffd571"/><stop offset=".25" stop-color="#ffbd60"/><stop offset=".78" stop-color="#ff8035"/><stop offset="1" stop-color="#ff6421"/></linearGradient><linearGradient id="47lxb" x1="153771.87" x2="156109.93" y1="7133.73" y2="5461.51" gradientUnits="userSpaceOnUse"><stop offset="0" stop-color="#ffd571"/><stop offset=".25" stop-color="#ffbd60"/><stop offset=".78" stop-color="#ff8035"/><stop offset="1" stop-color="#ff6421"/></linearGradient><linearGradient id="47lxc" x1="-10.36" x2="251.49" y1="134.91" y2="-27.05" gradientUnits="userSpaceOnUse"><stop offset="0" stop-color="#c662c2"/><stop offset=".12" stop-color="#b95dbc"/><stop offset=".35" stop-color="#9751ab"/><stop offset=".65" stop-color="#5f3d90"/><stop offset="1" stop-color="#17236d"/></linearGradient><linearGradient id="47lxd" x1="47050.96" x2="58116.03" y1="7113.88" y2="16088.32" gradientUnits="userSpaceOnUse"><stop offset="0" stop-color="#ffd571"/><stop offset=".25" stop-color="#ffbd60"/><stop offset=".78" stop-color="#ff8035"/><stop offset="1" stop-color="#ff6421"/></linearGradient><linearGradient id="47lxe" x1="34560.67" x2="35247.79" y1="42090.33" y2="50411.29" gradientUnits="userSpaceOnUse"><stop offset="0" stop-color="#ffd571"/><stop offset=".25" stop-color="#ffbd60"/><stop offset=".78" stop-color="#ff8035"/><stop offset="1" stop-color="#ff6421"/></linearGradient><linearGradient id="47lxf" x1="36650.77" x2="40945.41" y1="1907.09" y2="5389.3" gradientUnits="userSpaceOnUse"><stop offset="0" stop-color="#ffd571"/><stop offset=".25" stop-color="#ffbd60"/><stop offset=".78" stop-color="#ff8035"/><stop offset="1" stop-color="#ff6421"/></linearGradient><linearGradient id="47lxg" x1="29913.58" x2="30886.31" y1="22408.88" y2="25400.1" gradientUnits="userSpaceOnUse"><stop offset="0" stop-color="#ffd571"/><stop offset=".25" stop-color="#ffbd60"/><stop offset=".78" stop-color="#ff8035"/><stop offset="1" stop-color="#ff6421"/></linearGradient><linearGradient id="47lxh" x1="87.18" x2="128.12" y1="86.04" y2="119.21" gradientUnits="userSpaceOnUse"><stop offset="0" stop-color="#fff"/><stop offset=".37" stop-color="#f2f2ff"/><stop offset="1" stop-color="#d2d2ff"/></linearGradient><linearGradient id="47lxi" x1="28226.49" x2="33141.74" y1="3506.49" y2="3506.49" gradientUnits="userSpaceOnUse"><stop offset="0" stop-color="#ffd571"/><stop offset=".25" stop-color="#ffbd60"/><stop offset=".78" stop-color="#ff8035"/><stop offset="1" stop-color="#ff6421"/></linearGradient><linearGradient id="47lxj" x1="96.25" x2="101.22" y1="91.86" y2="91.86" gradientUnits="userSpaceOnUse"><stop offset="0" stop-color="#f7f7f7"/><stop offset="1" stop-color="#fff"/></linearGradient><linearGradient id="47lxk" x1="6128.03" x2="6289.03" y1="7624.77" y2="7624.77" gradientUnits="userSpaceOnUse"><stop offset="0" stop-color="#f7f7f7"/><stop offset="1" stop-color="#fff"/></linearGradient><linearGradient id="47lxl" x1="3369.08" x2="3411.61" y1="3087.52" y2="3087.52" gradientUnits="userSpaceOnUse"><stop offset="0" stop-color="#f7f7f7"/><stop offset="1" stop-color="#fff"/></linearGradient><linearGradient id="47lxm" x1="3043.61" x2="3143.13" y1="3691.37" y2="3691.37" gradientUnits="userSpaceOnUse"><stop offset="0" stop-color="#f7f7f7"/><stop offset="1" stop-color="#fff"/></linearGradient><linearGradient id="47lxn" x1="3312.03" x2="3354.49" y1="3032.87" y2="3032.87" gradientUnits="userSpaceOnUse"><stop offset="0" stop-color="#f7f7f7"/><stop offset="1" stop-color="#fff"/></linearGradient><linearGradient id="47lxo" x1="65237.64" x2="76666.89" y1="51240.68" y2="51240.68" gradientUnits="userSpaceOnUse"><stop offset="0" stop-color="#fff"/><stop offset=".37" stop-color="#f2f2ff"/><stop offset="1" stop-color="#d2d2ff"/></linearGradient><linearGradient id="47lxp" x1="2418.55" x2="2428.36" y1="1678.55" y2="1678.55" gradientUnits="userSpaceOnUse"><stop offset="0" stop-color="#fff"/><stop offset=".37" stop-color="#f2f2ff"/><stop offset="1" stop-color="#d2d2ff"/></linearGradient><linearGradient id="47lxq" x1="8168.71" x2="8467.14" y1="3398.28" y2="3398.28" gradientUnits="userSpaceOnUse"><stop offset="0" stop-color="#fff"/><stop offset=".37" stop-color="#f2f2ff"/><stop offset="1" stop-color="#d2d2ff"/></linearGradient><linearGradient id="47lxr" x1="7592.76" x2="7708.47" y1="2701.22" y2="2701.22" gradientUnits="userSpaceOnUse"><stop offset="0" stop-color="#fff"/><stop offset=".37" stop-color="#f2f2ff"/><stop offset="1" stop-color="#d2d2ff"/></linearGradient><linearGradient id="47lxs" x1="5500.45" x2="5561.92" y1="2484.96" y2="2484.96" gradientUnits="userSpaceOnUse"><stop offset="0" stop-color="#fff"/><stop offset=".37" stop-color="#f2f2ff"/><stop offset="1" stop-color="#d2d2ff"/></linearGradient><linearGradient id="47lxt" x1="3872.37" x2="3903.64" y1="1720.12" y2="1720.12" gradientUnits="userSpaceOnUse"><stop offset="0" stop-color="#fff"/><stop offset=".37" stop-color="#f2f2ff"/><stop offset="1" stop-color="#d2d2ff"/></linearGradient><linearGradient id="47lxu" x1="4107.45" x2="4138.65" y1="1561.52" y2="1561.52" gradientUnits="userSpaceOnUse"><stop offset="0" stop-color="#fff"/><stop offset=".37" stop-color="#f2f2ff"/><stop offset="1" stop-color="#d2d2ff"/></linearGradient><linearGradient id="47lxv" x1="8150.82" x2="8299.96" y1="4561.38" y2="4561.38" gradientUnits="userSpaceOnUse"><stop offset="0" stop-color="#fff"/><stop offset=".37" stop-color="#f2f2ff"/><stop offset="1" stop-color="#d2d2ff"/></linearGradient><linearGradient id="47lxw" x1="5100.86" x2="5162.25" y1="3155.34" y2="3155.34" gradientUnits="userSpaceOnUse"><stop offset="0" stop-color="#fff"/><stop offset=".37" stop-color="#f2f2ff"/><stop offset="1" stop-color="#d2d2ff"/></linearGradient><linearGradient id="47lxx" x1="5041.23" x2="5101.94" y1="2909.61" y2="2909.61" gradientUnits="userSpaceOnUse"><stop offset="0" stop-color="#fff"/><stop offset=".37" stop-color="#f2f2ff"/><stop offset="1" stop-color="#d2d2ff"/></linearGradient><linearGradient id="47lxy" x1="-6413.73" x2="20863.08" y1="2390.92" y2="2336.64" gradientUnits="userSpaceOnUse"><stop offset="0" stop-color="#30944c"/><stop offset=".41" stop-color="#8abb62"/><stop offset=".82" stop-color="#dedf77"/><stop offset="1" stop-color="#ffed7f"/></linearGradient><linearGradient id="47lxz" x1="-53703.4" x2="-62948.64" y1="27825.58" y2="27825.58" gradientUnits="userSpaceOnUse"><stop offset="0" stop-color="#f1f1f1"/><stop offset=".37" stop-color="#f2f2ff"/><stop offset="1" stop-color="#d2d2ff"/></linearGradient><linearGradient id="47lxA" x1="-9818.1" x2="20094.17" y1="5366.67" y2="5457.13" gradientUnits="userSpaceOnUse"><stop offset="0" stop-color="#30944c"/><stop offset=".41" stop-color="#8abb62"/><stop offset=".82" stop-color="#dedf77"/><stop offset="1" stop-color="#ffed7f"/></linearGradient><linearGradient id="47lxB" x1="-53702.68" x2="-62947.92" y1="35195.55" y2="35195.55" gradientUnits="userSpaceOnUse"><stop offset="0" stop-color="#f5f5f5"/><stop offset=".37" stop-color="#f2f2ff"/><stop offset="1" stop-color="#d2d2ff"/></linearGradient><linearGradient id="47lxC" x1="2572.75" x2="2592.27" y1="-805.95" y2="-805.95" gradientUnits="userSpaceOnUse"><stop offset="0" stop-color="#fff"/><stop offset=".37" stop-color="#f2f2ff"/><stop offset="1" stop-color="#d2d2ff"/></linearGradient><linearGradient id="47lxD" x1="-50522.23" x2="-58621.28" y1="52288.18" y2="52288.18" gradientUnits="userSpaceOnUse"><stop offset="0" stop-color="#ffd571"/><stop offset=".25" stop-color="#ffbd60"/><stop offset=".78" stop-color="#ff8035"/><stop offset="1" stop-color="#ff6421"/></linearGradient><linearGradient id="47lxE" x1="0" x2="58.09" y1="22.01" y2="22.01" gradientUnits="userSpaceOnUse"><stop offset="0" stop-color="#d1d1d1"/><stop offset="1" stop-color="#fff"/></linearGradient><linearGradient id="47lxF" x1="72.85" x2="57.47" y1="34.73" y2="57.16" gradientUnits="userSpaceOnUse"><stop offset="0" stop-color="#e2e2e2"/><stop offset=".12" stop-color="#e6e6e6"/><stop offset="1" stop-color="#fff"/></linearGradient><linearGradient id="47lxG" x1="-8638.79" x2="-8934.55" y1="3258.55" y2="3258.55" gradientUnits="userSpaceOnUse"><stop offset="0" stop-color="#e2e2e2"/><stop offset=".12" stop-color="#e6e6e6"/><stop offset="1" stop-color="#fff"/></linearGradient><linearGradient id="47lxH" x1="-9006.4" x2="-9301.95" y1="2276.79" y2="2276.79" gradientUnits="userSpaceOnUse"><stop offset="0" stop-color="#e2e2e2"/><stop offset=".12" stop-color="#e6e6e6"/><stop offset="1" stop-color="#fff"/></linearGradient><linearGradient id="47lxI" x1="47.76" x2="45.13" y1="68.07" y2="68.07" gradientUnits="userSpaceOnUse"><stop offset="0" stop-color="#77d8fc"/><stop offset=".43" stop-color="#75c0ea"/><stop offset="1" stop-color="#719acd"/></linearGradient><linearGradient id="47lxJ" x1="-7607.67" x2="-7768.91" y1="955.65" y2="955.65" gradientUnits="userSpaceOnUse"><stop offset="0" stop-color="#ffd571"/><stop offset=".25" stop-color="#ffbd60"/><stop offset=".78" stop-color="#ff8035"/><stop offset="1" stop-color="#ff6421"/></linearGradient><linearGradient id="47lxK" x1="-7221.67" x2="-7365.07" y1="2787.64" y2="2787.64" gradientUnits="userSpaceOnUse"><stop offset="0" stop-color="#ffd571"/><stop offset=".25" stop-color="#ffbd60"/><stop offset=".78" stop-color="#ff8035"/><stop offset="1" stop-color="#ff6421"/></linearGradient><linearGradient id="47lxL" x1="-768.75" x2="-770.96" y1="548.1" y2="548.1" gradientUnits="userSpaceOnUse"><stop offset="0" stop-color="#ffd571"/><stop offset=".25" stop-color="#ffbd60"/><stop offset=".78" stop-color="#ff8035"/><stop offset="1" stop-color="#ff6421"/></linearGradient><linearGradient id="47lxM" x1="19.2" x2="16.27" y1="21.04" y2="18.99" gradientUnits="userSpaceOnUse"><stop offset="0" stop-color="#e3cbba"/><stop offset=".25" stop-color="#dbbaa2"/><stop offset=".78" stop-color="#c88f65"/><stop offset="1" stop-color="#bf7c4a"/></linearGradient><linearGradient id="47lxN" x1="26.62" x2="10.73" y1="33.71" y2="33.71" gradientUnits="userSpaceOnUse"><stop offset="0" stop-color="#7de1f6"/><stop offset=".07" stop-color="#74d8f4"/><stop offset=".71" stop-color="#218be2"/><stop offset="1" stop-color="#006ddb"/></linearGradient><linearGradient id="47lxO" x1="47.76" x2="13.21" y1="55.13" y2="55.13" gradientUnits="userSpaceOnUse"><stop offset="0" stop-color="gray"/><stop offset=".64" stop-color="#52524d"/><stop offset="1" stop-color="#3c3c35"/></linearGradient><linearGradient id="47lxP" x1="19366.14" x2="20743.56" y1="16490.81" y2="16490.81" gradientUnits="userSpaceOnUse"><stop offset="0" stop-color="gray"/><stop offset=".64" stop-color="#52524d"/><stop offset="1" stop-color="#3c3c35"/></linearGradient><linearGradient id="47lxQ" x1="21688.57" x2="22971.8" y1="8750.75" y2="8750.75" gradientUnits="userSpaceOnUse"><stop offset="0" stop-color="#7de1f6"/><stop offset=".07" stop-color="#74d8f4"/><stop offset=".71" stop-color="#218be2"/><stop offset="1" stop-color="#006ddb"/></linearGradient><linearGradient id="47lxR" x1="16.96" x2="16.96" y1="78.31" y2="78.31" gradientUnits="userSpaceOnUse"><stop offset="0" stop-color="#77d8fc"/><stop offset=".43" stop-color="#75c0ea"/><stop offset="1" stop-color="#719acd"/></linearGradient><linearGradient id="47lxS" x1="15359.36" x2="14298.12" y1="8733.14" y2="9786.75" gradientUnits="userSpaceOnUse"><stop offset="0" stop-color="#7de1f6"/><stop offset=".07" stop-color="#74d8f4"/><stop offset=".71" stop-color="#218be2"/><stop offset="1" stop-color="#006ddb"/></linearGradient><linearGradient id="47lxT" x1="8252.34" x2="8443.67" y1="3312.82" y2="3312.82" gradientUnits="userSpaceOnUse"><stop offset="0" stop-color="#7de1f6"/><stop offset=".07" stop-color="#74d8f4"/><stop offset=".71" stop-color="#218be2"/><stop offset="1" stop-color="#006ddb"/></linearGradient><linearGradient id="47lxU" x1="35.21" x2="31.77" y1="31.88" y2="31.88" gradientUnits="userSpaceOnUse"><stop offset="0" stop-color="#ffecdc"/><stop offset=".24" stop-color="#f6dac4"/><stop offset=".74" stop-color="#e0ad87"/><stop offset="1" stop-color="#d39364"/></linearGradient><linearGradient id="47lxV" x1="3415.18" x2="3447.89" y1="1675.59" y2="1675.59" gradientUnits="userSpaceOnUse"><stop offset="0" stop-color="#ffecdc"/><stop offset=".24" stop-color="#f6dac4"/><stop offset=".74" stop-color="#e0ad87"/><stop offset="1" stop-color="#d39364"/></linearGradient><linearGradient id="47lxW" x1="-128.15" x2="-128.5" y1="4.91" y2="4.91" gradientUnits="userSpaceOnUse"><stop offset="0" stop-color="#77d8fc"/><stop offset=".43" stop-color="#75c0ea"/><stop offset="1" stop-color="#719acd"/></linearGradient><linearGradient id="47lxX" x1="1528.55" x2="1534.46" y1="1025.57" y2="1025.57" gradientUnits="userSpaceOnUse"><stop offset="0" stop-color="gray"/><stop offset=".64" stop-color="#52524d"/><stop offset="1" stop-color="#3c3c35"/></linearGradient><linearGradient id="47lxY" x1="-2531.3" x2="-2550.9" y1="1129.2" y2="1129.2" gradientUnits="userSpaceOnUse"><stop offset="0" stop-color="#ffd571"/><stop offset=".25" stop-color="#ffbd60"/><stop offset=".78" stop-color="#ff8035"/><stop offset="1" stop-color="#ff6421"/></linearGradient><linearGradient id="47lxZ" x1="2750.87" x2="2770.84" y1="1276.92" y2="1276.92" gradientUnits="userSpaceOnUse"><stop offset="0" stop-color="gray"/><stop offset=".64" stop-color="#52524d"/><stop offset="1" stop-color="#3c3c35"/></linearGradient><linearGradient id="47lxaa" x1="-9743.53" x2="-10009.34" y1="1117.59" y2="1117.59" gradientUnits="userSpaceOnUse"><stop offset="0" stop-color="#ffd571"/><stop offset=".25" stop-color="#ffbd60"/><stop offset=".78" stop-color="#ff8035"/><stop offset="1" stop-color="#ff6421"/></linearGradient><linearGradient id="47lxab" x1="7068.9" x2="7202.15" y1="1466.27" y2="1466.27" gradientUnits="userSpaceOnUse"><stop offset="0" stop-color="gray"/><stop offset=".64" stop-color="#52524d"/><stop offset="1" stop-color="#3c3c35"/></linearGradient><linearGradient id="47lxac" x1="10517.03" x2="10812.93" y1="3190.8" y2="3190.8" gradientUnits="userSpaceOnUse"><stop offset="0" stop-color="#ffecdc"/><stop offset=".24" stop-color="#f6dac4"/><stop offset=".74" stop-color="#e0ad87"/><stop offset="1" stop-color="#d39364"/></linearGradient></defs><g><g><g><g><g><g><path fill="url(#47lxa)" d="M193.504 5.57H22.964a3.446 3.446 0 0 0-2.429 1.001A3.417 3.417 0 0 0 19.53 8.99v108.754h177.407V8.989a3.398 3.398 0 0 0-1.005-2.418 3.43 3.43 0 0 0-2.428-1.001z"/></g><g><path fill="url(#47lxb)" d="M13.933 117.74H202.54c1.123 0 2.199.444 2.993 1.235a4.206 4.206 0 0 1 1.24 2.98v2.605H9.7v-2.605c0-1.118.446-2.19 1.24-2.98a4.242 4.242 0 0 1 2.993-1.235z"/></g></g><g><path fill="url(#47lxc)" d="M24.91 11.11v100.886h166.654V11.11z"/></g></g><g><g><g><path fill="url(#47lxd)" d="M110.016 67.187a17.187 17.187 0 0 1-4.848 4.358l1.727 4.833-6.581 2.33-1.727-4.833a17.301 17.301 0 0 1-6.521-.329l-2.212 4.635-6.307-2.986 2.212-4.634a17.187 17.187 0 0 1-4.375-4.826l-4.855 1.718-2.339-6.552 4.854-1.72a17.067 17.067 0 0 1 .332-6.494l-4.655-2.203 2.997-6.278 4.655 2.202a17.192 17.192 0 0 1 4.847-4.357l-1.726-4.834 6.583-2.337 1.73 4.844a17.114 17.114 0 0 1 6.515.327l2.212-4.635 6.307 2.984-2.212 4.635a16.997 16.997 0 0 1 4.368 4.824l4.864-1.722 2.338 6.558-4.854 1.719c.306 2.166.194 4.37-.332 6.495l4.655 2.203-2.998 6.278zm-15.709-4.114a6.604 6.604 0 0 0 5.01-.51 6.57 6.57 0 0 0 1.978-1.629 6.534 6.534 0 0 0 .689-7.245 6.565 6.565 0 0 0-2.71-2.679 6.602 6.602 0 0 0-7.272.74 6.547 6.547 0 0 0-2.11 3.17 6.522 6.522 0 0 0 .014 3.802 6.549 6.549 0 0 0 2.133 3.155c.67.543 1.44.95 2.268 1.196z"/></g><g><path fill="url(#47lxe)" d="M87.823 67.03a13.195 13.195 0 0 1-4.298-6.356 13.143 13.143 0 0 1-.028-7.661 13.194 13.194 0 0 1 4.251-6.387 13.302 13.302 0 0 1 14.65-1.49 13.227 13.227 0 0 1 5.461 5.397 13.15 13.15 0 0 1-1.39 14.599 13.307 13.307 0 0 1-18.646 1.897zm15.46-18.9a11.267 11.267 0 0 0-12.419-1.172 11.202 11.202 0 0 0-4.59 4.606 11.138 11.138 0 0 0 1.268 12.357 11.23 11.23 0 0 0 5.432 3.585c2.127.634 4.395.626 6.518-.023a11.23 11.23 0 0 0 5.406-3.626 11.159 11.159 0 0 0-1.614-15.727z"/></g></g><g><g><path fill="url(#47lxf)" d="M134.928 44.896a10.71 10.71 0 0 1-3.02 2.715l1.076 3.01-4.1 1.452-1.075-3.01c-1.356.19-2.735.12-4.063-.206l-1.378 2.887-3.929-1.86 1.378-2.887a10.706 10.706 0 0 1-2.725-3.006l-3.025 1.07-1.457-4.081 3.024-1.071a10.632 10.632 0 0 1 .206-4.046l-2.9-1.372 1.868-3.912 2.9 1.373a10.71 10.71 0 0 1 3.02-2.715l-1.076-3.011 4.1-1.456 1.079 3.017a10.66 10.66 0 0 1 4.058.204l1.378-2.887 3.93 1.859-1.379 2.887a10.588 10.588 0 0 1 2.721 3.005l3.03-1.073 1.457 4.086-3.024 1.07c.19 1.35.12 2.724-.207 4.047l2.9 1.372-1.868 3.911zm-9.786-2.563a4.115 4.115 0 0 0 4.353-1.332 4.072 4.072 0 0 0 .43-4.514 4.089 4.089 0 0 0-1.69-1.669 4.113 4.113 0 0 0-4.529.461 4.064 4.064 0 0 0 .023 6.308c.417.34.897.593 1.413.746z"/></g><g><path fill="url(#47lxg)" d="M121.102 44.795a8.22 8.22 0 0 1-2.678-3.958 8.188 8.188 0 0 1-.017-4.773 8.219 8.219 0 0 1 2.648-3.979 8.286 8.286 0 0 1 9.127-.929 8.24 8.24 0 0 1 3.402 3.363 8.192 8.192 0 0 1-.866 9.094 8.29 8.29 0 0 1-11.616 1.182zm9.631-11.773a7.019 7.019 0 0 0-7.736-.73 6.978 6.978 0 0 0-2.86 2.87 6.939 6.939 0 0 0 .79 7.697 6.996 6.996 0 0 0 3.384 2.234 7.022 7.022 0 0 0 4.06-.015 6.995 6.995 0 0 0 3.368-2.259 6.952 6.952 0 0 0-1.006-9.797z"/></g></g></g><g><g><g><path fill="url(#47lxh)" d="M139.17 100.32c.924 0 1.676 1.035 1.676 2.307s-.752 2.306-1.676 2.306H76.124c-.922 0-1.674-1.034-1.674-2.306s.752-2.307 1.674-2.307zm0 3.84c.615 0 1.114-.688 1.114-1.533 0-.846-.5-1.533-1.114-1.533H76.124c-.613 0-1.112.687-1.112 1.533 0 .845.5 1.533 1.112 1.533h63.046z"/></g><g><path fill="url(#47lxi)" d="M101.017 101.09v3.066H76.122c-.613 0-1.112-.687-1.112-1.533 0-.846.5-1.533 1.112-1.533z"/></g></g><g><g><path fill="url(#47lxj)" d="M99.367 95.433v-1.712H96.25v-.805l3.278-4.636h.72v4.636h.971v.805h-.97v1.712zm0-2.517V89.69l-2.25 3.226z"/></g><g><path fill="url(#47lxk)" d="M102.13 93.535l.882-.117c.101.498.273.857.517 1.076.243.22.561.338.89.33a1.43 1.43 0 0 0 1.05-.43 1.448 1.448 0 0 0 .43-1.064 1.342 1.342 0 0 0-.862-1.297c-.173-.068-.359-.1-.545-.093-.21.006-.42.04-.623.097l.099-.77c.047.005.094.009.142.01.36.004.713-.098 1.014-.294a1.003 1.003 0 0 0 .45-.902 1.065 1.065 0 0 0-.327-.8 1.169 1.169 0 0 0-.848-.318 1.204 1.204 0 0 0-.858.322 1.613 1.613 0 0 0-.44.967l-.883-.157a2.256 2.256 0 0 1 .735-1.368c.4-.33.907-.503 1.426-.486.376-.004.748.083 1.083.252.313.152.576.39.757.685.172.277.262.597.262.922.003.3-.084.594-.25.844-.183.268-.44.478-.74.606.393.077.744.293.99.607.244.335.368.74.353 1.154a2.103 2.103 0 0 1-.686 1.588 2.414 2.414 0 0 1-1.734.652 2.263 2.263 0 0 1-1.571-.561 2.166 2.166 0 0 1-.713-1.455z"/></g><g><g><path fill="url(#47lxl)" d="M113.739 93.163a1.51 1.51 0 0 1-.348 1.054 1.14 1.14 0 0 1-.874.387 1.112 1.112 0 0 1-.86-.385c-.223-.25-.336-.616-.336-1.09-.01-.348.092-.69.292-.975a1.046 1.046 0 0 1 .9-.433 1.153 1.153 0 0 1 .882.38c.229.248.344.605.344 1.062zm-.893-.02c0-.343-.066-.477-.106-.527a.253.253 0 0 0-.422 0c-.039.05-.104.192-.104.57 0 .337.065.47.105.523a.245.245 0 0 0 .208.112.253.253 0 0 0 .215-.112c.038-.05.104-.192.104-.567z"/></g><g><path fill="url(#47lxm)" d="M111.935 89.24l-2.795 5.365h.914l2.788-5.365z"/></g><g><path fill="url(#47lxn)" d="M109.924 92.026c-.15.067-.314.1-.479.098a1.118 1.118 0 0 1-.86-.385c-.223-.247-.334-.614-.334-1.09-.01-.347.093-.688.292-.974a1.038 1.038 0 0 1 .897-.434 1.161 1.161 0 0 1 .881.379c.229.249.344.606.344 1.063a1.51 1.51 0 0 1-.348 1.054 1.135 1.135 0 0 1-.393.29zm-.676-1.89c-.04.05-.106.192-.106.57 0 .339.067.473.106.523a.252.252 0 0 0 .42 0c.039-.052.104-.192.104-.569 0-.34-.065-.474-.106-.526a.25.25 0 0 0-.211-.11.245.245 0 0 0-.207.112z"/></g></g></g></g><g><g><path fill="url(#47lxo)" d="M191.57 60.24v51.758h-39.472c-2.033-10.148 13.113-10.907 13.113-10.907-1.648-13.315 14.094-10.41 14.094-10.41-3.624-11.313 4.82-18.197 4.82-18.197-4.578-10.929 7.444-12.244 7.444-12.244z"/></g><g><path fill="url(#47lxp)" d="M191.564 45.89v2.317c-.309 0-.605-.122-.823-.339a1.156 1.156 0 0 1 .823-1.978z"/></g><g><g><path fill="url(#47lxq)" d="M174.894 74.71a3.197 3.197 0 0 0 3.203-3.19 3.197 3.197 0 0 0-3.203-3.19 3.197 3.197 0 0 0-3.204 3.19 3.197 3.197 0 0 0 3.204 3.19z"/></g><g><path fill="url(#47lxr)" d="M185.052 43.787a1.98 1.98 0 0 0 0-2.81 2.001 2.001 0 0 0-2.822 0 1.98 1.98 0 0 0 0 2.81c.78.776 2.042.776 2.822 0z"/></g><g><path fill="url(#47lxs)" d="M180.687 65.417a1.443 1.443 0 0 1-.897 1.337 1.46 1.46 0 0 1-1.584-.314 1.445 1.445 0 0 1 1.027-2.47c.386 0 .755.152 1.028.424.273.271.426.64.426 1.023z"/></g><g><path fill="url(#47lxt)" d="M173.625 61.097a1.032 1.032 0 0 0-.668-1.3 1.038 1.038 0 0 0-1.306.665 1.032 1.032 0 0 0 .668 1.3 1.038 1.038 0 0 0 1.306-.665z"/></g><g><path fill="url(#47lxu)" d="M188.276 49.808a1.034 1.034 0 0 1 .51 1.03 1.03 1.03 0 0 1-.76.862 1.041 1.041 0 0 1-1.092-.369 1.03 1.03 0 0 1 .555-1.626c.265-.07.548-.034.787.103z"/></g><g><path fill="url(#47lxv)" d="M173.032 86.974a2.257 2.257 0 0 0-1.873-2.588 2.264 2.264 0 0 0-2.599 1.866 2.257 2.257 0 0 0 1.874 2.587 2.264 2.264 0 0 0 2.598-1.865z"/></g><g><path fill="url(#47lxw)" d="M162.862 95.886a1.454 1.454 0 0 0-2.829-.665 1.454 1.454 0 0 0 2.829.665z"/></g><g><path fill="url(#47lxx)" d="M160.352 86.568a1.438 1.438 0 1 0-.716-2.788 1.439 1.439 0 1 0 .716 2.788z"/></g></g></g></g><g><g><path fill="url(#47lxy)" d="M43.15 50.77H2.616c-.672 0-1.216.542-1.216 1.211v3.48c0 .668.544 1.21 1.216 1.21H43.15c.671 0 1.216-.542 1.216-1.21v-3.48c0-.669-.545-1.211-1.216-1.211z"/></g><g><path fill="url(#47lxz)" d="M22.062 87.946h1.64c19.028-5.38 16.95-31.266 16.95-31.266H5.118S3.034 82.566 22.062 87.946z"/></g><g><path fill="url(#47lxA)" d="M43.15 120.1H2.616c-.672 0-1.216.542-1.216 1.211v3.48c0 .668.544 1.21 1.216 1.21H43.15c.671 0 1.216-.542 1.216-1.21v-3.48c0-.669-.545-1.211-1.216-1.211z"/></g><g><path fill="url(#47lxB)" d="M22.062 88.83h1.64c19.028 5.38 16.95 31.266 16.95 31.266H5.118S3.034 94.21 22.062 88.83z"/></g><g transform="rotate(180 23 88)"><path fill="url(#47lxC)" d="M23.708 87.94H22.07v.89h1.638z"/></g><g opacity=".79"><path fill="url(#47lxD)" d="M6.25 119.036h33.264a42.49 42.49 0 0 0-.649-9.983c-1.572-3.69-3.194-3.888-8.54-5.13-5.341-1.243-6.882-6.287-6.882-6.287l-.025-7.871-.006-2.827c7.804-2.205 12.053-8.094 14.1-14.02-.756.813-2.615 2.056-6.639 1.149-5.72-1.292-7.068-6.417-14.61-4.454-6.732 1.758-8.105 2.155-8.523 1.696 1.86 6.435 6.04 13.225 14.555 15.63l.006 2.826.019 6.305s-.13 2.95-4.13 5.436c-4.005 2.485-7.605 1.366-11.105 6.572a42.789 42.789 0 0 0-.836 10.958z"/></g></g><g><g><g><path fill="url(#47lxE)" d="M51.596 44.023L1.86 10.203A4.227 4.227 0 0 1 .075 7.5a4.2 4.2 0 0 1 .66-3.165l1.71-2.492A4.265 4.265 0 0 1 8.35.736l49.737 33.822zM10.491 9.143c1.322-1.927.647-4.676-1.507-6.14-2.154-1.465-4.971-1.09-6.292.836-1.322 1.927-.647 4.676 1.507 6.14 2.153 1.465 4.97 1.09 6.292-.836z"/></g><g><path fill="url(#47lxF)" d="M51.6 44.023l6.491-9.465s17.763-9.421 20.77 13.069l-7.632-5.46-7.077 3.472-1.082 8.425 7.721 5.25S53.605 64.52 51.6 44.025z"/></g></g><g><g><path fill="url(#47lxG)" d="M53.23 66.324s1.243 2.02 1.6 1.977c.355-.043.914-.381.683-.76-.174-.282.774-.296 1.13-.339.356-.043 1.813-1.1 2.37-1.438.559-.336.761-.632.452-1.138-.308-.504-2.464.975-2.911.554-.45-.42-1.115.13-1.115.13z"/></g><g><path fill="url(#47lxH)" d="M45.13 68.093c.014.138.281 2.346.613 2.451.34.11.99.037.939-.405-.039-.327.827.055 1.169.164.342.11 2.108-.243 2.757-.316.648-.075.955-.26.888-.848-.07-.586-2.645-.142-2.877-.71-.16-.395-.611-.41-.872-.379l.012.043z"/></g><g><path fill="url(#47lxI)" d="M45.13 68.087c0 .002 0 .004.002.006h2.63l-.013-.043a1.43 1.43 0 0 0-.194.032z"/></g><g><path fill="url(#47lxJ)" d="M16.97 11.726c2.22-.309 2.832 1.575 2.832 1.575a5.263 5.263 0 0 1 1.88-.265s-.846-2.21-3.757-1.78a4.14 4.14 0 0 0-.955.47z"/></g><g><path fill="url(#47lxK)" d="M15.66 16.44c.203.41.416.82.612 1.19.074-.263.167-.52.277-.77-.567-.356-1.148-.973-.762-1.6.213-.347.493-.494.775-.494.034 0 .07.003.104.008a.792.792 0 0 1 .185.043 1.077 1.077 0 0 1 .28.144c.027.02.058.043.086.066.028.025.056.048.084.076a4.946 4.946 0 0 1 2.494-1.803s-.612-1.884-2.832-1.576c-1.943 1.29-1.78 3.753-1.303 4.717z"/></g><g><path fill="url(#47lxL)" d="M16.28 17.629c.058.111.117.22.173.324.23-.59.38-.939.38-.939a3.106 3.106 0 0 1-.276-.154c-.11.25-.203.506-.277.769z"/></g><g><path fill="url(#47lxM)" d="M17.783 21.792c.807.956 1.75 2.284 2.316 2.459 0 0 .03-.018.091.012.056-.005.056-.05.023-.131-.005-.01-.01-.023-.018-.036l-.033-.06c-.228-.392-.937-1.222-1.122-1.849-.272-.908.218-2.137.218-2.137a1.262 1.262 0 0 1-.274-.104c-1.935-.996-1.374-2.89-1.633-2.782l-.3 1.897s-.066.928-.094 1.378h-.002c0 .023-.003.043-.003.064-.025.417.175.516.83 1.29z"/></g><g><path fill="url(#47lxN)" d="M10.73 26.45a.96.96 0 0 0 .01.144.654.654 0 0 0 .02.126c.006.038.016.078.026.121.015.056.03.114.05.175.026.073.051.152.084.235.023.06.049.124.077.19l2.21 14.741c.19.06.389.089.589.088h12.828c-.018-.053-.9-2.268-1.544-4.028-.138-.37-.265-.723-.371-1.04a222.47 222.47 0 0 1-.617-1.838c-1.181.38-2.121.594-2.461.47 0 0-4.138-9.233-7.262-10.35-1.755-.63-2.885-.317-3.565.318a3.8 3.8 0 0 0-.074.647z"/></g><g><path fill="url(#47lxO)" d="M13.21 42.18c.03.147 1.062 4.873 3.741 7.45 2.718 2.62 18.578 0 18.578 0l9.598 18.462h2.631a3669.224 3669.224 0 0 0-2.532-9.744c-1.364-5.235-2.898-11.095-3.553-13.497l-.003-.003a29.26 29.26 0 0 0-.29-1.034c-.492-1.545-3.662-1.545-3.662-1.545H13.8c-.2 0-.398-.03-.589-.089z"/></g><g><path fill="url(#47lxP)" d="M41.67 44.85c.657 2.401 2.19 8.262 3.553 13.497l8.004 7.976 2.21-1.014z"/></g><g><path fill="url(#47lxQ)" d="M10.81 25.801c.68-.634 1.81-.948 3.566-.318 1.927.69 4.241 4.47 5.73 7.263a55.837 55.837 0 0 1 1.53 3.088c.341.124 1.281-.091 2.462-.47-.198-.59-.399-1.205-.605-1.834-.279-.865-.56-1.753-.825-2.625-.218-.713-.424-1.416-.615-2.09a29.812 29.812 0 0 0-1.112-3.353l-.721-1.33c.033.081.033.127-.023.132-.061-.03-.092-.013-.092-.013-.566-.174-1.508-1.502-2.316-2.458-.655-.774-.856-.873-.83-1.29l.002-.063-1.292.761c-1.344.766-3.079 1.725-4.859 4.6z"/></g><g><path fill="url(#47lxR)" d="M16.962 20.542h-.002v-.212z"/></g><g><path fill="url(#47lxS)" d="M10.73 26.45a.96.96 0 0 0 .01.144.654.654 0 0 0 .02.126c.006.038.016.078.026.121.015.056.03.114.05.175.026.073.051.152.084.235a5 5 0 0 0 .077.19c1.193 2.837 6.085 9.306 8.261 12.121a1.976 1.976 0 0 0 1.984.726c.196-.04.385-.111.559-.21l3.279-1.836 7.609-4.261-.92-1.626s-.16.07-.442.19c-1.231.533-4.76 2.03-7.235 2.819-1.181.38-2.121.594-2.461.47 0 0-4.138-9.233-7.262-10.35-1.755-.63-2.885-.317-3.565.318a3.8 3.8 0 0 0-.074.647z"/></g><g><path fill="url(#47lxT)" d="M22.66 30.9c.264.872.546 1.76.825 2.624l4.308-4.309-1.328-1.315s-.135.111-.374.301c-.632.516-1.983 1.6-3.431 2.698z"/></g><g><path fill="url(#47lxU)" d="M31.77 32.347l.92 1.626s1.541-.769 2.087-1.38a.862.862 0 0 0 .168-.246c.254-.627.447-1.831 0-2.304-.442-.473-1.491-.253-1.682.412-.19.663-.574.718-.574.718l-.332-.225z"/></g><g><path fill="url(#47lxV)" d="M26.47 27.902l1.328 1.315.795-.83-1.333-.905c.072-.196.163-.385.272-.564.104-.149.099-.796-.282-.587-.178.1-.364.453-.506.8-.162.39-.274.77-.274.77z"/></g><g><path fill="url(#47lxW)" d="M27.362 27.519l-.212-.012.005-.037.21.032z"/></g><g><path fill="url(#47lxX)" d="M16.45 17.948c.345.648.604 1.108.604 1.108l.3-1.897c-.07.03-.277-.028-.523-.149 0 0-.15.349-.381.938z"/></g><g><path fill="url(#47lxY)" d="M22.137 15.79c.332-.106 1.285-.486 1.214-1.295a1.219 1.219 0 0 0-.054-.253c-.175-.539-.797-.812-1.587-.842a3.03 3.03 0 0 1 .427 2.39z"/></g><g><path fill="url(#47lxZ)" d="M20.56 13.51c.612-.096 1.166.48 1.278 1.017.017.086.035.174.05.265.051.294.09.595.115.835.005.038.007.073.012.106l.008.091c.002.018.002.033.005.048.003.013.003.028.005.04l.015.185c.036-.1.064-.202.087-.306a3.025 3.025 0 0 0-.427-2.39 4.861 4.861 0 0 0-1.148.11z"/></g><g><path fill="url(#47lxaa)" d="M17.31 15.103a.344.344 0 0 1 .061.06c.023.024.04.046.061.07a1.305 1.305 0 0 1 .127.175c.612-.967 1.768-1.607 2.888-1.87l.03-.008c.03-.007.059-.015.089-.02a4.862 4.862 0 0 1 1.148-.109c.79.03 1.412.304 1.587.842.027.082.045.167.054.253 0 0 .058-.485-.483-1.097-.168-.193-.61-.337-1.189-.365a5.263 5.263 0 0 0-1.879.266 4.946 4.946 0 0 0-2.494 1.803z"/></g><g><path fill="url(#47lxab)" d="M17.55 15.407l.008.013c.025.043.05.088.073.134.003.002.003.008.005.01.026.05.048.103.066.157a1.466 1.466 0 0 1 .094.354c.176 1.13.549.22.993-.87.016-.035.028-.066.041-.099l.076-.174a3.89 3.89 0 0 1 .137-.273c.03-.054.062-.105.097-.155.188-.27.358-.31.686-.566a6.213 6.213 0 0 0 .18-.15c.663-.58 1.684.044 1.829.74-.112-.537-.666-1.114-1.278-1.017-.03.005-.058.012-.089.02l-.03.007c-1.12.263-2.276.903-2.888 1.87z"/></g><g><path fill="url(#47lxac)" d="M16.557 16.861c.09.056.182.108.277.155.246.121.452.18.523.149.259-.109-.302 1.785 1.633 2.782.087.045.179.08.274.103 1.201.296 2.057-1.63 2.481-2.903.201-.597.308-1.05.308-1.05l-.015-.184c-.003-.013-.003-.028-.006-.04-.002-.016-.002-.03-.005-.048a7.136 7.136 0 0 1-.007-.092c-.005-.032-.008-.068-.013-.106-.025-.24-.063-.54-.114-.834a6.944 6.944 0 0 0-.051-.266c-.112-.536-.665-1.113-1.278-1.016-.03.005-.058.012-.088.02l-.03.007c-.162.05-.31.136-.433.25a2.659 2.659 0 0 1-.177.15s0-.003-.003 0c-.325.26-.495.303-.686.566-.035.05-.067.101-.096.155a3.89 3.89 0 0 0-.214.447 2.711 2.711 0 0 1-.04.099c-.445 1.09-.818 2-.993.87a1.466 1.466 0 0 0-.046-.21 1.188 1.188 0 0 0-.048-.144 1.205 1.205 0 0 0-.066-.157c-.003-.002-.003-.008-.005-.01a2.24 2.24 0 0 0-.074-.134l-.008-.013c-.015-.025-.033-.05-.05-.076a.935.935 0 0 0-.077-.098c-.02-.023-.038-.046-.06-.069a.344.344 0 0 0-.062-.06c-.027-.028-.055-.05-.083-.076a1.952 1.952 0 0 0-.087-.066 1.081 1.081 0 0 0-.465-.187.695.695 0 0 0-.104-.008c-.281 0-.56.147-.774.494-.386.627.195 1.244.762 1.6z"/></g></g></g></g></g></svg>