<svg xmlns="http://www.w3.org/2000/svg" width="227" height="149" viewBox="0 0 227 149"><g><g><g><g><path fill="#fff1d9" d="M27.298 142.083c-5.473-7.689-11.019-15.519-14.065-24.45-3.047-8.931-3.294-19.283 1.565-27.373 3.584-5.968 9.51-10.115 13.977-15.455 8.341-9.973 11.05-23.303 15.201-35.62C48.127 26.868 55.148 14.019 67.448 9.79a25.429 25.429 0 0 1 20.632 1.964c7.761 4.454 12.659 12.737 20.201 17.551 12.562 8.018 28.944 4.675 43.401 1.046 14.457-3.63 30.825-7.001 43.412.976a28.031 28.031 0 0 1 12.784 23.244c-.008 10.355-5.828 20.234-4.849 30.543 1.127 11.867 10.99 21.487 12.334 33.332 1.34 11.813-7.429 23.911-19.08 26.324"/></g><g><g><path fill="#5d9cf9" d="M189.885 130.868c-6.32 0-12.7-2.759-16.733-7.618l.152-.126c5.468 6.588 15.291 9.28 23.357 6.401 8.067-2.878 13.961-11.178 14.015-19.736.048-7.542-3.704-13.982-7.675-20.8-2.519-4.323-5.123-8.794-6.626-13.534-2.048-6.459-2.035-13.38-2.022-20.074.006-3.28.012-6.67-.223-9.97-.274-3.836-1.166-9.511-3.863-14.77-2.527-4.927-6.01-8.26-10.352-9.905-5.914-2.242-13.206-1.18-22.294 3.247-1.34.653-2.698 1.35-4.012 2.024-5.556 2.852-11.3 5.8-17.556 6.404-.84.081-1.679.12-2.515.12-6.425 0-12.717-2.243-18.826-4.421-.933-.332-1.863-.664-2.79-.986-7.58-2.637-16.381-4.9-24.186-1.691-6.486 2.666-11.698 9.25-13.94 17.61-2.03 7.574-1.677 15.514-1.335 23.192l-.197.009c-.343-7.694-.697-15.649 1.342-23.252 2.258-8.42 7.512-15.052 14.055-17.742 7.865-3.232 16.71-.961 24.326 1.687.928.323 1.858.655 2.791.987 6.884 2.454 14.002 4.99 21.257 4.29 6.217-.599 11.944-3.539 17.484-6.382a217.03 217.03 0 0 1 4.016-2.026c9.14-4.452 16.483-5.517 22.45-3.255 4.389 1.664 7.907 5.028 10.457 10 2.713 5.288 3.61 10.992 3.885 14.846.235 3.307.229 6.701.223 9.984-.012 6.679-.025 13.585 2.013 20.014 1.497 4.72 4.095 9.18 6.608 13.495 3.81 6.54 7.75 13.304 7.702 20.9-.054 8.638-6.003 17.016-14.145 19.921a20.364 20.364 0 0 1-6.843 1.157z"/></g><g><path fill="#5d9cf9" d="M22.121 143.606C10.85 132.378 4.103 121.401 1.495 110.048a42.45 42.45 0 0 1 .245-19.912c1.783-6.797 5.28-12.554 10.111-16.649 2.71-2.296 5.842-4.098 8.872-5.842a71.804 71.804 0 0 0 7.41-4.675 35.858 35.858 0 0 0 13.606-22.142c.517-3.387.796-6.806.837-10.231.195-5.577.397-11.344 2.736-16.474C49.147 5.708 58.742.163 68.65.638c4.76.277 9.38 1.72 13.451 4.2a34.067 34.067 0 0 1 10.386 9.718c1.282 1.842 2.425 3.845 3.53 5.782 2.252 3.946 4.58 8.026 8.167 10.856 2.843 2.242 6.314 3.561 9.672 4.837 2.958 1.124 6.018 2.286 8.664 4.08 3.48 2.43 6.2 5.795 7.845 9.706a28.467 28.467 0 0 1 2.303 12.486c-.305 7.501-3.269 15.411-8.81 23.51l-.163-.112c5.52-8.067 8.473-15.942 8.776-23.406a28.268 28.268 0 0 0-2.287-12.4 22.256 22.256 0 0 0-7.775-9.621c-2.627-1.78-5.675-2.939-8.623-4.059-3.372-1.28-6.858-2.605-9.724-4.866-3.618-2.854-5.955-6.951-8.216-10.913-1.103-1.933-2.244-3.933-3.52-5.768A33.868 33.868 0 0 0 82 5.007 28.916 28.916 0 0 0 68.64.835c-9.826-.471-19.347 5.027-23.15 13.37-2.322 5.094-2.523 10.841-2.718 16.399a73.704 73.704 0 0 1-.84 10.258 36.057 36.057 0 0 1-13.682 22.265 72.013 72.013 0 0 1-7.43 4.69c-3.022 1.738-6.147 3.536-8.842 5.82-4.8 4.069-8.275 9.791-10.048 16.549a42.243 42.243 0 0 0-.244 19.817c2.6 11.317 9.33 22.263 20.574 33.463z"/></g></g><g><path fill="#d7e8f9" d="M113.02 148.504c59.298 0 107.37-3.007 107.37-6.717 0-3.71-48.072-6.717-107.37-6.717-59.299 0-107.37 3.007-107.37 6.717 0 3.71 48.071 6.717 107.37 6.717z"/></g><g/><g><g><g><path fill="#113c7c" d="M47.86 51.68h130.307a3.755 3.755 0 0 1 3.76 3.757v79.66H44.1v-79.66a3.755 3.755 0 0 1 3.76-3.757z"/></g><g><path fill="#0c305b" d="M178.173 51.68H113.02v83.417h68.913v-79.66a3.755 3.755 0 0 0-3.76-3.757z"/></g><g><path fill="#154ba0" d="M31.296 135.1h163.437a1.106 1.106 0 0 1 1.106 1.105 4.5 4.5 0 0 1-4.503 4.499H34.693a4.506 4.506 0 0 1-4.16-2.777 4.495 4.495 0 0 1-.343-1.722 1.104 1.104 0 0 1 1.106-1.105z"/></g><g><path fill="#e1edff" d="M49.949 56.3h126.127a1.23 1.23 0 0 1 1.229 1.227v71.728a1.229 1.229 0 0 1-1.229 1.228H49.949a1.23 1.23 0 0 1-1.229-1.228V57.528a1.227 1.227 0 0 1 1.229-1.228z"/></g><g><path fill="#c7daf2" d="M113.02 130.483h63.064a1.229 1.229 0 0 0 1.228-1.228V57.528a1.227 1.227 0 0 0-1.228-1.228H113.02z"/></g><g><path fill="#104187" d="M194.738 135.1H113.02v5.604h78.322a4.506 4.506 0 0 0 4.16-2.777c.226-.546.342-1.131.342-1.722a1.104 1.104 0 0 0-1.106-1.105z"/></g><g><path fill="#1d53bf" d="M130.469 137.689H95.57a2.592 2.592 0 0 1-2.591-2.589h40.08a2.588 2.588 0 0 1-2.591 2.589z"/></g><g><path fill="#154a9e" d="M130.469 137.689a2.593 2.593 0 0 0 2.59-2.589H113.02v2.589z"/></g></g><g><g><path fill="#d87b27" d="M203.685 39.019h-27.482c-.647 0-1.277-.21-1.793-.6l-6.9-4.318a2.975 2.975 0 0 0-1.792-.601h-7.905a2.975 2.975 0 0 0-2.973 2.97v33.093a2.978 2.978 0 0 0 2.973 2.97h45.872a2.983 2.983 0 0 0 2.973-2.97V41.99a2.978 2.978 0 0 0-2.973-2.971z"/></g><g><path fill="#ea9139" d="M203.676 39.02H180.74v33.515h22.936a2.984 2.984 0 0 0 2.973-2.971V41.99a2.978 2.978 0 0 0-2.973-2.971z"/></g><g><path fill="#e8c556" d="M159.994 40.62h41.51a2.975 2.975 0 0 1 2.973 2.971v24.343a2.97 2.97 0 0 1-2.974 2.971h-41.51a2.975 2.975 0 0 1-2.973-2.97V43.59a2.97 2.97 0 0 1 2.974-2.971z"/></g><g><path fill="#f2d565" d="M201.495 40.62H180.74v30.285h20.755a2.975 2.975 0 0 0 2.974-2.97V43.59a2.97 2.97 0 0 0-2.974-2.971z"/></g><g><path fill="#d87b27" d="M157.813 44.19h45.872a2.975 2.975 0 0 1 2.973 2.97v22.403a2.97 2.97 0 0 1-2.973 2.97h-45.872a2.975 2.975 0 0 1-2.973-2.97V47.16a2.97 2.97 0 0 1 2.973-2.971z"/></g><g><path fill="#ea9139" d="M206.65 69.563V47.16a2.97 2.97 0 0 0-2.974-2.97H180.74v28.343h22.936a2.983 2.983 0 0 0 2.973-2.97z"/></g><g/></g><g><g><path fill="#ea9139" d="M203.87 109.606l17.34-12.095a1.006 1.006 0 0 1 .8-.155l4.294.987a1.005 1.005 0 0 1 .772 1.104l-.552 4.369a1.004 1.004 0 0 1-.421.697l-1.97 1.374a.831.831 0 0 1-.547.146l-2.49-.216a.503.503 0 0 0-.53.368l-.6 2.213a.502.502 0 0 1-.53.369l-2.285-.198a.503.503 0 0 0-.529.368l-.602 2.214a.502.502 0 0 1-.528.368l-2.525-.218a.503.503 0 0 0-.33.089l-4.716 3.289z"/></g><g><path fill="#1d53bf" d="M210.45 122.247c3.436-4.974 2.186-11.79-2.793-15.223-4.978-3.433-11.8-2.184-15.235 2.79-3.437 4.974-2.186 11.79 2.792 15.223 4.978 3.433 11.8 2.184 15.236-2.79z"/></g><g><path fill="#fff" d="M198.12 121.734a2.787 2.787 0 0 1-4.337-2.768 2.782 2.782 0 0 1 2.143-2.23 2.788 2.788 0 0 1 2.883 1.124 2.78 2.78 0 0 1-.69 3.874z"/></g><g/></g><g><g><g><path fill="#e8c556" d="M60.232 102.668a10.483 10.483 0 0 0-3.619.64 15.617 15.617 0 0 0-5.161-7.496 15.639 15.639 0 0 0-23.676 5.144 11.996 11.996 0 0 0-14.673 3.14 11.972 11.972 0 0 0 9.293 19.54h37.836c2.783 0 5.452-1.105 7.42-3.071a10.48 10.48 0 0 0 0-14.827 10.498 10.498 0 0 0-7.42-3.07z"/></g><g><path fill="#f2d565" d="M60.24 123.635a10.503 10.503 0 0 0 8.037-3.754 10.48 10.48 0 0 0 .54-12.757 10.49 10.49 0 0 0-7.692-4.418 10.5 10.5 0 0 0-4.504.602 15.62 15.62 0 0 0-5.668-7.882 15.642 15.642 0 0 0-9.233-3.016v31.225z"/></g><g><path fill="#d87b27" d="M37.989 115.495c-.022 0-.044 0-.067-.002a.899.899 0 0 1-.634-.333l-3.82-4.738a.898.898 0 1 1 1.401-1.128l3.217 3.991 8.287-7.628a.9.9 0 0 1 1.22 1.321l-8.995 8.28a.9.9 0 0 1-.61.237z"/></g><g><path fill="#ea9139" d="M41.72 112.383l5.871-5.405a.898.898 0 0 0-1.219-1.321l-4.652 4.282z"/></g></g><g/><g/></g><g><g><g><g><path fill="#1d53bf" d="M51.05 29.49a1.678 1.678 0 0 1 1.97 1.318 1.674 1.674 0 0 1-1.317 1.97l-2.449.485a8.353 8.353 0 0 1-.63 3.15l2.077 1.387a1.677 1.677 0 0 1 0 2.786 1.68 1.68 0 0 1-1.864 0l-2.077-1.388a8.369 8.369 0 0 1-2.672 1.784l.486 2.447a1.68 1.68 0 0 1-1.318 1.97 1.683 1.683 0 0 1-1.971-1.317l-.487-2.447a8.374 8.374 0 0 1-3.152-.63l-1.389 2.076a1.682 1.682 0 0 1-2.325.461 1.68 1.68 0 0 1-.462-2.324l1.388-2.075a8.361 8.361 0 0 1-1.786-2.67l-2.449.486a1.678 1.678 0 0 1-1.97-1.317 1.674 1.674 0 0 1 1.317-1.97l2.449-.485c.004-1.08.218-2.15.63-3.15l-2.077-1.387a1.68 1.68 0 0 1-.462-2.324 1.682 1.682 0 0 1 2.326-.461l2.077 1.387a8.368 8.368 0 0 1 2.672-1.785l-.486-2.446a1.68 1.68 0 0 1 1.318-1.97 1.683 1.683 0 0 1 1.971 1.317l.487 2.447a8.372 8.372 0 0 1 3.152.63l1.389-2.076a1.682 1.682 0 0 1 2.326-.461 1.68 1.68 0 0 1 .461 2.323l-1.389 2.075a8.359 8.359 0 0 1 1.787 2.67zm-5.79 6.69a5.312 5.312 0 0 0-3.384-8.169 5.325 5.325 0 0 0-5.463 2.259 5.313 5.313 0 0 0 2.386 7.866 5.326 5.326 0 0 0 6.46-1.956z"/></g><g><path fill="#124591" d="M41.873 38.438a5.325 5.325 0 0 1-6.255-4.179 5.312 5.312 0 0 1 4.182-6.25l-1.383-6.959a1.682 1.682 0 0 0-1.318 1.97l.486 2.446a8.367 8.367 0 0 0-2.672 1.785l-2.077-1.388a1.683 1.683 0 0 0-2.326.462 1.679 1.679 0 0 0 .462 2.324l2.077 1.387a8.355 8.355 0 0 0-.63 3.15l-2.449.486a1.677 1.677 0 0 0-1.318 1.969 1.675 1.675 0 0 0 1.971 1.317l2.45-.486a8.36 8.36 0 0 0 1.785 2.67l-1.388 2.075a1.68 1.68 0 0 0 .462 2.324 1.683 1.683 0 0 0 2.325-.461l1.39-2.075c1 .41 2.07.625 3.151.629l.487 2.447a1.68 1.68 0 0 0 1.97 1.316z"/></g><g><g><path fill="#fff" d="M39.525 22.642a.784.784 0 0 1-1.206.805.785.785 0 1 1 1.206-.805z"/></g><g><path fill="#fff" d="M47.398 24.82a.785.785 0 1 1-1.305-.873.785.785 0 0 1 1.305.874z"/></g><g><path fill="#fff" d="M51.418 31.924a.786.786 0 0 1-.806-1.206.785.785 0 1 1 .806 1.206z"/></g><g><path fill="#fff" d="M49.239 39.787a.785.785 0 1 1 .872-1.305.785.785 0 0 1-.872 1.305z"/></g><g><path fill="#fff" d="M42.135 43.807a.784.784 0 0 1 1.496-.452.784.784 0 0 1-1.379.735.784.784 0 0 1-.117-.283z"/></g><g><path fill="#fff" d="M34.263 41.628a.785.785 0 1 1 1.304.874.785.785 0 0 1-1.304-.874z"/></g><g><path fill="#fff" d="M30.242 34.525a.786.786 0 0 1 .454 1.494.786.786 0 0 1-.954-1.16.785.785 0 0 1 .5-.334z"/></g><g><path fill="#fff" d="M32.422 26.662a.785.785 0 1 1-.872 1.305.785.785 0 0 1 .872-1.305z"/></g></g></g><g/></g><g><g><g><path fill="#dd5048" d="M33.103 45.674a1.384 1.384 0 0 1 1.399 1.826 1.382 1.382 0 0 1-1.221.934l-2.056.132a6.895 6.895 0 0 1-.857 2.508l1.549 1.36a1.382 1.382 0 1 1-1.827 2.077l-1.549-1.36c-.71.54-1.518.938-2.38 1.17l.133 2.055a1.386 1.386 0 0 1-1.292 1.469 1.389 1.389 0 0 1-1.47-1.291l-.132-2.055a6.908 6.908 0 0 1-2.511-.855l-1.361 1.547a1.388 1.388 0 0 1-1.953.125 1.386 1.386 0 0 1-.126-1.95l1.361-1.548a6.896 6.896 0 0 1-1.171-2.378l-2.056.133a1.384 1.384 0 0 1-1.129-2.293c.243-.275.585-.443.95-.467l2.057-.132c.12-.883.411-1.735.857-2.508l-1.549-1.36a1.386 1.386 0 0 1-.126-1.951 1.388 1.388 0 0 1 1.953-.126l1.549 1.36a6.907 6.907 0 0 1 2.38-1.17l-.133-2.055a1.386 1.386 0 0 1 1.292-1.468 1.389 1.389 0 0 1 1.47 1.29l.132 2.055a6.91 6.91 0 0 1 2.51.856l1.362-1.548a1.388 1.388 0 0 1 1.953-.125 1.386 1.386 0 0 1 .125 1.95l-1.36 1.548c.54.71.938 1.517 1.17 2.378l2.057-.133zM26.28 51.56a4.39 4.39 0 0 0 2.444-4.218 4.385 4.385 0 0 0-2.965-3.871 4.395 4.395 0 0 0-4.714 1.256 4.385 4.385 0 0 0 3.58 7.274 4.393 4.393 0 0 0 1.655-.44z"/></g><g><path fill="#c63f3c" d="M19.961 47.903a4.385 4.385 0 0 1 4.1-4.66l-.377-5.843a1.388 1.388 0 0 0-1.292 1.468l.132 2.055c-.861.233-1.67.63-2.38 1.17l-1.548-1.36a1.384 1.384 0 0 0-2.293 1.128c.023.366.191.707.466.95l1.549 1.36a6.895 6.895 0 0 0-.857 2.508l-2.056.132a1.384 1.384 0 0 0-.825 2.418c.276.242.636.365 1.003.341l2.056-.132c.233.86.63 1.668 1.171 2.377l-1.36 1.548a1.386 1.386 0 0 0 .125 1.95 1.388 1.388 0 0 0 1.953-.125l1.361-1.547a6.91 6.91 0 0 0 2.51.856l.133 2.054a1.386 1.386 0 0 0 1.47 1.29L24.625 52a4.395 4.395 0 0 1-4.222-2.442 4.384 4.384 0 0 1-.442-1.654z"/></g><g><g><path fill="#fff" d="M24.425 38.826a.647.647 0 1 1-1.292.083.647.647 0 0 1 1.292-.083z"/></g><g><path fill="#fff" d="M30.625 41.465a.648.648 0 1 1-.973-.856.648.648 0 0 1 .973.856z"/></g><g><path fill="#fff" d="M33.15 47.703a.648.648 0 1 1-.084-1.294.648.648 0 0 1 .084 1.294z"/></g><g><path fill="#fff" d="M30.51 53.904a.647.647 0 1 1 .855-.973.647.647 0 0 1-.855.973z"/></g><g><path fill="#fff" d="M24.261 56.419a.647.647 0 1 1 1.292-.083.647.647 0 0 1-1.292.083z"/></g><g><path fill="#fff" d="M18.061 53.79a.648.648 0 1 1 .973.856.648.648 0 0 1-.973-.856z"/></g><g><path fill="#fff" d="M15.536 47.541a.648.648 0 1 1 .084 1.295.648.648 0 0 1-.084-1.295z"/></g><g><path fill="#fff" d="M18.176 41.341a.647.647 0 1 1-.855.973.647.647 0 0 1 .855-.973z"/></g></g></g><g/></g></g><g><g><path fill="#ea9139" d="M136.606 79.782H129.5v-17.61a16.465 16.465 0 0 0-4.84-11.627 16.494 16.494 0 0 0-23.294 0 16.465 16.465 0 0 0-4.84 11.627v17.61H89.42v-17.61a23.562 23.562 0 0 1 6.91-16.668 23.604 23.604 0 0 1 33.366 0 23.562 23.562 0 0 1 6.91 16.668z"/></g><g/><g><path fill="#d87b27" d="M89.42 62.172v17.61h7.106v-17.61a16.484 16.484 0 0 1 4.835-11.642 16.513 16.513 0 0 1 11.652-4.83v-7.1a23.63 23.63 0 0 0-16.675 6.912 23.588 23.588 0 0 0-6.918 16.66z"/></g><g><path fill="#c63f3c" d="M143.335 73.99c-11.456 8.013-27.1-1.574-29.887-3.41a.786.786 0 0 0-.867 0c-2.787 1.836-18.432 11.423-29.888 3.41a.789.789 0 0 0-1.243.661c.176 7.731 2.633 40.868 31.564 50.065 28.932-9.197 31.389-42.334 31.564-50.065a.787.787 0 0 0-1.243-.661z"/></g><g><path fill="#dd5048" d="M144.584 74.651a.788.788 0 0 0-1.243-.661c-11.456 8.013-27.1-1.574-29.888-3.41a.787.787 0 0 0-.433-.13v54.266c28.931-9.197 31.388-42.334 31.564-50.065z"/></g><g><path fill="#124591" d="M119.262 93.506a6.24 6.24 0 0 0-3.328-5.521 6.256 6.256 0 0 0-8.603 2.913 6.24 6.24 0 0 0 3.39 8.42v8.498a2.286 2.286 0 0 0 2.29 2.287 2.29 2.29 0 0 0 2.29-2.287v-8.498a6.25 6.25 0 0 0 3.961-5.812z"/></g><g><path fill="#1d53bf" d="M115.31 107.816v-8.499a6.25 6.25 0 0 0 3.852-6.976 6.245 6.245 0 0 0-6.142-5.081v22.843a2.297 2.297 0 0 0 2.29-2.287z"/></g></g></g><g><g><g><path fill="#1d53bf" d="M198.839 93.814a1.75 1.75 0 0 1-1.715-2.088 1.747 1.747 0 0 1 2.384-1.273 1.748 1.748 0 0 1 1.08 1.614 1.748 1.748 0 0 1-1.75 1.747zm0-2.657a.912.912 0 0 0-.644 1.554.911.911 0 1 0 .644-1.554z"/></g><g><path fill="#1d53bf" d="M201.632 90a.418.418 0 0 1-.313-.14 3.324 3.324 0 0 0-4.967 0 .419.419 0 0 1-.626-.556 4.161 4.161 0 0 1 6.218 0 .418.418 0 0 1-.312.697z"/></g><g><path fill="#1d53bf" d="M194.239 88.4a.42.42 0 0 1-.313-.698 6.575 6.575 0 0 1 7.604-1.626c.846.38 1.603.934 2.22 1.626a.42.42 0 1 1-.626.557 5.737 5.737 0 0 0-6.635-1.42 5.737 5.737 0 0 0-1.937 1.42.418.418 0 0 1-.313.14z"/></g><g><path fill="#1d53bf" d="M205.243 86.787a.417.417 0 0 1-.313-.14 8.15 8.15 0 0 0-6.09-2.73 8.156 8.156 0 0 0-6.088 2.73.419.419 0 0 1-.626-.556 8.987 8.987 0 0 1 6.715-3.011 8.994 8.994 0 0 1 6.714 3.01.418.418 0 0 1-.312.697z"/></g></g><g><g><path fill="#dd5048" d="M24.246 84.183a.76.76 0 0 1-.752-.863l.64-4.587a4.268 4.268 0 0 1-2.416-4.242 4.31 4.31 0 0 1 5.69-3.673 4.255 4.255 0 0 1 1.504.908 4.287 4.287 0 0 1-1.06 7.007l.64 4.587a.758.758 0 0 1-.752.863zm.035-.79h3.424l-.72-5.155.29-.114a3.5 3.5 0 0 0 2.13-4.039 3.499 3.499 0 0 0-3.68-2.705 3.503 3.503 0 0 0-3.195 2.969 3.496 3.496 0 0 0 2.18 3.775l.29.114z"/></g><g><path fill="#c63f3c" d="M25.993 83.391H24.28L25 78.236l-.29-.114a3.5 3.5 0 0 1-2.18-3.776 3.498 3.498 0 0 1 3.194-2.968c.09-.007.18-.007.269-.007v-.791a4.45 4.45 0 0 0-.327.011 4.317 4.317 0 0 0-3.948 3.897 4.263 4.263 0 0 0 2.416 4.243l-.64 4.586a.757.757 0 0 0 .752.863h1.747z"/></g></g><g><g><path fill="#ea9139" d="M81.491 39.114a6.59 6.59 0 0 1-3.031 5.558 6.607 6.607 0 0 1-3.102 1.031c-.335.072-.681.07-1.014-.008a6.609 6.609 0 0 1-5.388-3.668 6.594 6.594 0 0 1 2.886-8.765 6.61 6.61 0 0 1 9.65 5.852zm-.6-.253a5.964 5.964 0 0 0-.921-2.943h-1.66c.315.95.485 1.942.507 2.943zm-3.435 4.126h-2.29v2.136l.123-.008c.868-.194 1.634-.98 2.167-2.128zm-5.17 0c.527 1.136 1.284 1.92 2.142 2.123l.147.01v-2.133zm-1.361-4.126c.021-1 .192-1.992.506-2.943h-1.626a6.047 6.047 0 0 0-.923 2.943zm1.12-2.943a9.54 9.54 0 0 0-.528 2.943h3.058v-2.943zm5.41-.591c-.557-1.201-1.37-2.008-2.288-2.152v2.152zm-2.288.591v2.943h3.058a9.542 9.542 0 0 0-.528-2.943zm-.592-2.743c-.918.144-1.732.95-2.29 2.152h2.29zm-3.058 6.278a9.538 9.538 0 0 0 .528 2.942h2.53v-2.942zm6.18 2.942a9.54 9.54 0 0 0 .528-2.942h-3.058v2.942zm1.12-2.942c-.022 1-.192 1.992-.506 2.942h1.616c.57-.881.901-1.895.96-2.942zm.725-4.126a5.996 5.996 0 0 0-2.692-1.877c.53.539.95 1.176 1.235 1.877zm-9.312 0h1.427a5.802 5.802 0 0 1 1.218-1.862 5.977 5.977 0 0 0-2.645 1.861zm-1.346 4.126a5.967 5.967 0 0 0 .963 2.942h1.584a10.058 10.058 0 0 1-.506-2.942zm1.4 3.534a5.995 5.995 0 0 0 2.486 1.754 5.941 5.941 0 0 1-1.113-1.754zm9.205 0h-1.404a5.912 5.912 0 0 1-1.138 1.78 6.025 6.025 0 0 0 2.542-1.78z"/></g><g><path fill="#d87b27" d="M74.888 45.757l-.019.001a2.41 2.41 0 0 1-.527-.06 6.603 6.603 0 0 1-4.407-2.205 6.591 6.591 0 0 1 .378-9.13 6.604 6.604 0 0 1 4.575-1.833zm-4.66-10.427h1.428a5.803 5.803 0 0 1 1.218-1.861 5.977 5.977 0 0 0-2.645 1.861zm-.425.592a6.047 6.047 0 0 0-.922 2.942h2.042c.022-1 .192-1.992.506-2.942zm1.626 6.476a10.058 10.058 0 0 1-.506-2.942h-2.04a5.967 5.967 0 0 0 .963 2.942zm-1.147.592a5.995 5.995 0 0 0 2.487 1.754 5.941 5.941 0 0 1-1.113-1.754zm4.291 0h-2.289c.528 1.137 1.285 1.92 2.142 2.123l.147.01zm0-3.534h-3.058a9.539 9.539 0 0 0 .528 2.942h2.53zm0-3.534h-2.53a9.54 9.54 0 0 0-.528 2.942h3.058zm0-2.744c-.918.144-1.731.95-2.289 2.152h2.29z"/></g></g><g><g><path fill="#dd5048" d="M142.039 18.422c0 2.507-1.414 4.502-3.23 4.502a1.586 1.586 0 0 1-1.581-.9 1.794 1.794 0 0 1-1.567.9c-1.123 0-1.871-.873-1.871-2.507 0-2.23 1.053-3.726 2.565-3.726.534.018 1.04.241 1.414.623.097-.388.208-.554.72-.554h.167c.471 0 .652.138.652.36 0 .07-.43 3.906-.43 4.156 0 .332.152.498.485.498.97 0 1.789-1.537 1.789-3.352a3.53 3.53 0 0 0-2.263-3.525 3.54 3.54 0 0 0-1.467-.229c-2.995 0-5.352 2.521-5.352 5.735 0 2.549 1.47 4.28 3.633 4.28a7.459 7.459 0 0 0 2.135-.401c.125 0 .194.138.194.457 0 .54-1.622.692-2.33.692-2.689 0-4.519-2.036-4.519-5.028a6.279 6.279 0 0 1 3.8-5.972c.771-.33 1.6-.505 2.44-.511 2.786 0 4.616 1.787 4.616 4.502zm-4.534-.055a1.067 1.067 0 0 0-.748-.319c-.777 0-1.234.776-1.234 2.258 0 .803.263 1.219.79 1.219a1.19 1.19 0 0 0 .901-.665c.036-.837.133-1.67.291-2.493z"/></g><g><g><path fill="#c63f3c" d="M136.61 24.617c-.3.05-.603.074-.908.073-2.162 0-3.632-1.732-3.632-4.28a5.558 5.558 0 0 1 4.54-5.672v-.758a6.316 6.316 0 0 0-3.942 2.18 6.306 6.306 0 0 0-1.485 4.25c0 2.991 1.83 5.027 4.52 5.027.303-.002.606-.021.908-.058z"/></g><g><path fill="#c63f3c" d="M133.79 20.416c0 1.635.749 2.507 1.872 2.507.335.002.664-.09.95-.267v-1.202a.702.702 0 0 1-.299.07c-.526 0-.79-.415-.79-1.219 0-1.387.4-2.155 1.088-2.248V16.71a1.718 1.718 0 0 0-.256-.02c-1.511 0-2.565 1.496-2.565 3.726z"/></g></g></g></g><g><g><g><path fill="#dd5048" d="M140.553 40.33a.79.79 0 0 0 0 1.578.79.79 0 0 0 0-1.578z"/></g><g><path fill="#dd5048" d="M100.093 7.04a.79.79 0 0 0 0 1.578.79.79 0 0 0 0-1.578z"/></g><g><path fill="#dd5048" d="M58.833 37.16a.79.79 0 0 0 0 1.578.79.79 0 0 0 0-1.578z"/></g><g><path fill="#dd5048" d="M5.683 64.51a.79.79 0 0 0 0 1.578.79.79 0 0 0 0-1.578z"/></g><g><path fill="#dd5048" d="M36.223 81.15a.79.79 0 0 0 0 1.578.79.79 0 0 0 0-1.578z"/></g><g><path fill="#dd5048" d="M17.583 131.09a.79.79 0 0 0 0 1.578.79.79 0 0 0 0-1.578z"/></g><g><path fill="#dd5048" d="M194.103 22.5a.79.79 0 0 0 0 1.578.79.79 0 0 0 0-1.578z"/></g><g><path fill="#dd5048" d="M186.963 87.89a.79.79 0 0 0 0 1.578.79.79 0 0 0 0-1.578z"/></g><g><path fill="#dd5048" d="M222.663 127.13a.79.79 0 0 0 0 1.578.79.79 0 0 0 0-1.578z"/></g></g><g><g><path fill="#f2d565" d="M187.177 104.38a.692.692 0 0 0 0 1.38.692.692 0 0 0 0-1.38z"/></g><g><path fill="#f2d565" d="M214.047 73.79a.692.692 0 0 0 0 1.38.692.692 0 0 0 0-1.38z"/></g><g><path fill="#f2d565" d="M160.767 11.15a.692.692 0 0 0 0 1.38.692.692 0 0 0 0-1.38z"/></g><g><path fill="#f2d565" d="M91.427 39.14a.692.692 0 0 0 0 1.38.692.692 0 0 0 0-1.38z"/></g><g><path fill="#f2d565" d="M67.357 14.74a.692.692 0 0 0 0 1.38.692.692 0 0 0 0-1.38z"/></g><g><path fill="#f2d565" d="M8.437 87.96a.692.692 0 0 0 0 1.38.692.692 0 0 0 0-1.38z"/></g><g><path fill="#f2d565" d="M21.727 26.58a.692.692 0 0 0 0 1.38.692.692 0 0 0 0-1.38z"/></g></g></g></g></g></g></svg>