<svg xmlns="http://www.w3.org/2000/svg" width="264" height="134" viewBox="0 0 264 134"><g><g><g/><g><g><g><g><g><path fill="#989898" fill-opacity=".1" d="M179.97 27.344h-64.493a4.57 4.57 0 0 1-4.557-4.557 4.57 4.57 0 0 1 4.557-4.557h64.493a4.57 4.57 0 0 1 4.557 4.557 4.571 4.571 0 0 1-4.557 4.557z"/></g><g><path fill="#989898" fill-opacity=".1" d="M94.561 27.344H82.847a4.57 4.57 0 0 1-4.557-4.557 4.57 4.57 0 0 1 4.557-4.557H94.56a4.57 4.57 0 0 1 4.557 4.557 4.57 4.57 0 0 1-4.557 4.557z"/></g><g><path fill="#989898" fill-opacity=".1" d="M184.727 0h11.714a4.556 4.556 0 0 1 4.557 4.557 4.557 4.557 0 0 1-4.557 4.557h-11.714a4.557 4.557 0 0 1-4.557-4.557A4.557 4.557 0 0 1 184.727 0z"/></g><g><path fill="#989898" fill-opacity=".1" d="M37.517 110.58H49.23a4.556 4.556 0 0 1 4.557 4.557 4.558 4.558 0 0 1-4.557 4.557H37.517a4.557 4.557 0 0 1-4.557-4.557 4.557 4.557 0 0 1 4.557-4.557z"/></g><g><path fill="#989898" fill-opacity=".1" d="M232.597 110.58h11.714a4.557 4.557 0 0 1 4.557 4.557 4.558 4.558 0 0 1-4.557 4.557h-11.714a4.557 4.557 0 0 1-4.557-4.557 4.557 4.557 0 0 1 4.557-4.557z"/></g><g><path fill="#989898" fill-opacity=".1" d="M122.467 0h45.641a4.557 4.557 0 0 1 4.557 4.557 4.557 4.557 0 0 1-4.557 4.557h-45.641a4.556 4.556 0 0 1-4.557-4.557A4.557 4.557 0 0 1 122.467 0z"/></g><g><path fill="#989898" fill-opacity=".1" d="M158.857 13.667a4.57 4.57 0 0 1 4.556-4.557H131.64a4.57 4.57 0 0 1 4.557 4.557 4.57 4.57 0 0 1-4.557 4.557h31.773a4.57 4.57 0 0 1-4.556-4.557z"/></g></g><g><g><path fill="#f5f5f5" d="M52.037 36.72h160.689a4.554 4.554 0 0 1 4.557 4.557 4.556 4.556 0 0 1-4.557 4.557H52.036a4.557 4.557 0 0 1-4.556-4.557 4.558 4.558 0 0 1 4.557-4.557z"/></g><g><path fill="#f5f5f5" d="M68.147 54.95H202.14a4.554 4.554 0 0 1 4.557 4.557 4.558 4.558 0 0 1-4.557 4.557H68.147a4.557 4.557 0 0 1-4.557-4.557 4.557 4.557 0 0 1 4.557-4.557z"/></g><g><path fill="#f5f5f5" d="M180.593 54.944a4.57 4.57 0 0 1-4.557-4.557 4.57 4.57 0 0 1 4.557-4.557H82.01a4.557 4.557 0 0 1 0 9.114z"/></g><g><g><path fill="#f5f5f5" d="M52.817 91.41h162.185a4.57 4.57 0 0 1 4.557 4.557 4.572 4.572 0 0 1-4.557 4.557H52.817a4.57 4.57 0 0 1-4.557-4.557 4.57 4.57 0 0 1 4.557-4.557z"/></g><g><path fill="#f5f5f5" d="M61.847 73.18h165.086a4.571 4.571 0 0 1 4.557 4.557 4.571 4.571 0 0 1-4.557 4.557H61.847a4.57 4.57 0 0 1-4.557-4.557 4.57 4.57 0 0 1 4.557-4.557z"/></g><g><path fill="#f5f5f5" d="M71.25 82.29a4.57 4.57 0 0 1 4.557 4.557 4.57 4.57 0 0 1-4.557 4.557h100.924a4.557 4.557 0 1 1 0-9.114z"/></g></g><g><path fill="#f5f5f5" d="M145.46 68.617a4.571 4.571 0 0 1 4.557-4.557H105.75a4.57 4.57 0 0 1 4.557 4.557 4.57 4.57 0 0 1-4.557 4.557h44.267a4.57 4.57 0 0 1-4.557-4.557z"/></g></g></g><g><path fill="#fff" d="M19.787 66.364a6.368 6.368 0 0 1-2.103-.33c-1.697-.586-2.915-2.078-2.962-3.63 0-.403.039-.805.117-1.2.04-.239.076-.464.095-.689.03-.355.02-1.002-.377-1.345-.427-.371-1.162-.273-1.817-.152l-2.905.536c-.616.113-1.458.27-2.196-.103-1.06-.536-1.326-1.845-1.232-2.804.054-.45.14-.897.256-1.336.12-.44.202-.888.246-1.341.03-.453-.064-1.012-.42-1.225-.364-.217-.918-.045-1.41.134L1.31 54.252a.432.432 0 1 1-.296-.812l3.77-1.373c.49-.179 1.401-.51 2.149-.064.595.356.9 1.094.839 2.024a8.84 8.84 0 0 1-.269 1.487c-.107.4-.185.807-.236 1.218-.073.74.134 1.63.761 1.947.442.223 1.009.143 1.65.025l2.905-.537c.617-.113 1.764-.325 2.541.35.507.44.745 1.175.671 2.07-.021.259-.063.512-.103.757-.068.34-.104.687-.106 1.034.037 1.2 1.015 2.368 2.38 2.838 1.11.383 2.435.379 4.165-.016 1.581-.36 3.11-.92 4.549-1.667a.43.43 0 0 1 .478.051.432.432 0 0 1-.08.716 19.905 19.905 0 0 1-4.755 1.743c-.831.201-1.682.309-2.536.321z"/></g><g><g><path fill="#fff" d="M252.986 74.608a.618.618 0 1 1-1.236 0 .618.618 0 0 1 1.236 0z"/></g><g><path fill="#fff" d="M256.446 74.608a.618.618 0 1 1-1.236 0 .618.618 0 0 1 1.236 0z"/></g><g><path fill="#fff" d="M259.906 74.608a.618.618 0 1 1-1.236 0 .618.618 0 0 1 1.236 0z"/></g><g><path fill="#fff" d="M263.366 74.608a.618.618 0 1 1-1.236 0 .618.618 0 0 1 1.236 0z"/></g><g><path fill="#fff" d="M252.986 77.608a.618.618 0 1 1-1.236 0 .618.618 0 0 1 1.236 0z"/></g><g><path fill="#fff" d="M256.446 77.608a.618.618 0 1 1-1.236 0 .618.618 0 0 1 1.236 0z"/></g><g><path fill="#fff" d="M259.906 77.608a.618.618 0 1 1-1.236 0 .618.618 0 0 1 1.236 0z"/></g><g><path fill="#fff" d="M263.366 77.608a.618.618 0 1 1-1.236 0 .618.618 0 0 1 1.236 0z"/></g></g><g><g><path fill="#fff" d="M32.486 80.898a.618.618 0 1 1-1.236 0 .618.618 0 0 1 1.236 0z"/></g><g><path fill="#fff" d="M35.956 80.898a.618.618 0 1 1-1.236 0 .618.618 0 0 1 1.236 0z"/></g><g><path fill="#fff" d="M38.798 81.516a.618.618 0 1 0 0-1.236.618.618 0 0 0 0 1.236z"/></g><g><path fill="#fff" d="M42.876 80.898a.618.618 0 1 1-1.236 0 .618.618 0 0 1 1.236 0z"/></g><g><path fill="#fff" d="M32.486 83.888a.618.618 0 1 1-1.236 0 .618.618 0 0 1 1.236 0z"/></g><g><path fill="#fff" d="M35.956 83.888a.618.618 0 1 1-1.236 0 .618.618 0 0 1 1.236 0z"/></g><g><path fill="#fff" d="M39.416 83.888a.618.618 0 1 1-1.236 0 .618.618 0 0 1 1.236 0z"/></g><g><path fill="#fff" d="M42.876 83.888a.618.618 0 1 1-1.236 0 .618.618 0 0 1 1.236 0z"/></g></g><g><path fill="#fff" d="M245.617 58.304c-.272-.001-.545-.021-.815-.06-3.072-.431-5.789-2.7-6.76-5.647a.432.432 0 0 1 .82-.271c.871 2.641 3.306 4.676 6.06 5.062.709.1 1.687.103 2.326-.444.786-.674.799-1.971.548-2.96a14.965 14.965 0 0 0-.41-1.285c-.257-.728-.522-1.48-.599-2.285-.076-.794.1-1.433.51-1.85.533-.542 1.375-.666 2.502-.367a12.203 12.203 0 0 1 4.683 2.419l.052-1.792c.018-.611.08-1.302.597-1.753.572-.501 1.406-.409 1.995-.155a3.56 3.56 0 0 1 1.987 2.25.432.432 0 1 1-.83.241 2.722 2.722 0 0 0-1.5-1.697c-.33-.142-.813-.225-1.083.012-.255.222-.289.679-.302 1.128l-.079 2.725a.431.431 0 0 1-.734.297 11.334 11.334 0 0 0-5.007-2.84c-.805-.213-1.365-.166-1.665.138-.283.289-.3.791-.265 1.162.066.7.302 1.37.552 2.08.155.439.315.893.433 1.36.408 1.606.1 3.037-.823 3.828-.543.465-1.292.703-2.193.704z"/></g><g><g><path fill="#fff" d="M3.457 34.32h32.495a5.214 5.214 0 0 0-3.708-4.99 5.851 5.851 0 0 0-5.634-4.568A8.918 8.918 0 0 0 9.887 27.34c-.042-.001-.084-.004-.126-.004a6.34 6.34 0 0 0-6.309 6.985z"/></g><g><path fill="#fff" d="M206.76 21.807h43.09a6.915 6.915 0 0 0-4.916-6.619 7.76 7.76 0 0 0-7.472-6.057 11.827 11.827 0 0 0-22.176 3.418c-.056-.001-.111-.004-.167-.004a8.409 8.409 0 0 0-8.366 9.262z"/></g></g></g><g><g><g><g><path fill="#fff" d="M116.535 25.91H69.23a4.739 4.739 0 0 0-4.739 4.74v97.843a4.739 4.739 0 0 0 4.739 4.739h47.306a4.739 4.739 0 0 0 4.739-4.739V30.649a4.739 4.739 0 0 0-4.739-4.739z"/></g><g><path d="M69.22 133.656a5.176 5.176 0 0 1-5.17-5.171V30.641a5.177 5.177 0 0 1 5.17-5.171h47.307a5.176 5.176 0 0 1 5.171 5.171v97.844a5.179 5.179 0 0 1-5.17 5.171zm0-107.322a4.311 4.311 0 0 0-4.306 4.307v97.844a4.311 4.311 0 0 0 4.307 4.307h47.306a4.312 4.312 0 0 0 4.307-4.307V30.641a4.312 4.312 0 0 0-4.306-4.307z"/></g></g><g><g><path fill="#f9ca24" d="M116.789 38.36H68.964a.494.494 0 0 0-.494.494v82.107c0 .273.221.494.494.494h47.825a.494.494 0 0 0 .494-.494V38.854a.494.494 0 0 0-.494-.494z"/></g><g><path d="M68.97 121.847a.89.89 0 0 1-.89-.89V38.85a.891.891 0 0 1 .89-.89h47.825a.891.891 0 0 1 .89.89v82.107a.89.89 0 0 1-.89.89zm0-83.095a.098.098 0 0 0-.098.098v82.107a.098.098 0 0 0 .098.098h47.825a.097.097 0 0 0 .098-.098V38.85a.098.098 0 0 0-.098-.098z"/></g></g><g><path fill="#f4ab19" d="M97.031 129.512h-8.3a2.428 2.428 0 0 1-2.421-2.42 2.428 2.428 0 0 1 2.42-2.422h8.301a2.428 2.428 0 0 1 2.421 2.421 2.428 2.428 0 0 1-2.42 2.421z"/></g><g><path fill="#f4ab19" d="M78.494 33.558a1.99 1.99 0 0 1-1.984-1.984 1.99 1.99 0 0 1 1.984-1.984 1.99 1.99 0 0 1 1.983 1.984 1.99 1.99 0 0 1-1.983 1.984z"/></g><g><path fill="#f4ab19" d="M102.57 32.82a1.243 1.243 0 0 1-1.24-1.24 1.244 1.244 0 0 1 1.24-1.24 1.243 1.243 0 0 1 1.24 1.24 1.244 1.244 0 0 1-1.24 1.24z"/></g><g><path fill="#f4ab19" d="M97.591 30.65h-9.432a.43.43 0 0 0-.429.43v1c0 .238.192.43.43.43h9.431a.43.43 0 0 0 .43-.43v-1a.43.43 0 0 0-.43-.43z"/></g></g><g><g><path d="M107.681 83.21H78.075a2.434 2.434 0 1 1 0-4.87h29.606a2.435 2.435 0 0 1 0 4.87z"/></g><g><g><g><g><path fill="#fff" d="M102.8 84.548c5.48-5.48 5.48-14.365 0-19.845-5.48-5.48-14.363-5.48-19.843 0s-5.48 14.365 0 19.845c5.48 5.48 14.364 5.48 19.843 0z"/></g><g><path d="M92.883 89.09a14.463 14.463 0 0 1-14.185-17.287 14.465 14.465 0 0 1 19.72-10.542 14.464 14.464 0 0 1 8.929 13.364A14.482 14.482 0 0 1 92.883 89.09zm0-28.066a13.598 13.598 0 0 0-13.337 16.254 13.6 13.6 0 0 0 24.645 4.903 13.602 13.602 0 0 0 2.292-7.556 13.617 13.617 0 0 0-13.6-13.6z"/></g></g><g><path fill="#f9ca24" d="M92.88 86.1c6.334 0 11.469-5.135 11.469-11.47 0-6.335-5.136-11.47-11.47-11.47-6.334 0-11.469 5.135-11.469 11.47 0 6.335 5.135 11.47 11.47 11.47z"/></g><g><path fill="#fff" d="M97.466 75.546a2.958 2.958 0 0 0-.93-1.07 5.772 5.772 0 0 0-1.446-.718 18.875 18.875 0 0 0-1.898-.541c-.558-.141-.958-.248-1.2-.322a3.746 3.746 0 0 1-.72-.304 1.707 1.707 0 0 1-.557-.465 1.04 1.04 0 0 1-.203-.643c0-.4.199-.742.596-1.027.397-.285.92-.427 1.568-.427.7 0 1.207.13 1.522.393.346.303.623.676.812 1.095.126.258.29.496.486.706a.91.91 0 0 0 .655.216 1.01 1.01 0 0 0 .79-.36 1.19 1.19 0 0 0 .318-.807 2.272 2.272 0 0 0-.254-1.006 3.145 3.145 0 0 0-.803-.985 4.174 4.174 0 0 0-1.382-.753 5.78 5.78 0 0 0-1.621-.275v-1.818a.685.685 0 1 0-1.37 0v1.87a5.822 5.822 0 0 0-1.47.367 3.519 3.519 0 0 0-1.614 1.222 3.086 3.086 0 0 0-.558 1.818c0 .715.176 1.314.528 1.796.37.497.863.89 1.43 1.142.718.318 1.467.563 2.235.731.666.153 1.197.296 1.594.432.366.116.7.317.973.587a1.372 1.372 0 0 1 .376 1.002c0 .519-.233.952-.698 1.298-.465.347-1.07.52-1.813.52-.541 0-.978-.086-1.31-.258a2.074 2.074 0 0 1-.775-.655 5.032 5.032 0 0 1-.511-.99 1.994 1.994 0 0 0-.47-.752.954.954 0 0 0-.671-.254 1.097 1.097 0 0 0-1.125 1.108c0 .524.176 1.064.528 1.62a4.032 4.032 0 0 0 1.374 1.331c.61.34 1.282.553 1.977.627v2.19a.685.685 0 0 0 1.37 0v-2.13a6.125 6.125 0 0 0 2.327-.5 3.848 3.848 0 0 0 1.695-1.404 3.643 3.643 0 0 0 .58-2.021 3.426 3.426 0 0 0-.335-1.586z"/></g></g></g></g></g><g><g><g><g><path fill="#fff" d="M141.309 26.25h47.306a4.738 4.738 0 0 1 4.739 4.74v97.843a4.74 4.74 0 0 1-4.739 4.739H141.31a4.742 4.742 0 0 1-4.739-4.739V30.989a4.74 4.74 0 0 1 4.739-4.739z"/></g><g><path d="M141.31 133.996a5.176 5.176 0 0 1-5.17-5.171V30.981a5.177 5.177 0 0 1 5.17-5.171h47.307a5.176 5.176 0 0 1 5.171 5.171v97.844a5.178 5.178 0 0 1-5.17 5.171zm0-107.322a4.311 4.311 0 0 0-4.306 4.307v97.844a4.31 4.31 0 0 0 4.307 4.307h47.306a4.312 4.312 0 0 0 4.307-4.307V30.981a4.312 4.312 0 0 0-4.307-4.307z"/></g></g><g><g><path fill="#f9ca24" d="M188.879 38.7h-47.825a.494.494 0 0 0-.494.494v82.107c0 .273.221.494.494.494h47.825a.494.494 0 0 0 .494-.494V39.194a.494.494 0 0 0-.494-.494z"/></g><g><path d="M141.05 122.188a.89.89 0 0 1-.89-.89V39.19a.891.891 0 0 1 .89-.89h47.825a.89.89 0 0 1 .89.89v82.107a.89.89 0 0 1-.89.89zm0-83.096a.098.098 0 0 0-.098.098v82.107a.098.098 0 0 0 .098.098h47.825a.098.098 0 0 0 .098-.098V39.19a.098.098 0 0 0-.098-.098z"/></g></g><g><path fill="#f4ab19" d="M160.82 125.01h8.301a2.42 2.42 0 0 1 2.421 2.421 2.421 2.421 0 0 1-2.42 2.421h-8.301a2.42 2.42 0 0 1-2.421-2.42 2.421 2.421 0 0 1 2.42-2.422z"/></g><g><path fill="#f4ab19" d="M150.584 33.898a1.99 1.99 0 0 1-1.984-1.984 1.99 1.99 0 0 1 1.984-1.984 1.99 1.99 0 0 1 1.983 1.984 1.99 1.99 0 0 1-1.983 1.984z"/></g><g><path fill="#f4ab19" d="M174.66 33.16a1.243 1.243 0 0 1-1.24-1.24 1.244 1.244 0 0 1 1.24-1.24 1.243 1.243 0 0 1 1.24 1.24 1.244 1.244 0 0 1-1.24 1.24z"/></g><g><path fill="#f4ab19" d="M169.681 30.99h-9.432a.43.43 0 0 0-.429.43v1c0 .238.192.43.43.43h9.431a.43.43 0 0 0 .43-.43v-1a.43.43 0 0 0-.43-.43z"/></g></g><g><path d="M179.771 83.21h-29.606a2.434 2.434 0 0 1 0-4.87h29.606a2.434 2.434 0 0 1 0 4.87z"/></g><g><g><g><path fill="#fff" d="M164.971 76.355c7.75 0 14.032-6.282 14.032-14.032S172.72 48.29 164.97 48.29c-7.749 0-14.031 6.283-14.031 14.033 0 7.75 6.282 14.032 14.031 14.032z"/></g><g><path d="M164.963 76.79a14.463 14.463 0 0 1-14.185-17.287 14.465 14.465 0 0 1 19.72-10.542 14.463 14.463 0 0 1 8.929 13.364 14.482 14.482 0 0 1-14.464 14.465zm0-28.066a13.598 13.598 0 0 0-13.337 16.254 13.6 13.6 0 0 0 18.542 9.912 13.6 13.6 0 0 0 8.395-12.565 13.616 13.616 0 0 0-13.6-13.6z"/></g></g><g><path fill="#f9ca24" d="M164.97 73.8c6.334 0 11.469-5.135 11.469-11.47 0-6.335-5.135-11.47-11.47-11.47-6.334 0-11.469 5.135-11.469 11.47 0 6.335 5.135 11.47 11.47 11.47z"/></g><g><path fill="#fff" d="M169.556 63.246a2.957 2.957 0 0 0-.93-1.07 5.772 5.772 0 0 0-1.446-.718 18.87 18.87 0 0 0-1.898-.541c-.558-.141-.958-.248-1.2-.322a3.746 3.746 0 0 1-.72-.304 1.707 1.707 0 0 1-.557-.465 1.04 1.04 0 0 1-.203-.643c0-.4.199-.742.596-1.027.397-.285.92-.427 1.568-.427.7 0 1.207.13 1.522.393.346.303.623.676.812 1.095.126.258.29.496.486.706a.91.91 0 0 0 .655.216 1.01 1.01 0 0 0 .79-.36 1.19 1.19 0 0 0 .318-.807 2.272 2.272 0 0 0-.254-1.006 3.145 3.145 0 0 0-.803-.985 4.174 4.174 0 0 0-1.382-.753 5.78 5.78 0 0 0-1.621-.275v-1.818a.685.685 0 0 0-1.37 0v1.87a5.821 5.821 0 0 0-1.47.367 3.519 3.519 0 0 0-1.614 1.222 3.086 3.086 0 0 0-.558 1.818c0 .715.176 1.314.528 1.796.37.497.863.89 1.43 1.142.718.318 1.467.563 2.235.731.666.153 1.197.296 1.594.432.366.116.7.317.972.587a1.373 1.373 0 0 1 .377 1.002c0 .52-.233.952-.698 1.298-.465.347-1.07.52-1.813.52-.541 0-.978-.086-1.31-.258a2.073 2.073 0 0 1-.775-.655 5.028 5.028 0 0 1-.511-.99 1.995 1.995 0 0 0-.47-.752.954.954 0 0 0-.671-.254 1.097 1.097 0 0 0-1.125 1.108c0 .524.176 1.064.528 1.62a4.033 4.033 0 0 0 1.374 1.331c.61.34 1.282.553 1.976.627v2.19a.685.685 0 0 0 1.37 0v-2.13a6.123 6.123 0 0 0 2.328-.5 3.847 3.847 0 0 0 1.695-1.404 3.642 3.642 0 0 0 .579-2.021 3.426 3.426 0 0 0-.334-1.586z"/></g></g></g><g><g><g><path fill="#fff" d="M109.801 59.145c7.75 0 14.031-6.282 14.031-14.032s-6.281-14.033-14.03-14.033c-7.75 0-14.032 6.283-14.032 14.033 0 7.75 6.282 14.032 14.031 14.032z"/></g><g><path d="M109.803 59.58a14.463 14.463 0 0 1-14.185-17.287 14.465 14.465 0 0 1 19.72-10.542 14.464 14.464 0 0 1 8.929 13.364 14.482 14.482 0 0 1-14.463 14.465zm0-28.066a13.598 13.598 0 0 0-13.337 16.254 13.601 13.601 0 0 0 18.542 9.912 13.6 13.6 0 0 0 8.395-12.565 13.616 13.616 0 0 0-13.6-13.6z"/></g></g><g><path fill="#f4ab19" d="M109.8 56.58c6.334 0 11.469-5.135 11.469-11.47 0-6.335-5.135-11.47-11.47-11.47-6.334 0-11.469 5.135-11.469 11.47 0 6.335 5.135 11.47 11.47 11.47z"/></g><g><path fill="#fff" d="M114.386 46.026a2.958 2.958 0 0 0-.93-1.07 5.773 5.773 0 0 0-1.446-.718 18.874 18.874 0 0 0-1.898-.541 30.02 30.02 0 0 1-1.2-.322 3.747 3.747 0 0 1-.72-.304 1.707 1.707 0 0 1-.557-.465 1.04 1.04 0 0 1-.203-.643c0-.4.199-.742.596-1.027.397-.285.92-.427 1.568-.427.7 0 1.207.13 1.522.393.346.303.623.676.812 1.095.126.258.29.496.486.706a.91.91 0 0 0 .655.216 1.01 1.01 0 0 0 .79-.36 1.19 1.19 0 0 0 .318-.807 2.272 2.272 0 0 0-.254-1.006 3.145 3.145 0 0 0-.803-.985 4.174 4.174 0 0 0-1.382-.753 5.78 5.78 0 0 0-1.621-.275v-1.818a.685.685 0 1 0-1.37 0v1.87a5.821 5.821 0 0 0-1.47.367 3.519 3.519 0 0 0-1.614 1.222 3.086 3.086 0 0 0-.558 1.818c0 .715.176 1.314.528 1.796.37.497.863.89 1.43 1.142.718.318 1.467.563 2.235.731.666.153 1.197.296 1.594.432.366.116.7.317.973.587a1.373 1.373 0 0 1 .376 1.002c0 .519-.233.952-.698 1.298-.465.347-1.07.52-1.813.52-.541 0-.978-.086-1.31-.258a2.073 2.073 0 0 1-.774-.655 5.028 5.028 0 0 1-.512-.99 1.994 1.994 0 0 0-.47-.752.954.954 0 0 0-.671-.253 1.097 1.097 0 0 0-1.125 1.107c0 .524.176 1.064.528 1.62a4.032 4.032 0 0 0 1.374 1.331c.61.34 1.283.553 1.977.627v2.19a.685.685 0 0 0 1.37 0v-2.13a6.125 6.125 0 0 0 2.327-.5 3.848 3.848 0 0 0 1.695-1.404 3.642 3.642 0 0 0 .58-2.021 3.426 3.426 0 0 0-.335-1.586z"/></g></g><g><g><g><path fill="#fff" d="M152.266 40.258c5.48-5.48 5.48-14.365 0-19.845-5.48-5.48-14.364-5.48-19.843 0-5.48 5.48-5.48 14.365 0 19.845 5.48 5.48 14.363 5.48 19.843 0z"/></g><g><path d="M142.343 44.8a14.463 14.463 0 0 1-14.185-17.287 14.465 14.465 0 0 1 19.72-10.542 14.464 14.464 0 0 1 8.929 13.364A14.482 14.482 0 0 1 142.343 44.8zm0-28.066a13.598 13.598 0 0 0-13.337 16.254 13.6 13.6 0 0 0 24.645 4.903 13.602 13.602 0 0 0 2.292-7.556 13.617 13.617 0 0 0-13.6-13.6z"/></g></g><g><path fill="#f4ab19" d="M142.35 41.81c6.334 0 11.469-5.135 11.469-11.47 0-6.335-5.135-11.47-11.47-11.47-6.334 0-11.469 5.135-11.469 11.47 0 6.335 5.135 11.47 11.47 11.47z"/></g><g><path fill="#fff" d="M146.936 31.256a2.957 2.957 0 0 0-.93-1.07 5.772 5.772 0 0 0-1.446-.718 18.87 18.87 0 0 0-1.898-.541c-.558-.141-.958-.248-1.2-.322a3.747 3.747 0 0 1-.72-.304 1.707 1.707 0 0 1-.557-.465 1.04 1.04 0 0 1-.203-.643c0-.4.199-.742.596-1.027.397-.285.92-.427 1.568-.427.7 0 1.207.13 1.522.393.346.303.623.676.812 1.095.126.258.29.496.486.706a.91.91 0 0 0 .655.216 1.01 1.01 0 0 0 .79-.36 1.19 1.19 0 0 0 .318-.807 2.273 2.273 0 0 0-.254-1.006 3.145 3.145 0 0 0-.803-.985 4.174 4.174 0 0 0-1.382-.753 5.78 5.78 0 0 0-1.621-.275v-1.818a.685.685 0 0 0-1.37 0v1.87a5.821 5.821 0 0 0-1.47.367 3.519 3.519 0 0 0-1.614 1.222 3.086 3.086 0 0 0-.558 1.818c0 .715.176 1.314.528 1.796.37.497.863.89 1.43 1.142.718.318 1.467.563 2.235.731.666.153 1.197.296 1.594.432.366.116.7.317.973.587a1.372 1.372 0 0 1 .376 1.002c0 .519-.233.952-.698 1.298-.465.347-1.07.52-1.813.52-.541 0-.978-.086-1.31-.258a2.072 2.072 0 0 1-.774-.655 5.027 5.027 0 0 1-.512-.99 1.996 1.996 0 0 0-.47-.752.955.955 0 0 0-.671-.253 1.096 1.096 0 0 0-1.125 1.107c0 .524.176 1.064.528 1.62a4.033 4.033 0 0 0 1.374 1.331c.61.34 1.282.553 1.977.627v2.19a.685.685 0 1 0 1.37 0v-2.13a6.121 6.121 0 0 0 2.327-.5 3.847 3.847 0 0 0 1.695-1.404 3.643 3.643 0 0 0 .58-2.021 3.426 3.426 0 0 0-.335-1.586z"/></g></g><g><g><path fill="#08223a" d="M39.55 129.478s3.455-15.202 9.606-18.641c5.339-2.986 26.524 10.319 26.524 10.319l-5.887 9.744s-11.115-10.068-15.147-11.195c-4.622-1.292-11.911 11.046-11.911 11.046z"/></g><g><g><path d="M25.717 129.488a.16.16 0 0 1-.012-.265c.474-.35 1.879-1.089 4.002.352 2.65 1.798 2.387 2.615 2.387 2.615l-.439.72a.16.16 0 0 1-.22.055z"/></g><g><path d="M29.22 131.12l1.659-2.09 2.67 2.153a10.32 10.32 0 0 1-1.901 1.724z"/></g></g><g><g><path d="M34.74 131.423a.16.16 0 0 1-.089-.25c.35-.473 1.476-1.593 3.93-.84 3.06.94 3.049 1.8 3.049 1.8l-.207.817a.16.16 0 0 1-.195.116z"/></g><g><path d="M38.58 131.955l.971-2.485 3.185 1.273a16.526 16.526 0 0 1-1.31 2.207z"/></g></g><g><path fill="#113255" d="M44.525 111.822c3.736-1.477 14.231 3.607 20.998 7.272l.025-.221h11.988s3.186 13.233-7.696 14.189c-.082.007-.494.01-.577.01h-2.171c-1.719 0-3.548-.736-4.983-1.832-3.601-2.748-10.63-8.045-13.284-9.561-4.167-2.382-15.275 9.502-15.275 9.502l-2.67-2.152s7.957-14.958 13.645-17.207z"/></g><g><g><path fill="#fff" d="M63.549 99.74c-.18.443-.354.888-.528 1.333-.176.445-.35.89-.52 1.338l-.513 1.341-.256.671c-.038.106-.097.256-.09.258-.007.038-.02.07-.028.107a1.282 1.282 0 0 1-.582.725 1.515 1.515 0 0 1-.506.191 1.62 1.62 0 0 1-.578.013c-.049-.011-.1-.018-.15-.033a.534.534 0 0 1-.077-.022l-.038-.012-.02-.005-.039-.02-.645-.31-1.29-.624c-.86-.418-1.721-.83-2.586-1.238a520.362 520.362 0 0 0-5.193-2.44l-1.33 2.192a403.787 403.787 0 0 0 4.563 3.479c.762.577 1.525 1.151 2.291 1.722l1.149.857.574.429.037.027.058.039.116.076a7.082 7.082 0 0 0 .734.413 6.685 6.685 0 0 0 4.506.453 6.933 6.933 0 0 0 2.164-.944 7.067 7.067 0 0 0 1.758-1.65l1.798-2.655c.27-.396.537-.793.8-1.192.265-.398.53-.796.79-1.196z"/></g><g><path fill="#d390b4" d="M69.483 95.359c.792.302 2.388 2.037 1.259 5.755-.356 1.17-.981 2.538-1.986 4.119l-6.426-3.258s.842-2.139 1.983-3.883c.26-.405.549-.79.864-1.152 1.403-1.578 3.29-1.968 4.306-1.581z"/></g><g><path fill="#fff" d="M46.306 99.498c.755-.493 1.79.113 2.381.557l-.002-.002-.348-.78c.724-.535 3.135 2.544 3.135 2.544l-1.86 2.109s-1.828-.742-3.052-1.61c-1.225-.87-1.367-2.089-.254-2.818z"/></g></g><g><path fill="#48a9f9" d="M59.08 103.024c.021-1.714 4.153-5.153 4.864-5.763.712-.609 2.479-2.513 4.017-2.743 1.276-.191 4.49-.626 7.742 7.134 3.56 8.494 2.266 24.794 2.266 24.794s-5.563-.103-11.024-1.692c-3.204-.932-6.972-6.238-6.972-6.238s1.087-3.011 1.147-10.057c-.917-1.626-2.065-3.34-2.04-5.435z"/></g><g><g><path fill="#fff" d="M67.467 92.3s.995 2.038 1.793 2.585l.071.045c.81.475-2.485 2.2-2.647 1.473-.162-.728-1.144-3.112-1.144-3.112z"/></g><g><path fill="#fff" d="M63.06 88.373s-1.644 2.186-.857 4.213c.565 1.455 1.459 2.518 2.314 2.753.513.142 1.587-.331 2.215-1.224 1.476-2.1.796-5.361.796-5.361s-3.425-2.388-4.468-.38z"/></g><g><path fill="#fff" d="M62.647 89.37s-1.197 3.094-1.019 3.189c.178.094.859.098.859.098z"/></g><g><path d="M68.031 87.385s2.41-2.509 4.856-.892c3.624 2.393-.245 9.151-.245 9.151s-1.965-2.445-1.668-4.305c.298-1.86-1.249-3.057-2.131-2.805-.882.252-.812-1.149-.812-1.149z"/></g><g><path fill="#fff" d="M68.563 87.041c.355.389.609.86.739 1.37a.115.115 0 0 1-.15.126.475.475 0 0 0-.309 0c-.882.253-.812-1.149-.812-1.149a1.23 1.23 0 0 1 .342-.373.143.143 0 0 1 .19.026z"/></g><g><path d="M68.917 90.357c.279-1.27-.013-3.092-1.2-3.308 0 0-1.219-1.958-3.827-1.471-1.978.37-2.295 1.501-2.233 2.739.035.694 1.026 1.752 2.505 1.385.432-.107.443.638.443.638s-.009.253.243.945c.227.625.37.136.487-.133.06-.138.202-.25.335-.394.044.24.03.486-.041.72 0 0 1.611.189 1.966 1.185 0 0 .875-.267 1.322-2.306z"/></g><g><path fill="#fff" d="M67.48 91.097a1.243 1.243 0 1 1-2.474.252 1.243 1.243 0 0 1 2.474-.252z"/></g><g><path fill="#fff" d="M66.894 91.162a.659.659 0 1 1-1.311.133.659.659 0 0 1 1.31-.133z"/></g></g><g><path fill="#fff" d="M64.639 102.5c-.18.443-.354.888-.528 1.333-.176.445-.35.89-.52 1.338l-.513 1.341-.256.671c-.038.106-.097.256-.09.258-.007.038-.02.07-.028.107a1.282 1.282 0 0 1-.582.725 1.516 1.516 0 0 1-.506.191 1.62 1.62 0 0 1-.578.013c-.049-.011-.1-.018-.15-.033a.528.528 0 0 1-.076-.022l-.039-.012-.02-.005-.039-.02-.645-.31-1.29-.624c-.86-.418-1.721-.83-2.586-1.238a521.691 521.691 0 0 0-5.193-2.44l-1.33 2.192a404.537 404.537 0 0 0 4.563 3.479 403.4 403.4 0 0 0 2.291 1.722l1.149.857.574.429.037.027.058.039.116.076a7.044 7.044 0 0 0 .734.413 6.685 6.685 0 0 0 4.506.453 6.932 6.932 0 0 0 2.164-.944 7.067 7.067 0 0 0 1.758-1.65l1.798-2.655c.27-.396.537-.793.8-1.192.265-.398.53-.796.79-1.197z"/></g><g><path fill="#1a93e5" d="M70.583 98.119c.792.302 2.388 2.037 1.259 5.755-.356 1.17-.981 2.538-1.986 4.119l-6.426-3.258s.842-2.139 1.983-3.883c.26-.405.549-.79.864-1.152 1.403-1.578 3.29-1.968 4.306-1.581z"/></g><g><g><path d="M49.023 104.092l1.034-1.404c.02-.024.013-.084-.018-.135l-2.629-4.261c-.031-.05-.083-.087-.116-.081l-1.746.261c-.053.01-.38.08-.293.218l3.365 5.44c.06.078.37 0 .403-.038z"/></g><g><path fill="#48a9f9" d="M49.023 104.086l1.303-1.488c.022-.024.014-.084-.017-.135l-2.63-4.261c-.03-.05-.082-.087-.115-.081l-2.016.346c-.053.009-.064.068-.024.133l3.365 5.44c.04.065.1.085.134.046z"/></g></g><g><path fill="#fff" d="M46.863 102.525c.754-.493 2.183-.005 2.773.439l-.256-.291s-.764-.598-.197-.831c.75-.309 3.384 2.736 3.384 2.736l-1.86 2.109s-1.968-.572-3.052-1.61c-.86-.823-1.906-1.823-.792-2.552z"/></g></g><g><g><g><g transform="rotate(180 201.5 113.5)"><path fill="#fff" d="M214.85 110.73h-26.643a.617.617 0 0 0-.617.617v4.34c0 .342.276.618.617.618h26.643c.34 0 .617-.276.617-.617v-4.34a.617.617 0 0 0-.617-.618z"/></g><g><path d="M187.16 111.35a1.051 1.051 0 0 1 1.05-1.05h26.642a1.05 1.05 0 0 1 1.05 1.05v4.34a1.05 1.05 0 0 1-1.05 1.05H188.21a1.05 1.05 0 0 1-1.05-1.05zm1.05-.186a.185.185 0 0 0-.186.186v4.34a.185.185 0 0 0 .186.185h26.642a.185.185 0 0 0 .185-.185v-4.34a.185.185 0 0 0-.185-.186z"/></g></g><g><path d="M201.962 113.224h13.5a.432.432 0 0 0 0-.864h-13.5a.432.432 0 0 0 0 .864z"/></g></g><g><g><g transform="rotate(180 203 108)"><path fill="#fff" d="M217.21 105.16h-26.643a.617.617 0 0 0-.617.617v4.34c0 .342.276.618.617.618h26.643a.617.617 0 0 0 .617-.617v-4.34a.617.617 0 0 0-.617-.618z"/></g><g><path d="M189.52 105.77a1.05 1.05 0 0 1 1.05-1.05h26.642a1.05 1.05 0 0 1 1.05 1.05v4.34a1.05 1.05 0 0 1-1.05 1.05H190.57a1.05 1.05 0 0 1-1.05-1.05zm1.05-.186a.185.185 0 0 0-.186.186v4.34a.185.185 0 0 0 .186.185h26.642a.185.185 0 0 0 .185-.185v-4.34a.185.185 0 0 0-.185-.186z"/></g></g><g><path d="M204.322 107.644h13.5a.432.432 0 1 0 0-.864h-13.5a.432.432 0 0 0 0 .864z"/></g></g><g><g><g transform="rotate(180 200.5 102.5)"><path fill="#fff" d="M213.61 99.49h-26.643a.617.617 0 0 0-.617.617v4.34c0 .342.276.618.617.618h26.643c.34 0 .617-.276.617-.617v-4.34a.617.617 0 0 0-.617-.618z"/></g><g><path d="M185.92 100.11a1.051 1.051 0 0 1 1.05-1.05h26.642a1.05 1.05 0 0 1 1.05 1.05v4.34a1.051 1.051 0 0 1-1.05 1.05H186.97a1.05 1.05 0 0 1-1.05-1.05zm1.05-.186a.185.185 0 0 0-.186.186v4.34a.185.185 0 0 0 .186.185h26.642a.185.185 0 0 0 .185-.185v-4.34a.185.185 0 0 0-.185-.186z"/></g></g><g><path d="M200.732 101.974h13.5a.432.432 0 1 0 0-.864h-13.5a.432.432 0 0 0 0 .864z"/></g></g><g><g><g transform="rotate(180 197.5 119)"><path fill="#fff" d="M210.46 116.31h-26.643a.617.617 0 0 0-.617.617v4.34c0 .342.276.618.617.618h26.643c.34 0 .617-.276.617-.617v-4.34a.617.617 0 0 0-.617-.618z"/></g><g><path d="M182.77 116.93a1.05 1.05 0 0 1 1.05-1.05h26.642a1.05 1.05 0 0 1 1.05 1.05v4.34a1.051 1.051 0 0 1-1.05 1.05H183.82a1.05 1.05 0 0 1-1.05-1.05zm1.05-.186a.185.185 0 0 0-.186.186v4.34a.185.185 0 0 0 .186.185h26.642a.185.185 0 0 0 .185-.185v-4.34a.185.185 0 0 0-.185-.186z"/></g></g><g><path d="M197.312 118.654h13.5a.432.432 0 1 0 0-.864h-13.5a.432.432 0 0 0 0 .864z"/></g></g><g><g><g transform="rotate(180 204 124.5)"><path fill="#fff" d="M217.38 121.88h-26.643a.617.617 0 0 0-.617.617v4.34c0 .342.276.618.617.618h26.643c.34 0 .617-.276.617-.617v-4.34a.617.617 0 0 0-.617-.618z"/></g><g><path d="M189.69 122.5a1.05 1.05 0 0 1 1.05-1.05h26.642a1.05 1.05 0 0 1 1.05 1.05v4.34a1.05 1.05 0 0 1-1.05 1.05H190.74a1.05 1.05 0 0 1-1.05-1.05zm1.05-.186a.185.185 0 0 0-.186.186v4.34a.185.185 0 0 0 .186.185h26.642a.185.185 0 0 0 .185-.185v-4.34a.186.186 0 0 0-.185-.186z"/></g></g><g><path d="M190.382 124.744h13.5a.432.432 0 0 0 0-.864h-13.5a.432.432 0 0 0 0 .864z"/></g></g><g><g><g transform="rotate(180 199.5 130)"><path fill="#fff" d="M212.69 127.46h-26.643a.617.617 0 0 0-.617.617v4.34c0 .342.276.618.617.618h26.643a.617.617 0 0 0 .617-.617v-4.34a.617.617 0 0 0-.617-.618z"/></g><g><path d="M184.99 128.08a1.05 1.05 0 0 1 1.05-1.05h26.642a1.05 1.05 0 0 1 1.05 1.05v4.34a1.052 1.052 0 0 1-1.05 1.05H186.04a1.05 1.05 0 0 1-1.05-1.05zm1.05-.186a.185.185 0 0 0-.186.186v4.34a.185.185 0 0 0 .186.185h26.642a.185.185 0 0 0 .185-.185v-4.34a.185.185 0 0 0-.185-.186z"/></g></g><g><path d="M185.862 129.934h13.5a.432.432 0 1 0 0-.864h-13.5a.432.432 0 0 0 0 .864z"/></g></g><g><g><g><path fill="#fff" d="M219.161 133.125c7.75 0 14.032-6.282 14.032-14.032s-6.282-14.033-14.032-14.033c-7.749 0-14.031 6.283-14.031 14.033 0 7.75 6.282 14.032 14.031 14.032z"/></g><g><path d="M219.154 133.56a14.463 14.463 0 0 1-14.186-17.287 14.465 14.465 0 0 1 19.72-10.542 14.464 14.464 0 0 1 8.929 13.364 14.483 14.483 0 0 1-14.463 14.465zm0-28.066a13.598 13.598 0 0 0-13.338 16.254 13.601 13.601 0 0 0 18.542 9.912 13.6 13.6 0 0 0 8.395-12.565 13.616 13.616 0 0 0-13.6-13.6z"/></g></g><g><path fill="#f4ab19" d="M219.16 130.56c6.334 0 11.469-5.135 11.469-11.47 0-6.335-5.135-11.47-11.47-11.47-6.334 0-11.469 5.135-11.469 11.47 0 6.335 5.135 11.47 11.47 11.47z"/></g><g><path fill="#fff" d="M223.746 120.016a2.957 2.957 0 0 0-.93-1.07 5.772 5.772 0 0 0-1.446-.718 18.871 18.871 0 0 0-1.898-.541c-.558-.141-.958-.248-1.2-.322a3.746 3.746 0 0 1-.72-.304 1.707 1.707 0 0 1-.557-.465 1.04 1.04 0 0 1-.203-.643c0-.4.199-.742.596-1.027.397-.285.92-.427 1.568-.427.7 0 1.207.13 1.522.393.346.303.623.676.812 1.095.126.258.29.496.486.706a.91.91 0 0 0 .655.216 1.01 1.01 0 0 0 .79-.36 1.19 1.19 0 0 0 .318-.807 2.273 2.273 0 0 0-.254-1.006 3.145 3.145 0 0 0-.803-.985 4.174 4.174 0 0 0-1.382-.753 5.78 5.78 0 0 0-1.621-.275v-1.818a.685.685 0 0 0-1.37 0v1.87a5.821 5.821 0 0 0-1.47.367 3.519 3.519 0 0 0-1.614 1.222 3.086 3.086 0 0 0-.558 1.818c0 .715.176 1.314.528 1.796.37.497.863.89 1.43 1.142.718.318 1.467.563 2.235.731.666.153 1.197.296 1.594.432.366.116.7.317.973.587a1.373 1.373 0 0 1 .376 1.002c0 .519-.233.952-.698 1.298-.465.347-1.07.52-1.813.52-.541 0-.978-.086-1.31-.258a2.073 2.073 0 0 1-.774-.655 5.028 5.028 0 0 1-.512-.99 1.995 1.995 0 0 0-.47-.752.954.954 0 0 0-.671-.254 1.097 1.097 0 0 0-1.125 1.108c0 .524.176 1.064.528 1.62a4.032 4.032 0 0 0 1.374 1.331c.61.34 1.283.553 1.977.627v2.19a.685.685 0 0 0 1.37 0v-2.13a6.125 6.125 0 0 0 2.327-.5 3.848 3.848 0 0 0 1.695-1.404 3.643 3.643 0 0 0 .58-2.021 3.426 3.426 0 0 0-.335-1.586z"/></g></g></g><g><g><g><path fill="#fff" d="M212.81 70.15l3.068 11.346-4.893 1.722-4.715-10.766z"/></g><g><path fill="#fff" d="M193.698 72.452l-4.715 10.766-4.893-1.722 3.068-11.346z"/></g><g><path fill="#1a93e5" d="M196.457 63.54s-7.485.24-10.107 8.48c0 0 2.556 2.043 7.117 2.281z"/></g><g><path fill="#1a93e5" d="M203.63 63.54s7.485.24 10.107 8.48c0 0-2.556 2.043-7.117 2.281z"/></g><g><path fill="#48a9f9" d="M200.062 62.43c-12.97.625-9.514 29.494-9.514 29.494 3.506 1.787 9.514 1.787 9.514 1.787s6.008 0 9.514-1.787c0 0 3.456-28.869-9.514-29.494z"/></g><g><path fill="#08223a" d="M209.991 96.823l-1.43 3.307s-25.74 2.434-30.983-8.183c-5.243-10.617 14.3-3.228 17.637-2.036 3.336 1.192 14.776 6.912 14.776 6.912z"/></g><g><path d="M209.964 96.79s2.817.56 4.207 1.592c1.39 1.033 1.79 1.764 1.575 2.304-.244.613-4.326 1.191-7.146-.556z"/></g><g><path fill="#113255" d="M191.95 96.823l1.43 3.307s25.74 2.434 30.983-8.183c5.244-10.617-14.3-3.228-17.636-2.036-3.337 1.192-14.777 6.912-14.777 6.912z"/></g><g><path fill="#fff" d="M201.2 61.66h-2.278l-.542 3.483c.488.512 1.681.512 1.681.512s1.193 0 1.682-.512z"/></g><g><path fill="#fff" d="M201.99 55.47l-4.01.967s-1.207 3.605-.794 5.085c.575 2.058 2.317 2.16 2.88 2.138.563.023 2.305-.08 2.88-2.138.413-1.48-.956-6.052-.956-6.052z"/></g><g><path fill="#fff" d="M196.073 58.874a1.174 1.174 0 1 0 2.042-1.16 1.174 1.174 0 0 0-2.042 1.16z"/></g><g><path fill="#fff" d="M204.161 58.606a1.174 1.174 0 1 0-2.264-.623 1.174 1.174 0 0 0 2.264.623z"/></g><g><path d="M197.323 58.9s.493-2.085 1.356-2.055c.864.03 2.116-.805 2.116-.805s1.593 1.222 2.016 2.86c0 0 .363-2.25.243-3.128-.105-.777-.889-1.966-1.872-1.52 0 0-2.056-1.191-3.426.06-1.37 1.251-.433 4.588-.433 4.588z"/></g><g><path fill="#fff" d="M188.047 78.956c1.025.307 2.039.66 3.049 1.032.505.183 1.008.38 1.512.57.501.199 1.004.393 1.505.597 1 .41 2 .825 2.994 1.265.994.439 1.985.89 2.966 1.386a1.273 1.273 0 0 1-.563 2.41 62.008 62.008 0 0 1-3.273-.072 110.031 110.031 0 0 1-3.245-.192c-.539-.04-1.076-.088-1.614-.131-.536-.053-1.073-.1-1.608-.16a52.48 52.48 0 0 1-3.19-.425 3.23 3.23 0 1 1 1.467-6.28z"/></g><g><path fill="#fff" d="M213.532 85.224c-.964.17-1.94.293-2.919.399-.49.056-.982.098-1.473.146-.493.039-.985.083-1.48.118-.989.068-1.98.13-2.976.167-.996.039-1.996.064-3.006.046a1.28 1.28 0 0 1-.593-2.403 52.549 52.549 0 0 1 2.684-1.357c.9-.43 1.805-.836 2.713-1.235.454-.2.91-.39 1.365-.584.457-.185.913-.377 1.372-.555a44.034 44.034 0 0 1 2.77-1.004 3.231 3.231 0 1 1 1.543 6.262z"/></g><g><path d="M192.016 96.79s-2.817.56-4.207 1.592c-1.39 1.033-1.79 1.764-1.574 2.304.244.613 4.325 1.191 7.145-.556z"/></g></g><g><g><g><path fill="#f9ca24" d="M189.35 71.74h22.566a1.11 1.11 0 0 1 1.11 1.11v14.065H188.24V72.851a1.11 1.11 0 0 1 1.11-1.111z"/></g><g><path d="M213.44 87.34h-25.62V72.858a1.53 1.53 0 0 1 1.528-1.528h22.565a1.53 1.53 0 0 1 1.528 1.528zm-24.786-.835h23.953V72.858a.694.694 0 0 0-.694-.694h-22.565a.694.694 0 0 0-.694.694z"/></g></g><g><path d="M187.85 86.92h25.583v1.018a.65.65 0 0 1-.65.65H188.5a.65.65 0 0 1-.65-.65z"/></g><g><path d="M200.629 80.918a1.589 1.589 0 1 0 0-3.178 1.589 1.589 0 0 0 0 3.178z"/></g></g></g></g></g></g></svg>