<svg xmlns="http://www.w3.org/2000/svg" width="113" height="119" viewBox="0 0 113 119"><g><g><g><g><path fill="#f6f6f6" d="M67.127 25.33c-7.204 1.38-14.646.595-21.937 1.393A50.72 50.72 0 0 0 .2 72.478c-1.174 12.71 2.841 26.09 11.84 35.142 9 9.052 23.104 13.135 35.198 9.052 5.213-1.759 9.873-4.872 15.028-6.794 7.754-2.892 16.226-2.964 24.404-4.232 8.179-1.267 16.756-4.175 21.541-10.929 4.881-6.89 4.669-16.157 2.994-24.433-1.675-8.275-4.617-16.412-4.534-24.855.084-8.53 3.153-17.67-.844-25.206-3.272-6.171-12.533-9.909-19.131-7.042-2.915 1.266-4.89 4.126-7.213 6.172a25.82 25.82 0 0 1-12.356 5.978z"/></g><g><path fill="#f6f6f6" d="M52.903 22.735c-3.367-.184-6.962-1.272-8.893-4.036-2.187-3.131-1.524-7.627.738-10.704 2.262-3.077 5.799-4.96 9.378-6.291 4.39-1.633 9.817-2.74 14.104-.213 2.963 1.746 5.964 6.095 5.5 9.703-1.04 8.073-14.178 11.904-20.827 11.54z"/></g><g><path fill="#f6f6f6" d="M6.798 29.966c-.594 1.8-.072 4.024 1.509 5.07 1.911 1.262 4.453.485 6.594-.328 1.897-.72 3.837-1.466 5.362-2.804 3.351-2.943 2.565-9.434-2.654-8.903-3.553.361-9.644 3.427-10.811 6.965z"/></g></g><g><g><g><path fill="#e47790" d="M77.364 59.88H56.6v31.485h20.764z"/></g><g><path fill="#fbcd02" d="M78.697 53.05H55.25v6.826h23.447z"/></g></g><g><g><path fill="#fbd615" d="M56.599 65.02H22.52v26.338h34.079z"/></g><g><path fill="#fbcd02" d="M58.513 65.02H20.61v8.2h37.903z"/></g></g><g><g><path fill="#6b4d77" d="M56.598 47.26H32.54v17.758h24.058z"/></g><g><path fill="#fbcd02" d="M58.513 40.38H30.63v6.882h27.883z"/></g></g><g><g><path fill="#fff" d="M101.085 33.827a1.087 1.087 0 0 1 .386 2.14L90.432 37.95l-1.119 5.793v.006L80.12 91.357h.28a5.662 5.662 0 1 1 0 11.324H29.47a1.087 1.087 0 0 1 0-2.174h50.93a3.489 3.489 0 1 0 0-6.977H21.625a1.075 1.075 0 0 1-.397-.08 1.027 1.027 0 0 1-.121-.07 1.086 1.086 0 0 1-.21-.14c-.09-.095-.168-.2-.233-.314l-.106-.277-7.127-36.9a1.088 1.088 0 0 1 .893-1.279l48.7-7.924c.025-.009.057-.006.083-.013l24.216-3.94 1.117-5.787a1.087 1.087 0 0 1 .875-.864zM61.587 65.019h-9.129v7.09l8.81.07zm1.855 7.178l8.799.07.643-7.248h-9.123zm-1.759-9.352l.326-7.33h-9.55v7.33zm-11.398-7.33h-9.552l.325 7.33h9.227zm-9.13 9.504l.31 7 8.82.072v-7.072zm.407 9.175l.34 7.658h8.383v-7.588zm10.896 7.659h8.38l.334-7.501-8.714-.07zm10.555 0h8.377l.658-7.414-8.703-.07zm10.559 0h6.167l1.418-7.34-6.928-.056zm8.004-9.51l1.414-7.324h-7.924l-.645 7.266zm1.834-9.498l1.416-7.33H75.91l-.65 7.33zm-9.682-7.33h-9.544l-.326 7.33h9.22zm.193-2.173l.573-6.46-9.998 1.627-.215 4.833zm-11.617-4.477l-9.846 1.602v2.875h9.647zm-12.019 1.956l-9.69 1.577.041.944h9.649zm-11.848 1.928l-3.65.593h3.676zm-9.423 2.767l.651 7.33h9.22l-.325-7.33zm.844 9.503l.614 6.912 8.82.071-.31-6.983zm-2.182 0H17.435l1.317 6.818 9.536.076zm-6.99 16.834h8.485l-.69-7.764-9.309-.075zm10.667 0h8.376l-.34-7.677-8.724-.07zm.193 2.173l.651 7.33h7.954l-.326-7.33zm10.778 7.33h7.961v-7.33h-8.286zm10.134 0h7.959l.325-7.33h-8.284zm10.132 0h7.956l.651-7.33h-8.28zm10.138 0h5.176l1.416-7.33h-5.941zm14.155-46.49L76.708 46.52l-.605 6.821h9.142zm-71.106 11.57l1.238 6.41h10.468l-.65-7.33h-5.209c-.03 0-.056-.015-.086-.018zm6.745 34.92h7.493l-.651-7.33h-8.258z"/></g><g><path fill="#afafaf" d="M105.35 34.895a4.075 4.075 0 1 1-8.15 0 4.075 4.075 0 0 1 8.15 0z"/></g><g><g transform="rotate(103.87 29.5 105.5)"><path fill="#afafaf" d="M29.459 99.4a5.929 5.929 0 1 0 0 11.858 5.929 5.929 0 0 0 0-11.858z"/></g><g><path fill="#fff" d="M31.944 105.337a2.487 2.487 0 1 1-4.974 0 2.487 2.487 0 0 1 4.974 0z"/></g></g><g><g transform="rotate(102.16 73.5 105.5)"><path fill="#afafaf" d="M73.569 99.4a5.929 5.929 0 1 0 0 11.858 5.929 5.929 0 0 0 0-11.858z"/></g><g><path fill="#fff" d="M76.054 105.337a2.487 2.487 0 1 1-4.974 0 2.487 2.487 0 0 1 4.974 0z"/></g></g></g></g></g></g></svg>