<svg xmlns="http://www.w3.org/2000/svg" width="27" height="27" viewBox="0 0 27 27"><g><g><g/><g><g><g><path fill="#99a7db" d="M24.406 19.626c.885.891.883 2.336-.006 3.225l-1.175 1.084a8.23 8.23 0 0 1-11.636-.011l-8.824-8.705a8.23 8.23 0 0 1-.001-11.647l.098-.098 1.076-1.076c.89-.89 2.34-.89 3.23 0l3.23 3.23c.89.89.89 2.339 0 3.23L8.93 10.324a1.73 1.73 0 0 0 0 2.447l5.105 4.985h.001a1.73 1.73 0 0 0 2.447 0l1.468-1.467a2.282 2.282 0 0 1 3.239.009zM4.476 4.013l4.307 4.306.538-.538a.76.76 0 0 0 0-1.077l-3.23-3.23a.762.762 0 0 0-1.076 0zm8.19 18.833a6.692 6.692 0 0 0 9.033.42l-4.291-4.29a3.25 3.25 0 0 1-4.447-.14L7.854 13.85a3.257 3.257 0 0 1-.142-4.45L3.42 5.11a6.709 6.709 0 0 0 .42 9.032zm10.667-1.081a.762.762 0 0 0-.01-1.068L20.1 17.362a.76.76 0 0 0-1.072.004l-.539.538 4.332 4.332z"/></g></g></g><g><g><g><path fill="#99a7db" d="M13.391.35a.761.761 0 0 0 0 1.523c6.297 0 11.42 5.122 11.42 11.418a.761.761 0 1 0 1.522 0C26.333 6.14 20.545.35 13.39.35z"/></g></g></g><g><g><g><path fill="#99a7db" d="M13.391 3.4a.761.761 0 0 0 0 1.523c4.618 0 8.374 3.756 8.374 8.373a.761.761 0 0 0 1.523 0c0-5.456-4.44-9.896-9.897-9.896z"/></g></g></g><g><g><g><path fill="#99a7db" d="M13.391 6.44a.761.761 0 0 0 0 1.523 5.335 5.335 0 0 1 5.329 5.328.761.761 0 0 0 1.523 0A6.859 6.859 0 0 0 13.39 6.44z"/></g></g></g><g><g><g><path fill="#99a7db" d="M13.391 9.49a.761.761 0 0 0 0 1.523 2.286 2.286 0 0 1 2.284 2.283.761.761 0 0 0 1.523 0A3.81 3.81 0 0 0 13.39 9.49z"/></g></g></g></g></g></svg>