<svg width="16" height="16" viewBox="0 0 16 16" fill="none" xmlns="http://www.w3.org/2000/svg">
<path d="M2.66671 2H13.3334C13.687 2 14.0261 2.14048 14.2762 2.39052C14.5262 2.64057 14.6667 2.97971 14.6667 3.33333V7.33333C14.6667 9.10144 13.9643 10.7971 12.7141 12.0474C11.4638 13.2976 9.76815 14 8.00004 14C7.12456 14 6.25765 13.8276 5.44882 13.4925C4.63998 13.1575 3.90505 12.6664 3.286 12.0474C2.03575 10.7971 1.33337 9.10144 1.33337 7.33333V3.33333C1.33337 2.97971 1.47385 2.64057 1.7239 2.39052C1.97395 2.14048 2.31309 2 2.66671 2V2Z" stroke="#6E7882" stroke-width="1.4" stroke-linecap="round" stroke-linejoin="round"/>
<path d="M5.33337 6.66663L8.00004 9.33329L10.6667 6.66663" stroke="#6E7882" stroke-width="1.4" stroke-linecap="round" stroke-linejoin="round"/>
</svg>
