<svg xmlns="http://www.w3.org/2000/svg" width="472" height="381" viewBox="0 0 472 381"><g><g><g/><g><path fill="#8db1d7" d="M37.437 380.087s-64.077-46.962-11.552-136.835c36.492-62.44 51.196-68.355 51.147-107.607-.05-39.25-9.04-129.227 67.028-135.153 76.069-5.925 117.179 48.881 143.68 91.79 24.856 40.245 28.519 56.01 123.223 86.81 72.16 23.468 90.168 148.721-5.234 201.459l-368.292-.464z"/></g><g><path fill="#0e2549" d="M39.819 279.593a.395.395 0 0 1-.249-.087l-6.7-5.389a.397.397 0 1 1 .497-.618l6.7 5.388a.397.397 0 0 1-.248.706z"/></g><g><path fill="#0e2549" d="M47.047 271.566a.386.386 0 0 1-.21-.06.398.398 0 0 1-.182-.4l2.65-16.223a.397.397 0 0 1 .784.128l-2.65 16.222a.397.397 0 0 1-.392.333z"/></g><g><path fill="#0e2549" d="M316.747 71.412l-.046-.003a.396.396 0 0 1-.348-.44l1.566-13.33a.397.397 0 0 1 .788.093l-1.566 13.33a.397.397 0 0 1-.394.35z"/></g><g><path fill="#0e2549" d="M320.107 79.794a.396.396 0 0 1-.218-.728l25.47-16.71a.397.397 0 0 1 .435.663l-25.47 16.71a.396.396 0 0 1-.217.065z"/></g><g><g><path fill="#fff" d="M187.101 175.21l-49.928-75.32-40.253 26.683 9.062 13.67 44.347 54.922 36.625-19.858z"/></g><g><path fill="#0e2549" d="M187.442 174.99a.396.396 0 0 1-.19.591.392.392 0 0 1-.099.075l-36.915 20.015-44.577-55.208-9.281-14.001 12-7.956 28.914-19.166 8.092 12.206zm-50.37-74.55l-11.085 7.348a13.223 13.223 0 0 0 8.43 5.285 13.93 13.93 0 0 0 9.865-1.755zm-32.381 37.123a12.98 12.98 0 0 0 5.25-8.258c.649-3.342.01-6.805-1.788-9.696l-10.673 7.075zm81.858 37.518l-41.829-63.103a14.535 14.535 0 0 1-7.646 2.138c-.941 0-1.88-.088-2.806-.264a14.003 14.003 0 0 1-8.939-5.628l-16.518 10.949a14.281 14.281 0 0 1 1.91 10.28 13.765 13.765 0 0 1-5.594 8.768l1.185 1.788 44.128 54.65z"/></g><g><path fill="#0e2549" d="M113.297 123.568a.397.397 0 0 1-.22-.727l13.583-9.004a.396.396 0 1 1 .438.662l-13.582 9.003a.395.395 0 0 1-.219.066z"/></g><g><path fill="#0e2549" d="M172.318 163.005a.396.396 0 0 1-.33-.178l-29.712-44.821a.397.397 0 0 1 .661-.439l29.712 44.822a.397.397 0 0 1-.33.616z"/></g><g><path fill="#0e2549" d="M145.5 162.226a.397.397 0 0 1-.179-.752c.53-.266 1.045-.565 1.54-.893 5.491-3.64 7.56-10.22 4.612-14.667-1.42-2.141-3.784-3.478-6.657-3.764-2.906-.288-5.976.528-8.648 2.3a13.814 13.814 0 0 0-5.076 5.957.397.397 0 1 1-.73-.312 14.615 14.615 0 0 1 5.368-6.306c2.824-1.873 6.078-2.735 9.164-2.428 3.115.31 5.687 1.77 7.24 4.115 3.19 4.812 1.021 11.885-4.835 15.767-.521.345-1.063.66-1.622.94a.396.396 0 0 1-.178.043z"/></g><g><path fill="#0e2549" d="M149.397 147.625a.397.397 0 0 1-.17.252l-1.142.758c1.322 2.2.874 4.068-.122 5.254a.593.593 0 0 1-.904-.768c.836-1.032 1.07-2.311.148-3.904l-4.618 3.061v.001c1.43 4.024.415 5.501-1.09 6.427-.297.182-1.777-.242-.745-.971 1.294-.912 1.787-1.997.86-4.812l-4.329 2.87a.397.397 0 0 1-.438-.661l4.504-2.986c-.94-2.806-.787-4.405.915-5.533 1.532-1.016 3.67-.904 5.375 1.364l1.148-.761a.397.397 0 0 1 .55.111c.058.088.08.195.058.298zm-7.07 3.874l4.442-2.944c-1.132-1.496-2.497-1.809-3.777-.96-1.208.801-1.326 1.814-.665 3.904z"/></g></g><g><g><path fill="#fff" d="M181.931 190.08l-71.546-55.2-29.5 38.237 71.546 55.2z"/></g><g><path fill="#0e2549" d="M182.49 190.004l-29.985 38.865-.314-.242-71.861-55.442 8.795-11.4 21.19-27.465 11.595 8.946zm-1.113.144l-59.96-46.26a14.726 14.726 0 0 1-9.288 5.145c-.707.1-1.421.151-2.136.151a13.77 13.77 0 0 1-8.141-2.595l-12.105 15.688a14.28 14.28 0 0 1 5.123 9.115 13.763 13.763 0 0 1-2.468 10.104l48.8 37.65a14.33 14.33 0 0 1 9.346-5.004 14.693 14.693 0 0 1 10.32 2.589zm-29.016 37.608l8.024-10.4a13.9 13.9 0 0 0-9.742-2.427 13.54 13.54 0 0 0-8.816 4.7zm-60.584-46.743a12.98 12.98 0 0 0 2.307-9.51 13.494 13.494 0 0 0-4.819-8.6l-7.822 10.138zm10.558-35.05a13.22 13.22 0 0 0 9.683 2.284 13.933 13.933 0 0 0 8.774-4.842l-10.334-7.972z"/></g><g><path fill="#0e2549" d="M95.287 165.015a.396.396 0 0 1-.314-.639l9.954-12.902a.397.397 0 1 1 .628.485L95.6 164.861a.397.397 0 0 1-.315.154z"/></g><g><path fill="#0e2549" d="M163.873 183.312a.395.395 0 0 1-.242-.083l-42.577-32.848a.397.397 0 1 1 .485-.628l42.576 32.848a.396.396 0 0 1-.242.71z"/></g><g><path fill="#0e2549" d="M129.31 195.233a9.105 9.105 0 0 1-5.63-1.853c-2.227-1.718-3.5-4.387-3.585-7.517-.085-3.1 1.008-6.284 3.078-8.967 4.292-5.562 11.502-7.22 16.073-3.692 2.227 1.717 3.5 4.387 3.586 7.517.084 3.1-1.01 6.284-3.08 8.967-2.764 3.583-6.74 5.545-10.441 5.545zm4.3-23.093c-3.46 0-7.199 1.858-9.809 5.24-1.958 2.54-2.993 5.544-2.913 8.461.079 2.887 1.242 5.341 3.277 6.91 4.224 3.26 10.935 1.668 14.96-3.548 1.958-2.539 2.993-5.543 2.913-8.46-.078-2.888-1.242-5.342-3.276-6.911a8.33 8.33 0 0 0-5.153-1.692z"/></g><g><path fill="#0e2549" d="M136.427 177.505c1.96 1.657 2.14 3.57 1.579 5.012a.593.593 0 0 1-1.103-.435c.458-1.246.266-2.532-1.12-3.744l-3.384 4.387v.001c2.652 3.348 2.12 5.036 1.04 6.435-1.293 1.676-3.607 2.208-6.23.29l-1.18 1.531a.397.397 0 1 1-.629-.484l1.19-1.543c-2.125-1.867-2.206-3.881-1.578-5.453a.59.59 0 0 1 1.1.425c-.563 1.514-.276 2.946 1.102 4.22l3.97-5.147c-1.794-2.353-2.164-3.916-.918-5.533 1.123-1.455 3.184-2.04 5.529-.442l.841-1.09a.397.397 0 1 1 .628.484zm-4.742 6.146l-3.857 5c2.057 1.506 3.641 1.067 4.594-.169.967-1.252 1.05-2.463-.737-4.831zm.215-1.578l3.255-4.22c-1.554-1.05-2.946-.906-3.884.31-.885 1.147-.67 2.144.63 3.91z"/></g><g><path fill="#0e2549" d="M141.093 213.202a.395.395 0 0 1-.243-.083l-42.576-32.848a.397.397 0 1 1 .485-.628l42.576 32.848a.396.396 0 0 1-.242.71z"/></g></g><g><g><path fill="#fff" d="M386.829 331.37l41.781-80.126-42.822-22.329-41.781 80.127z"/></g><g><path fill="#0e2549" d="M422.373 264.061l-35.378 67.845-43.525-22.696 35.378-67.845 6.77-12.985 12.767 6.657 30.759 16.039zm5.7-12.648l-11.792-6.15a13.223 13.223 0 0 0-.55 9.935 13.932 13.932 0 0 0 6.308 7.787zm-48.152-10.39a12.98 12.98 0 0 0 9.767.602 13.493 13.493 0 0 0 7.622-6.254l-11.355-5.92zm41.753 22.662a14.727 14.727 0 0 1-6.696-8.24 14.005 14.005 0 0 1 .603-10.546l-17.571-9.163a14.4 14.4 0 0 1-12.504 7.36 13.591 13.591 0 0 1-5.95-1.374l-35.016 67.151 42.118 21.962z"/></g><g><path fill="#0e2549" d="M411.134 249.537a.395.395 0 0 1-.183-.045l-14.449-7.534a.397.397 0 0 1 .367-.704l14.449 7.535a.397.397 0 0 1-.184.748z"/></g><g><path fill="#0e2549" d="M390.706 312.727a.396.396 0 0 1-.351-.58l24.863-47.681a.396.396 0 1 1 .704.366l-24.863 47.682a.396.396 0 0 1-.353.213z"/></g><g><path fill="#0e2549" d="M386.597 291.483a14.74 14.74 0 0 1-6.787-1.709c-6.23-3.248-9.126-10.056-6.457-15.175 1.3-2.494 3.705-4.216 6.771-4.85 3.037-.626 6.364-.11 9.368 1.457 3.005 1.567 5.334 3.999 6.558 6.848 1.235 2.877 1.2 5.834-.1 8.328-1.72 3.296-5.333 5.1-9.353 5.1zm-6.42-2.412c5.843 3.046 12.602 1.675 15.069-3.056 1.188-2.278 1.214-4.994.075-7.648-1.152-2.681-3.352-4.975-6.195-6.457-2.843-1.483-5.984-1.975-8.84-1.383-2.83.584-5.041 2.16-6.229 4.439-2.467 4.731.278 11.058 6.12 14.105z"/></g><g><path fill="#0e2549" d="M392.797 284.298a.396.396 0 0 1-.367.703l-1.215-.634c-1.288 2.222-3.139 2.733-4.658 2.435a.593.593 0 0 1 .235-1.163c1.307.233 2.54-.182 3.489-1.759l-4.913-2.562-.001.001c-2.83 3.198-4.585 2.97-6.152 2.154-1.877-.979-2.801-3.164-1.376-6.08l-1.718-.896a.397.397 0 0 1 .367-.704l1.727.9c1.466-2.42 3.434-2.852 5.092-2.51a.59.59 0 0 1-.226 1.158c-1.59-.29-2.948.244-3.96 1.825l5.764 3.005c2.001-2.18 3.475-2.819 5.285-1.875 1.63.85 2.567 2.776 1.406 5.365zm-8.465-3.52l-5.599-2.92c-1.123 2.29-.412 3.773.971 4.494 1.403.732 2.61.602 4.628-1.574zm1.59-.065l4.726 2.464c.762-1.715.376-3.06-.986-3.77-1.285-.67-2.229-.283-3.74 1.306z"/></g><g><path fill="#0e2549" d="M357.286 295.556a.396.396 0 0 1-.351-.58l24.863-47.682a.396.396 0 1 1 .704.367l-24.863 47.681a.397.397 0 0 1-.353.214z"/></g></g><g><g><path fill="#2e6b99" d="M304.084 95.8h-146.33c-5.542 0-10.034 4.492-10.034 10.034v264.243c0 5.542 4.492 10.034 10.034 10.034h146.33c5.541 0 10.034-4.492 10.034-10.034V105.834c0-5.542-4.493-10.034-10.034-10.034z"/></g><g><path fill="#fff" d="M238.039 114.09a1.152 1.152 0 0 0-1.144 1.169v.012c0 4.386-3.027 7.941-6.76 7.941-3.735 0-6.762-3.555-6.762-7.941v-.012a1.152 1.152 0 0 0-1.144-1.169H159.67v233.917h142.495V114.09z"/></g><g><path fill="#0e2549" d="M302.569 348.401H159.28V113.69h62.956a1.519 1.519 0 0 1 1.082.449 1.564 1.564 0 0 1 .458 1.117c0 4.172 2.855 7.556 6.365 7.556 3.51 0 6.364-3.385 6.364-7.545a1.572 1.572 0 0 1 .458-1.128 1.519 1.519 0 0 1 1.082-.449h64.524zm-142.496-.794h141.702V114.484h-63.73a.73.73 0 0 0-.52.215.777.777 0 0 0-.226.556c0 4.61-3.212 8.35-7.158 8.35-3.947 0-7.158-3.74-7.158-8.338a.788.788 0 0 0-.227-.568.73.73 0 0 0-.52-.215h-62.163z"/></g><g><path fill="#fff" d="M236.434 364.082a9.032 9.032 0 1 1-18.063 0 9.032 9.032 0 0 1 18.063 0z"/></g><g><path fill="#0e2549" d="M227.399 373.507a9.428 9.428 0 1 1 9.428-9.428 9.439 9.439 0 0 1-9.428 9.428zm0-18.063a8.635 8.635 0 1 0 8.635 8.635 8.645 8.645 0 0 0-8.635-8.635z"/></g><g><path fill="#0e2549" d="M251.244 170.763h-23.527a.397.397 0 0 1 0-.793h23.527a.397.397 0 0 1 0 .793z"/></g><g><path fill="#0e2549" d="M183.535 166.25h93.648a4.346 4.346 0 0 1 4.345 4.345v4.153a4.344 4.344 0 0 1-4.345 4.346h-93.648a4.346 4.346 0 0 1-4.345-4.346v-4.153a4.345 4.345 0 0 1 4.345-4.345z"/></g><g><path fill="#fff" d="M274.417 305.1H246.32v9.185h28.097z"/></g><g><path fill="#0e2549" d="M274.81 314.678h-28.89V304.7h28.89zm-28.096-.793h27.303v-8.391h-27.303z"/></g><g><path fill="#fbcd02" d="M248.198 302.81H189.89v13.427h58.308z"/></g><g><path fill="#a1c5e2" d="M196.805 279.204V177.967a5.945 5.945 0 0 0-5.945-5.945h67.772a5.8 5.8 0 0 1 5.945 5.798v101.384z"/></g><g><path fill="#fff" d="M244.79 279.194c0-10.544 9.24-19.534 19.785-19.534v19.534z"/></g><g><path fill="#fff" d="M196.81 259.4c10.544 0 19.556 9.25 19.556 19.795H196.81z"/></g><g><path fill="#0e2549" d="M264.491 175.409c.322.762.486 1.581.483 2.408v101.781h-68.566V177.964a5.554 5.554 0 0 0-5.548-5.548v-.794h67.772a6.145 6.145 0 0 1 4.472 1.76 6.148 6.148 0 0 1 1.387 2.027zm-48.53 103.395c-.223-10.034-8.85-18.768-18.76-18.996v18.996zm28.445 0c.111-4.983 2.297-9.922 6.047-13.607 3.734-3.67 8.717-5.809 13.727-5.917v-81.463a5.404 5.404 0 0 0-5.538-5.401H193.93a6.346 6.346 0 0 1 3.273 5.548v81.056c4.984.111 9.927 2.299 13.618 6.051 3.677 3.738 5.82 8.723 5.928 13.733zm19.774-18.736c-10.028.222-18.758 8.838-18.986 18.736h18.987z"/></g><g><path fill="#0e2549" d="M241.715 270.054h-22.868a.397.397 0 1 1 0-.794h22.868a.397.397 0 0 1 0 .794z"/></g><g><path fill="#0e2549" d="M257.307 253.608a.397.397 0 0 1-.397-.397v-75.464a.397.397 0 0 1 .793 0v75.464a.397.397 0 0 1-.396.397z"/></g><g><path fill="#0e2549" d="M204.567 253.918a.397.397 0 0 1-.397-.397v-75.464a.397.397 0 0 1 .793 0v75.464a.397.397 0 0 1-.396.397z"/></g><g><path fill="#fff" d="M229.094 231.663c9.568 0 17.325-6.329 17.325-14.136 0-7.808-7.757-14.137-17.325-14.137s-17.324 6.33-17.324 14.137 7.756 14.136 17.324 14.136z"/></g><g><path fill="#0e2549" d="M229.101 232.057c-9.771 0-17.721-6.52-17.721-14.534 0-8.013 7.95-14.533 17.721-14.533s17.72 6.52 17.72 14.533c0 8.014-7.949 14.534-17.72 14.534zm0-28.273c-9.334 0-16.927 6.163-16.927 13.74 0 7.576 7.593 13.74 16.927 13.74s16.927-6.165 16.927-13.74c0-7.577-7.593-13.74-16.927-13.74z"/></g><g><path fill="#0e2549" d="M241.706 216.733a.794.794 0 0 1 0 1.587h-1.932c-.233 3.446-2.17 5.213-4.208 5.814a.833.833 0 0 1-.462-1.599c1.721-.54 2.959-1.795 3.179-4.215h-7.816c-1.45 5.6-3.752 6.436-6.197 6.436-2.92 0-5.456-2.042-5.654-6.436h-2.722a.794.794 0 0 1 0-1.587h2.755c.325-3.795 2.447-5.555 4.685-6.192a.828.828 0 0 1 .47 1.588c-2.1.65-3.43 2.122-3.723 4.604h9.164c1.069-3.848 2.489-5.527 5.298-5.527 2.528 0 4.9 1.717 5.216 5.527zm-10.812 0h7.388c-.23-2.474-1.562-3.814-3.65-3.814-1.98 0-2.908 1.031-3.738 3.814zm-2.07 1.587h-8.79c.163 3.402 1.977 4.724 4.118 4.724 2.178 0 3.583-.902 4.673-4.724z"/></g></g><g><g><path fill="#fff" d="M286.59 88.352l16.528-.182-1.023 6.998-17.285-.218z"/></g><g><path fill="#0e2549" d="M302.443 95.57l-18.143-.228 1.99-7.381 17.294-.191zm-17.11-1.009l16.426.207.905-6.194-15.764.173z"/></g><g><path fill="#fbcd02" d="M300.8 87.645s-.408-10.721 4.19-10.366c4.6.355 4.268.604 4.268.604l-2.584 18.231-5.55-.42s2.51-6.642-.325-8.05z"/></g><g><path fill="#0e2549" d="M308.339 77.391l-2.684 18.94 1.05.15 2.685-18.941z"/></g><g><path fill="#0e2549" d="M191.291 78.26s-4.345 16.54 0 17.553c4.346 1.014 99.946 0 99.946 0l.987-9.652-76.835-7.901z"/></g><g><path fill="#0e2549" d="M215.58 79.242s30.813-14.962 37.331-14.962c3.852 0 30.023 22.073 30.023 22.073l-14.419 4.543-17.054-11.551-20.575 7.911z"/></g><g><path fill="#fff" d="M177.293 84.21s-3.556 7.63-4.963 8.074c-1.407.444-10.917-1.13-11.74 3.157l13.104-.016c3.407-.492 8.784-7.734 8.784-7.734z"/></g><g><path fill="#0e2549" d="M160.11 95.836l.09-.472c.682-3.552 6.422-3.458 9.851-3.4.963.015 1.872.03 2.16-.06.776-.246 3.01-4.191 4.722-7.864l.196-.42 5.915 3.972-.247.334c-.224.3-5.516 7.38-9.046 7.89l-.056.004zm8.443-3.095c-2.917 0-6.566.254-7.43 2.3l12.542-.014c2.804-.436 7.154-5.84 8.242-7.244l-4.452-2.988c-.906 1.91-3.63 7.43-5.005 7.865-.41.13-1.25.116-2.412.097a87.81 87.81 0 0 0-1.485-.016z"/></g><g><path fill="#0e2549" d="M202.59 24.478s-3.452-.352-3.48 3.697c0 0-3.731-1.962-3.768 2.448 0 0-4.75-2.32-6.117 3.639 0 0-2.383.145-2.782 3.393 0 0-4.796.825-3.163 5.071 0 0-3.085 5.97 1.125 8.304 1.964 1.089 6.899.615 8.74-2.074 0 0 2.354.873 4.773-1.117 2.42-1.99.475-3.183.475-3.183s2.75 1.366 3.066-.748c.317-2.113-.947-2.766-.947-2.766s2.557.51 4.199.13c1.64-.38 2.038-3.654 2.038-3.654s3.738.94 3.719-.716c-.02-1.656-1.218-4.302-1.218-4.302s.565.334.594-1.746c.03-2.081-2.467-2.81-2.467-2.81z"/></g><g><path fill="#0e2549" d="M213.574 5.673a14.044 14.044 0 0 1 10.359 5.253c4.208 5.32.311 10.206-1.386 13.966-6.716 14.876-19.087 4.026-19.858 1.982-1.523-4.042-2.52-5.748-3.133-9.566-.33-2.045.811-12.836 14.018-11.635z"/></g><g><path fill="#fff" d="M206.033 23.05s-1.522 11.492-1.887 12.159c-2.348 4.288-7.131 8.636-7.925 9.353-4.026 3.638-10.5 12.594-8.342 13.059 4.66 1.003 24.185-9.673 24.185-9.673l9.157-2.826-2.81-3.473s-2.536-1.819-3.55-3.26c-1.013-1.441.25-13.282.25-13.282z"/></g><g><path fill="#0e2549" d="M188.564 58.073a3.655 3.655 0 0 1-.766-.072.889.889 0 0 1-.699-.666c-.586-2.192 5.582-10.113 8.858-13.074 1.29-1.166 5.67-5.278 7.844-9.25.257-.571 1.266-7.677 1.842-12.02l.057-.431 9.846 2.232-.037.35c-.483 4.521-.996 12.051-.32 13.012.963 1.37 3.43 3.148 3.455 3.166l.044.031 3.213 3.97-9.68 2.987c-1.146.625-17.995 9.765-23.657 9.765zm17.808-34.547c-.416 3.117-1.522 11.22-1.875 11.867-2.174 3.969-6.324 7.935-8.008 9.456-3.854 3.483-9.012 10.829-8.623 12.281a.105.105 0 0 0 .1.096c.22.044.444.065.669.062 5.444.001 23.055-9.594 23.241-9.696l.073-.03 8.597-2.653-2.408-2.976c-.356-.259-2.621-1.932-3.599-3.323-.995-1.415-.128-10.583.144-13.2z"/></g><g><path fill="#fff" d="M206.046 25.526c-1.029-1.288-2.76-3.781-2.27-5.514.488-1.733 2.377-.904 2.887-.442.34.308 2.688-8.39 2.688-8.39l13.485 3.551s-.404 7.997-2.398 12.575c-2.003 4.596-4.575 5.125-8.081 4.169a8.488 8.488 0 0 1-3.852-2.162z"/></g><g><path fill="#0e2549" d="M214.927 32.282a10.26 10.26 0 0 1-2.677-.42 8.954 8.954 0 0 1-4.028-2.264.397.397 0 1 1 .56-.562 8.172 8.172 0 0 0 3.677 2.06c3.251.887 5.66.537 7.612-3.945 1.72-3.946 2.245-10.585 2.346-12.115l-12.79-3.368c-2.2 8.11-2.591 8.224-2.826 8.293a.424.424 0 0 1-.407-.093c-.274-.248-1.073-.627-1.629-.467a.924.924 0 0 0-.61.723c-.32 1.13.482 3.01 2.198 5.158a.397.397 0 1 1-.62.495c-1.348-1.687-2.849-4.075-2.342-5.869a1.68 1.68 0 0 1 1.155-1.27c.684-.196 1.492.064 2.022.382.443-1.048 1.506-4.639 2.397-7.94l.103-.38 14.177 3.734-.016.321c-.017.33-.43 8.122-2.43 12.713-1.635 3.752-3.706 4.814-5.872 4.814z"/></g><g><path fill="#0e2549" d="M218.68 23.587a.535.535 0 0 1-.436-.228.53.53 0 0 1-.085-.396l.081-.449a.529.529 0 1 1 1.041.19l-.082.449a.53.53 0 0 1-.52.434z"/></g><g><path fill="#0e2549" d="M212.71 21.948a.53.53 0 0 1-.522-.624l.082-.449a.53.53 0 1 1 1.041.19l-.082.449a.53.53 0 0 1-.52.434z"/></g><g><path fill="#0e2549" d="M214.251 19.963a.395.395 0 0 1-.285-.121c-.026-.025-.935-.868-3.29-.256a.397.397 0 0 1-.2-.768c2.878-.747 4.018.427 4.065.477a.397.397 0 0 1-.29.668z"/></g><g><path fill="#0e2549" d="M214.956 25.89a.397.397 0 0 1-.037-.792c.305-.016.603-.098.874-.24.067-.126.041-.56-.01-1.423-.023-.383-.052-.857-.08-1.449a.397.397 0 0 1 .531-.394.392.392 0 0 1 .261.356c.029.588.057 1.06.08 1.44.068 1.14.091 1.525-.098 1.87-.255.465-1.122.596-1.483.63a.381.381 0 0 1-.038.002z"/></g><g><path fill="#0e2549" d="M220.98 21.538a.397.397 0 0 1-.326-.17c-.033-.045-.68-.886-2.465-.506a.397.397 0 0 1-.165-.776c2.344-.5 3.246.777 3.283.831a.397.397 0 0 1-.327.62z"/></g><g><path fill="#0e2549" d="M223.666 19.355a50.127 50.127 0 0 1-5.024-5.274c-.21-.262-10.394 2.559-11.877 4.996a3.516 3.516 0 0 0-1.29-.524c-.73-.06-1.025.14-1.025.14l2.46-10.043 16.718 3.688z"/></g><g><path fill="#fff" d="M247.09 54.162s2.548-2.16 3.71-3.07c1.161-.91.017-4.654 1.4-4.228.663.203 1.275 3.41 1.275 3.41l3.96-2.544s2.889 5.814.732 7.361c-2.475 1.775-10.237 2.922-10.128 1.724.012-.136-.949-2.653-.949-2.653z"/></g><g><path fill="#0e2549" d="M249.561 57.689c-.7 0-1.244-.076-1.534-.242a.699.699 0 0 1-.385-.606c-.064-.246-.51-1.46-.922-2.538l-.1-.262.214-.182c.026-.022 2.567-2.175 3.722-3.08.404-.316.435-1.337.46-2.157.028-.916.052-1.708.523-2.044a.852.852 0 0 1 .78-.093c.648.199 1.122 1.711 1.43 3.142l3.846-2.47.197.396c.31.627 2.97 6.166.607 7.86-1.8 1.292-6.32 2.276-8.838 2.276zm-1.127-.92c.788.515 7.171-.328 9.503-2 1.423-1.021.14-4.695-.666-6.461l-4.074 2.617-.11-.577c-.285-1.487-.763-2.943-1.025-3.115a.177.177 0 0 0-.07-.006c-.143.117-.168.932-.182 1.42-.032 1.036-.068 2.212-.765 2.757-.946.742-2.845 2.34-3.483 2.88.714 1.878.85 2.328.872 2.486z"/></g><g><path fill="#0e2549" d="M252.897 42.514l-.057 13.12 6.196.384.447-13.678z"/></g><g><path fill="#fff" d="M253.852 43.796l-.212 11.234 4.046-.242.322-11.068z"/></g><g><path fill="#0e2549" d="M253.23 55.456l.227-12.046 4.955-.09-.345 11.847zm1.006-11.266l-.196 10.422 3.255-.194.3-10.29z"/></g><g><path fill="#fbcd02" d="M194.626 46.144c22.534-1.975 22.729-6.969 25.85-4.525 2.29 1.795 13.48 16.296 13.48 16.296l14.222-6.518 4.444 6.518s-14.843 13.71-19.347 13.892c-4.504.181-13.392-12.263-13.392-12.263l-1.117 18.74-28.264.37 1.975-7.802-11.555 21.431-8.592-5.022s13.343-40.332 22.296-41.117z"/></g><g><path fill="#fff" d="M258.985 48.45s-.845.301-1.778 1.828c-1.017 1.666-1.57 4.26-.967 4.567 2.745 1.395 4.018 2.025 2.745-6.395z"/></g><g><path fill="#0e2549" d="M258.431 56.082c-.649 0-1.442-.404-2.376-.878a.812.812 0 0 1-.4-.537c-.265-.933.311-3.121 1.209-4.59.977-1.601 1.883-1.96 1.983-1.996l.453-.161.072.476c.829 5.483.529 6.921-.223 7.464-.21.15-.461.228-.718.222zm-1.993-1.574c.978.497 1.897.96 2.246.709.735-.53.266-4.228-.007-6.1a5.38 5.38 0 0 0-1.136 1.373c-.963 1.577-1.329 3.661-1.103 4.018z"/></g><g><path fill="#0e2549" d="M217.104 26.858c.199.326-1.314 1.205-2.375 1.003-2.668-.506-3.132-2.56-2.588-2.147.205.156 1.436 1.016 2.774 1.17 1.716.199 1.964-.395 2.19-.026z"/></g><g><path fill="#a1c5e2" d="M276.15 85.348a.4.4 0 0 1-.04-.002l-53.785-5.555a.397.397 0 0 1 .082-.789l53.784 5.555a.397.397 0 0 1-.04.791z"/></g><g><path fill="#0e2549" d="M193.047 69.411a.397.397 0 0 1-.354-.576l4.148-8.148a.397.397 0 1 1 .707.36l-4.148 8.148a.397.397 0 0 1-.353.216z"/></g></g><g><g><path fill="#a1c5e2" d="M54.138 287.65h115.264a16.14 16.14 0 0 1 16.138 16.138v62.786a13.51 13.51 0 0 1-13.51 13.511H51.51A13.51 13.51 0 0 1 38 366.575v-62.787a16.138 16.138 0 0 1 16.138-16.138z"/></g><g><path fill="#0e2549" d="M185.52 308.28H37.98v15.554h147.54z"/></g><g><path fill="#d2ebfc" d="M134.781 337.49H48.86v10.666h85.921z"/></g><g><path fill="#0e2549" d="M135.175 348.56H48.46V337.1h86.715zm-85.922-.794h85.128v-9.873H49.254z"/></g><g><path fill="#d2ebfc" d="M170.135 337.49H145.84v10.666h24.295z"/></g><g><path fill="#0e2549" d="M170.528 348.56H145.44V337.1h25.088zm-24.294-.794h23.5v-9.873h-23.5z"/></g><g><path fill="#0e2549" d="M170.134 358.634H48.857a.397.397 0 1 1 0-.794h121.277a.4.4 0 0 1 .397.397.398.398 0 0 1-.397.397z"/></g><g><path fill="#0e2549" d="M123.124 367.014H48.857a.397.397 0 1 1 0-.794h74.267a.397.397 0 0 1 0 .794z"/></g></g><g><g><path fill="#fff" d="M107.85 340.36l4.806 5.429 7.534-6.645-3.922-5.714z"/></g><g><path fill="#0e2549" d="M112.622 346.35l-5.342-6.034 9.07-7.466 4.366 6.36zm-4.203-5.944l4.272 4.825 6.973-6.15-3.479-5.068z"/></g><g><path fill="#fbcd02" d="M111.952 345.826s-7.84 13.06-5.703 16.24l19.524-17.222-5.56-6.304z"/></g><g><path fill="#0e2549" d="M125.326 343.12l1.54 1.745-20.744 18.298-1.652-1.872z"/></g><g><path fill="#0e2549" d="M108.467 350.268a.397.397 0 0 1-.166-.758l4.757-2.194a.397.397 0 0 1 .333.721l-4.758 2.194a.395.395 0 0 1-.166.037z"/></g><g><path fill="#0e2549" d="M107.587 353.058a.397.397 0 0 1-.166-.758l4.758-2.194a.397.397 0 1 1 .332.721l-4.758 2.194a.395.395 0 0 1-.166.037z"/></g><g><path fill="#0e2549" d="M105.967 356.477a.397.397 0 0 1-.166-.757l4.757-2.194a.397.397 0 1 1 .333.721l-4.758 2.194a.395.395 0 0 1-.166.036z"/></g><g><path fill="#2e6b99" d="M112.376 260.042s-50.652 18.369-46.38 29.627c4.27 11.26 38.933 52.936 38.933 52.936l16.54-9.086s-30.684-39.405-31.87-44.442c0 0 42.637.251 48.294-4.148 8-6.222 5.926-28.739 5.926-28.739z"/></g><g><path fill="#fff" d="M106.97 196.381s3.803 10.436 3.317 11.76c-.486 1.326-2.429 6.346-2.429 6.346l12.503 17.72 16.003-6.227-3.68-17.142s-9.233-4-10.04-5.129c-1.117-1.562-3.737-10.849-3.737-10.849z"/></g><g><path fill="#0e2549" d="M120.222 232.686l-12.804-18.147.077-.198c.02-.05 1.947-5.032 2.427-6.339.272-.744-1.473-6.425-3.318-11.488a.397.397 0 0 1 .745-.272c.644 1.766 3.828 10.643 3.318 12.033-.427 1.163-1.99 5.208-2.355 6.154l12.201 17.293 15.4-5.993-3.567-16.611c-1.914-.833-9.219-4.063-10.019-5.181-1.143-1.6-3.687-10.59-3.795-10.973a.396.396 0 1 1 .764-.215c.723 2.565 2.794 9.491 3.677 10.726.541.757 6.345 3.466 9.876 4.996l.187.081 3.794 17.672z"/></g><g><path fill="#fff" d="M78.84 233.635s-2.148.632-3.482 0c-1.333-.632-1.039-4.536-2.296-3.817-.601.344-.494 3.607-.494 3.607l-5.728-.027s-.108 4.97 3.26 6.395c2.804 1.186 9.186-1.123 9.209-1.18.05-.129-.47-4.978-.47-4.978z"/></g><g><path fill="#0e2549" d="M72.196 240.528a5.879 5.879 0 0 1-2.254-.374c-3.575-1.511-3.506-6.554-3.501-6.769l.008-.39 5.71.027c-.025-1.509.091-3.202.703-3.552a.852.852 0 0 1 .781-.08c.533.224.73.991.959 1.879.205.795.46 1.784.923 2.004 1.18.559 3.18-.016 3.2-.022l.456-.134.05.472c.529 4.945.488 5.05.445 5.162a.436.436 0 0 1-.264.247c-.048.02-4.049 1.53-7.216 1.53zm-4.952-6.735c.06 1.157.457 4.552 3.007 5.63 2.328.986 7.479-.64 8.651-1.076-.048-.691-.253-2.714-.412-4.222-.744.158-2.232.373-3.304-.135-.8-.38-1.094-1.518-1.352-2.523-.121-.47-.324-1.256-.498-1.346a.56.56 0 0 0-.08.037c-.197.211-.344 1.736-.294 3.25l.013.411z"/></g><g><path fill="#0e2549" d="M70.134 225.61l2.938 12.787-5.96 1.736-3.442-13.245z"/></g><g><path fill="#fff" d="M69.481 227.07l2.675 10.913-4 .653-2.746-10.727z"/></g><g><path fill="#0e2549" d="M67.859 239.082L64.92 227.6l4.853-1.001 2.868 11.701zm-1.964-10.872l2.552 9.972 3.22-.526-2.482-10.125z"/></g><g><path fill="#fff" d="M80.2 243.255s-8.148-.889-9.926-.444c-1.777.444-5.728-1.136-6.394-4.988-.667-3.852 1.267-4.153 1.267-4.153s.696 2.196.903 2.58c.33.612 2.595 1.746 2.595 1.746s-.148-3.63.889-4.143c1.037-.514 1.926 4.415 1.926 4.415l8.74-1.605z"/></g><g><path fill="#0e2549" d="M80.604 243.692l-.44-.048c-2.247-.245-8.384-.805-9.786-.454-1.077.27-2.681-.124-3.992-.977a6.447 6.447 0 0 1-2.89-4.328c-.295-1.705-.143-2.99.452-3.818a1.867 1.867 0 0 1 1.145-.795l.337-.052.103.325c.265.835.736 2.256.874 2.512.136.252.973.798 1.838 1.272.009-1.192.16-3.361 1.12-3.837a.734.734 0 0 1 .671.005c.887.446 1.5 3.052 1.747 4.303l8.821-1.62zm-8.592-1.406c2.52 0 6.472.385 7.799.522v-5.674l-8.664 1.59-.07-.391c-.366-2.025-1.003-3.92-1.38-4.12-.469.283-.714 2.156-.648 3.761l.027.672-.601-.3c-.558-.28-2.406-1.243-2.767-1.913-.168-.312-.574-1.538-.798-2.23-.412.29-1.049 1.138-.632 3.547a5.66 5.66 0 0 0 2.541 3.798c1.307.85 2.66 1.048 3.367.872a8.688 8.688 0 0 1 1.826-.134z"/></g><g><path fill="#fbcd02" d="M122.94 202.68c-2.237.444-6.645 9.879-11.067 10.605-1.338.22-.946-2.444-1.968-3.534-4.6-4.903-4.457 20.09-7.497 22.46H77.573l-.543 8.743 27.308-1.999c4.727 3.221.553 20.559 3.54 24.645.38.519 36.667 3.783 36.852 3.168 11.106-36.978-11.583-66.114-21.79-64.088z"/></g><g><path fill="#fbcd02" d="M128.941 211.562c-6.297-2.353-10.461 25.248-25.45 24.206-15.667-1.09-27.485-.403-27.591.141 0 0 .874 11.047.972 11.301 0 0 12.928 1.657 31.538 3.66 7.758.834 17.177-9.515 23.28-17.534 3.465-4.551 3.278-19.522-2.749-21.774z"/></g><g><path fill="#0e2549" d="M107.886 251.084a.397.397 0 0 1-.055-.79c3.252-.464 5.2-.75 9.056-1.322 7.368-1.093 13.752-12.887 17.81-22.59a.396.396 0 0 1 .732.307c-4.137 9.89-10.692 21.92-18.426 23.068-3.857.572-5.806.858-9.06 1.323a.412.412 0 0 1-.057.004z"/></g><g><path fill="#0e2549" d="M120.33 222.063a.396.396 0 0 0-.542.145c-3.545 6.135-7.585 11.82-13.16 13.108l2.303-12.84a.397.397 0 0 0-.78-.14l-2.37 13.142a9.87 9.87 0 0 1-2.516.071c-9.174-.792-16.249-.882-19.655-.87-8.18.035-8.291.555-8.357.865l-.013.061 1.235 11.656a.397.397 0 0 0 .79-.084l-1.2-11.32c1.642-.396 12.312-.796 27.132.482 7.822.681 12.926-6.201 17.278-13.734a.396.396 0 0 0-.145-.542z"/></g><g><path fill="#0e2549" d="M100.72 175.423c-2.038 1.161-7.024 3.919-5.353 7.742 1.905 4.36 5.091 9.645 6.82 12.405a2.59 2.59 0 0 0 3.232 1.001l13.165-5.753a2.591 2.591 0 0 0 1.437-3.137c-1.304-4.244-4.142-13.197-5.185-14.278-3.55-3.678-10.89.181-14.117 2.02z"/></g><g><path fill="#fff" d="M118.807 194.108c.388-1.05-.604-4.096-1.98-7.465a.303.303 0 0 1 .034-.29c.64-.892 1.408-2.54.65-4.179-.658-1.419-1.562-.666-2.174.151a.24.24 0 0 1-.41-.056c-1.821-3.991-3.582-7.419-3.582-7.419L95.7 181.686s1.597 3.572 3.504 7.526c.085.177 4.932 9.478 5.687 10.182a2.92 2.92 0 0 0 1.641.693s1.363.382 7.049-2.102z"/></g><g><path fill="#0e2549" d="M106.786 200.506a1.713 1.713 0 0 1-.327-.025 3.29 3.29 0 0 1-1.843-.795c-.829-.772-5.731-10.21-5.774-10.3a328.616 328.616 0 0 1-3.509-7.535l-.163-.365 16.353-7.146.17.331c.018.034 1.72 3.351 3.487 7.21.532-.643 1.051-.942 1.548-.89.465.049.848.392 1.138 1.02.9 1.943-.133 3.787-.656 4.533 2.262 5.548 2.205 7.054 1.965 7.704a.397.397 0 0 1-.745-.275c.17-.459.14-2.002-1.974-7.177a.695.695 0 0 1 .078-.671c.432-.603 1.355-2.177.612-3.781-.16-.347-.338-.547-.501-.564-.236-.02-.608.269-.995.786a.62.62 0 0 1-.57.248.643.643 0 0 1-.519-.377 202.556 202.556 0 0 0-3.405-7.07l-14.934 6.525c.455 1.01 1.802 3.971 3.335 7.15.318.65 4.958 9.466 5.6 10.064.401.34.899.546 1.423.59l.055.012c.005 0 1.456.243 6.782-2.084a.398.398 0 0 1 .53.508.394.394 0 0 1-.212.219c-4.331 1.893-6.23 2.155-6.95 2.155z"/></g><g><path fill="#0e2549" d="M109.347 186.634a.53.53 0 0 1-.474-.293l-.158-.316a.53.53 0 0 1 .948-.472l.157.316a.53.53 0 0 1-.473.765z"/></g><g><path fill="#0e2549" d="M102.59 189.838a.53.53 0 0 1-.483-.313l-.17-.38a.529.529 0 1 1 .965-.433l.17.38a.53.53 0 0 1-.482.746z"/></g><g><path fill="#0e2549" d="M107.217 184.588a.397.397 0 0 1-.296-.662 4.473 4.473 0 0 1 2.976-1.356.397.397 0 0 1 .026.793 3.686 3.686 0 0 0-2.41 1.093.396.396 0 0 1-.296.132z"/></g><g><path fill="#0e2549" d="M105.84 192.547c-.46 0-.966-.095-1.211-.459-.324-.479-.33-.636-.408-2.557a310.05 310.05 0 0 0-.064-1.501c-.042-.333-.212-1.236-.515-1.668a1.173 1.173 0 0 0-.645-.041c-.939.108-2.24.684-2.796 1.46a.397.397 0 1 1-.645-.462c.85-1.188 2.71-1.82 3.732-1.809.483.002.821.136 1.004.396.476.68.638 1.904.655 2.041l.002.031c.028.608.048 1.108.064 1.521.075 1.853.086 1.87.273 2.145.081.112.665.151 1.23.037a.397.397 0 0 1 .158.778 4.373 4.373 0 0 1-.835.088z"/></g><g><path fill="#0e2549" d="M112.186 175.797s-13.559 9.33-20.627 8.365c-4.034-.55-2.498-5.381-.186-7.195 1.739-1.364 4.62-.208 6.738-1.163 1.628-.735 4.911-3.289 7.113-4.069 4.464-1.581 7.955 1.043 6.962 4.062z"/></g><g><path fill="#0e2549" d="M109.977 192.773c.364.387-.145 2.515-1.395 2.988-2.038.773-3.366-1.104-2.834-1.172.208-.026 1.145.293 2.354-.207 1.304-.538 1.63-1.868 1.875-1.609z"/></g></g><g><g><path fill="#d2ebfc" d="M360.598 219.63H308.75v160.928h51.848z"/></g><g><path fill="#0e2549" d="M360.992 219.23v161.721H308.35V219.23zm-51.849.794v12.793h49.601v.793h-49.6v12.469h49.6v.793h-49.6v12.469h49.6l-.172.793h-49.428v12.469h51.054v-52.58zm0 146.806h51.055v-12.468h-51.054zm51.055-13.262V341.1h-51.054v12.468zm0-25.73h-51.054v12.468h51.054zm0-13.262h-51.054v12.468h51.054zm0-14.656h-51.054v13.862h51.054zm0-.793v-12.469h-51.054v12.469zm0-13.262v-12.469h-51.054v12.469zm0 94.293v-12.534h-51.054v12.534z"/></g></g><g><g><path fill="#d2ebfc" d="M412.438 299.52H360.59v81.031h51.848z"/></g><g><path fill="#0e2549" d="M412.842 299.12v81.824H360.2V299.12zm-51.849 27.918h51.055v-12.534h-51.055zm0-27.125v13.797h51.055v-13.796zm51.055 80.238v-52.32h-51.054v52.32z"/></g></g><g><path fill="#0e2549" d="M368.527 292.14a.397.397 0 0 1-.166-.758l4.34-1.995a.397.397 0 1 1 .331.72l-4.34 1.996a.397.397 0 0 1-.165.036z"/></g><g><path fill="#0e2549" d="M367.447 289.029a.397.397 0 0 1-.166-.757l4.34-1.996a.397.397 0 0 1 .331.721l-4.34 1.996a.397.397 0 0 1-.165.036z"/></g><g><path fill="#a1c5e2" d="M435.255 332.26H344.89v48.294h90.365z"/></g><g><g><path fill="#fff" d="M358.741 332.26c0 7.514-6.337 14.098-13.851 14.098V332.26z"/></g><g><path fill="#fff" d="M435.26 346.358c-7.514 0-13.92-6.584-13.92-14.098h13.92z"/></g><g><path fill="#fff" d="M358.741 380.555c0-7.514-6.337-13.605-13.851-13.605v13.605z"/></g><g><path fill="#fff" d="M421.15 380.556c0-7.514 6.592-13.936 14.105-13.936v13.936z"/></g><g><path fill="#0e2549" d="M435.649 331.86v49.087H344.49V331.86zm-13.914.793c.22 7 6.213 13.074 13.12 13.3v-13.3zm-76.452 13.3c6.872-.227 12.833-6.301 13.052-13.3h-13.051zm13.052 34.2c-.21-6.97-5.95-12.602-13.051-12.805v12.806zm62.426 0a14.331 14.331 0 0 1 4.343-9.67 14.688 14.688 0 0 1 9.751-4.255v-19.486a14.31 14.31 0 0 1-9.663-4.34 14.686 14.686 0 0 1-4.246-9.748h-61.822a14.727 14.727 0 0 1-4.21 9.747 14.003 14.003 0 0 1-9.63 4.34v19.818a14.281 14.281 0 0 1 9.623 4.087 13.764 13.764 0 0 1 4.218 9.508zm14.094-13.135c-7.003.22-13.08 6.22-13.305 13.136h13.305z"/></g><g><path fill="#0e2549" d="M351.257 365.249a.397.397 0 0 1-.397-.397v-16.295a.397.397 0 1 1 .794 0v16.295a.397.397 0 0 1-.397.397z"/></g><g><path fill="#0e2549" d="M428.457 365.249a.397.397 0 0 1-.397-.397v-16.295a.397.397 0 1 1 .794 0v16.295a.397.397 0 0 1-.397.397z"/></g><g><path fill="#0e2549" d="M416.741 337.843h-53.774a.397.397 0 0 1 0-.793h53.775a.397.397 0 1 1 0 .793z"/></g><g><path fill="#0e2549" d="M416.962 375.414h-53.775a.397.397 0 1 1 0-.794h53.775a.397.397 0 0 1 0 .794z"/></g><g><path fill="#fff" d="M401.387 357.545c0 6.818-4.51 12.345-10.073 12.345-5.564 0-10.074-5.527-10.074-12.345 0-6.818 4.51-12.345 10.073-12.345 5.564 0 10.074 5.527 10.074 12.345z"/></g><g><path fill="#0e2549" d="M391.31 370.283c-5.773 0-10.47-5.716-10.47-12.741 0-7.026 4.697-12.742 10.47-12.742 5.774 0 10.47 5.716 10.47 12.742 0 7.026-4.696 12.741-10.47 12.741zm0-24.69c-5.336 0-9.676 5.36-9.676 11.949 0 6.588 4.34 11.948 9.676 11.948s9.677-5.36 9.677-11.948-4.341-11.948-9.677-11.948z"/></g><g><path fill="#0e2549" d="M391.707 365.013v1.937a.397.397 0 0 1-.794 0v-1.947c-2.823-.181-4.117-1.726-4.58-3.354a.59.59 0 0 1 1.131-.336c.478 1.543 1.58 2.502 3.45 2.669v-6.501c-2.86-.767-4.108-1.778-4.108-3.82 0-1.838 1.275-3.56 4.107-3.727v-1.377a.397.397 0 1 1 .794 0v1.371c2.564.114 3.874 1.52 4.311 3.004a.592.592 0 0 1-1.139.33c-.398-1.267-1.335-2.168-3.172-2.28v5.54c4.144 1.03 4.755 2.693 4.755 4.46 0 2.116-1.51 3.946-4.755 4.03zm-.794-8.703v-5.33c-1.872.118-2.886 1.082-2.886 2.618 0 1.45.779 2.107 2.886 2.712zm.794 7.695c2.549-.063 3.535-1.38 3.535-2.94 0-1.582-.673-2.592-3.535-3.375z"/></g></g><g><g><path fill="#fbcd02" d="M361.237 282.826c3.213 11.699 8.741 15.38 11.628 14.304.939-.35 1.599-1.2 1.813-2.44.894-5.15-2.89-12.116-5.699-15.86-1.307-1.744-8.578.954-7.742 3.996z"/></g><g><path fill="#0e2549" d="M361.236 282.823c3.22 11.697 8.741 15.38 11.629 14.304-9.005-5.014-10.46-16.937-10.46-16.937s-.817.65-1.051 1.204c-.398.943-.118 1.429-.118 1.429z"/></g><g><path fill="#fff" d="M361.91 267.64s.675 11.536 1.35 13.622c.675 2.086 3.322 4.744 4.332 4.909 1.82.297 3.098-1.07 1.357-6.26l1.859-12.701z"/></g><g><path fill="#0e2549" d="M368.04 286.606c-.171-.001-.343-.016-.512-.044-1.239-.202-3.946-3.015-4.646-5.178-.683-2.11-1.34-13.249-1.368-13.722l-.024-.4 9.78-.472-1.916 13.085c1.004 3.026 1.08 5.068.228 6.071a1.936 1.936 0 0 1-1.541.66zm-5.71-18.59c.126 2.05.725 11.325 1.307 13.123.649 2.007 3.226 4.51 4.018 4.64.599.097 1.043-.02 1.322-.347.376-.442.824-1.732-.405-5.394l-.03-.09 1.803-12.319z"/></g><g><path fill="#fbcd02" d="M397.434 273.11c8.701 8.455 15.333 8.826 17.275 6.434.632-.778.77-1.844.326-3.022-1.84-4.891-8.634-8.978-12.953-10.782-2.01-.84-6.91 5.172-4.648 7.37z"/></g><g><path fill="#0e2549" d="M397.433 273.112c8.706 8.45 15.333 8.826 17.275 6.434-10.303.244-17.601-9.296-17.601-9.296s-.375.975-.296 1.571c.134 1.015.622 1.291.622 1.291z"/></g><g><path fill="#0e2549" d="M408.236 277.501a.397.397 0 0 1-.325-.623l2.729-3.92a.397.397 0 0 1 .651.453l-2.729 3.92a.397.397 0 0 1-.326.17z"/></g><g><path fill="#0e2549" d="M405.726 275.363a.397.397 0 0 1-.325-.623l2.729-3.92a.397.397 0 0 1 .651.453l-2.729 3.92a.397.397 0 0 1-.326.17z"/></g><g><path fill="#fff" d="M390.31 259.681s7.105 8.814 8.745 10.27c1.64 1.456 4.97 2.51 5.925 2.14 1.72-.667 1.75-1.81-2.38-5.4L397.76 254.8z"/></g><g><path fill="#0e2549" d="M404.462 272.568c-1.521 0-4.267-1.07-5.667-2.314-1.645-1.461-8.5-9.957-8.79-10.317l-.275-.341 8.221-5.386 4.984 12.25c2.679 2.336 3.7 3.71 3.52 4.734-.126.729-.818 1.076-1.328 1.273-.214.074-.439.108-.665.1zm-13.564-12.789c1.323 1.633 7.01 8.625 8.424 9.882 1.643 1.458 4.82 2.337 5.519 2.067.689-.268.805-.511.833-.67.118-.673-1.003-2.039-3.331-4.062l-.071-.062-.036-.087-4.656-11.445z"/></g><g><path fill="#0e2549" d="M342.08 203.44s37.789 6.314 40.152 11.09c2.364 4.776 22.299 41.333 22.299 41.333l-22.299 14.512-12.006-42.251z"/></g><g><path fill="#0e2549" d="M317.93 203.07c1.184 4.148-9.186 16.295 9.184 18.666 18.37 2.37 26.369 2.074 26.369 2.074l3.526 49.478h30.842s-16.03-55.242-17.48-58.466c-.637-1.415-6.198-3.853-12.237-6.144-7.714-2.925-16.206-5.608-16.206-5.608z"/></g><g><path fill="#0e2549" d="M350.055 143.411s7.12-6.426 1.425-14.32c-6.955-9.642-31.343 1-16.7 18.066 7.745 9.027 15.275-3.746 15.275-3.746z"/></g><g><path fill="#fff" d="M345.58 145.89s-3.296 9.043-2.875 10.191c.42 1.148 2.105 5.498 2.105 5.498l-10.834 15.354-13.866-5.396 4.053-12.112s10.175-7.189 10.874-8.167c.968-1.353 2.224-6.178 2.224-6.178z"/></g><g><path fill="#0e2549" d="M334.118 177.423l-14.508-5.646 4.214-12.594.107-.075c3.912-2.764 10.299-7.4 10.78-8.073.914-1.279 2.15-6 2.163-6.048a.395.395 0 0 1 .726-.1.396.396 0 0 1 .041.3c-.052.2-1.286 4.913-2.285 6.31-.698.975-9.415 7.16-10.862 8.184l-3.892 11.63 13.225 5.147 10.532-14.927a591.65 591.65 0 0 1-2.03-5.306c-.437-1.192 2.09-8.31 2.874-10.463a.396.396 0 1 1 .745.272c-1.587 4.355-3.096 9.256-2.874 9.918a659.845 659.845 0 0 0 2.102 5.491l.076.199z"/></g><g><path fill="#fff" d="M359.55 179.103s10.398 2.93 11.604 2.507c1.207-.424 1.308-3.815 2.326-3.08.487.35.098 3.152.098 3.152l4.938.498s-.358 4.292-3.39 5.214c-2.524.767-23.124-2.58-23.138-2.633-.019-.07-14.733-3.199-.55-10.765 1.52-.81 8.112 5.107 8.112 5.107z"/></g><g><path fill="#0e2549" d="M373.747 187.91c-5.368 0-20.858-2.577-21.89-2.786l-.003.01c-.027-.01-.084-.025-.169-.048-4.217-1.144-6.564-2.79-6.787-4.759-.236-2.084 1.845-4.269 6.36-6.678 1.613-.861 6.822 3.603 8.496 5.1 5.027 1.414 10.596 2.727 11.276 2.49.397-.14.701-.956.946-1.612.282-.757.526-1.411 1.031-1.564a.79.79 0 0 1 .712.148c.509.366.467 1.82.312 3.12l4.92.496-.032.388c-.016.187-.418 4.573-3.67 5.561-.493.11-.998.155-1.502.134zm-21.643-3.527c.92.219 20.57 3.346 22.915 2.634 2.232-.678 2.888-3.451 3.057-4.48l-4.94-.498.056-.408c.172-1.244.191-2.53.043-2.79l-.011-.007c-.15.121-.37.712-.505 1.07-.318.854-.679 1.821-1.426 2.083-1.26.443-10.087-2.004-11.843-2.499l-.089-.025-.068-.061c-3.072-2.757-6.875-5.473-7.661-5.053-4.08 2.176-6.135 4.213-5.946 5.89.18 1.595 2.385 3.045 6.207 4.082.08.022.15.04.211.062z"/></g><g><path fill="#0e2549" d="M376.383 175.17l-3.693 10.752 4.978 2.037 4.17-11.101z"/></g><g><path fill="#fff" d="M376.816 176.49l-3.296 9.16 3.388.927 3.34-8.994z"/></g><g><path fill="#0e2549" d="M377.152 187.05L373 185.914l3.571-9.924 4.193 1.336zm-3.115-1.675l2.624.718 3.07-8.264-2.672-.85z"/></g><g><path fill="#fbcd02" d="M331.748 151.349c1.938.385 5.757 8.56 9.589 9.189 1.16.19.82-2.117 1.705-3.062 3.985-4.249 5.772 7.751 8.406 9.806 0 0 4.962 2.12 5.05 4.641.065 1.83-1.46 3.322-2.802 4.566-5.481 5.078-7.274 3.928-7.274 3.928-4.095 2.79.965 20.177-1.624 23.717-.329.45-27.356 1.674-27.406 1.12-3.09-33.902 5.512-55.66 14.356-53.905z"/></g><g><path fill="#fff" d="M355.109 191.481s18.099-2.044 19.59-1.5c1.491.545 5.039-.458 5.963-3.716.925-3.258-.714-3.694-.714-3.694s-.8 1.83-1.013 2.141c-.34.497-2.394 1.269-2.394 1.269s.457-3.114-.39-3.65c-.847-.538-2.06 3.628-2.06 3.628l-18.982-2.181-9.53-3.358-10.259 8.296z"/></g><g><path fill="#0e2549" d="M355.104 191.879l-20.744-2.899 11.141-9.01 9.698 3.417 18.607 2.138c.328-1.06 1.104-3.28 1.932-3.593a.69.69 0 0 1 .626.06c.787.5.755 2.271.65 3.37.755-.321 1.468-.69 1.594-.876.14-.205.673-1.382.977-2.076l.136-.312.329.087c.409.14.749.43.948.814.444.78.46 1.915.047 3.372a5.64 5.64 0 0 1-2.911 3.5c-1.238.632-2.64.82-3.57.481-1.024-.375-12.45.735-19.41 1.521zm-18.823-3.432l18.833 2.632c2.086-.235 18.2-2.027 19.722-1.472.58.212 1.748.164 2.937-.443a4.852 4.852 0 0 0 2.508-3.01c.54-1.9.158-2.692-.154-3.008-.261.586-.696 1.541-.864 1.788-.38.557-2.073 1.225-2.583 1.416l-.63.236.098-.665c.191-1.303.163-2.902-.17-3.227-.347.223-1.034 1.752-1.506 3.374l-.094.321-19.4-2.24-9.322-3.283z"/></g><g><path fill="#fbcd02" d="M326.55 159.05c5.456-2.038 3.124 3.752 13.06 12.166 9.104 7.71 10.171 6.984-1.877 17.99-4.992 4.558-8.277-4.34-13.566-11.289-3.001-3.944-2.84-16.915 2.383-18.867z"/></g><g><path fill="#0e2549" d="M335.052 190.846c-.142 0-.284-.01-.425-.028-2.59-.332-4.773-3.697-7.301-7.593-1.094-1.684-2.224-3.426-3.476-5.072a.397.397 0 0 1 .631-.48c1.27 1.67 2.41 3.423 3.51 5.12 2.421 3.73 4.512 6.953 6.736 7.238.89.114 1.784-.253 2.736-1.122 6.096-5.568 8.79-8.114 8.744-10.112-.036-1.59-1.81-3.069-5.03-5.752-.567-.472-1.176-.98-1.826-1.53a34.332 34.332 0 0 1-6.456-7.118.397.397 0 0 1 .659-.442 33.543 33.543 0 0 0 6.31 6.954c.648.55 1.255 1.055 1.82 1.526 3.4 2.832 5.272 4.393 5.316 6.344.054 2.349-2.559 4.83-9.002 10.715-.992.907-1.96 1.352-2.946 1.352z"/></g><g><path fill="#fff" d="M336.617 147.826c-.965-1.211-3.778-6.543-3.316-8.171.461-1.628 2.236-.848 2.714-.413.319.29 2.698-8.932 2.698-8.932l12.727 3.08s-.607 8.836-2.486 13.136c-1.887 4.318-4.305 4.813-7.599 3.91z"/></g><g><path fill="#0e2549" d="M343.763 151.198a9.57 9.57 0 0 1-2.51-.381.397.397 0 1 1 .21-.766c3.042.834 5.298.508 7.13-3.686 1.626-3.72 2.295-11.026 2.428-12.67l-12.019-2.91c-2.242 8.66-2.59 8.764-2.846 8.84l-.215.064-.19-.156c-.252-.23-.993-.582-1.507-.435a.847.847 0 0 0-.558.663c-.385 1.358 2.208 6.515 3.245 7.816a.397.397 0 1 1-.62.494c-.829-1.039-3.926-6.63-3.389-8.527a1.602 1.602 0 0 1 1.104-1.21c.635-.18 1.38.051 1.883.343.445-1.124 1.524-4.985 2.423-8.468l.097-.379 13.433 3.252-.023.334c-.025.363-.634 8.953-2.518 13.266-1.351 3.093-3.044 4.516-5.558 4.516z"/></g><g><path fill="#0e2549" d="M347.5 142.67a.53.53 0 0 1-.521-.624l.077-.422a.53.53 0 0 1 1.04.19l-.077.422a.53.53 0 0 1-.52.434z"/></g><g><path fill="#0e2549" d="M341.88 141.12a.53.53 0 0 1-.521-.624l.077-.422a.53.53 0 0 1 1.04.19l-.077.422a.53.53 0 0 1-.52.434z"/></g><g><path fill="#0e2549" d="M343.04 138.89a.395.395 0 0 1-.21-.06 3 3 0 0 0-2.098-.318.397.397 0 1 1-.19-.77 3.752 3.752 0 0 1 2.711.416.397.397 0 0 1-.212.732z"/></g><g><path fill="#0e2549" d="M351.298 140.248s.394-5.11-3.969-6.466c-2.3-.715-5.247-1.11-6.932-.363-1.623.72-4.237 5.22-4.237 5.22l1.016-9.829 14.818 2.595z"/></g><g><path fill="#0e2549" d="M345.534 126.06s4.176-1.903 2.316-5.81c-1.859-3.908-15.783-2.483-8.05 6.24 7.73 8.723 5.734-.43 5.734-.43z"/></g><g><path fill="#0e2549" d="M346.402 146.147c.146.283-1.164.924-2.035.694-2.188-.579-2.453-2.314-2.025-1.938a5.4 5.4 0 0 0 2.238 1.136c1.415.266 1.656-.213 1.822.108z"/></g><g><path fill="#0e2549" d="M345.665 144.64a7.84 7.84 0 0 1-1.108-.093.397.397 0 0 1 .114-.786c.44.07.886.093 1.33.069a7.228 7.228 0 0 0-.067-.185 7.725 7.725 0 0 1-.522-2.504c-.067-1.15.029-1.753.329-2.081a1.046 1.046 0 0 1 .813-.293l.106-.004c.88-.052 2.507.686 2.69.77a.397.397 0 0 1-.332.72c-.62-.284-1.789-.72-2.314-.698a5.172 5.172 0 0 1-.125.005.56.56 0 0 0-.253.036c-.046.05-.191.307-.122 1.499.029.778.189 1.546.473 2.27.13.344.231.616.08.899-.062.116-.202.377-1.092.377z"/></g><g><path fill="#0e2549" d="M343.284 174.697h-.002a.395.395 0 0 1-.395-.398c.021-7.127-1.418-12.344-1.432-12.396a.397.397 0 0 1 .764-.214c.014.053 1.483 5.368 1.461 12.612a.397.397 0 0 1-.396.396z"/></g><g><path fill="#a1c5e2" d="M385.003 263.884a.397.397 0 0 1-.378-.278l-15.505-49.348-17.278-5.664a.397.397 0 0 1 .248-.755l17.665 5.792.061.195 15.565 49.543a.399.399 0 0 1-.123.423.393.393 0 0 1-.255.092z"/></g><g><path fill="#fbcd02" d="M346.404 129.577c.05-.064.102-.13.151-.199 1.215-1.68 1.627-1.886 1.758-1.883-.462-.2-3.675-1.464-5.201 1.267a3.592 3.592 0 0 0-1.88-1.608c-1.926-.767-2.227-1.117-2.256-1.244-.068.416-.39 2.885 1.28 4.155-4.312 2.418-6.376 9.138-6.376 9.138a.89.89 0 0 1 .582-.222c.223-.014.446.02.655.097 0 0 2.134-5.603 5.56-6.81 5.041-1.778 8.54.272 9.932 2.138 1.39 1.864-.169 7.702-.169 7.702 3.647-6.498.396-11.19-4.036-12.531z"/></g></g><g><path fill="#0e2549" d="M400.841 162.893v1.751a.397.397 0 0 1-.793 0v-1.761c-2.523-.175-3.682-1.563-4.098-3.026a.533.533 0 0 1 1.022-.302c.428 1.382 1.411 2.245 3.076 2.406v-5.877c-2.555-.691-3.67-1.604-3.67-3.439 0-1.651 1.139-3.199 3.67-3.364v-1.244a.397.397 0 0 1 .793 0v1.24c2.29.114 3.462 1.377 3.855 2.71a.535.535 0 0 1-1.03.297c-.355-1.134-1.192-1.943-2.825-2.055v5.01c3.707.93 4.255 2.426 4.255 4.016 0 1.902-1.352 3.548-4.255 3.638zm-.793-7.867v-4.797c-1.666.117-2.568.984-2.568 2.36 0 1.3.693 1.894 2.568 2.437zm.793 6.957c2.273-.069 3.153-1.251 3.153-2.652 0-1.422-.6-2.332-3.153-3.038z"/></g><g><path fill="#0e2549" d="M400.445 168.74a12.655 12.655 0 1 1 12.656-12.655 12.67 12.67 0 0 1-12.656 12.656zm0-24.516a11.862 11.862 0 1 0 11.862 11.861 11.876 11.876 0 0 0-11.862-11.861z"/></g><g><path fill="#0e2549" d="M385.431 173.852a2.951 2.951 0 1 1 0-5.902 2.951 2.951 0 0 1 0 5.902zm0-5.108a2.158 2.158 0 1 0 0 4.315 2.158 2.158 0 0 0 0-4.315z"/></g><g><path fill="#0e2549" d="M279.201 28.723v1.751a.397.397 0 0 1-.793 0v-1.761c-2.522-.175-3.682-1.563-4.098-3.026a.533.533 0 0 1 1.022-.303c.428 1.383 1.411 2.246 3.076 2.406v-5.876c-2.555-.691-3.67-1.604-3.67-3.439 0-1.651 1.14-3.199 3.67-3.364v-1.244a.397.397 0 0 1 .793 0v1.24c2.29.114 3.462 1.377 3.855 2.71a.535.535 0 0 1-1.029.297c-.356-1.134-1.193-1.943-2.826-2.055v5.01c3.707.93 4.255 2.426 4.255 4.016 0 1.902-1.352 3.548-4.255 3.638zm-.793-7.867V16.06c-1.666.117-2.568.984-2.568 2.36 0 1.3.693 1.894 2.568 2.437zm.793 6.957c2.273-.069 3.153-1.251 3.153-2.652 0-1.422-.6-2.332-3.153-3.038z"/></g><g><path fill="#0e2549" d="M278.805 34.57a12.655 12.655 0 1 1 12.656-12.655 12.67 12.67 0 0 1-12.656 12.656zm0-24.516a11.862 11.862 0 1 0 11.862 11.861 11.876 11.876 0 0 0-11.862-11.861z"/></g><g><path fill="#0e2549" d="M263.791 39.672a2.95 2.95 0 1 1 0-5.902 2.95 2.95 0 0 1 0 5.902zm0-5.108a2.158 2.158 0 1 0 0 4.315 2.158 2.158 0 0 0 0-4.315z"/></g><g><path fill="#0e2549" d="M50.091 206.923v1.751a.397.397 0 1 1-.793 0v-1.761c-2.523-.175-3.682-1.563-4.098-3.026a.533.533 0 0 1 1.022-.303c.428 1.383 1.411 2.246 3.076 2.407v-5.877c-2.555-.691-3.67-1.604-3.67-3.438 0-1.652 1.14-3.2 3.67-3.365v-1.244a.397.397 0 0 1 .793 0v1.24c2.29.114 3.462 1.377 3.855 2.71a.535.535 0 0 1-1.029.297c-.356-1.134-1.193-1.943-2.826-2.055v5.01c3.707.93 4.255 2.426 4.255 4.016 0 1.902-1.352 3.549-4.255 3.638zm-.793-7.867v-4.797c-1.666.117-2.568.984-2.568 2.36 0 1.3.693 1.894 2.568 2.437zm.793 6.957c2.273-.069 3.153-1.251 3.153-2.652 0-1.422-.6-2.332-3.153-3.038z"/></g><g><path fill="#0e2549" d="M49.696 212.761a12.656 12.656 0 1 1 12.655-12.656 12.67 12.67 0 0 1-12.655 12.656zm0-24.517a11.862 11.862 0 1 0 11.861 11.861 11.875 11.875 0 0 0-11.861-11.861z"/></g><g><path fill="#0e2549" d="M56.901 223.032a2.951 2.951 0 1 1 0-5.902 2.951 2.951 0 0 1 0 5.902zm0-5.109a2.158 2.158 0 1 0 0 4.316 2.158 2.158 0 0 0 0-4.315z"/></g><g><g><path fill="#fff" d="M444.358 314.245a10.253 10.253 0 1 1-11.008-17.302 10.253 10.253 0 0 1 11.007 17.301z"/></g><g><path fill="#0e2549" d="M444.856 302.048a.332.332 0 0 1-.146.208l-.874.557c.947 1.668.582 3.061-.183 3.937a.448.448 0 0 1-.671-.593c.64-.76.835-1.714.181-2.917l-3.535 2.25c1.006 3.033.198 4.092-.924 4.806-1.343.854-3.111.639-4.478-1.37l-1.236.786a.332.332 0 1 1-.356-.56l1.243-.79c-1.01-1.859-.55-3.3.296-4.25a.446.446 0 0 1 .672.585c-.783.923-.951 2.004-.317 3.25l4.147-2.638c-.66-2.113-.515-3.31.78-4.133 1.165-.742 2.768-.633 4.02 1.079l.879-.559a.332.332 0 0 1 .502.352zm-5.434 2.786l3.385-2.154c-.83-1.122-1.847-1.37-2.818-.752-.917.583-1.026 1.34-.567 2.906zm-.538 1.13l-4.016 2.554c1.07 1.573 2.3 1.663 3.288 1.034 1.003-.638 1.376-1.47.728-3.589z"/></g><g><path fill="#0e2549" d="M449.256 307.908a10.651 10.651 0 0 1-4.68 6.675 10.658 10.658 0 0 1-15.211-4.164c-2.028-3.24-2.796-6.447-2.218-9.326.528-2.624 2.194-4.944 4.692-6.533 2.754-1.752 5.4-2.346 7.865-1.764 2.707.64 5.221 2.714 7.485 6.164a10.65 10.65 0 0 1 2.067 8.949zm-20.99-1.266a10.645 10.645 0 0 1 16.223-10.085c-1.562-1.664-3.213-2.707-4.938-3.115-2.283-.54-4.758.025-7.356 1.678-2.378 1.513-3.898 3.624-4.397 6.104a10.37 10.37 0 0 0 .468 5.418zm20.302-2.75a9.856 9.856 0 0 0-7.569-7.917 9.939 9.939 0 0 0-2.159-.238 9.853 9.853 0 1 0 9.728 8.154z"/></g></g><g><g><path fill="#fff" d="M23.391 290.72a10.253 10.253 0 1 1-18.955 7.826 10.253 10.253 0 0 1 18.955-7.825z"/></g><g><path fill="#0e2549" d="M16.386 299.772l.56 1.354a.332.332 0 1 1-.614.253l-.562-1.362c-2.006.67-3.345-.033-4.134-1.031a.446.446 0 0 1 .693-.56c.773.932 1.808 1.285 3.146.878L13.6 294.76c-2.196.28-3.35-.07-3.935-1.487-.527-1.277-.14-2.838 1.764-3.773l-.398-.962a.332.332 0 1 1 .614-.253l.395.958c1.808-.642 3.116-.04 3.846.866a.447.447 0 0 1-.7.558c-.638-.763-1.544-1.122-2.842-.687l1.6 3.873c3.162-.463 4.064.518 4.571 1.747.607 1.47.087 3.175-2.129 4.17zm-3.124-5.83l-1.53-3.708c-1.251.622-1.672 1.58-1.233 2.644.415 1.005 1.14 1.243 2.763 1.065zm2.834 5.127c1.735-.78 2.039-1.975 1.591-3.058-.453-1.099-1.208-1.611-3.407-1.342z"/></g><g><path fill="#0e2549" d="M23.737 298.716a10.663 10.663 0 0 1-6.73 6.103 15.595 15.595 0 0 1-5.809 1.242c-1.287.011-2.565-.22-3.766-.682-2.492-.977-4.486-3.022-5.615-5.758-1.246-3.018-1.37-5.727-.367-8.052 1.1-2.554 3.581-4.668 7.372-6.296a10.65 10.65 0 0 1 14.93 5.294 10.662 10.662 0 0 1-.015 8.148zm-10.673 6.533a10.655 10.655 0 0 1-7.078-17.736c-1.91 1.248-3.225 2.692-3.927 4.32-.929 2.154-.804 4.69.371 7.535 1.075 2.605 2.889 4.47 5.244 5.393 1.722.638 3.582.806 5.39.488zm7.82-3.629a9.792 9.792 0 0 0 2.134-10.751 9.856 9.856 0 1 0-5.35 12.872 9.795 9.795 0 0 0 3.216-2.121z"/></g></g><g><g><path fill="#fff" d="M146.27 39.212a10.254 10.254 0 1 1-19.933 4.823 10.254 10.254 0 0 1 19.932-4.823z"/></g><g><path fill="#0e2549" d="M137.965 47.082l.345 1.423a.332.332 0 1 1-.645.157l-.347-1.433c-2.084.355-3.3-.546-3.926-1.653a.446.446 0 0 1 .771-.447c.62 1.04 1.59 1.548 2.974 1.35l-1.156-4.777c-2.212-.059-3.299-.582-3.66-2.073-.324-1.343.297-2.825 2.322-3.457l-.245-1.012a.332.332 0 1 1 .645-.156l.244 1.008c1.885-.357 3.085.439 3.667 1.446a.448.448 0 0 1-.778.443c-.513-.852-1.353-1.345-2.702-1.115l.986 4.073c3.196.028 3.936 1.136 4.249 2.428.374 1.547-.401 3.15-2.744 3.795zm-2.192-6.24l-.944-3.9c-1.33.423-1.894 1.305-1.623 2.424.256 1.057.936 1.404 2.567 1.476zm2.014 5.5c1.834-.503 2.317-1.638 2.041-2.776-.28-1.156-.947-1.778-3.16-1.85z"/></g><g><path fill="#0e2549" d="M146.662 39.125a10.65 10.65 0 0 1-7.847 12.857c-.324.078-.648.136-.974.184a17.309 17.309 0 0 1-3.963.494 11.019 11.019 0 0 1-5.616-1.402c-2.312-1.348-3.969-3.674-4.665-6.551-.768-3.174-.474-5.87.873-8.013 1.48-2.355 4.255-4.063 8.25-5.09a10.65 10.65 0 0 1 13.942 7.522zm-12.803 12.869a10.652 10.652 0 0 1-4.302-18.604c-2.07.939-3.585 2.161-4.525 3.657-1.249 1.986-1.514 4.51-.79 7.504.663 2.738 2.168 4.86 4.354 6.133a10.36 10.36 0 0 0 5.263 1.31zm12.195-8.838c.2-1.28.144-2.586-.164-3.844a9.857 9.857 0 1 0-1.166 7.453 9.793 9.793 0 0 0 1.33-3.61z"/></g></g></g></g></svg>