<svg xmlns="http://www.w3.org/2000/svg" width="28" height="28" viewBox="0 0 28 28"><g><g><path fill="#fff" d="M14.014.74c2.112 0 4.123.485 5.926 1.35.283.128.567.28.85.434l-1.237 1.094-1.854-1.909-3.195 2.801-1.88-2.012-5.875 5.221 3.761 4.101-1.469 1.273 3.712 4.1-1.469 1.273 5.307 5.833 3.142-2.853 2.731 3.057c-.541.408-1.133.816-1.776 1.173a13.586 13.586 0 0 1-6.648 1.73c-7.446 0-13.5-5.986-13.5-13.344C.514 6.752 6.568.74 14.014.74zM11.54 13.247l3.221-2.853 2.886 3.184-3.221 2.853zm2.294 5.501l3.195-2.877 2.91 3.183-3.22 2.853zM9.25 7.823l3.22-2.853 2.884 3.183-3.22 2.852zm5.898-1.529l2.396-2.139 2.165 2.368-2.396 2.165zm4.278 9.805l2.395-2.139 2.164 2.393-2.396 2.142zm2.112 4.814l2.396-2.14 2.163 2.37-2.395 2.163zm.98-11.003l1.596-1.426 1.443 1.58-1.598 1.425zm-2.062-4.711l1.598-1.451 1.444 1.604-1.6 1.426zm4.096 9.424l1.597-1.426 1.47 1.579-1.623 1.426zm-7.187-3.54l2.396-2.14 2.164 2.368-2.396 2.14z"/></g></g></svg>