<svg xmlns="http://www.w3.org/2000/svg" width="29" height="25" viewBox="0 0 29 25"><g><g><path fill="#fff" d="M10.72 16.084c0 .738.123 1.45.352 2.127a12.371 12.371 0 0 1-3.98-.464 1.1 1.1 0 0 0-.306-.045c-.2 0-.384.06-.555.16l-2.284 1.319a.407.407 0 0 1-.2.064.349.349 0 0 1-.348-.348c0-.087.032-.17.054-.254l.471-1.75a.693.693 0 0 0-.258-.79C1.466 14.511.06 12.155.06 9.542.06 4.747 4.733.86 10.495.86c5.208 0 9.523 3.171 10.31 7.319-.188-.01-.378-.016-.568-.016-5.256 0-9.516 3.544-9.516 7.92zm1.863-9.32a1.392 1.392 0 0 0 2.785 0 1.392 1.392 0 0 0-2.785 0zm-4.173 0a1.39 1.39 0 0 0-1.392-1.39 1.39 1.39 0 1 0 0 2.779c.767 0 1.392-.622 1.392-1.39zm17.273 15.25c0 .06.013.122.03.183.148.548.383 1.421.392 1.46.017.071.046.142.046.213a.29.29 0 0 1-.179.269.29.29 0 0 1-.111.02.324.324 0 0 1-.168-.054l-1.905-1.096a.856.856 0 0 0-.715-.093c-.886.255-1.847.396-2.84.396-4.804 0-8.697-3.239-8.697-7.235 0-3.996 3.896-7.234 8.698-7.234 4.805 0 8.698 3.238 8.698 7.234 0 2.182-1.17 4.141-3.004 5.47a.595.595 0 0 0-.245.466zM18.5 13.767c0-.638-.519-1.157-1.16-1.157-.641 0-1.16.519-1.16 1.157s.519 1.157 1.16 1.157a1.16 1.16 0 0 0 1.16-1.157zm5.456.817c.217-.216.34-.51.342-.817 0-.638-.52-1.157-1.16-1.157-.642 0-1.16.519-1.16 1.157a1.159 1.159 0 0 0 1.978.817z"/></g></g></svg>