<svg xmlns="http://www.w3.org/2000/svg" width="33" height="11" viewBox="0 0 33 11"><g><g><path fill="#fff" d="M23.7 1.038l.062-.014-.36 2.042-.238-.106a4.68 4.68 0 0 0-1.925-.364c-.992 0-1.466.42-1.466.811 0 .443.554.735 1.447 1.17 1.47.674 2.167 1.488 2.145 2.565-.02 1.953-1.785 3.224-4.484 3.224-1.148-.02-2.26-.24-2.877-.497l.36-2.113.315.147c.852.354 1.406.495 2.42.495.738 0 1.53-.285 1.537-.915.003-.414-.331-.706-1.332-1.17-.976-.45-2.266-1.21-2.25-2.558C17.067 1.919 18.859.64 21.398.64a6.593 6.593 0 0 1 2.302.398zm6.587-.227l2.078 9.423h-2.38s-.237-1.082-.315-1.414l-3.294-.003-.54 1.417h-2.698l3.814-8.64c.27-.613.735-.783 1.352-.783zM15.975.733l-1.609 9.427h-2.568L13.403.73v.003zm-9.1 5.196l.266 1.309L9.654.811h2.724l-4.047 9.41H5.613l-2.22-7.967a.538.538 0 0 0-.237-.316c-.8-.414-1.65-.727-2.526-.935L.665.805h4.14c.56.022 1.013.198 1.164.798l.904 4.33v-.005zm20.24.962v-.002h-.002v.002zm0-.002h2.136l-.595-2.72-.176-.813c-.13.354-.354.926-.341.898z"/></g></g></svg>