<svg xmlns="http://www.w3.org/2000/svg" width="36" height="14" viewBox="0 0 36 14"><g><g><g/><g><path fill="#fff" d="M5.88 3.854v2.088l-5.07.572V4.585zM4.284 6.437v6.805H2.428v-6.61zm4.237-2.964v9.769H6.565V3.755zm3.188-.46v2.27l-2.824.32V3.42zm-.97 4.05v2.282l-1.854.104V7.227zm.97 3.9v2.279H8.886V11.05zm9.869-9.377v11.656h-2.564V1.956zm4.215-.608v2.713l-3.737.422V1.517zM24.506 5.85v2.722l-2.45.137V6.065zm1.287 4.676v2.716h-3.737v-2.6zM14.685 2.584v10.658h-2.228V2.905zm3.65 8.174v2.484H15.1v-2.384zm16.86-7.114c-.169 1.997-1.113 3.597-3.741 6.232l-4.303.146s2.997-2.794 4.124-4.16c.73-.884 1.04-1.839.74-2.475-.19-.403-.616-.604-1.143-.574v-2.88c1.3-.19 2.488.132 3.298.917a3.464 3.464 0 0 1 1.026 2.794zm.152 9.598h-8.725v-2.743zm0-3.013v3.013l-8.726-2.743zm-8.726.27zm3.751-7.568c-.532.23-1.058.648-.935 2.413l-2.703.246C26.591 2.467 27.837.553 30.372 0z"/></g></g></g></svg>