<svg xmlns="http://www.w3.org/2000/svg" width="32" height="20" viewBox="0 0 32 20"><g><g><path fill="#ff5f00" d="M12.24 2.83h8.448v15.18H12.24z"/></g><g><path fill="#eb001b" d="M12.785 10.425a9.681 9.681 0 0 1 3.674-7.59A9.595 9.595 0 0 0 10.505.77 9.649 9.649 0 0 0 .85 10.425a9.649 9.649 0 0 0 9.655 9.655 9.595 9.595 0 0 0 5.954-2.065 9.64 9.64 0 0 1-3.674-7.59z"/></g><g><path fill="#f79e1b" d="M32.09 10.425a9.649 9.649 0 0 1-9.656 9.655 9.595 9.595 0 0 1-5.954-2.065 9.6 9.6 0 0 0 3.674-7.59 9.681 9.681 0 0 0-3.674-7.59A9.596 9.596 0 0 1 22.434.77c5.337 0 9.655 4.345 9.655 9.655z"/></g></g></svg>