<svg xmlns="http://www.w3.org/2000/svg" width="20" height="31" viewBox="0 0 20 31"><g><g><path fill="#fff" d="M10.124.692c2.015 0 2.648 1.446 3.18 2.89l5.617 15.385c.042.12.014.317-.17.388-.187.07-2.908 1.128-3.058 1.185a.291.291 0 0 1-.374-.177c-.057-.148-1.186-3.275-1.313-3.624H6.243c-.122.35-1.265 3.483-1.316 3.624-.052.144-.214.242-.375.177l-3.055-1.185a.307.307 0 0 1-.174-.388c.193-.537 5.351-14.65 5.614-15.386C7.449 2.16 8.104.692 10.124.692zm9.206 25.663c.167 0 .297.136.297.301v3.353c0 .165-.13.299-.297.299H.91a.295.295 0 0 1-.294-.3v-3.352c0-.165.13-.3.294-.3zm-9.225-20.98l-2.623 7.88h5.29l-2.633-7.88z"/></g></g></svg>