<svg xmlns="http://www.w3.org/2000/svg" width="19" height="24" viewBox="0 0 19 24"><g><g><path fill="#fff" d="M19.04 17.105c-.615 1.865-2.731 6.007-5.194 6.043-1.423 0-2.258-.906-3.87-.906-1.66 0-2.563.875-3.839.905-2.44.074-4.78-4.482-5.429-6.342-.485-1.413-.728-2.784-.728-4.112 0-4.494 3.002-6.703 5.827-6.747 1.37 0 3.109.998 3.87.998.72 0 2.686-1.188 4.483-1.047 1.898.145 3.337.895 4.289 2.258-1.702 1.034-2.544 2.435-2.533 4.295 0 .096-.177 3.098 3.125 4.655zM9.533 5.87c-.112-1.399.41-2.64 1.295-3.643.805-.935 2.217-1.696 3.439-1.767.04.537.166 2.032-1.216 3.673-.993 1.159-2.198 1.838-3.518 1.737z"/></g></g></svg>