<svg width="55" height="55" viewBox="0 0 55 55" fill="none" xmlns="http://www.w3.org/2000/svg">
<mask id="mask0" mask-type="alpha" maskUnits="userSpaceOnUse" x="0" y="0" width="55" height="56">
<circle cx="27.5" cy="28.3462" r="27.5" fill="#0054A4"/>
</mask>
<g mask="url(#mask0)">
<path d="M5.07692 50.4536H49.7599V5.07692H5.07692V50.4536Z" fill="#0055A5"/>
<path d="M95.9723 5.08436H52.6317V50.461H97.3077V5.08436H95.9723Z" fill="#0055A5"/>
<path d="M9.16818 29.9448V39.4056H10.7039V36.6587C11.0041 36.9235 11.3348 37.0825 11.6889 37.0825C12.1964 37.0825 12.6136 36.8112 12.941 36.2687C13.3086 35.6648 13.4918 34.7734 13.4918 33.6069C13.4918 32.7931 13.3449 32.0607 13.058 31.4368L13.0078 31.3347L12.9576 31.2501L12.9239 31.1655L12.8737 31.0977L12.8235 31.013L12.7568 30.9284L12.7065 30.8606L12.6563 30.7928L12.5896 30.7249L12.5393 30.6571L12.4726 30.5893L12.4058 30.5383L12.339 30.4705L12.2723 30.4195L12.2055 30.3685L12.1387 30.3175L12.0554 30.2839L11.9886 30.2329L11.9218 30.1992L11.8385 30.1656L11.7552 30.1314L11.6718 30.0972L11.5885 30.0636L11.5052 30.0468L11.4219 30.0299L11.3385 30.0131L11.2386 29.9795H11.1553L11.0554 29.9627H10.9721L10.8717 29.9458H10.7718H9.16818V29.9448ZM10.6206 31.2843H10.7707C11.158 31.2843 11.4587 31.5116 11.6718 31.9457C11.8855 32.3797 11.9891 33.0508 11.9891 33.9802C11.9891 34.4821 11.9288 34.8787 11.7888 35.1499C11.6553 35.4212 11.4817 35.5568 11.2883 35.5568C11.1014 35.5568 10.9475 35.4283 10.8209 35.1836C10.6943 34.9465 10.6206 34.6041 10.6206 34.1495V31.2843Z" fill="white"/>
<path d="M45.3001 29.4847L45.1735 29.6133C45.1735 29.6133 41.9621 33.0177 41.7217 33.2754V29.9388H40.2196V39.4197H41.7217V35.527C41.7618 35.4798 43.6912 33.404 43.9118 33.1669C43.9252 33.5125 44.1319 39.4197 44.1319 39.4197H45.6676L45.3001 29.4847Z" fill="white"/>
<path d="M37.975 29.6138L37.9681 29.6274L37.9547 29.6339L37.9414 29.6545L37.9211 29.6745L37.8944 29.7017L37.8677 29.7288L37.834 29.763L37.8009 29.7972L37.7608 29.8379L37.7208 29.8856L37.6738 29.9328L37.6273 29.98L37.5803 30.0343L37.5269 30.0885L37.467 30.1493L37.3468 30.2784L37.2202 30.4141L37.0867 30.5567L36.9467 30.7059L36.7999 30.8617L36.646 31.0174L36.4927 31.1801L36.3389 31.3499L36.0253 31.682L35.872 31.8447L35.7187 32.001L35.5718 32.1567L35.4318 32.313L35.2919 32.4556L35.1648 32.5913L35.0446 32.7199L34.9847 32.7806L34.9313 32.8419L34.8779 32.8962L34.8309 32.9504L34.7844 32.9982L34.7444 33.0459L34.7043 33.0866L34.6642 33.1273L34.6311 33.1615L34.6044 33.1886L34.5777 33.2157L34.5574 33.2429L34.5371 33.2564L34.5237 33.277V29.9404H33.0142V39.4214H34.5232V35.5286C34.5633 35.4814 36.4932 33.4056 36.7133 33.1685C36.7267 33.5141 36.9339 39.4214 36.9339 39.4214H38.4627L38.0952 29.4847L37.975 29.6138Z" fill="white"/>
<path d="M29.2413 37.0667L29.1478 36.9517L29.0677 36.8367L28.9876 36.7076L28.9208 36.579L28.854 36.4433L28.7937 36.3077L28.7333 36.1656L28.6868 36.0229L28.6468 35.8671L28.6067 35.718L28.5731 35.5552L28.5463 35.3924L28.5261 35.2226L28.5127 35.0528L28.5058 34.8765L28.4988 34.7001C28.4988 33.7035 28.7392 32.9097 29.2066 32.3265C29.721 31.689 30.4688 31.3706 31.4437 31.3706H31.5169V29.7158H31.4437C29.9213 29.7158 28.7525 30.1905 27.9582 31.1465C27.2371 32.008 26.8701 33.2082 26.8701 34.7137C26.8701 36.165 27.2707 37.3651 28.0517 38.2674C28.8797 39.2168 30.0217 39.7051 31.464 39.7051H31.5372V38.0438H31.464C30.5169 38.0433 29.7691 37.7178 29.2413 37.0667Z" fill="white"/>
<path d="M17.1642 29.7077C16.3565 29.7077 15.7118 30.1721 15.2444 31.0808C14.7903 31.976 14.5601 33.1664 14.5601 34.6242C14.5601 36.1298 14.777 37.3472 15.2113 38.2354C15.652 39.1441 16.3095 39.6085 17.1642 39.6085C18.0392 39.6085 18.7299 39.117 19.2176 38.1676C19.6716 37.2789 19.9018 36.0787 19.9018 34.6068C19.9018 33.1555 19.6679 31.9684 19.2005 31.0803L19.1503 30.9956L19.1001 30.911L19.0664 30.8264L18.9996 30.7586L18.966 30.6908L18.8992 30.6229L18.849 30.5551L18.7988 30.4873L18.7486 30.4195L18.6818 30.3517L18.6316 30.3007L18.5648 30.2497L18.5146 30.1987L18.4478 30.1477L18.3976 30.0967L18.3308 30.0457L18.2641 30.0115L18.1973 29.9778L18.1305 29.9442L18.0638 29.9106L17.997 29.8764L17.9302 29.8422L17.8634 29.8254L17.7801 29.7912L17.7133 29.7744L17.63 29.7576L17.5632 29.7408H17.4965L17.4131 29.7239L17.3298 29.7071H17.2465H17.1642V29.7077ZM17.1642 31.2333C17.5915 31.2333 17.9056 31.542 18.099 32.1659C18.286 32.7286 18.3661 33.5494 18.3661 34.6074C18.3661 35.6312 18.2726 36.4824 18.0659 37.1335L18.0322 37.2013L18.0157 37.2523L17.9991 37.3033L17.9826 37.3543L17.966 37.4053L17.9329 37.4563L17.9163 37.5073L17.8827 37.5414L17.8661 37.5925L17.8325 37.6266L17.8159 37.6776L17.7993 37.7118L17.7662 37.7454L17.7326 37.7791L17.716 37.8127L17.6829 37.8295L17.6663 37.8632L17.6327 37.8968L17.5996 37.9136L17.5659 37.9473L17.5323 37.9641L17.4986 37.9809L17.482 37.9977L17.4484 38.0145H17.4147L17.3811 38.0314L17.348 38.0482H17.3143L17.2807 38.065H17.247H17.2134H17.1631C16.7962 38.065 16.5189 37.7465 16.3117 37.1155C16.098 36.4574 15.9944 35.6132 15.9944 34.6231C15.9944 33.6129 16.098 32.7785 16.3117 32.148C16.5066 31.5453 16.7903 31.2333 17.1642 31.2333Z" fill="white"/>
<path d="M23.4525 37.0667L23.4124 37.0125L23.3654 36.9517L23.2783 36.8367L23.2052 36.7076L23.1315 36.579L23.0647 36.4433L23.0049 36.3077L22.9514 36.1656L22.898 36.0229L22.858 35.8671L22.8179 35.718L22.7912 35.5552L22.7645 35.3924L22.7447 35.2226L22.7314 35.0528L22.718 34.8765V34.7001C22.718 33.7035 22.9514 32.9097 23.4258 32.3265C23.9332 31.689 24.6811 31.3706 25.6559 31.3706H25.7361V29.7158H25.6559C24.14 29.7158 22.9648 30.1905 22.1774 31.1465C21.4493 32.008 21.0893 33.2082 21.0893 34.7137C21.0893 36.165 21.483 37.3651 22.2709 38.2674C23.0919 39.2168 24.2404 39.7051 25.6832 39.7051H25.7564V38.0438H25.6832C24.7276 38.0433 23.9797 37.7178 23.4525 37.0667Z" fill="white"/>
<path d="M9.18315 16.0367V25.5648H10.9128V17.6166H13.0495V25.5648H14.7722V16.0367H9.18315Z" fill="white"/>
<path d="M20.0685 15.7876C19.1535 15.7876 18.419 16.2553 17.8987 17.1782C17.3843 18.0804 17.1306 19.274 17.1306 20.7384C17.1306 22.2504 17.3709 23.4885 17.865 24.3837C18.3656 25.2995 19.107 25.7569 20.0685 25.7569C21.0498 25.7569 21.8243 25.2789 22.3719 24.3159C22.8863 23.4207 23.1566 22.2103 23.1566 20.7384C23.1566 19.2735 22.8761 18.0728 22.3553 17.1782L22.3051 17.0935L22.2549 17.0089L22.2047 16.9243L22.1379 16.8564L22.0877 16.7718L22.0209 16.704L21.9707 16.6362L21.9039 16.5683L21.8371 16.5005L21.7869 16.4495L21.7202 16.3817L21.6534 16.3307L21.5866 16.2797L21.5198 16.2287L21.4365 16.1777L21.3697 16.1435L21.303 16.0925L21.2362 16.0584L21.1529 16.0242L21.0861 15.9905L21.0028 15.9564L20.9194 15.9222L20.8527 15.9054L20.7693 15.8712L20.686 15.8544L20.6027 15.8376L20.5193 15.8207L20.436 15.8039H20.3356H20.2523L20.1689 15.7871H20.0685V15.7876ZM20.0856 17.3985C20.553 17.3985 20.8836 17.7039 21.1037 18.3143C21.304 18.8704 21.4039 19.6809 21.4039 20.7389C21.4039 21.7491 21.287 22.5938 21.0535 23.2313C20.8265 23.8552 20.5129 24.1466 20.0856 24.1466H20.0354H20.0017H19.9681H19.935L19.9013 24.1298L19.8677 24.113H19.834L19.8003 24.0961L19.7672 24.0793L19.7336 24.0625L19.6999 24.0457L19.6663 24.0289L19.6326 23.9947L19.5995 23.9778L19.5658 23.9442L19.5322 23.9274L19.5156 23.8932L19.482 23.8596L19.4483 23.8254L19.4318 23.7912L19.3981 23.757L19.3645 23.706L19.3479 23.6719L19.3143 23.6377L19.2977 23.5867L19.2646 23.5357L19.248 23.5015L19.2315 23.4337L19.1978 23.3827L19.1812 23.3317L19.1647 23.2807L19.131 23.2297C18.8976 22.5716 18.7806 21.7377 18.7806 20.7541C18.7806 19.7439 18.8976 18.9197 19.131 18.2958C19.3543 17.6936 19.6647 17.3985 20.0856 17.3985Z" fill="white"/>
<path d="M32.5601 16.0367V17.6166H33.9954V25.5648H35.7251V17.6166H37.1807V16.0367H32.5601Z" fill="white"/>
<path d="M28.7739 19.3527H27.8327C27.4454 19.3527 27.1516 19.2648 26.9711 19.0885C26.8375 18.9664 26.7772 18.7966 26.7772 18.5796V16.0361H25.0481V18.7559C25.0481 19.3798 25.2949 19.9153 25.7756 20.3358C26.2494 20.7497 26.8375 20.9597 27.5117 20.9597H28.7734V25.5642H30.503V16.0361H28.7734V19.3527H28.7739Z" fill="white"/>
<path d="M39.4323 16.0421L39.115 25.5708H40.8345C40.8345 25.5708 40.9947 21.1187 41.0011 20.9082H43.1544C43.1747 21.1051 43.6549 25.5708 43.6549 25.5708H45.3909L44.5897 18.6023V18.5177V18.4331V18.3484L44.5731 18.2638V18.1791L44.5566 18.1113V18.0267L44.54 17.9589L44.5235 17.8742L44.5069 17.8064L44.4903 17.7386L44.4738 17.6708L44.4572 17.603L44.4236 17.5351L44.407 17.4673L44.3904 17.3995L44.3568 17.3317L44.3231 17.2807L44.2895 17.2129L44.2729 17.1619L44.2393 17.0941L44.2056 17.0431L44.1554 16.9921L44.1218 16.9243L44.0881 16.8901L44.0379 16.8223L44.0042 16.7881L43.954 16.7371L43.9038 16.6861L43.8536 16.6519L43.8199 16.6009L43.7532 16.5499C43.3194 16.2038 42.7313 16.041 41.984 16.041H39.4323V16.0421ZM41.085 17.6187H41.7025C42.1496 17.6187 42.4503 17.7646 42.6373 18.0424C42.7911 18.273 42.8942 18.7135 42.9546 19.331H41.0348V19.3142V19.2973V19.2805V19.2637V19.2469V19.2301V19.2132V19.1622V19.1112V19.0603L41.0513 19.0093V18.9414V18.8904V18.8226V18.7548V18.687V18.6192V18.4667V18.3311L41.0679 18.2633V18.1954V18.1276V18.0598V17.992V17.941V17.8732V17.8222V17.7711L41.0845 17.737V17.7202V17.7033V17.6865V17.6697V17.6529V17.6361V17.6187H41.085Z" fill="white"/>
</g>
</svg>
