<svg width="44" height="9" viewBox="0 0 44 9" fill="none" xmlns="http://www.w3.org/2000/svg">
<g clip-path="url(#clip0)">
<path d="M0.923077 4.44036C0.923077 6.58514 2.60973 8.18841 4.83774 8.18841C5.62963 8.18841 6.31554 8.01705 6.91012 7.59562V6.19535C6.32887 6.57041 5.55474 6.813 4.8248 6.813C3.41253 6.813 2.35818 5.82426 2.35818 4.44036C2.35818 3.05638 3.41253 2.06779 4.8248 2.06779C5.55474 2.06779 6.32887 2.31038 6.91012 2.68544V1.2851C6.31554 0.863746 5.62963 0.692307 4.83774 0.692307C2.60973 0.692307 0.923077 2.29565 0.923077 4.44036ZM34.5015 2.52312C32.9065 2.52312 31.613 3.7945 31.613 5.35577C31.613 6.91703 32.9066 8.18841 34.5015 8.18841C36.0961 8.18841 37.3898 6.91711 37.3898 5.35577C37.3898 3.79442 36.096 2.52312 34.5015 2.52312ZM34.5015 7.02862C33.5758 7.02862 32.8398 6.28146 32.8398 5.35577C32.8398 4.43023 33.5758 3.68299 34.5015 3.68299C35.427 3.68299 36.163 4.43023 36.163 5.35577C36.163 6.28146 35.4269 7.02862 34.5015 7.02862ZM41.9865 2.63471L39.5886 6.15896V2.63471H38.3811V8.07697H39.6078L42.004 4.56387V8.07697H43.2308V2.63471H41.9865ZM12.4164 5.2109C12.7176 5.03237 13.0075 4.61975 13.0075 4.16255C13.0075 3.28158 12.3384 2.63471 11.424 2.63471H8.36167V8.07682H11.5465C12.461 8.07682 13.1525 7.41888 13.1525 6.51571C13.1525 5.90234 12.7845 5.41164 12.4164 5.2109ZM9.5884 3.70535H11.2344C11.5465 3.70535 11.7807 3.9283 11.7807 4.22941C11.7807 4.53052 11.5465 4.7537 11.2344 4.7537H9.5884V3.70535ZM11.3124 7.00641H9.5884V5.82426H11.3124C11.6693 5.82426 11.9257 6.08056 11.9257 6.41526C11.9257 6.7498 11.6693 7.00641 11.3124 7.00641ZM16.1378 2.63479C15.0561 2.63479 14.2419 3.44882 14.2419 4.50831C14.2419 5.36808 14.7902 6.06942 15.5841 6.29408L14.0971 8.07697H15.6807L17.1038 6.37069H17.7843V8.07697H19.011V2.63479H16.1378ZM16.3051 3.70535H17.7843V5.30013H16.3051C15.8145 5.30013 15.4688 4.93208 15.4688 4.50839C15.4687 4.06226 15.8145 3.70535 16.3051 3.70535ZM26.9987 2.63471H25.7719V8.07697H26.9987V5.86884H29.3949V8.07697H30.6217V2.63471H29.3949V4.79828H26.9987V2.63471ZM20.2235 7.75981V6.55592C20.7023 6.80676 21.2878 7.02862 21.9571 7.02862C22.7707 7.02862 23.2841 6.78572 23.2841 6.35378C23.2841 5.96827 22.8355 5.82044 22.2645 5.82044H21.3284V4.74988H22.2645C22.846 4.74988 23.1718 4.53636 23.1718 4.24414C23.1718 3.81554 22.6578 3.68306 22.0636 3.68306C21.3768 3.68306 20.8193 3.88209 20.3641 4.10371V2.93668C20.8363 2.70415 21.4619 2.52312 22.2407 2.52312C23.4283 2.52312 24.3934 3.1548 24.3934 4.02571C24.3934 4.6605 24.0215 5.05107 23.7227 5.18269C24.1059 5.36348 24.5391 5.81405 24.5391 6.46529C24.5391 7.48629 23.5588 8.18833 22.124 8.18833C21.3008 8.18841 20.6984 8.01035 20.2235 7.75981Z" fill="white"/>
<path d="M40.7044 2.34038C41.6471 2.34038 42.3662 1.75733 42.444 0.902003L41.4613 0.779346C41.4613 1.14911 41.126 1.433 40.7044 1.433C40.283 1.433 39.9475 1.14911 39.9475 0.779346L38.9648 0.902003C39.0427 1.75733 39.7618 2.34038 40.7044 2.34038Z" fill="#E41D94"/>
</g>
<defs>
<clipPath id="clip0">
<rect x="0.923077" y="0.692307" width="42.3077" height="7.4961" fill="white"/>
</clipPath>
</defs>
</svg>
