<svg xmlns="http://www.w3.org/2000/svg" width="28" height="28" viewBox="0 0 28 28"><g><g><path fill="#fff" d="M11.483 11.704a1.693 1.693 0 1 1 0-3.387 1.693 1.693 0 0 1 0 3.387zM14.08.54C6.599.54.54 6.6.54 14.079c0 6.49 4.567 11.912 10.66 13.232v-12.15a1.106 1.106 0 0 1 1.063-1.08v-.002h1.71c.08 0 .144-.062.149-.14V.541zm9.33 20.925a1.693 1.693 0 1 1 0-3.382 1.693 1.693 0 0 1 0 3.382zm-3.967 0a1.693 1.693 0 1 1 .002-3.386 1.693 1.693 0 0 1-.002 3.386zm-3.97 0a1.694 1.694 0 0 1-1.693-1.694 1.694 1.694 0 0 1 3.387 0c0 .936-.758 1.694-1.693 1.694zM15.75 14.61l-.003.003a1.103 1.103 0 0 1-1.103 1.092h-1.667a.15.15 0 0 0-.15.15V27.56c.413.038.829.059 1.252.059 7.478 0 13.539-6.063 13.539-13.541 0-6.91-5.178-12.613-11.867-13.437z"/></g></g></svg>