<svg xmlns="http://www.w3.org/2000/svg" width="28" height="26" viewBox="0 0 28 26"><g><g><path fill="#fff" d="M27.614 11.39c.004 3.948.004 7.884-.003 11.826 0 .744.038 1.49-.692 2.076-.563.465-1.255.62-2.006.62-3.46.009-6.909.004-10.37.004-3.471 0-6.953.005-10.423-.005-1.74 0-3-.788-3.486-2.163a1.927 1.927 0 0 1-.085-.6c-.004-4.042.007-8.082-.009-12.13-.007-1.426.802-2.428 2.255-3.12C7.73 5.55 12.66 3.202 17.59.848c.807-.384 1.624-.65 2.553-.316.807.293 1.159.858 1.159 1.536.018 4.284.058 8.563-.021 12.843-.026 1.32-.873 2.367-2.443 2.897-3.479 1.166-6.97 2.311-10.454 3.47-.87.288-1.745.568-2.606.875-.28.096-.552.235-.765.408-.162.143-.368.423-.303.537.101.174.425.352.66.352a7.4 7.4 0 0 0 1.62-.169c4.698-1.02 9.385-2.066 14.077-3.096 1.511-.336 2.768-1.659 2.775-2.947.01-2.456.02-4.917-.011-7.38-.005-.503.162-.714.795-.648.321.035.65.002.98.007 1.073.012 1.814.54 1.967 1.42.042.248.047.506.04.752zM14.48 11.13c1.321.005 2.658-1.238 2.492-2.308-.11-.695-.781-1.171-1.55-1.072-1.165.145-1.927.713-2.277 1.62-.382.988.233 1.76 1.335 1.76z"/></g></g></svg>