<svg xmlns="http://www.w3.org/2000/svg" width="38" height="11" viewBox="0 0 38 11"><defs><linearGradient id="nu6ia" x1="37.54" x2="26.75" y1="13.14" y2="13.14" gradientUnits="userSpaceOnUse"><stop offset="0" stop-color="#fff"/><stop offset="1" stop-color="#fff"/></linearGradient></defs><g><g><g/><g><path fill="#fff" d="M8.453 1.333A1.893 1.893 0 0 1 10.276 0h3.316v10.154h-3.32V4.153h-.236l-1.897 6H5.766l-1.9-6h-.237v6H.31V0h3.315c.848 0 1.59.543 1.827 1.333l1.383 4.664h.236zm18.38 3.49h10.532c-.579 1.36-2.075 2.328-3.833 2.328h-3.36v3.003h-3.34zm-5.918-3.752C21.225.42 21.898 0 22.64 0h2.818v10.154h-3.32V4.157h-.236l-2.336 4.926c-.31.65-.983 1.07-1.725 1.07h-2.818V0h3.32v6.001h.236z"/></g><g><path fill="url(#nu6ia)" d="M33.865 0c.958 0 1.827.357 2.484.944a3.503 3.503 0 0 1 1.194 2.63c0 .214-.024.424-.06.63h-6.166c-2.088 0-3.858-1.332-4.454-3.173-.008-.02-.012-.043-.02-.067-.016-.056-.028-.115-.045-.17A4.599 4.599 0 0 1 26.68 0z"/></g></g></g></svg>