<svg xmlns="http://www.w3.org/2000/svg" width="32" height="14" viewBox="0 0 32 14"><g><g><g><g><path fill="#fff" d="M.85 13.624h30.462V.15H.85z"/></g></g><g clip-path="url(#clip-18:27)"><path fill="#0a2973" d="M7.812 6.49c.508.187.994.513 1.249.723.786.653 1.133 1.515 1.133 2.634 0 1.842-.971 3.17-2.567 3.59-.486.14-.995.187-1.943.187H.85V.15h4.279c.879 0 1.48.046 2.012.186 1.55.42 2.567 1.492 2.567 3.194 0 .91-.323 1.679-.855 2.191a3.243 3.243 0 0 1-1.041.723zm-4.28 1.376v3.543h1.851c.555 0 1.064-.046 1.435-.396.37-.35.531-.793.531-1.375 0-.443-.116-.863-.347-1.166-.393-.49-.879-.606-1.711-.606zM3.51 5.535h1.503c.463 0 .694 0 .925-.07.625-.187 1.018-.746 1.018-1.515 0-.91-.416-1.306-1.018-1.492-.254-.07-.508-.094-1.018-.094H3.51zm10.709 8.09V2.41h-3.863V.15h10.732l-.763 2.26h-3.424v11.214zm7.702 0V.15h8.697l-.763 2.26H24.58v2.985h2.151c1.735 0 2.637.42 3.261.956.486.42 1.319 1.352 1.319 3.194 0 1.818-.856 2.82-1.573 3.333-.833.583-1.711.746-3.493.746zm2.66-2.262h2.012c.763 0 1.226-.187 1.55-.606.162-.21.393-.583.393-1.283 0-.699-.231-1.188-.694-1.538-.277-.21-.648-.326-1.272-.326h-1.99z"/></g></g></g></svg>