<svg xmlns="http://www.w3.org/2000/svg" width="27" height="28" viewBox="0 0 27 28"><g><g><path fill="#fff" d="M24.064 12.582a12.114 12.114 0 0 1-1.698 6.178c-.035.053-.123.037-.14-.033-.42-2.958-2.223-4.586-4.848-5.076-.228-.036-.263-.176.035-.211.804-.07 1.943-.053 2.538.052a7.97 7.97 0 0 0-7.912-8.89 7.97 7.97 0 0 0-7.965 7.961 7.972 7.972 0 0 0 7.965 7.965h.368a10.755 10.755 0 0 1-.158-2.152c.017-.491.123-.56.333-.176 1.103 1.908 2.678 3.623 5.758 4.306 2.52.56 5.041 1.207 7.755 4.655.244.298-.123.613-.403.368-2.765-2.45-5.286-3.256-7.58-3.256-2.572.02-4.322.35-6.09.35-6.65 0-12.042-5.39-12.042-12.042C-.02 5.931 5.372.54 12.021.54c6.652 0 12.043 5.39 12.043 12.043zm-3.256 5.005c.456.176.632.858.665 1.155.07.543-.086.753-.261.753-.176 0-.422-.21-.684-.63-.262-.42-.368-.892-.228-1.138a.352.352 0 0 1 .345-.177c.049.011.11.014.163.037zm-1.785 2.346c.544.454.7.98.42 1.366a.922.922 0 0 1-.717.314c-.298 0-.614-.105-.823-.297-.491-.42-.631-1.121-.316-1.506.123-.158.316-.244.56-.244.281 0 .596.122.876.367z"/></g></g></svg>