<svg xmlns="http://www.w3.org/2000/svg" width="40" height="10" viewBox="0 0 40 10"><g><g><path fill="#fff" d="M9.138 9.748s.037.06-.037.06H5.774c-.062 0-.074-.06-.074-.06L4.37 6.583c-1.184.815-.53 2.11-.296 2.35.098.156-.53 1.14-1.664 1.14-1.072 0-1.848-.852-1.787-1.907C.697 6.93 2.065 5.672 3.815 5.18L1.819 1.307s-.025-.084.074-.084H5.01c.062 0 .086.072.086.072l1.282 3.178c1.269-.72.542-2.375.283-2.614-.086-.084.259-.828 1.393-.924 1.232-.108 2.008.72 1.984 1.787-.025 1.259-1.27 2.53-3.057 3.046zm7.245-2.446c-.234 1.907.654 1.5.493 1.823-.172.384-.9.851-1.59.851-.85 0-1.453-.515-1.502-1.367-.518.78-1.257 1.355-2.12 1.355-1.553 0-2.206-1.81-1.996-3.417.21-1.643 1.27-3.106 2.883-3.106.85 0 1.393.468 1.688 1.14.062-.504.111-.828.111-.828 0-.06.074-.072.074-.072h2.465s.037.012.037.06c0 0-.432 2.734-.543 3.561zM12.921 8.31c.604 0 1.023-.72 1.134-1.62.11-.898-.124-1.63-.727-1.63-.604 0-1.01.732-1.122 1.63-.11.9.111 1.62.715 1.62zm11.915-4.473c-.036.275-.751 5.911-.751 5.911 0 .06-.05.06-.05.06h-2.378s-.049 0-.049-.06c0 0 .394-3.081.616-4.856h-.998a15.126 15.126 0 0 1-.443 3.117c-.37 1.44-1.06 2.063-2.058 2.063-1.146 0-1.454-1.067-1.417-1.32.024-.227.788-.31 1.49-2.038.37-.935.604-2.865.604-2.865 0-.048.037-.06.05-.06 1.7-.36 3.437-.384 5.36 0h-.013c.013 0 .037.012.037.048zm3.241 1.33c1.405-.467 3.389-.107 3.524 1.595.148 1.943-1.43 3.262-3.339 3.262-1.86 0-2.871-1.367-2.871-3.022 0-2.614 1.59-6.079 4.473-6.15 2.489-.073 3.302 3.536-1.725 4.076zm1.343-2.745c-.53 0-.887 1.175-1.01 1.595 0 0 1.22-.54 1.318-1.271.013-.156 0-.324-.308-.324zm-.049 4.916c.037-.648-.16-1.067-.776-1.175-.32-.048-.715.072-.715.072-.099.527-.37 2.434.53 2.434.64 0 .949-.983.961-1.331zm9.599-.036c-.234 1.907.653 1.499.493 1.823-.173.383-.9.85-1.59.85-.85 0-1.454-.515-1.503-1.366-.518.78-1.257 1.355-2.12 1.355-1.552 0-2.205-1.81-1.996-3.417.21-1.643 1.27-3.106 2.884-3.106.85 0 1.392.468 1.688 1.14.061-.504.11-.828.11-.828 0-.06.075-.072.075-.072h2.464s.037.012.037.06c0 0-.431 2.734-.542 3.561zm-3.463 1.007c.604 0 1.023-.72 1.134-1.619.111-.899-.123-1.63-.727-1.63s-1.01.731-1.121 1.63c-.111.9.11 1.62.714 1.62z"/></g></g></svg>