<svg xmlns="http://www.w3.org/2000/svg" width="28" height="27" viewBox="0 0 28 27"><g><g><g><path fill="#fff" d="M25.411 5.442a21.925 21.925 0 0 1-.844-1.212L8.792 13.292 1.177 8.926a5.295 5.295 0 0 0-.317 1.466l8.005 4.635z"/></g><g><path fill="#fff" d="M8.795 16.708L.616 12.013c-.06.289-.085.584-.073.879a13.537 13.537 0 0 0 27.074 0A13.287 13.287 0 0 0 26.15 6.73z"/></g><g><path fill="#fff" d="M23.464 3.098c-.386-.364-.79-.707-1.212-1.028L8.79 9.885 2.298 6.179c-.219.403-.441.844-.698 1.32l7.117 4.108z"/></g><g><path fill="#fff" d="M20.935 1.186c-.51-.305-1.04-.574-1.586-.806L8.792 6.46 4.062 3.79c-.317.318-.635.734-.952 1.137l5.648 3.23z"/></g></g></g></svg>