<svg xmlns="http://www.w3.org/2000/svg" width="17" height="28" viewBox="0 0 17 28"><g><g><path fill="#00b9ee" d="M14.542 9.734a8.397 8.397 0 0 0 2.403-5.898V2.219a1.838 1.838 0 0 0-3.677 0v1.617a4.717 4.717 0 0 1-1.35 3.32 4.483 4.483 0 0 1-6.432 0 4.718 4.718 0 0 1-1.349-3.32V2.219a1.839 1.839 0 0 0-3.677 0v1.617a8.402 8.402 0 0 0 2.403 5.898 8.2 8.2 0 0 0 4 2.25v3.87a8.197 8.197 0 0 0-4 2.25 8.4 8.4 0 0 0-2.403 5.9v1.616a1.839 1.839 0 0 0 3.677 0v-1.617a4.717 4.717 0 0 1 1.349-3.321 4.483 4.483 0 0 1 6.432 0 4.717 4.717 0 0 1 1.35 3.321v1.617a1.838 1.838 0 0 0 3.676 0v-1.617a8.394 8.394 0 0 0-2.402-5.898 8.196 8.196 0 0 0-4-2.251v-3.87a8.2 8.2 0 0 0 4-2.25"/></g></g></svg>