<svg xmlns="http://www.w3.org/2000/svg" width="30" height="22" viewBox="0 0 30 22"><g><g><g/><g><g><g><path fill="#bd3d44" d="M0 0h41.8v1.693H0zm0 3.386h41.8v1.693H0zm0 3.382h41.8v1.697H0zm0 3.385h41.8v1.693H0zm0 3.386h41.8v1.693H0zm0 3.382h41.8v1.693H0zm0 3.386h41.8V22H0z"/></g><g><path fill="#fff" d="M0 3.383h41.8V1.69H0zm0 3.382h41.8v-1.69H0zm0 3.386h41.8V8.458H0zm0 3.386h41.8v-1.694H0zm0 3.385h41.8V15.23H0zm0 3.382h41.8v-1.693H0z"/></g></g><g><path fill="#192f5d" d="M0 0h16.72v11.847H0z"/></g><g><path fill="#fff" d="M1.395.51l.154.468h.49l-.395.288.15.473-.4-.292L1 1.735l.15-.469L.75.978h.498zm2.788 0l.15.468h.495l-.4.288.15.473-.395-.292-.4.288.151-.469-.395-.288h.49zm2.785 0l.154.468h.486l-.395.288.15.473-.4-.292-.395.288.15-.469-.4-.288h.495zm2.788 0l.15.468h.495l-.4.288.155.473-.4-.292-.4.288.155-.469-.4-.288h.49zm2.785 0l.154.468h.49l-.395.288.15.473-.4-.292-.395.288.15-.469L11.9.978h.49zm2.788 0l.15.468h.495l-.4.288.155.473-.4-.292-.4.288.155-.469-.4-.288h.495zM2.791 1.696l.15.468h.495l-.4.288.146.469-.387-.288-.4.288.142-.469-.386-.288h.49zm2.784 0l.155.468h.49l-.4.288.155.469-.4-.288-.4.288.155-.469-.4-.288h.495zm2.79 0l.15.468h.494l-.4.288.15.469-.395-.288-.4.288.15-.469-.394-.288h.49zm2.783 0l.155.468h.49l-.4.288.155.469-.4-.288-.395.288.15-.469-.4-.288h.5zm2.79 0l.15.468h.494l-.4.288.15.469-.395-.288-.4.288.15-.469-.394-.288h.49zM1.394 2.878l.154.477h.49l-.395.287.15.469-.4-.292L1 4.11l.15-.473L.75 3.35h.498zm2.788 0l.15.472h.495l-.4.288.15.468-.395-.292-.4.292.151-.472-.395-.288h.49zm2.785 0l.154.472h.486l-.395.288.15.468-.4-.292-.395.292.15-.472-.4-.288h.495zm2.788 0l.15.472h.495l-.4.288.155.468-.4-.292-.4.292.155-.472-.4-.288h.49zm2.785 0l.154.472h.49l-.395.288.15.468-.4-.292-.395.292.15-.472-.395-.288h.49zm2.788 0l.15.472h.495l-.4.288.155.468-.4-.292-.4.292.155-.472-.4-.288h.495zM2.791 4.064l.15.468h.495l-.4.288.15.472L2.791 5l-.4.288.15-.468-.395-.288h.49zm2.784 0l.155.468h.49l-.4.288.155.472-.4-.292-.4.288.155-.468-.4-.288h.495zm2.79 0l.15.468h.494l-.4.288.15.472L8.364 5l-.4.288.15-.468-.394-.288h.49zm2.783 0l.155.468h.49l-.395.288.15.472-.4-.292-.395.288.15-.468-.4-.288h.5zm2.79 0l.15.468h.494l-.4.288.15.472L13.937 5l-.4.288.15-.468-.394-.288h.49zM1.394 5.249l.154.469h.49l-.395.288.15.472-.4-.292L1 6.474l.15-.468-.399-.288h.498zm2.788 0l.15.469h.495l-.4.288.15.468-.395-.288-.4.288.151-.468-.395-.288h.49zm2.785 0l.154.469h.486l-.395.288.15.472-.4-.292-.395.288.15-.468-.4-.288h.495zm2.788 0l.15.469h.495l-.4.288.155.472-.4-.292-.4.288.155-.468-.4-.288h.49zm2.785 0l.154.469h.49l-.395.288.15.472-.4-.292-.395.288.15-.468-.395-.288h.49zm2.788 0l.15.469h.495l-.4.288.155.472-.4-.292-.4.288.155-.468-.4-.288h.495zM2.791 6.435l.15.469h.495l-.4.288.15.468-.395-.292-.4.292.15-.473-.395-.288h.49zm2.784 0l.155.469h.49l-.4.288.155.468-.4-.292-.4.292.155-.473-.4-.288h.495zm2.79 0l.15.469h.494l-.4.288.15.468-.395-.292-.4.292.15-.473L7.72 6.9h.49zm2.783 0l.155.469h.49l-.395.288.15.468-.4-.292-.395.292.15-.473-.4-.288h.5zm2.79 0l.15.469h.494l-.4.288.15.468-.395-.292-.4.292.15-.473-.394-.288h.49zM1.394 7.617l.154.473h.49l-.395.288.15.464-.4-.288L1 8.842l.15-.469-.399-.288h.498zm2.788 0l.15.473h.495l-.4.288.155.464-.4-.288-.4.288.155-.469-.4-.288h.49zm2.785 0l.154.473h.486l-.395.288.15.464-.4-.288-.395.288.15-.469-.4-.288h.495zm2.788 0l.15.473h.495l-.4.288.155.464-.4-.288-.4.288.155-.469-.4-.288h.49zm2.785 0l.154.473h.49l-.395.288.15.464-.4-.288-.395.288.15-.469-.395-.288h.49zm2.788 0l.15.473h.495l-.4.288.155.464-.4-.288-.4.288.155-.469-.4-.288h.495zM2.791 8.803l.15.468h.495l-.4.288.15.473-.395-.292-.4.288.15-.469-.395-.288h.49zm2.784 0l.155.468h.49l-.4.288.155.473-.4-.292-.4.288.155-.469-.4-.288h.495zm2.79 0l.15.468h.494l-.4.288.15.473-.395-.292-.4.288.15-.469-.394-.288h.49zm2.783 0l.155.468h.49l-.395.288.15.473-.4-.292-.395.288.15-.469-.4-.288h.5zm2.79 0l.15.468h.494l-.4.288.15.473-.395-.292-.4.288.15-.469-.394-.288h.49zM1.394 9.989l.154.468h.49l-.395.288.15.469-.4-.288-.395.287.15-.472-.399-.288h.498zm2.788 0l.15.468h.495l-.4.288.155.469-.4-.288-.4.287.155-.472-.4-.288h.49zm2.785 0l.154.468h.486l-.387.288.15.469-.4-.288-.394.287.15-.472-.4-.288h.494zm2.788 0l.15.468h.495l-.4.288.155.469-.4-.288-.4.287.155-.472-.4-.288h.49zm2.785 0l.154.468h.49l-.395.288.15.469-.4-.288-.395.287.15-.472-.395-.288h.49zm2.788 0l.15.468h.495l-.4.288.155.469-.4-.288-.4.287.155-.472-.4-.288h.495z"/></g></g></g></g></svg>