<svg width="24" height="24" viewBox="0 0 24 24" fill="none" xmlns="http://www.w3.org/2000/svg">
<path d="M21.579 6.85495C21.719 6.38995 21.579 6.04895 20.917 6.04895H18.724C18.166 6.04895 17.911 6.34395 17.771 6.66795C17.771 6.66795 16.656 9.38695 15.076 11.15C14.566 11.663 14.333 11.825 14.055 11.825C13.916 11.825 13.714 11.663 13.714 11.198V6.85495C13.714 6.29695 13.553 6.04895 13.088 6.04895H9.642C9.294 6.04895 9.084 6.30695 9.084 6.55295C9.084 7.08095 9.874 7.20295 9.955 8.69095V11.919C9.955 12.6259 9.828 12.755 9.548 12.755C8.805 12.755 6.997 10.026 5.924 6.90195C5.715 6.29495 5.504 6.04995 4.944 6.04995H2.752C2.125 6.04995 2 6.34495 2 6.66895C2 7.25095 2.743 10.1309 5.461 13.9399C7.273 16.5409 9.824 17.951 12.148 17.951C13.541 17.951 13.713 17.6379 13.713 17.0979V15.132C13.713 14.5059 13.846 14.38 14.287 14.38C14.611 14.38 15.169 14.544 16.47 15.797C17.956 17.283 18.202 17.95 19.037 17.95H21.229C21.855 17.95 22.168 17.6369 21.988 17.0189C21.791 16.4039 21.081 15.509 20.139 14.45C19.627 13.846 18.862 13.196 18.629 12.871C18.304 12.452 18.398 12.267 18.629 11.895C18.63 11.896 21.301 8.13395 21.579 6.85495Z" fill="white"/>
</svg>
