<svg width="22" height="22" viewBox="0 0 22 22" fill="none" xmlns="http://www.w3.org/2000/svg">
<path d="M19.3095 9.69593C19.3095 9.69593 21.1204 9.78616 21.1204 8.72269C21.1204 7.33265 18.7094 6.08011 18.7094 6.08011C18.7094 6.08011 19.088 5.27874 19.3224 4.83187C19.559 4.38499 20.2214 2.63831 20.2816 2.2387C20.3569 1.73812 20.2429 1.58128 20.2429 1.58128C20.0794 2.6555 18.3288 5.7471 18.189 5.85237C16.4813 5.05315 14.1371 4.82972 14.1371 4.82972C14.1371 4.82972 11.8402 3.05176e-05 9.68086 3.05176e-05C7.53878 3.05176e-05 7.54953 4.13577 7.54953 4.13577C7.54953 4.13577 6.94519 2.96273 6.18599 2.96273C5.07624 2.96273 4.71062 4.64066 4.71062 6.46038C2.51907 6.46038 0.673781 6.95023 0.510329 6.99749C0.344726 7.04476 -0.173589 7.42073 0.0608355 7.37347C0.540439 7.22093 2.79436 6.87288 4.76654 7.04261C4.87407 8.7721 5.8849 11.0237 5.8849 11.0237C5.8849 11.0237 3.71916 14.1604 3.71916 16.3991C3.71916 16.9899 3.93853 18.15 5.49562 18.15C6.79894 18.15 8.29797 17.2842 8.57326 17.1252C8.33238 17.469 8.15387 18.12 8.15387 18.4207C8.15387 18.5604 8.20979 18.8483 8.43991 19.0696C8.80768 18.7043 9.169 18.3412 9.61634 17.8965C9.13459 17.8084 9.07007 17.4518 9.07007 17.3594C9.07007 17.0371 9.3217 16.6547 9.3217 16.6547C9.3217 16.6547 10.4938 15.8641 10.5669 15.7803L11.4315 17.3916C11.4315 17.3916 10.5454 17.9158 9.85077 17.9158C9.76259 17.9158 9.68516 17.9094 9.61634 17.8965C9.169 18.3412 8.80768 18.7043 8.43991 19.0696C8.61197 19.235 8.87865 19.3617 9.30449 19.3617C10.5949 19.3617 12.038 18.3735 12.038 18.3735C12.038 18.3735 13.3994 20.6336 14.5608 21.6692C14.8748 21.9485 15.1759 22 15.1759 22C15.1759 22 14.0188 20.8871 12.4961 18.0233C13.9113 17.1489 15.3845 15.0885 15.3845 15.0885C15.3845 15.0885 15.5587 15.0928 16.9029 15.0928C19.0084 15.0928 22 14.6502 22 12.9787C22 11.2535 19.3095 9.69593 19.3095 9.69593ZM19.5461 8.65609C19.5461 9.26624 18.9632 9.2598 18.9632 9.2598L18.5223 9.28773L17.176 8.64105C17.176 8.64105 17.9632 7.42933 18.1481 7.08987C18.2879 7.17151 19.5461 7.95784 19.5461 8.65609ZM6.81184 4.32483C7.12584 4.32483 7.43554 4.70726 7.56243 5.03167C7.56243 5.24437 7.67427 6.49476 7.67427 6.49476L5.85694 6.42816C5.85694 4.7889 6.49784 4.32483 6.81184 4.32483ZM6.62473 15.6965C5.63112 15.6965 5.4268 15.1444 5.4268 14.6459C5.4268 13.518 6.32579 11.9432 6.32579 11.9432C6.32579 11.9432 7.33446 14.0637 9.09587 14.9575C8.2227 15.4709 7.50006 15.6965 6.62473 15.6965ZM12.0208 17.0371C11.5971 16.2959 11.2853 15.5225 11.2853 15.5225C11.2853 15.5225 13.0252 15.6364 13.9607 14.6696C13.3779 14.9317 12.4488 15.2625 11.367 15.1616L16.062 10.2416C15.9652 10.1256 15.4555 9.76898 15.3307 9.70882C14.6576 10.5188 12.0402 13.316 9.61634 14.6996C6.54731 13.0282 5.9021 8.10608 5.83758 7.08558L7.51297 7.24671C7.51297 7.24671 6.88282 8.36175 6.88282 9.18245C6.88282 10.0032 6.98175 10.0483 6.98175 10.0483C6.98175 10.0483 6.96024 8.61526 7.84417 7.51097C8.51949 11.0946 9.22061 12.9315 9.76904 14.0272C10.0486 13.9112 10.5691 13.6813 10.5691 13.6813C10.5691 13.6813 9.0206 9.22112 9.10663 6.20257C9.59483 5.94261 10.2486 5.67835 10.9928 5.54085C10.9756 5.34749 10.9347 5.15413 10.8508 4.96292C10.2874 5.09398 9.68301 5.30237 9.11738 5.63538C9.16685 3.95316 9.73248 2.43206 10.7347 2.43206C11.724 2.43206 13.137 4.76526 13.137 4.76526C13.137 4.76526 12.0939 4.67288 10.8508 4.96077C10.9347 5.15413 10.9756 5.34749 10.9928 5.54085C11.3197 5.48069 11.6638 5.44202 12.0208 5.44202C15.1092 5.44202 17.5911 6.76976 17.5911 6.76976L16.6211 8.12542C16.6211 8.12542 15.7544 6.55921 14.5328 6.27991C15.178 6.75901 15.8985 7.39495 16.2749 8.30804C13.7156 7.30687 10.6272 6.7805 9.6357 6.66448C9.54967 7.02972 9.56042 7.55179 9.56042 7.55179C9.56042 7.55179 13.7026 8.31448 16.7158 10.0375C16.6964 13.808 12.5886 16.6998 12.0208 17.0371ZM15.9437 14.2205C15.9437 14.2205 17.2319 12.534 17.2104 10.3018C17.2104 10.3018 19.2858 11.5866 19.2858 12.8412C19.288 14.242 15.9437 14.2205 15.9437 14.2205Z" fill="white"/>
<path d="M8.15387 18.4207C8.15387 18.1221 8.33238 17.469 8.57111 17.1252C8.97759 16.9211 9.3217 16.6547 9.3217 16.6547C9.3217 16.6547 9.06791 17.0371 9.06791 17.3594C9.06791 17.4518 9.13244 17.8084 9.61419 17.8965C9.68301 17.9094 9.76044 17.9158 9.84861 17.9158C10.5454 17.9158 11.4294 17.3916 11.4294 17.3916C8.58616 19.9375 8.15387 18.4573 8.15387 18.4207ZM8.61412 13.9692L8.57971 13.9842L8.53885 14.01C8.37754 14.1045 8.227 14.1819 8.0786 14.2506C8.384 14.5213 8.72165 14.7684 9.09587 14.9575C9.25718 14.8801 9.50235 14.7598 9.61634 14.7018C9.24857 14.4998 8.91522 14.2506 8.61412 13.9692ZM5.7279 15.4237C5.49777 15.2174 5.4268 14.9252 5.4268 14.6459C5.4268 13.518 6.32579 11.9432 6.32579 11.9432L5.8849 11.0258C5.8849 11.0258 3.65679 14.3731 5.72145 15.4387C5.72575 15.4258 5.7236 15.4366 5.7279 15.4237ZM19.2514 13.0819C18.8901 14.2399 15.9437 14.2205 15.9437 14.2205L15.3845 15.0885C15.3845 15.0885 15.5501 15.0928 16.69 15.095C16.69 15.095 19.0256 14.9037 19.2514 13.0819ZM16.6448 11.245C16.6448 11.245 16.834 11.3674 17.0857 11.5608C17.1653 11.1676 17.2147 10.7465 17.2104 10.3018C17.1007 10.2352 16.8211 10.0869 16.7179 10.0397C16.7158 10.4393 16.6598 10.826 16.5738 11.2041C16.6018 11.2213 16.6276 11.2364 16.6448 11.245ZM19.5461 8.65609C19.5461 9.26624 18.9632 9.2598 18.9632 9.2598L18.5223 9.28773L19.3095 9.69378C21.8516 9.59066 19.8966 7.61409 18.1481 7.08987C18.2879 7.17151 19.5461 7.95784 19.5461 8.65609ZM10.425 2.48792C10.5239 2.45569 10.625 2.43421 10.7347 2.43421C11.724 2.43421 13.137 4.76741 13.137 4.76741L14.1371 4.82972C14.1371 4.82972 13.907 4.34847 13.5263 3.69105C13.0037 2.84456 11.3928 2.00237 10.425 2.48792ZM6.71076 3.40316C5.73005 3.30003 5.76016 6.11878 5.85694 6.42816C5.85694 4.79105 6.49784 4.32483 6.81184 4.32483C7.12584 4.32483 7.43554 4.70726 7.56243 5.03167C7.54738 4.54827 7.54953 4.13577 7.54953 4.13577C7.54953 4.13577 7.1581 3.48909 6.71076 3.40316ZM10.2185 5.6805C10.2228 5.48929 10.2422 5.30882 10.2637 5.1305C9.87873 5.25511 9.48945 5.41624 9.11738 5.63538C9.10663 5.86526 9.11953 5.97054 9.10663 6.20472C9.41418 6.03929 9.79485 5.87816 10.2164 5.7428C10.2164 5.72347 10.2164 5.70413 10.2185 5.6805ZM12.0101 17.0371C11.5864 16.2959 11.2724 15.5225 11.2724 15.5225C11.2724 15.5225 13.0144 15.6364 13.95 14.6696C13.365 14.9317 12.438 15.2625 11.3541 15.1616C11.1261 15.4 10.8508 15.5826 10.554 15.7803L11.4186 17.3916C11.4186 17.3916 12.0767 16.9963 12.0101 17.0371ZM12.4832 18.0233C12.6166 17.9416 12.0251 18.3735 12.0251 18.3735C12.0251 18.3735 13.3843 20.6336 14.5479 21.6692C14.8619 21.9485 15.1608 22 15.1608 22C15.1608 22 14.0059 20.8871 12.4832 18.0233ZM20.2429 1.57913C20.0794 2.65335 18.3288 5.7471 18.1911 5.85237C18.0191 5.77288 18.7116 6.07796 18.7116 6.07796C18.7116 6.07796 19.088 5.27874 19.3245 4.82972C19.559 4.38284 20.2235 2.63831 20.2816 2.2387C20.3569 1.73812 20.2429 1.57913 20.2429 1.57913ZM17.5932 6.77191L16.6211 8.12757C16.6211 8.12757 15.7544 6.56136 14.5328 6.28206C15.0253 6.64944 15.5608 7.10706 15.9544 7.70862C16.077 7.89554 16.1867 8.09319 16.2749 8.31019C16.7803 8.5014 17.219 8.65823 17.176 8.64105C17.176 8.64105 17.9632 7.42933 18.1481 7.08987C18.1997 7.11995 17.5932 6.77191 17.5932 6.77191ZM7.67427 6.49691L5.85694 6.42816C5.82683 6.61077 5.83758 6.89866 5.83758 7.08558L7.51297 7.24671C7.51297 7.24671 6.88497 8.36175 6.88497 9.1846C6.88497 10.0053 6.98175 10.0483 6.98175 10.0483C6.98175 10.0483 6.96454 8.7764 7.70223 7.70433C7.70008 7.70218 7.69793 7.70218 7.69793 7.70003C7.70008 7.70218 7.70223 7.70433 7.70223 7.70433C7.74739 7.63987 7.79471 7.57542 7.84632 7.51097C7.73019 6.86429 7.67427 6.49691 7.67427 6.49691ZM4.71062 6.46038C2.51907 6.46038 0.673781 6.95023 0.508178 6.99749C0.342576 7.04476 -0.17574 7.42073 0.0608355 7.37347C0.540439 7.22093 2.79436 6.87288 4.76654 7.04476C4.72568 6.67952 4.71062 6.46038 4.71062 6.46038Z" fill="white"/>
</svg>
