<svg width="24" height="24" viewBox="0 0 24 24" fill="none" xmlns="http://www.w3.org/2000/svg">
<path  fill-rule="evenodd" clip-rule="evenodd" d="M7.1511 15.4077H4.35925C4.14022 15.4077 3.96448 15.5946 3.96448 15.8248C3.96448 15.8248 3.96533 15.8248 3.96533 15.8274H3.96448V17.9209H3.96533L3.96448 17.9227C3.96448 18.152 4.14022 18.3407 4.35925 18.3407H7.1511V19.7373H3.66734V19.7338C3.09726 19.7338 2.63627 19.2493 2.63627 18.652V15.0923C2.63627 14.4981 3.09726 14.0137 3.66734 14.0137H7.1511V15.4077Z" fill="#151b3d"/>
<path  fill-rule="evenodd" clip-rule="evenodd" d="M8.15904 11.5203C8.15904 12.1292 7.69083 12.619 7.11396 12.619H2.63309V11.2036H6.41101C6.63344 11.2036 6.81172 11.0126 6.81172 10.7802V6.10174C6.81172 5.86844 6.63344 5.6793 6.41101 5.6793H4.38069C4.15869 5.6793 3.97998 5.86844 3.97998 6.10174V8.23088C3.97998 8.46462 4.15869 8.65421 4.38069 8.65421H6.00265V10.0696H3.67775C3.0996 10.0696 2.63309 9.57893 2.63309 8.97182V5.36124C2.63309 4.75458 3.0996 4.263 3.67775 4.263H7.11396C7.69083 4.263 8.15904 4.75458 8.15904 5.36124V11.5203Z" fill="#151b3d"/>
<path  fill-rule="evenodd" clip-rule="evenodd" d="M21.3628 19.7338H20.035V15.4077H19.102C18.8825 15.4077 18.7068 15.5946 18.7068 15.8248V19.7338H17.379V15.4077H16.4455C16.2257 15.4077 16.0499 15.5946 16.0499 15.8248V19.7373H14.7226V15.0923C14.7226 14.4981 15.1823 14.0137 15.7524 14.0137H21.3628V19.7338Z" fill="#151b3d"/>
<path  fill-rule="evenodd" clip-rule="evenodd" d="M21.3665 11.5203C21.3665 12.1292 20.8979 12.619 20.3219 12.619H15.8406V11.2036H19.6185C19.8418 11.2036 20.0209 11.0126 20.0209 10.7802V6.10174C20.0209 5.86844 19.8418 5.6793 19.6185 5.6793H17.5886C17.3687 5.6793 17.1892 5.86844 17.1892 6.10174V8.23088C17.1892 8.46462 17.3687 8.65421 17.5886 8.65421H19.2097V10.0696H16.8861C16.3079 10.0696 15.8406 9.57893 15.8406 8.97182V5.36124C15.8406 4.75458 16.3079 4.263 16.8861 4.263H20.3219C20.8979 4.263 21.3665 4.75458 21.3665 5.36124V11.5203Z" fill="#151b3d"/>
<path  fill-rule="evenodd" clip-rule="evenodd" d="M13.4125 8.23061C13.4125 8.46436 13.2381 8.65439 13.0152 8.65439H10.9857C10.7629 8.65439 10.5846 8.46436 10.5846 8.23061V6.10147C10.5846 5.86817 10.7629 5.67948 10.9857 5.67948H13.0152C13.2381 5.67948 13.4125 5.86817 13.4125 6.10147V8.23061ZM13.7186 4.26317H10.2811C9.70379 4.26317 9.23728 4.75476 9.23728 5.36142V8.972C9.23728 9.57866 9.70379 10.0698 10.2811 10.0698H13.7186C14.2942 10.0698 14.7628 9.57866 14.7628 8.972V5.36142C14.7628 4.75476 14.2942 4.26317 13.7186 4.26317Z" fill="#151b3d"/>
<path  fill-rule="evenodd" clip-rule="evenodd" d="M12.3315 17.9207C12.3315 18.1509 12.1558 18.3387 11.9376 18.3387C11.9355 18.3387 11.9351 18.3365 11.9329 18.3365V18.3387H9.94125V18.3365C9.94125 18.3365 9.93913 18.3387 9.937 18.3387C9.71797 18.3387 9.54223 18.1509 9.54223 17.9207V15.8246C9.54223 15.5944 9.71797 15.4075 9.937 15.4075H11.9376C12.1558 15.4075 12.3315 15.5944 12.3315 15.8246V17.9207ZM12.6299 14.0135H9.24424C8.67416 14.0135 8.21402 14.4979 8.21402 15.0921V18.6518C8.21402 19.2491 8.67416 19.7336 9.24424 19.7336H12.6299C13.1979 19.7336 13.6589 19.2491 13.6589 18.6518V15.0921C13.6589 14.4979 13.1979 14.0135 12.6299 14.0135Z" fill="#151b3d"/>
<path fill="#151b3d" d="M23.4898 22.1653C23.4898 22.5248 23.3518 22.8478 23.1277 23.0838C22.9036 23.3189 22.5958 23.4634 22.2545 23.4634H1.74549C1.40378 23.4634 1.09645 23.3189 0.872318 23.0838C0.64819 22.8478 0.511082 22.5248 0.510233 22.1653V1.83387C0.511082 1.47477 0.64819 1.15226 0.872318 0.916279C1.09645 0.681195 1.40378 0.536665 1.74549 0.536219H22.2545C22.5958 0.536665 22.9036 0.681195 23.1277 0.916279C23.3518 1.15226 23.4898 1.47477 23.4898 1.83387V22.1653ZM23.4881 0.53711C23.1731 0.205227 22.7359 3.05176e-05 22.2545 3.05176e-05H1.74549C1.26412 3.05176e-05 0.826899 0.205227 0.51193 0.53711C0.196113 0.868102 0 1.32846 0 1.83387V22.1653C0 22.6712 0.196113 23.1315 0.51193 23.4625C0.826899 23.7939 1.26412 24 1.74549 24H22.2545C22.7359 24 23.1731 23.7939 23.4881 23.4625C23.8039 23.1315 24 22.6712 24 22.1653V1.83387C24 1.32846 23.8039 0.868102 23.4881 0.53711Z"/>
</svg>
