<svg width="24" height="24" viewBox="0 0 24 24" fill="none" xmlns="http://www.w3.org/2000/svg">
<path fill-rule="evenodd" clip-rule="evenodd" d="M4 13C4.55 13 5 12.55 5 12C5 11.45 4.55 11 4 11C3.45 11 3 11.45 3 12C3 12.55 3.45 13 4 13ZM4 17C4.55 17 5 16.55 5 16C5 15.45 4.55 15 4 15C3.45 15 3 15.45 3 16C3 16.55 3.45 17 4 17ZM4 9.00003C4.55 9.00003 5 8.55003 5 8.00003C5 7.45003 4.55 7.00003 4 7.00003C3.45 7.00003 3 7.45003 3 8.00003C3 8.55003 3.45 9.00003 4 9.00003ZM8 13H20C20.55 13 21 12.55 21 12C21 11.45 20.55 11 20 11H8C7.45 11 7 11.45 7 12C7 12.55 7.45 13 8 13ZM8 17H20C20.55 17 21 16.55 21 16C21 15.45 20.55 15 20 15H8C7.45 15 7 15.45 7 16C7 16.55 7.45 17 8 17ZM7 8.00003C7 8.55003 7.45 9.00003 8 9.00003H20C20.55 9.00003 21 8.55003 21 8.00003C21 7.45003 20.55 7.00003 20 7.00003H8C7.45 7.00003 7 7.45003 7 8.00003Z" fill="#1D1D1D"/>
</svg>
