<svg width="24" height="24" viewBox="0 0 24 24" fill="none" xmlns="http://www.w3.org/2000/svg">
<path d="M6.12462 20C4 20 4 17.8828 4 17.8828C4 17.8828 4 9.41254 4 7.294C4 5.17633 6.12462 5.17633 6.12462 5.17633C6.12462 5.17633 8.24967 5.17633 10.3747 5.17633C12.5002 5.17633 14.6248 7.294 14.6248 7.294C14.6248 1.12623 16.5796 9.58133 18.8749 7.294C20.3776 5.79696 21 14.7056 21 14.7056L18.8749 13.6479C18.8749 13.6479 18.8749 11.5298 15.6876 9.41254C11.7337 6.78503 7.18736 8.51622 7.18736 12.5884C7.18736 20.8964 21 17.8828 21 17.8828C21 17.8828 21 20 18.8749 20C16.7503 20 6.12462 20 6.12462 20Z" fill="white"/>
<path d="M16.7503 5.17675C16.7503 4.59248 17.2259 2.00003 17.8122 2.00003C18.3994 2.00003 18.8745 4.59248 18.8745 5.17675C18.8745 5.76233 18.3989 6.23581 17.8122 6.23581C17.2259 6.23581 16.7503 5.76233 16.7503 5.17675Z" fill="white"/>
</svg>
