<svg width="14" height="18" viewBox="0 0 14 18" fill="none" xmlns="http://www.w3.org/2000/svg">
<path fill="#151b3d" d="M6.68736 0.024247C6.79069 -0.0307312 6.94348 0.0101207 6.97899 0.124277C7.01729 0.21858 6.95106 0.304865 6.89681 0.377787C6.51263 0.898935 6.25771 1.50446 6.13723 2.13098C6.06422 2.16076 6.04308 2.23407 6.06582 2.30317C6.10172 2.31577 6.13803 2.32684 6.17473 2.33753C6.92035 2.27492 7.67673 2.2879 8.41078 2.43794C9.74643 2.69527 10.9947 3.34203 11.9542 4.26673C12.9108 5.18189 13.5822 6.36774 13.8539 7.63644C14.1551 9.01013 13.9867 10.4724 13.3844 11.7518C12.1069 14.3644 9.95348 16.5742 7.31849 17.975C7.23351 18.0128 7.11104 18.0143 7.05279 17.9334C6.98418 17.8486 7.0125 17.728 7.08032 17.6509C7.43577 17.1763 7.68391 16.6307 7.81876 16.0618C7.84469 15.9439 7.88019 15.8244 7.86942 15.703C7.82594 15.6487 7.75413 15.6652 7.69309 15.6671C6.41409 15.7896 5.09799 15.5709 3.94227 15.0302C2.70436 14.4595 1.65395 13.5264 0.959401 12.3921C0.315913 11.3486 -0.0223871 10.1334 0.00115028 8.92117C0.00553861 7.80863 0.322695 6.70525 0.881209 5.73129C2.18135 3.34241 4.22272 1.32654 6.68736 0.024247ZM6.61556 6.40821C5.85478 6.50595 5.15305 6.93356 4.72698 7.5429C4.43855 7.96134 4.26381 8.45844 4.2674 8.96164C4.24586 9.63589 4.52671 10.3113 5.01342 10.7969C5.43869 11.2352 6.02951 11.5208 6.64907 11.5972C7.27979 11.677 7.93844 11.5357 8.47262 11.2039C9.01557 10.874 9.42927 10.3533 9.61438 9.76341C9.96185 8.73944 9.54536 7.53984 8.63897 6.90721C8.06969 6.49259 7.32327 6.30856 6.61556 6.40821Z"/>
</svg>
