<svg width="23" height="11" viewBox="0 0 23 11" fill="none" xmlns="http://www.w3.org/2000/svg">
<path fill="#151b3d" d="M19.9015 3.05176e-05C18.1925 3.05176e-05 16.8026 1.44837 16.8026 3.22875C16.8026 3.24301 16.8026 3.25727 16.8034 3.27071L14.8071 6.28717C14.4837 6.2725 14.1592 6.33117 13.8515 6.46317C13.7158 6.52061 13.5888 6.5915 13.4695 6.67298L4.47273 2.79771C4.32142 2.06804 3.84248 1.42392 3.13246 1.11511C1.98103 0.615626 0.654051 1.18518 0.17393 2.38541C-0.3058 3.58482 0.241178 4.96757 1.39261 5.46746C1.95014 5.70946 2.56476 5.71068 3.12386 5.47153C3.25249 5.41613 3.37369 5.34768 3.48942 5.27149L12.5062 9.15573C12.6618 9.87848 13.1388 10.5132 13.8425 10.8184C14.9939 11.3191 16.3213 10.7487 16.8007 9.5501C16.925 9.23721 16.9832 8.90844 16.9746 8.58047L19.8311 6.45706C19.8546 6.45787 19.878 6.45828 19.9015 6.45828C21.6105 6.45828 23 5.00912 23 3.22875C23 1.44837 21.6105 3.05176e-05 19.9015 3.05176e-05ZM1.59162 4.97001C0.922262 4.67953 0.5176 4.00201 0.5176 3.28904C0.5176 3.05601 0.560607 2.82012 0.652096 2.59278C1.02157 1.66674 2.04554 1.22715 2.93345 1.61256C3.35258 1.79426 3.66497 2.12752 3.84248 2.52556L2.8099 2.08067C2.15541 1.7967 1.40316 2.11937 1.12987 2.80178C0.857359 3.4846 1.1674 4.26927 1.8219 4.55323L2.8576 4.99894C2.44512 5.15579 1.99862 5.14764 1.59162 4.97001ZM16.3241 9.34192C15.953 10.2676 14.9302 10.7071 14.0411 10.3217C13.631 10.1437 13.3213 9.81818 13.1427 9.42992L14.1514 9.86503C14.8071 10.1494 15.5593 9.82592 15.8318 9.14392C16.1051 8.46151 15.7951 7.67765 15.1398 7.39328L14.097 6.94391C14.4994 6.78502 14.9568 6.77932 15.3841 6.96428C15.815 7.15087 16.1493 7.50165 16.3264 7.95062C16.5039 8.39958 16.5031 8.89458 16.3241 9.34192ZM19.9015 5.38068C18.7634 5.38068 17.8371 4.41512 17.8371 3.22875C17.8371 2.04319 18.7634 1.07763 19.9015 1.07763C21.0396 1.07763 21.9663 2.04319 21.9663 3.22875C21.9663 4.41512 21.0396 5.38068 19.9015 5.38068ZM19.9046 4.84127C19.0488 4.84127 18.3544 4.11812 18.3544 3.22549C18.3544 2.33285 19.0488 1.60889 19.9046 1.60889C20.7613 1.60889 21.456 2.33285 21.456 3.22549C21.456 4.11812 20.7613 4.84127 19.9046 4.84127Z"/>
</svg>
