<svg width="18" height="18" viewBox="0 0 18 18" fill="none" xmlns="http://www.w3.org/2000/svg">
    <path fill="#151b3d" d="M8.43899 3.05176e-05C2.6594 3.05176e-05 0.164695 4.97389 0.164695 4.97389L0.899039 5.48213C0.899039 5.48213 -0.025051 7.18121 0.000521113 9.36051C0.000521113 13.8092 3.66332 18 9.05526 18C13.9536 18 18 14.1453 18 9.37144C18 3.14527 13.0062 3.05176e-05 8.43899 3.05176e-05ZM8.48913 1.51775C13.0047 1.51775 16.5087 5.0359 16.5087 9.12592C16.5087 13.4616 13.1359 16.4768 9.20568 16.4768C6.31314 16.4768 3.70377 14.3471 3.70377 11.4271C3.70377 9.74061 4.63091 8.56482 5.66984 7.93818L5.82188 8.09769C5.53756 8.31279 4.72684 9.57188 4.72684 10.8094C4.72684 13.1068 6.59026 14.6979 8.93799 14.6979C11.9286 14.6979 13.9231 12.2318 13.9231 9.36833C13.9231 6.03671 10.8814 3.20828 7.22102 3.20828C5.19642 3.20828 3.47804 4.05011 2.49065 4.79326L2.33699 4.65877C3.62879 2.73307 5.86582 1.51775 8.48913 1.51775ZM7.14176 4.7049C9.47763 4.7049 11.7582 6.19898 12.3275 8.31976L12.1204 8.3956C11.0983 7.09063 9.42354 6.00916 7.44585 6.00916C3.80666 6.00916 1.89547 9.2064 2.17605 11.8767L1.96173 11.9526C1.96173 11.9526 1.55978 11.0951 1.55978 10.0783C1.55978 7.1338 4.0608 4.7049 7.14176 4.7049ZM8.68566 8.40028C9.79158 8.40028 10.676 9.26692 10.676 10.2957C10.676 11.147 10.1107 11.6516 10.1107 11.6516L10.7803 12.1043C10.7803 12.1043 10.1163 13.1122 8.76087 13.1122C7.46432 13.1122 6.31764 12.1004 6.31764 10.7398C6.31764 9.33786 7.56493 8.40028 8.68566 8.40028Z" />
</svg>