<svg version="1.1" id="Capa_1" xmlns="http://www.w3.org/2000/svg" xmlns:xlink="http://www.w3.org/1999/xlink" x="0px" y="0px" viewBox="0 0 490.948 490.948" style="enable-background:new 0 0 490.948 490.948;" xml:space="preserve">
    <g>
        <g id="Icons_24_">
            <g>
                <path d="M365.13,123.623c4.062-5.364,2.999-13.008-2.366-17.07c-5.365-4.071-13.014-3.008-17.08,2.371l-44.346,58.64v22.184
				c2.938,2.31,5.523,4.968,7.903,7.784L365.13,123.623z" />
                <path d="M268.482,9.074c-74.664,0-140.674,37.085-181.039,93.679c7.191,4.8,13.509,11.014,18.365,18.563l13.729,21.332
				c30.363-50.697,85.678-84.814,148.945-84.814c95.772,0,173.706,77.917,173.706,173.697c0,89.268-67.71,162.953-154.468,172.563
				l9.858,15.327c6.172,9.61,9.157,20.275,9.728,30.94c104.187-18.441,183.642-109.439,183.642-218.83
				C490.947,108.871,391.143,9.074,268.482,9.074z" />
                <path d="M305.401,231.538c0-14.452-8.302-26.825-20.317-32.997v-55.379c0-9.357-7.571-16.928-16.919-16.928
				c-9.365,0-16.919,7.57-16.919,16.928v55.385c-12.015,6.175-20.317,18.548-20.317,32.991c0,20.57,16.666,37.228,37.236,37.228
				C288.735,268.766,305.401,252.109,305.401,231.538z" />
                <path d="M207.533,369.563c-2.889-4.484-7.745-6.927-12.713-6.936c-2.81,0-5.635,0.776-8.158,2.406l-14.396,9.261
				c-1.525,0.977-3.207,1.435-4.889,1.435c-2.985,0-5.905-1.468-7.649-4.157L92.176,266.569c-1.303-2.022-1.748-4.484-1.224-6.833
				c0.509-2.35,1.922-4.397,3.953-5.697l14.382-9.256c3.378-2.166,5.745-5.578,6.603-9.492c0.855-3.918,0.109-8.015-2.065-11.379
				L64.81,147.695c-2.889-4.485-7.762-6.938-12.73-6.938c-2.793,0-5.618,0.779-8.158,2.405
				c-21.348,13.736-36.348,35.371-41.744,60.156c-5.382,24.793-0.698,50.694,13.031,72.027l104.614,162.61
				c18.284,28.419,49.078,43.92,80.536,43.92c17.712,0,35.65-4.92,51.648-15.222c7.014-4.516,9.048-13.864,4.538-20.881
				L207.533,369.563z" />
            </g>
        </g>
    </g>
    <g>
    </g>
    <g>
    </g>
    <g>
    </g>
    <g>
    </g>
    <g>
    </g>
    <g>
    </g>
    <g>
    </g>
    <g>
    </g>
    <g>
    </g>
    <g>
    </g>
    <g>
    </g>
    <g>
    </g>
    <g>
    </g>
    <g>
    </g>
    <g>
    </g>
</svg>