<svg height="512" viewBox="0 0 128 128" width="512" xmlns="http://www.w3.org/2000/svg" data-name="Layer 1"><path d="m6.5 6.5h115v115h-115z" fill="#a3d4f7"/><path d="m6.5 6.5h115v22.83h-115z" fill="#60a2d7"/><path d="m15.5 51.25h97v57.5h-97z" fill="#60a2d7"/><g fill="#e6e9ed"><path d="m100.668 19.667h-28.183a1.75 1.75 0 0 1 0-3.5h28.183a1.75 1.75 0 0 1 0 3.5z"/><circle cx="26.436" cy="17.917" r="3"/><circle cx="37.923" cy="17.917" r="3"/><circle cx="49.41" cy="17.917" r="3"/></g><path d="m47.41 99.17a34.9 34.9 0 0 1 -1.29 9.58h-18.9a34.9 34.9 0 0 1 -1.29-9.58c0-11.12 4.81-20.13 10.74-20.13 2.6 0 4.98 1.72 6.83 4.6 2.39 3.69 3.91 9.28 3.91 15.53z" fill="#c0c3c6"/><path d="m61.07 99.17a35.3 35.3 0 0 1 -1.28 9.58h-18.91a35.3 35.3 0 0 1 -1.28-9.58c0-6.25 1.52-11.84 3.9-15.53 1.86-2.88 4.24-4.6 6.84-4.6s4.97 1.72 6.83 4.6c2.38 3.69 3.9 9.28 3.9 15.53z" fill="#e6e9ed"/><path d="m74.74 99.17a34.9 34.9 0 0 1 -1.29 9.58h-18.9a34.9 34.9 0 0 1 -1.29-9.58c0-6.25 1.52-11.84 3.91-15.53 1.86-2.88 4.24-4.6 6.83-4.6s4.97 1.72 6.83 4.6c2.39 3.69 3.91 9.28 3.91 15.53z" fill="#c0c3c6"/><path d="m88.4 99.17a35.3 35.3 0 0 1 -1.28 9.58h-18.91a35.3 35.3 0 0 1 -1.28-9.58c0-6.25 1.52-11.84 3.9-15.53 1.86-2.88 4.24-4.6 6.83-4.6s4.98 1.72 6.84 4.6c2.38 3.69 3.9 9.28 3.9 15.53z" fill="#e6e9ed"/><path d="m102.07 99.17a34.9 34.9 0 0 1 -1.29 9.58h-18.9a34.9 34.9 0 0 1 -1.29-9.58c0-6.25 1.52-11.84 3.91-15.53 1.85-2.88 4.23-4.6 6.83-4.6 5.93 0 10.74 9.01 10.74 20.13z" fill="#c0c3c6"/></svg>