<svg id="Layer_1" enable-background="new 0 0 512 512" height="512" viewBox="0 0 512 512" width="512" xmlns="http://www.w3.org/2000/svg"><g><path d="m512 175.667c0-23.02-13.816-57.697-42.238-106.014-20.188-34.319-40.054-62.201-40.89-63.372-2.815-3.942-7.361-6.281-12.205-6.281s-9.391 2.34-12.206 6.282c-1.988 2.783-41.479 58.314-65.203 108.86-36.528-60.41-70.68-108.34-71.051-108.86-2.817-3.943-7.363-6.282-12.207-6.282s-9.39 2.339-12.206 6.281c-.405.568-41.016 57.562-81.056 125.63-4.29 7.293-8.395 14.42-12.353 21.415-20.664-35.562-41.77-65.205-42.846-66.711-2.816-3.942-7.362-6.281-12.206-6.281s-9.39 2.339-12.206 6.281c-.836 1.17-20.702 29.052-40.89 63.372-28.421 48.316-42.237 82.993-42.237 106.013 0 47.656 35.149 87.256 80.883 94.24 7.113 90.386 82.935 161.76 175.117 161.76 96.863 0 175.667-78.804 175.667-175.667 0-17.46-4.644-39.29-13.867-65.348 52.045-.609 94.2-43.13 94.2-95.318zm-482 80.333c0-9.709 4.935-34.394 37.987-90.618 9.902-16.844 19.886-32.311 27.346-43.499 10.17 15.257 25.046 38.492 38.083 62.444-29.955 56.78-47.345 102.229-51.883 135.54-29.419-6.352-51.533-32.576-51.533-63.867zm226 226c-80.321 0-145.667-65.346-145.667-145.667 0-25.603 13.559-79.18 78.153-189.025 26.185-44.529 52.623-84.244 67.514-106.018 14.865 21.734 41.237 61.35 67.404 105.833 64.685 109.963 78.262 163.589 78.262 189.211.001 80.32-65.345 145.666-145.666 145.666zm160.667-241c-3.738 0-7.449-.314-11.092-.938-11.844-27.319-27.761-58.479-47.421-92.827 13.33-35.486 42.073-81.004 58.518-105.681 7.426 11.136 17.355 26.519 27.232 43.31 33.147 56.349 38.096 81.077 38.096 90.803 0 36.024-29.309 65.333-65.333 65.333z"/></g></svg>