<svg width="24" height="24" viewBox="0 0 24 24" fill="none" xmlns="http://www.w3.org/2000/svg">
<path d="M22.3401 11.01C21.1301 7.82003 17.9401 6.17003 14.4201 6.83003C11.0101 3.42003 6.28006 1.11003 1.55006 1.00003C1.22006 1.00003 1.00006 1.22003 1.00006 1.55003C1.11006 6.28003 3.42006 11.01 6.72006 14.42C6.17006 17.83 7.71006 21.13 10.9001 22.34C10.3501 20.91 10.2401 19.26 10.6801 17.61C11.2301 17.94 11.7801 18.27 12.3301 18.49C12.5501 18.6 12.7701 18.6 12.9901 18.38L18.4901 12.88C18.6001 12.77 18.6001 12.55 18.4901 12.33C18.2701 11.78 17.9401 11.23 17.6101 10.79C19.2601 10.35 20.9101 10.46 22.3401 11.01ZM10.2401 10.24C9.36006 11.12 8.04006 11.12 7.16006 10.24C6.28006 9.36003 6.28006 8.04003 7.16006 7.16003C8.04006 6.28003 9.36006 6.28003 10.2401 7.16003C11.1201 8.04003 11.1201 9.36003 10.2401 10.24Z" fill="black"/>
<path d="M22.6701 16.84L20.3601 14.53C19.9201 14.09 19.2601 14.09 18.8201 14.53C18.3801 14.97 18.3801 15.63 18.8201 16.07L21.1301 18.38C21.5701 18.82 22.2301 18.82 22.6701 18.38C23.1101 17.94 23.1101 17.28 22.6701 16.84Z" fill="black"/>
<path d="M18.3801 21.13L16.0701 18.82C15.6301 18.38 14.9701 18.38 14.5301 18.82C14.0901 19.26 14.0901 19.92 14.5301 20.36L16.8401 22.67C17.2801 23.11 17.9401 23.11 18.3801 22.67C18.8201 22.23 18.8201 21.57 18.3801 21.13Z" fill="black"/>
<path d="M21.3501 19.92L18.1601 16.73C17.7201 16.29 17.0601 16.29 16.6201 16.73C16.1801 17.17 16.1801 17.83 16.6201 18.27L19.8101 21.46C20.2501 21.9 20.9101 21.9 21.3501 21.46C21.7901 21.02 21.7901 20.36 21.3501 19.92Z" fill="black"/>
</svg>
