<svg width="26" height="24" viewBox="0 0 26 24" fill="none" xmlns="http://www.w3.org/2000/svg">
<path fill-rule="evenodd" clip-rule="evenodd" d="M12.7211 17.9454H14.2754C14.2754 17.9454 14.7445 17.9003 14.9841 17.6742C15.2054 17.4658 15.198 17.0756 15.198 17.0756C15.198 17.0756 15.1677 15.2483 16.1353 14.9787C17.0892 14.7132 18.3148 16.7449 19.6129 17.5262C20.5952 18.1176 21.3415 17.988 21.3415 17.988L24.8136 17.9454C24.8136 17.9454 26.6294 17.8472 25.7683 16.596C25.6976 16.4938 25.2661 15.6699 23.1868 13.9778C21.0092 12.2068 21.3011 12.4933 23.924 9.42928C25.5204 7.56417 26.1594 6.42483 25.9593 5.93723C25.7692 5.47216 24.5951 5.59527 24.5951 5.59527L20.6851 5.61619C20.6851 5.61619 20.395 5.58159 20.1802 5.69424C19.9709 5.80447 19.8359 6.06195 19.8359 6.06195C19.8359 6.06195 19.2163 7.50543 18.3919 8.73328C16.6513 11.3242 15.9545 11.4609 15.6699 11.3C15.008 10.9251 15.1732 9.79458 15.1732 8.99076C15.1732 6.47955 15.6084 5.43274 14.3277 5.16158C13.9027 5.07227 13.5896 5.01273 12.5026 5.00307C11.1081 4.9902 9.92755 5.00629 9.25921 5.29354C8.81396 5.48423 8.47062 5.90988 8.67993 5.93401C8.9379 5.96459 9.52361 6.07241 9.83391 6.44253C10.2342 6.92048 10.2204 7.99303 10.2204 7.99303C10.2204 7.99303 10.4508 10.9484 9.68243 11.3161C9.15547 11.5672 8.43298 11.0538 6.88057 8.70271C6.08555 7.499 5.48515 6.16816 5.48515 6.16816C5.48515 6.16816 5.36948 5.91953 5.16292 5.78596C4.9123 5.62504 4.56252 5.57354 4.56252 5.57354L0.84722 5.59527C0.84722 5.59527 0.289971 5.60895 0.0852478 5.82137C-0.097442 6.01045 0.0705592 6.4015 0.0705592 6.4015C0.0705592 6.4015 2.97891 12.3653 6.27191 15.3706C9.29226 18.1264 12.7211 17.9454 12.7211 17.9454Z" fill="#1D1D1D"/>
</svg>
