<svg width="40" height="40" viewBox="0 0 40 40" fill="none" xmlns="http://www.w3.org/2000/svg">
<path d="M18.9067 16.5758L23.6466 21.3157C23.4664 20.1687 23.9234 18.8182 24.9593 17.7824C25.9953 16.7461 27.3461 16.2891 28.493 16.4691L23.7532 11.7292L18.9067 16.5758Z" fill="#FF5500"/>
<path d="M25.8618 23.5307L30.6017 28.2705L35.4481 23.4241L30.7083 18.6843C30.8883 19.8313 30.4315 21.1818 29.3954 22.2178C28.3595 23.254 27.0089 23.7109 25.8618 23.5307Z" fill="#FF5500"/>
<path d="M39.8445 23.0604L24.117 7.3332C23.9094 7.12542 23.5728 7.12542 23.3652 7.3332L20.1524 10.5458L16.9397 7.3332C16.7321 7.12542 16.3954 7.12542 16.1878 7.3332L12.975 10.5458L9.76222 7.3332C9.55464 7.12542 9.21797 7.12542 9.01039 7.3332L0.155753 16.1873C0.0560788 16.2872 0 16.4225 0 16.5635C0 16.7048 0.0560788 16.8401 0.155753 16.9397L15.8832 32.6669C15.987 32.7709 16.1232 32.8227 16.2592 32.8227C16.3953 32.8227 16.5314 32.7709 16.6352 32.6669L19.848 29.4543L23.0605 32.6669C23.1643 32.7709 23.3005 32.8227 23.4364 32.8227C23.5725 32.8227 23.7087 32.7709 23.8124 32.6669L27.0251 29.4543L30.2377 32.6669C30.3415 32.7709 30.4777 32.8227 30.6136 32.8227C30.7497 32.8227 30.8858 32.7709 30.9896 32.6669L39.8443 23.8128C39.944 23.7131 40 23.5778 40 23.4366C40.0003 23.2952 39.9442 23.16 39.8445 23.0604ZM16.247 30.6901L2.13256 16.5758L9.39862 9.30975L11.8048 11.716L10.595 12.9257L9.39869 11.7292L4.55232 16.5757L9.29215 21.3156C9.18784 20.6509 9.29862 19.9182 9.61117 19.2177L13.6054 23.2119C12.9049 23.5247 12.172 23.6353 11.5073 23.5308L16.247 28.2707L17.4556 27.062L18.6654 28.2718L16.247 30.6901ZM23.4243 30.6901L9.30986 16.5758L16.5759 9.30975L18.9821 11.716L17.7723 12.9257L16.576 11.7292L11.7296 16.5757L16.4694 21.3156C16.3649 20.6508 16.4756 19.9179 16.7882 19.2174L20.7824 23.2115C20.082 23.5242 19.3493 23.6351 18.6846 23.5308L23.4243 28.2706L24.6328 27.062L25.8426 28.2717L23.4243 30.6901ZM30.6016 30.6901L16.4872 16.5758L23.7533 9.30975L37.8677 23.4242L30.6016 30.6901Z" fill="#FF5500"/>
</svg>
