<svg width="37" height="37" viewBox="0 0 37 37" fill="none" xmlns="http://www.w3.org/2000/svg">
<path d="M2.3125 19.634V33.509C2.3125 34.7855 3.35081 35.8215 4.625 35.8215H16.1875V19.634H2.3125Z" fill="#FF5500"/>
<path d="M34.6875 10.384H27.3708C27.8957 10.0256 28.3466 9.66945 28.6611 9.35033C30.5273 7.47489 30.5273 4.42239 28.6611 2.54695C26.8481 0.720075 23.6893 0.7247 21.8786 2.54695C20.8749 3.55289 18.2156 7.64833 18.5833 10.384H18.4167C18.7821 7.64833 16.1227 3.55289 15.1214 2.54695C13.3084 0.7247 10.1496 0.7247 8.33887 2.54695C6.475 4.42239 6.475 7.47489 8.33656 9.35033C8.65337 9.66945 9.10431 10.0256 9.62925 10.384H2.3125C1.03831 10.384 0 11.4223 0 12.6965V16.1653C0 16.8035 0.518 17.3215 1.15625 17.3215H16.1875V12.6965H20.8125V17.3215H35.8438C36.482 17.3215 37 16.8035 37 16.1653V12.6965C37 11.4223 35.964 10.384 34.6875 10.384ZM16.0511 10.3077C16.0511 10.3077 15.9539 10.384 15.6233 10.384C14.0253 10.384 10.9751 8.72364 9.97844 7.72001C9.0095 6.74414 9.0095 5.15314 9.97844 4.17726C10.4479 3.70551 11.0699 3.44651 11.7313 3.44651C12.3904 3.44651 13.0124 3.70551 13.4819 4.17726C15.0405 5.74514 16.5899 9.75039 16.0511 10.3077ZM21.3744 10.384C21.0461 10.384 20.9489 10.31 20.9489 10.3077C20.4101 9.75039 21.9595 5.74514 23.5181 4.17726C24.4501 3.23608 26.0804 3.23145 27.0216 4.17726C27.9928 5.15314 27.9928 6.74414 27.0216 7.72001C26.0249 8.72364 22.9747 10.384 21.3744 10.384Z" fill="#FF5500"/>
<path d="M20.8125 19.634V35.8215H32.375C33.6515 35.8215 34.6875 34.7855 34.6875 33.509V19.634H20.8125Z" fill="#FF5500"/>
</svg>
