<svg width="35" height="35" viewBox="0 0 35 35" fill="none" xmlns="http://www.w3.org/2000/svg">
<path d="M35.0001 14.3646C35.0001 7.65756 28.4934 2.20105 20.4959 2.20105C12.4981 2.20105 5.99146 7.65762 5.99146 14.3646C5.99146 21.0717 12.4981 26.5282 20.4959 26.5282C21.1683 26.5282 21.8431 26.4893 22.5065 26.4124C25.5869 28.3693 27.861 29.4404 29.2704 29.597C29.3194 29.6023 29.3688 29.6051 29.4171 29.6051C29.8698 29.6051 30.2888 29.3795 30.5384 29.0012C30.8173 28.578 30.8355 28.0411 30.587 27.6027C30.5755 27.5818 29.4878 25.5973 29.8016 23.7017C33.1107 21.386 35.0001 18.0019 35.0001 14.3646ZM16.5568 16.2017C15.37 16.2017 14.4083 15.2397 14.4083 14.0531C14.4083 12.8665 15.37 11.9046 16.5568 11.9046C17.7433 11.9046 18.7054 12.8666 18.7054 14.0531C18.7055 15.2397 17.7433 16.2017 16.5568 16.2017ZM24.4353 16.2017C23.2483 16.2017 22.2864 15.2397 22.2864 14.0531C22.2864 12.8665 23.2483 11.9046 24.4353 11.9046C25.6218 11.9046 26.5838 12.8666 26.5838 14.0531C26.5838 15.2397 25.6217 16.2017 24.4353 16.2017Z" fill="#FF5500"/>
<path d="M9.05556 24.0964C7.61639 22.9047 6.48192 21.5098 5.68413 19.9506C4.84292 18.3067 4.41646 16.5579 4.41646 14.753C4.41646 12.9481 4.84298 11.1994 5.68413 9.55546C5.74852 9.42964 5.81595 9.30537 5.88463 9.18167C2.33219 11.2169 0 14.6138 0 18.4536C0 21.9035 1.85837 25.1021 5.10497 27.2537C5.7046 29.611 4.31312 32.105 4.29842 32.1305C4.2155 32.2767 4.22162 32.4572 4.31415 32.5975C4.39753 32.724 4.53833 32.7989 4.68777 32.7989C4.7043 32.7989 4.72077 32.7979 4.73747 32.7961C6.36176 32.6157 9.2221 30.9648 11.389 29.5728C12.1188 29.6719 12.8648 29.722 13.6092 29.722C16.4558 29.722 19.1006 28.994 21.2877 27.7519C20.7991 27.791 20.3069 27.8119 19.8162 27.8119C15.7709 27.8119 11.9494 26.4923 9.05556 24.0964Z" fill="#FF5500"/>
</svg>
