<svg width="35" height="35" viewBox="0 0 35 35" fill="none" xmlns="http://www.w3.org/2000/svg">
<path d="M6.20431 21.5306C6.458 21.5306 6.71484 21.4591 6.94325 21.3104L14.5943 16.3243L21.2407 19.2969C21.4184 19.3764 21.6069 19.4152 21.7942 19.4152C22.1282 19.4152 22.4578 19.2917 22.7132 19.0562L29.1642 13.1097V14.1726C29.1642 14.9214 29.7712 15.5285 30.52 15.5285C31.2688 15.5285 31.8758 14.9214 31.8758 14.1726V10.0402C31.8758 9.29133 31.2688 8.68427 30.52 8.68427H26.3875C25.6387 8.68427 25.0317 9.29133 25.0317 10.0402C25.0317 10.789 25.6387 11.396 26.3875 11.396H27.0224L21.5321 16.4568L15.0265 13.5472C14.8497 13.4681 14.661 13.4291 14.4731 13.4291C14.2141 13.4291 13.9564 13.5033 13.7328 13.649L5.46273 19.0386C4.83537 19.4474 4.65814 20.2872 5.06698 20.9149C5.32685 21.3136 5.76109 21.5306 6.20431 21.5306Z" fill="#FF5500"/>
<path d="M33.644 30.2435H29.9094V16.8138C29.2537 16.6624 28.6879 16.2733 28.3093 15.7415L27.1977 16.7662V30.2435H22.6783V20.623C22.3967 20.7201 22.0985 20.7711 21.794 20.7711C21.4102 20.7711 21.0377 20.6916 20.687 20.5347L19.9666 20.2125V30.2436H15.4472V18.1911L14.7152 17.8637L12.7355 19.1539V30.2436H8.21599V22.0991L7.68293 22.4465C7.24103 22.7343 6.72964 22.8865 6.20402 22.8865C5.96422 22.8865 5.72946 22.8546 5.5043 22.7948V30.2434H2.71169V3.40065C2.71169 2.65181 2.10463 2.04486 1.35579 2.04486C0.607065 2.04486 0 2.65187 0 3.40065V31.5993C0 32.3481 0.607065 32.9551 1.3559 32.9551H33.6441C34.3929 32.9551 35 32.3481 35 31.5993C35 30.8505 34.3928 30.2435 33.644 30.2435Z" fill="#FF5500"/>
</svg>
