<svg width="24" height="24" viewBox="0 0 24 24" fill="none" xmlns="http://www.w3.org/2000/svg">
<path d="M11.6874 3.02425C11.7907 2.96927 11.9435 3.01012 11.979 3.12428C12.0173 3.21858 11.9511 3.30486 11.8968 3.37779C11.5126 3.89893 11.2577 4.50446 11.1372 5.13098C11.0642 5.16076 11.0431 5.23407 11.0658 5.30317C11.1017 5.31577 11.138 5.32684 11.1747 5.33753C11.9203 5.27492 12.6767 5.2879 13.4108 5.43794C14.7464 5.69527 15.9947 6.34203 16.9542 7.26673C17.9108 8.18189 18.5822 9.36774 18.8539 10.6364C19.1551 12.0101 18.9867 13.4724 18.3844 14.7518C17.1069 17.3644 14.9535 19.5742 12.3185 20.975C12.2335 21.0128 12.111 21.0143 12.0528 20.9334C11.9842 20.8486 12.0125 20.728 12.0803 20.6509C12.4358 20.1763 12.6839 19.6307 12.8188 19.0618C12.8447 18.9439 12.8802 18.8244 12.8694 18.703C12.8259 18.6487 12.7541 18.6652 12.6931 18.6671C11.4141 18.7896 10.098 18.5709 8.94227 18.0302C7.70436 17.4595 6.65395 16.5264 5.9594 15.3921C5.31591 14.3486 4.97761 13.1334 5.00115 11.9212C5.00554 10.8086 5.3227 9.70525 5.88121 8.73129C7.18135 6.34241 9.22272 4.32654 11.6874 3.02425ZM11.6156 9.40821C10.8548 9.50595 10.153 9.93356 9.72698 10.5429C9.43855 10.9613 9.26381 11.4584 9.2674 11.9616C9.24586 12.6359 9.52671 13.3113 10.0134 13.7969C10.4387 14.2352 11.0295 14.5208 11.6491 14.5972C12.2798 14.677 12.9384 14.5357 13.4726 14.2039C14.0156 13.874 14.4293 13.3533 14.6144 12.7634C14.9619 11.7394 14.5454 10.5398 13.639 9.90721C13.0697 9.49259 12.3233 9.30856 11.6156 9.40821Z" fill="black"/>
</svg>
