<svg width="24" height="24" viewBox="0 0 24 24" fill="none" xmlns="http://www.w3.org/2000/svg">
<path fill-rule="evenodd" clip-rule="evenodd" d="M15.7245 14.319H14.9833L14.7207 14.0657C15.8464 12.7523 16.4281 10.9605 16.1091 9.05605C15.6682 6.44805 13.4917 4.36539 10.8649 4.04643C6.89663 3.5586 3.56626 6.89835 4.0447 10.8667C4.36367 13.4934 6.44632 15.6699 9.05433 16.1108C10.9587 16.4298 12.7506 15.8481 14.064 14.7224L14.3173 14.9851V15.7262L18.3137 19.7132C18.6983 20.0979 19.3175 20.0979 19.7021 19.7132L19.7115 19.7039C20.0962 19.3192 20.0962 18.7001 19.7115 18.3154L15.7245 14.319ZM10.0957 14.319C7.75972 14.319 5.87407 12.4333 5.87407 10.0974C5.87407 7.76142 7.75972 5.87577 10.0957 5.87577C12.4316 5.87577 14.3173 7.76142 14.3173 10.0974C14.3173 12.4333 12.4316 14.319 10.0957 14.319Z" fill="#1D1D1D"/>
</svg>
