<svg width="24" height="24" viewBox="0 0 24 24" fill="none" xmlns="http://www.w3.org/2000/svg">
<path d="M19.3095 10.6959C19.3095 10.6959 21.1204 10.7861 21.1204 9.72266C21.1204 8.33262 18.7094 7.08008 18.7094 7.08008C18.7094 7.08008 19.088 6.27871 19.3224 5.83184C19.559 5.38496 20.2214 3.63828 20.2816 3.23867C20.3569 2.73809 20.2429 2.58125 20.2429 2.58125C20.0794 3.65547 18.3288 6.74707 18.189 6.85234C16.4813 6.05312 14.1371 5.82969 14.1371 5.82969C14.1371 5.82969 11.8402 1 9.68086 1C7.53878 1 7.54953 5.13574 7.54953 5.13574C7.54953 5.13574 6.94519 3.9627 6.18599 3.9627C5.07624 3.9627 4.71062 5.64062 4.71062 7.46035C2.51907 7.46035 0.673781 7.9502 0.510329 7.99746C0.344726 8.04473 -0.173589 8.4207 0.0608355 8.37344C0.540439 8.2209 2.79436 7.87285 4.76654 8.04258C4.87407 9.77207 5.8849 12.0236 5.8849 12.0236C5.8849 12.0236 3.71916 15.1604 3.71916 17.399C3.71916 17.9898 3.93853 19.15 5.49562 19.15C6.79894 19.15 8.29797 18.2842 8.57326 18.1252C8.33238 18.4689 8.15387 19.1199 8.15387 19.4207C8.15387 19.5604 8.20979 19.8482 8.43991 20.0695C8.80768 19.7043 9.169 19.3412 9.61634 18.8965C9.13459 18.8084 9.07007 18.4518 9.07007 18.3594C9.07007 18.0371 9.3217 17.6547 9.3217 17.6547C9.3217 17.6547 10.4938 16.8641 10.5669 16.7803L11.4315 18.3916C11.4315 18.3916 10.5454 18.9158 9.85077 18.9158C9.76259 18.9158 9.68516 18.9094 9.61634 18.8965C9.169 19.3412 8.80768 19.7043 8.43991 20.0695C8.61197 20.235 8.87865 20.3617 9.30449 20.3617C10.5949 20.3617 12.038 19.3734 12.038 19.3734C12.038 19.3734 13.3994 21.6336 14.5608 22.6691C14.8748 22.9484 15.1759 23 15.1759 23C15.1759 23 14.0188 21.8871 12.4961 19.0232C13.9113 18.1488 15.3845 16.0885 15.3845 16.0885C15.3845 16.0885 15.5587 16.0928 16.9029 16.0928C19.0084 16.0928 22 15.6502 22 13.9787C22 12.2535 19.3095 10.6959 19.3095 10.6959ZM19.5461 9.65605C19.5461 10.2662 18.9632 10.2598 18.9632 10.2598L18.5223 10.2877L17.176 9.64102C17.176 9.64102 17.9632 8.4293 18.1481 8.08984C18.2879 8.17148 19.5461 8.95781 19.5461 9.65605ZM6.81184 5.3248C7.12584 5.3248 7.43554 5.70723 7.56243 6.03164C7.56243 6.24434 7.67427 7.49473 7.67427 7.49473L5.85694 7.42812C5.85694 5.78887 6.49784 5.3248 6.81184 5.3248ZM6.62473 16.6965C5.63112 16.6965 5.4268 16.1443 5.4268 15.6459C5.4268 14.518 6.32579 12.9432 6.32579 12.9432C6.32579 12.9432 7.33446 15.0637 9.09587 15.9574C8.2227 16.4709 7.50006 16.6965 6.62473 16.6965ZM12.0208 18.0371C11.5971 17.2959 11.2853 16.5225 11.2853 16.5225C11.2853 16.5225 13.0252 16.6363 13.9607 15.6695C13.3779 15.9316 12.4488 16.2625 11.367 16.1615L16.062 11.2416C15.9652 11.1256 15.4555 10.7689 15.3307 10.7088C14.6576 11.5187 12.0402 14.316 9.61634 15.6996C6.54731 14.0281 5.9021 9.10605 5.83758 8.08555L7.51297 8.24668C7.51297 8.24668 6.88282 9.36172 6.88282 10.1824C6.88282 11.0031 6.98175 11.0482 6.98175 11.0482C6.98175 11.0482 6.96024 9.61523 7.84417 8.51094C8.51949 12.0945 9.22061 13.9314 9.76904 15.0271C10.0486 14.9111 10.5691 14.6812 10.5691 14.6812C10.5691 14.6812 9.0206 10.2211 9.10663 7.20254C9.59483 6.94258 10.2486 6.67832 10.9928 6.54082C10.9756 6.34746 10.9347 6.1541 10.8508 5.96289C10.2874 6.09395 9.68301 6.30234 9.11738 6.63535C9.16685 4.95312 9.73248 3.43203 10.7347 3.43203C11.724 3.43203 13.137 5.76523 13.137 5.76523C13.137 5.76523 12.0939 5.67285 10.8508 5.96074C10.9347 6.1541 10.9756 6.34746 10.9928 6.54082C11.3197 6.48066 11.6638 6.44199 12.0208 6.44199C15.1092 6.44199 17.5911 7.76973 17.5911 7.76973L16.6211 9.12539C16.6211 9.12539 15.7544 7.55918 14.5328 7.27988C15.178 7.75898 15.8985 8.39492 16.2749 9.30801C13.7156 8.30684 10.6272 7.78047 9.6357 7.66445C9.54967 8.02969 9.56042 8.55176 9.56042 8.55176C9.56042 8.55176 13.7026 9.31445 16.7158 11.0375C16.6964 14.808 12.5886 17.6998 12.0208 18.0371ZM15.9437 15.2205C15.9437 15.2205 17.2319 13.534 17.2104 11.3018C17.2104 11.3018 19.2858 12.5865 19.2858 13.8412C19.288 15.242 15.9437 15.2205 15.9437 15.2205Z" fill="black"/>
<path d="M8.15387 19.4207C8.15387 19.1221 8.33238 18.4689 8.57111 18.1252C8.97759 17.9211 9.3217 17.6547 9.3217 17.6547C9.3217 17.6547 9.06791 18.0371 9.06791 18.3594C9.06791 18.4518 9.13244 18.8084 9.61419 18.8965C9.68301 18.9094 9.76044 18.9158 9.84861 18.9158C10.5454 18.9158 11.4294 18.3916 11.4294 18.3916C8.58616 20.9375 8.15387 19.4572 8.15387 19.4207ZM8.61412 14.9691L8.57971 14.9842L8.53885 15.01C8.37754 15.1045 8.227 15.1818 8.0786 15.2506C8.384 15.5213 8.72165 15.7684 9.09587 15.9574C9.25718 15.8801 9.50235 15.7598 9.61634 15.7018C9.24857 15.4998 8.91522 15.2506 8.61412 14.9691ZM5.7279 16.4236C5.49777 16.2174 5.4268 15.9252 5.4268 15.6459C5.4268 14.518 6.32579 12.9432 6.32579 12.9432L5.8849 12.0258C5.8849 12.0258 3.65679 15.373 5.72145 16.4387C5.72575 16.4258 5.7236 16.4365 5.7279 16.4236ZM19.2514 14.0818C18.8901 15.2398 15.9437 15.2205 15.9437 15.2205L15.3845 16.0885C15.3845 16.0885 15.5501 16.0928 16.69 16.0949C16.69 16.0949 19.0256 15.9037 19.2514 14.0818ZM16.6448 12.2449C16.6448 12.2449 16.834 12.3674 17.0857 12.5607C17.1653 12.1676 17.2147 11.7465 17.2104 11.3018C17.1007 11.2352 16.8211 11.0869 16.7179 11.0396C16.7158 11.4393 16.6598 11.826 16.5738 12.2041C16.6018 12.2213 16.6276 12.2363 16.6448 12.2449ZM19.5461 9.65605C19.5461 10.2662 18.9632 10.2598 18.9632 10.2598L18.5223 10.2877L19.3095 10.6938C21.8516 10.5906 19.8966 8.61406 18.1481 8.08984C18.2879 8.17148 19.5461 8.95781 19.5461 9.65605ZM10.425 3.48789C10.5239 3.45566 10.625 3.43418 10.7347 3.43418C11.724 3.43418 13.137 5.76738 13.137 5.76738L14.1371 5.82969C14.1371 5.82969 13.907 5.34844 13.5263 4.69102C13.0037 3.84453 11.3928 3.00234 10.425 3.48789ZM6.71076 4.40312C5.73005 4.3 5.76016 7.11875 5.85694 7.42812C5.85694 5.79102 6.49784 5.3248 6.81184 5.3248C7.12584 5.3248 7.43554 5.70723 7.56243 6.03164C7.54738 5.54824 7.54953 5.13574 7.54953 5.13574C7.54953 5.13574 7.1581 4.48906 6.71076 4.40312ZM10.2185 6.68047C10.2228 6.48926 10.2422 6.30879 10.2637 6.13047C9.87873 6.25508 9.48945 6.41621 9.11738 6.63535C9.10663 6.86523 9.11953 6.97051 9.10663 7.20469C9.41418 7.03926 9.79485 6.87812 10.2164 6.74277C10.2164 6.72344 10.2164 6.7041 10.2185 6.68047ZM12.0101 18.0371C11.5864 17.2959 11.2724 16.5225 11.2724 16.5225C11.2724 16.5225 13.0144 16.6363 13.95 15.6695C13.365 15.9316 12.438 16.2625 11.3541 16.1615C11.1261 16.4 10.8508 16.5826 10.554 16.7803L11.4186 18.3916C11.4186 18.3916 12.0767 17.9963 12.0101 18.0371ZM12.4832 19.0232C12.6166 18.9416 12.0251 19.3734 12.0251 19.3734C12.0251 19.3734 13.3843 21.6336 14.5479 22.6691C14.8619 22.9484 15.1608 23 15.1608 23C15.1608 23 14.0059 21.8871 12.4832 19.0232ZM20.2429 2.5791C20.0794 3.65332 18.3288 6.74707 18.1911 6.85234C18.0191 6.77285 18.7116 7.07793 18.7116 7.07793C18.7116 7.07793 19.088 6.27871 19.3245 5.82969C19.559 5.38281 20.2235 3.63828 20.2816 3.23867C20.3569 2.73809 20.2429 2.5791 20.2429 2.5791ZM17.5932 7.77187L16.6211 9.12754C16.6211 9.12754 15.7544 7.56133 14.5328 7.28203C15.0253 7.64941 15.5608 8.10703 15.9544 8.70859C16.077 8.89551 16.1867 9.09316 16.2749 9.31016C16.7803 9.50137 17.219 9.6582 17.176 9.64102C17.176 9.64102 17.9632 8.4293 18.1481 8.08984C18.1997 8.11992 17.5932 7.77187 17.5932 7.77187ZM7.67427 7.49687L5.85694 7.42812C5.82683 7.61074 5.83758 7.89863 5.83758 8.08555L7.51297 8.24668C7.51297 8.24668 6.88497 9.36172 6.88497 10.1846C6.88497 11.0053 6.98175 11.0482 6.98175 11.0482C6.98175 11.0482 6.96454 9.77637 7.70223 8.7043C7.70008 8.70215 7.69793 8.70215 7.69793 8.7C7.70008 8.70215 7.70223 8.7043 7.70223 8.7043C7.74739 8.63984 7.79471 8.57539 7.84632 8.51094C7.73019 7.86426 7.67427 7.49687 7.67427 7.49687ZM4.71062 7.46035C2.51907 7.46035 0.673781 7.9502 0.508178 7.99746C0.342576 8.04473 -0.17574 8.4207 0.0608355 8.37344C0.540439 8.2209 2.79436 7.87285 4.76654 8.04473C4.72568 7.67949 4.71062 7.46035 4.71062 7.46035Z" fill="black"/>
</svg>
