<svg width="24" height="24" viewBox="0 0 24 24" fill="none" xmlns="http://www.w3.org/2000/svg">
<path d="M6.12462 20C4 20 4 17.8828 4 17.8828C4 17.8828 4 9.41251 4 7.29397C4 5.1763 6.12462 5.1763 6.12462 5.1763C6.12462 5.1763 8.24967 5.1763 10.3747 5.1763C12.5002 5.1763 14.6248 7.29397 14.6248 7.29397C14.6248 1.12619 16.5796 9.5813 18.8749 7.29397C20.3776 5.79693 21 14.7056 21 14.7056L18.8749 13.6479C18.8749 13.6479 18.8749 11.5297 15.6876 9.41251C11.7337 6.785 7.18736 8.51619 7.18736 12.5884C7.18736 20.8963 21 17.8828 21 17.8828C21 17.8828 21 20 18.8749 20C16.7503 20 6.12462 20 6.12462 20Z" fill="black"/>
<path d="M16.7503 5.17672C16.7503 4.59245 17.2259 2 17.8122 2C18.3994 2 18.8745 4.59245 18.8745 5.17672C18.8745 5.7623 18.3989 6.23578 17.8122 6.23578C17.2259 6.23578 16.7503 5.7623 16.7503 5.17672Z" fill="black"/>
</svg>
