<svg width="24" height="24" viewBox="0 0 24 24" fill="none" xmlns="http://www.w3.org/2000/svg">
<path d="M20.9015 6.00003C19.1925 6.00003 17.8026 7.44837 17.8026 9.22875C17.8026 9.24301 17.8026 9.25727 17.8034 9.27071L15.8071 12.2872C15.4837 12.2725 15.1592 12.3312 14.8515 12.4632C14.7158 12.5206 14.5888 12.5915 14.4695 12.673L5.47273 8.79771C5.32142 8.06804 4.84248 7.42392 4.13246 7.11511C2.98103 6.61563 1.65405 7.18518 1.17393 8.38541C0.6942 9.58482 1.24118 10.9676 2.39261 11.4675C2.95014 11.7095 3.56476 11.7107 4.12386 11.4715C4.25249 11.4161 4.37369 11.3477 4.48942 11.2715L13.5062 15.1557C13.6618 15.8785 14.1388 16.5132 14.8425 16.8184C15.9939 17.3191 17.3213 16.7487 17.8007 15.5501C17.925 15.2372 17.9832 14.9084 17.9746 14.5805L20.8311 12.4571C20.8546 12.4579 20.878 12.4583 20.9015 12.4583C22.6105 12.4583 24 11.0091 24 9.22875C24 7.44837 22.6105 6.00003 20.9015 6.00003ZM2.59162 10.97C1.92226 10.6795 1.5176 10.002 1.5176 9.28904C1.5176 9.05601 1.56061 8.82012 1.6521 8.59278C2.02157 7.66674 3.04554 7.22715 3.93345 7.61256C4.35258 7.79426 4.66497 8.12752 4.84248 8.52556L3.8099 8.08067C3.15541 7.7967 2.40316 8.11937 2.12987 8.80178C1.85736 9.4846 2.1674 10.2693 2.8219 10.5532L3.8576 10.9989C3.44512 11.1558 2.99862 11.1476 2.59162 10.97ZM17.3241 15.3419C16.953 16.2676 15.9302 16.7071 15.0411 16.3217C14.631 16.1437 14.3213 15.8182 14.1427 15.4299L15.1514 15.865C15.8071 16.1494 16.5593 15.8259 16.8318 15.1439C17.1051 14.4615 16.7951 13.6777 16.1398 13.3933L15.097 12.9439C15.4994 12.785 15.9568 12.7793 16.3841 12.9643C16.815 13.1509 17.1493 13.5017 17.3264 13.9506C17.5039 14.3996 17.5031 14.8946 17.3241 15.3419ZM20.9015 11.3807C19.7634 11.3807 18.8371 10.4151 18.8371 9.22875C18.8371 8.04319 19.7634 7.07763 20.9015 7.07763C22.0396 7.07763 22.9663 8.04319 22.9663 9.22875C22.9663 10.4151 22.0396 11.3807 20.9015 11.3807ZM20.9046 10.8413C20.0488 10.8413 19.3544 10.1181 19.3544 9.22549C19.3544 8.33285 20.0488 7.60889 20.9046 7.60889C21.7613 7.60889 22.456 8.33285 22.456 9.22549C22.456 10.1181 21.7613 10.8413 20.9046 10.8413Z" fill="black"/>
</svg>
