<svg width="18" height="18" viewBox="0 0 24 24" fill="none" xmlns="http://www.w3.org/2000/svg">
<path xmlns="http://www.w3.org/2000/svg" d="M8.43899 0C2.6594 0 0.164695 4.97386 0.164695 4.97386L0.899039 5.4821C0.899039 5.4821 -0.025051 7.18118 0.000521113 9.36048C0.000521113 13.8092 3.66332 18 9.05526 18C13.9536 18 18 14.1453 18 9.37141C18 3.14524 13.0062 0 8.43899 0ZM8.48913 1.51772C13.0047 1.51772 16.5087 5.03587 16.5087 9.12589C16.5087 13.4616 13.1359 16.4768 9.20568 16.4768C6.31314 16.4768 3.70377 14.3471 3.70377 11.4271C3.70377 9.74058 4.63091 8.56479 5.66984 7.93815L5.82188 8.09766C5.53756 8.31276 4.72684 9.57185 4.72684 10.8094C4.72684 13.1068 6.59026 14.6979 8.93799 14.6979C11.9286 14.6979 13.9231 12.2318 13.9231 9.3683C13.9231 6.03668 10.8814 3.20825 7.22102 3.20825C5.19642 3.20825 3.47804 4.05008 2.49065 4.79322L2.33699 4.65874C3.62879 2.73304 5.86582 1.51772 8.48913 1.51772ZM7.14176 4.70486C9.47763 4.70486 11.7582 6.19895 12.3275 8.31973L12.1204 8.39557C11.0983 7.0906 9.42354 6.00913 7.44585 6.00913C3.80666 6.00913 1.89547 9.20637 2.17605 11.8767L1.96173 11.9526C1.96173 11.9526 1.55978 11.0951 1.55978 10.0783C1.55978 7.13377 4.0608 4.70486 7.14176 4.70486ZM8.68566 8.40025C9.79158 8.40025 10.676 9.26689 10.676 10.2957C10.676 11.147 10.1107 11.6515 10.1107 11.6515L10.7803 12.1043C10.7803 12.1043 10.1163 13.1122 8.76087 13.1122C7.46432 13.1122 6.31764 12.1004 6.31764 10.7398C6.31764 9.33783 7.56493 8.40025 8.68566 8.40025Z" fill="#151B3D"/>
</svg>
