<svg id="Layer_1" enable-background="new 0 0 512 512" height="512" viewBox="0 0 512 512" width="512" xmlns="http://www.w3.org/2000/svg"><g><path d="m388 0h-332c-8.836 0-16 7.164-16 16v96c0 8.836 7.164 16 16 16h240v28c0 19.851 16.149 36 36 36h56c19.851 0 36-16.149 36-36v-44-76c0-19.851-16.149-36-36-36zm-316 32h316c2.206 0 4 1.794 4 4v60h-80-240zm320 124c0 2.206-1.794 4-4 4h-56c-2.206 0-4-1.794-4-4v-28h64z"/><path d="m360 512c-61.757 0-112-50.243-112-112 0-25.774 17.364-60.094 51.61-102.006 24.364-29.819 48.373-52.65 49.384-53.607 6.172-5.849 15.84-5.849 22.012 0 1.011.958 25.02 23.789 49.384 53.607 34.246 41.912 51.61 76.232 51.61 102.006 0 61.757-50.243 112-112 112zm.002-233.436c-9.048 9.264-22.502 23.611-35.818 39.93-38.444 47.112-44.184 71.288-44.184 81.506 0 44.112 35.888 80 80 80s80-35.888 80-80c0-10.245-5.767-34.49-44.39-81.759-13.275-16.246-26.619-30.475-35.608-39.677z"/></g></svg>