<svg enable-background="new 0 0 512 512" height="512" viewBox="0 0 512 512" width="512" xmlns="http://www.w3.org/2000/svg"><g><path d="m497 182c-8.284 0-15 6.716-15 15v15h-151v-90h15c8.284 0 15-6.716 15-15s-6.716-15-15-15h-15v-77c0-8.284-6.716-15-15-15h-120c-8.284 0-15 6.716-15 15v77h-15c-8.284 0-15 6.716-15 15s6.716 15 15 15h15v90h-151v-15c0-8.284-6.716-15-15-15s-15 6.716-15 15v180c0 8.284 6.716 15 15 15s15-6.716 15-15v-15h196c8.284 0 15-6.716 15-15v-23.787l34.394 34.394c2.813 2.813 6.628 4.393 10.606 4.393h196v15c0 8.284 6.716 15 15 15s15-6.716 15-15v-180c0-8.284-6.716-15-15-15zm-196-152v62h-90v-62zm-8.787 302-55.607-55.607c-9.417-9.417-25.606-2.746-25.606 10.607v45h-181v-90h166c8.284 0 15-6.716 15-15v-105h90v105c0 8.284 6.716 15 15 15h166v90z"/><path d="m268.99 399.499c-5.753-9.962-20.198-10.013-25.979 0l-25.997 45.02c-3.935 6.812-6.014 14.586-6.014 22.481 0 24.813 20.187 45 45 45s45-20.187 45-45c0-7.895-2.079-15.669-6.013-22.482zm-12.99 82.501c-8.271 0-15-6.729-15-15 0-6.687 3.042-8.215 15-30.004 11.974 21.818 15 23.318 15 30.004 0 8.271-6.729 15-15 15z"/></g></svg>