<svg id="Layer_1" xmlns="http://www.w3.org/2000/svg" viewBox="0 0 297.6 297.6"><style>.st0{fill:#ffa200}</style><path id="bg" class="st0" d="M0 0h297.6v297.6H0z"/><path d="M170.8 80h-6.7v-1.2c1.8 0 3-.4 2.2-2-1.2-2.4 4.1-2.3 4.9-1.8 1.4 1 .5 3.7-.4 5zm-9.2 1.6h8.1c-.9 1.4-3.4 6-5.1 6-.6-.9-2.7-3.9-3-6zm26.4-9.7c-.4.2-.8.4-1.3.5-2.6 3.6-1 3.2-5.5 6.2 0 6.1.2 6.7 1.6 12.1 0 .1 0 .3-.1.4s-.2.2-.3.2c-1.1.2-2.7.6-3.6.8 0 .2.5 3.6 0 6.2-.8 4-10.3 12.8-12.6 13.2-3.2.6-6.7-2.2-12.2-4.6-1.5-.7-6.6-4-9.3-4.9-2.2-.7-4.4 4.6-1.7 6.1 1.3.7 3.3 1.6 4 3.2 1.9 5-.3 24.1-4.2 27.9-1.9 0-3.4-1.7-4.8-1.3-2.5 1.4-.9 8.9 0 10.3 15.2 15.7 13.4 27.3 19.9 36 3 0 1 3.1 3.3 6.8.6 1.9-.2 5.1-.5 6.3v4.7c-.2.5-.3 1-.5 1.5v4.1c-.5 2-1 4.7-1.4 6.6-.9 4 2.6 7.1.5 10.8 0 2.3 0 1.9-1.4 3.7 0 3.6-.9 11.2 0 13.9.6 1.9 7.4 9.8 9.1 10.5 4.1 1.8 10.1 1.4 8.2 7.9-12 3.7-19.7-2.1-26-2.2l-.3 1.1c-4.1 0-7.4-1-8.3-1.3 0-1.1 1.3-9.6 1.8-10.9.5-.7.9-1.4 1.4-2.2.5-1.4-.5-12-.6-14.9-2.6-1.9-3.1-7.6-3.1-10.7-.7-2.4-.7-5.3-.9-8.5-.1-1.5-1-3.7-.4-5.5.4-1.3 1.8-1.8 2.2-2.9v-3.5c.7-3.7.5-5.5-1.8-7.7-5.6.1-6.4.3-9.5-4.4-1-1.5-8.8-13.9-9.6-14.2-6.5-2.8-5.2-1.7-8.1-6.8-.1 0-1.9.6-3.4 2.9-2.3 3.5-6.5 14.8-7.6 18.8-.7 2.2 0 4.7-1 6.5-.7 1.3-3 1.8-3.5 2.7-2.3 4.1-.6 3.8-4.9 6.7-.8 1-.8 2.5-1.4 3.7-.3.5-.7.9-1 1.4-.7 1.6.8 4.4.5 5.4-.8 2.6-1.7 5.2-2.8 7.6-2 4.7-1.7 11-3.7 13.9-1 1.5-3.5 0-5.3 1.2-.1 1-3.1 7.8-3.6 9.7v10.7c.6 1.8 2.1 3.5 1.6 5.8-.5 2.4-9 2.4-13.6 1.7-3.1-.4-4-2.7-4-5.3.1-3.1 6.3-23.3 6-24.6-4.8-5.4 1.3-10.9 3.1-15.9.9-2.4.3-5.8 1.3-8.1 1.7-3.1 3.4-6.1 5-9.2 3.1-2.9 1.7-3 3.4-5.6 1.4-2.2 3.2-3.8 2.2-7.2-2-6.9 2.4-16.7 2.7-24-.8-.8-3.4-.6-3.8-2.8-.7-4.5 1.7-12.4 3.2-13.2.7-.3 1.4 0 2-.4 0-3.4-3.3-22.1-.8-23.1 1.6-.6 5.2-.9 5.9-1.2 0-.8-.6-2.5-1.3-2.6-1.1-.2-3.4-.6-5.2-1-5.6-1.3-.4-23.4-.3-23.5 1.5-2 8.7.7 9.6-2.8 2.4-3.1-1.8-14.8 6.3-29.2 2.8-4.9 8-9.8 14.2-7.7 2.1.7.8 3.7 4.4.5.1-1.8-.8-3.4-1.3-4.9-6-18 14.4-27.7 28.7-17.4 1.6.6 2.5 1 3.7 1.9.8 4.1 4.8 11.3.8 16.1-1.6.4-3.7 1.3-4.9 2.2 0 1.6.2 3.2.5 4.1.3.9.8 1.2-.5 1.8-.2.1-.1.6 0 .8 3.3.7 6.9-.6 9.1-1.5h2.7v-3.4h1.3v-2.6h1.3V60h3.3v1.4h49.3V64h2.2v-9.4h1.8v7.6h4.2v4.3h13v-1.3h2.2v.6h6.2v3.6h-6.2v.6H231v-1.3h-13V70h-5.7v-.9h-2.5v2.6H188v.2z"/></svg>