<svg width="56" height="56" viewBox="0 0 56 56" fill="none" xmlns="http://www.w3.org/2000/svg">
<g clip-path="url(#clip0)">
<path d="M0.208008 27.9861H55.2565V45.0694C55.2565 45.5935 54.8315 46.0185 54.3074 46.0185H1.15717C0.633021 46.0185 0.208008 45.5935 0.208008 45.0694V27.9861Z" fill="#FFE15A"/>
<path d="M55.2565 27.9861H0.208008V10.9028C0.208008 10.3787 0.633021 9.95374 1.15717 9.95374H54.3075C54.8316 9.95374 55.2567 10.3787 55.2567 10.9028L55.2565 27.9861Z" fill="#4173CD"/>
<path d="M18.5576 46.6903H1.15717C0.633022 46.6903 0.208008 46.2653 0.208008 45.7412V11.5746C0.208008 11.0505 0.633022 10.6255 1.15717 10.6255H18.5576V46.6903Z" fill="#73AF00"/>
<path d="M36.9078 10.6261H18.5579V46.691H36.9078V10.6261Z" fill="#F5F5F5"/>
<path d="M54.3077 46.6903H36.9072V10.6256H54.3077C54.8318 10.6256 55.2568 11.0506 55.2568 11.5747V45.7413C55.2568 46.2655 54.8318 46.6903 54.3077 46.6903Z" fill="#FF4B55"/>
</g>
<defs>
<clipPath id="clip0">
<rect width="55.0486" height="55.0461" fill="white" transform="translate(0.208008 0.463135)"/>
</clipPath>
</defs>
</svg>
