<svg width="56" height="56" viewBox="0 0 56 56" fill="none" xmlns="http://www.w3.org/2000/svg">
<g clip-path="url(#clip0)">
<path d="M54.973 45.5665H1.82293C1.29879 45.5665 0.873779 45.1415 0.873779 44.6174V10.4509C0.873779 9.92682 1.29879 9.50183 1.82293 9.50183H54.9731C55.4972 9.50183 55.9223 9.92682 55.9223 10.4509V44.6174C55.9221 45.1415 55.4971 45.5665 54.973 45.5665Z" fill="#41479B"/>
<path d="M55.9221 10.4509C55.9221 9.92682 55.4971 9.50183 54.973 9.50183H50.7266L33.1434 21.0214V9.50183H23.6523V21.0214L6.06918 9.50183H1.82293C1.29879 9.50183 0.873779 9.92682 0.873779 10.4509V12.9055L15.9593 22.7887H0.873779V32.2794H15.9593L0.873779 42.1628V44.6174C0.873779 45.1415 1.29879 45.5665 1.82293 45.5665H6.06929L23.6525 34.0469V45.5665H33.1436V34.0469L50.7268 45.5665H54.9732C55.4973 45.5665 55.9224 45.1415 55.9224 44.6174V42.1628L40.8368 32.2795H55.9221V22.7889H40.8366L55.9221 12.9055V10.4509Z" fill="#F5F5F5"/>
<path d="M55.9221 24.687H31.2453V9.50183H25.5506V24.687H0.873779V30.3813H25.5506V45.5665H31.2453V30.3813H55.9221V24.687Z" fill="#FF4B55"/>
<path d="M20.1136 32.2794L0.900635 44.7504C0.967832 45.2088 1.34575 45.5664 1.8228 45.5664H3.13009L23.6001 32.2795H20.1136V32.2794Z" fill="#FF4B55"/>
<path d="M38.1162 32.2794H34.6296L55.0699 45.5468C55.5463 45.496 55.9223 45.1071 55.9223 44.6172V43.8369L38.1162 32.2794Z" fill="#FF4B55"/>
<path d="M0.873779 11.4979L18.2677 22.7881H21.7542L1.42674 9.59363C1.10204 9.74447 0.873779 10.0686 0.873779 10.4502V11.4979Z" fill="#FF4B55"/>
<path d="M36.6301 22.7889L55.8892 10.2878C55.8092 9.84459 55.4393 9.50195 54.973 9.50195H53.6133L33.1436 22.7889H36.6301Z" fill="#FF4B55"/>
</g>
<defs>
<clipPath id="clip0">
<rect width="55.0486" height="55.0461" fill="white" transform="translate(0.873779 0.0111084)"/>
</clipPath>
</defs>
</svg>
