<svg width="56" height="56" viewBox="0 0 56 56" fill="none" xmlns="http://www.w3.org/2000/svg">
<g clip-path="url(#clip0)">
<path d="M54.4116 46.0186H1.26141C0.737269 46.0186 0.312256 45.5936 0.312256 45.0695V10.903C0.312256 10.3789 0.737269 9.95386 1.26141 9.95386H54.4117C54.9358 9.95386 55.3608 10.3789 55.3608 10.903V45.0695C55.3607 45.5937 54.9357 46.0186 54.4116 46.0186Z" fill="#F5F5F5"/>
<path d="M55.3607 12.7282H0.312256V10.903C0.312256 10.3789 0.737269 9.95386 1.26141 9.95386H54.4117C54.9358 9.95386 55.3608 10.3789 55.3608 10.903L55.3607 12.7282Z" fill="#FF4B55"/>
<path d="M55.3607 21.0507H0.312256V23.8249H55.3607V21.0507Z" fill="#FF4B55"/>
<path d="M55.3607 15.5021H0.312256V18.2763H55.3607V15.5021Z" fill="#FF4B55"/>
<path d="M55.3607 29.3733H1.26141C0.737269 29.3733 0.312256 28.9483 0.312256 28.4242V26.599H55.3607V29.3733Z" fill="#FF4B55"/>
<path d="M55.3607 37.6967H0.312256V40.4709H55.3607V37.6967Z" fill="#FF4B55"/>
<path d="M54.4116 46.0185H1.26141C0.737269 46.0185 0.312256 45.5935 0.312256 45.0694V43.2443H55.3607V45.0695C55.3607 45.5936 54.9357 46.0185 54.4116 46.0185Z" fill="#FF4B55"/>
<path d="M55.3607 32.1481H0.312256V34.9223H55.3607V32.1481Z" fill="#FF4B55"/>
<path d="M24.9891 9.95398H1.26141C0.737269 9.95398 0.312256 10.3789 0.312256 10.903V28.4242C0.312256 28.9483 0.737269 29.3733 1.26141 29.3733H24.9892C25.5134 29.3733 25.9384 28.9483 25.9384 28.4242V10.903C25.9383 10.3789 25.5133 9.95398 24.9891 9.95398Z" fill="#41479B"/>
<path d="M2.97756 12.1324L3.18765 12.7624L3.85178 12.7674C3.93779 12.7682 3.97338 12.8778 3.90424 12.9289L3.36999 13.3235L3.5704 13.9566C3.59642 14.0385 3.50299 14.1065 3.433 14.0564L2.89273 13.6703L2.35246 14.0565C2.28246 14.1065 2.18925 14.0386 2.21505 13.9567L2.41546 13.3236L1.88121 12.929C1.81208 12.8778 1.84767 12.7683 1.93368 12.7675L2.59781 12.7625L2.8079 12.1325C2.83499 12.0508 2.95025 12.0508 2.97756 12.1324Z" fill="#F5F5F5"/>
<path d="M2.97756 15.4279L3.18765 16.0579L3.85178 16.063C3.93779 16.0638 3.97338 16.1734 3.90424 16.2245L3.36999 16.619L3.5704 17.2522C3.59642 17.3341 3.50299 17.4021 3.433 17.352L2.89273 16.9659L2.35246 17.3521C2.28246 17.4021 2.18925 17.3342 2.21505 17.2523L2.41546 16.6192L1.88121 16.2246C1.81208 16.1734 1.84767 16.0639 1.93368 16.0631L2.59781 16.0581L2.8079 15.428C2.83499 15.3464 2.95025 15.3464 2.97756 15.4279Z" fill="#F5F5F5"/>
<path d="M2.97756 18.7236L3.18765 19.3536L3.85178 19.3587C3.93779 19.3594 3.97338 19.4691 3.90424 19.5201L3.36999 19.9147L3.5704 20.5478C3.59642 20.6298 3.50299 20.6977 3.433 20.6476L2.89273 20.2615L2.35246 20.6477C2.28246 20.6977 2.18925 20.6299 2.21505 20.548L2.41546 19.9148L1.88121 19.5202C1.81208 19.4691 1.84767 19.3595 1.93368 19.3588L2.59781 19.3537L2.8079 18.7237C2.83499 18.6421 2.95025 18.6421 2.97756 18.7236Z" fill="#F5F5F5"/>
<path d="M2.97756 22.0193L3.18765 22.6493L3.85178 22.6544C3.93779 22.6551 3.97338 22.7648 3.90424 22.8159L3.36999 23.2104L3.5704 23.8436C3.59642 23.9255 3.50299 23.9935 3.433 23.9434L2.89273 23.5573L2.35246 23.9435C2.28246 23.9935 2.18925 23.9256 2.21505 23.8437L2.41546 23.2105L1.88121 22.816C1.81208 22.7648 1.84767 22.6552 1.93368 22.6545L2.59781 22.6494L2.8079 22.0194C2.83499 21.9377 2.95025 21.9377 2.97756 22.0193Z" fill="#F5F5F5"/>
<path d="M2.97756 25.3151L3.18765 25.9451L3.85178 25.9501C3.93779 25.9509 3.97338 26.0605 3.90424 26.1116L3.36999 26.5062L3.5704 27.1393C3.59642 27.2212 3.50299 27.2892 3.433 27.2391L2.89273 26.853L2.35246 27.2392C2.28246 27.2892 2.18925 27.2213 2.21505 27.1394L2.41546 26.5063L1.88121 26.1117C1.81208 26.0605 1.84767 25.951 1.93368 25.9502L2.59781 25.9452L2.8079 25.3152C2.83499 25.2333 2.95025 25.2333 2.97756 25.3151Z" fill="#F5F5F5"/>
<path d="M5.53567 13.748L5.74575 14.378L6.40988 14.3831C6.4959 14.3838 6.53148 14.4935 6.46235 14.5446L5.9281 14.9391L6.12851 15.5723C6.15453 15.6542 6.0611 15.7221 5.99111 15.672L5.45083 15.2859L4.91056 15.672C4.84057 15.722 4.74735 15.6542 4.77316 15.5723L4.97357 14.9391L4.43932 14.5446C4.37019 14.4934 4.40577 14.3838 4.49179 14.3831L5.15592 14.378L5.366 13.748C5.39299 13.6665 5.50846 13.6665 5.53567 13.748Z" fill="#F5F5F5"/>
<path d="M5.53567 17.0437L5.74575 17.6738L6.40988 17.6788C6.4959 17.6796 6.53148 17.7892 6.46235 17.8403L5.9281 18.2349L6.12851 18.868C6.15453 18.9499 6.0611 19.0179 5.99111 18.9678L5.45083 18.5816L4.91056 18.9678C4.84057 19.0178 4.74735 18.95 4.77316 18.868L4.97357 18.2349L4.43932 17.8403C4.37019 17.7891 4.40577 17.6796 4.49179 17.6788L5.15592 17.6738L5.366 17.0437C5.39299 16.9621 5.50846 16.9621 5.53567 17.0437Z" fill="#F5F5F5"/>
<path d="M5.53567 20.3395L5.74575 20.9695L6.40988 20.9746C6.4959 20.9753 6.53148 21.085 6.46235 21.1361L5.9281 21.5306L6.12851 22.1638C6.15453 22.2457 6.0611 22.3137 5.99111 22.2636L5.45083 21.8774L4.91056 22.2636C4.84057 22.3135 4.74735 22.2457 4.77316 22.1638L4.97357 21.5306L4.43932 21.1361C4.37019 21.0849 4.40577 20.9753 4.49179 20.9746L5.15592 20.9695L5.366 20.3395C5.39299 20.2579 5.50846 20.2579 5.53567 20.3395Z" fill="#F5F5F5"/>
<path d="M5.53567 23.6351L5.74575 24.2651L6.40988 24.2702C6.4959 24.2709 6.53148 24.3806 6.46235 24.4317L5.9281 24.8262L6.12851 25.4594C6.15453 25.5413 6.0611 25.6092 5.99111 25.5591L5.45083 25.1729L4.91056 25.5591C4.84057 25.6091 4.74735 25.5413 4.77316 25.4594L4.97357 24.8262L4.43932 24.4317C4.37019 24.3805 4.40577 24.2709 4.49179 24.2702L5.15592 24.2651L5.366 23.6351C5.39299 23.5536 5.50846 23.5536 5.53567 23.6351Z" fill="#F5F5F5"/>
<path d="M8.09377 12.1322L8.30386 12.7623L8.96799 12.7673C9.054 12.7681 9.08959 12.8777 9.02046 12.9288L8.48621 13.3234L8.68662 13.9565C8.71264 14.0384 8.6192 14.1064 8.54921 14.0563L8.00894 13.6701L7.46867 14.0563C7.39868 14.1063 7.30546 14.0384 7.33126 13.9565L7.53167 13.3234L6.99742 12.9288C6.92829 12.8776 6.96388 12.7681 7.04989 12.7673L7.71402 12.7623L7.92411 12.1322C7.9512 12.0506 8.06657 12.0506 8.09377 12.1322Z" fill="#F5F5F5"/>
<path d="M8.09377 15.4279L8.30386 16.058L8.96799 16.063C9.054 16.0638 9.08959 16.1734 9.02046 16.2245L8.48621 16.6191L8.68662 17.2522C8.71264 17.3341 8.6192 17.4021 8.54921 17.352L8.00894 16.9658L7.46867 17.352C7.39868 17.402 7.30546 17.3341 7.33126 17.2522L7.53167 16.6191L6.99742 16.2245C6.92829 16.1733 6.96388 16.0638 7.04989 16.063L7.71402 16.058L7.92411 15.4279C7.9512 15.3464 8.06657 15.3464 8.09377 15.4279Z" fill="#F5F5F5"/>
<path d="M8.09377 18.7236L8.30386 19.3536L8.96799 19.3587C9.054 19.3594 9.08959 19.4691 9.02046 19.5202L8.48621 19.9147L8.68662 20.5479C8.71264 20.6298 8.6192 20.6977 8.54921 20.6476L8.00894 20.2615L7.46867 20.6476C7.39868 20.6976 7.30546 20.6298 7.33126 20.5479L7.53167 19.9147L6.99742 19.5202C6.92829 19.469 6.96388 19.3594 7.04989 19.3587L7.71402 19.3536L7.92411 18.7236C7.9512 18.6421 8.06657 18.6421 8.09377 18.7236Z" fill="#F5F5F5"/>
<path d="M8.09377 22.0193L8.30386 22.6493L8.96799 22.6544C9.054 22.6552 9.08959 22.7648 9.02046 22.8159L8.48621 23.2105L8.68662 23.8436C8.71264 23.9255 8.6192 23.9935 8.54921 23.9434L8.00894 23.5572L7.46867 23.9434C7.39868 23.9934 7.30546 23.9255 7.33126 23.8436L7.53167 23.2105L6.99742 22.8159C6.92829 22.7647 6.96388 22.6552 7.04989 22.6544L7.71402 22.6493L7.92411 22.0193C7.9512 21.9377 8.06657 21.9377 8.09377 22.0193Z" fill="#F5F5F5"/>
<path d="M8.09377 25.3151L8.30386 25.9451L8.96799 25.9501C9.054 25.9509 9.08959 26.0606 9.02046 26.1116L8.48621 26.5062L8.68662 27.1393C8.71264 27.2213 8.6192 27.2892 8.54921 27.2391L8.00894 26.8529L7.46867 27.2391C7.39868 27.2891 7.30546 27.2213 7.33126 27.1393L7.53167 26.5062L6.99742 26.1116C6.92829 26.0604 6.96388 25.9509 7.04989 25.9501L7.71402 25.9451L7.92411 25.3151C7.9512 25.2334 8.06657 25.2334 8.09377 25.3151Z" fill="#F5F5F5"/>
<path d="M10.6521 13.748L10.8622 14.378L11.5263 14.3831C11.6124 14.3838 11.6479 14.4935 11.5788 14.5446L11.0446 14.9391L11.245 15.5723C11.271 15.6542 11.1776 15.7221 11.1076 15.672L10.5673 15.2859L10.027 15.672C9.95703 15.722 9.86381 15.6542 9.88961 15.5723L10.09 14.9391L9.55577 14.5446C9.48664 14.4934 9.52223 14.3838 9.60824 14.3831L10.2724 14.378L10.4825 13.748C10.5094 13.6665 10.6249 13.6665 10.6521 13.748Z" fill="#F5F5F5"/>
<path d="M10.6521 17.0437L10.8622 17.6738L11.5263 17.6788C11.6124 17.6796 11.6479 17.7892 11.5788 17.8403L11.0446 18.2349L11.245 18.868C11.271 18.9499 11.1776 19.0179 11.1076 18.9678L10.5673 18.5816L10.027 18.9678C9.95703 19.0178 9.86381 18.95 9.88961 18.868L10.09 18.2349L9.55577 17.8403C9.48664 17.7891 9.52223 17.6796 9.60824 17.6788L10.2724 17.6738L10.4825 17.0437C10.5094 16.9621 10.6249 16.9621 10.6521 17.0437Z" fill="#F5F5F5"/>
<path d="M10.6521 20.3395L10.8622 20.9695L11.5263 20.9746C11.6124 20.9753 11.6479 21.085 11.5788 21.1361L11.0446 21.5306L11.245 22.1638C11.271 22.2457 11.1776 22.3137 11.1076 22.2636L10.5673 21.8774L10.027 22.2636C9.95703 22.3135 9.86381 22.2457 9.88961 22.1638L10.09 21.5306L9.55577 21.1361C9.48664 21.0849 9.52223 20.9753 9.60824 20.9746L10.2724 20.9695L10.4825 20.3395C10.5094 20.2579 10.6249 20.2579 10.6521 20.3395Z" fill="#F5F5F5"/>
<path d="M10.6521 23.6351L10.8622 24.2651L11.5263 24.2702C11.6124 24.2709 11.6479 24.3806 11.5788 24.4317L11.0446 24.8262L11.245 25.4594C11.271 25.5413 11.1776 25.6092 11.1076 25.5591L10.5673 25.1729L10.027 25.5591C9.95703 25.6091 9.86381 25.5413 9.88961 25.4594L10.09 24.8262L9.55577 24.4317C9.48664 24.3805 9.52223 24.2709 9.60824 24.2702L10.2724 24.2651L10.4825 23.6351C10.5094 23.5536 10.6249 23.5536 10.6521 23.6351Z" fill="#F5F5F5"/>
<path d="M13.2103 12.1322L13.4204 12.7623L14.0846 12.7673C14.1706 12.7681 14.2062 12.8777 14.137 12.9288L13.6028 13.3234L13.8032 13.9565C13.8292 14.0384 13.7358 14.1064 13.6658 14.0563L13.1254 13.6701L12.5851 14.0563C12.5151 14.1063 12.4219 14.0384 12.4477 13.9565L12.6481 13.3234L12.1139 12.9288C12.0447 12.8776 12.0803 12.7681 12.1663 12.7673L12.8305 12.7623L13.0406 12.1322C13.0678 12.0506 13.1831 12.0506 13.2103 12.1322Z" fill="#F5F5F5"/>
<path d="M13.2103 15.4279L13.4204 16.058L14.0846 16.063C14.1706 16.0638 14.2062 16.1734 14.137 16.2245L13.6028 16.6191L13.8032 17.2522C13.8292 17.3341 13.7358 17.4021 13.6658 17.352L13.1254 16.9658L12.5851 17.352C12.5151 17.402 12.4219 17.3341 12.4477 17.2522L12.6481 16.6191L12.1139 16.2245C12.0447 16.1733 12.0803 16.0638 12.1663 16.063L12.8305 16.058L13.0406 15.4279C13.0678 15.3464 13.1831 15.3464 13.2103 15.4279Z" fill="#F5F5F5"/>
<path d="M13.2103 18.7236L13.4204 19.3536L14.0846 19.3587C14.1706 19.3594 14.2062 19.4691 14.137 19.5202L13.6028 19.9147L13.8032 20.5479C13.8292 20.6298 13.7358 20.6977 13.6658 20.6476L13.1254 20.2615L12.5851 20.6476C12.5151 20.6976 12.4219 20.6298 12.4477 20.5479L12.6481 19.9147L12.1139 19.5202C12.0447 19.469 12.0803 19.3594 12.1663 19.3587L12.8305 19.3536L13.0406 18.7236C13.0678 18.6421 13.1831 18.6421 13.2103 18.7236Z" fill="#F5F5F5"/>
<path d="M13.2103 22.0193L13.4204 22.6493L14.0846 22.6544C14.1706 22.6552 14.2062 22.7648 14.137 22.8159L13.6028 23.2105L13.8032 23.8436C13.8292 23.9255 13.7358 23.9935 13.6658 23.9434L13.1254 23.5572L12.5851 23.9434C12.5151 23.9934 12.4219 23.9255 12.4477 23.8436L12.6481 23.2105L12.1139 22.8159C12.0447 22.7647 12.0803 22.6552 12.1663 22.6544L12.8305 22.6493L13.0406 22.0193C13.0678 21.9377 13.1831 21.9377 13.2103 22.0193Z" fill="#F5F5F5"/>
<path d="M13.2103 25.3151L13.4204 25.9451L14.0846 25.9501C14.1706 25.9509 14.2062 26.0606 14.137 26.1116L13.6028 26.5062L13.8032 27.1393C13.8292 27.2213 13.7358 27.2892 13.6658 27.2391L13.1254 26.8529L12.5851 27.2391C12.5151 27.2891 12.4219 27.2213 12.4477 27.1393L12.6481 26.5062L12.1139 26.1116C12.0447 26.0604 12.0803 25.9509 12.1663 25.9501L12.8305 25.9451L13.0406 25.3151C13.0678 25.2334 13.1831 25.2334 13.2103 25.3151Z" fill="#F5F5F5"/>
<path d="M15.7683 13.748L15.9784 14.378L16.6426 14.3831C16.7286 14.3838 16.7642 14.4935 16.695 14.5446L16.1608 14.9391L16.3612 15.5723C16.3872 15.6542 16.2938 15.7221 16.2238 15.672L15.6835 15.2859L15.1432 15.672C15.0732 15.722 14.98 15.6542 15.0058 15.5723L15.2062 14.9391L14.672 14.5446C14.6029 14.4934 14.6384 14.3838 14.7245 14.3831L15.3886 14.378L15.5987 13.748C15.6259 13.6665 15.7411 13.6665 15.7683 13.748Z" fill="#F5F5F5"/>
<path d="M15.7683 17.0437L15.9784 17.6738L16.6426 17.6788C16.7286 17.6796 16.7642 17.7892 16.695 17.8403L16.1608 18.2349L16.3612 18.868C16.3872 18.9499 16.2938 19.0179 16.2238 18.9678L15.6835 18.5816L15.1432 18.9678C15.0732 19.0178 14.98 18.95 15.0058 18.868L15.2062 18.2349L14.672 17.8403C14.6029 17.7891 14.6384 17.6796 14.7245 17.6788L15.3886 17.6738L15.5987 17.0437C15.6259 16.9621 15.7411 16.9621 15.7683 17.0437Z" fill="#F5F5F5"/>
<path d="M15.7683 20.3395L15.9784 20.9695L16.6426 20.9746C16.7286 20.9753 16.7642 21.085 16.695 21.1361L16.1608 21.5306L16.3612 22.1638C16.3872 22.2457 16.2938 22.3137 16.2238 22.2636L15.6835 21.8774L15.1432 22.2636C15.0732 22.3135 14.98 22.2457 15.0058 22.1638L15.2062 21.5306L14.672 21.1361C14.6029 21.0849 14.6384 20.9753 14.7245 20.9746L15.3886 20.9695L15.5987 20.3395C15.6259 20.2579 15.7411 20.2579 15.7683 20.3395Z" fill="#F5F5F5"/>
<path d="M15.7683 23.6351L15.9784 24.2651L16.6426 24.2702C16.7286 24.2709 16.7642 24.3806 16.695 24.4317L16.1608 24.8262L16.3612 25.4594C16.3872 25.5413 16.2938 25.6092 16.2238 25.5591L15.6835 25.1729L15.1432 25.5591C15.0732 25.6091 14.98 25.5413 15.0058 25.4594L15.2062 24.8262L14.672 24.4317C14.6029 24.3805 14.6384 24.2709 14.7245 24.2702L15.3886 24.2651L15.5987 23.6351C15.6259 23.5536 15.7411 23.5536 15.7683 23.6351Z" fill="#F5F5F5"/>
<path d="M18.3267 12.1322L18.5368 12.7623L19.2009 12.7673C19.2869 12.7681 19.3225 12.8777 19.2534 12.9288L18.7191 13.3234L18.9195 13.9565C18.9455 14.0384 18.8521 14.1064 18.7821 14.0563L18.2419 13.6701L17.7016 14.0563C17.6316 14.1063 17.5384 14.0384 17.5642 13.9565L17.7646 13.3234L17.2303 12.9288C17.1612 12.8776 17.1968 12.7681 17.2828 12.7673L17.9469 12.7623L18.157 12.1322C18.184 12.0506 18.2995 12.0506 18.3267 12.1322Z" fill="#F5F5F5"/>
<path d="M18.3267 15.4279L18.5368 16.058L19.2009 16.063C19.2869 16.0638 19.3225 16.1734 19.2534 16.2245L18.7191 16.6191L18.9195 17.2522C18.9455 17.3341 18.8521 17.4021 18.7821 17.352L18.2419 16.9658L17.7016 17.352C17.6316 17.402 17.5384 17.3341 17.5642 17.2522L17.7646 16.6191L17.2303 16.2245C17.1612 16.1733 17.1968 16.0638 17.2828 16.063L17.9469 16.058L18.157 15.4279C18.184 15.3464 18.2995 15.3464 18.3267 15.4279Z" fill="#F5F5F5"/>
<path d="M18.3267 18.7236L18.5368 19.3536L19.2009 19.3587C19.2869 19.3594 19.3225 19.4691 19.2534 19.5202L18.7191 19.9147L18.9195 20.5479C18.9455 20.6298 18.8521 20.6977 18.7821 20.6476L18.2419 20.2615L17.7016 20.6476C17.6316 20.6976 17.5384 20.6298 17.5642 20.5479L17.7646 19.9147L17.2303 19.5202C17.1612 19.469 17.1968 19.3594 17.2828 19.3587L17.9469 19.3536L18.157 18.7236C18.184 18.6421 18.2995 18.6421 18.3267 18.7236Z" fill="#F5F5F5"/>
<path d="M18.3267 22.0193L18.5368 22.6493L19.2009 22.6544C19.2869 22.6552 19.3225 22.7648 19.2534 22.8159L18.7191 23.2105L18.9195 23.8436C18.9455 23.9255 18.8521 23.9935 18.7821 23.9434L18.2419 23.5572L17.7016 23.9434C17.6316 23.9934 17.5384 23.9255 17.5642 23.8436L17.7646 23.2105L17.2303 22.8159C17.1612 22.7647 17.1968 22.6552 17.2828 22.6544L17.9469 22.6493L18.157 22.0193C18.184 21.9377 18.2995 21.9377 18.3267 22.0193Z" fill="#F5F5F5"/>
<path d="M18.3267 25.3151L18.5368 25.9451L19.2009 25.9501C19.2869 25.9509 19.3225 26.0606 19.2534 26.1116L18.7191 26.5062L18.9195 27.1393C18.9455 27.2213 18.8521 27.2892 18.7821 27.2391L18.2419 26.8529L17.7016 27.2391C17.6316 27.2891 17.5384 27.2213 17.5642 27.1393L17.7646 26.5062L17.2303 26.1116C17.1612 26.0604 17.1968 25.9509 17.2828 25.9501L17.9469 25.9451L18.157 25.3151C18.184 25.2334 18.2995 25.2334 18.3267 25.3151Z" fill="#F5F5F5"/>
<path d="M20.8848 13.748L21.0949 14.378L21.759 14.3831C21.845 14.3838 21.8806 14.4935 21.8115 14.5446L21.2772 14.9391L21.4776 15.5723C21.5037 15.6542 21.4102 15.7221 21.3402 15.672L20.8 15.2859L20.2597 15.672C20.1897 15.722 20.0965 15.6542 20.1223 15.5723L20.3227 14.9391L19.7884 14.5446C19.7193 14.4934 19.7549 14.3838 19.8409 14.3831L20.505 14.378L20.7151 13.748C20.7422 13.6665 20.8577 13.6665 20.8848 13.748Z" fill="#F5F5F5"/>
<path d="M20.8848 17.0437L21.0949 17.6738L21.759 17.6788C21.845 17.6796 21.8806 17.7892 21.8115 17.8403L21.2772 18.2349L21.4776 18.868C21.5037 18.9499 21.4102 19.0179 21.3402 18.9678L20.8 18.5816L20.2597 18.9678C20.1897 19.0178 20.0965 18.95 20.1223 18.868L20.3227 18.2349L19.7884 17.8403C19.7193 17.7891 19.7549 17.6796 19.8409 17.6788L20.505 17.6738L20.7151 17.0437C20.7422 16.9621 20.8577 16.9621 20.8848 17.0437Z" fill="#F5F5F5"/>
<path d="M20.8848 20.3395L21.0949 20.9695L21.759 20.9746C21.845 20.9753 21.8806 21.085 21.8115 21.1361L21.2772 21.5306L21.4776 22.1638C21.5037 22.2457 21.4102 22.3137 21.3402 22.2636L20.8 21.8774L20.2597 22.2636C20.1897 22.3135 20.0965 22.2457 20.1223 22.1638L20.3227 21.5306L19.7884 21.1361C19.7193 21.0849 19.7549 20.9753 19.8409 20.9746L20.505 20.9695L20.7151 20.3395C20.7422 20.2579 20.8577 20.2579 20.8848 20.3395Z" fill="#F5F5F5"/>
<path d="M20.8848 23.6351L21.0949 24.2651L21.759 24.2702C21.845 24.2709 21.8806 24.3806 21.8115 24.4317L21.2772 24.8262L21.4776 25.4594C21.5037 25.5413 21.4102 25.6092 21.3402 25.5591L20.8 25.1729L20.2597 25.5591C20.1897 25.6091 20.0965 25.5413 20.1223 25.4594L20.3227 24.8262L19.7884 24.4317C19.7193 24.3805 19.7549 24.2709 19.8409 24.2702L20.505 24.2651L20.7151 23.6351C20.7422 23.5536 20.8577 23.5536 20.8848 23.6351Z" fill="#F5F5F5"/>
<path d="M23.4431 12.1322L23.6532 12.7623L24.3174 12.7673C24.4034 12.7681 24.439 12.8777 24.3698 12.9288L23.8356 13.3234L24.036 13.9565C24.062 14.0384 23.9686 14.1064 23.8986 14.0563L23.3583 13.6701L22.818 14.0563C22.748 14.1063 22.6548 14.0384 22.6806 13.9565L22.881 13.3234L22.3468 12.9288C22.2777 12.8776 22.3132 12.7681 22.3993 12.7673L23.0634 12.7623L23.2735 12.1322C23.3006 12.0506 23.4158 12.0506 23.4431 12.1322Z" fill="#F5F5F5"/>
<path d="M23.4431 15.4279L23.6532 16.058L24.3174 16.063C24.4034 16.0638 24.439 16.1734 24.3698 16.2245L23.8356 16.6191L24.036 17.2522C24.062 17.3341 23.9686 17.4021 23.8986 17.352L23.3583 16.9658L22.818 17.352C22.748 17.402 22.6548 17.3341 22.6806 17.2522L22.881 16.6191L22.3468 16.2245C22.2777 16.1733 22.3132 16.0638 22.3993 16.063L23.0634 16.058L23.2735 15.4279C23.3006 15.3464 23.4158 15.3464 23.4431 15.4279Z" fill="#F5F5F5"/>
<path d="M23.4431 18.7236L23.6532 19.3536L24.3174 19.3587C24.4034 19.3594 24.439 19.4691 24.3698 19.5202L23.8356 19.9147L24.036 20.5479C24.062 20.6298 23.9686 20.6977 23.8986 20.6476L23.3583 20.2615L22.818 20.6476C22.748 20.6976 22.6548 20.6298 22.6806 20.5479L22.881 19.9147L22.3468 19.5202C22.2777 19.469 22.3132 19.3594 22.3993 19.3587L23.0634 19.3536L23.2735 18.7236C23.3006 18.6421 23.4158 18.6421 23.4431 18.7236Z" fill="#F5F5F5"/>
<path d="M23.4431 22.0193L23.6532 22.6493L24.3174 22.6544C24.4034 22.6552 24.439 22.7648 24.3698 22.8159L23.8356 23.2105L24.036 23.8436C24.062 23.9255 23.9686 23.9935 23.8986 23.9434L23.3583 23.5572L22.818 23.9434C22.748 23.9934 22.6548 23.9255 22.6806 23.8436L22.881 23.2105L22.3468 22.8159C22.2777 22.7647 22.3132 22.6552 22.3993 22.6544L23.0634 22.6493L23.2735 22.0193C23.3006 21.9377 23.4158 21.9377 23.4431 22.0193Z" fill="#F5F5F5"/>
<path d="M23.4431 25.3151L23.6532 25.9451L24.3174 25.9501C24.4034 25.9509 24.439 26.0606 24.3698 26.1116L23.8356 26.5062L24.036 27.1393C24.062 27.2213 23.9686 27.2892 23.8986 27.2391L23.3583 26.8529L22.818 27.2391C22.748 27.2891 22.6548 27.2213 22.6806 27.1393L22.881 26.5062L22.3468 26.1116C22.2777 26.0604 22.3132 25.9509 22.3993 25.9501L23.0634 25.9451L23.2735 25.3151C23.3006 25.2334 23.4158 25.2334 23.4431 25.3151Z" fill="#F5F5F5"/>
</g>
<defs>
<clipPath id="clip0">
<rect width="55.0486" height="55.0461" fill="white" transform="translate(0.312256 0.463135)"/>
</clipPath>
</defs>
</svg>
