<?xml version="1.0" standalone="no"?>
<!DOCTYPE svg PUBLIC "-//W3C//DTD SVG 20010904//EN"
 "http://www.w3.org/TR/2001/REC-SVG-20010904/DTD/svg10.dtd">
<svg version="1.0" xmlns="http://www.w3.org/2000/svg"
 width="700.000000pt" height="700.000000pt" viewBox="0 0 700.000000 700.000000"
 preserveAspectRatio="xMidYMid meet">
<metadata>
Created by potrace 1.11, written by Peter Selinger 2001-2013
</metadata>
<g transform="translate(0.000000,700.000000) scale(0.100000,-0.100000)"
fill="#000000" stroke="none">
<path d="M1369 6978 c-4 -173 1 -2511 5 -2515 10 -10 4247 -9 4253 1 4 6 8
2421 4 2519 -1 16 -109 17 -2131 17 l-2130 0 -1 -22z m920 -1685 l0 -323 -205
0 -204 0 -1 33 c-5 184 -2 594 4 603 5 8 69 11 207 11 l199 0 0 -324z"/>
<path d="M1369 4022 c0 -34 0 -2602 0 -2662 l1 -45 2130 0 c1417 0 2130 3
2131 10 0 15 1 2666 0 2696 l-1 26 -352 -1 -353 -1 -27 -155 c-42 -248 -50
-281 -78 -352 -59 -144 -193 -267 -349 -321 l-66 -22 -845 -2 c-735 -2 -853
-1 -903 13 -256 67 -413 258 -450 544 -4 25 -11 72 -17 105 -6 33 -13 80 -17
105 -12 97 31 88 -412 88 l-391 1 -1 -27z"/>
<path d="M2579 4036 c-1 -6 -1 -15 0 -19 1 -4 4 -24 7 -45 4 -20 7 -41 8 -47
2 -5 6 -32 10 -60 16 -109 38 -182 63 -209 53 -58 25 -56 873 -56 870 0 835
-2 884 68 14 20 28 53 31 72 3 19 8 42 10 50 2 8 6 33 10 55 8 55 24 155 30
182 l5 22 -965 -1 c-691 -1 -965 -4 -966 -12z"/>
<path d="M1370 855 c-1 -132 -1 -728 -1 -787 l1 -68 488 0 487 1 86 177 86
178 983 -1 983 0 86 -177 86 -177 488 -1 c268 0 487 3 488 8 1 10 1 875 0 887
-1 7 -717 10 -2131 10 l-2130 0 0 -50z"/>
</g>
</svg>
