<svg height="512pt" viewBox="0 -80 512 512" width="512pt" xmlns="http://www.w3.org/2000/svg"><path fill='#ffffff' d="m378.667969 266.667969h-85.335938c-8.832031 0-16-7.167969-16-16s7.167969-16 16-16h85.335938c55.871093 0 101.332031-45.460938 101.332031-101.335938 0-55.871093-45.460938-101.332031-101.332031-101.332031h-85.335938c-8.832031 0-16-7.167969-16-16s7.167969-16 16-16h85.335938c73.511719 0 133.332031 59.820312 133.332031 133.332031 0 73.515625-59.820312 133.335938-133.332031 133.335938zm0 0"/><path fill='#ffffff' d="m197.332031 32h-181.332031c-8.832031 0-16-7.167969-16-16s7.167969-16 16-16h181.332031c8.832031 0 16 7.167969 16 16s-7.167969 16-16 16zm0 0"/><path fill='#ffffff' d="m197.332031 266.667969h-181.332031c-8.832031 0-16-7.167969-16-16s7.167969-16 16-16h181.332031c8.832031 0 16 7.167969 16 16s-7.167969 16-16 16zm0 0"/><path fill='#ffffff' d="m197.332031 149.332031h-181.332031c-8.832031 0-16-7.167969-16-16s7.167969-16 16-16h181.332031c8.832031 0 16 7.167969 16 16s-7.167969 16-16 16zm0 0"/><path fill='#ffffff' d="m378.667969 352c-4.097657 0-8.191407-1.558594-11.308594-4.691406l-85.332031-85.335938c-6.25-6.25-6.25-16.382812 0-22.632812l85.332031-85.335938c6.25-6.25 16.382813-6.25 22.636719 0 6.25 6.253906 6.25 16.386719 0 22.636719l-74.027344 74.027344 74.027344 74.023437c6.25 6.253906 6.25 16.386719 0 22.636719-3.136719 3.113281-7.234375 4.671875-11.328125 4.671875zm0 0"/></svg>