<svg xmlns="http://www.w3.org/2000/svg" width="20" height="20" viewBox="0 0 20 20">
    <g fill="none" fill-rule="evenodd">
        <rect width="20" height="20" fill="#579DFB" rx="2"/>
        <path fill="#FFF" fill-rule="nonzero" d="M5.127 10.654A.457.457 0 0 1 5 10.358c0-.085.042-.212.127-.296l.592-.593c.17-.169.423-.169.593 0l.042.043 2.327 2.496a.204.204 0 0 0 .296 0l5.67-5.881h.041c.17-.17.424-.17.593 0l.592.592c.17.17.17.423 0 .593l-6.77 7.023a.384.384 0 0 1-.295.127.384.384 0 0 1-.296-.127l-3.3-3.554-.085-.127z"/>
    </g>
</svg>
