<svg xmlns="http://www.w3.org/2000/svg" width="24" height="24" viewBox="0 0 22 22">
    <path fill="#FFF" fill-rule="evenodd" d="M11 22C4.925 22 0 17.075 0 11S4.925 0 11 0s11 4.925 11 11-4.925 11-11 11zm-5.987-8.418c-.053.213.06.384.257.384h.726c.196 0 .385-.17.438-.392l.25-1.048h2.622v1.048c0 .221.151.392.348.392h.695c.189 0 .348-.17.348-.384V8.384c0-.205-.136-.384-.318-.384H8.391c-1.073 0-2.139.298-2.448 1.62l-.93 3.962zm2.267-3.57c.121-.512.5-.836.975-.836h1.05v2.173h-2.35l.325-1.338zm6.765 2.812c-.673 0-.975-.392-.975-1.21V8.392c0-.222-.159-.392-.348-.392h-.688c-.196 0-.355.17-.355.392v3.213c0 1.509.786 2.395 2.328 2.395h.665C16.214 14 17 13.114 17 11.605V8.392C17 8.17 16.841 8 16.645 8h-.688c-.189 0-.348.17-.348.392v3.222c0 .818-.302 1.21-.975 1.21h-.59z"/>
</svg>
