<svg xmlns="http://www.w3.org/2000/svg" width="10" height="10" viewBox="0 0 10 10">
    <g fill="#FFF" fill-rule="nonzero">
        <path d="M9.33 1.944h-.727c.096-.152.16-.322.177-.502A1.28 1.28 0 0 0 8.02.122a1.276 1.276 0 0 0-1.39.224l-.918.831a.974.974 0 0 0-1.442.001L3.35.346A1.276 1.276 0 0 0 1.96.122a1.28 1.28 0 0 0-.762 1.32c.018.18.081.35.177.502H.651a.65.65 0 0 0-.651.65v.977c0 .18.146.326.325.326h9.33c.18 0 .326-.146.326-.326v-.976a.65.65 0 0 0-.651-.651zm-5.316-.109v.109H2.483a.642.642 0 0 1-.27-1.222.626.626 0 0 1 .7.106l1.101.998v.01zm4.12-.48c-.024.339-.33.589-.669.589H5.967v-.108-.012L7.05.842a.65.65 0 0 1 .616-.158c.31.093.491.356.468.672zM.65 4.548V9.32c0 .36.292.65.652.65h3.037V4.549H.651zM5.641 4.548v5.424H8.68a.65.65 0 0 0 .65-.651V4.548H5.642z"/>
    </g>
</svg>
