<svg xmlns="http://www.w3.org/2000/svg" width="64" height="49" viewBox="0 0 64 49">
    <g fill="none" fill-rule="evenodd">
        <path d="M-9-9h80v67H-9z"/>
        <path fill="#FFF" fill-rule="nonzero" d="M10.325 48.712V45.26a2.106 2.106 0 0 0-.56-1.583 1.907 1.907 0 0 0-1.505-.604 2.005 2.005 0 0 0-1.845.978 1.907 1.907 0 0 0-1.735-.978 1.712 1.712 0 0 0-1.538.817v-.679H2v5.502h1.153v-3.027a1.33 1.33 0 0 1 .314-1.048c.249-.283.605-.435.971-.414.758 0 1.143.518 1.143 1.45v3.062h1.153v-3.05c-.048-.38.068-.764.316-1.046.248-.282.603-.435.969-.416.78 0 1.153.518 1.153 1.45v3.062l1.153-.023zm17.063-5.502H25.51v-1.669h-1.153v1.67h-1.044v1.093h1.065v2.532c0 1.278.473 2.037 1.824 2.037.504.002 1-.145 1.428-.426l-.33-1.024a2.038 2.038 0 0 1-1.01.31c-.55 0-.758-.368-.758-.92v-2.51h1.867l-.011-1.093zm9.742-.138a1.535 1.535 0 0 0-1.384.806v-.668h-1.131v5.502h1.142v-3.085c0-.909.374-1.415 1.099-1.415.244-.004.486.043.713.138l.352-1.151a2.344 2.344 0 0 0-.813-.15l.022.023zm-14.729.575a3.787 3.787 0 0 0-2.141-.575c-1.33 0-2.197.668-2.197 1.761 0 .898.637 1.45 1.812 1.623l.55.08c.626.093.922.265.922.576 0 .426-.417.668-1.197.668a2.708 2.708 0 0 1-1.746-.576l-.55.933a3.667 3.667 0 0 0 2.274.713c1.516 0 2.394-.748 2.394-1.795 0-1.048-.692-1.474-1.834-1.646l-.55-.08c-.493-.07-.889-.174-.889-.542 0-.368.374-.645 1-.645.578.007 1.146.17 1.647.472l.505-.967zm30.594-.575a1.535 1.535 0 0 0-1.383.806v-.668H50.48v5.502h1.143v-3.085c0-.909.373-1.415 1.098-1.415.244-.004.487.043.714.138l.351-1.151a2.344 2.344 0 0 0-.813-.15l.022.023zM38.278 45.95c-.028.781.26 1.54.794 2.087a2.585 2.585 0 0 0 2.007.79 2.665 2.665 0 0 0 1.889-.656l-.55-.967a2.24 2.24 0 0 1-1.372.495c-.876-.074-1.55-.84-1.55-1.76 0-.921.674-1.688 1.55-1.762.496.006.978.18 1.373.495l.549-.967a2.665 2.665 0 0 0-1.89-.656 2.585 2.585 0 0 0-2.006.79 2.852 2.852 0 0 0-.794 2.088v.023zm10.698 0v-2.74h-1.143v.668a1.959 1.959 0 0 0-1.647-.806c-1.517 0-2.746 1.288-2.746 2.878 0 1.589 1.23 2.877 2.746 2.877a1.959 1.959 0 0 0 1.647-.805v.667h1.143v-2.74zm-4.251 0c.05-.904.781-1.599 1.644-1.565.863.034 1.541.785 1.527 1.69-.014.904-.715 1.631-1.578 1.636a1.542 1.542 0 0 1-1.164-.516 1.7 1.7 0 0 1-.429-1.245zm-13.784-2.878c-1.516.022-2.729 1.329-2.707 2.918.02 1.59 1.267 2.86 2.784 2.837a3.096 3.096 0 0 0 2.18-.748l-.55-.886a2.43 2.43 0 0 1-1.526.575c-.785.071-1.481-.526-1.57-1.346h3.899v-.46c0-1.727-1.022-2.879-2.494-2.879l-.016-.011zm0 1.07c.345-.007.68.13.928.38.25.25.394.594.401.956h-2.746c.042-.769.661-1.362 1.395-1.336h.022zm28.617 1.82V41H58.46v2.878a1.959 1.959 0 0 0-1.648-.806c-1.516 0-2.746 1.288-2.746 2.878 0 1.589 1.23 2.877 2.746 2.877a1.959 1.959 0 0 0 1.648-.805v.667h1.098v-2.728zm1.906 1.95a.527.527 0 0 1 .494.328.559.559 0 0 1-.115.599.547.547 0 0 1-.38.161.548.548 0 0 1-.378-.932.527.527 0 0 1 .395-.155h-.016zm0 .973c.054 0 .109-.012.159-.035a.412.412 0 0 0 .126-.092.441.441 0 0 0 0-.575.38.38 0 0 0-.445-.092.4.4 0 0 0-.131.092.441.441 0 0 0 0 .575.406.406 0 0 0 .307.127h-.016zm.033-.685a.213.213 0 0 1 .142.046c.034.03.053.075.05.12a.142.142 0 0 1-.039.105.188.188 0 0 1-.115.051l.16.19h-.127l-.148-.19h-.05v.19h-.104v-.506l.23-.006zm-.121.098v.138h.12a.11.11 0 0 0 .066 0 .06.06 0 0 0 0-.052.06.06 0 0 0 0-.052.11.11 0 0 0-.065 0l-.121-.034zm-6.041-2.337c.05-.903.781-1.598 1.644-1.564.862.034 1.541.784 1.527 1.689-.014.905-.715 1.632-1.579 1.636a1.542 1.542 0 0 1-1.163-.515 1.7 1.7 0 0 1-.43-1.246zm-38.568 0v-2.75h-1.142v.667a1.959 1.959 0 0 0-1.648-.806c-1.516 0-2.746 1.288-2.746 2.878 0 1.589 1.23 2.877 2.746 2.877a1.959 1.959 0 0 0 1.648-.805v.667h1.142v-2.728zm-4.25 0c.05-.903.78-1.598 1.643-1.564.863.034 1.542.784 1.528 1.689-.014.905-.716 1.632-1.579 1.636a1.541 1.541 0 0 1-1.171-.51 1.7 1.7 0 0 1-.432-1.25h.01z"/>
        <g fill-rule="nonzero">
            <path fill="#FF5F00" d="M23.33 4.301h17.231V35.32H23.33z"/>
            <path fill="#EB001B" d="M24.424 19.814A19.705 19.705 0 0 1 31.945 4.3C23.871-2.055 12.277-1.129 5.31 6.428c-6.967 7.557-6.967 19.209 0 26.766 6.967 7.557 18.561 8.483 26.635 2.127a19.705 19.705 0 0 1-7.521-15.507z"/>
            <path fill="#F79E1B" d="M63.809 19.814a19.73 19.73 0 0 1-11.087 17.742 19.665 19.665 0 0 1-20.777-2.235 19.738 19.738 0 0 0 7.525-15.51c0-6.052-2.774-11.77-7.525-15.51a19.665 19.665 0 0 1 20.777-2.235 19.73 19.73 0 0 1 11.087 17.742v.006zM61.927 32.507v-1.028h.257v-.213h-.651v.213h.279v1.028h.115zm1.263 0v-1.241h-.196l-.23.886-.23-.886h-.175v1.24h.142v-.93l.214.807h.147l.214-.807v.94l.114-.01z"/>
        </g>
    </g>
</svg>
