<svg xmlns="http://www.w3.org/2000/svg" width="80" height="20" viewBox="0 0 80 20">
    <g fill="none" fill-rule="nonzero">
        <path fill="#253B80" d="M29.89 4h-4.466a.617.617 0 0 0-.613.513l-1.807 11.228a.36.36 0 0 0 .086.294c.07.081.174.128.283.127h2.132a.617.617 0 0 0 .613-.514l.487-3.028a.617.617 0 0 1 .613-.514h1.413c2.942 0 4.64-1.396 5.083-4.162.2-1.21.009-2.16-.57-2.826C32.51 4.387 31.385 4 29.89 4zm.515 4.1c-.244 1.572-1.469 1.572-2.653 1.572h-.674l.473-2.934a.37.37 0 0 1 .368-.308h.309c.806 0 1.567 0 1.96.45.234.27.306.669.217 1.22zm12.834-.05H41.1a.37.37 0 0 0-.368.308l-.094.587-.15-.213c-.463-.659-1.495-.88-2.526-.88-2.363 0-4.381 1.756-4.774 4.217-.205 1.228.086 2.403.796 3.221.652.753 1.585 1.067 2.694 1.067 1.904 0 2.96-1.2 2.96-1.2l-.095.582a.36.36 0 0 0 .084.295c.07.08.174.128.283.128h1.926a.617.617 0 0 0 .613-.514l1.156-7.177a.359.359 0 0 0-.084-.293.374.374 0 0 0-.282-.128zm-2.981 4.08c-.207 1.199-1.176 2.003-2.413 2.003-.621 0-1.117-.195-1.436-.565-.316-.368-.436-.89-.336-1.474.193-1.187 1.179-2.018 2.397-2.018.607 0 1.1.198 1.426.572.326.377.455.903.362 1.483zm14.37-4.08h-2.149c-.206 0-.398.1-.514.267l-2.964 4.28-1.256-4.113a.62.62 0 0 0-.596-.434h-2.111a.375.375 0 0 0-.304.152.359.359 0 0 0-.05.33l2.367 6.812-2.225 3.08a.359.359 0 0 0-.027.379.373.373 0 0 0 .33.197h2.147a.623.623 0 0 0 .51-.261l7.148-10.116a.359.359 0 0 0 .024-.377.373.373 0 0 0-.33-.196z"/>
        <path fill="#179BD7" d="M61.738 5H57.37a.602.602 0 0 0-.599.5l-1.767 10.902a.347.347 0 0 0 .083.285c.07.079.17.124.276.124h2.242a.421.421 0 0 0 .419-.35l.501-3.09c.047-.287.3-.499.6-.5h1.381c2.878 0 4.538-1.354 4.972-4.04.196-1.175.008-2.098-.557-2.745-.62-.71-1.72-1.085-3.183-1.085zm.504 3.983c-.238 1.525-1.435 1.525-2.594 1.525h-.658l.463-2.849a.36.36 0 0 1 .359-.299h.302c.788 0 1.532 0 1.917.438.23.26.299.649.211 1.185zm12.552-.05h-2.09a.36.36 0 0 0-.36.3l-.092.569-.147-.206c-.453-.64-1.462-.854-2.47-.854-2.31 0-4.284 1.704-4.669 4.094-.2 1.193.084 2.333.779 3.128.638.731 1.549 1.036 2.634 1.036 1.862 0 2.895-1.166 2.895-1.166l-.093.566a.348.348 0 0 0 .083.286c.069.08.17.125.277.124h1.883a.602.602 0 0 0 .6-.499l1.13-6.968a.348.348 0 0 0-.083-.286.369.369 0 0 0-.277-.124zm-2.916 3.963c-.2 1.163-1.15 1.944-2.36 1.944-.606 0-1.092-.19-1.404-.549-.309-.357-.425-.865-.328-1.43.19-1.154 1.153-1.96 2.344-1.96.594 0 1.076.192 1.394.555.32.366.447.877.354 1.44zM77.26 5.3l-1.793 11.102a.347.347 0 0 0 .082.285c.07.079.17.124.277.124h1.802c.3 0 .554-.211.6-.5L79.996 5.41a.348.348 0 0 0-.083-.286.368.368 0 0 0-.276-.124h-2.019a.362.362 0 0 0-.358.3z"/>
        <path fill="#253B80" d="M4.962 19l.334-2.126-.744-.017H1L3.469 1.171c.015-.099.1-.172.2-.171h5.99c1.989 0 3.36.415 4.077 1.233.336.384.55.785.654 1.227.108.463.11 1.017.004 1.692l-.008.049v.432l.336.191c.257.13.487.306.68.52.288.328.474.745.552 1.24.081.509.054 1.114-.078 1.8-.154.787-.401 1.474-.736 2.036-.295.503-.692.94-1.165 1.28a4.723 4.723 0 0 1-1.57.71 7.812 7.812 0 0 1-1.962.226h-.466c-.333 0-.657.12-.911.336-.254.218-.422.52-.475.85l-.035.192-.59 3.746-.027.138c-.007.043-.02.065-.037.08A.099.099 0 0 1 7.84 19H4.962z"/>
        <path fill="#179BD7" d="M15.305 5c-.02.12-.04.241-.065.367-.83 4.232-3.667 5.694-7.29 5.694H6.103a.894.894 0 0 0-.886.754l-.945 5.955-.267 1.688a.467.467 0 0 0 .466.542h3.273c.387 0 .716-.28.777-.66l.033-.165.616-3.886.04-.213a.786.786 0 0 1 .777-.662h.49c3.17 0 5.653-1.279 6.378-4.981.303-1.547.146-2.838-.656-3.747A3.127 3.127 0 0 0 15.305 5z"/>
        <path fill="#222D65" d="M14.14 4.278a6.835 6.835 0 0 0-.8-.167 10.783 10.783 0 0 0-1.613-.11H6.84c-.384-.001-.711.262-.77.62l-1.04 6.198L5 11c.067-.408.44-.709.878-.708h1.83c3.593 0 6.406-1.374 7.228-5.347.025-.118.045-.232.064-.344a4.537 4.537 0 0 0-.86-.323z"/>
        <path fill="#253B80" d="M6.22 4.878a.752.752 0 0 1 .75-.628h4.757c.563 0 1.09.036 1.57.112.324.05.645.125.958.224.236.077.455.167.658.272.238-1.487-.002-2.5-.823-3.417C13.184.432 11.55 0 9.46 0H3.392a.862.862 0 0 0-.858.718L.006 16.409a.503.503 0 0 0 .119.412c.099.113.243.179.396.179h3.747l.94-5.845L6.22 4.878z"/>
    </g>
</svg>
