<svg xmlns="http://www.w3.org/2000/svg" width="12" height="16" viewBox="0 0 12 16">
    <g fill="#FFF" fill-rule="nonzero">
        <path d="M.994 2.7a.492.492 0 0 0-.955.241l3.216 12.688a.492.492 0 0 0 .954-.242L.994 2.699zM11.697 6.273L10.124.468c-.057-.21-.156-.434-.53-.457C6.645-.202 4.71 2.733 1.763 2.52c-.233-.029-.382.093-.325.302.524 1.935 1.044 3.871 1.573 5.805.084.31.298.428.53.457 2.947.213 4.883-2.722 7.83-2.508.232.028.382-.093.325-.302zM9.384.742l.434 1.601c-.62.02-1.167.146-1.747.363l-.434-1.602A5.319 5.319 0 0 1 9.384.742zM3.311 6.727l-.493-1.82c.652-.019 1.23-.16 1.835-.399l-.434-1.602c.591-.264 1.149-.58 1.707-.907L6.36 3.6c-.558.327-1.116.644-1.707.908l.493 1.82c-.605.239-1.183.38-1.835.399zm2.275 1.226l-.44-1.625c.587-.263 1.14-.576 1.695-.9l.44 1.624c-.554.325-1.108.639-1.695.9zM6.853 5.42L6.36 3.6c.559-.326 1.117-.638 1.711-.894.165.607.33 1.213.493 1.82-.594.256-1.152.568-1.71.894zm2.162.727l-.44-1.625a5.31 5.31 0 0 1 1.736-.359l.44 1.625a5.31 5.31 0 0 0-1.736.359z"/>
    </g>
</svg>
