<svg xmlns="http://www.w3.org/2000/svg" width="35" height="15" viewBox="0 0 65 21">
    <g fill="none" fill-rule="nonzero">
        <path fill="#00579F" d="M27.922 21H23l3.078-20H31zM47 .865C45.948.455 44.28 0 42.216 0c-5.267 0-8.977 2.768-9 6.725-.043 2.92 2.656 4.542 4.675 5.515 2.064.995 2.765 1.645 2.765 2.531-.02 1.362-1.667 1.99-3.203 1.99-2.13 0-3.27-.324-5.004-1.081l-.703-.325L31 19.918c1.251.562 3.556 1.06 5.949 1.082 5.596 0 9.24-2.725 9.283-6.942.021-2.315-1.404-4.088-4.477-5.537-1.866-.93-3.008-1.557-3.008-2.509.022-.865.966-1.751 3.072-1.751 1.734-.043 3.008.367 3.973.778l.483.216L47 .865zM54.192 13.915c.436-1.15 2.114-5.596 2.114-5.596-.022.043.435-1.17.697-1.915l.37 1.724s1.003 4.787 1.22 5.787h-4.4zM60.728 1h-4.095c-1.263 0-2.223.361-2.768 1.66L46 21h5.556l1.111-3h6.799c.152.702.631 3 .631 3H65L60.728 1zM18.602 1l-4.998 13.653-.547-2.77C12.133 8.69 9.235 5.218 6 3.492L10.579 21h5.398L24 1h-5.398z"/>
        <path fill="#FAA61A" d="M8.703 1H.088L0 1.409C6.72 3.088 11.171 7.135 13 12l-1.873-9.3C10.82 1.41 9.871 1.044 8.703 1z"/>
    </g>
</svg>
