<svg width="56" height="56" viewBox="0 0 56 56" fill="none" xmlns="http://www.w3.org/2000/svg">
<mask id="path-1-outside-1" maskUnits="userSpaceOnUse" x="0" y="2" width="56" height="52" fill="black">
<rect fill="white" y="2" width="56" height="52"/>
<path fill-rule="evenodd" clip-rule="evenodd" d="M54.2847 7.41117C54.4638 7.5898 54.6059 7.80202 54.7028 8.03565C54.7998 8.26929 54.8497 8.51975 54.8497 8.7727C54.8497 9.02566 54.7998 9.27612 54.7028 9.50976C54.6059 9.74339 54.4638 9.95561 54.2847 10.1342L27.3616 37.0573C27.183 37.2364 26.9708 37.3785 26.7371 37.4754C26.5035 37.5724 26.253 37.6223 26.0001 37.6223C25.7471 37.6223 25.4967 37.5724 25.263 37.4754C25.0294 37.3785 24.8172 37.2364 24.6386 37.0573L13.1001 25.5188C12.9213 25.34 12.7795 25.1278 12.6827 24.8942C12.5859 24.6606 12.5361 24.4102 12.5361 24.1573C12.5361 23.9044 12.5859 23.6541 12.6827 23.4204C12.7795 23.1868 12.9213 22.9746 13.1001 22.7958C13.2789 22.617 13.4912 22.4751 13.7248 22.3784C13.9584 22.2816 14.2088 22.2318 14.4616 22.2318C14.7145 22.2318 14.9649 22.2816 15.1985 22.3784C15.4321 22.4751 15.6444 22.617 15.8232 22.7958L26.0001 32.9765L51.5616 7.41117C51.7402 7.23208 51.9525 7.08999 52.1861 6.99304C52.4197 6.89609 52.6702 6.84619 52.9231 6.84619C53.1761 6.84619 53.4266 6.89609 53.6602 6.99304C53.8938 7.08999 54.106 7.23208 54.2847 7.41117ZM26 6.8494C21.8162 6.8494 17.7263 8.09005 14.2476 10.4145C10.7688 12.7389 8.05751 16.0426 6.45642 19.908C4.85534 23.7734 4.43643 28.0267 5.25265 32.1301C6.06888 36.2336 8.08358 40.0028 11.042 42.9612C14.0004 45.9197 17.7697 47.9344 21.8731 48.7506C25.9765 49.5668 30.2299 49.1479 34.0952 47.5468C37.9606 45.9457 41.2644 43.2344 43.5888 39.7557C45.9132 36.2769 47.1538 32.1871 47.1538 28.0032C47.1538 27.4932 47.3564 27.0041 47.7171 26.6434C48.0777 26.2828 48.5669 26.0801 49.0769 26.0801C49.5869 26.0801 50.0761 26.2828 50.4367 26.6434C50.7974 27.0041 51 27.4932 51 28.0032C50.9993 33.5064 49.1828 38.8556 45.8321 43.2213C42.4815 47.5869 37.784 50.7249 32.4682 52.1488C27.1523 53.5726 21.5152 53.2026 16.4311 51.0962C11.3469 48.9898 7.0999 45.2647 4.34859 40.4986C1.59729 35.7325 0.495495 30.1918 1.21407 24.7357C1.93265 19.2796 4.43144 14.213 8.32293 10.3218C12.2144 6.43056 17.2811 3.93209 22.7373 3.21386C28.1934 2.49564 33.7341 3.59779 38.5 6.3494C38.7298 6.46962 38.9329 6.63509 39.0972 6.83584C39.2614 7.0366 39.3833 7.2685 39.4555 7.51759C39.5278 7.76669 39.5489 8.02782 39.5177 8.28529C39.4864 8.54276 39.4033 8.79125 39.2735 9.0158C39.1438 9.24034 38.9699 9.43632 38.7624 9.59192C38.5549 9.74753 38.3181 9.85956 38.0661 9.92126C37.8142 9.98297 37.5524 9.99308 37.2965 9.95098C37.0406 9.90889 36.7958 9.81546 36.5769 9.67632C33.3624 7.81744 29.7133 6.84213 26 6.8494Z"/>
</mask>
<path fill-rule="evenodd" clip-rule="evenodd" d="M54.2847 7.41117C54.4638 7.5898 54.6059 7.80202 54.7028 8.03565C54.7998 8.26929 54.8497 8.51975 54.8497 8.7727C54.8497 9.02566 54.7998 9.27612 54.7028 9.50976C54.6059 9.74339 54.4638 9.95561 54.2847 10.1342L27.3616 37.0573C27.183 37.2364 26.9708 37.3785 26.7371 37.4754C26.5035 37.5724 26.253 37.6223 26.0001 37.6223C25.7471 37.6223 25.4967 37.5724 25.263 37.4754C25.0294 37.3785 24.8172 37.2364 24.6386 37.0573L13.1001 25.5188C12.9213 25.34 12.7795 25.1278 12.6827 24.8942C12.5859 24.6606 12.5361 24.4102 12.5361 24.1573C12.5361 23.9044 12.5859 23.6541 12.6827 23.4204C12.7795 23.1868 12.9213 22.9746 13.1001 22.7958C13.2789 22.617 13.4912 22.4751 13.7248 22.3784C13.9584 22.2816 14.2088 22.2318 14.4616 22.2318C14.7145 22.2318 14.9649 22.2816 15.1985 22.3784C15.4321 22.4751 15.6444 22.617 15.8232 22.7958L26.0001 32.9765L51.5616 7.41117C51.7402 7.23208 51.9525 7.08999 52.1861 6.99304C52.4197 6.89609 52.6702 6.84619 52.9231 6.84619C53.1761 6.84619 53.4266 6.89609 53.6602 6.99304C53.8938 7.08999 54.106 7.23208 54.2847 7.41117ZM26 6.8494C21.8162 6.8494 17.7263 8.09005 14.2476 10.4145C10.7688 12.7389 8.05751 16.0426 6.45642 19.908C4.85534 23.7734 4.43643 28.0267 5.25265 32.1301C6.06888 36.2336 8.08358 40.0028 11.042 42.9612C14.0004 45.9197 17.7697 47.9344 21.8731 48.7506C25.9765 49.5668 30.2299 49.1479 34.0952 47.5468C37.9606 45.9457 41.2644 43.2344 43.5888 39.7557C45.9132 36.2769 47.1538 32.1871 47.1538 28.0032C47.1538 27.4932 47.3564 27.0041 47.7171 26.6434C48.0777 26.2828 48.5669 26.0801 49.0769 26.0801C49.5869 26.0801 50.0761 26.2828 50.4367 26.6434C50.7974 27.0041 51 27.4932 51 28.0032C50.9993 33.5064 49.1828 38.8556 45.8321 43.2213C42.4815 47.5869 37.784 50.7249 32.4682 52.1488C27.1523 53.5726 21.5152 53.2026 16.4311 51.0962C11.3469 48.9898 7.0999 45.2647 4.34859 40.4986C1.59729 35.7325 0.495495 30.1918 1.21407 24.7357C1.93265 19.2796 4.43144 14.213 8.32293 10.3218C12.2144 6.43056 17.2811 3.93209 22.7373 3.21386C28.1934 2.49564 33.7341 3.59779 38.5 6.3494C38.7298 6.46962 38.9329 6.63509 39.0972 6.83584C39.2614 7.0366 39.3833 7.2685 39.4555 7.51759C39.5278 7.76669 39.5489 8.02782 39.5177 8.28529C39.4864 8.54276 39.4033 8.79125 39.2735 9.0158C39.1438 9.24034 38.9699 9.43632 38.7624 9.59192C38.5549 9.74753 38.3181 9.85956 38.0661 9.92126C37.8142 9.98297 37.5524 9.99308 37.2965 9.95098C37.0406 9.90889 36.7958 9.81546 36.5769 9.67632C33.3624 7.81744 29.7133 6.84213 26 6.8494Z" fill="#089C84"/>
<path d="M54.2847 10.1342L53.5785 9.42624L53.5776 9.42714L54.2847 10.1342ZM27.3616 37.0573L26.6545 36.3502L26.6536 36.3511L27.3616 37.0573ZM24.6386 37.0573L25.3466 36.3511L25.3457 36.3502L24.6386 37.0573ZM12.5361 24.1573H11.5361H12.5361ZM14.4616 22.2318V23.2318V22.2318ZM15.8232 22.7958L16.5304 22.0888L16.5303 22.0887L15.8232 22.7958ZM26.0001 32.9765L25.2928 33.6835L26 34.3909L26.7072 33.6836L26.0001 32.9765ZM51.5616 7.41117L52.2688 8.11822L52.2696 8.11738L51.5616 7.41117ZM52.9231 6.84619V7.84619V6.84619ZM51 28.0032L52 28.0034V28.0032H51ZM38.5 6.3494L38 7.21542L38.018 7.22583L38.0365 7.23548L38.5 6.3494ZM36.5769 9.67632L37.1134 8.8324L37.0957 8.82114L37.0775 8.81064L36.5769 9.67632ZM53.5785 8.11917C53.6644 8.20492 53.7326 8.30678 53.7792 8.41892L55.6264 7.65239C55.4791 7.29726 55.2631 6.97469 54.9909 6.70317L53.5785 8.11917ZM53.7792 8.41892C53.8257 8.53106 53.8497 8.65129 53.8497 8.7727H55.8497C55.8497 8.38822 55.7738 8.00751 55.6264 7.65239L53.7792 8.41892ZM53.8497 8.7727C53.8497 8.89412 53.8257 9.01434 53.7792 9.12649L55.6264 9.89302C55.7738 9.5379 55.8497 9.15719 55.8497 8.7727H53.8497ZM53.7792 9.12649C53.7326 9.23863 53.6644 9.34049 53.5785 9.42624L54.9909 10.8422C55.2631 10.5707 55.4791 10.2482 55.6264 9.89302L53.7792 9.12649ZM53.5776 9.42714L26.6545 36.3502L28.0687 37.7644L54.9918 10.8413L53.5776 9.42714ZM26.6536 36.3511C26.5679 36.437 26.466 36.5052 26.3539 36.5518L27.1204 38.3991C27.4755 38.2517 27.7981 38.0357 28.0696 37.7635L26.6536 36.3511ZM26.3539 36.5518C26.2417 36.5983 26.1215 36.6223 26.0001 36.6223V38.6223C26.3846 38.6223 26.7653 38.5464 27.1204 38.3991L26.3539 36.5518ZM26.0001 36.6223C25.8787 36.6223 25.7584 36.5983 25.6463 36.5518L24.8798 38.3991C25.2349 38.5464 25.6156 38.6223 26.0001 38.6223V36.6223ZM25.6463 36.5518C25.5342 36.5052 25.4323 36.437 25.3466 36.3511L23.9306 37.7635C24.2021 38.0357 24.5246 38.2517 24.8798 38.3991L25.6463 36.5518ZM25.3457 36.3502L13.8072 24.8117L12.393 26.226L23.9314 37.7644L25.3457 36.3502ZM13.8072 24.8117C13.7213 24.7258 13.6531 24.6238 13.6066 24.5115L11.7588 25.2768C11.9058 25.6318 12.1213 25.9543 12.393 26.226L13.8072 24.8117ZM13.6066 24.5115C13.5601 24.3992 13.5361 24.2788 13.5361 24.1573H11.5361C11.5361 24.5415 11.6118 24.9219 11.7588 25.2768L13.6066 24.5115ZM13.5361 24.1573C13.5361 24.0358 13.5601 23.9154 13.6066 23.8031L11.7588 23.0378C11.6118 23.3927 11.5361 23.7731 11.5361 24.1573H13.5361ZM13.6066 23.8031C13.6531 23.6908 13.7213 23.5888 13.8072 23.5029L12.393 22.0887C12.1213 22.3603 11.9058 22.6828 11.7588 23.0378L13.6066 23.8031ZM13.8072 23.5029C13.8931 23.4169 13.9952 23.3488 14.1075 23.3022L13.3421 21.4545C12.9872 21.6015 12.6647 21.817 12.393 22.0887L13.8072 23.5029ZM14.1075 23.3022C14.2197 23.2557 14.3401 23.2318 14.4616 23.2318V21.2318C14.0775 21.2318 13.697 21.3075 13.3421 21.4545L14.1075 23.3022ZM14.4616 23.2318C14.5832 23.2318 14.7035 23.2557 14.8158 23.3022L15.5812 21.4545C15.2262 21.3075 14.8458 21.2318 14.4616 21.2318V23.2318ZM14.8158 23.3022C14.9281 23.3488 15.0301 23.4169 15.1161 23.5029L16.5303 22.0887C16.2586 21.817 15.9361 21.6015 15.5812 21.4545L14.8158 23.3022ZM15.1159 23.5027L25.2928 33.6835L26.7073 32.2696L16.5304 22.0888L15.1159 23.5027ZM26.7072 33.6836L52.2688 8.11822L50.8544 6.70411L25.2929 32.2695L26.7072 33.6836ZM52.2696 8.11738C52.3553 8.03142 52.4572 7.96322 52.5694 7.91668L51.8028 6.0694C51.4477 6.21676 51.1251 6.43274 50.8536 6.70495L52.2696 8.11738ZM52.5694 7.91668C52.6815 7.87014 52.8017 7.84619 52.9231 7.84619V5.84619C52.5387 5.84619 52.1579 5.92204 51.8028 6.0694L52.5694 7.91668ZM52.9231 7.84619C53.0446 7.84619 53.1648 7.87014 53.2769 7.91668L54.0435 6.0694C53.6883 5.92204 53.3076 5.84619 52.9231 5.84619V7.84619ZM53.2769 7.91668C53.3891 7.96322 53.4909 8.03142 53.5767 8.11738L54.9927 6.70495C54.7211 6.43274 54.3986 6.21676 54.0435 6.0694L53.2769 7.91668ZM26 5.8494C21.6184 5.8494 17.3352 7.1487 13.692 9.58299L14.8031 11.2459C18.1174 9.0314 22.014 7.8494 26 7.8494V5.8494ZM13.692 9.58299C10.0488 12.0173 7.20932 15.4772 5.53255 19.5253L7.3803 20.2907C8.9057 16.6081 11.4889 13.4605 14.8031 11.2459L13.692 9.58299ZM5.53255 19.5253C3.85577 23.5734 3.41705 28.0278 4.27187 32.3252L6.23344 31.935C5.4558 28.0256 5.85491 23.9733 7.3803 20.2907L5.53255 19.5253ZM4.27187 32.3252C5.12668 36.6226 7.23662 40.5701 10.3349 43.6683L11.7491 42.2541C8.93054 39.4356 7.01108 35.8445 6.23344 31.935L4.27187 32.3252ZM10.3349 43.6683C13.4332 46.7666 17.3806 48.8766 21.678 49.7314L22.0682 47.7698C18.1587 46.9922 14.5677 45.0727 11.7491 42.2541L10.3349 43.6683ZM21.678 49.7314C25.9754 50.5862 30.4298 50.1475 34.4779 48.4707L33.7126 46.6229C30.0299 48.1483 25.9777 48.5474 22.0682 47.7698L21.678 49.7314ZM34.4779 48.4707C38.526 46.7939 41.986 43.9544 44.4202 40.3112L42.7573 39.2001C40.5428 42.5144 37.3952 45.0975 33.7126 46.6229L34.4779 48.4707ZM44.4202 40.3112C46.8545 36.6681 48.1538 32.3848 48.1538 28.0032H46.1538C46.1538 31.9893 44.9718 35.8858 42.7573 39.2001L44.4202 40.3112ZM48.1538 28.0032C48.1538 27.7584 48.2511 27.5236 48.4242 27.3505L47.01 25.9363C46.4618 26.4845 46.1538 27.228 46.1538 28.0032H48.1538ZM48.4242 27.3505C48.5973 27.1774 48.8321 27.0801 49.0769 27.0801V25.0801C48.3017 25.0801 47.5582 25.3881 47.01 25.9363L48.4242 27.3505ZM49.0769 27.0801C49.3217 27.0801 49.5565 27.1774 49.7296 27.3505L51.1438 25.9363C50.5957 25.3881 49.8522 25.0801 49.0769 25.0801V27.0801ZM49.7296 27.3505C49.9027 27.5236 50 27.7584 50 28.0032H52C52 27.228 51.692 26.4845 51.1438 25.9363L49.7296 27.3505ZM50 28.0031C49.9993 33.2862 48.2554 38.4214 45.0388 42.6124L46.6254 43.8301C50.1101 39.2899 51.9993 33.7267 52 28.0034L50 28.0031ZM45.0388 42.6124C41.8222 46.8034 37.3126 49.8159 32.2094 51.1828L32.7269 53.1147C38.2554 51.6339 43.1407 48.3704 46.6254 43.8301L45.0388 42.6124ZM32.2094 51.1828C27.1062 52.5497 21.6946 52.1945 16.8138 50.1724L16.0483 52.0201C21.3358 54.2107 27.1984 54.5955 32.7269 53.1147L32.2094 51.1828ZM16.8138 50.1724C11.9331 48.1502 7.8559 44.5741 5.21465 39.9987L3.48254 40.9986C6.34389 45.9553 10.7608 49.8294 16.0483 52.0201L16.8138 50.1724ZM5.21465 39.9987C2.5734 35.4232 1.51568 30.1041 2.20551 24.8662L0.222632 24.6051C-0.524687 30.2794 0.621185 36.0418 3.48254 40.9986L5.21465 39.9987ZM2.20551 24.8662C2.89534 19.6284 5.29419 14.7645 9.03001 11.0289L7.61584 9.61466C3.5687 13.6615 0.969952 18.9308 0.222632 24.6051L2.20551 24.8662ZM9.03001 11.0289C12.7658 7.29334 17.6299 4.89481 22.8678 4.20531L22.6067 2.22241C16.9324 2.96937 11.663 5.56778 7.61584 9.61466L9.03001 11.0289ZM22.8678 4.20531C28.1057 3.51581 33.4247 4.57388 38 7.21542L39 5.48337C34.0434 2.6217 28.2811 1.47546 22.6067 2.22241L22.8678 4.20531ZM38.0365 7.23548C38.1468 7.29319 38.2443 7.37261 38.3231 7.46898L39.8712 6.20271C39.6216 5.89756 39.3129 5.64605 38.9635 5.46331L38.0365 7.23548ZM38.3231 7.46898C38.4019 7.56533 38.4604 7.67664 38.4951 7.79622L40.4159 7.23897C40.3061 6.86036 40.1208 6.50787 39.8712 6.20271L38.3231 7.46898ZM38.4951 7.79622C38.5298 7.91578 38.54 8.04113 38.525 8.16471L40.5104 8.40588C40.5579 8.01452 40.5258 7.61759 40.4159 7.23897L38.4951 7.79622ZM38.525 8.16471C38.5099 8.2883 38.4701 8.40757 38.4078 8.51535L40.1393 9.51624C40.3366 9.17492 40.4628 8.79723 40.5104 8.40588L38.525 8.16471ZM38.4078 8.51535C38.3455 8.62313 38.262 8.7172 38.1624 8.79189L39.3623 10.392C39.6777 10.1554 39.942 9.85755 40.1393 9.51624L38.4078 8.51535ZM38.1624 8.79189C38.0628 8.86658 37.9491 8.92036 37.8282 8.94997L38.304 10.8925C38.687 10.7988 39.0469 10.6285 39.3623 10.392L38.1624 8.79189ZM37.8282 8.94997C37.7073 8.97959 37.5816 8.98445 37.4588 8.96424L37.1342 10.9377C37.5232 11.0017 37.9211 10.9863 38.304 10.8925L37.8282 8.94997ZM37.4588 8.96424C37.336 8.94404 37.2185 8.89919 37.1134 8.8324L36.0405 10.5202C36.3731 10.7317 36.7452 10.8737 37.1342 10.9377L37.4588 8.96424ZM37.0775 8.81064C33.7103 6.86343 29.8878 5.84179 25.9981 5.8494L26.002 7.84939C29.5388 7.84247 33.0145 8.77144 36.0763 10.542L37.0775 8.81064Z" fill="#089C84" mask="url(#path-1-outside-1)"/>
</svg>
